# Blender v2.93.0 OBJ File: ''
# www.blender.org
mtllib TVS_VoxelFarm_Scythe.mtl
o VS_Farm_Scythe
v -0.954862 -0.230588 0.044837
v -0.954862 -0.430588 -0.055163
v -0.954862 -0.430588 0.044837
v -0.954862 -0.230588 -0.055163
v -0.954862 -0.130588 0.044837
v -0.954862 -0.130588 -0.055163
v -0.854862 -0.430588 0.044837
v -0.854862 -0.530588 -0.055163
v -0.854862 -0.530588 0.044837
v -0.854862 -0.430588 -0.055163
v -0.754862 -0.530588 0.044837
v -0.754862 -0.630588 -0.055163
v -0.754862 -0.630588 0.044837
v -0.754862 -0.530588 -0.055163
v -0.554862 -0.630588 0.044837
v -0.554862 -0.730588 -0.055163
v -0.554862 -0.730588 0.044837
v -0.554862 -0.630588 -0.055163
v -0.354862 -0.730588 0.044837
v -0.354862 -0.830588 -0.055163
v -0.354862 -0.830588 0.044837
v -0.354862 -0.730588 -0.055163
v -0.054862 -0.830588 0.044837
v -0.054862 -0.930588 -0.055163
v -0.054862 -0.930588 0.044837
v -0.054862 -0.830588 -0.055163
v -0.054862 -0.030588 0.044837
v -0.054862 -0.430588 -0.055163
v -0.054862 -0.430588 0.044837
v -0.054862 0.069412 0.244837
v -0.054862 -0.030588 0.244837
v -0.054862 0.069412 0.044837
v -0.054862 1.269412 0.044837
v -0.054862 1.269412 -0.055163
v -0.854862 -0.230588 0.044837
v -0.854862 -0.230588 -0.055163
v -0.854862 -0.130588 0.044837
v -0.854862 -0.130588 -0.055163
v -0.654862 -0.330588 0.044837
v -0.654862 -0.330588 -0.055163
v -0.654862 -0.230588 0.044837
v -0.654862 -0.230588 -0.055163
v -0.354862 -0.430588 0.044837
v -0.354862 -0.430588 -0.055163
v -0.354862 -0.330588 0.044837
v -0.354862 -0.330588 -0.055163
v 0.045138 -0.930588 0.044837
v 0.045138 -0.930588 -0.055163
v 0.045138 -0.830588 0.044837
v 0.045138 -0.830588 -0.055163
v 0.045138 -0.430588 0.044837
v 0.045138 -0.430588 -0.055163
v 0.045138 -0.030588 0.044837
v 0.045138 -0.030588 0.244837
v 0.045138 0.069412 0.244837
v 0.045138 0.069412 0.044837
v 0.045138 1.269412 0.044837
v 0.045138 1.269412 -0.055163
v 0.045138 -0.030588 0.244837
v -0.054862 0.069412 0.244837
v -0.054862 -0.030588 0.244837
v 0.045138 0.069412 0.244837
v -0.854862 -0.430588 0.044837
v -0.954862 -0.230588 0.044837
v -0.954862 -0.430588 0.044837
v -0.854862 -0.330588 0.044837
v -0.854862 -0.230588 0.044837
v -0.954862 -0.130588 0.044837
v -0.854862 -0.130588 0.044837
v -0.754862 -0.530588 0.044837
v -0.854862 -0.530588 0.044837
v -0.654862 -0.430588 0.044837
v -0.754862 -0.630588 0.044837
v -0.654862 -0.330588 0.044837
v -0.654862 -0.230588 0.044837
v -0.554862 -0.630588 0.044837
v -0.354862 -0.730588 0.044837
v -0.554862 -0.730588 0.044837
v -0.354862 -0.530588 0.044837
v -0.354862 -0.430588 0.044837
v -0.354862 -0.330588 0.044837
v -0.054862 -0.830588 0.044837
v -0.354862 -0.830588 0.044837
v -0.054862 -0.530588 0.044837
v -0.054862 -0.430588 0.044837
v 0.045138 -0.930588 0.044837
v -0.054862 -0.930588 0.044837
v 0.045138 -0.830588 0.044837
v 0.045138 -0.430588 0.044837
v -0.054862 -0.030588 0.044837
v 0.045138 -0.030588 0.044837
v 0.045138 0.069412 0.044837
v -0.054862 1.269412 0.044837
v -0.054862 0.069412 0.044837
v 0.045138 1.269412 0.044837
v -0.954862 -0.430588 -0.055163
v -0.954862 -0.230588 -0.055163
v -0.854862 -0.430588 -0.055163
v -0.854862 -0.330588 -0.055163
v -0.954862 -0.130588 -0.055163
v -0.854862 -0.230588 -0.055163
v -0.854862 -0.130588 -0.055163
v -0.754862 -0.530588 -0.055163
v -0.854862 -0.530588 -0.055163
v -0.654862 -0.430588 -0.055163
v -0.754862 -0.630588 -0.055163
v -0.654862 -0.330588 -0.055163
v -0.654862 -0.230588 -0.055163
v -0.554862 -0.630588 -0.055163
v -0.554862 -0.730588 -0.055163
v -0.354862 -0.730588 -0.055163
v -0.354862 -0.530588 -0.055163
v -0.354862 -0.430588 -0.055163
v -0.354862 -0.330588 -0.055163
v -0.054862 -0.830588 -0.055163
v -0.354862 -0.830588 -0.055163
v -0.054862 -0.530588 -0.055163
v -0.054862 -0.430588 -0.055163
v -0.054862 -0.930588 -0.055163
v 0.045138 -0.930588 -0.055163
v 0.045138 -0.830588 -0.055163
v -0.054862 1.269412 -0.055163
v 0.045138 -0.430588 -0.055163
v 0.045138 1.269412 -0.055163
v -0.054862 -0.930588 -0.055163
v 0.045138 -0.930588 0.044837
v -0.054862 -0.930588 0.044837
v 0.045138 -0.930588 -0.055163
v -0.354862 -0.830588 -0.055163
v -0.054862 -0.830588 0.044837
v -0.354862 -0.830588 0.044837
v -0.054862 -0.830588 -0.055163
v -0.554862 -0.730588 -0.055163
v -0.354862 -0.730588 0.044837
v -0.554862 -0.730588 0.044837
v -0.354862 -0.730588 -0.055163
v -0.754862 -0.630588 -0.055163
v -0.554862 -0.630588 0.044837
v -0.754862 -0.630588 0.044837
v -0.554862 -0.630588 -0.055163
v -0.854862 -0.530588 -0.055163
v -0.754862 -0.530588 0.044837
v -0.854862 -0.530588 0.044837
v -0.754862 -0.530588 -0.055163
v -0.954862 -0.430588 -0.055163
v -0.854862 -0.430588 0.044837
v -0.954862 -0.430588 0.044837
v -0.854862 -0.430588 -0.055163
v -0.054862 -0.030588 0.044837
v 0.045138 -0.030588 0.244837
v -0.054862 -0.030588 0.244837
v 0.045138 -0.030588 0.044837
v -0.354862 -0.430588 0.044837
v -0.054862 -0.430588 0.044837
v -0.354862 -0.430588 -0.055163
v -0.054862 -0.430588 -0.055163
v -0.654862 -0.330588 0.044837
v -0.354862 -0.330588 0.044837
v -0.654862 -0.330588 -0.055163
v -0.354862 -0.330588 -0.055163
v -0.854862 -0.230588 0.044837
v -0.654862 -0.230588 0.044837
v -0.854862 -0.230588 -0.055163
v -0.654862 -0.230588 -0.055163
v -0.954862 -0.130588 0.044837
v -0.854862 -0.130588 0.044837
v -0.954862 -0.130588 -0.055163
v -0.854862 -0.130588 -0.055163
v -0.054862 0.069412 0.244837
v 0.045138 0.069412 0.244837
v -0.054862 0.069412 0.044837
v 0.045138 0.069412 0.044837
v -0.054862 1.269412 0.044837
v 0.045138 1.269412 0.044837
v -0.054862 1.269412 -0.055163
v 0.045138 1.269412 -0.055163
vt 0.060547 0.500000
vt 0.060547 0.500000
vt 0.060547 0.500000
vt 0.060547 0.500000
vt 0.123047 0.500000
vt 0.123047 0.500000
vt 0.123047 0.500000
vt 0.123047 0.500000
vt 0.060547 0.500000
vt 0.060547 0.500000
vt 0.060547 0.500000
vt 0.060547 0.500000
vt 0.060547 0.500000
vt 0.060547 0.500000
vt 0.060547 0.500000
vt 0.060547 0.500000
vt 0.060547 0.500000
vt 0.060547 0.500000
vt 0.060547 0.500000
vt 0.060547 0.500000
vt 0.060547 0.500000
vt 0.060547 0.500000
vt 0.060547 0.500000
vt 0.060547 0.500000
vt 0.001953 0.500000
vt 0.001953 0.500000
vt 0.001953 0.500000
vt 0.001953 0.500000
vt 0.001953 0.500000
vt 0.001953 0.500000
vt 0.001953 0.500000
vt 0.001953 0.500000
vt 0.001953 0.500000
vt 0.001953 0.500000
vt 0.001953 0.500000
vt 0.001953 0.500000
vt 0.123047 0.500000
vt 0.123047 0.500000
vt 0.123047 0.500000
vt 0.123047 0.500000
vt 0.123047 0.500000
vt 0.123047 0.500000
vt 0.123047 0.500000
vt 0.123047 0.500000
vt 0.123047 0.500000
vt 0.123047 0.500000
vt 0.123047 0.500000
vt 0.123047 0.500000
vt 0.001953 0.500000
vt 0.001953 0.500000
vt 0.001953 0.500000
vt 0.001953 0.500000
vt 0.060547 0.500000
vt 0.060547 0.500000
vt 0.060547 0.500000
vt 0.060547 0.500000
vt 0.001953 0.500000
vt 0.001953 0.500000
vt 0.001953 0.500000
vt 0.001953 0.500000
vt 0.001953 0.500000
vt 0.001953 0.500000
vt 0.001953 0.500000
vt 0.001953 0.500000
vt 0.001953 0.500000
vt 0.001953 0.500000
vt 0.001953 0.500000
vt 0.001953 0.500000
vt 0.060547 0.500000
vt 0.060547 0.500000
vt 0.060547 0.500000
vt 0.060547 0.500000
vt 0.123047 0.500000
vt 0.123047 0.500000
vt 0.123047 0.500000
vt 0.060547 0.500000
vt 0.123047 0.500000
vt 0.060547 0.500000
vt 0.060547 0.500000
vt 0.060547 0.500000
vt 0.060547 0.500000
vt 0.123047 0.500000
vt 0.123047 0.500000
vt 0.060547 0.500000
vt 0.123047 0.500000
vt 0.060547 0.500000
vt 0.060547 0.500000
vt 0.060547 0.500000
vt 0.060547 0.500000
vt 0.123047 0.500000
vt 0.123047 0.500000
vt 0.060547 0.500000
vt 0.123047 0.500000
vt 0.060547 0.500000
vt 0.060547 0.500000
vt 0.123047 0.500000
vt 0.123047 0.500000
vt 0.060547 0.500000
vt 0.123047 0.500000
vt 0.001953 0.500000
vt 0.001953 0.500000
vt 0.001953 0.500000
vt 0.060547 0.500000
vt 0.060547 0.500000
vt 0.001953 0.500000
vt 0.001953 0.500000
vt 0.001953 0.500000
vt 0.001953 0.500000
vt 0.060547 0.500000
vt 0.001953 0.500000
vt 0.001953 0.500000
vt 0.001953 0.500000
vt 0.001953 0.500000
vt 0.001953 0.500000
vt 0.060547 0.500000
vt 0.060547 0.500000
vt 0.060547 0.500000
vt 0.060547 0.500000
vt 0.123047 0.500000
vt 0.123047 0.500000
vt 0.123047 0.500000
vt 0.060547 0.500000
vt 0.123047 0.500000
vt 0.060547 0.500000
vt 0.060547 0.500000
vt 0.060547 0.500000
vt 0.060547 0.500000
vt 0.123047 0.500000
vt 0.123047 0.500000
vt 0.060547 0.500000
vt 0.123047 0.500000
vt 0.060547 0.500000
vt 0.060547 0.500000
vt 0.060547 0.500000
vt 0.060547 0.500000
vt 0.123047 0.500000
vt 0.123047 0.500000
vt 0.060547 0.500000
vt 0.123047 0.500000
vt 0.060547 0.500000
vt 0.060547 0.500000
vt 0.123047 0.500000
vt 0.123047 0.500000
vt 0.060547 0.500000
vt 0.123047 0.500000
vt 0.001953 0.500000
vt 0.001953 0.500000
vt 0.001953 0.500000
vt 0.060547 0.500000
vt 0.060547 0.500000
vt 0.001953 0.500000
vt 0.001953 0.500000
vt 0.001953 0.500000
vt 0.001953 0.500000
vt 0.060547 0.500000
vt 0.001953 0.500000
vt 0.001953 0.500000
vt 0.001953 0.500000
vt 0.001953 0.500000
vt 0.001953 0.500000
vt 0.060547 0.500000
vt 0.060547 0.500000
vt 0.060547 0.500000
vt 0.060547 0.500000
vt 0.060547 0.500000
vt 0.060547 0.500000
vt 0.060547 0.500000
vt 0.060547 0.500000
vt 0.060547 0.500000
vt 0.060547 0.500000
vt 0.060547 0.500000
vt 0.060547 0.500000
vt 0.060547 0.500000
vt 0.060547 0.500000
vt 0.060547 0.500000
vt 0.060547 0.500000
vt 0.060547 0.500000
vt 0.060547 0.500000
vt 0.060547 0.500000
vt 0.060547 0.500000
vt 0.001953 0.500000
vt 0.001953 0.500000
vt 0.001953 0.500000
vt 0.001953 0.500000
vt 0.123047 0.500000
vt 0.123047 0.500000
vt 0.123047 0.500000
vt 0.123047 0.500000
vt 0.123047 0.500000
vt 0.123047 0.500000
vt 0.123047 0.500000
vt 0.123047 0.500000
vt 0.123047 0.500000
vt 0.123047 0.500000
vt 0.123047 0.500000
vt 0.123047 0.500000
vt 0.123047 0.500000
vt 0.123047 0.500000
vt 0.123047 0.500000
vt 0.123047 0.500000
vt 0.001953 0.500000
vt 0.001953 0.500000
vt 0.001953 0.500000
vt 0.001953 0.500000
vt 0.001953 0.500000
vt 0.001953 0.500000
vt 0.001953 0.500000
vt 0.001953 0.500000
vn -1.0000 0.0000 0.0000
vn 1.0000 -0.0000 0.0000
vn 0.0000 -0.0000 1.0000
vn 0.0000 0.0000 -1.0000
vn 0.0000 -1.0000 0.0000
vn 0.0000 1.0000 0.0000
usemtl palette.086
s 1
f 1/1/1 2/2/1 3/3/1
f 4/4/1 2/2/1 1/1/1
f 5/5/1 4/6/1 1/7/1
f 6/8/1 4/6/1 5/5/1
f 7/9/1 8/10/1 9/11/1
f 10/12/1 8/10/1 7/9/1
f 11/13/1 12/14/1 13/15/1
f 14/16/1 12/14/1 11/13/1
f 15/17/1 16/18/1 17/19/1
f 18/20/1 16/18/1 15/17/1
f 19/21/1 20/22/1 21/23/1
f 22/24/1 20/22/1 19/21/1
f 23/25/1 24/26/1 25/27/1
f 26/28/1 24/26/1 23/25/1
f 27/29/1 28/30/1 29/31/1
f 30/32/1 27/29/1 31/33/1
f 32/34/1 28/30/1 27/29/1
f 32/34/1 27/29/1 30/32/1
f 33/35/1 28/30/1 32/34/1
f 34/36/1 28/30/1 33/35/1
f 35/37/2 36/38/2 37/39/2
f 37/39/2 36/38/2 38/40/2
f 39/41/2 40/42/2 41/43/2
f 41/43/2 40/42/2 42/44/2
f 43/45/2 44/46/2 45/47/2
f 45/47/2 44/46/2 46/48/2
f 47/49/2 48/50/2 49/51/2
f 49/51/2 48/50/2 50/52/2
f 49/53/2 50/54/2 51/55/2
f 51/55/2 50/54/2 52/56/2
f 51/57/2 52/58/2 53/59/2
f 54/60/2 53/59/2 55/61/2
f 53/59/2 52/58/2 56/62/2
f 55/61/2 53/59/2 56/62/2
f 56/62/2 52/58/2 57/63/2
f 57/63/2 52/58/2 58/64/2
f 59/65/3 60/66/3 61/67/3
f 62/68/3 60/66/3 59/65/3
f 63/69/3 64/70/3 65/71/3
f 66/72/3 64/70/3 63/69/3
f 67/73/3 68/74/3 64/75/3
f 67/76/3 64/70/3 66/72/3
f 69/77/3 68/74/3 67/73/3
f 70/78/3 66/72/3 63/69/3
f 70/78/3 63/69/3 71/79/3
f 72/80/3 66/72/3 70/78/3
f 72/80/3 70/78/3 73/81/3
f 74/82/3 67/73/3 66/83/3
f 74/84/3 66/72/3 72/80/3
f 75/85/3 67/73/3 74/82/3
f 76/86/3 72/80/3 73/81/3
f 77/87/3 76/86/3 78/88/3
f 79/89/3 72/80/3 76/86/3
f 79/89/3 76/86/3 77/87/3
f 80/90/3 74/82/3 72/91/3
f 80/92/3 72/80/3 79/89/3
f 81/93/3 74/82/3 80/90/3
f 82/94/3 79/89/3 77/87/3
f 82/94/3 77/87/3 83/95/3
f 84/96/3 80/90/3 79/97/3
f 84/98/3 79/89/3 82/94/3
f 85/99/3 80/90/3 84/96/3
f 86/100/3 82/101/3 87/102/3
f 88/103/3 85/104/3 84/98/3
f 88/105/3 82/101/3 86/100/3
f 88/103/3 84/98/3 82/94/3
f 89/106/3 90/107/3 85/108/3
f 89/109/3 85/104/3 88/103/3
f 91/110/3 90/107/3 89/106/3
f 92/111/3 93/112/3 94/113/3
f 95/114/3 93/112/3 92/111/3
f 96/115/4 97/116/4 98/117/4
f 98/117/4 97/116/4 99/118/4
f 97/119/4 100/120/4 101/121/4
f 99/118/4 97/116/4 101/122/4
f 101/121/4 100/120/4 102/123/4
f 98/117/4 99/118/4 103/124/4
f 104/125/4 98/117/4 103/124/4
f 103/124/4 99/118/4 105/126/4
f 106/127/4 103/124/4 105/126/4
f 99/128/4 101/121/4 107/129/4
f 105/126/4 99/118/4 107/130/4
f 107/129/4 101/121/4 108/131/4
f 106/127/4 105/126/4 109/132/4
f 110/133/4 109/132/4 111/134/4
f 109/132/4 105/126/4 112/135/4
f 111/134/4 109/132/4 112/135/4
f 105/136/4 107/129/4 113/137/4
f 112/135/4 105/126/4 113/138/4
f 113/137/4 107/129/4 114/139/4
f 111/134/4 112/135/4 115/140/4
f 116/141/4 111/134/4 115/140/4
f 112/142/4 113/137/4 117/143/4
f 115/140/4 112/135/4 117/144/4
f 117/143/4 113/137/4 118/145/4
f 119/146/4 115/147/4 120/148/4
f 117/144/4 118/149/4 121/150/4
f 120/148/4 115/147/4 121/151/4
f 115/140/4 117/144/4 121/150/4
f 118/152/4 122/153/4 123/154/4
f 121/150/4 118/149/4 123/155/4
f 123/154/4 122/153/4 124/156/4
f 125/157/5 126/158/5 127/159/5
f 128/160/5 126/158/5 125/157/5
f 129/161/5 130/162/5 131/163/5
f 132/164/5 130/162/5 129/161/5
f 133/165/5 134/166/5 135/167/5
f 136/168/5 134/166/5 133/165/5
f 137/169/5 138/170/5 139/171/5
f 140/172/5 138/170/5 137/169/5
f 141/173/5 142/174/5 143/175/5
f 144/176/5 142/174/5 141/173/5
f 145/177/5 146/178/5 147/179/5
f 148/180/5 146/178/5 145/177/5
f 149/181/5 150/182/5 151/183/5
f 152/184/5 150/182/5 149/181/5
f 153/185/6 154/186/6 155/187/6
f 155/187/6 154/186/6 156/188/6
f 157/189/6 158/190/6 159/191/6
f 159/191/6 158/190/6 160/192/6
f 161/193/6 162/194/6 163/195/6
f 163/195/6 162/194/6 164/196/6
f 165/197/6 166/198/6 167/199/6
f 167/199/6 166/198/6 168/200/6
f 169/201/6 170/202/6 171/203/6
f 171/203/6 170/202/6 172/204/6
f 173/205/6 174/206/6 175/207/6
f 175/207/6 174/206/6 176/208/6
