# Blender v2.93.0 OBJ File: ''
# www.blender.org
mtllib TVS_VoxelFarm_Spade.mtl
o VS_Farm_Spade
v -0.337265 0.500000 0.155980
v -0.337265 -0.000000 0.055980
v -0.337265 -0.000000 0.155980
v -0.337265 0.500000 0.055980
v -0.237265 0.400000 0.055980
v -0.237265 -0.000000 -0.044020
v -0.237265 -0.000000 0.055980
v -0.237265 0.400000 -0.044020
v -0.137264 0.500000 0.055980
v -0.137264 0.400000 -0.044020
v -0.137264 0.400000 0.055980
v -0.137264 0.500000 -0.044020
v -0.137264 0.600000 0.155980
v -0.137264 0.500000 0.155980
v -0.137264 0.600000 0.055980
v -0.137264 2.200000 0.155980
v -0.137264 2.100000 0.055980
v -0.137264 2.100000 0.155980
v -0.137264 2.200000 0.055980
v -0.037265 0.700000 0.155980
v -0.037265 0.600000 0.055980
v -0.037265 0.600000 0.155980
v -0.037265 0.700000 0.055980
v -0.037265 2.000000 0.155980
v -0.037265 2.000000 0.055980
v -0.037265 2.100000 0.155980
v -0.037265 2.100000 0.055980
v 0.162735 0.500000 0.155980
v 0.162735 0.400000 0.055980
v 0.162735 0.400000 0.155980
v 0.162735 0.500000 0.055980
v 0.262735 0.400000 0.155980
v 0.262735 -0.000000 0.055980
v 0.262735 -0.000000 0.155980
v 0.262735 0.400000 0.055980
v -0.237265 -0.000000 0.155980
v -0.237265 -0.000000 0.055980
v -0.237265 0.400000 0.155980
v -0.237265 0.400000 0.055980
v -0.137264 0.400000 0.155980
v -0.137264 0.400000 0.055980
v -0.137264 0.500000 0.155980
v -0.137264 0.500000 0.055980
v 0.062735 0.600000 0.155980
v 0.062735 0.600000 0.055980
v 0.062735 0.700000 0.155980
v 0.062735 0.700000 0.055980
v 0.062735 2.000000 0.155980
v 0.062735 2.000000 0.055980
v 0.062735 2.100000 0.155980
v 0.062735 2.100000 0.055980
v 0.162735 0.400000 0.055980
v 0.162735 0.400000 -0.044020
v 0.162735 0.500000 0.055980
v 0.162735 0.500000 -0.044020
v 0.162735 0.500000 0.155980
v 0.162735 0.600000 0.155980
v 0.162735 0.600000 0.055980
v 0.162735 2.100000 0.155980
v 0.162735 2.100000 0.055980
v 0.162735 2.200000 0.155980
v 0.162735 2.200000 0.055980
v 0.262735 -0.000000 0.055980
v 0.262735 -0.000000 -0.044020
v 0.262735 0.400000 0.055980
v 0.262735 0.400000 -0.044020
v 0.362735 -0.000000 0.155980
v 0.362735 -0.000000 0.055980
v 0.362735 0.500000 0.155980
v 0.362735 0.500000 0.055980
v -0.237265 -0.000000 0.155980
v -0.337265 0.500000 0.155980
v -0.337265 -0.000000 0.155980
v -0.237265 0.400000 0.155980
v -0.137264 0.400000 0.155980
v -0.137264 0.500000 0.155980
v -0.037265 0.600000 0.155980
v -0.137264 0.600000 0.155980
v -0.037265 2.100000 0.155980
v -0.137264 2.200000 0.155980
v -0.137264 2.100000 0.155980
v 0.062735 0.600000 0.155980
v -0.037265 0.700000 0.155980
v 0.062735 0.700000 0.155980
v -0.037265 2.000000 0.155980
v 0.062735 2.000000 0.155980
v 0.062735 2.100000 0.155980
v 0.162735 0.500000 0.155980
v 0.162735 0.600000 0.155980
v 0.162735 2.100000 0.155980
v 0.162735 2.200000 0.155980
v 0.262735 0.400000 0.155980
v 0.162735 0.400000 0.155980
v 0.362735 -0.000000 0.155980
v 0.262735 -0.000000 0.155980
v 0.362735 0.500000 0.155980
v -0.137264 0.400000 0.055980
v -0.237265 0.400000 0.055980
v -0.237265 -0.000000 0.055980
v 0.162735 0.400000 0.055980
v -0.137264 0.500000 0.055980
v 0.162735 0.500000 0.055980
v 0.262735 -0.000000 0.055980
v 0.262735 0.400000 0.055980
v -0.337265 -0.000000 0.055980
v -0.337265 0.500000 0.055980
v -0.237265 -0.000000 0.055980
v -0.237265 0.400000 0.055980
v -0.137264 0.400000 0.055980
v -0.137264 0.500000 0.055980
v -0.137264 0.600000 0.055980
v -0.037265 0.600000 0.055980
v -0.137264 2.100000 0.055980
v -0.137264 2.200000 0.055980
v -0.037265 2.100000 0.055980
v 0.062735 0.600000 0.055980
v -0.037265 0.700000 0.055980
v -0.037265 2.000000 0.055980
v 0.062735 0.700000 0.055980
v 0.062735 2.000000 0.055980
v 0.062735 2.100000 0.055980
v 0.162735 0.500000 0.055980
v 0.162735 0.600000 0.055980
v 0.162735 2.100000 0.055980
v 0.162735 2.200000 0.055980
v 0.162735 0.400000 0.055980
v 0.262735 0.400000 0.055980
v 0.262735 -0.000000 0.055980
v 0.362735 -0.000000 0.055980
v 0.362735 0.500000 0.055980
v -0.237265 -0.000000 -0.044020
v -0.237265 0.400000 -0.044020
v -0.137264 0.400000 -0.044020
v 0.162735 0.400000 -0.044020
v -0.137264 0.500000 -0.044020
v 0.162735 0.500000 -0.044020
v 0.262735 -0.000000 -0.044020
v 0.262735 0.400000 -0.044020
v -0.337265 -0.000000 0.055980
v -0.237265 -0.000000 0.155980
v -0.337265 -0.000000 0.155980
v -0.237265 -0.000000 0.055980
v 0.262735 -0.000000 0.055980
v 0.362735 -0.000000 0.155980
v 0.262735 -0.000000 0.155980
v 0.362735 -0.000000 0.055980
v -0.237265 -0.000000 -0.044020
v 0.262735 -0.000000 -0.044020
v -0.237265 0.400000 0.055980
v -0.137264 0.400000 0.155980
v -0.237265 0.400000 0.155980
v -0.137264 0.400000 0.055980
v 0.162735 0.400000 0.055980
v 0.262735 0.400000 0.155980
v 0.162735 0.400000 0.155980
v 0.262735 0.400000 0.055980
v -0.137264 0.500000 0.055980
v 0.162735 0.500000 0.155980
v -0.137264 0.500000 0.155980
v 0.162735 0.500000 0.055980
v -0.137264 2.100000 0.055980
v -0.037265 2.100000 0.155980
v -0.137264 2.100000 0.155980
v -0.037265 2.100000 0.055980
v 0.062735 2.100000 0.055980
v 0.162735 2.100000 0.155980
v 0.062735 2.100000 0.155980
v 0.162735 2.100000 0.055980
v -0.237265 0.400000 0.055980
v -0.137264 0.400000 0.055980
v -0.237265 0.400000 -0.044020
v -0.137264 0.400000 -0.044020
v 0.162735 0.400000 0.055980
v 0.262735 0.400000 0.055980
v 0.162735 0.400000 -0.044020
v 0.262735 0.400000 -0.044020
v -0.337265 0.500000 0.155980
v -0.137264 0.500000 0.155980
v -0.337265 0.500000 0.055980
v -0.137264 0.500000 0.055980
v 0.162735 0.500000 0.155980
v 0.362735 0.500000 0.155980
v 0.162735 0.500000 0.055980
v 0.362735 0.500000 0.055980
v -0.137264 0.500000 -0.044020
v 0.162735 0.500000 -0.044020
v -0.137264 0.600000 0.155980
v -0.037265 0.600000 0.155980
v -0.137264 0.600000 0.055980
v -0.037265 0.600000 0.055980
v 0.062735 0.600000 0.155980
v 0.162735 0.600000 0.155980
v 0.062735 0.600000 0.055980
v 0.162735 0.600000 0.055980
v -0.137264 2.200000 0.155980
v 0.162735 2.200000 0.155980
v -0.137264 2.200000 0.055980
v 0.162735 2.200000 0.055980
vt 0.060547 0.500000
vt 0.060547 0.500000
vt 0.060547 0.500000
vt 0.060547 0.500000
vt 0.060547 0.500000
vt 0.060547 0.500000
vt 0.060547 0.500000
vt 0.060547 0.500000
vt 0.060547 0.500000
vt 0.060547 0.500000
vt 0.060547 0.500000
vt 0.060547 0.500000
vt 0.060547 0.500000
vt 0.060547 0.500000
vt 0.060547 0.500000
vt 0.056641 0.500000
vt 0.056641 0.500000
vt 0.056641 0.500000
vt 0.056641 0.500000
vt 0.056641 0.500000
vt 0.056641 0.500000
vt 0.056641 0.500000
vt 0.056641 0.500000
vt 0.001953 0.500000
vt 0.001953 0.500000
vt 0.001953 0.500000
vt 0.001953 0.500000
vt 0.056641 0.500000
vt 0.056641 0.500000
vt 0.056641 0.500000
vt 0.056641 0.500000
vt 0.060547 0.500000
vt 0.060547 0.500000
vt 0.060547 0.500000
vt 0.060547 0.500000
vt 0.060547 0.500000
vt 0.060547 0.500000
vt 0.060547 0.500000
vt 0.060547 0.500000
vt 0.060547 0.500000
vt 0.060547 0.500000
vt 0.060547 0.500000
vt 0.060547 0.500000
vt 0.060547 0.500000
vt 0.060547 0.500000
vt 0.060547 0.500000
vt 0.060547 0.500000
vt 0.056641 0.500000
vt 0.056641 0.500000
vt 0.056641 0.500000
vt 0.056641 0.500000
vt 0.001953 0.500000
vt 0.001953 0.500000
vt 0.001953 0.500000
vt 0.001953 0.500000
vt 0.056641 0.500000
vt 0.056641 0.500000
vt 0.056641 0.500000
vt 0.056641 0.500000
vt 0.060547 0.500000
vt 0.060547 0.500000
vt 0.060547 0.500000
vt 0.060547 0.500000
vt 0.060547 0.500000
vt 0.060547 0.500000
vt 0.060547 0.500000
vt 0.056641 0.500000
vt 0.056641 0.500000
vt 0.056641 0.500000
vt 0.056641 0.500000
vt 0.060547 0.500000
vt 0.060547 0.500000
vt 0.060547 0.500000
vt 0.060547 0.500000
vt 0.060547 0.500000
vt 0.060547 0.500000
vt 0.060547 0.500000
vt 0.060547 0.500000
vt 0.060547 0.500000
vt 0.060547 0.500000
vt 0.060547 0.500000
vt 0.060547 0.500000
vt 0.060547 0.500000
vt 0.060547 0.500000
vt 0.060547 0.500000
vt 0.060547 0.500000
vt 0.056641 0.500000
vt 0.056641 0.500000
vt 0.056641 0.500000
vt 0.060547 0.500000
vt 0.056641 0.500000
vt 0.056641 0.500000
vt 0.056641 0.500000
vt 0.001953 0.500000
vt 0.001953 0.500000
vt 0.001953 0.500000
vt 0.056641 0.500000
vt 0.056641 0.500000
vt 0.056641 0.500000
vt 0.001953 0.500000
vt 0.056641 0.500000
vt 0.060547 0.500000
vt 0.060547 0.500000
vt 0.056641 0.500000
vt 0.056641 0.500000
vt 0.060547 0.500000
vt 0.060547 0.500000
vt 0.060547 0.500000
vt 0.060547 0.500000
vt 0.060547 0.500000
vt 0.060547 0.500000
vt 0.060547 0.500000
vt 0.060547 0.500000
vt 0.060547 0.500000
vt 0.060547 0.500000
vt 0.060547 0.500000
vt 0.060547 0.500000
vt 0.060547 0.500000
vt 0.060547 0.500000
vt 0.060547 0.500000
vt 0.060547 0.500000
vt 0.060547 0.500000
vt 0.060547 0.500000
vt 0.060547 0.500000
vt 0.060547 0.500000
vt 0.060547 0.500000
vt 0.056641 0.500000
vt 0.056641 0.500000
vt 0.056641 0.500000
vt 0.060547 0.500000
vt 0.056641 0.500000
vt 0.056641 0.500000
vt 0.056641 0.500000
vt 0.001953 0.500000
vt 0.001953 0.500000
vt 0.001953 0.500000
vt 0.056641 0.500000
vt 0.056641 0.500000
vt 0.056641 0.500000
vt 0.001953 0.500000
vt 0.056641 0.500000
vt 0.060547 0.500000
vt 0.060547 0.500000
vt 0.056641 0.500000
vt 0.056641 0.500000
vt 0.060547 0.500000
vt 0.060547 0.500000
vt 0.060547 0.500000
vt 0.060547 0.500000
vt 0.060547 0.500000
vt 0.060547 0.500000
vt 0.060547 0.500000
vt 0.060547 0.500000
vt 0.060547 0.500000
vt 0.060547 0.500000
vt 0.060547 0.500000
vt 0.060547 0.500000
vt 0.060547 0.500000
vt 0.060547 0.500000
vt 0.060547 0.500000
vt 0.060547 0.500000
vt 0.060547 0.500000
vt 0.060547 0.500000
vt 0.060547 0.500000
vt 0.060547 0.500000
vt 0.060547 0.500000
vt 0.060547 0.500000
vt 0.060547 0.500000
vt 0.060547 0.500000
vt 0.060547 0.500000
vt 0.060547 0.500000
vt 0.060547 0.500000
vt 0.060547 0.500000
vt 0.060547 0.500000
vt 0.060547 0.500000
vt 0.060547 0.500000
vt 0.060547 0.500000
vt 0.060547 0.500000
vt 0.060547 0.500000
vt 0.060547 0.500000
vt 0.056641 0.500000
vt 0.056641 0.500000
vt 0.056641 0.500000
vt 0.056641 0.500000
vt 0.056641 0.500000
vt 0.056641 0.500000
vt 0.056641 0.500000
vt 0.056641 0.500000
vt 0.060547 0.500000
vt 0.060547 0.500000
vt 0.060547 0.500000
vt 0.060547 0.500000
vt 0.060547 0.500000
vt 0.060547 0.500000
vt 0.060547 0.500000
vt 0.060547 0.500000
vt 0.060547 0.500000
vt 0.060547 0.500000
vt 0.060547 0.500000
vt 0.060547 0.500000
vt 0.060547 0.500000
vt 0.060547 0.500000
vt 0.060547 0.500000
vt 0.060547 0.500000
vt 0.060547 0.500000
vt 0.060547 0.500000
vt 0.060547 0.500000
vt 0.060547 0.500000
vt 0.060547 0.500000
vt 0.060547 0.500000
vt 0.060547 0.500000
vt 0.060547 0.500000
vt 0.060547 0.500000
vt 0.060547 0.500000
vt 0.056641 0.500000
vt 0.056641 0.500000
vt 0.056641 0.500000
vt 0.056641 0.500000
vn -1.0000 0.0000 0.0000
vn 1.0000 -0.0000 0.0000
vn 0.0000 -0.0000 1.0000
vn 0.0000 0.0000 -1.0000
vn 0.0000 -1.0000 -0.0000
vn 0.0000 1.0000 0.0000
usemtl palette.087
s 1
f 1/1/1 2/2/1 3/3/1
f 4/4/1 2/2/1 1/1/1
f 5/5/1 6/6/1 7/7/1
f 8/8/1 6/6/1 5/5/1
f 9/9/1 10/10/1 11/11/1
f 12/12/1 10/10/1 9/9/1
f 13/13/1 9/9/1 14/14/1
f 15/15/1 9/9/1 13/13/1
f 16/16/1 17/17/1 18/18/1
f 19/19/1 17/17/1 16/16/1
f 20/20/1 21/21/1 22/22/1
f 23/23/1 21/21/1 20/20/1
f 24/24/1 23/25/1 20/26/1
f 25/27/1 23/25/1 24/24/1
f 26/28/1 25/29/1 24/30/1
f 27/31/1 25/29/1 26/28/1
f 28/32/1 29/33/1 30/34/1
f 31/35/1 29/33/1 28/32/1
f 32/36/1 33/37/1 34/38/1
f 35/39/1 33/37/1 32/36/1
f 36/40/2 37/41/2 38/42/2
f 38/42/2 37/41/2 39/43/2
f 40/44/2 41/45/2 42/46/2
f 42/46/2 41/45/2 43/47/2
f 44/48/2 45/49/2 46/50/2
f 46/50/2 45/49/2 47/51/2
f 46/52/2 47/53/2 48/54/2
f 48/54/2 47/53/2 49/55/2
f 48/56/2 49/57/2 50/58/2
f 50/58/2 49/57/2 51/59/2
f 52/60/2 53/61/2 54/62/2
f 54/62/2 53/61/2 55/63/2
f 56/64/2 54/62/2 57/65/2
f 57/65/2 54/62/2 58/66/2
f 59/67/2 60/68/2 61/69/2
f 61/69/2 60/68/2 62/70/2
f 63/71/2 64/72/2 65/73/2
f 65/73/2 64/72/2 66/74/2
f 67/75/2 68/76/2 69/77/2
f 69/77/2 68/76/2 70/78/2
f 71/79/3 72/80/3 73/81/3
f 74/82/3 72/80/3 71/79/3
f 75/83/3 72/80/3 74/82/3
f 76/84/3 72/80/3 75/83/3
f 77/85/3 78/86/3 76/84/3
f 79/87/3 80/88/3 81/89/3
f 82/90/3 77/85/3 76/84/3
f 82/91/3 83/92/3 77/93/3
f 84/94/3 85/95/3 83/96/3
f 84/97/3 83/92/3 82/91/3
f 86/98/3 79/87/3 85/99/3
f 86/100/3 85/95/3 84/94/3
f 87/101/3 80/88/3 79/87/3
f 87/101/3 79/87/3 86/98/3
f 88/102/3 82/90/3 76/84/3
f 89/103/3 82/90/3 88/102/3
f 90/104/3 80/88/3 87/101/3
f 91/105/3 80/88/3 90/104/3
f 92/106/3 88/102/3 93/107/3
f 94/108/3 92/106/3 95/109/3
f 96/110/3 88/102/3 92/106/3
f 96/110/3 92/106/3 94/108/3
f 97/111/3 98/112/3 99/113/3
f 100/114/3 97/111/3 99/113/3
f 100/114/3 101/115/3 97/111/3
f 102/116/3 101/115/3 100/114/3
f 103/117/3 100/114/3 99/113/3
f 104/118/3 100/114/3 103/117/3
f 105/119/4 106/120/4 107/121/4
f 107/121/4 106/120/4 108/122/4
f 108/122/4 106/120/4 109/123/4
f 109/123/4 106/120/4 110/124/4
f 110/124/4 111/125/4 112/126/4
f 113/127/4 114/128/4 115/129/4
f 110/124/4 112/126/4 116/130/4
f 112/131/4 117/132/4 116/133/4
f 117/134/4 118/135/4 119/136/4
f 116/133/4 117/132/4 119/137/4
f 118/138/4 115/129/4 120/139/4
f 119/136/4 118/135/4 120/140/4
f 115/129/4 114/128/4 121/141/4
f 120/139/4 115/129/4 121/141/4
f 110/124/4 116/130/4 122/142/4
f 122/142/4 116/130/4 123/143/4
f 121/141/4 114/128/4 124/144/4
f 124/144/4 114/128/4 125/145/4
f 126/146/4 122/142/4 127/147/4
f 128/148/4 127/147/4 129/149/4
f 127/147/4 122/142/4 130/150/4
f 129/149/4 127/147/4 130/150/4
f 131/151/4 132/152/4 133/153/4
f 131/151/4 133/153/4 134/154/4
f 133/153/4 135/155/4 134/154/4
f 134/154/4 135/155/4 136/156/4
f 131/151/4 134/154/4 137/157/4
f 137/157/4 134/154/4 138/158/4
f 139/159/5 140/160/5 141/161/5
f 142/162/5 140/160/5 139/159/5
f 143/163/5 144/164/5 145/165/5
f 146/166/5 144/164/5 143/163/5
f 147/167/5 143/163/5 142/162/5
f 148/168/5 143/163/5 147/167/5
f 149/169/5 150/170/5 151/171/5
f 152/172/5 150/170/5 149/169/5
f 153/173/5 154/174/5 155/175/5
f 156/176/5 154/174/5 153/173/5
f 157/177/5 158/178/5 159/179/5
f 160/180/5 158/178/5 157/177/5
f 161/181/5 162/182/5 163/183/5
f 164/184/5 162/182/5 161/181/5
f 165/185/5 166/186/5 167/187/5
f 168/188/5 166/186/5 165/185/5
f 169/189/6 170/190/6 171/191/6
f 171/191/6 170/190/6 172/192/6
f 173/193/6 174/194/6 175/195/6
f 175/195/6 174/194/6 176/196/6
f 177/197/6 178/198/6 179/199/6
f 179/199/6 178/198/6 180/200/6
f 181/201/6 182/202/6 183/203/6
f 183/203/6 182/202/6 184/204/6
f 180/200/6 183/203/6 185/205/6
f 185/205/6 183/203/6 186/206/6
f 187/207/6 188/208/6 189/209/6
f 189/209/6 188/208/6 190/210/6
f 191/211/6 192/212/6 193/213/6
f 193/213/6 192/212/6 194/214/6
f 195/215/6 196/216/6 197/217/6
f 197/217/6 196/216/6 198/218/6
