# Blender v2.93.0 OBJ File: ''
# www.blender.org
mtllib TVS_VoxelFarm_PitchFork.mtl
o VS_Farm_Pitchfork
v -0.339984 0.100000 0.300000
v -0.339984 -0.000000 0.200000
v -0.339984 -0.000000 0.300000
v -0.339984 0.100000 0.200000
v -0.339984 0.400000 0.200000
v -0.339984 0.100000 0.100000
v -0.339984 0.400000 0.100000
v -0.339984 0.500000 0.300000
v -0.339984 0.400000 0.300000
v -0.339984 0.500000 0.200000
v -0.139984 0.100000 0.300000
v -0.139984 -0.000000 0.200000
v -0.139984 -0.000000 0.300000
v -0.139984 0.100000 0.200000
v -0.139984 0.400000 0.200000
v -0.139984 0.100000 0.100000
v -0.139984 0.500000 0.200000
v -0.139984 0.500000 0.100000
v -0.139984 0.600000 0.300000
v -0.139984 0.500000 0.300000
v -0.139984 0.600000 0.200000
v -0.139984 2.200000 0.300000
v -0.139984 2.100000 0.200000
v -0.139984 2.100000 0.300000
v -0.139984 2.200000 0.200000
v -0.039984 0.700000 0.300000
v -0.039984 0.600000 0.200000
v -0.039984 0.600000 0.300000
v -0.039984 0.700000 0.200000
v -0.039984 2.000000 0.300000
v -0.039984 2.000000 0.200000
v -0.039984 2.100000 0.300000
v -0.039984 2.100000 0.200000
v 0.060016 0.100000 0.300000
v 0.060016 -0.000000 0.200000
v 0.060016 -0.000000 0.300000
v 0.060016 0.100000 0.200000
v 0.060016 0.500000 0.200000
v 0.060016 0.100000 0.100000
v 0.060016 0.500000 0.100000
v 0.160016 0.500000 0.300000
v 0.160016 0.400000 0.200000
v 0.160016 0.400000 0.300000
v 0.160016 0.500000 0.200000
v 0.260016 0.100000 0.300000
v 0.260016 -0.000000 0.200000
v 0.260016 -0.000000 0.300000
v 0.260016 0.100000 0.200000
v 0.260016 0.400000 0.200000
v 0.260016 0.100000 0.100000
v 0.260016 0.400000 0.100000
v -0.239984 -0.000000 0.300000
v -0.239984 -0.000000 0.200000
v -0.239984 0.100000 0.300000
v -0.239984 0.100000 0.200000
v -0.239984 0.100000 0.100000
v -0.239984 0.400000 0.200000
v -0.239984 0.400000 0.100000
v -0.139984 0.400000 0.300000
v -0.139984 0.400000 0.200000
v -0.139984 0.500000 0.300000
v -0.139984 0.500000 0.200000
v -0.039984 -0.000000 0.300000
v -0.039984 -0.000000 0.200000
v -0.039984 0.100000 0.300000
v -0.039984 0.100000 0.200000
v -0.039984 0.100000 0.100000
v -0.039984 0.500000 0.200000
v -0.039984 0.500000 0.100000
v 0.060016 0.600000 0.300000
v 0.060016 0.600000 0.200000
v 0.060016 0.700000 0.300000
v 0.060016 0.700000 0.200000
v 0.060016 2.000000 0.300000
v 0.060016 2.000000 0.200000
v 0.060016 2.100000 0.300000
v 0.060016 2.100000 0.200000
v 0.160016 -0.000000 0.300000
v 0.160016 -0.000000 0.200000
v 0.160016 0.100000 0.300000
v 0.160016 0.100000 0.200000
v 0.160016 0.100000 0.100000
v 0.160016 0.400000 0.200000
v 0.160016 0.500000 0.200000
v 0.160016 0.500000 0.100000
v 0.160016 0.500000 0.300000
v 0.160016 0.600000 0.300000
v 0.160016 0.600000 0.200000
v 0.160016 2.100000 0.300000
v 0.160016 2.100000 0.200000
v 0.160016 2.200000 0.300000
v 0.160016 2.200000 0.200000
v 0.360016 -0.000000 0.300000
v 0.360016 -0.000000 0.200000
v 0.360016 0.100000 0.300000
v 0.360016 0.100000 0.200000
v 0.360016 0.100000 0.100000
v 0.360016 0.400000 0.200000
v 0.360016 0.400000 0.100000
v 0.360016 0.400000 0.300000
v 0.360016 0.500000 0.300000
v 0.360016 0.500000 0.200000
v -0.239984 -0.000000 0.300000
v -0.339984 0.100000 0.300000
v -0.339984 -0.000000 0.300000
v -0.239984 0.100000 0.300000
v -0.139984 0.400000 0.300000
v -0.339984 0.500000 0.300000
v -0.339984 0.400000 0.300000
v -0.139984 0.500000 0.300000
v -0.039984 -0.000000 0.300000
v -0.139984 0.100000 0.300000
v -0.139984 -0.000000 0.300000
v -0.039984 0.100000 0.300000
v -0.039984 0.600000 0.300000
v -0.139984 0.600000 0.300000
v -0.039984 2.100000 0.300000
v -0.139984 2.200000 0.300000
v -0.139984 2.100000 0.300000
v 0.060016 0.600000 0.300000
v -0.039984 0.700000 0.300000
v 0.060016 0.700000 0.300000
v -0.039984 2.000000 0.300000
v 0.060016 2.000000 0.300000
v 0.060016 2.100000 0.300000
v 0.160016 -0.000000 0.300000
v 0.060016 0.100000 0.300000
v 0.060016 -0.000000 0.300000
v 0.160016 0.100000 0.300000
v 0.160016 0.500000 0.300000
v 0.160016 0.600000 0.300000
v 0.160016 2.100000 0.300000
v 0.160016 2.200000 0.300000
v 0.360016 -0.000000 0.300000
v 0.260016 0.100000 0.300000
v 0.260016 -0.000000 0.300000
v 0.360016 0.100000 0.300000
v 0.360016 0.400000 0.300000
v 0.160016 0.400000 0.300000
v 0.360016 0.500000 0.300000
v -0.239984 0.100000 0.200000
v -0.339984 0.400000 0.200000
v -0.339984 0.100000 0.200000
v -0.239984 0.400000 0.200000
v -0.039984 0.100000 0.200000
v -0.139984 0.400000 0.200000
v -0.139984 0.100000 0.200000
v -0.139984 0.500000 0.200000
v -0.039984 0.500000 0.200000
v 0.160016 0.100000 0.200000
v 0.060016 0.500000 0.200000
v 0.060016 0.100000 0.200000
v 0.160016 0.400000 0.200000
v 0.160016 0.500000 0.200000
v 0.360016 0.100000 0.200000
v 0.260016 0.400000 0.200000
v 0.260016 0.100000 0.200000
v 0.360016 0.400000 0.200000
v -0.339984 -0.000000 0.200000
v -0.339984 0.100000 0.200000
v -0.239984 -0.000000 0.200000
v -0.239984 0.100000 0.200000
v -0.339984 0.400000 0.200000
v -0.339984 0.500000 0.200000
v -0.239984 0.400000 0.200000
v -0.139984 0.400000 0.200000
v -0.139984 0.500000 0.200000
v -0.139984 -0.000000 0.200000
v -0.139984 0.100000 0.200000
v -0.039984 -0.000000 0.200000
v -0.039984 0.100000 0.200000
v -0.139984 0.600000 0.200000
v -0.039984 0.500000 0.200000
v -0.039984 0.600000 0.200000
v -0.139984 2.100000 0.200000
v -0.139984 2.200000 0.200000
v -0.039984 2.100000 0.200000
v 0.060016 0.500000 0.200000
v -0.039984 0.700000 0.200000
v 0.060016 0.600000 0.200000
v -0.039984 2.000000 0.200000
v 0.060016 0.700000 0.200000
v 0.060016 2.000000 0.200000
v 0.060016 2.100000 0.200000
v 0.060016 -0.000000 0.200000
v 0.060016 0.100000 0.200000
v 0.160016 -0.000000 0.200000
v 0.160016 0.100000 0.200000
v 0.160016 0.500000 0.200000
v 0.160016 0.600000 0.200000
v 0.160016 2.100000 0.200000
v 0.160016 2.200000 0.200000
v 0.160016 0.400000 0.200000
v 0.260016 0.400000 0.200000
v 0.260016 -0.000000 0.200000
v 0.260016 0.100000 0.200000
v 0.360016 -0.000000 0.200000
v 0.360016 0.100000 0.200000
v 0.360016 0.400000 0.200000
v 0.360016 0.500000 0.200000
v -0.339984 0.100000 0.100000
v -0.339984 0.400000 0.100000
v -0.239984 0.100000 0.100000
v -0.239984 0.400000 0.100000
v -0.139984 0.100000 0.100000
v -0.139984 0.500000 0.100000
v -0.039984 0.100000 0.100000
v -0.039984 0.500000 0.100000
v 0.060016 0.100000 0.100000
v 0.060016 0.500000 0.100000
v 0.160016 0.100000 0.100000
v 0.160016 0.500000 0.100000
v 0.260016 0.100000 0.100000
v 0.260016 0.400000 0.100000
v 0.360016 0.100000 0.100000
v 0.360016 0.400000 0.100000
v -0.339984 -0.000000 0.200000
v -0.239984 -0.000000 0.300000
v -0.339984 -0.000000 0.300000
v -0.239984 -0.000000 0.200000
v -0.139984 -0.000000 0.200000
v -0.039984 -0.000000 0.300000
v -0.139984 -0.000000 0.300000
v -0.039984 -0.000000 0.200000
v 0.060016 -0.000000 0.200000
v 0.160016 -0.000000 0.300000
v 0.060016 -0.000000 0.300000
v 0.160016 -0.000000 0.200000
v 0.260016 -0.000000 0.200000
v 0.360016 -0.000000 0.300000
v 0.260016 -0.000000 0.300000
v 0.360016 -0.000000 0.200000
v -0.339984 0.100000 0.100000
v -0.239984 0.100000 0.200000
v -0.339984 0.100000 0.200000
v -0.239984 0.100000 0.100000
v -0.139984 0.100000 0.100000
v -0.039984 0.100000 0.200000
v -0.139984 0.100000 0.200000
v -0.039984 0.100000 0.100000
v 0.060016 0.100000 0.100000
v 0.160016 0.100000 0.200000
v 0.060016 0.100000 0.200000
v 0.160016 0.100000 0.100000
v 0.260016 0.100000 0.100000
v 0.360016 0.100000 0.200000
v 0.260016 0.100000 0.200000
v 0.360016 0.100000 0.100000
v -0.339984 0.400000 0.200000
v -0.139984 0.400000 0.300000
v -0.339984 0.400000 0.300000
v -0.239984 0.400000 0.200000
v -0.139984 0.400000 0.200000
v 0.160016 0.400000 0.200000
v 0.360016 0.400000 0.300000
v 0.160016 0.400000 0.300000
v 0.260016 0.400000 0.200000
v 0.360016 0.400000 0.200000
v -0.139984 0.500000 0.200000
v 0.160016 0.500000 0.300000
v -0.139984 0.500000 0.300000
v -0.039984 0.500000 0.200000
v 0.060016 0.500000 0.200000
v 0.160016 0.500000 0.200000
v -0.139984 2.100000 0.200000
v -0.039984 2.100000 0.300000
v -0.139984 2.100000 0.300000
v -0.039984 2.100000 0.200000
v 0.060016 2.100000 0.200000
v 0.160016 2.100000 0.300000
v 0.060016 2.100000 0.300000
v 0.160016 2.100000 0.200000
v -0.339984 0.100000 0.300000
v -0.239984 0.100000 0.300000
v -0.339984 0.100000 0.200000
v -0.239984 0.100000 0.200000
v -0.139984 0.100000 0.300000
v -0.039984 0.100000 0.300000
v -0.139984 0.100000 0.200000
v -0.039984 0.100000 0.200000
v 0.060016 0.100000 0.300000
v 0.160016 0.100000 0.300000
v 0.060016 0.100000 0.200000
v 0.160016 0.100000 0.200000
v 0.260016 0.100000 0.300000
v 0.360016 0.100000 0.300000
v 0.260016 0.100000 0.200000
v 0.360016 0.100000 0.200000
v -0.339984 0.400000 0.200000
v -0.239984 0.400000 0.200000
v -0.339984 0.400000 0.100000
v -0.239984 0.400000 0.100000
v 0.260016 0.400000 0.200000
v 0.360016 0.400000 0.200000
v 0.260016 0.400000 0.100000
v 0.360016 0.400000 0.100000
v -0.339984 0.500000 0.300000
v -0.139984 0.500000 0.300000
v -0.339984 0.500000 0.200000
v -0.139984 0.500000 0.200000
v 0.160016 0.500000 0.300000
v 0.360016 0.500000 0.300000
v 0.160016 0.500000 0.200000
v 0.360016 0.500000 0.200000
v -0.039984 0.500000 0.200000
v -0.139984 0.500000 0.100000
v -0.039984 0.500000 0.100000
v 0.060016 0.500000 0.200000
v 0.060016 0.500000 0.100000
v 0.160016 0.500000 0.100000
v -0.139984 0.600000 0.300000
v -0.039984 0.600000 0.300000
v -0.139984 0.600000 0.200000
v -0.039984 0.600000 0.200000
v 0.060016 0.600000 0.300000
v 0.160016 0.600000 0.300000
v 0.060016 0.600000 0.200000
v 0.160016 0.600000 0.200000
v -0.139984 2.200000 0.300000
v 0.160016 2.200000 0.300000
v -0.139984 2.200000 0.200000
v 0.160016 2.200000 0.200000
vt 0.060547 0.500000
vt 0.060547 0.500000
vt 0.060547 0.500000
vt 0.060547 0.500000
vt 0.060547 0.500000
vt 0.060547 0.500000
vt 0.060547 0.500000
vt 0.060547 0.500000
vt 0.060547 0.500000
vt 0.060547 0.500000
vt 0.060547 0.500000
vt 0.060547 0.500000
vt 0.060547 0.500000
vt 0.060547 0.500000
vt 0.060547 0.500000
vt 0.060547 0.500000
vt 0.060547 0.500000
vt 0.060547 0.500000
vt 0.060547 0.500000
vt 0.060547 0.500000
vt 0.060547 0.500000
vt 0.056641 0.500000
vt 0.056641 0.500000
vt 0.056641 0.500000
vt 0.056641 0.500000
vt 0.056641 0.500000
vt 0.056641 0.500000
vt 0.056641 0.500000
vt 0.056641 0.500000
vt 0.001953 0.500000
vt 0.001953 0.500000
vt 0.001953 0.500000
vt 0.001953 0.500000
vt 0.056641 0.500000
vt 0.056641 0.500000
vt 0.056641 0.500000
vt 0.056641 0.500000
vt 0.060547 0.500000
vt 0.060547 0.500000
vt 0.060547 0.500000
vt 0.060547 0.500000
vt 0.060547 0.500000
vt 0.060547 0.500000
vt 0.060547 0.500000
vt 0.060547 0.500000
vt 0.060547 0.500000
vt 0.060547 0.500000
vt 0.060547 0.500000
vt 0.060547 0.500000
vt 0.060547 0.500000
vt 0.060547 0.500000
vt 0.060547 0.500000
vt 0.060547 0.500000
vt 0.060547 0.500000
vt 0.060547 0.500000
vt 0.060547 0.500000
vt 0.060547 0.500000
vt 0.060547 0.500000
vt 0.060547 0.500000
vt 0.060547 0.500000
vt 0.060547 0.500000
vt 0.060547 0.500000
vt 0.060547 0.500000
vt 0.060547 0.500000
vt 0.060547 0.500000
vt 0.060547 0.500000
vt 0.060547 0.500000
vt 0.060547 0.500000
vt 0.060547 0.500000
vt 0.060547 0.500000
vt 0.060547 0.500000
vt 0.060547 0.500000
vt 0.060547 0.500000
vt 0.056641 0.500000
vt 0.056641 0.500000
vt 0.056641 0.500000
vt 0.056641 0.500000
vt 0.001953 0.500000
vt 0.001953 0.500000
vt 0.001953 0.500000
vt 0.001953 0.500000
vt 0.056641 0.500000
vt 0.056641 0.500000
vt 0.056641 0.500000
vt 0.056641 0.500000
vt 0.060547 0.500000
vt 0.060547 0.500000
vt 0.060547 0.500000
vt 0.060547 0.500000
vt 0.060547 0.500000
vt 0.060547 0.500000
vt 0.060547 0.500000
vt 0.060547 0.500000
vt 0.060547 0.500000
vt 0.060547 0.500000
vt 0.060547 0.500000
vt 0.056641 0.500000
vt 0.056641 0.500000
vt 0.056641 0.500000
vt 0.056641 0.500000
vt 0.060547 0.500000
vt 0.060547 0.500000
vt 0.060547 0.500000
vt 0.060547 0.500000
vt 0.060547 0.500000
vt 0.060547 0.500000
vt 0.060547 0.500000
vt 0.060547 0.500000
vt 0.060547 0.500000
vt 0.060547 0.500000
vt 0.060547 0.500000
vt 0.060547 0.500000
vt 0.060547 0.500000
vt 0.060547 0.500000
vt 0.060547 0.500000
vt 0.060547 0.500000
vt 0.060547 0.500000
vt 0.060547 0.500000
vt 0.060547 0.500000
vt 0.060547 0.500000
vt 0.060547 0.500000
vt 0.060547 0.500000
vt 0.060547 0.500000
vt 0.060547 0.500000
vt 0.056641 0.500000
vt 0.056641 0.500000
vt 0.056641 0.500000
vt 0.060547 0.500000
vt 0.056641 0.500000
vt 0.056641 0.500000
vt 0.056641 0.500000
vt 0.001953 0.500000
vt 0.001953 0.500000
vt 0.001953 0.500000
vt 0.056641 0.500000
vt 0.056641 0.500000
vt 0.056641 0.500000
vt 0.001953 0.500000
vt 0.056641 0.500000
vt 0.060547 0.500000
vt 0.060547 0.500000
vt 0.060547 0.500000
vt 0.060547 0.500000
vt 0.060547 0.500000
vt 0.060547 0.500000
vt 0.056641 0.500000
vt 0.056641 0.500000
vt 0.060547 0.500000
vt 0.060547 0.500000
vt 0.060547 0.500000
vt 0.060547 0.500000
vt 0.060547 0.500000
vt 0.060547 0.500000
vt 0.060547 0.500000
vt 0.060547 0.500000
vt 0.060547 0.500000
vt 0.060547 0.500000
vt 0.060547 0.500000
vt 0.060547 0.500000
vt 0.060547 0.500000
vt 0.060547 0.500000
vt 0.060547 0.500000
vt 0.060547 0.500000
vt 0.060547 0.500000
vt 0.060547 0.500000
vt 0.060547 0.500000
vt 0.060547 0.500000
vt 0.060547 0.500000
vt 0.060547 0.500000
vt 0.060547 0.500000
vt 0.060547 0.500000
vt 0.060547 0.500000
vt 0.060547 0.500000
vt 0.060547 0.500000
vt 0.060547 0.500000
vt 0.060547 0.500000
vt 0.060547 0.500000
vt 0.060547 0.500000
vt 0.060547 0.500000
vt 0.060547 0.500000
vt 0.060547 0.500000
vt 0.060547 0.500000
vt 0.060547 0.500000
vt 0.060547 0.500000
vt 0.060547 0.500000
vt 0.060547 0.500000
vt 0.060547 0.500000
vt 0.060547 0.500000
vt 0.056641 0.500000
vt 0.056641 0.500000
vt 0.056641 0.500000
vt 0.060547 0.500000
vt 0.056641 0.500000
vt 0.056641 0.500000
vt 0.056641 0.500000
vt 0.060547 0.500000
vt 0.001953 0.500000
vt 0.001953 0.500000
vt 0.001953 0.500000
vt 0.056641 0.500000
vt 0.056641 0.500000
vt 0.056641 0.500000
vt 0.001953 0.500000
vt 0.056641 0.500000
vt 0.060547 0.500000
vt 0.060547 0.500000
vt 0.060547 0.500000
vt 0.060547 0.500000
vt 0.060547 0.500000
vt 0.060547 0.500000
vt 0.056641 0.500000
vt 0.056641 0.500000
vt 0.060547 0.500000
vt 0.060547 0.500000
vt 0.060547 0.500000
vt 0.060547 0.500000
vt 0.060547 0.500000
vt 0.060547 0.500000
vt 0.060547 0.500000
vt 0.060547 0.500000
vt 0.060547 0.500000
vt 0.060547 0.500000
vt 0.060547 0.500000
vt 0.060547 0.500000
vt 0.060547 0.500000
vt 0.060547 0.500000
vt 0.060547 0.500000
vt 0.060547 0.500000
vt 0.060547 0.500000
vt 0.060547 0.500000
vt 0.060547 0.500000
vt 0.060547 0.500000
vt 0.060547 0.500000
vt 0.060547 0.500000
vt 0.060547 0.500000
vt 0.060547 0.500000
vt 0.060547 0.500000
vt 0.060547 0.500000
vt 0.060547 0.500000
vt 0.060547 0.500000
vt 0.060547 0.500000
vt 0.060547 0.500000
vt 0.060547 0.500000
vt 0.060547 0.500000
vt 0.060547 0.500000
vt 0.060547 0.500000
vt 0.060547 0.500000
vt 0.060547 0.500000
vt 0.060547 0.500000
vt 0.060547 0.500000
vt 0.060547 0.500000
vt 0.060547 0.500000
vt 0.060547 0.500000
vt 0.060547 0.500000
vt 0.060547 0.500000
vt 0.060547 0.500000
vt 0.060547 0.500000
vt 0.060547 0.500000
vt 0.060547 0.500000
vt 0.060547 0.500000
vt 0.060547 0.500000
vt 0.060547 0.500000
vt 0.060547 0.500000
vt 0.060547 0.500000
vt 0.060547 0.500000
vt 0.060547 0.500000
vt 0.060547 0.500000
vt 0.060547 0.500000
vt 0.060547 0.500000
vt 0.060547 0.500000
vt 0.060547 0.500000
vt 0.060547 0.500000
vt 0.060547 0.500000
vt 0.060547 0.500000
vt 0.060547 0.500000
vt 0.060547 0.500000
vt 0.060547 0.500000
vt 0.060547 0.500000
vt 0.060547 0.500000
vt 0.060547 0.500000
vt 0.060547 0.500000
vt 0.060547 0.500000
vt 0.060547 0.500000
vt 0.060547 0.500000
vt 0.056641 0.500000
vt 0.056641 0.500000
vt 0.056641 0.500000
vt 0.056641 0.500000
vt 0.056641 0.500000
vt 0.056641 0.500000
vt 0.056641 0.500000
vt 0.056641 0.500000
vt 0.060547 0.500000
vt 0.060547 0.500000
vt 0.060547 0.500000
vt 0.060547 0.500000
vt 0.060547 0.500000
vt 0.060547 0.500000
vt 0.060547 0.500000
vt 0.060547 0.500000
vt 0.060547 0.500000
vt 0.060547 0.500000
vt 0.060547 0.500000
vt 0.060547 0.500000
vt 0.060547 0.500000
vt 0.060547 0.500000
vt 0.060547 0.500000
vt 0.060547 0.500000
vt 0.060547 0.500000
vt 0.060547 0.500000
vt 0.060547 0.500000
vt 0.060547 0.500000
vt 0.060547 0.500000
vt 0.060547 0.500000
vt 0.060547 0.500000
vt 0.060547 0.500000
vt 0.060547 0.500000
vt 0.060547 0.500000
vt 0.060547 0.500000
vt 0.060547 0.500000
vt 0.060547 0.500000
vt 0.060547 0.500000
vt 0.060547 0.500000
vt 0.060547 0.500000
vt 0.060547 0.500000
vt 0.060547 0.500000
vt 0.060547 0.500000
vt 0.060547 0.500000
vt 0.060547 0.500000
vt 0.060547 0.500000
vt 0.060547 0.500000
vt 0.060547 0.500000
vt 0.060547 0.500000
vt 0.060547 0.500000
vt 0.060547 0.500000
vt 0.060547 0.500000
vt 0.060547 0.500000
vt 0.060547 0.500000
vt 0.056641 0.500000
vt 0.056641 0.500000
vt 0.056641 0.500000
vt 0.056641 0.500000
vn -1.0000 0.0000 0.0000
vn 1.0000 0.0000 0.0000
vn 0.0000 -0.0000 1.0000
vn 0.0000 0.0000 -1.0000
vn 0.0000 -1.0000 -0.0000
vn 0.0000 1.0000 0.0000
usemtl palette.085
s 1
f 1/1/1 2/2/1 3/3/1
f 4/4/1 2/2/1 1/1/1
f 5/5/1 6/6/1 4/4/1
f 7/7/1 6/6/1 5/5/1
f 8/8/1 5/5/1 9/9/1
f 10/10/1 5/5/1 8/8/1
f 11/11/1 12/12/1 13/13/1
f 14/14/1 12/12/1 11/11/1
f 15/15/1 16/16/1 14/14/1
f 17/17/1 16/16/1 15/15/1
f 18/18/1 16/16/1 17/17/1
f 19/19/1 17/17/1 20/20/1
f 21/21/1 17/17/1 19/19/1
f 22/22/1 23/23/1 24/24/1
f 25/25/1 23/23/1 22/22/1
f 26/26/1 27/27/1 28/28/1
f 29/29/1 27/27/1 26/26/1
f 30/30/1 29/31/1 26/32/1
f 31/33/1 29/31/1 30/30/1
f 32/34/1 31/35/1 30/36/1
f 33/37/1 31/35/1 32/34/1
f 34/38/1 35/39/1 36/40/1
f 37/41/1 35/39/1 34/38/1
f 38/42/1 39/43/1 37/41/1
f 40/44/1 39/43/1 38/42/1
f 41/45/1 42/46/1 43/47/1
f 44/48/1 42/46/1 41/45/1
f 45/49/1 46/50/1 47/51/1
f 48/52/1 46/50/1 45/49/1
f 49/53/1 50/54/1 48/52/1
f 51/55/1 50/54/1 49/53/1
f 52/56/2 53/57/2 54/58/2
f 54/58/2 53/57/2 55/59/2
f 55/59/2 56/60/2 57/61/2
f 57/61/2 56/60/2 58/62/2
f 59/63/2 60/64/2 61/65/2
f 61/65/2 60/64/2 62/66/2
f 63/67/2 64/68/2 65/69/2
f 65/69/2 64/68/2 66/70/2
f 66/70/2 67/71/2 68/72/2
f 68/72/2 67/71/2 69/73/2
f 70/74/2 71/75/2 72/76/2
f 72/76/2 71/75/2 73/77/2
f 72/78/2 73/79/2 74/80/2
f 74/80/2 73/79/2 75/81/2
f 74/82/2 75/83/2 76/84/2
f 76/84/2 75/83/2 77/85/2
f 78/86/2 79/87/2 80/88/2
f 80/88/2 79/87/2 81/89/2
f 81/89/2 82/90/2 83/91/2
f 83/91/2 82/90/2 84/92/2
f 84/92/2 82/90/2 85/93/2
f 86/94/2 84/92/2 87/95/2
f 87/95/2 84/92/2 88/96/2
f 89/97/2 90/98/2 91/99/2
f 91/99/2 90/98/2 92/100/2
f 93/101/2 94/102/2 95/103/2
f 95/103/2 94/102/2 96/104/2
f 96/104/2 97/105/2 98/106/2
f 98/106/2 97/105/2 99/107/2
f 100/108/2 98/106/2 101/109/2
f 101/109/2 98/106/2 102/110/2
f 103/111/3 104/112/3 105/113/3
f 106/114/3 104/112/3 103/111/3
f 107/115/3 108/116/3 109/117/3
f 110/118/3 108/116/3 107/115/3
f 111/119/3 112/120/3 113/121/3
f 114/122/3 112/120/3 111/119/3
f 115/123/3 116/124/3 110/118/3
f 117/125/3 118/126/3 119/127/3
f 120/128/3 115/123/3 110/118/3
f 120/129/3 121/130/3 115/131/3
f 122/132/3 123/133/3 121/134/3
f 122/135/3 121/130/3 120/129/3
f 124/136/3 117/125/3 123/137/3
f 124/138/3 123/133/3 122/132/3
f 125/139/3 118/126/3 117/125/3
f 125/139/3 117/125/3 124/136/3
f 126/140/3 127/141/3 128/142/3
f 129/143/3 127/141/3 126/140/3
f 130/144/3 120/128/3 110/118/3
f 131/145/3 120/128/3 130/144/3
f 132/146/3 118/126/3 125/139/3
f 133/147/3 118/126/3 132/146/3
f 134/148/3 135/149/3 136/150/3
f 137/151/3 135/149/3 134/148/3
f 138/152/3 130/144/3 139/153/3
f 140/154/3 130/144/3 138/152/3
f 141/155/3 142/156/3 143/157/3
f 144/158/3 142/156/3 141/155/3
f 145/159/3 146/160/3 147/161/3
f 145/159/3 148/162/3 146/160/3
f 149/163/3 148/162/3 145/159/3
f 150/164/3 151/165/3 152/166/3
f 153/167/3 151/165/3 150/164/3
f 154/168/3 151/165/3 153/167/3
f 155/169/3 156/170/3 157/171/3
f 158/172/3 156/170/3 155/169/3
f 159/173/4 160/174/4 161/175/4
f 161/175/4 160/174/4 162/176/4
f 163/177/4 164/178/4 165/179/4
f 165/179/4 164/178/4 166/180/4
f 166/180/4 164/178/4 167/181/4
f 168/182/4 169/183/4 170/184/4
f 170/184/4 169/183/4 171/185/4
f 167/181/4 172/186/4 173/187/4
f 173/187/4 172/186/4 174/188/4
f 175/189/4 176/190/4 177/191/4
f 173/187/4 174/188/4 178/192/4
f 174/193/4 179/194/4 180/195/4
f 178/192/4 174/188/4 180/196/4
f 179/197/4 181/198/4 182/199/4
f 180/195/4 179/194/4 182/200/4
f 181/201/4 177/191/4 183/202/4
f 182/199/4 181/198/4 183/203/4
f 177/191/4 176/190/4 184/204/4
f 183/202/4 177/191/4 184/204/4
f 185/205/4 186/206/4 187/207/4
f 187/207/4 186/206/4 188/208/4
f 178/192/4 180/196/4 189/209/4
f 189/209/4 180/196/4 190/210/4
f 184/204/4 176/190/4 191/211/4
f 191/211/4 176/190/4 192/212/4
f 193/213/4 189/209/4 194/214/4
f 195/215/4 196/216/4 197/217/4
f 197/217/4 196/216/4 198/218/4
f 194/214/4 189/209/4 199/219/4
f 199/219/4 189/209/4 200/220/4
f 201/221/4 202/222/4 203/223/4
f 203/223/4 202/222/4 204/224/4
f 205/225/4 206/226/4 207/227/4
f 207/227/4 206/226/4 208/228/4
f 209/229/4 210/230/4 211/231/4
f 211/231/4 210/230/4 212/232/4
f 213/233/4 214/234/4 215/235/4
f 215/235/4 214/234/4 216/236/4
f 217/237/5 218/238/5 219/239/5
f 220/240/5 218/238/5 217/237/5
f 221/241/5 222/242/5 223/243/5
f 224/244/5 222/242/5 221/241/5
f 225/245/5 226/246/5 227/247/5
f 228/248/5 226/246/5 225/245/5
f 229/249/5 230/250/5 231/251/5
f 232/252/5 230/250/5 229/249/5
f 233/253/5 234/254/5 235/255/5
f 236/256/5 234/254/5 233/253/5
f 237/257/5 238/258/5 239/259/5
f 240/260/5 238/258/5 237/257/5
f 241/261/5 242/262/5 243/263/5
f 244/264/5 242/262/5 241/261/5
f 245/265/5 246/266/5 247/267/5
f 248/268/5 246/266/5 245/265/5
f 249/269/5 250/270/5 251/271/5
f 252/272/5 250/270/5 249/269/5
f 253/273/5 250/270/5 252/272/5
f 254/274/5 255/275/5 256/276/5
f 257/277/5 255/275/5 254/274/5
f 258/278/5 255/275/5 257/277/5
f 259/279/5 260/280/5 261/281/5
f 262/282/5 260/280/5 259/279/5
f 263/283/5 260/280/5 262/282/5
f 264/284/5 260/280/5 263/283/5
f 265/285/5 266/286/5 267/287/5
f 268/288/5 266/286/5 265/285/5
f 269/289/5 270/290/5 271/291/5
f 272/292/5 270/290/5 269/289/5
f 273/293/6 274/294/6 275/295/6
f 275/295/6 274/294/6 276/296/6
f 277/297/6 278/298/6 279/299/6
f 279/299/6 278/298/6 280/300/6
f 281/301/6 282/302/6 283/303/6
f 283/303/6 282/302/6 284/304/6
f 285/305/6 286/306/6 287/307/6
f 287/307/6 286/306/6 288/308/6
f 289/309/6 290/310/6 291/311/6
f 291/311/6 290/310/6 292/312/6
f 293/313/6 294/314/6 295/315/6
f 295/315/6 294/314/6 296/316/6
f 297/317/6 298/318/6 299/319/6
f 299/319/6 298/318/6 300/320/6
f 301/321/6 302/322/6 303/323/6
f 303/323/6 302/322/6 304/324/6
f 300/320/6 305/325/6 306/326/6
f 306/326/6 305/325/6 307/327/6
f 308/328/6 303/323/6 309/329/6
f 309/329/6 303/323/6 310/330/6
f 311/331/6 312/332/6 313/333/6
f 313/333/6 312/332/6 314/334/6
f 315/335/6 316/336/6 317/337/6
f 317/337/6 316/336/6 318/338/6
f 319/339/6 320/340/6 321/341/6
f 321/341/6 320/340/6 322/342/6
