# Blender v2.93.0 OBJ File: ''
# www.blender.org
mtllib TVS_VoxelFarm_Sheep.mtl
o VS_Farm_Sheep
v -0.575445 0.100000 0.100000
v -0.575445 0.000000 0.000000
v -0.575445 0.000000 0.100000
v -0.575445 0.100000 0.000000
v -0.575445 0.000000 -0.100000
v -0.575445 0.100000 -0.700000
v -0.575445 0.000000 -0.800000
v -0.575445 -0.000000 -0.700000
v -0.575445 0.100000 -0.800000
v -0.575445 0.000000 -0.900000
v -0.575445 0.400000 0.100000
v -0.575445 0.400000 -0.100000
v -0.575445 0.400000 -0.700000
v -0.575445 0.400000 -0.900000
v -0.575445 0.900000 0.200000
v -0.575445 0.500000 -0.000000
v -0.575445 0.500000 0.200000
v -0.575445 0.900000 0.000000
v -0.575445 0.900000 -0.600000
v -0.575445 0.500000 -0.800000
v -0.575445 0.500000 -0.600000
v -0.575445 0.900000 -0.800000
v -0.475445 0.900000 0.000000
v -0.475445 0.500000 -0.100000
v -0.475445 0.500000 -0.000000
v -0.475445 0.900000 -0.100000
v -0.475445 0.900000 -0.800000
v -0.475445 0.500000 -0.900000
v -0.475445 0.500000 -0.800000
v -0.475445 0.900000 -0.900000
v -0.475445 1.000000 0.200000
v -0.475445 0.900000 0.200000
v -0.475445 1.000000 0.000000
v -0.475445 1.000000 -0.600000
v -0.475445 0.900000 -0.600000
v -0.475445 1.000000 -0.800000
v -0.475445 1.300000 0.500000
v -0.475445 1.200000 0.400000
v -0.475445 1.200000 0.500000
v -0.475445 1.300000 0.400000
v -0.375445 1.100000 0.600000
v -0.375445 0.800000 0.400000
v -0.375445 0.800000 0.600000
v -0.375445 1.100000 0.500000
v -0.375445 1.100000 0.400000
v -0.375445 1.200000 0.500000
v -0.375445 1.200000 0.400000
v -0.275445 0.600000 -0.900000
v -0.275445 0.500000 -0.900000
v -0.275445 0.500000 0.200000
v -0.275445 0.800000 0.600000
v -0.275445 0.700000 0.400000
v -0.275445 0.700000 0.600000
v -0.275445 0.800000 0.400000
v -0.275445 0.900000 -0.900000
v -0.275445 0.600000 -1.000000
v -0.275445 0.900000 -1.000000
v -0.275445 1.000000 0.200000
v -0.275445 1.000000 -0.900000
v -0.275445 1.100000 0.700000
v -0.275445 0.800000 0.700000
v -0.275445 1.100000 0.600000
v -0.275445 1.200000 0.600000
v -0.275445 1.100000 0.500000
v -0.275445 1.200000 0.500000
v -0.175445 0.500000 0.200000
v -0.175445 0.400000 -0.900000
v -0.175445 0.400000 0.200000
v -0.175445 0.500000 -0.900000
v -0.175445 0.600000 -0.900000
v -0.175445 0.500000 -1.000000
v -0.175445 0.600000 -1.000000
v -0.175445 0.700000 0.600000
v -0.175445 0.600000 0.400000
v -0.175445 0.600000 0.600000
v -0.175445 0.700000 0.400000
v -0.175445 0.900000 0.900000
v -0.175445 0.800000 0.700000
v -0.175445 0.800000 0.900000
v -0.175445 0.900000 0.800000
v -0.175445 1.000000 0.800000
v -0.175445 1.000000 0.700000
v -0.175445 1.000000 0.300000
v -0.175445 0.500000 0.300000
v -0.175445 1.000000 0.200000
v -0.175445 1.000000 -0.900000
v -0.175445 0.900000 -1.000000
v -0.175445 0.900000 -0.900000
v -0.175445 1.000000 -1.000000
v -0.175445 1.100000 0.800000
v -0.175445 1.100000 0.700000
v -0.175445 1.100000 0.200000
v -0.175445 1.100000 -0.900000
v -0.175445 1.200000 0.700000
v -0.175445 1.100000 0.600000
v -0.175445 1.200000 0.600000
v -0.175445 1.300000 0.600000
v -0.175445 1.200000 0.500000
v -0.175445 1.300000 0.500000
v -0.075445 0.800000 0.900000
v -0.075445 0.700000 0.600000
v -0.075445 0.700000 0.900000
v -0.075445 0.800000 0.600000
v -0.075445 0.900000 1.000000
v -0.075445 0.800000 1.000000
v -0.075445 0.900000 0.900000
v -0.075445 1.000000 1.000000
v -0.075445 1.000000 0.900000
v -0.075445 0.900000 0.800000
v -0.075445 1.000000 0.800000
v -0.075445 1.100000 0.900000
v -0.075445 1.100000 0.800000
v 0.424555 0.100000 0.100000
v 0.424555 0.000000 0.000000
v 0.424555 -0.000000 0.100000
v 0.424555 0.100000 0.000000
v 0.424555 0.000000 -0.100000
v 0.424555 0.100000 -0.700000
v 0.424555 0.000000 -0.800000
v 0.424555 0.000000 -0.700000
v 0.424555 0.100000 -0.800000
v 0.424555 0.000000 -0.900000
v 0.424555 0.400000 0.100000
v 0.424555 0.400000 -0.100000
v 0.424555 0.400000 -0.700000
v 0.424555 0.400000 -0.900000
v 0.424555 0.900000 -0.000000
v 0.424555 0.500000 -0.100000
v 0.424555 0.500000 0.200000
v 0.424555 0.900000 -0.100000
v 0.424555 0.900000 -0.800000
v 0.424555 0.500000 -0.900000
v 0.424555 0.500000 -0.600000
v 0.424555 0.900000 -0.900000
v 0.424555 1.000000 0.200000
v 0.424555 1.000000 -0.000000
v 0.424555 1.000000 -0.600000
v 0.424555 1.000000 -0.800000
v -0.375445 0.000000 0.100000
v -0.375445 0.000000 0.000000
v -0.375445 0.100000 0.100000
v -0.375445 0.000000 -0.100000
v -0.375445 0.100000 0.000000
v -0.375445 -0.000000 -0.700000
v -0.375445 0.000000 -0.800000
v -0.375445 0.100000 -0.700000
v -0.375445 0.000000 -0.900000
v -0.375445 0.100000 -0.800000
v -0.375445 0.400000 0.100000
v -0.375445 0.400000 -0.100000
v -0.375445 0.400000 -0.700000
v -0.375445 0.400000 -0.900000
v -0.375445 0.500000 0.200000
v -0.375445 0.500000 -0.100000
v -0.375445 0.900000 0.000000
v -0.375445 0.900000 -0.100000
v -0.375445 0.500000 -0.600000
v -0.375445 0.500000 -0.900000
v -0.375445 0.900000 -0.800000
v -0.375445 0.900000 -0.900000
v -0.375445 1.000000 0.200000
v -0.375445 1.000000 0.000000
v -0.375445 1.000000 -0.600000
v -0.375445 1.000000 -0.800000
v 0.124555 0.700000 0.900000
v 0.124555 0.700000 0.600000
v 0.124555 0.800000 0.900000
v 0.124555 0.800000 0.600000
v 0.124555 0.800000 1.000000
v 0.124555 0.900000 1.000000
v 0.124555 0.900000 0.900000
v 0.124555 1.000000 1.000000
v 0.124555 0.900000 0.800000
v 0.124555 1.000000 0.900000
v 0.124555 1.000000 0.800000
v 0.124555 1.100000 0.900000
v 0.124555 1.100000 0.800000
v 0.224555 0.400000 0.200000
v 0.224555 0.400000 -0.900000
v 0.224555 0.500000 0.200000
v 0.224555 0.500000 -0.900000
v 0.224555 0.500000 -1.000000
v 0.224555 0.600000 -0.900000
v 0.224555 0.600000 -1.000000
v 0.224555 0.600000 0.600000
v 0.224555 0.600000 0.400000
v 0.224555 0.700000 0.600000
v 0.224555 0.700000 0.400000
v 0.224555 0.800000 0.900000
v 0.224555 0.800000 0.700000
v 0.224555 0.900000 0.900000
v 0.224555 0.900000 0.800000
v 0.224555 1.000000 0.800000
v 0.224555 1.000000 0.700000
v 0.224555 0.500000 0.300000
v 0.224555 1.000000 0.300000
v 0.224555 1.000000 0.200000
v 0.224555 0.900000 -0.900000
v 0.224555 0.900000 -1.000000
v 0.224555 1.000000 -0.900000
v 0.224555 1.000000 -1.000000
v 0.224555 1.100000 0.800000
v 0.224555 1.100000 0.700000
v 0.224555 1.100000 0.200000
v 0.224555 1.100000 -0.900000
v 0.224555 1.100000 0.600000
v 0.224555 1.200000 0.700000
v 0.224555 1.200000 0.600000
v 0.224555 1.200000 0.500000
v 0.224555 1.300000 0.600000
v 0.224555 1.300000 0.500000
v 0.324555 0.500000 0.200000
v 0.324555 0.500000 -0.900000
v 0.324555 0.600000 -0.900000
v 0.324555 0.700000 0.600000
v 0.324555 0.700000 0.400000
v 0.324555 0.800000 0.600000
v 0.324555 0.800000 0.400000
v 0.324555 0.900000 -0.900000
v 0.324555 0.600000 -1.000000
v 0.324555 0.900000 -1.000000
v 0.324555 1.000000 0.200000
v 0.324555 1.000000 -0.900000
v 0.324555 0.800000 0.700000
v 0.324555 1.100000 0.700000
v 0.324555 1.100000 0.600000
v 0.324555 1.100000 0.500000
v 0.324555 1.200000 0.600000
v 0.324555 1.200000 0.500000
v 0.424555 0.800000 0.600000
v 0.424555 0.800000 0.400000
v 0.424555 1.100000 0.600000
v 0.424555 1.100000 0.500000
v 0.424555 1.100000 0.400000
v 0.424555 1.200000 0.500000
v 0.424555 1.200000 0.400000
v 0.524555 0.500000 -0.000000
v 0.524555 0.500000 -0.100000
v 0.524555 0.900000 -0.000000
v 0.524555 0.900000 -0.100000
v 0.524555 0.500000 -0.800000
v 0.524555 0.500000 -0.900000
v 0.524555 0.900000 -0.800000
v 0.524555 0.900000 -0.900000
v 0.524555 0.900000 0.200000
v 0.524555 1.000000 0.200000
v 0.524555 1.000000 -0.000000
v 0.524555 0.900000 -0.600000
v 0.524555 1.000000 -0.600000
v 0.524555 1.000000 -0.800000
v 0.524555 1.200000 0.500000
v 0.524555 1.200000 0.400000
v 0.524555 1.300000 0.500000
v 0.524555 1.300000 0.400000
v 0.624555 -0.000000 0.100000
v 0.624555 0.000000 0.000000
v 0.624555 0.100000 0.100000
v 0.624555 0.000000 -0.100000
v 0.624555 0.100000 0.000000
v 0.624555 0.000000 -0.700000
v 0.624555 0.000000 -0.800000
v 0.624555 0.100000 -0.700000
v 0.624555 0.000000 -0.900000
v 0.624555 0.100000 -0.800000
v 0.624555 0.400000 0.100000
v 0.624555 0.400000 -0.100000
v 0.624555 0.400000 -0.700000
v 0.624555 0.400000 -0.900000
v 0.624555 0.500000 0.200000
v 0.624555 0.500000 -0.000000
v 0.624555 0.900000 0.200000
v 0.624555 0.900000 -0.000000
v 0.624555 0.500000 -0.600000
v 0.624555 0.500000 -0.800000
v 0.624555 0.900000 -0.600000
v 0.624555 0.900000 -0.800000
v 0.124555 0.800000 1.000000
v -0.075445 0.900000 1.000000
v -0.075445 0.800000 1.000000
v 0.124555 0.900000 1.000000
v -0.075445 1.000000 1.000000
v 0.124555 1.000000 1.000000
v -0.075445 0.800000 0.900000
v -0.175445 0.900000 0.900000
v -0.175445 0.800000 0.900000
v -0.075445 0.900000 0.900000
v 0.124555 0.700000 0.900000
v -0.075445 0.700000 0.900000
v 0.124555 0.800000 0.900000
v 0.124555 1.000000 0.900000
v -0.075445 1.100000 0.900000
v -0.075445 1.000000 0.900000
v 0.124555 1.100000 0.900000
v 0.224555 0.800000 0.900000
v 0.124555 0.900000 0.900000
v 0.224555 0.900000 0.900000
v -0.075445 0.900000 0.800000
v -0.175445 1.000000 0.800000
v -0.175445 0.900000 0.800000
v -0.075445 1.000000 0.800000
v -0.175445 1.100000 0.800000
v -0.075445 1.100000 0.800000
v 0.224555 0.900000 0.800000
v 0.124555 1.000000 0.800000
v 0.124555 0.900000 0.800000
v 0.224555 1.000000 0.800000
v 0.124555 1.100000 0.800000
v 0.224555 1.100000 0.800000
v -0.175445 0.800000 0.700000
v -0.275445 1.100000 0.700000
v -0.275445 0.800000 0.700000
v -0.175445 1.000000 0.700000
v -0.175445 1.100000 0.700000
v -0.075445 1.100000 0.700000
v -0.175445 1.200000 0.700000
v 0.124555 1.100000 0.700000
v 0.224555 1.100000 0.700000
v 0.224555 1.200000 0.700000
v 0.324555 0.800000 0.700000
v 0.224555 1.000000 0.700000
v 0.224555 0.800000 0.700000
v 0.324555 1.100000 0.700000
v -0.275445 0.800000 0.600000
v -0.375445 1.100000 0.600000
v -0.375445 0.800000 0.600000
v -0.275445 1.100000 0.600000
v -0.175445 0.700000 0.600000
v -0.275445 0.700000 0.600000
v -0.175445 1.100000 0.600000
v -0.275445 1.200000 0.600000
v -0.175445 1.200000 0.600000
v -0.075445 0.700000 0.600000
v -0.175445 0.600000 0.600000
v -0.075445 0.800000 0.600000
v 0.124555 0.700000 0.600000
v 0.224555 0.600000 0.600000
v 0.124555 0.800000 0.600000
v 0.224555 0.700000 0.600000
v 0.224555 1.200000 0.600000
v -0.175445 1.300000 0.600000
v 0.224555 1.300000 0.600000
v 0.324555 0.700000 0.600000
v 0.324555 0.800000 0.600000
v 0.324555 1.100000 0.600000
v 0.224555 1.100000 0.600000
v 0.324555 1.200000 0.600000
v 0.424555 0.800000 0.600000
v 0.424555 1.100000 0.600000
v -0.375445 1.200000 0.500000
v -0.475445 1.300000 0.500000
v -0.475445 1.200000 0.500000
v -0.275445 1.100000 0.500000
v -0.375445 1.100000 0.500000
v -0.275445 1.200000 0.500000
v -0.175445 1.200000 0.500000
v -0.175445 1.300000 0.500000
v 0.324555 1.200000 0.500000
v 0.224555 1.300000 0.500000
v 0.224555 1.200000 0.500000
v 0.424555 1.100000 0.500000
v 0.324555 1.100000 0.500000
v 0.424555 1.200000 0.500000
v 0.524555 1.200000 0.500000
v 0.524555 1.300000 0.500000
v 0.224555 0.500000 0.300000
v -0.175445 1.000000 0.300000
v -0.175445 0.500000 0.300000
v 0.224555 1.000000 0.300000
v -0.475445 0.900000 0.200000
v -0.575445 0.900000 0.200000
v -0.575445 0.500000 0.200000
v -0.375445 0.500000 0.200000
v -0.475445 1.000000 0.200000
v -0.375445 1.000000 0.200000
v -0.175445 0.500000 0.200000
v -0.275445 1.000000 0.200000
v -0.275445 0.500000 0.200000
v -0.175445 1.000000 0.200000
v 0.224555 0.400000 0.200000
v -0.175445 0.400000 0.200000
v 0.224555 0.500000 0.200000
v 0.224555 1.000000 0.200000
v -0.175445 1.100000 0.200000
v 0.224555 1.100000 0.200000
v 0.324555 0.500000 0.200000
v 0.324555 1.000000 0.200000
v 0.524555 0.900000 0.200000
v 0.424555 1.000000 0.200000
v 0.424555 0.500000 0.200000
v 0.524555 1.000000 0.200000
v 0.624555 0.500000 0.200000
v 0.624555 0.900000 0.200000
v -0.375445 0.000000 0.100000
v -0.575445 0.100000 0.100000
v -0.575445 0.000000 0.100000
v -0.375445 0.100000 0.100000
v -0.575445 0.400000 0.100000
v -0.375445 0.400000 0.100000
v 0.624555 -0.000000 0.100000
v 0.424555 0.100000 0.100000
v 0.424555 -0.000000 0.100000
v 0.624555 0.100000 0.100000
v 0.424555 0.400000 0.100000
v 0.624555 0.400000 0.100000
v -0.475445 0.900000 -0.600000
v -0.575445 0.900000 -0.600000
v -0.575445 0.500000 -0.600000
v -0.375445 0.500000 -0.600000
v -0.475445 1.000000 -0.600000
v -0.375445 1.000000 -0.600000
v 0.524555 0.900000 -0.600000
v 0.424555 1.000000 -0.600000
v 0.424555 0.500000 -0.600000
v 0.524555 1.000000 -0.600000
v 0.624555 0.500000 -0.600000
v 0.624555 0.900000 -0.600000
v -0.375445 -0.000000 -0.700000
v -0.575445 0.100000 -0.700000
v -0.575445 -0.000000 -0.700000
v -0.375445 0.100000 -0.700000
v -0.575445 0.400000 -0.700000
v -0.375445 0.400000 -0.700000
v 0.624555 0.000000 -0.700000
v 0.424555 0.100000 -0.700000
v 0.424555 0.000000 -0.700000
v 0.624555 0.100000 -0.700000
v 0.424555 0.400000 -0.700000
v 0.624555 0.400000 -0.700000
v -0.475445 1.200000 0.400000
v -0.475445 1.300000 0.400000
v -0.375445 1.200000 0.400000
v -0.375445 0.800000 0.400000
v -0.375445 1.100000 0.400000
v -0.275445 0.800000 0.400000
v -0.275445 0.700000 0.400000
v -0.175445 0.700000 0.400000
v -0.175445 1.100000 0.400000
v -0.175445 1.200000 0.400000
v -0.175445 0.600000 0.400000
v -0.075445 1.200000 0.400000
v -0.075445 1.300000 0.400000
v 0.124555 1.200000 0.400000
v 0.124555 1.300000 0.400000
v 0.224555 0.600000 0.400000
v 0.224555 0.700000 0.400000
v 0.224555 1.100000 0.400000
v 0.224555 1.200000 0.400000
v 0.324555 0.700000 0.400000
v 0.324555 0.800000 0.400000
v 0.424555 0.800000 0.400000
v 0.424555 1.100000 0.400000
v 0.424555 1.200000 0.400000
v 0.524555 1.200000 0.400000
v 0.524555 1.300000 0.400000
v -0.575445 0.500000 -0.000000
v -0.575445 0.900000 0.000000
v -0.475445 0.500000 -0.000000
v -0.475445 0.900000 0.000000
v -0.475445 1.000000 0.000000
v -0.375445 0.900000 0.000000
v -0.375445 1.000000 0.000000
v 0.424555 0.900000 -0.000000
v 0.424555 1.000000 -0.000000
v 0.524555 0.900000 -0.000000
v 0.524555 1.000000 -0.000000
v 0.524555 0.500000 -0.000000
v 0.624555 0.500000 -0.000000
v 0.624555 0.900000 -0.000000
v -0.575445 0.000000 -0.100000
v -0.575445 0.400000 -0.100000
v -0.375445 0.000000 -0.100000
v -0.375445 0.400000 -0.100000
v -0.475445 0.500000 -0.100000
v -0.475445 0.900000 -0.100000
v -0.375445 0.500000 -0.100000
v -0.375445 0.900000 -0.100000
v 0.424555 0.500000 -0.100000
v 0.424555 0.900000 -0.100000
v 0.524555 0.500000 -0.100000
v 0.524555 0.900000 -0.100000
v 0.424555 0.000000 -0.100000
v 0.424555 0.400000 -0.100000
v 0.624555 0.000000 -0.100000
v 0.624555 0.400000 -0.100000
v -0.575445 0.500000 -0.800000
v -0.575445 0.900000 -0.800000
v -0.475445 0.500000 -0.800000
v -0.475445 0.900000 -0.800000
v -0.475445 1.000000 -0.800000
v -0.375445 0.900000 -0.800000
v -0.375445 1.000000 -0.800000
v 0.424555 0.900000 -0.800000
v 0.424555 1.000000 -0.800000
v 0.524555 0.900000 -0.800000
v 0.524555 1.000000 -0.800000
v 0.524555 0.500000 -0.800000
v 0.624555 0.500000 -0.800000
v 0.624555 0.900000 -0.800000
v -0.575445 0.000000 -0.900000
v -0.575445 0.400000 -0.900000
v -0.375445 0.000000 -0.900000
v -0.375445 0.400000 -0.900000
v -0.475445 0.500000 -0.900000
v -0.475445 0.900000 -0.900000
v -0.375445 0.500000 -0.900000
v -0.375445 0.900000 -0.900000
v -0.275445 0.500000 -0.900000
v -0.275445 0.600000 -0.900000
v -0.175445 0.500000 -0.900000
v -0.175445 0.600000 -0.900000
v -0.275445 0.900000 -0.900000
v -0.275445 1.000000 -0.900000
v -0.175445 0.900000 -0.900000
v -0.175445 1.000000 -0.900000
v -0.175445 0.400000 -0.900000
v 0.224555 0.400000 -0.900000
v 0.224555 0.500000 -0.900000
v -0.175445 1.100000 -0.900000
v 0.224555 1.000000 -0.900000
v 0.224555 1.100000 -0.900000
v 0.224555 0.600000 -0.900000
v 0.324555 0.500000 -0.900000
v 0.324555 0.600000 -0.900000
v 0.224555 0.900000 -0.900000
v 0.324555 0.900000 -0.900000
v 0.324555 1.000000 -0.900000
v 0.424555 0.500000 -0.900000
v 0.424555 0.900000 -0.900000
v 0.524555 0.500000 -0.900000
v 0.524555 0.900000 -0.900000
v 0.424555 0.000000 -0.900000
v 0.424555 0.400000 -0.900000
v 0.624555 0.000000 -0.900000
v 0.624555 0.400000 -0.900000
v -0.275445 0.600000 -1.000000
v -0.275445 0.900000 -1.000000
v -0.175445 0.600000 -1.000000
v -0.175445 0.900000 -1.000000
v -0.175445 0.500000 -1.000000
v 0.224555 0.500000 -1.000000
v -0.175445 1.000000 -1.000000
v 0.224555 0.600000 -1.000000
v 0.224555 0.900000 -1.000000
v 0.224555 1.000000 -1.000000
v 0.324555 0.600000 -1.000000
v 0.324555 0.900000 -1.000000
v -0.575445 0.000000 0.000000
v -0.375445 0.000000 0.100000
v -0.575445 0.000000 0.100000
v -0.375445 0.000000 0.000000
v 0.424555 0.000000 0.000000
v 0.624555 -0.000000 0.100000
v 0.424555 -0.000000 0.100000
v 0.624555 0.000000 0.000000
v -0.575445 0.000000 -0.100000
v -0.375445 0.000000 -0.100000
v 0.424555 0.000000 -0.100000
v 0.624555 0.000000 -0.100000
v -0.575445 0.000000 -0.800000
v -0.375445 -0.000000 -0.700000
v -0.575445 -0.000000 -0.700000
v -0.375445 0.000000 -0.800000
v 0.424555 0.000000 -0.800000
v 0.624555 0.000000 -0.700000
v 0.424555 0.000000 -0.700000
v 0.624555 0.000000 -0.800000
v -0.575445 0.000000 -0.900000
v -0.375445 0.000000 -0.900000
v 0.424555 0.000000 -0.900000
v 0.624555 0.000000 -0.900000
v -0.175445 0.400000 -0.900000
v 0.224555 0.400000 0.200000
v -0.175445 0.400000 0.200000
v 0.224555 0.400000 -0.900000
v -0.175445 0.500000 0.200000
v 0.224555 0.500000 0.300000
v -0.175445 0.500000 0.300000
v 0.224555 0.500000 0.200000
v -0.575445 0.500000 -0.000000
v -0.375445 0.500000 0.200000
v -0.575445 0.500000 0.200000
v -0.475445 0.500000 -0.000000
v 0.524555 0.500000 -0.000000
v 0.624555 0.500000 0.200000
v 0.424555 0.500000 0.200000
v 0.624555 0.500000 -0.000000
v -0.475445 0.500000 -0.100000
v -0.375445 0.500000 -0.100000
v 0.424555 0.500000 -0.100000
v 0.524555 0.500000 -0.100000
v -0.575445 0.500000 -0.800000
v -0.375445 0.500000 -0.600000
v -0.575445 0.500000 -0.600000
v -0.475445 0.500000 -0.800000
v 0.524555 0.500000 -0.800000
v 0.624555 0.500000 -0.600000
v 0.424555 0.500000 -0.600000
v 0.624555 0.500000 -0.800000
v -0.475445 0.500000 -0.900000
v -0.375445 0.500000 -0.900000
v -0.275445 0.500000 -0.900000
v -0.275445 0.500000 0.200000
v -0.175445 0.500000 -0.900000
v 0.224555 0.500000 -0.900000
v 0.324555 0.500000 0.200000
v 0.324555 0.500000 -0.900000
v 0.424555 0.500000 -0.900000
v 0.524555 0.500000 -0.900000
v -0.175445 0.500000 -1.000000
v 0.224555 0.500000 -1.000000
v -0.175445 0.600000 0.400000
v 0.224555 0.600000 0.600000
v -0.175445 0.600000 0.600000
v 0.224555 0.600000 0.400000
v -0.275445 0.600000 -1.000000
v -0.175445 0.600000 -0.900000
v -0.275445 0.600000 -0.900000
v -0.175445 0.600000 -1.000000
v 0.224555 0.600000 -1.000000
v 0.324555 0.600000 -0.900000
v 0.224555 0.600000 -0.900000
v 0.324555 0.600000 -1.000000
v -0.075445 0.700000 0.600000
v 0.124555 0.700000 0.900000
v -0.075445 0.700000 0.900000
v 0.124555 0.700000 0.600000
v -0.275445 0.700000 0.400000
v -0.175445 0.700000 0.600000
v -0.275445 0.700000 0.600000
v -0.175445 0.700000 0.400000
v 0.224555 0.700000 0.400000
v 0.324555 0.700000 0.600000
v 0.224555 0.700000 0.600000
v 0.324555 0.700000 0.400000
v -0.075445 0.800000 0.900000
v 0.124555 0.800000 1.000000
v -0.075445 0.800000 1.000000
v 0.124555 0.800000 0.900000
v -0.175445 0.800000 0.700000
v -0.175445 0.800000 0.900000
v 0.224555 0.800000 0.700000
v 0.224555 0.800000 0.900000
v -0.275445 0.800000 0.600000
v -0.275445 0.800000 0.700000
v -0.075445 0.800000 0.600000
v 0.124555 0.800000 0.600000
v 0.324555 0.800000 0.700000
v 0.324555 0.800000 0.600000
v -0.375445 0.800000 0.400000
v -0.375445 0.800000 0.600000
v -0.275445 0.800000 0.400000
v 0.324555 0.800000 0.400000
v 0.424555 0.800000 0.600000
v 0.424555 0.800000 0.400000
v -0.475445 1.200000 0.400000
v -0.375445 1.200000 0.500000
v -0.475445 1.200000 0.500000
v -0.375445 1.200000 0.400000
v 0.424555 1.200000 0.400000
v 0.524555 1.200000 0.500000
v 0.424555 1.200000 0.500000
v 0.524555 1.200000 0.400000
v -0.575445 0.400000 0.100000
v -0.375445 0.400000 0.100000
v -0.575445 0.400000 -0.100000
v -0.375445 0.400000 -0.100000
v 0.424555 0.400000 0.100000
v 0.624555 0.400000 0.100000
v 0.424555 0.400000 -0.100000
v 0.624555 0.400000 -0.100000
v -0.575445 0.400000 -0.700000
v -0.375445 0.400000 -0.700000
v -0.575445 0.400000 -0.900000
v -0.375445 0.400000 -0.900000
v 0.424555 0.400000 -0.700000
v 0.624555 0.400000 -0.700000
v 0.424555 0.400000 -0.900000
v 0.624555 0.400000 -0.900000
v -0.175445 0.900000 0.900000
v -0.075445 0.900000 0.900000
v -0.175445 0.900000 0.800000
v -0.075445 0.900000 0.800000
v 0.124555 0.900000 0.900000
v 0.224555 0.900000 0.900000
v 0.124555 0.900000 0.800000
v 0.224555 0.900000 0.800000
v -0.575445 0.900000 0.200000
v -0.475445 0.900000 0.200000
v -0.575445 0.900000 0.000000
v -0.475445 0.900000 0.000000
v 0.524555 0.900000 0.200000
v 0.624555 0.900000 0.200000
v 0.524555 0.900000 -0.000000
v 0.624555 0.900000 -0.000000
v -0.375445 0.900000 0.000000
v -0.475445 0.900000 -0.100000
v -0.375445 0.900000 -0.100000
v 0.424555 0.900000 -0.000000
v 0.424555 0.900000 -0.100000
v 0.524555 0.900000 -0.100000
v -0.575445 0.900000 -0.600000
v -0.475445 0.900000 -0.600000
v -0.575445 0.900000 -0.800000
v -0.475445 0.900000 -0.800000
v 0.524555 0.900000 -0.600000
v 0.624555 0.900000 -0.600000
v 0.524555 0.900000 -0.800000
v 0.624555 0.900000 -0.800000
v -0.375445 0.900000 -0.800000
v -0.475445 0.900000 -0.900000
v -0.375445 0.900000 -0.900000
v 0.424555 0.900000 -0.800000
v 0.424555 0.900000 -0.900000
v 0.524555 0.900000 -0.900000
v -0.275445 0.900000 -0.900000
v -0.175445 0.900000 -0.900000
v -0.275445 0.900000 -1.000000
v -0.175445 0.900000 -1.000000
v 0.224555 0.900000 -0.900000
v 0.324555 0.900000 -0.900000
v 0.224555 0.900000 -1.000000
v 0.324555 0.900000 -1.000000
v -0.075445 1.000000 1.000000
v 0.124555 1.000000 1.000000
v -0.075445 1.000000 0.900000
v 0.124555 1.000000 0.900000
v -0.175445 1.000000 0.300000
v 0.224555 1.000000 0.300000
v -0.175445 1.000000 0.200000
v 0.224555 1.000000 0.200000
v -0.475445 1.000000 0.200000
v -0.375445 1.000000 0.200000
v -0.475445 1.000000 0.000000
v -0.375445 1.000000 0.000000
v 0.424555 1.000000 0.200000
v 0.524555 1.000000 0.200000
v 0.424555 1.000000 -0.000000
v 0.524555 1.000000 -0.000000
v -0.475445 1.000000 -0.600000
v -0.375445 1.000000 -0.600000
v -0.475445 1.000000 -0.800000
v -0.375445 1.000000 -0.800000
v 0.424555 1.000000 -0.600000
v 0.524555 1.000000 -0.600000
v 0.424555 1.000000 -0.800000
v 0.524555 1.000000 -0.800000
v -0.275445 1.000000 0.200000
v -0.275445 1.000000 -0.900000
v -0.175445 1.000000 -0.900000
v 0.324555 1.000000 0.200000
v 0.224555 1.000000 -0.900000
v 0.324555 1.000000 -0.900000
v -0.175445 1.000000 -1.000000
v 0.224555 1.000000 -1.000000
v -0.075445 1.100000 0.900000
v 0.124555 1.100000 0.900000
v -0.075445 1.100000 0.800000
v 0.124555 1.100000 0.800000
v -0.175445 1.100000 0.800000
v -0.175445 1.100000 0.700000
v -0.075445 1.100000 0.700000
v 0.224555 1.100000 0.800000
v 0.124555 1.100000 0.700000
v 0.224555 1.100000 0.700000
v -0.275445 1.100000 0.700000
v -0.275445 1.100000 0.600000
v -0.175445 1.100000 0.600000
v 0.324555 1.100000 0.700000
v 0.224555 1.100000 0.600000
v 0.324555 1.100000 0.600000
v -0.375445 1.100000 0.600000
v -0.375445 1.100000 0.500000
v -0.275445 1.100000 0.500000
v 0.424555 1.100000 0.600000
v 0.324555 1.100000 0.500000
v 0.424555 1.100000 0.500000
v -0.175445 1.100000 0.200000
v 0.224555 1.100000 0.200000
v -0.175445 1.100000 -0.900000
v 0.224555 1.100000 -0.900000
v -0.175445 1.200000 0.700000
v 0.224555 1.200000 0.700000
v -0.175445 1.200000 0.600000
v 0.224555 1.200000 0.600000
v -0.275445 1.200000 0.600000
v -0.275445 1.200000 0.500000
v -0.175445 1.200000 0.500000
v 0.324555 1.200000 0.600000
v 0.224555 1.200000 0.500000
v 0.324555 1.200000 0.500000
v -0.175445 1.300000 0.600000
v 0.224555 1.300000 0.600000
v -0.175445 1.300000 0.500000
v -0.075445 1.300000 0.500000
v 0.124555 1.300000 0.500000
v 0.224555 1.300000 0.500000
v -0.475445 1.300000 0.500000
v -0.475445 1.300000 0.400000
v -0.075445 1.300000 0.400000
v 0.524555 1.300000 0.500000
v 0.124555 1.300000 0.400000
v 0.524555 1.300000 0.400000
vt 0.009766 0.500000
vt 0.009766 0.500000
vt 0.009766 0.500000
vt 0.001953 0.500000
vt 0.001953 0.500000
vt 0.001953 0.500000
vt 0.009766 0.500000
vt 0.009766 0.500000
vt 0.009766 0.500000
vt 0.009766 0.500000
vt 0.001953 0.500000
vt 0.001953 0.500000
vt 0.001953 0.500000
vt 0.009766 0.500000
vt 0.001953 0.500000
vt 0.001953 0.500000
vt 0.001953 0.500000
vt 0.001953 0.500000
vt 0.001953 0.500000
vt 0.001953 0.500000
vt 0.025391 0.500000
vt 0.025391 0.500000
vt 0.025391 0.500000
vt 0.025391 0.500000
vt 0.025391 0.500000
vt 0.025391 0.500000
vt 0.025391 0.500000
vt 0.025391 0.500000
vt 0.025391 0.500000
vt 0.025391 0.500000
vt 0.025391 0.500000
vt 0.025391 0.500000
vt 0.025391 0.500000
vt 0.025391 0.500000
vt 0.025391 0.500000
vt 0.025391 0.500000
vt 0.025391 0.500000
vt 0.025391 0.500000
vt 0.025391 0.500000
vt 0.025391 0.500000
vt 0.025391 0.500000
vt 0.025391 0.500000
vt 0.001953 0.500000
vt 0.001953 0.500000
vt 0.001953 0.500000
vt 0.001953 0.500000
vt 0.025391 0.500000
vt 0.025391 0.500000
vt 0.025391 0.500000
vt 0.025391 0.500000
vt 0.025391 0.500000
vt 0.001953 0.500000
vt 0.001953 0.500000
vt 0.001953 0.500000
vt 0.001953 0.500000
vt 0.025391 0.500000
vt 0.025391 0.500000
vt 0.025391 0.500000
vt 0.025391 0.500000
vt 0.025391 0.500000
vt 0.025391 0.500000
vt 0.025391 0.500000
vt 0.025391 0.500000
vt 0.025391 0.500000
vt 0.025391 0.500000
vt 0.025391 0.500000
vt 0.025391 0.500000
vt 0.001953 0.500000
vt 0.001953 0.500000
vt 0.001953 0.500000
vt 0.001953 0.500000
vt 0.025391 0.500000
vt 0.025391 0.500000
vt 0.025391 0.500000
vt 0.025391 0.500000
vt 0.025391 0.500000
vt 0.025391 0.500000
vt 0.025391 0.500000
vt 0.025391 0.500000
vt 0.025391 0.500000
vt 0.025391 0.500000
vt 0.025391 0.500000
vt 0.025391 0.500000
vt 0.025391 0.500000
vt 0.025391 0.500000
vt 0.025391 0.500000
vt 0.001953 0.500000
vt 0.001953 0.500000
vt 0.001953 0.500000
vt 0.001953 0.500000
vt 0.001953 0.500000
vt 0.001953 0.500000
vt 0.025391 0.500000
vt 0.025391 0.500000
vt 0.025391 0.500000
vt 0.025391 0.500000
vt 0.025391 0.500000
vt 0.025391 0.500000
vt 0.025391 0.500000
vt 0.009766 0.500000
vt 0.009766 0.500000
vt 0.009766 0.500000
vt 0.009766 0.500000
vt 0.025391 0.500000
vt 0.025391 0.500000
vt 0.001953 0.500000
vt 0.001953 0.500000
vt 0.001953 0.500000
vt 0.001953 0.500000
vt 0.025391 0.500000
vt 0.025391 0.500000
vt 0.025391 0.500000
vt 0.025391 0.500000
vt 0.001953 0.500000
vt 0.001953 0.500000
vt 0.001953 0.500000
vt 0.001953 0.500000
vt 0.001953 0.500000
vt 0.001953 0.500000
vt 0.001953 0.500000
vt 0.009766 0.500000
vt 0.009766 0.500000
vt 0.009766 0.500000
vt 0.001953 0.500000
vt 0.001953 0.500000
vt 0.009766 0.500000
vt 0.001953 0.500000
vt 0.001953 0.500000
vt 0.001953 0.500000
vt 0.009766 0.500000
vt 0.009766 0.500000
vt 0.009766 0.500000
vt 0.001953 0.500000
vt 0.001953 0.500000
vt 0.001953 0.500000
vt 0.009766 0.500000
vt 0.009766 0.500000
vt 0.009766 0.500000
vt 0.009766 0.500000
vt 0.001953 0.500000
vt 0.001953 0.500000
vt 0.001953 0.500000
vt 0.009766 0.500000
vt 0.001953 0.500000
vt 0.001953 0.500000
vt 0.001953 0.500000
vt 0.001953 0.500000
vt 0.001953 0.500000
vt 0.001953 0.500000
vt 0.025391 0.500000
vt 0.025391 0.500000
vt 0.025391 0.500000
vt 0.025391 0.500000
vt 0.025391 0.500000
vt 0.025391 0.500000
vt 0.025391 0.500000
vt 0.025391 0.500000
vt 0.025391 0.500000
vt 0.025391 0.500000
vt 0.025391 0.500000
vt 0.025391 0.500000
vt 0.009766 0.500000
vt 0.009766 0.500000
vt 0.009766 0.500000
vt 0.001953 0.500000
vt 0.001953 0.500000
vt 0.001953 0.500000
vt 0.009766 0.500000
vt 0.009766 0.500000
vt 0.009766 0.500000
vt 0.009766 0.500000
vt 0.001953 0.500000
vt 0.001953 0.500000
vt 0.001953 0.500000
vt 0.009766 0.500000
vt 0.001953 0.500000
vt 0.001953 0.500000
vt 0.001953 0.500000
vt 0.001953 0.500000
vt 0.001953 0.500000
vt 0.001953 0.500000
vt 0.025391 0.500000
vt 0.025391 0.500000
vt 0.025391 0.500000
vt 0.025391 0.500000
vt 0.025391 0.500000
vt 0.025391 0.500000
vt 0.025391 0.500000
vt 0.025391 0.500000
vt 0.025391 0.500000
vt 0.025391 0.500000
vt 0.025391 0.500000
vt 0.025391 0.500000
vt 0.001953 0.500000
vt 0.001953 0.500000
vt 0.001953 0.500000
vt 0.001953 0.500000
vt 0.001953 0.500000
vt 0.001953 0.500000
vt 0.001953 0.500000
vt 0.009766 0.500000
vt 0.009766 0.500000
vt 0.009766 0.500000
vt 0.001953 0.500000
vt 0.001953 0.500000
vt 0.009766 0.500000
vt 0.001953 0.500000
vt 0.001953 0.500000
vt 0.001953 0.500000
vt 0.025391 0.500000
vt 0.025391 0.500000
vt 0.025391 0.500000
vt 0.025391 0.500000
vt 0.025391 0.500000
vt 0.025391 0.500000
vt 0.025391 0.500000
vt 0.025391 0.500000
vt 0.025391 0.500000
vt 0.025391 0.500000
vt 0.025391 0.500000
vt 0.001953 0.500000
vt 0.001953 0.500000
vt 0.001953 0.500000
vt 0.001953 0.500000
vt 0.001953 0.500000
vt 0.001953 0.500000
vt 0.025391 0.500000
vt 0.025391 0.500000
vt 0.025391 0.500000
vt 0.025391 0.500000
vt 0.025391 0.500000
vt 0.025391 0.500000
vt 0.025391 0.500000
vt 0.009766 0.500000
vt 0.009766 0.500000
vt 0.009766 0.500000
vt 0.009766 0.500000
vt 0.025391 0.500000
vt 0.025391 0.500000
vt 0.001953 0.500000
vt 0.001953 0.500000
vt 0.001953 0.500000
vt 0.001953 0.500000
vt 0.025391 0.500000
vt 0.025391 0.500000
vt 0.025391 0.500000
vt 0.025391 0.500000
vt 0.025391 0.500000
vt 0.025391 0.500000
vt 0.025391 0.500000
vt 0.025391 0.500000
vt 0.025391 0.500000
vt 0.025391 0.500000
vt 0.025391 0.500000
vt 0.025391 0.500000
vt 0.025391 0.500000
vt 0.025391 0.500000
vt 0.025391 0.500000
vt 0.025391 0.500000
vt 0.001953 0.500000
vt 0.001953 0.500000
vt 0.001953 0.500000
vt 0.001953 0.500000
vt 0.025391 0.500000
vt 0.025391 0.500000
vt 0.025391 0.500000
vt 0.025391 0.500000
vt 0.025391 0.500000
vt 0.025391 0.500000
vt 0.025391 0.500000
vt 0.025391 0.500000
vt 0.025391 0.500000
vt 0.001953 0.500000
vt 0.001953 0.500000
vt 0.001953 0.500000
vt 0.001953 0.500000
vt 0.025391 0.500000
vt 0.025391 0.500000
vt 0.025391 0.500000
vt 0.025391 0.500000
vt 0.025391 0.500000
vt 0.025391 0.500000
vt 0.025391 0.500000
vt 0.025391 0.500000
vt 0.025391 0.500000
vt 0.025391 0.500000
vt 0.025391 0.500000
vt 0.025391 0.500000
vt 0.025391 0.500000
vt 0.025391 0.500000
vt 0.001953 0.500000
vt 0.001953 0.500000
vt 0.001953 0.500000
vt 0.001953 0.500000
vt 0.009766 0.500000
vt 0.009766 0.500000
vt 0.009766 0.500000
vt 0.001953 0.500000
vt 0.001953 0.500000
vt 0.001953 0.500000
vt 0.009766 0.500000
vt 0.009766 0.500000
vt 0.009766 0.500000
vt 0.009766 0.500000
vt 0.001953 0.500000
vt 0.001953 0.500000
vt 0.001953 0.500000
vt 0.009766 0.500000
vt 0.001953 0.500000
vt 0.001953 0.500000
vt 0.001953 0.500000
vt 0.001953 0.500000
vt 0.001953 0.500000
vt 0.001953 0.500000
vt 0.025391 0.500000
vt 0.025391 0.500000
vt 0.025391 0.500000
vt 0.025391 0.500000
vt 0.025391 0.500000
vt 0.025391 0.500000
vt 0.025391 0.500000
vt 0.025391 0.500000
vt 0.001953 0.500000
vt 0.001953 0.500000
vt 0.001953 0.500000
vt 0.009766 0.500000
vt 0.009766 0.500000
vt 0.009766 0.500000
vt 0.001953 0.500000
vt 0.009766 0.500000
vt 0.001953 0.500000
vt 0.001953 0.500000
vt 0.001953 0.500000
vt 0.001953 0.500000
vt 0.001953 0.500000
vt 0.001953 0.500000
vt 0.001953 0.500000
vt 0.001953 0.500000
vt 0.001953 0.500000
vt 0.001953 0.500000
vt 0.001953 0.500000
vt 0.001953 0.500000
vt 0.001953 0.500000
vt 0.001953 0.500000
vt 0.001953 0.500000
vt 0.001953 0.500000
vt 0.001953 0.500000
vt 0.009766 0.500000
vt 0.009766 0.500000
vt 0.009766 0.500000
vt 0.001953 0.500000
vt 0.009766 0.500000
vt 0.001953 0.500000
vt 0.001953 0.500000
vt 0.001953 0.500000
vt 0.009766 0.500000
vt 0.009766 0.500000
vt 0.009766 0.500000
vt 0.001953 0.500000
vt 0.009766 0.500000
vt 0.001953 0.500000
vt 0.001953 0.500000
vt 0.001953 0.500000
vt 0.001953 0.500000
vt 0.001953 0.500000
vt 0.001953 0.500000
vt 0.001953 0.500000
vt 0.001953 0.500000
vt 0.001953 0.500000
vt 0.001953 0.500000
vt 0.001953 0.500000
vt 0.001953 0.500000
vt 0.001953 0.500000
vt 0.001953 0.500000
vt 0.025391 0.500000
vt 0.025391 0.500000
vt 0.025391 0.500000
vt 0.025391 0.500000
vt 0.025391 0.500000
vt 0.025391 0.500000
vt 0.025391 0.500000
vt 0.025391 0.500000
vt 0.025391 0.500000
vt 0.025391 0.500000
vt 0.025391 0.500000
vt 0.025391 0.500000
vt 0.025391 0.500000
vt 0.025391 0.500000
vt 0.025391 0.500000
vt 0.025391 0.500000
vt 0.025391 0.500000
vt 0.025391 0.500000
vt 0.025391 0.500000
vt 0.025391 0.500000
vt 0.025391 0.500000
vt 0.025391 0.500000
vt 0.025391 0.500000
vt 0.025391 0.500000
vt 0.025391 0.500000
vt 0.025391 0.500000
vt 0.001953 0.500000
vt 0.001953 0.500000
vt 0.001953 0.500000
vt 0.001953 0.500000
vt 0.001953 0.500000
vt 0.001953 0.500000
vt 0.001953 0.500000
vt 0.001953 0.500000
vt 0.001953 0.500000
vt 0.001953 0.500000
vt 0.001953 0.500000
vt 0.001953 0.500000
vt 0.001953 0.500000
vt 0.001953 0.500000
vt 0.001953 0.500000
vt 0.001953 0.500000
vt 0.025391 0.500000
vt 0.025391 0.500000
vt 0.025391 0.500000
vt 0.025391 0.500000
vt 0.025391 0.500000
vt 0.025391 0.500000
vt 0.025391 0.500000
vt 0.025391 0.500000
vt 0.025391 0.500000
vt 0.025391 0.500000
vt 0.025391 0.500000
vt 0.025391 0.500000
vt 0.025391 0.500000
vt 0.025391 0.500000
vt 0.025391 0.500000
vt 0.025391 0.500000
vt 0.025391 0.500000
vt 0.025391 0.500000
vt 0.025391 0.500000
vt 0.025391 0.500000
vt 0.025391 0.500000
vt 0.025391 0.500000
vt 0.025391 0.500000
vt 0.025391 0.500000
vt 0.025391 0.500000
vt 0.025391 0.500000
vt 0.025391 0.500000
vt 0.025391 0.500000
vt 0.009766 0.500000
vt 0.009766 0.500000
vt 0.009766 0.500000
vt 0.001953 0.500000
vt 0.001953 0.500000
vt 0.001953 0.500000
vt 0.009766 0.500000
vt 0.001953 0.500000
vt 0.009766 0.500000
vt 0.009766 0.500000
vt 0.009766 0.500000
vt 0.001953 0.500000
vt 0.001953 0.500000
vt 0.001953 0.500000
vt 0.009766 0.500000
vt 0.001953 0.500000
vt 0.025391 0.500000
vt 0.025391 0.500000
vt 0.025391 0.500000
vt 0.025391 0.500000
vt 0.025391 0.500000
vt 0.025391 0.500000
vt 0.025391 0.500000
vt 0.025391 0.500000
vt 0.025391 0.500000
vt 0.025391 0.500000
vt 0.025391 0.500000
vt 0.025391 0.500000
vt 0.009766 0.500000
vt 0.009766 0.500000
vt 0.009766 0.500000
vt 0.001953 0.500000
vt 0.001953 0.500000
vt 0.001953 0.500000
vt 0.009766 0.500000
vt 0.001953 0.500000
vt 0.009766 0.500000
vt 0.009766 0.500000
vt 0.009766 0.500000
vt 0.001953 0.500000
vt 0.001953 0.500000
vt 0.001953 0.500000
vt 0.009766 0.500000
vt 0.001953 0.500000
vt 0.001953 0.500000
vt 0.001953 0.500000
vt 0.001953 0.500000
vt 0.025391 0.500000
vt 0.025391 0.500000
vt 0.025391 0.500000
vt 0.025391 0.500000
vt 0.025391 0.500000
vt 0.001953 0.500000
vt 0.001953 0.500000
vt 0.025391 0.500000
vt 0.001953 0.500000
vt 0.025391 0.500000
vt 0.025391 0.500000
vt 0.001953 0.500000
vt 0.025391 0.500000
vt 0.001953 0.500000
vt 0.025391 0.500000
vt 0.025391 0.500000
vt 0.025391 0.500000
vt 0.025391 0.500000
vt 0.025391 0.500000
vt 0.025391 0.500000
vt 0.001953 0.500000
vt 0.001953 0.500000
vt 0.001953 0.500000
vt 0.025391 0.500000
vt 0.025391 0.500000
vt 0.025391 0.500000
vt 0.025391 0.500000
vt 0.001953 0.500000
vt 0.001953 0.500000
vt 0.025391 0.500000
vt 0.001953 0.500000
vt 0.001953 0.500000
vt 0.001953 0.500000
vt 0.025391 0.500000
vt 0.025391 0.500000
vt 0.025391 0.500000
vt 0.025391 0.500000
vt 0.025391 0.500000
vt 0.025391 0.500000
vt 0.025391 0.500000
vt 0.025391 0.500000
vt 0.025391 0.500000
vt 0.025391 0.500000
vt 0.025391 0.500000
vt 0.025391 0.500000
vt 0.025391 0.500000
vt 0.025391 0.500000
vt 0.001953 0.500000
vt 0.001953 0.500000
vt 0.001953 0.500000
vt 0.001953 0.500000
vt 0.025391 0.500000
vt 0.025391 0.500000
vt 0.025391 0.500000
vt 0.025391 0.500000
vt 0.025391 0.500000
vt 0.025391 0.500000
vt 0.025391 0.500000
vt 0.025391 0.500000
vt 0.001953 0.500000
vt 0.001953 0.500000
vt 0.001953 0.500000
vt 0.001953 0.500000
vt 0.025391 0.500000
vt 0.025391 0.500000
vt 0.025391 0.500000
vt 0.025391 0.500000
vt 0.025391 0.500000
vt 0.025391 0.500000
vt 0.025391 0.500000
vt 0.025391 0.500000
vt 0.025391 0.500000
vt 0.025391 0.500000
vt 0.025391 0.500000
vt 0.025391 0.500000
vt 0.025391 0.500000
vt 0.025391 0.500000
vt 0.001953 0.500000
vt 0.001953 0.500000
vt 0.001953 0.500000
vt 0.001953 0.500000
vt 0.025391 0.500000
vt 0.025391 0.500000
vt 0.025391 0.500000
vt 0.025391 0.500000
vt 0.025391 0.500000
vt 0.025391 0.500000
vt 0.025391 0.500000
vt 0.025391 0.500000
vt 0.025391 0.500000
vt 0.025391 0.500000
vt 0.025391 0.500000
vt 0.025391 0.500000
vt 0.025391 0.500000
vt 0.025391 0.500000
vt 0.025391 0.500000
vt 0.025391 0.500000
vt 0.025391 0.500000
vt 0.025391 0.500000
vt 0.025391 0.500000
vt 0.025391 0.500000
vt 0.025391 0.500000
vt 0.025391 0.500000
vt 0.025391 0.500000
vt 0.025391 0.500000
vt 0.025391 0.500000
vt 0.025391 0.500000
vt 0.025391 0.500000
vt 0.025391 0.500000
vt 0.001953 0.500000
vt 0.001953 0.500000
vt 0.001953 0.500000
vt 0.001953 0.500000
vt 0.025391 0.500000
vt 0.025391 0.500000
vt 0.025391 0.500000
vt 0.025391 0.500000
vt 0.025391 0.500000
vt 0.025391 0.500000
vt 0.025391 0.500000
vt 0.025391 0.500000
vt 0.025391 0.500000
vt 0.025391 0.500000
vt 0.025391 0.500000
vt 0.025391 0.500000
vt 0.009766 0.500000
vt 0.009766 0.500000
vt 0.009766 0.500000
vt 0.009766 0.500000
vt 0.009766 0.500000
vt 0.009766 0.500000
vt 0.009766 0.500000
vt 0.009766 0.500000
vt 0.001953 0.500000
vt 0.001953 0.500000
vt 0.001953 0.500000
vt 0.001953 0.500000
vt 0.001953 0.500000
vt 0.001953 0.500000
vt 0.001953 0.500000
vt 0.001953 0.500000
vt 0.009766 0.500000
vt 0.009766 0.500000
vt 0.009766 0.500000
vt 0.009766 0.500000
vt 0.009766 0.500000
vt 0.009766 0.500000
vt 0.009766 0.500000
vt 0.009766 0.500000
vt 0.001953 0.500000
vt 0.001953 0.500000
vt 0.001953 0.500000
vt 0.001953 0.500000
vt 0.001953 0.500000
vt 0.001953 0.500000
vt 0.001953 0.500000
vt 0.001953 0.500000
vt 0.025391 0.500000
vt 0.025391 0.500000
vt 0.025391 0.500000
vt 0.025391 0.500000
vt 0.025391 0.500000
vt 0.025391 0.500000
vt 0.025391 0.500000
vt 0.025391 0.500000
vt 0.025391 0.500000
vt 0.025391 0.500000
vt 0.025391 0.500000
vt 0.025391 0.500000
vt 0.025391 0.500000
vt 0.025391 0.500000
vt 0.025391 0.500000
vt 0.025391 0.500000
vt 0.025391 0.500000
vt 0.025391 0.500000
vt 0.025391 0.500000
vt 0.025391 0.500000
vt 0.025391 0.500000
vt 0.025391 0.500000
vt 0.025391 0.500000
vt 0.025391 0.500000
vt 0.025391 0.500000
vt 0.025391 0.500000
vt 0.025391 0.500000
vt 0.025391 0.500000
vt 0.025391 0.500000
vt 0.025391 0.500000
vt 0.025391 0.500000
vt 0.025391 0.500000
vt 0.025391 0.500000
vt 0.025391 0.500000
vt 0.025391 0.500000
vt 0.025391 0.500000
vt 0.025391 0.500000
vt 0.025391 0.500000
vt 0.025391 0.500000
vt 0.025391 0.500000
vt 0.025391 0.500000
vt 0.025391 0.500000
vt 0.025391 0.500000
vt 0.025391 0.500000
vt 0.025391 0.500000
vt 0.025391 0.500000
vt 0.025391 0.500000
vt 0.025391 0.500000
vt 0.025391 0.500000
vt 0.025391 0.500000
vt 0.025391 0.500000
vt 0.025391 0.500000
vt 0.001953 0.500000
vt 0.001953 0.500000
vt 0.001953 0.500000
vt 0.001953 0.500000
vt 0.025391 0.500000
vt 0.025391 0.500000
vt 0.025391 0.500000
vt 0.025391 0.500000
vt 0.025391 0.500000
vt 0.025391 0.500000
vt 0.025391 0.500000
vt 0.025391 0.500000
vt 0.001953 0.500000
vt 0.001953 0.500000
vt 0.001953 0.500000
vt 0.001953 0.500000
vt 0.001953 0.500000
vt 0.001953 0.500000
vt 0.001953 0.500000
vt 0.001953 0.500000
vt 0.001953 0.500000
vt 0.001953 0.500000
vt 0.001953 0.500000
vt 0.001953 0.500000
vt 0.001953 0.500000
vt 0.001953 0.500000
vt 0.025391 0.500000
vt 0.025391 0.500000
vt 0.025391 0.500000
vt 0.025391 0.500000
vt 0.025391 0.500000
vt 0.025391 0.500000
vt 0.025391 0.500000
vt 0.025391 0.500000
vt 0.001953 0.500000
vt 0.001953 0.500000
vt 0.001953 0.500000
vt 0.001953 0.500000
vt 0.001953 0.500000
vt 0.001953 0.500000
vt 0.001953 0.500000
vt 0.001953 0.500000
vt 0.001953 0.500000
vt 0.001953 0.500000
vt 0.001953 0.500000
vt 0.001953 0.500000
vt 0.001953 0.500000
vt 0.001953 0.500000
vt 0.001953 0.500000
vt 0.001953 0.500000
vt 0.001953 0.500000
vt 0.001953 0.500000
vt 0.001953 0.500000
vt 0.001953 0.500000
vt 0.001953 0.500000
vt 0.001953 0.500000
vt 0.001953 0.500000
vt 0.001953 0.500000
vt 0.001953 0.500000
vt 0.001953 0.500000
vt 0.001953 0.500000
vt 0.001953 0.500000
vt 0.001953 0.500000
vt 0.001953 0.500000
vt 0.001953 0.500000
vt 0.001953 0.500000
vt 0.025391 0.500000
vt 0.025391 0.500000
vt 0.025391 0.500000
vt 0.025391 0.500000
vt 0.025391 0.500000
vt 0.025391 0.500000
vt 0.025391 0.500000
vt 0.025391 0.500000
vt 0.025391 0.500000
vt 0.025391 0.500000
vt 0.025391 0.500000
vt 0.025391 0.500000
vt 0.025391 0.500000
vt 0.025391 0.500000
vt 0.025391 0.500000
vt 0.025391 0.500000
vt 0.025391 0.500000
vt 0.025391 0.500000
vt 0.025391 0.500000
vt 0.025391 0.500000
vt 0.025391 0.500000
vt 0.025391 0.500000
vt 0.025391 0.500000
vt 0.025391 0.500000
vt 0.025391 0.500000
vt 0.025391 0.500000
vt 0.025391 0.500000
vt 0.025391 0.500000
vt 0.025391 0.500000
vt 0.025391 0.500000
vt 0.025391 0.500000
vt 0.025391 0.500000
vt 0.025391 0.500000
vt 0.025391 0.500000
vt 0.025391 0.500000
vt 0.025391 0.500000
vt 0.009766 0.500000
vt 0.009766 0.500000
vt 0.009766 0.500000
vt 0.009766 0.500000
vt 0.025391 0.500000
vt 0.025391 0.500000
vt 0.025391 0.500000
vt 0.025391 0.500000
vt 0.025391 0.500000
vt 0.025391 0.500000
vt 0.025391 0.500000
vt 0.025391 0.500000
vt 0.025391 0.500000
vt 0.025391 0.500000
vt 0.025391 0.500000
vt 0.025391 0.500000
vt 0.025391 0.500000
vt 0.025391 0.500000
vt 0.025391 0.500000
vt 0.025391 0.500000
vt 0.025391 0.500000
vt 0.025391 0.500000
vt 0.025391 0.500000
vt 0.025391 0.500000
vt 0.025391 0.500000
vt 0.025391 0.500000
vt 0.025391 0.500000
vt 0.025391 0.500000
vt 0.025391 0.500000
vt 0.025391 0.500000
vt 0.025391 0.500000
vt 0.025391 0.500000
vt 0.001953 0.500000
vt 0.001953 0.500000
vt 0.001953 0.500000
vt 0.001953 0.500000
vt 0.009766 0.500000
vt 0.009766 0.500000
vt 0.009766 0.500000
vt 0.001953 0.500000
vt 0.009766 0.500000
vt 0.009766 0.500000
vt 0.009766 0.500000
vt 0.009766 0.500000
vt 0.001953 0.500000
vt 0.009766 0.500000
vt 0.001953 0.500000
vt 0.001953 0.500000
vt 0.001953 0.500000
vt 0.001953 0.500000
vt 0.001953 0.500000
vt 0.001953 0.500000
vt 0.001953 0.500000
vt 0.001953 0.500000
vt 0.025391 0.500000
vt 0.025391 0.500000
vt 0.025391 0.500000
vt 0.025391 0.500000
vt 0.025391 0.500000
vt 0.025391 0.500000
vt 0.025391 0.500000
vt 0.025391 0.500000
vt 0.025391 0.500000
vt 0.025391 0.500000
vt 0.025391 0.500000
vt 0.025391 0.500000
vt 0.001953 0.500000
vt 0.001953 0.500000
vt 0.001953 0.500000
vt 0.001953 0.500000
vt 0.025391 0.500000
vt 0.025391 0.500000
vt 0.025391 0.500000
vt 0.025391 0.500000
vt 0.025391 0.500000
vt 0.025391 0.500000
vt 0.025391 0.500000
vt 0.025391 0.500000
vt 0.025391 0.500000
vt 0.025391 0.500000
vt 0.025391 0.500000
vt 0.025391 0.500000
vt 0.025391 0.500000
vt 0.025391 0.500000
vt 0.001953 0.500000
vt 0.001953 0.500000
vt 0.001953 0.500000
vt 0.001953 0.500000
vt 0.025391 0.500000
vt 0.001953 0.500000
vt 0.001953 0.500000
vt 0.001953 0.500000
vt 0.001953 0.500000
vt 0.025391 0.500000
vt 0.001953 0.500000
vt 0.001953 0.500000
vn -1.0000 -0.0000 0.0000
vn 1.0000 -0.0000 0.0000
vn 0.0000 0.0000 1.0000
vn 0.0000 0.0000 -1.0000
vn 0.0000 -1.0000 -0.0000
vn 0.0000 1.0000 0.0000
usemtl palette.001
s 1
f 1/1/1 2/2/1 3/3/1
f 4/4/1 5/5/1 2/6/1
f 4/7/1 2/2/1 1/1/1
f 6/8/1 7/9/1 8/10/1
f 9/11/1 10/12/1 7/13/1
f 9/14/1 7/9/1 6/8/1
f 11/15/1 4/4/1 1/16/1
f 12/17/1 5/5/1 4/4/1
f 12/17/1 4/4/1 11/15/1
f 13/18/1 9/11/1 6/19/1
f 14/20/1 10/12/1 9/11/1
f 14/20/1 9/11/1 13/18/1
f 15/21/1 16/22/1 17/23/1
f 18/24/1 16/22/1 15/21/1
f 19/25/1 20/26/1 21/27/1
f 22/28/1 20/26/1 19/25/1
f 23/29/1 24/30/1 25/31/1
f 26/32/1 24/30/1 23/29/1
f 27/33/1 28/34/1 29/35/1
f 30/36/1 28/34/1 27/33/1
f 31/37/1 23/29/1 32/38/1
f 33/39/1 23/29/1 31/37/1
f 34/40/1 27/33/1 35/41/1
f 36/42/1 27/33/1 34/40/1
f 37/43/1 38/44/1 39/45/1
f 40/46/1 38/44/1 37/43/1
f 41/47/1 42/48/1 43/49/1
f 44/50/1 42/48/1 41/47/1
f 45/51/1 42/48/1 44/50/1
f 46/52/1 45/53/1 44/54/1
f 47/55/1 45/53/1 46/52/1
f 48/56/1 49/57/1 50/58/1
f 51/59/1 52/60/1 53/61/1
f 54/62/1 52/60/1 51/59/1
f 55/63/1 48/56/1 50/58/1
f 55/63/1 56/64/1 48/56/1
f 57/65/1 56/64/1 55/63/1
f 58/66/1 55/63/1 50/58/1
f 59/67/1 55/63/1 58/66/1
f 60/68/1 51/69/1 61/70/1
f 62/71/1 51/69/1 60/68/1
f 63/72/1 64/73/1 62/74/1
f 65/75/1 64/73/1 63/72/1
f 66/76/1 67/77/1 68/78/1
f 69/79/1 67/77/1 66/76/1
f 70/80/1 71/81/1 69/79/1
f 72/82/1 71/81/1 70/80/1
f 73/83/1 74/84/1 75/85/1
f 76/86/1 74/84/1 73/83/1
f 77/87/1 78/88/1 79/89/1
f 80/90/1 78/88/1 77/87/1
f 81/91/1 78/88/1 80/90/1
f 82/92/1 78/88/1 81/91/1
f 83/93/1 66/76/1 84/94/1
f 85/95/1 66/76/1 83/93/1
f 86/96/1 87/97/1 88/98/1
f 89/99/1 87/97/1 86/96/1
f 90/100/1 82/101/1 81/102/1
f 91/103/1 82/101/1 90/100/1
f 92/104/1 86/96/1 85/95/1
f 93/105/1 86/96/1 92/104/1
f 94/106/1 95/107/1 91/108/1
f 96/109/1 95/107/1 94/106/1
f 97/110/1 98/111/1 96/112/1
f 99/113/1 98/111/1 97/110/1
f 100/114/1 101/115/1 102/116/1
f 103/117/1 101/115/1 100/114/1
f 104/118/1 100/114/1 105/119/1
f 106/120/1 100/114/1 104/118/1
f 107/121/1 106/122/1 104/123/1
f 108/124/1 109/125/1 106/120/1
f 108/126/1 106/122/1 107/121/1
f 110/127/1 109/125/1 108/124/1
f 111/128/1 110/127/1 108/124/1
f 112/129/1 110/127/1 111/128/1
f 113/130/1 114/131/1 115/132/1
f 116/133/1 117/134/1 114/135/1
f 116/136/1 114/131/1 113/130/1
f 118/137/1 119/138/1 120/139/1
f 121/140/1 122/141/1 119/142/1
f 121/143/1 119/138/1 118/137/1
f 123/144/1 116/133/1 113/145/1
f 124/146/1 117/134/1 116/133/1
f 124/146/1 116/133/1 123/144/1
f 125/147/1 121/140/1 118/148/1
f 126/149/1 122/141/1 121/140/1
f 126/149/1 121/140/1 125/147/1
f 127/150/1 128/151/1 129/152/1
f 130/153/1 128/151/1 127/150/1
f 131/154/1 132/155/1 133/156/1
f 134/157/1 132/155/1 131/154/1
f 135/158/1 127/150/1 129/152/1
f 136/159/1 127/150/1 135/158/1
f 137/160/1 131/154/1 133/156/1
f 138/161/1 131/154/1 137/160/1
f 139/162/2 140/163/2 141/164/2
f 140/165/2 142/166/2 143/167/2
f 141/164/2 140/163/2 143/168/2
f 144/169/2 145/170/2 146/171/2
f 145/172/2 147/173/2 148/174/2
f 146/171/2 145/170/2 148/175/2
f 141/176/2 143/167/2 149/177/2
f 143/167/2 142/166/2 150/178/2
f 149/177/2 143/167/2 150/178/2
f 146/179/2 148/174/2 151/180/2
f 148/174/2 147/173/2 152/181/2
f 151/180/2 148/174/2 152/181/2
f 153/182/2 154/183/2 155/184/2
f 155/184/2 154/183/2 156/185/2
f 157/186/2 158/187/2 159/188/2
f 159/188/2 158/187/2 160/189/2
f 153/182/2 155/184/2 161/190/2
f 161/190/2 155/184/2 162/191/2
f 157/186/2 159/188/2 163/192/2
f 163/192/2 159/188/2 164/193/2
f 165/194/2 166/195/2 167/196/2
f 167/196/2 166/195/2 168/197/2
f 169/198/2 167/196/2 170/199/2
f 170/199/2 167/196/2 171/200/2
f 170/201/2 171/202/2 172/203/2
f 171/200/2 173/204/2 174/205/2
f 172/203/2 171/202/2 174/206/2
f 174/205/2 173/204/2 175/207/2
f 174/205/2 175/207/2 176/208/2
f 176/208/2 175/207/2 177/209/2
f 178/210/2 179/211/2 180/212/2
f 180/212/2 179/211/2 181/213/2
f 181/213/2 182/214/2 183/215/2
f 183/215/2 182/214/2 184/216/2
f 185/217/2 186/218/2 187/219/2
f 187/219/2 186/218/2 188/220/2
f 189/221/2 190/222/2 191/223/2
f 191/223/2 190/222/2 192/224/2
f 192/224/2 190/222/2 193/225/2
f 193/225/2 190/222/2 194/226/2
f 195/227/2 180/212/2 196/228/2
f 196/228/2 180/212/2 197/229/2
f 198/230/2 199/231/2 200/232/2
f 200/232/2 199/231/2 201/233/2
f 193/234/2 194/235/2 202/236/2
f 202/236/2 194/235/2 203/237/2
f 197/229/2 200/232/2 204/238/2
f 204/238/2 200/232/2 205/239/2
f 203/240/2 206/241/2 207/242/2
f 207/242/2 206/241/2 208/243/2
f 208/244/2 209/245/2 210/246/2
f 210/246/2 209/245/2 211/247/2
f 212/248/2 213/249/2 214/250/2
f 215/251/2 216/252/2 217/253/2
f 217/253/2 216/252/2 218/254/2
f 212/248/2 214/250/2 219/255/2
f 214/250/2 220/256/2 219/255/2
f 219/255/2 220/256/2 221/257/2
f 212/248/2 219/255/2 222/258/2
f 222/258/2 219/255/2 223/259/2
f 224/260/2 217/261/2 225/262/2
f 225/262/2 217/261/2 226/263/2
f 226/264/2 227/265/2 228/266/2
f 228/266/2 227/265/2 229/267/2
f 230/268/2 231/269/2 232/270/2
f 232/270/2 231/269/2 233/271/2
f 233/271/2 231/269/2 234/272/2
f 233/273/2 234/274/2 235/275/2
f 235/275/2 234/274/2 236/276/2
f 237/277/2 238/278/2 239/279/2
f 239/279/2 238/278/2 240/280/2
f 241/281/2 242/282/2 243/283/2
f 243/283/2 242/282/2 244/284/2
f 245/285/2 239/279/2 246/286/2
f 246/286/2 239/279/2 247/287/2
f 248/288/2 243/283/2 249/289/2
f 249/289/2 243/283/2 250/290/2
f 251/291/2 252/292/2 253/293/2
f 253/293/2 252/292/2 254/294/2
f 255/295/2 256/296/2 257/297/2
f 256/298/2 258/299/2 259/300/2
f 257/297/2 256/296/2 259/301/2
f 260/302/2 261/303/2 262/304/2
f 261/305/2 263/306/2 264/307/2
f 262/304/2 261/303/2 264/308/2
f 257/309/2 259/300/2 265/310/2
f 259/300/2 258/299/2 266/311/2
f 265/310/2 259/300/2 266/311/2
f 262/312/2 264/307/2 267/313/2
f 264/307/2 263/306/2 268/314/2
f 267/313/2 264/307/2 268/314/2
f 269/315/2 270/316/2 271/317/2
f 271/317/2 270/316/2 272/318/2
f 273/319/2 274/320/2 275/321/2
f 275/321/2 274/320/2 276/322/2
f 277/323/3 278/324/3 279/325/3
f 280/326/3 281/327/3 278/328/3
f 280/329/3 278/324/3 277/323/3
f 282/330/3 281/327/3 280/326/3
f 283/331/3 284/332/3 285/333/3
f 286/334/3 284/332/3 283/331/3
f 287/335/3 283/331/3 288/336/3
f 289/337/3 283/331/3 287/335/3
f 290/338/3 291/339/3 292/340/3
f 293/341/3 291/339/3 290/338/3
f 294/342/3 295/343/3 289/337/3
f 296/344/3 295/343/3 294/342/3
f 297/345/3 298/346/3 299/347/3
f 300/348/3 301/349/3 298/350/3
f 300/351/3 298/346/3 297/345/3
f 302/352/3 301/349/3 300/348/3
f 303/353/3 304/354/3 305/355/3
f 306/356/3 307/357/3 304/358/3
f 306/359/3 304/354/3 303/353/3
f 308/360/3 307/357/3 306/356/3
f 309/361/3 310/362/3 311/363/3
f 312/364/3 310/362/3 309/361/3
f 313/365/3 310/362/3 312/364/3
f 314/366/3 315/367/3 313/365/3
f 316/368/3 315/367/3 314/366/3
f 317/369/3 315/367/3 316/368/3
f 318/370/3 315/367/3 317/369/3
f 319/371/3 320/372/3 321/373/3
f 319/371/3 317/369/3 320/372/3
f 322/374/3 317/369/3 319/371/3
f 323/375/3 324/376/3 325/377/3
f 326/378/3 324/376/3 323/375/3
f 327/379/3 323/375/3 328/380/3
f 329/381/3 330/382/3 326/378/3
f 331/383/3 330/382/3 329/381/3
f 332/384/3 327/379/3 333/385/3
f 332/384/3 323/375/3 327/379/3
f 334/386/3 323/375/3 332/384/3
f 335/387/3 332/384/3 333/385/3
f 336/388/3 335/387/3 333/385/3
f 336/388/3 337/389/3 335/387/3
f 338/390/3 337/389/3 336/388/3
f 339/391/3 340/392/3 331/383/3
f 341/393/3 340/392/3 339/391/3
f 342/394/3 337/389/3 338/390/3
f 343/395/3 337/389/3 342/394/3
f 344/396/3 339/391/3 345/397/3
f 346/398/3 339/391/3 344/396/3
f 347/399/3 344/396/3 343/395/3
f 348/400/3 344/396/3 347/399/3
f 349/401/3 350/402/3 351/403/3
f 352/404/3 349/401/3 353/405/3
f 354/406/3 350/402/3 349/401/3
f 354/406/3 349/401/3 352/404/3
f 355/407/3 350/402/3 354/406/3
f 356/408/3 350/402/3 355/407/3
f 357/409/3 358/410/3 359/411/3
f 360/412/3 357/409/3 361/413/3
f 362/414/3 358/410/3 357/409/3
f 362/414/3 357/409/3 360/412/3
f 363/415/3 358/410/3 362/414/3
f 364/416/3 358/410/3 363/415/3
f 365/417/3 366/418/3 367/419/3
f 368/420/3 366/418/3 365/417/3
f 369/421/3 370/422/3 371/423/3
f 372/424/3 369/421/3 371/423/3
f 372/424/3 373/425/3 369/421/3
f 374/426/3 373/425/3 372/424/3
f 375/427/3 376/428/3 377/429/3
f 378/430/3 376/428/3 375/427/3
f 379/431/3 375/427/3 380/432/3
f 381/433/3 375/427/3 379/431/3
f 382/434/3 383/435/3 378/430/3
f 384/436/3 383/435/3 382/434/3
f 385/437/3 382/434/3 381/433/3
f 386/438/3 382/434/3 385/437/3
f 387/439/3 388/440/3 389/441/3
f 390/442/3 388/440/3 387/439/3
f 391/443/3 387/439/3 389/441/3
f 392/444/3 387/439/3 391/443/3
f 393/445/3 394/446/3 395/447/3
f 396/448/3 397/449/3 394/450/3
f 396/451/3 394/446/3 393/445/3
f 398/452/3 397/449/3 396/448/3
f 399/453/3 400/454/3 401/455/3
f 402/456/3 403/457/3 400/458/3
f 402/459/3 400/454/3 399/453/3
f 404/460/3 403/457/3 402/456/3
f 405/461/3 406/462/3 407/463/3
f 408/464/3 405/461/3 407/463/3
f 408/464/3 409/465/3 405/461/3
f 410/466/3 409/465/3 408/464/3
f 411/467/3 412/468/3 413/469/3
f 414/470/3 412/468/3 411/467/3
f 415/471/3 411/467/3 413/469/3
f 416/472/3 411/467/3 415/471/3
f 417/473/3 418/474/3 419/475/3
f 420/476/3 421/477/3 418/478/3
f 420/479/3 418/474/3 417/473/3
f 422/480/3 421/477/3 420/476/3
f 423/481/3 424/482/3 425/483/3
f 426/484/3 427/485/3 424/486/3
f 426/487/3 424/482/3 423/481/3
f 428/488/3 427/485/3 426/484/3
f 429/489/4 430/490/4 431/491/4
f 432/492/4 433/493/4 434/494/4
f 435/495/4 434/494/4 436/496/4
f 433/497/4 431/491/4 437/498/4
f 434/494/4 433/493/4 437/499/4
f 436/496/4 434/494/4 437/499/4
f 431/491/4 430/490/4 438/500/4
f 437/498/4 431/491/4 438/500/4
f 439/501/4 436/496/4 440/502/4
f 438/500/4 430/490/4 440/503/4
f 437/499/4 438/504/4 440/502/4
f 436/496/4 437/499/4 440/502/4
f 440/503/4 430/490/4 441/505/4
f 439/501/4 440/502/4 442/506/4
f 440/502/4 441/507/4 442/506/4
f 442/506/4 441/507/4 443/508/4
f 439/501/4 442/506/4 444/509/4
f 444/509/4 442/506/4 445/510/4
f 445/510/4 442/506/4 446/511/4
f 442/512/4 443/513/4 447/514/4
f 446/511/4 442/506/4 447/515/4
f 445/510/4 446/511/4 448/516/4
f 448/516/4 446/511/4 449/517/4
f 449/517/4 446/511/4 450/518/4
f 446/519/4 447/514/4 451/520/4
f 450/518/4 446/511/4 451/521/4
f 447/514/4 443/513/4 452/522/4
f 451/520/4 447/514/4 452/522/4
f 452/522/4 443/513/4 453/523/4
f 453/523/4 443/513/4 454/524/4
f 455/525/4 456/526/4 457/527/4
f 457/527/4 456/526/4 458/528/4
f 458/528/4 459/529/4 460/530/4
f 460/530/4 459/529/4 461/531/4
f 462/532/4 463/533/4 464/534/4
f 464/534/4 463/533/4 465/535/4
f 466/536/4 464/534/4 467/537/4
f 467/537/4 464/534/4 468/538/4
f 469/539/4 470/540/4 471/541/4
f 471/541/4 470/540/4 472/542/4
f 473/543/4 474/544/4 475/545/4
f 475/545/4 474/544/4 476/546/4
f 477/547/4 478/548/4 479/549/4
f 479/549/4 478/548/4 480/550/4
f 481/551/4 482/552/4 483/553/4
f 483/553/4 482/552/4 484/554/4
f 485/555/4 486/556/4 487/557/4
f 487/557/4 486/556/4 488/558/4
f 488/558/4 489/559/4 490/560/4
f 490/560/4 489/559/4 491/561/4
f 492/562/4 493/563/4 494/564/4
f 494/564/4 493/563/4 495/565/4
f 496/566/4 494/564/4 497/567/4
f 497/567/4 494/564/4 498/568/4
f 499/569/4 500/570/4 501/571/4
f 501/571/4 500/570/4 502/572/4
f 503/573/4 504/574/4 505/575/4
f 505/575/4 504/574/4 506/576/4
f 507/577/4 508/578/4 509/579/4
f 509/579/4 508/578/4 510/580/4
f 511/581/4 512/582/4 513/583/4
f 513/583/4 512/582/4 514/584/4
f 515/585/4 509/579/4 516/586/4
f 516/586/4 509/579/4 517/587/4
f 514/584/4 518/588/4 519/589/4
f 519/589/4 518/588/4 520/590/4
f 517/587/4 521/591/4 522/592/4
f 522/592/4 521/591/4 523/593/4
f 524/594/4 519/589/4 525/595/4
f 525/595/4 519/589/4 526/596/4
f 527/597/4 528/598/4 529/599/4
f 529/599/4 528/598/4 530/600/4
f 531/601/4 532/602/4 533/603/4
f 533/603/4 532/602/4 534/604/4
f 535/605/4 536/606/4 537/607/4
f 537/607/4 536/606/4 538/608/4
f 539/609/4 537/607/4 540/610/4
f 538/608/4 541/611/4 540/610/4
f 537/607/4 538/608/4 540/610/4
f 540/610/4 541/611/4 542/612/4
f 542/612/4 541/611/4 543/613/4
f 543/613/4 541/611/4 544/614/4
f 542/612/4 543/613/4 545/615/4
f 545/615/4 543/613/4 546/616/4
f 547/617/5 548/618/5 549/619/5
f 550/620/5 548/618/5 547/617/5
f 551/621/5 552/622/5 553/623/5
f 554/624/5 552/622/5 551/621/5
f 555/625/5 550/626/5 547/627/5
f 556/628/5 550/626/5 555/625/5
f 557/629/5 554/630/5 551/631/5
f 558/632/5 554/630/5 557/629/5
f 559/633/5 560/634/5 561/635/5
f 562/636/5 560/634/5 559/633/5
f 563/637/5 564/638/5 565/639/5
f 566/640/5 564/638/5 563/637/5
f 567/641/5 562/642/5 559/643/5
f 568/644/5 562/642/5 567/641/5
f 569/645/5 566/646/5 563/647/5
f 570/648/5 566/646/5 569/645/5
f 571/649/5 572/650/5 573/651/5
f 574/652/5 572/650/5 571/649/5
f 575/653/5 576/654/5 577/655/5
f 578/656/5 576/654/5 575/653/5
f 579/657/5 580/658/5 581/659/5
f 582/660/5 580/658/5 579/657/5
f 583/661/5 584/662/5 585/663/5
f 586/664/5 584/662/5 583/661/5
f 587/665/5 580/658/5 582/660/5
f 588/666/5 580/658/5 587/665/5
f 589/667/5 583/661/5 585/663/5
f 590/668/5 583/661/5 589/667/5
f 591/669/5 592/670/5 593/671/5
f 594/672/5 592/670/5 591/669/5
f 595/673/5 596/674/5 597/675/5
f 598/676/5 596/674/5 595/673/5
f 599/677/5 592/670/5 594/672/5
f 600/678/5 592/670/5 599/677/5
f 601/679/5 575/653/5 602/680/5
f 603/681/5 575/653/5 601/679/5
f 604/682/5 605/683/5 578/656/5
f 606/684/5 605/683/5 604/682/5
f 607/685/5 595/673/5 597/675/5
f 608/686/5 595/673/5 607/685/5
f 609/687/5 604/682/5 603/681/5
f 610/688/5 604/682/5 609/687/5
f 611/689/5 612/690/5 613/691/5
f 614/692/5 612/690/5 611/689/5
f 615/693/5 616/694/5 617/695/5
f 618/696/5 616/694/5 615/693/5
f 619/697/5 620/698/5 621/699/5
f 622/700/5 620/698/5 619/697/5
f 623/701/5 624/702/5 625/703/5
f 626/704/5 624/702/5 623/701/5
f 627/705/5 628/706/5 629/707/5
f 630/708/5 628/706/5 627/705/5
f 631/709/5 632/710/5 633/711/5
f 634/712/5 632/710/5 631/709/5
f 635/713/5 636/714/5 637/715/5
f 638/716/5 636/714/5 635/713/5
f 639/717/5 635/713/5 640/718/5
f 641/719/5 642/720/5 638/716/5
f 643/721/5 639/717/5 644/722/5
f 645/723/5 635/713/5 639/717/5
f 645/723/5 639/717/5 643/721/5
f 646/724/5 647/725/5 641/719/5
f 646/724/5 641/719/5 638/716/5
f 648/726/5 647/725/5 646/724/5
f 649/727/5 643/728/5 650/729/5
f 651/730/5 643/728/5 649/727/5
f 652/731/5 653/732/5 648/733/5
f 654/734/5 653/732/5 652/731/5
f 655/735/5 656/736/5 657/737/5
f 658/738/5 656/736/5 655/735/5
f 659/739/5 660/740/5 661/741/5
f 662/742/5 660/740/5 659/739/5
f 663/743/6 664/744/6 665/745/6
f 665/745/6 664/744/6 666/746/6
f 667/747/6 668/748/6 669/749/6
f 669/749/6 668/748/6 670/750/6
f 671/751/6 672/752/6 673/753/6
f 673/753/6 672/752/6 674/754/6
f 675/755/6 676/756/6 677/757/6
f 677/757/6 676/756/6 678/758/6
f 679/759/6 680/760/6 681/761/6
f 681/761/6 680/760/6 682/762/6
f 683/763/6 684/764/6 685/765/6
f 685/765/6 684/764/6 686/766/6
f 687/767/6 688/768/6 689/769/6
f 689/769/6 688/768/6 690/770/6
f 691/771/6 692/772/6 693/773/6
f 693/773/6 692/772/6 694/774/6
f 690/770/6 695/775/6 696/776/6
f 696/776/6 695/775/6 697/777/6
f 698/778/6 693/773/6 699/779/6
f 699/779/6 693/773/6 700/780/6
f 701/781/6 702/782/6 703/783/6
f 703/783/6 702/782/6 704/784/6
f 705/785/6 706/786/6 707/787/6
f 707/787/6 706/786/6 708/788/6
f 704/784/6 709/789/6 710/790/6
f 710/790/6 709/789/6 711/791/6
f 712/792/6 707/787/6 713/793/6
f 713/793/6 707/787/6 714/794/6
f 715/795/6 716/796/6 717/797/6
f 717/797/6 716/796/6 718/798/6
f 719/799/6 720/800/6 721/801/6
f 721/801/6 720/800/6 722/802/6
f 723/803/6 724/804/6 725/805/6
f 725/805/6 724/804/6 726/806/6
f 727/807/6 728/808/6 729/809/6
f 729/809/6 728/808/6 730/810/6
f 731/811/6 732/812/6 733/813/6
f 733/813/6 732/812/6 734/814/6
f 735/815/6 736/816/6 737/817/6
f 737/817/6 736/816/6 738/818/6
f 739/819/6 740/820/6 741/821/6
f 741/821/6 740/820/6 742/822/6
f 743/823/6 744/824/6 745/825/6
f 745/825/6 744/824/6 746/826/6
f 747/827/6 729/809/6 748/828/6
f 748/828/6 729/809/6 749/829/6
f 730/810/6 750/830/6 751/831/6
f 751/831/6 750/830/6 752/832/6
f 749/829/6 751/831/6 753/833/6
f 753/833/6 751/831/6 754/834/6
f 755/835/6 756/836/6 757/837/6
f 757/837/6 756/836/6 758/838/6
f 759/839/6 757/840/6 760/841/6
f 757/837/6 758/838/6 761/842/6
f 760/841/6 757/840/6 761/843/6
f 758/844/6 762/845/6 763/846/6
f 761/842/6 758/838/6 763/847/6
f 763/846/6 762/845/6 764/848/6
f 765/849/6 760/850/6 766/851/6
f 766/851/6 760/850/6 767/852/6
f 764/853/6 768/854/6 769/855/6
f 769/855/6 768/854/6 770/856/6
f 771/857/6 766/858/6 772/859/6
f 772/859/6 766/858/6 773/860/6
f 770/861/6 774/862/6 775/863/6
f 775/863/6 774/862/6 776/864/6
f 777/865/6 778/866/6 779/867/6
f 779/867/6 778/866/6 780/868/6
f 781/869/6 782/870/6 783/871/6
f 783/871/6 782/870/6 784/872/6
f 785/873/6 783/874/6 786/875/6
f 786/875/6 783/874/6 787/876/6
f 784/877/6 788/878/6 789/879/6
f 789/879/6 788/878/6 790/880/6
f 791/881/6 792/882/6 793/883/6
f 793/883/6 792/882/6 794/884/6
f 794/884/6 792/882/6 795/885/6
f 795/885/6 792/882/6 796/886/6
f 797/887/6 793/888/6 798/889/6
f 793/888/6 794/890/6 798/889/6
f 794/884/6 795/885/6 799/891/6
f 798/889/6 794/890/6 799/892/6
f 796/893/6 800/894/6 801/895/6
f 799/891/6 795/885/6 801/896/6
f 795/897/6 796/893/6 801/895/6
f 801/895/6 800/894/6 802/898/6
