# Blender v2.93.0 OBJ File: 'Chicken_Base_Rig.blend'
# www.blender.org
mtllib TVS_VoxelFarm_Rooster.mtl
o VS_Farm_Rooster
v -0.448782 0.500000 0.400000
v -0.448782 0.400000 0.000000
v -0.448782 0.400000 0.400000
v -0.448782 0.500000 0.000000
v -0.448782 0.600000 0.400000
v -0.448782 0.500000 0.500000
v -0.448782 0.600000 0.200000
v -0.448782 0.600000 0.100000
v -0.448782 0.600000 0.000000
v -0.448782 0.500000 -0.100000
v -0.448782 0.600000 -0.100000
v -0.448782 0.700000 0.500000
v -0.448782 0.700000 0.400000
v -0.448782 0.700000 0.200000
v -0.448782 0.700000 0.100000
v -0.448782 0.600000 -0.200000
v -0.448782 0.700000 -0.200000
v -0.448782 0.800000 0.400000
v -0.448782 0.800000 0.100000
v -0.348782 0.100000 0.100000
v -0.348782 0.000000 0.000000
v -0.348782 -0.000000 0.100000
v -0.348782 0.100000 0.000000
v -0.348782 0.000000 -0.100000
v -0.348782 0.100000 -0.100000
v -0.248782 0.100000 0.200000
v -0.248782 -0.000000 0.100000
v -0.248782 -0.000000 0.200000
v -0.248782 0.100000 0.100000
v -0.248782 0.300000 0.000000
v -0.248782 0.100000 -0.100000
v -0.248782 0.100000 0.000000
v -0.248782 0.300000 -0.100000
v -0.248782 0.700000 0.600000
v -0.248782 0.500000 -0.300000
v -0.248782 0.500000 0.600000
v -0.248782 0.700000 -0.300000
v -0.148782 0.500000 0.600000
v -0.148782 0.400000 0.300000
v -0.148782 0.400000 0.600000
v -0.148782 0.500000 0.300000
v -0.148782 0.400000 -0.300000
v -0.148782 0.500000 -0.300000
v -0.148782 0.800000 0.900000
v -0.148782 0.700000 0.700000
v -0.148782 0.700000 1.000000
v -0.148782 0.800000 0.800000
v -0.148782 0.800000 0.500000
v -0.148782 0.700000 -0.300000
v -0.148782 0.700000 0.500000
v -0.148782 0.800000 -0.300000
v -0.148782 0.700000 -0.400000
v -0.148782 0.800000 -0.400000
v -0.148782 0.800000 -0.700000
v -0.148782 0.700000 -0.800000
v -0.148782 0.700000 -0.700000
v -0.148782 0.800000 -0.800000
v -0.148782 0.900000 0.900000
v -0.148782 0.900000 0.800000
v -0.148782 0.900000 -0.300000
v -0.148782 0.900000 -0.700000
v -0.148782 1.000000 1.000000
v -0.148782 1.000000 0.700000
v -0.048782 0.600000 0.900000
v -0.048782 0.500000 0.800000
v -0.048782 0.500000 0.900000
v -0.048782 0.700000 1.000000
v -0.048782 0.600000 1.000000
v -0.048782 0.700000 0.800000
v -0.048782 0.700000 -0.800000
v -0.048782 0.600000 -0.900000
v -0.048782 0.600000 -0.800000
v -0.048782 0.800000 1.200000
v -0.048782 0.700000 1.200000
v -0.048782 0.800000 1.100000
v -0.048782 0.800000 -0.800000
v -0.048782 0.900000 1.100000
v -0.048782 0.900000 1.000000
v -0.048782 0.900000 -0.700000
v -0.048782 0.800000 -0.700000
v -0.048782 0.900000 -0.800000
v -0.048782 0.900000 -0.900000
v -0.048782 1.000000 1.100000
v -0.048782 1.000000 1.000000
v -0.048782 1.000000 -0.300000
v -0.048782 0.900000 -0.300000
v -0.048782 1.000000 -0.800000
v -0.048782 1.100000 1.200001
v -0.048782 1.000000 0.800000
v -0.048782 1.000000 1.200000
v -0.048782 1.100000 1.000000
v -0.048782 1.100000 0.900000
v -0.048782 1.100000 0.800000
v -0.048782 1.200000 1.000000
v -0.048782 1.200000 0.900000
v 0.051218 0.100000 0.100000
v 0.051218 0.000000 0.000000
v 0.051218 -0.000000 0.100000
v 0.051218 0.100000 0.000000
v 0.051218 0.000000 -0.100000
v 0.051218 0.100000 -0.100000
v 0.051218 0.900000 -0.400000
v 0.051218 0.800000 -0.700000
v 0.051218 0.800000 -0.400000
v 0.051218 0.900000 -0.700000
v 0.151218 0.100000 0.200000
v 0.151218 -0.000000 0.100000
v 0.151218 -0.000000 0.200000
v 0.151218 0.100000 0.100000
v 0.151218 0.300000 0.000000
v 0.151218 0.100000 -0.100000
v 0.151218 0.100000 0.000000
v 0.151218 0.300000 -0.100000
v 0.351218 0.500000 0.400000
v 0.351218 0.400000 0.000000
v 0.351218 0.400000 0.400000
v 0.351218 0.500000 0.000000
v 0.351218 0.600000 0.400000
v 0.351218 0.500000 0.500000
v 0.351218 0.600000 0.200000
v 0.351218 0.600000 0.100000
v 0.351218 0.600000 0.000000
v 0.351218 0.500000 -0.100000
v 0.351218 0.600000 -0.100000
v 0.351218 0.700000 0.500000
v 0.351218 0.700000 0.400000
v 0.351218 0.700000 0.200000
v 0.351218 0.700000 0.100000
v 0.351218 0.600000 -0.200000
v 0.351218 0.700000 -0.200000
v 0.351218 0.800000 0.400000
v 0.351218 0.800000 0.100000
v -0.348782 0.400000 0.400000
v -0.348782 0.400000 0.000000
v -0.348782 0.500000 0.400000
v -0.348782 0.500000 0.000000
v -0.348782 0.500000 0.500000
v -0.348782 0.600000 0.400000
v -0.348782 0.600000 0.200000
v -0.348782 0.600000 0.100000
v -0.348782 0.500000 -0.100000
v -0.348782 0.600000 0.000000
v -0.348782 0.600000 -0.100000
v -0.348782 0.700000 0.500000
v -0.348782 0.700000 0.400000
v -0.348782 0.700000 0.200000
v -0.348782 0.600000 -0.200000
v -0.348782 0.700000 0.100000
v -0.348782 0.700000 -0.200000
v -0.348782 0.800000 0.400000
v -0.348782 0.800000 0.100000
v -0.148782 -0.000000 0.200000
v -0.148782 -0.000000 0.100000
v -0.148782 0.100000 0.200000
v -0.148782 0.100000 0.100000
v -0.148782 0.100000 0.000000
v -0.148782 0.100000 -0.100000
v -0.148782 0.300000 0.000000
v -0.148782 0.300000 -0.100000
v -0.048782 -0.000000 0.100000
v -0.048782 0.000000 0.000000
v -0.048782 0.100000 0.100000
v -0.048782 0.000000 -0.100000
v -0.048782 0.100000 0.000000
v -0.048782 0.100000 -0.100000
v -0.048782 0.800000 -0.400000
v -0.048782 0.800000 -0.700000
v -0.048782 0.900000 -0.400000
v -0.048782 0.900000 -0.700000
v 0.051218 0.500000 0.900000
v 0.051218 0.500000 0.800000
v 0.051218 0.600000 0.900000
v 0.051218 0.600000 1.000000
v 0.051218 0.700000 1.000000
v 0.051218 0.700000 0.800000
v 0.051218 0.600000 -0.800000
v 0.051218 0.600000 -0.900000
v 0.051218 0.700000 -0.800000
v 0.051218 0.700000 1.200000
v 0.051218 0.800000 1.200000
v 0.051218 0.800000 1.100000
v 0.051218 0.800000 -0.800000
v 0.051218 0.900000 1.100000
v 0.051218 0.900000 1.000000
v 0.051218 0.800000 -0.700000
v 0.051218 0.900000 -0.700000
v 0.051218 0.900000 -0.800000
v 0.051218 0.900000 -0.900000
v 0.051218 1.000000 1.100000
v 0.051218 1.000000 1.000000
v 0.051218 0.900000 -0.300000
v 0.051218 1.000000 -0.300000
v 0.051218 1.000000 -0.800000
v 0.051218 1.000000 0.800000
v 0.051218 1.100000 1.200001
v 0.051218 1.000000 1.200000
v 0.051218 1.100000 1.000000
v 0.051218 1.100000 0.900000
v 0.051218 1.100000 0.800000
v 0.051218 1.200000 1.000000
v 0.051218 1.200000 0.900000
v 0.151218 0.400000 0.600000
v 0.151218 0.400000 0.300000
v 0.151218 0.500000 0.600000
v 0.151218 0.400000 -0.300000
v 0.151218 0.500000 0.300000
v 0.151218 0.500000 -0.300000
v 0.151218 0.700000 1.000000
v 0.151218 0.700000 0.700000
v 0.151218 0.800000 0.900000
v 0.151218 0.800000 0.800000
v 0.151218 0.700000 0.500000
v 0.151218 0.700000 -0.300000
v 0.151218 0.800000 0.500000
v 0.151218 0.700000 -0.400000
v 0.151218 0.800000 -0.300000
v 0.151218 0.800000 -0.400000
v 0.151218 0.700000 -0.700000
v 0.151218 0.700000 -0.800000
v 0.151218 0.800000 -0.700000
v 0.151218 0.800000 -0.800000
v 0.151218 0.900000 0.900000
v 0.151218 0.900000 0.800000
v 0.151218 0.900000 -0.300000
v 0.151218 0.900000 -0.700000
v 0.151218 1.000000 1.000000
v 0.151218 1.000000 0.700000
v 0.251218 -0.000000 0.200000
v 0.251218 -0.000000 0.100000
v 0.251218 0.100000 0.200000
v 0.251218 0.100000 0.100000
v 0.251218 0.100000 0.000000
v 0.251218 0.100000 -0.100000
v 0.251218 0.300000 0.000000
v 0.251218 0.300000 -0.100000
v 0.251218 0.500000 0.600000
v 0.251218 0.500000 -0.300000
v 0.251218 0.700000 0.600000
v 0.251218 0.700000 -0.300000
v 0.351218 -0.000000 0.100000
v 0.351218 0.000000 0.000000
v 0.351218 0.100000 0.100000
v 0.351218 0.000000 -0.100000
v 0.351218 0.100000 0.000000
v 0.351218 0.100000 -0.100000
v 0.451218 0.400000 0.400000
v 0.451218 0.400000 0.000000
v 0.451218 0.500000 0.400000
v 0.451218 0.500000 0.000000
v 0.451218 0.500000 0.500000
v 0.451218 0.600000 0.400000
v 0.451218 0.600000 0.200000
v 0.451218 0.600000 0.100000
v 0.451218 0.500000 -0.100000
v 0.451218 0.600000 0.000000
v 0.451218 0.600000 -0.100000
v 0.451218 0.700000 0.500000
v 0.451218 0.700000 0.400000
v 0.451218 0.700000 0.200000
v 0.451218 0.600000 -0.200000
v 0.451218 0.700000 0.100000
v 0.451218 0.700000 -0.200000
v 0.451218 0.800000 0.400000
v 0.451218 0.800000 0.100000
v 0.051218 0.700000 1.200000
v -0.048782 0.800000 1.200000
v -0.048782 0.700000 1.200000
v 0.051218 0.800000 1.200000
v 0.051218 1.000000 1.200000
v -0.048782 1.100000 1.200001
v -0.048782 1.000000 1.200000
v 0.051218 1.100000 1.200001
v 0.051218 0.800000 1.100000
v -0.048782 0.900000 1.100000
v -0.048782 0.800000 1.100000
v 0.051218 0.900000 1.100000
v -0.048782 1.000000 1.100000
v 0.051218 1.000000 1.100000
v -0.048782 0.700000 1.000000
v -0.148782 1.000000 1.000000
v -0.148782 0.700000 1.000000
v -0.048782 0.900000 1.000000
v -0.048782 1.000000 1.000000
v 0.051218 0.600000 1.000000
v -0.048782 0.600000 1.000000
v 0.051218 0.700000 1.000000
v 0.051218 1.100000 1.000000
v -0.048782 1.200000 1.000000
v -0.048782 1.100000 1.000000
v 0.051218 1.200000 1.000000
v 0.151218 0.700000 1.000000
v 0.051218 1.000000 1.000000
v 0.051218 0.900000 1.000000
v 0.151218 1.000000 1.000000
v 0.051218 0.500000 0.900000
v -0.048782 0.600000 0.900000
v -0.048782 0.500000 0.900000
v 0.051218 0.600000 0.900000
v -0.148782 0.500000 0.600000
v -0.248782 0.700000 0.600000
v -0.248782 0.500000 0.600000
v -0.148782 0.600000 0.600000
v -0.048782 0.600000 0.600000
v -0.148782 0.400000 0.600000
v -0.048782 0.700000 0.600000
v 0.051218 0.600000 0.600000
v 0.051218 0.700000 0.600000
v 0.151218 0.400000 0.600000
v 0.151218 0.500000 0.600000
v 0.151218 0.600000 0.600000
v 0.251218 0.500000 0.600000
v 0.251218 0.700000 0.600000
v -0.348782 0.500000 0.500000
v -0.448782 0.700000 0.500000
v -0.448782 0.500000 0.500000
v -0.348782 0.700000 0.500000
v -0.048782 0.700000 0.500000
v -0.148782 0.800000 0.500000
v -0.148782 0.700000 0.500000
v 0.051218 0.700000 0.500000
v 0.151218 0.700000 0.500000
v 0.151218 0.800000 0.500000
v 0.451218 0.500000 0.500000
v 0.351218 0.700000 0.500000
v 0.351218 0.500000 0.500000
v 0.451218 0.700000 0.500000
v -0.348782 0.400000 0.400000
v -0.448782 0.500000 0.400000
v -0.448782 0.400000 0.400000
v -0.348782 0.500000 0.400000
v -0.348782 0.700000 0.400000
v -0.448782 0.800000 0.400000
v -0.448782 0.700000 0.400000
v -0.348782 0.800000 0.400000
v 0.451218 0.400000 0.400000
v 0.351218 0.500000 0.400000
v 0.351218 0.400000 0.400000
v 0.451218 0.500000 0.400000
v 0.451218 0.700000 0.400000
v 0.351218 0.800000 0.400000
v 0.351218 0.700000 0.400000
v 0.451218 0.800000 0.400000
v -0.148782 -0.000000 0.200000
v -0.248782 0.100000 0.200000
v -0.248782 -0.000000 0.200000
v -0.148782 0.100000 0.200000
v 0.251218 -0.000000 0.200000
v 0.151218 0.100000 0.200000
v 0.151218 -0.000000 0.200000
v 0.251218 0.100000 0.200000
v -0.248782 -0.000000 0.100000
v -0.348782 0.100000 0.100000
v -0.348782 -0.000000 0.100000
v -0.248782 0.100000 0.100000
v -0.048782 -0.000000 0.100000
v -0.148782 0.100000 0.100000
v -0.148782 -0.000000 0.100000
v -0.048782 0.100000 0.100000
v 0.151218 -0.000000 0.100000
v 0.051218 0.100000 0.100000
v 0.051218 -0.000000 0.100000
v 0.151218 0.100000 0.100000
v 0.351218 -0.000000 0.100000
v 0.251218 0.100000 0.100000
v 0.251218 -0.000000 0.100000
v 0.351218 0.100000 0.100000
v -0.148782 0.100000 0.000000
v -0.248782 0.300000 0.000000
v -0.248782 0.100000 0.000000
v -0.148782 0.300000 0.000000
v 0.251218 0.100000 0.000000
v 0.151218 0.300000 0.000000
v 0.151218 0.100000 0.000000
v 0.251218 0.300000 0.000000
v -0.048782 0.900000 -0.300000
v -0.148782 0.900000 -0.300000
v -0.148782 0.800000 -0.300000
v 0.051218 0.900000 -0.300000
v -0.048782 1.000000 -0.300000
v 0.051218 1.000000 -0.300000
v 0.151218 0.800000 -0.300000
v 0.151218 0.900000 -0.300000
v -0.048782 0.800000 -0.700000
v -0.148782 0.800000 -0.700000
v -0.148782 0.700000 -0.700000
v 0.051218 0.800000 -0.700000
v -0.048782 0.900000 -0.700000
v 0.051218 0.900000 -0.700000
v 0.151218 0.700000 -0.700000
v 0.151218 0.800000 -0.700000
v 0.051218 0.600000 -0.800000
v -0.048782 0.700000 -0.800000
v -0.048782 0.600000 -0.800000
v 0.051218 0.700000 -0.800000
v -0.048782 1.100000 0.900000
v -0.048782 1.200000 0.900000
v 0.051218 1.100000 0.900000
v 0.051218 1.200000 0.900000
v -0.048782 0.500000 0.800000
v -0.048782 0.700000 0.800000
v 0.051218 0.500000 0.800000
v 0.051218 0.700000 0.800000
v -0.048782 1.000000 0.800000
v -0.048782 1.100000 0.800000
v 0.051218 1.000000 0.800000
v 0.051218 1.100000 0.800000
v -0.148782 0.700000 0.700000
v -0.148782 1.000000 0.700000
v 0.151218 0.700000 0.700000
v 0.151218 1.000000 0.700000
v -0.448782 0.700000 0.100000
v -0.448782 0.800000 0.100000
v -0.348782 0.700000 0.100000
v -0.348782 0.800000 0.100000
v 0.351218 0.700000 0.100000
v 0.351218 0.800000 0.100000
v 0.451218 0.700000 0.100000
v 0.451218 0.800000 0.100000
v -0.448782 0.400000 0.000000
v -0.448782 0.500000 0.000000
v -0.348782 0.400000 0.000000
v -0.348782 0.500000 0.000000
v 0.351218 0.400000 0.000000
v 0.351218 0.500000 0.000000
v 0.451218 0.400000 0.000000
v 0.451218 0.500000 0.000000
v -0.448782 0.500000 -0.100000
v -0.448782 0.600000 -0.100000
v -0.348782 0.500000 -0.100000
v -0.348782 0.600000 -0.100000
v -0.348782 0.000000 -0.100000
v -0.348782 0.100000 -0.100000
v -0.248782 0.100000 -0.100000
v -0.148782 0.100000 -0.100000
v -0.248782 0.300000 -0.100000
v -0.148782 0.300000 -0.100000
v -0.048782 0.000000 -0.100000
v -0.048782 0.100000 -0.100000
v 0.051218 0.000000 -0.100000
v 0.051218 0.100000 -0.100000
v 0.151218 0.100000 -0.100000
v 0.251218 0.100000 -0.100000
v 0.151218 0.300000 -0.100000
v 0.251218 0.300000 -0.100000
v 0.351218 0.000000 -0.100000
v 0.351218 0.100000 -0.100000
v 0.351218 0.500000 -0.100000
v 0.351218 0.600000 -0.100000
v 0.451218 0.500000 -0.100000
v 0.451218 0.600000 -0.100000
v -0.448782 0.600000 -0.200000
v -0.448782 0.700000 -0.200000
v -0.348782 0.600000 -0.200000
v -0.348782 0.700000 -0.200000
v 0.351218 0.600000 -0.200000
v 0.351218 0.700000 -0.200000
v 0.451218 0.600000 -0.200000
v 0.451218 0.700000 -0.200000
v -0.248782 0.500000 -0.300000
v -0.248782 0.700000 -0.300000
v -0.148782 0.500000 -0.300000
v -0.148782 0.700000 -0.300000
v -0.148782 0.400000 -0.300000
v 0.151218 0.400000 -0.300000
v 0.151218 0.500000 -0.300000
v 0.151218 0.700000 -0.300000
v 0.251218 0.500000 -0.300000
v 0.251218 0.700000 -0.300000
v -0.148782 0.700000 -0.400000
v -0.148782 0.800000 -0.400000
v -0.048782 0.800000 -0.400000
v 0.051218 0.800000 -0.400000
v -0.048782 0.900000 -0.400000
v 0.051218 0.900000 -0.400000
v 0.151218 0.700000 -0.400000
v 0.151218 0.800000 -0.400000
v -0.148782 0.800000 -0.700000
v -0.148782 0.900000 -0.700000
v -0.048782 0.800000 -0.700000
v -0.048782 0.900000 -0.700000
v 0.051218 0.800000 -0.700000
v 0.051218 0.900000 -0.700000
v 0.151218 0.800000 -0.700000
v 0.151218 0.900000 -0.700000
v -0.148782 0.700000 -0.800000
v -0.148782 0.800000 -0.800000
v -0.048782 0.700000 -0.800000
v -0.048782 0.800000 -0.800000
v -0.048782 0.900000 -0.800000
v -0.048782 1.000000 -0.800000
v 0.051218 0.900000 -0.800000
v 0.051218 1.000000 -0.800000
v 0.051218 0.700000 -0.800000
v 0.051218 0.800000 -0.800000
v 0.151218 0.700000 -0.800000
v 0.151218 0.800000 -0.800000
v -0.048782 0.600000 -0.900000
v -0.048782 0.900000 -0.900000
v 0.051218 0.600000 -0.900000
v 0.051218 0.900000 -0.900000
v -0.248782 -0.000000 0.100000
v -0.148782 -0.000000 0.200000
v -0.248782 -0.000000 0.200000
v -0.148782 -0.000000 0.100000
v 0.151218 -0.000000 0.100000
v 0.251218 -0.000000 0.200000
v 0.151218 -0.000000 0.200000
v 0.251218 -0.000000 0.100000
v -0.348782 0.000000 0.000000
v -0.348782 -0.000000 0.100000
v -0.248782 0.000000 0.000000
v -0.148782 0.000000 0.000000
v -0.048782 -0.000000 0.100000
v -0.048782 0.000000 0.000000
v 0.051218 0.000000 0.000000
v 0.051218 -0.000000 0.100000
v 0.151218 0.000000 0.000000
v 0.251218 0.000000 0.000000
v 0.351218 -0.000000 0.100000
v 0.351218 0.000000 0.000000
v -0.348782 0.000000 -0.100000
v -0.048782 0.000000 -0.100000
v 0.051218 0.000000 -0.100000
v 0.351218 0.000000 -0.100000
v -0.148782 0.400000 0.300000
v 0.151218 0.400000 0.600000
v -0.148782 0.400000 0.600000
v -0.048782 0.400000 0.300000
v 0.051218 0.400000 0.300000
v 0.151218 0.400000 0.300000
v -0.048782 0.400000 0.200000
v 0.051218 0.400000 0.200000
v -0.448782 0.400000 0.000000
v -0.348782 0.400000 0.400000
v -0.448782 0.400000 0.400000
v -0.348782 0.400000 0.000000
v 0.351218 0.400000 0.000000
v 0.451218 0.400000 0.400000
v 0.351218 0.400000 0.400000
v 0.451218 0.400000 0.000000
v -0.148782 0.400000 -0.300000
v 0.151218 0.400000 -0.300000
v -0.048782 0.500000 0.800000
v 0.051218 0.500000 0.900000
v -0.048782 0.500000 0.900000
v 0.051218 0.500000 0.800000
v -0.448782 0.500000 0.400000
v -0.348782 0.500000 0.500000
v -0.448782 0.500000 0.500000
v -0.348782 0.500000 0.400000
v 0.351218 0.500000 0.400000
v 0.451218 0.500000 0.500000
v 0.351218 0.500000 0.500000
v 0.451218 0.500000 0.400000
v -0.148782 0.500000 0.300000
v -0.148782 0.500000 0.600000
v -0.248782 0.500000 0.600000
v 0.151218 0.500000 0.300000
v 0.251218 0.500000 0.600000
v 0.151218 0.500000 0.600000
v -0.448782 0.500000 -0.100000
v -0.348782 0.500000 0.000000
v -0.448782 0.500000 0.000000
v -0.348782 0.500000 -0.100000
v 0.351218 0.500000 -0.100000
v 0.451218 0.500000 0.000000
v 0.351218 0.500000 0.000000
v 0.451218 0.500000 -0.100000
v -0.248782 0.500000 -0.300000
v -0.148782 0.500000 -0.300000
v 0.151218 0.500000 -0.300000
v 0.251218 0.500000 -0.300000
v -0.048782 0.600000 0.900000
v 0.051218 0.600000 1.000000
v -0.048782 0.600000 1.000000
v 0.051218 0.600000 0.900000
v -0.448782 0.600000 -0.200000
v -0.348782 0.600000 -0.100000
v -0.448782 0.600000 -0.100000
v -0.348782 0.600000 -0.200000
v 0.351218 0.600000 -0.200000
v 0.451218 0.600000 -0.100000
v 0.351218 0.600000 -0.100000
v 0.451218 0.600000 -0.200000
v -0.048782 0.600000 -0.900000
v 0.051218 0.600000 -0.800000
v -0.048782 0.600000 -0.800000
v 0.051218 0.600000 -0.900000
v -0.048782 0.700000 1.000000
v 0.051218 0.700000 1.200000
v -0.048782 0.700000 1.200000
v 0.051218 0.700000 1.000000
v -0.048782 0.700000 0.800000
v -0.148782 0.700000 1.000000
v 0.051218 0.700000 0.800000
v 0.151218 0.700000 1.000000
v -0.148782 0.700000 0.700000
v 0.151218 0.700000 0.700000
v -0.148782 0.700000 -0.400000
v 0.151218 0.700000 -0.300000
v -0.148782 0.700000 -0.300000
v 0.151218 0.700000 -0.400000
v -0.148782 0.700000 -0.800000
v 0.151218 0.700000 -0.700000
v -0.148782 0.700000 -0.700000
v -0.048782 0.700000 -0.800000
v 0.051218 0.700000 -0.800000
v 0.151218 0.700000 -0.800000
v -0.148782 0.800000 -0.700000
v -0.048782 0.800000 -0.400000
v -0.148782 0.800000 -0.400000
v -0.048782 0.800000 -0.700000
v 0.051218 0.800000 -0.700000
v 0.151218 0.800000 -0.400000
v 0.051218 0.800000 -0.400000
v 0.151218 0.800000 -0.700000
v -0.048782 0.900000 -0.700000
v 0.051218 0.900000 -0.400000
v -0.048782 0.900000 -0.400000
v 0.051218 0.900000 -0.700000
v -0.048782 1.000000 1.100000
v 0.051218 1.000000 1.200000
v -0.048782 1.000000 1.200000
v 0.051218 1.000000 1.100000
v -0.248782 0.100000 0.200000
v -0.148782 0.100000 0.200000
v -0.248782 0.100000 0.100000
v -0.148782 0.100000 0.100000
v 0.151218 0.100000 0.200000
v 0.251218 0.100000 0.200000
v 0.151218 0.100000 0.100000
v 0.251218 0.100000 0.100000
v -0.348782 0.100000 0.100000
v -0.348782 0.100000 0.000000
v -0.248782 0.100000 0.000000
v -0.048782 0.100000 0.100000
v -0.148782 0.100000 0.000000
v -0.048782 0.100000 0.000000
v 0.051218 0.100000 0.100000
v 0.051218 0.100000 0.000000
v 0.151218 0.100000 0.000000
v 0.351218 0.100000 0.100000
v 0.251218 0.100000 0.000000
v 0.351218 0.100000 0.000000
v -0.348782 0.100000 -0.100000
v -0.248782 0.100000 -0.100000
v -0.148782 0.100000 -0.100000
v -0.048782 0.100000 -0.100000
v 0.051218 0.100000 -0.100000
v 0.151218 0.100000 -0.100000
v 0.251218 0.100000 -0.100000
v 0.351218 0.100000 -0.100000
v -0.248782 0.300000 0.000000
v -0.148782 0.300000 0.000000
v -0.248782 0.300000 -0.100000
v -0.148782 0.300000 -0.100000
v 0.151218 0.300000 0.000000
v 0.251218 0.300000 0.000000
v 0.151218 0.300000 -0.100000
v 0.251218 0.300000 -0.100000
v -0.248782 0.700000 0.600000
v -0.048782 0.700000 0.600000
v -0.148782 0.700000 0.500000
v 0.051218 0.700000 0.600000
v -0.048782 0.700000 0.500000
v 0.251218 0.700000 0.600000
v 0.051218 0.700000 0.500000
v 0.151218 0.700000 0.500000
v -0.448782 0.700000 0.500000
v -0.348782 0.700000 0.500000
v -0.448782 0.700000 0.400000
v -0.348782 0.700000 0.400000
v 0.351218 0.700000 0.500000
v 0.451218 0.700000 0.500000
v 0.351218 0.700000 0.400000
v 0.451218 0.700000 0.400000
v -0.448782 0.700000 0.100000
v -0.348782 0.700000 0.100000
v -0.448782 0.700000 -0.200000
v -0.348782 0.700000 -0.200000
v 0.351218 0.700000 0.100000
v 0.451218 0.700000 0.100000
v 0.351218 0.700000 -0.200000
v 0.451218 0.700000 -0.200000
v -0.248782 0.700000 -0.300000
v -0.148782 0.700000 -0.300000
v 0.151218 0.700000 -0.300000
v 0.251218 0.700000 -0.300000
v -0.048782 0.800000 1.200000
v 0.051218 0.800000 1.200000
v -0.048782 0.800000 1.100000
v 0.051218 0.800000 1.100000
v -0.448782 0.800000 0.400000
v -0.348782 0.800000 0.400000
v -0.448782 0.800000 0.100000
v -0.348782 0.800000 0.100000
v 0.351218 0.800000 0.400000
v 0.451218 0.800000 0.400000
v 0.351218 0.800000 0.100000
v 0.451218 0.800000 0.100000
v -0.148782 0.800000 0.500000
v 0.151218 0.800000 0.500000
v -0.148782 0.800000 -0.300000
v 0.151218 0.800000 -0.300000
v -0.148782 0.800000 -0.700000
v -0.048782 0.800000 -0.700000
v -0.148782 0.800000 -0.800000
v -0.048782 0.800000 -0.800000
v 0.051218 0.800000 -0.700000
v 0.151218 0.800000 -0.700000
v 0.051218 0.800000 -0.800000
v 0.151218 0.800000 -0.800000
v -0.148782 0.900000 -0.300000
v -0.048782 0.900000 -0.300000
v -0.148782 0.900000 -0.700000
v -0.048782 0.900000 -0.700000
v 0.051218 0.900000 -0.300000
v 0.151218 0.900000 -0.300000
v 0.051218 0.900000 -0.700000
v 0.151218 0.900000 -0.700000
v -0.048782 0.900000 -0.800000
v 0.051218 0.900000 -0.800000
v -0.048782 0.900000 -0.900000
v 0.051218 0.900000 -0.900000
v -0.148782 1.000000 1.000000
v -0.048782 1.000000 1.000000
v -0.048782 1.000000 0.800000
v 0.051218 1.000000 1.000000
v 0.151218 1.000000 1.000000
v 0.051218 1.000000 0.800000
v -0.148782 1.000000 0.700000
v 0.151218 1.000000 0.700000
v -0.048782 1.000000 -0.300000
v 0.051218 1.000000 -0.300000
v -0.048782 1.000000 -0.800000
v 0.051218 1.000000 -0.800000
v -0.048782 1.100000 1.200001
v 0.051218 1.100000 1.200001
v -0.048782 1.100000 1.000000
v 0.051218 1.100000 1.000000
v -0.048782 1.100000 0.900000
v 0.051218 1.100000 0.900000
v -0.048782 1.100000 0.800000
v 0.051218 1.100000 0.800000
v -0.048782 1.200000 1.000000
v 0.051218 1.200000 1.000000
v -0.048782 1.200000 0.900000
v 0.051218 1.200000 0.900000
vt 0.068359 0.500000
vt 0.068359 0.500000
vt 0.068359 0.500000
vt 0.068359 0.500000
vt 0.041016 0.500000
vt 0.041016 0.500000
vt 0.041016 0.500000
vt 0.771484 0.500000
vt 0.771484 0.500000
vt 0.771484 0.500000
vt 0.771484 0.500000
vt 0.771484 0.500000
vt 0.068359 0.500000
vt 0.068359 0.500000
vt 0.771484 0.500000
vt 0.068359 0.500000
vt 0.041016 0.500000
vt 0.005859 0.500000
vt 0.005859 0.500000
vt 0.005859 0.500000
vt 0.041016 0.500000
vt 0.771484 0.500000
vt 0.005859 0.500000
vt 0.068359 0.500000
vt 0.068359 0.500000
vt 0.771484 0.500000
vt 0.068359 0.500000
vt 0.068359 0.500000
vt 0.005859 0.500000
vt 0.005859 0.500000
vt 0.005859 0.500000
vt 0.001953 0.500000
vt 0.001953 0.500000
vt 0.001953 0.500000
vt 0.017578 0.500000
vt 0.017578 0.500000
vt 0.017578 0.500000
vt 0.001953 0.500000
vt 0.017578 0.500000
vt 0.001953 0.500000
vt 0.001953 0.500000
vt 0.001953 0.500000
vt 0.001953 0.500000
vt 0.017578 0.500000
vt 0.017578 0.500000
vt 0.017578 0.500000
vt 0.017578 0.500000
vt 0.005859 0.500000
vt 0.005859 0.500000
vt 0.005859 0.500000
vt 0.005859 0.500000
vt 0.771484 0.500000
vt 0.771484 0.500000
vt 0.771484 0.500000
vt 0.041016 0.500000
vt 0.041016 0.500000
vt 0.041016 0.500000
vt 0.771484 0.500000
vt 0.041016 0.500000
vt 0.068359 0.500000
vt 0.068359 0.500000
vt 0.068359 0.500000
vt 0.068359 0.500000
vt 0.005859 0.500000
vt 0.005859 0.500000
vt 0.005859 0.500000
vt 0.048828 0.500000
vt 0.048828 0.500000
vt 0.048828 0.500000
vt 0.005859 0.500000
vt 0.048828 0.500000
vt 0.048828 0.500000
vt 0.048828 0.500000
vt 0.048828 0.500000
vt 0.048828 0.500000
vt 0.068359 0.500000
vt 0.009766 0.500000
vt 0.009766 0.500000
vt 0.009766 0.500000
vt 0.068359 0.500000
vt 0.009766 0.500000
vt 0.048828 0.500000
vt 0.048828 0.500000
vt 0.068359 0.500000
vt 0.068359 0.500000
vt 0.279297 0.500000
vt 0.279297 0.500000
vt 0.279297 0.500000
vt 0.279297 0.500000
vt 0.279297 0.500000
vt 0.279297 0.500000
vt 0.048828 0.500000
vt 0.048828 0.500000
vt 0.048828 0.500000
vt 0.021484 0.500000
vt 0.021484 0.500000
vt 0.021484 0.500000
vt 0.021484 0.500000
vt 0.048828 0.500000
vt 0.021484 0.500000
vt 0.021484 0.500000
vt 0.048828 0.500000
vt 0.048828 0.500000
vt 0.048828 0.500000
vt 0.048828 0.500000
vt 0.279297 0.500000
vt 0.279297 0.500000
vt 0.279297 0.500000
vt 0.279297 0.500000
vt 0.048828 0.500000
vt 0.048828 0.500000
vt 0.048828 0.500000
vt 0.279297 0.500000
vt 0.279297 0.500000
vt 0.279297 0.500000
vt 0.279297 0.500000
vt 0.279297 0.500000
vt 0.279297 0.500000
vt 0.279297 0.500000
vt 0.279297 0.500000
vt 0.001953 0.500000
vt 0.001953 0.500000
vt 0.001953 0.500000
vt 0.017578 0.500000
vt 0.017578 0.500000
vt 0.017578 0.500000
vt 0.001953 0.500000
vt 0.017578 0.500000
vt 0.048828 0.500000
vt 0.048828 0.500000
vt 0.048828 0.500000
vt 0.048828 0.500000
vt 0.001953 0.500000
vt 0.001953 0.500000
vt 0.001953 0.500000
vt 0.001953 0.500000
vt 0.017578 0.500000
vt 0.017578 0.500000
vt 0.017578 0.500000
vt 0.017578 0.500000
vt 0.068359 0.500000
vt 0.068359 0.500000
vt 0.068359 0.500000
vt 0.068359 0.500000
vt 0.041016 0.500000
vt 0.041016 0.500000
vt 0.041016 0.500000
vt 0.771484 0.500000
vt 0.771484 0.500000
vt 0.771484 0.500000
vt 0.771484 0.500000
vt 0.771484 0.500000
vt 0.068359 0.500000
vt 0.068359 0.500000
vt 0.771484 0.500000
vt 0.068359 0.500000
vt 0.041016 0.500000
vt 0.005859 0.500000
vt 0.005859 0.500000
vt 0.005859 0.500000
vt 0.041016 0.500000
vt 0.771484 0.500000
vt 0.005859 0.500000
vt 0.068359 0.500000
vt 0.068359 0.500000
vt 0.771484 0.500000
vt 0.068359 0.500000
vt 0.068359 0.500000
vt 0.005859 0.500000
vt 0.005859 0.500000
vt 0.005859 0.500000
vt 0.068359 0.500000
vt 0.068359 0.500000
vt 0.068359 0.500000
vt 0.068359 0.500000
vt 0.041016 0.500000
vt 0.041016 0.500000
vt 0.041016 0.500000
vt 0.771484 0.500000
vt 0.771484 0.500000
vt 0.771484 0.500000
vt 0.771484 0.500000
vt 0.771484 0.500000
vt 0.068359 0.500000
vt 0.068359 0.500000
vt 0.771484 0.500000
vt 0.068359 0.500000
vt 0.041016 0.500000
vt 0.005859 0.500000
vt 0.005859 0.500000
vt 0.005859 0.500000
vt 0.041016 0.500000
vt 0.771484 0.500000
vt 0.005859 0.500000
vt 0.068359 0.500000
vt 0.068359 0.500000
vt 0.771484 0.500000
vt 0.068359 0.500000
vt 0.068359 0.500000
vt 0.005859 0.500000
vt 0.005859 0.500000
vt 0.005859 0.500000
vt 0.001953 0.500000
vt 0.001953 0.500000
vt 0.001953 0.500000
vt 0.001953 0.500000
vt 0.017578 0.500000
vt 0.017578 0.500000
vt 0.017578 0.500000
vt 0.017578 0.500000
vt 0.001953 0.500000
vt 0.001953 0.500000
vt 0.001953 0.500000
vt 0.017578 0.500000
vt 0.017578 0.500000
vt 0.017578 0.500000
vt 0.001953 0.500000
vt 0.017578 0.500000
vt 0.048828 0.500000
vt 0.048828 0.500000
vt 0.048828 0.500000
vt 0.048828 0.500000
vt 0.279297 0.500000
vt 0.279297 0.500000
vt 0.279297 0.500000
vt 0.279297 0.500000
vt 0.279297 0.500000
vt 0.279297 0.500000
vt 0.048828 0.500000
vt 0.048828 0.500000
vt 0.048828 0.500000
vt 0.021484 0.500000
vt 0.021484 0.500000
vt 0.021484 0.500000
vt 0.021484 0.500000
vt 0.048828 0.500000
vt 0.021484 0.500000
vt 0.021484 0.500000
vt 0.048828 0.500000
vt 0.048828 0.500000
vt 0.048828 0.500000
vt 0.048828 0.500000
vt 0.279297 0.500000
vt 0.279297 0.500000
vt 0.279297 0.500000
vt 0.279297 0.500000
vt 0.048828 0.500000
vt 0.048828 0.500000
vt 0.048828 0.500000
vt 0.279297 0.500000
vt 0.279297 0.500000
vt 0.279297 0.500000
vt 0.279297 0.500000
vt 0.279297 0.500000
vt 0.279297 0.500000
vt 0.279297 0.500000
vt 0.279297 0.500000
vt 0.771484 0.500000
vt 0.771484 0.500000
vt 0.771484 0.500000
vt 0.041016 0.500000
vt 0.041016 0.500000
vt 0.041016 0.500000
vt 0.771484 0.500000
vt 0.041016 0.500000
vt 0.068359 0.500000
vt 0.068359 0.500000
vt 0.068359 0.500000
vt 0.068359 0.500000
vt 0.005859 0.500000
vt 0.005859 0.500000
vt 0.005859 0.500000
vt 0.048828 0.500000
vt 0.048828 0.500000
vt 0.048828 0.500000
vt 0.005859 0.500000
vt 0.048828 0.500000
vt 0.048828 0.500000
vt 0.048828 0.500000
vt 0.048828 0.500000
vt 0.048828 0.500000
vt 0.068359 0.500000
vt 0.009766 0.500000
vt 0.009766 0.500000
vt 0.009766 0.500000
vt 0.068359 0.500000
vt 0.009766 0.500000
vt 0.048828 0.500000
vt 0.048828 0.500000
vt 0.068359 0.500000
vt 0.068359 0.500000
vt 0.001953 0.500000
vt 0.001953 0.500000
vt 0.001953 0.500000
vt 0.001953 0.500000
vt 0.017578 0.500000
vt 0.017578 0.500000
vt 0.017578 0.500000
vt 0.017578 0.500000
vt 0.005859 0.500000
vt 0.005859 0.500000
vt 0.005859 0.500000
vt 0.005859 0.500000
vt 0.001953 0.500000
vt 0.001953 0.500000
vt 0.001953 0.500000
vt 0.017578 0.500000
vt 0.017578 0.500000
vt 0.017578 0.500000
vt 0.001953 0.500000
vt 0.017578 0.500000
vt 0.068359 0.500000
vt 0.068359 0.500000
vt 0.068359 0.500000
vt 0.068359 0.500000
vt 0.041016 0.500000
vt 0.041016 0.500000
vt 0.041016 0.500000
vt 0.771484 0.500000
vt 0.771484 0.500000
vt 0.771484 0.500000
vt 0.771484 0.500000
vt 0.771484 0.500000
vt 0.068359 0.500000
vt 0.068359 0.500000
vt 0.771484 0.500000
vt 0.068359 0.500000
vt 0.041016 0.500000
vt 0.005859 0.500000
vt 0.005859 0.500000
vt 0.005859 0.500000
vt 0.041016 0.500000
vt 0.771484 0.500000
vt 0.005859 0.500000
vt 0.068359 0.500000
vt 0.068359 0.500000
vt 0.771484 0.500000
vt 0.068359 0.500000
vt 0.068359 0.500000
vt 0.005859 0.500000
vt 0.005859 0.500000
vt 0.005859 0.500000
vt 0.021484 0.500000
vt 0.021484 0.500000
vt 0.021484 0.500000
vt 0.021484 0.500000
vt 0.279297 0.500000
vt 0.279297 0.500000
vt 0.279297 0.500000
vt 0.279297 0.500000
vt 0.021484 0.500000
vt 0.021484 0.500000
vt 0.021484 0.500000
vt 0.279297 0.500000
vt 0.279297 0.500000
vt 0.279297 0.500000
vt 0.021484 0.500000
vt 0.279297 0.500000
vt 0.068359 0.500000
vt 0.068359 0.500000
vt 0.068359 0.500000
vt 0.068359 0.500000
vt 0.068359 0.500000
vt 0.279297 0.500000
vt 0.279297 0.500000
vt 0.279297 0.500000
vt 0.279297 0.500000
vt 0.279297 0.500000
vt 0.279297 0.500000
vt 0.279297 0.500000
vt 0.279297 0.500000
vt 0.068359 0.500000
vt 0.068359 0.500000
vt 0.068359 0.500000
vt 0.068359 0.500000
vt 0.068359 0.500000
vt 0.279297 0.500000
vt 0.279297 0.500000
vt 0.279297 0.500000
vt 0.279297 0.500000
vt 0.005859 0.500000
vt 0.005859 0.500000
vt 0.005859 0.500000
vt 0.005859 0.500000
vt 0.771484 0.500000
vt 0.771484 0.500000
vt 0.771484 0.500000
vt 0.005859 0.500000
vt 0.771484 0.500000
vt 0.005859 0.500000
vt 0.771484 0.500000
vt 0.771484 0.500000
vt 0.771484 0.500000
vt 0.771484 0.500000
vt 0.771484 0.500000
vt 0.005859 0.500000
vt 0.005859 0.500000
vt 0.005859 0.500000
vt 0.771484 0.500000
vt 0.005859 0.500000
vt 0.005859 0.500000
vt 0.005859 0.500000
vt 0.041016 0.500000
vt 0.041016 0.500000
vt 0.041016 0.500000
vt 0.041016 0.500000
vt 0.005859 0.500000
vt 0.005859 0.500000
vt 0.005859 0.500000
vt 0.005859 0.500000
vt 0.005859 0.500000
vt 0.005859 0.500000
vt 0.041016 0.500000
vt 0.041016 0.500000
vt 0.041016 0.500000
vt 0.041016 0.500000
vt 0.068359 0.500000
vt 0.068359 0.500000
vt 0.068359 0.500000
vt 0.068359 0.500000
vt 0.005859 0.500000
vt 0.005859 0.500000
vt 0.005859 0.500000
vt 0.005859 0.500000
vt 0.068359 0.500000
vt 0.068359 0.500000
vt 0.068359 0.500000
vt 0.068359 0.500000
vt 0.005859 0.500000
vt 0.005859 0.500000
vt 0.005859 0.500000
vt 0.005859 0.500000
vt 0.001953 0.500000
vt 0.001953 0.500000
vt 0.001953 0.500000
vt 0.001953 0.500000
vt 0.001953 0.500000
vt 0.001953 0.500000
vt 0.001953 0.500000
vt 0.001953 0.500000
vt 0.001953 0.500000
vt 0.001953 0.500000
vt 0.001953 0.500000
vt 0.001953 0.500000
vt 0.001953 0.500000
vt 0.001953 0.500000
vt 0.001953 0.500000
vt 0.001953 0.500000
vt 0.001953 0.500000
vt 0.001953 0.500000
vt 0.001953 0.500000
vt 0.001953 0.500000
vt 0.001953 0.500000
vt 0.001953 0.500000
vt 0.001953 0.500000
vt 0.001953 0.500000
vt 0.017578 0.500000
vt 0.017578 0.500000
vt 0.017578 0.500000
vt 0.017578 0.500000
vt 0.017578 0.500000
vt 0.017578 0.500000
vt 0.017578 0.500000
vt 0.017578 0.500000
vt 0.048828 0.500000
vt 0.048828 0.500000
vt 0.048828 0.500000
vt 0.048828 0.500000
vt 0.048828 0.500000
vt 0.048828 0.500000
vt 0.048828 0.500000
vt 0.048828 0.500000
vt 0.048828 0.500000
vt 0.048828 0.500000
vt 0.048828 0.500000
vt 0.048828 0.500000
vt 0.048828 0.500000
vt 0.048828 0.500000
vt 0.048828 0.500000
vt 0.048828 0.500000
vt 0.048828 0.500000
vt 0.048828 0.500000
vt 0.048828 0.500000
vt 0.048828 0.500000
vt 0.279297 0.500000
vt 0.279297 0.500000
vt 0.279297 0.500000
vt 0.279297 0.500000
vt 0.279297 0.500000
vt 0.279297 0.500000
vt 0.279297 0.500000
vt 0.279297 0.500000
vt 0.279297 0.500000
vt 0.279297 0.500000
vt 0.279297 0.500000
vt 0.279297 0.500000
vt 0.068359 0.500000
vt 0.068359 0.500000
vt 0.068359 0.500000
vt 0.068359 0.500000
vt 0.005859 0.500000
vt 0.005859 0.500000
vt 0.005859 0.500000
vt 0.005859 0.500000
vt 0.005859 0.500000
vt 0.005859 0.500000
vt 0.005859 0.500000
vt 0.005859 0.500000
vt 0.068359 0.500000
vt 0.068359 0.500000
vt 0.068359 0.500000
vt 0.068359 0.500000
vt 0.068359 0.500000
vt 0.068359 0.500000
vt 0.068359 0.500000
vt 0.068359 0.500000
vt 0.068359 0.500000
vt 0.068359 0.500000
vt 0.068359 0.500000
vt 0.068359 0.500000
vt 0.017578 0.500000
vt 0.017578 0.500000
vt 0.017578 0.500000
vt 0.017578 0.500000
vt 0.017578 0.500000
vt 0.017578 0.500000
vt 0.017578 0.500000
vt 0.017578 0.500000
vt 0.017578 0.500000
vt 0.017578 0.500000
vt 0.017578 0.500000
vt 0.017578 0.500000
vt 0.017578 0.500000
vt 0.017578 0.500000
vt 0.017578 0.500000
vt 0.017578 0.500000
vt 0.068359 0.500000
vt 0.068359 0.500000
vt 0.068359 0.500000
vt 0.068359 0.500000
vt 0.068359 0.500000
vt 0.068359 0.500000
vt 0.068359 0.500000
vt 0.068359 0.500000
vt 0.068359 0.500000
vt 0.068359 0.500000
vt 0.068359 0.500000
vt 0.068359 0.500000
vt 0.005859 0.500000
vt 0.005859 0.500000
vt 0.005859 0.500000
vt 0.005859 0.500000
vt 0.041016 0.500000
vt 0.041016 0.500000
vt 0.041016 0.500000
vt 0.041016 0.500000
vt 0.041016 0.500000
vt 0.041016 0.500000
vt 0.005859 0.500000
vt 0.005859 0.500000
vt 0.005859 0.500000
vt 0.005859 0.500000
vt 0.048828 0.500000
vt 0.048828 0.500000
vt 0.048828 0.500000
vt 0.048828 0.500000
vt 0.048828 0.500000
vt 0.048828 0.500000
vt 0.048828 0.500000
vt 0.048828 0.500000
vt 0.048828 0.500000
vt 0.048828 0.500000
vt 0.048828 0.500000
vt 0.048828 0.500000
vt 0.048828 0.500000
vt 0.048828 0.500000
vt 0.048828 0.500000
vt 0.048828 0.500000
vt 0.048828 0.500000
vt 0.048828 0.500000
vt 0.048828 0.500000
vt 0.048828 0.500000
vt 0.048828 0.500000
vt 0.048828 0.500000
vt 0.048828 0.500000
vt 0.048828 0.500000
vt 0.048828 0.500000
vt 0.048828 0.500000
vt 0.048828 0.500000
vt 0.048828 0.500000
vt 0.048828 0.500000
vt 0.048828 0.500000
vt 0.048828 0.500000
vt 0.048828 0.500000
vt 0.001953 0.500000
vt 0.001953 0.500000
vt 0.001953 0.500000
vt 0.001953 0.500000
vt 0.001953 0.500000
vt 0.001953 0.500000
vt 0.001953 0.500000
vt 0.001953 0.500000
vt 0.001953 0.500000
vt 0.001953 0.500000
vt 0.017578 0.500000
vt 0.017578 0.500000
vt 0.017578 0.500000
vt 0.001953 0.500000
vt 0.001953 0.500000
vt 0.001953 0.500000
vt 0.017578 0.500000
vt 0.001953 0.500000
vt 0.001953 0.500000
vt 0.001953 0.500000
vt 0.017578 0.500000
vt 0.017578 0.500000
vt 0.017578 0.500000
vt 0.001953 0.500000
vt 0.001953 0.500000
vt 0.001953 0.500000
vt 0.017578 0.500000
vt 0.001953 0.500000
vt 0.017578 0.500000
vt 0.017578 0.500000
vt 0.017578 0.500000
vt 0.017578 0.500000
vt 0.017578 0.500000
vt 0.017578 0.500000
vt 0.017578 0.500000
vt 0.017578 0.500000
vt 0.771484 0.500000
vt 0.771484 0.500000
vt 0.771484 0.500000
vt 0.771484 0.500000
vt 0.771484 0.500000
vt 0.771484 0.500000
vt 0.041016 0.500000
vt 0.041016 0.500000
vt 0.041016 0.500000
vt 0.771484 0.500000
vt 0.041016 0.500000
vt 0.041016 0.500000
vt 0.041016 0.500000
vt 0.771484 0.500000
vt 0.068359 0.500000
vt 0.068359 0.500000
vt 0.068359 0.500000
vt 0.068359 0.500000
vt 0.068359 0.500000
vt 0.068359 0.500000
vt 0.068359 0.500000
vt 0.068359 0.500000
vt 0.041016 0.500000
vt 0.041016 0.500000
vt 0.279297 0.500000
vt 0.279297 0.500000
vt 0.279297 0.500000
vt 0.279297 0.500000
vt 0.041016 0.500000
vt 0.041016 0.500000
vt 0.041016 0.500000
vt 0.041016 0.500000
vt 0.041016 0.500000
vt 0.041016 0.500000
vt 0.041016 0.500000
vt 0.041016 0.500000
vt 0.005859 0.500000
vt 0.005859 0.500000
vt 0.005859 0.500000
vt 0.005859 0.500000
vt 0.005859 0.500000
vt 0.005859 0.500000
vt 0.068359 0.500000
vt 0.068359 0.500000
vt 0.068359 0.500000
vt 0.068359 0.500000
vt 0.068359 0.500000
vt 0.068359 0.500000
vt 0.068359 0.500000
vt 0.068359 0.500000
vt 0.005859 0.500000
vt 0.005859 0.500000
vt 0.005859 0.500000
vt 0.005859 0.500000
vt 0.279297 0.500000
vt 0.279297 0.500000
vt 0.279297 0.500000
vt 0.279297 0.500000
vt 0.068359 0.500000
vt 0.068359 0.500000
vt 0.068359 0.500000
vt 0.068359 0.500000
vt 0.068359 0.500000
vt 0.068359 0.500000
vt 0.068359 0.500000
vt 0.068359 0.500000
vt 0.048828 0.500000
vt 0.048828 0.500000
vt 0.048828 0.500000
vt 0.048828 0.500000
vt 0.021484 0.500000
vt 0.021484 0.500000
vt 0.021484 0.500000
vt 0.021484 0.500000
vt 0.068359 0.500000
vt 0.068359 0.500000
vt 0.068359 0.500000
vt 0.068359 0.500000
vt 0.068359 0.500000
vt 0.068359 0.500000
vt 0.068359 0.500000
vt 0.068359 0.500000
vt 0.048828 0.500000
vt 0.048828 0.500000
vt 0.048828 0.500000
vt 0.048828 0.500000
vt 0.048828 0.500000
vt 0.048828 0.500000
vt 0.048828 0.500000
vt 0.048828 0.500000
vt 0.048828 0.500000
vt 0.048828 0.500000
vt 0.048828 0.500000
vt 0.048828 0.500000
vt 0.048828 0.500000
vt 0.048828 0.500000
vt 0.048828 0.500000
vt 0.048828 0.500000
vt 0.048828 0.500000
vt 0.048828 0.500000
vt 0.048828 0.500000
vt 0.048828 0.500000
vt 0.048828 0.500000
vt 0.048828 0.500000
vt 0.279297 0.500000
vt 0.279297 0.500000
vt 0.279297 0.500000
vt 0.279297 0.500000
vt 0.001953 0.500000
vt 0.001953 0.500000
vt 0.001953 0.500000
vt 0.001953 0.500000
vt 0.001953 0.500000
vt 0.001953 0.500000
vt 0.001953 0.500000
vt 0.001953 0.500000
vt 0.001953 0.500000
vt 0.001953 0.500000
vt 0.017578 0.500000
vt 0.017578 0.500000
vt 0.017578 0.500000
vt 0.001953 0.500000
vt 0.001953 0.500000
vt 0.001953 0.500000
vt 0.017578 0.500000
vt 0.001953 0.500000
vt 0.001953 0.500000
vt 0.001953 0.500000
vt 0.017578 0.500000
vt 0.017578 0.500000
vt 0.017578 0.500000
vt 0.001953 0.500000
vt 0.001953 0.500000
vt 0.001953 0.500000
vt 0.017578 0.500000
vt 0.001953 0.500000
vt 0.017578 0.500000
vt 0.017578 0.500000
vt 0.017578 0.500000
vt 0.017578 0.500000
vt 0.017578 0.500000
vt 0.017578 0.500000
vt 0.017578 0.500000
vt 0.017578 0.500000
vt 0.017578 0.500000
vt 0.017578 0.500000
vt 0.017578 0.500000
vt 0.017578 0.500000
vt 0.017578 0.500000
vt 0.017578 0.500000
vt 0.017578 0.500000
vt 0.017578 0.500000
vt 0.017578 0.500000
vt 0.017578 0.500000
vt 0.017578 0.500000
vt 0.017578 0.500000
vt 0.005859 0.500000
vt 0.005859 0.500000
vt 0.005859 0.500000
vt 0.771484 0.500000
vt 0.771484 0.500000
vt 0.771484 0.500000
vt 0.005859 0.500000
vt 0.005859 0.500000
vt 0.005859 0.500000
vt 0.005859 0.500000
vt 0.771484 0.500000
vt 0.005859 0.500000
vt 0.041016 0.500000
vt 0.041016 0.500000
vt 0.041016 0.500000
vt 0.041016 0.500000
vt 0.041016 0.500000
vt 0.041016 0.500000
vt 0.041016 0.500000
vt 0.041016 0.500000
vt 0.068359 0.500000
vt 0.068359 0.500000
vt 0.068359 0.500000
vt 0.068359 0.500000
vt 0.068359 0.500000
vt 0.068359 0.500000
vt 0.068359 0.500000
vt 0.068359 0.500000
vt 0.005859 0.500000
vt 0.005859 0.500000
vt 0.005859 0.500000
vt 0.005859 0.500000
vt 0.021484 0.500000
vt 0.021484 0.500000
vt 0.021484 0.500000
vt 0.021484 0.500000
vt 0.005859 0.500000
vt 0.005859 0.500000
vt 0.005859 0.500000
vt 0.005859 0.500000
vt 0.005859 0.500000
vt 0.005859 0.500000
vt 0.005859 0.500000
vt 0.005859 0.500000
vt 0.005859 0.500000
vt 0.005859 0.500000
vt 0.005859 0.500000
vt 0.005859 0.500000
vt 0.048828 0.500000
vt 0.048828 0.500000
vt 0.048828 0.500000
vt 0.048828 0.500000
vt 0.048828 0.500000
vt 0.048828 0.500000
vt 0.048828 0.500000
vt 0.048828 0.500000
vt 0.048828 0.500000
vt 0.048828 0.500000
vt 0.048828 0.500000
vt 0.048828 0.500000
vt 0.048828 0.500000
vt 0.048828 0.500000
vt 0.048828 0.500000
vt 0.048828 0.500000
vt 0.048828 0.500000
vt 0.048828 0.500000
vt 0.048828 0.500000
vt 0.048828 0.500000
vt 0.068359 0.500000
vt 0.068359 0.500000
vt 0.068359 0.500000
vt 0.068359 0.500000
vt 0.068359 0.500000
vt 0.068359 0.500000
vt 0.068359 0.500000
vt 0.068359 0.500000
vt 0.048828 0.500000
vt 0.048828 0.500000
vt 0.048828 0.500000
vt 0.048828 0.500000
vt 0.279297 0.500000
vt 0.279297 0.500000
vt 0.279297 0.500000
vt 0.279297 0.500000
vt 0.279297 0.500000
vt 0.279297 0.500000
vt 0.279297 0.500000
vt 0.279297 0.500000
vt 0.279297 0.500000
vt 0.279297 0.500000
vt 0.279297 0.500000
vt 0.279297 0.500000
vn -1.0000 0.0000 0.0000
vn 1.0000 0.0000 0.0000
vn 0.0000 0.0000 1.0000
vn 0.0000 0.0000 -1.0000
vn 0.0000 -1.0000 -0.0000
vn 0.0000 1.0000 0.0000
usemtl palette.003
s 1
f 1/1/1 2/2/1 3/3/1
f 4/4/1 2/2/1 1/1/1
f 5/5/1 1/6/1 6/7/1
f 5/8/1 4/9/1 1/10/1
f 7/11/1 4/9/1 5/8/1
f 8/12/1 4/9/1 7/11/1
f 9/13/1 10/14/1 4/4/1
f 9/15/1 4/9/1 8/12/1
f 11/16/1 10/14/1 9/13/1
f 12/17/1 5/5/1 6/7/1
f 13/18/1 7/19/1 5/20/1
f 13/21/1 5/5/1 12/17/1
f 14/22/1 8/12/1 7/11/1
f 14/23/1 7/19/1 13/18/1
f 15/24/1 16/25/1 11/16/1
f 15/26/1 8/12/1 14/22/1
f 15/24/1 9/13/1 8/27/1
f 15/24/1 11/16/1 9/13/1
f 17/28/1 16/25/1 15/24/1
f 18/29/1 14/23/1 13/18/1
f 18/29/1 15/30/1 14/23/1
f 19/31/1 15/30/1 18/29/1
f 20/32/1 21/33/1 22/34/1
f 23/35/1 24/36/1 21/37/1
f 23/38/1 21/33/1 20/32/1
f 25/39/1 24/36/1 23/35/1
f 26/40/1 27/41/1 28/42/1
f 29/43/1 27/41/1 26/40/1
f 30/44/1 31/45/1 32/46/1
f 33/47/1 31/45/1 30/44/1
f 34/48/1 35/49/1 36/50/1
f 37/51/1 35/49/1 34/48/1
f 38/52/1 39/53/1 40/54/1
f 41/55/1 42/56/1 39/57/1
f 41/58/1 39/53/1 38/52/1
f 43/59/1 42/56/1 41/55/1
f 44/60/1 45/61/1 46/62/1
f 47/63/1 45/61/1 44/60/1
f 48/64/1 49/65/1 50/66/1
f 51/67/1 52/68/1 49/69/1
f 51/70/1 49/65/1 48/64/1
f 53/71/1 52/68/1 51/67/1
f 54/72/1 55/73/1 56/74/1
f 57/75/1 55/73/1 54/72/1
f 58/76/1 44/60/1 46/62/1
f 58/77/1 47/78/1 44/79/1
f 59/80/1 45/61/1 47/63/1
f 59/81/1 47/78/1 58/77/1
f 60/82/1 53/71/1 51/67/1
f 60/82/1 54/72/1 53/71/1
f 61/83/1 54/72/1 60/82/1
f 62/84/1 58/76/1 46/62/1
f 62/84/1 59/80/1 58/76/1
f 63/85/1 45/61/1 59/80/1
f 63/85/1 59/80/1 62/84/1
f 64/86/1 65/87/1 66/88/1
f 67/89/1 64/86/1 68/90/1
f 69/91/1 65/87/1 64/86/1
f 69/91/1 64/86/1 67/89/1
f 70/92/1 71/93/1 72/94/1
f 73/95/1 67/96/1 74/97/1
f 75/98/1 67/96/1 73/95/1
f 76/99/1 71/93/1 70/92/1
f 77/100/1 67/96/1 75/98/1
f 78/101/1 67/96/1 77/100/1
f 79/102/1 76/99/1 80/103/1
f 81/104/1 71/93/1 76/99/1
f 81/104/1 76/99/1 79/102/1
f 82/105/1 71/93/1 81/104/1
f 83/106/1 78/107/1 77/108/1
f 84/109/1 78/107/1 83/106/1
f 85/110/1 79/102/1 86/111/1
f 85/110/1 81/104/1 79/102/1
f 87/112/1 81/104/1 85/110/1
f 88/113/1 89/114/1 84/109/1
f 88/113/1 84/109/1 83/106/1
f 88/113/1 83/106/1 90/115/1
f 91/116/1 89/114/1 88/113/1
f 92/117/1 89/114/1 91/116/1
f 93/118/1 89/114/1 92/117/1
f 94/119/1 92/117/1 91/116/1
f 95/120/1 92/117/1 94/119/1
f 96/121/1 97/122/1 98/123/1
f 99/124/1 100/125/1 97/126/1
f 99/127/1 97/122/1 96/121/1
f 101/128/1 100/125/1 99/124/1
f 102/129/1 103/130/1 104/131/1
f 105/132/1 103/130/1 102/129/1
f 106/133/1 107/134/1 108/135/1
f 109/136/1 107/134/1 106/133/1
f 110/137/1 111/138/1 112/139/1
f 113/140/1 111/138/1 110/137/1
f 114/141/1 115/142/1 116/143/1
f 117/144/1 115/142/1 114/141/1
f 118/145/1 114/146/1 119/147/1
f 118/148/1 117/149/1 114/150/1
f 120/151/1 117/149/1 118/148/1
f 121/152/1 117/149/1 120/151/1
f 122/153/1 123/154/1 117/144/1
f 122/155/1 117/149/1 121/152/1
f 124/156/1 123/154/1 122/153/1
f 125/157/1 118/145/1 119/147/1
f 126/158/1 120/159/1 118/160/1
f 126/161/1 118/145/1 125/157/1
f 127/162/1 121/152/1 120/151/1
f 127/163/1 120/159/1 126/158/1
f 128/164/1 129/165/1 124/156/1
f 128/166/1 121/152/1 127/162/1
f 128/164/1 122/153/1 121/167/1
f 128/164/1 124/156/1 122/153/1
f 130/168/1 129/165/1 128/164/1
f 131/169/1 127/163/1 126/158/1
f 131/169/1 128/170/1 127/163/1
f 132/171/1 128/170/1 131/169/1
f 133/172/2 134/173/2 135/174/2
f 135/174/2 134/173/2 136/175/2
f 137/176/2 135/177/2 138/178/2
f 135/179/2 136/180/2 138/181/2
f 138/181/2 136/180/2 139/182/2
f 139/182/2 136/180/2 140/183/2
f 136/175/2 141/184/2 142/185/2
f 140/183/2 136/180/2 142/186/2
f 142/185/2 141/184/2 143/187/2
f 137/176/2 138/178/2 144/188/2
f 138/189/2 139/190/2 145/191/2
f 144/188/2 138/178/2 145/192/2
f 139/182/2 140/183/2 146/193/2
f 145/191/2 139/190/2 146/194/2
f 143/187/2 147/195/2 148/196/2
f 146/193/2 140/183/2 148/197/2
f 140/198/2 142/185/2 148/196/2
f 142/185/2 143/187/2 148/196/2
f 148/196/2 147/195/2 149/199/2
f 145/191/2 146/194/2 150/200/2
f 146/194/2 148/201/2 150/200/2
f 150/200/2 148/201/2 151/202/2
f 152/203/2 153/204/2 154/205/2
f 154/205/2 153/204/2 155/206/2
f 156/207/2 157/208/2 158/209/2
f 158/209/2 157/208/2 159/210/2
f 160/211/2 161/212/2 162/213/2
f 161/214/2 163/215/2 164/216/2
f 162/213/2 161/212/2 164/217/2
f 164/216/2 163/215/2 165/218/2
f 166/219/2 167/220/2 168/221/2
f 168/221/2 167/220/2 169/222/2
f 170/223/2 171/224/2 172/225/2
f 173/226/2 172/225/2 174/227/2
f 172/225/2 171/224/2 175/228/2
f 174/227/2 172/225/2 175/228/2
f 176/229/2 177/230/2 178/231/2
f 179/232/2 174/233/2 180/234/2
f 180/234/2 174/233/2 181/235/2
f 178/231/2 177/230/2 182/236/2
f 181/235/2 174/233/2 183/237/2
f 183/237/2 174/233/2 184/238/2
f 185/239/2 182/236/2 186/240/2
f 182/236/2 177/230/2 187/241/2
f 186/240/2 182/236/2 187/241/2
f 187/241/2 177/230/2 188/242/2
f 183/243/2 184/244/2 189/245/2
f 189/245/2 184/244/2 190/246/2
f 191/247/2 186/240/2 192/248/2
f 186/240/2 187/241/2 192/248/2
f 192/248/2 187/241/2 193/249/2
f 190/246/2 194/250/2 195/251/2
f 189/245/2 190/246/2 195/251/2
f 196/252/2 189/245/2 195/251/2
f 195/251/2 194/250/2 197/253/2
f 197/253/2 194/250/2 198/254/2
f 198/254/2 194/250/2 199/255/2
f 197/253/2 198/254/2 200/256/2
f 200/256/2 198/254/2 201/257/2
f 202/258/2 203/259/2 204/260/2
f 203/261/2 205/262/2 206/263/2
f 204/260/2 203/259/2 206/264/2
f 206/263/2 205/262/2 207/265/2
f 208/266/2 209/267/2 210/268/2
f 210/268/2 209/267/2 211/269/2
f 212/270/2 213/271/2 214/272/2
f 213/273/2 215/274/2 216/275/2
f 214/272/2 213/271/2 216/276/2
f 216/275/2 215/274/2 217/277/2
f 218/278/2 219/279/2 220/280/2
f 220/280/2 219/279/2 221/281/2
f 208/266/2 210/268/2 222/282/2
f 210/283/2 211/284/2 222/285/2
f 211/269/2 209/267/2 223/286/2
f 222/285/2 211/284/2 223/287/2
f 216/275/2 217/277/2 224/288/2
f 217/277/2 220/280/2 224/288/2
f 224/288/2 220/280/2 225/289/2
f 208/266/2 222/282/2 226/290/2
f 222/282/2 223/286/2 226/290/2
f 223/286/2 209/267/2 227/291/2
f 226/290/2 223/286/2 227/291/2
f 228/292/2 229/293/2 230/294/2
f 230/294/2 229/293/2 231/295/2
f 232/296/2 233/297/2 234/298/2
f 234/298/2 233/297/2 235/299/2
f 236/300/2 237/301/2 238/302/2
f 238/302/2 237/301/2 239/303/2
f 240/304/2 241/305/2 242/306/2
f 241/307/2 243/308/2 244/309/2
f 242/306/2 241/305/2 244/310/2
f 244/309/2 243/308/2 245/311/2
f 246/312/2 247/313/2 248/314/2
f 248/314/2 247/313/2 249/315/2
f 250/316/2 248/317/2 251/318/2
f 248/319/2 249/320/2 251/321/2
f 251/321/2 249/320/2 252/322/2
f 252/322/2 249/320/2 253/323/2
f 249/315/2 254/324/2 255/325/2
f 253/323/2 249/320/2 255/326/2
f 255/325/2 254/324/2 256/327/2
f 250/316/2 251/318/2 257/328/2
f 251/329/2 252/330/2 258/331/2
f 257/328/2 251/318/2 258/332/2
f 252/322/2 253/323/2 259/333/2
f 258/331/2 252/330/2 259/334/2
f 256/327/2 260/335/2 261/336/2
f 259/333/2 253/323/2 261/337/2
f 253/338/2 255/325/2 261/336/2
f 255/325/2 256/327/2 261/336/2
f 261/336/2 260/335/2 262/339/2
f 258/331/2 259/334/2 263/340/2
f 259/334/2 261/341/2 263/340/2
f 263/340/2 261/341/2 264/342/2
f 265/343/3 266/344/3 267/345/3
f 268/346/3 266/344/3 265/343/3
f 269/347/3 270/348/3 271/349/3
f 272/350/3 270/348/3 269/347/3
f 273/351/3 274/352/3 275/353/3
f 276/354/3 277/355/3 274/356/3
f 276/357/3 274/352/3 273/351/3
f 278/358/3 277/355/3 276/354/3
f 279/359/3 280/360/3 281/361/3
f 282/362/3 280/360/3 279/359/3
f 283/363/3 280/360/3 282/362/3
f 284/364/3 279/365/3 285/366/3
f 286/367/3 279/365/3 284/364/3
f 287/368/3 288/369/3 289/370/3
f 290/371/3 288/369/3 287/368/3
f 291/372/3 292/373/3 293/374/3
f 291/372/3 293/374/3 286/375/3
f 294/376/3 292/373/3 291/372/3
f 295/377/3 296/378/3 297/379/3
f 298/380/3 296/378/3 295/377/3
f 299/381/3 300/382/3 301/383/3
f 302/384/3 300/382/3 299/381/3
f 303/385/3 299/386/3 304/387/3
f 303/388/3 300/382/3 302/384/3
f 303/385/3 302/389/3 299/386/3
f 305/390/3 300/382/3 303/388/3
f 306/391/3 303/385/3 304/387/3
f 306/391/3 305/392/3 303/385/3
f 307/393/3 305/392/3 306/391/3
f 308/394/3 306/391/3 304/387/3
f 309/395/3 306/391/3 308/394/3
f 310/396/3 307/397/3 306/398/3
f 310/399/3 306/391/3 309/395/3
f 311/400/3 310/396/3 309/401/3
f 312/402/3 307/397/3 310/396/3
f 312/402/3 310/396/3 311/400/3
f 313/403/3 314/404/3 315/405/3
f 316/406/3 314/404/3 313/403/3
f 317/407/3 318/408/3 319/409/3
f 320/410/3 318/408/3 317/407/3
f 321/411/3 318/408/3 320/410/3
f 322/412/3 318/408/3 321/411/3
f 323/413/3 324/414/3 325/415/3
f 326/416/3 324/414/3 323/413/3
f 327/417/3 328/418/3 329/419/3
f 330/420/3 328/418/3 327/417/3
f 331/421/3 332/422/3 333/423/3
f 334/424/3 332/422/3 331/421/3
f 335/425/3 336/426/3 337/427/3
f 338/428/3 336/426/3 335/425/3
f 339/429/3 340/430/3 341/431/3
f 342/432/3 340/430/3 339/429/3
f 343/433/3 344/434/3 345/435/3
f 346/436/3 344/434/3 343/433/3
f 347/437/3 348/438/3 349/439/3
f 350/440/3 348/438/3 347/437/3
f 351/441/3 352/442/3 353/443/3
f 354/444/3 352/442/3 351/441/3
f 355/445/3 356/446/3 357/447/3
f 358/448/3 356/446/3 355/445/3
f 359/449/3 360/450/3 361/451/3
f 362/452/3 360/450/3 359/449/3
f 363/453/3 364/454/3 365/455/3
f 366/456/3 364/454/3 363/453/3
f 367/457/3 368/458/3 369/459/3
f 370/460/3 368/458/3 367/457/3
f 371/461/3 372/462/3 373/463/3
f 374/464/3 372/462/3 371/461/3
f 375/465/3 376/466/3 377/467/3
f 378/468/3 375/465/3 377/467/3
f 378/468/3 379/469/3 375/465/3
f 380/470/3 379/469/3 378/468/3
f 381/471/3 378/468/3 377/467/3
f 382/472/3 378/468/3 381/471/3
f 383/473/3 384/474/3 385/475/3
f 386/476/3 383/473/3 385/475/3
f 386/476/3 387/477/3 383/473/3
f 388/478/3 387/477/3 386/476/3
f 389/479/3 386/476/3 385/475/3
f 390/480/3 386/476/3 389/479/3
f 391/481/3 392/482/3 393/483/3
f 394/484/3 392/482/3 391/481/3
f 395/485/4 396/486/4 397/487/4
f 397/487/4 396/486/4 398/488/4
f 399/489/4 400/490/4 401/491/4
f 401/491/4 400/490/4 402/492/4
f 403/493/4 404/494/4 405/495/4
f 405/495/4 404/494/4 406/496/4
f 407/497/4 408/498/4 409/499/4
f 409/499/4 408/498/4 410/500/4
f 411/501/4 412/502/4 413/503/4
f 413/503/4 412/502/4 414/504/4
f 415/505/4 416/506/4 417/507/4
f 417/507/4 416/506/4 418/508/4
f 419/509/4 420/510/4 421/511/4
f 421/511/4 420/510/4 422/512/4
f 423/513/4 424/514/4 425/515/4
f 425/515/4 424/514/4 426/516/4
f 427/517/4 428/518/4 429/519/4
f 429/519/4 428/518/4 430/520/4
f 431/521/4 432/522/4 433/523/4
f 431/521/4 433/523/4 434/524/4
f 433/523/4 435/525/4 434/524/4
f 434/524/4 435/525/4 436/526/4
f 431/521/4 434/524/4 437/527/4
f 437/527/4 434/524/4 438/528/4
f 439/529/4 440/530/4 441/531/4
f 439/529/4 441/531/4 442/532/4
f 441/531/4 443/533/4 442/532/4
f 442/532/4 443/533/4 444/534/4
f 439/529/4 442/532/4 445/535/4
f 445/535/4 442/532/4 446/536/4
f 447/537/4 448/538/4 449/539/4
f 449/539/4 448/538/4 450/540/4
f 451/541/4 452/542/4 453/543/4
f 453/543/4 452/542/4 454/544/4
f 455/545/4 456/546/4 457/547/4
f 457/547/4 456/546/4 458/548/4
f 459/549/4 460/550/4 461/551/4
f 461/551/4 460/550/4 462/552/4
f 463/553/4 461/554/4 464/555/4
f 461/554/4 462/556/4 464/555/4
f 464/555/4 462/556/4 465/557/4
f 465/557/4 462/556/4 466/558/4
f 465/559/4 466/560/4 467/561/4
f 467/561/4 466/560/4 468/562/4
f 469/563/4 470/564/4 471/565/4
f 469/563/4 471/565/4 472/566/4
f 471/565/4 473/567/4 472/566/4
f 472/566/4 473/567/4 474/568/4
f 469/563/4 472/566/4 475/569/4
f 475/569/4 472/566/4 476/570/4
f 477/571/4 478/572/4 479/573/4
f 479/573/4 478/572/4 480/574/4
f 481/575/4 482/576/4 483/577/4
f 483/577/4 482/576/4 484/578/4
f 485/579/4 486/580/4 487/581/4
f 487/581/4 486/580/4 488/582/4
f 489/583/4 490/584/4 491/585/4
f 491/585/4 490/584/4 492/586/4
f 493/587/4 494/588/4 495/589/4
f 495/589/4 494/588/4 496/590/4
f 497/591/4 498/592/4 499/593/4
f 499/593/4 498/592/4 500/594/4
f 501/595/5 502/596/5 503/597/5
f 504/598/5 502/596/5 501/595/5
f 505/599/5 506/600/5 507/601/5
f 508/602/5 506/600/5 505/599/5
f 509/603/5 501/595/5 510/604/5
f 511/605/5 504/606/5 501/607/5
f 511/608/5 501/595/5 509/603/5
f 512/609/5 513/610/5 504/598/5
f 512/611/5 504/606/5 511/605/5
f 514/612/5 513/610/5 512/609/5
f 515/613/5 505/599/5 516/614/5
f 517/615/5 508/616/5 505/617/5
f 517/618/5 505/599/5 515/613/5
f 518/619/5 519/620/5 508/602/5
f 518/621/5 508/616/5 517/615/5
f 520/622/5 519/620/5 518/619/5
f 521/623/5 511/605/5 509/624/5
f 521/623/5 514/625/5 512/611/5
f 521/623/5 512/611/5 511/605/5
f 522/626/5 514/625/5 521/623/5
f 523/627/5 517/615/5 515/628/5
f 523/627/5 520/629/5 518/621/5
f 523/627/5 518/621/5 517/615/5
f 524/630/5 520/629/5 523/627/5
f 525/631/5 526/632/5 527/633/5
f 528/634/5 526/632/5 525/631/5
f 529/635/5 526/632/5 528/634/5
f 530/636/5 526/632/5 529/635/5
f 531/637/5 528/638/5 525/639/5
f 531/640/5 529/635/5 528/634/5
f 532/641/5 530/642/5 529/643/5
f 532/644/5 529/635/5 531/640/5
f 533/645/5 534/646/5 535/647/5
f 536/648/5 534/646/5 533/645/5
f 537/649/5 538/650/5 539/651/5
f 540/652/5 538/650/5 537/649/5
f 541/653/5 531/637/5 525/639/5
f 541/653/5 532/641/5 531/637/5
f 542/654/5 530/642/5 532/641/5
f 542/654/5 532/641/5 541/653/5
f 543/655/5 544/656/5 545/657/5
f 546/658/5 544/656/5 543/655/5
f 547/659/5 548/660/5 549/661/5
f 550/662/5 548/660/5 547/659/5
f 551/663/5 552/664/5 553/665/5
f 554/666/5 552/664/5 551/663/5
f 555/667/5 556/668/5 557/669/5
f 558/670/5 559/671/5 560/672/5
f 561/673/5 562/674/5 563/675/5
f 564/676/5 562/674/5 561/673/5
f 565/677/5 566/678/5 567/679/5
f 568/680/5 566/678/5 565/677/5
f 569/681/5 555/667/5 557/669/5
f 570/682/5 555/667/5 569/681/5
f 571/683/5 559/671/5 558/670/5
f 572/684/5 559/671/5 571/683/5
f 573/685/5 574/686/5 575/687/5
f 576/688/5 574/686/5 573/685/5
f 577/689/5 578/690/5 579/691/5
f 580/692/5 578/690/5 577/689/5
f 581/693/5 582/694/5 583/695/5
f 584/696/5 582/694/5 581/693/5
f 585/697/5 586/698/5 587/699/5
f 588/700/5 586/698/5 585/697/5
f 589/701/5 590/702/5 591/703/5
f 592/704/5 590/702/5 589/701/5
f 593/705/5 589/706/5 594/707/5
f 595/708/5 596/709/5 592/710/5
f 597/711/5 593/705/5 594/707/5
f 597/711/5 595/708/5 593/705/5
f 598/712/5 596/709/5 595/708/5
f 598/712/5 595/708/5 597/711/5
f 599/713/5 600/714/5 601/715/5
f 602/716/5 600/714/5 599/713/5
f 603/717/5 604/718/5 605/719/5
f 606/720/5 604/718/5 603/717/5
f 607/721/5 604/718/5 606/720/5
f 608/722/5 604/718/5 607/721/5
f 609/723/5 610/724/5 611/725/5
f 612/726/5 610/724/5 609/723/5
f 613/727/5 614/728/5 615/729/5
f 616/730/5 614/728/5 613/727/5
f 617/731/5 618/732/5 619/733/5
f 620/734/5 618/732/5 617/731/5
f 621/735/5 622/736/5 623/737/5
f 624/738/5 622/736/5 621/735/5
f 625/739/6 626/740/6 627/741/6
f 627/741/6 626/740/6 628/742/6
f 629/743/6 630/744/6 631/745/6
f 631/745/6 630/744/6 632/746/6
f 633/747/6 627/741/6 634/748/6
f 627/749/6 628/750/6 635/751/6
f 634/748/6 627/741/6 635/752/6
f 628/742/6 636/753/6 637/754/6
f 635/751/6 628/750/6 637/755/6
f 637/754/6 636/753/6 638/756/6
f 639/757/6 631/745/6 640/758/6
f 631/759/6 632/760/6 641/761/6
f 640/758/6 631/745/6 641/762/6
f 632/746/6 642/763/6 643/764/6
f 641/761/6 632/760/6 643/765/6
f 643/764/6 642/763/6 644/766/6
f 634/767/6 635/751/6 645/768/6
f 645/768/6 635/751/6 646/769/6
f 637/755/6 638/770/6 647/771/6
f 647/771/6 638/770/6 648/772/6
f 640/773/6 641/761/6 649/774/6
f 649/774/6 641/761/6 650/775/6
f 643/765/6 644/776/6 651/777/6
f 651/777/6 644/776/6 652/778/6
f 653/779/6 654/780/6 655/781/6
f 655/781/6 654/780/6 656/782/6
f 657/783/6 658/784/6 659/785/6
f 659/785/6 658/784/6 660/786/6
f 661/787/6 662/788/6 663/789/6
f 662/790/6 664/791/6 665/792/6
f 663/789/6 662/788/6 665/793/6
f 664/794/6 666/795/6 667/796/6
f 665/792/6 664/791/6 667/797/6
f 667/796/6 666/795/6 668/798/6
f 669/799/6 670/800/6 671/801/6
f 671/801/6 670/800/6 672/802/6
f 673/803/6 674/804/6 675/805/6
f 675/805/6 674/804/6 676/806/6
f 677/807/6 678/808/6 679/809/6
f 679/809/6 678/808/6 680/810/6
f 681/811/6 682/812/6 683/813/6
f 683/813/6 682/812/6 684/814/6
f 661/787/6 663/789/6 685/815/6
f 685/815/6 663/789/6 686/816/6
f 668/798/6 666/795/6 687/817/6
f 687/817/6 666/795/6 688/818/6
f 689/819/6 690/820/6 691/821/6
f 691/821/6 690/820/6 692/822/6
f 693/823/6 694/824/6 695/825/6
f 695/825/6 694/824/6 696/826/6
f 697/827/6 698/828/6 699/829/6
f 699/829/6 698/828/6 700/830/6
f 701/831/6 702/832/6 703/833/6
f 703/833/6 702/832/6 704/834/6
f 705/835/6 706/836/6 707/837/6
f 707/837/6 706/836/6 708/838/6
f 709/839/6 710/840/6 711/841/6
f 711/841/6 710/840/6 712/842/6
f 713/843/6 714/844/6 715/845/6
f 715/845/6 714/844/6 716/846/6
f 717/847/6 718/848/6 719/849/6
f 719/849/6 718/848/6 720/850/6
f 721/851/6 722/852/6 723/853/6
f 723/853/6 722/852/6 724/854/6
f 725/855/6 726/856/6 727/857/6
f 728/858/6 729/859/6 730/860/6
f 725/855/6 727/857/6 731/861/6
f 727/857/6 730/860/6 731/861/6
f 730/860/6 729/859/6 732/862/6
f 731/861/6 730/860/6 732/862/6
f 733/863/6 734/864/6 735/865/6
f 735/865/6 734/864/6 736/866/6
f 737/867/6 738/868/6 739/869/6
f 739/869/6 738/868/6 740/870/6
f 741/871/6 742/872/6 743/873/6
f 743/873/6 742/872/6 744/874/6
f 745/875/6 746/876/6 747/877/6
f 747/877/6 746/876/6 748/878/6
