# Blender v2.93.0 OBJ File: ''
# www.blender.org
mtllib TVS_VoxelFarm_Goat.mtl
o VS_Farm_Goat
v -0.585608 0.100000 0.100000
v -0.585608 0.000000 0.000000
v -0.585608 0.000000 0.100000
v -0.585608 0.100000 0.000000
v -0.585608 0.000000 -0.100000
v -0.585608 0.100000 -0.700000
v -0.585608 0.000000 -0.800000
v -0.585608 -0.000000 -0.700000
v -0.585608 0.100000 -0.800000
v -0.585608 0.000000 -0.900000
v -0.585608 0.400000 0.100000
v -0.585608 0.400000 -0.100000
v -0.585608 0.400000 -0.700000
v -0.585608 0.400000 -0.900000
v -0.585608 0.900000 0.200000
v -0.585608 0.500000 -0.000000
v -0.585608 0.500000 0.200000
v -0.585608 0.900000 0.000000
v -0.585608 0.900000 -0.600000
v -0.585608 0.500000 -0.800000
v -0.585608 0.500000 -0.600000
v -0.585608 0.900000 -0.800000
v -0.485608 0.900000 0.000000
v -0.485608 0.500000 -0.100000
v -0.485608 0.500000 -0.000000
v -0.485608 0.900000 -0.100000
v -0.485609 0.900000 -0.800000
v -0.485609 0.500000 -0.900000
v -0.485609 0.500000 -0.800000
v -0.485609 0.900000 -0.900000
v -0.485608 1.000000 0.200000
v -0.485608 0.900000 0.200000
v -0.485608 1.000000 0.000000
v -0.485609 1.000000 -0.600000
v -0.485609 0.900000 -0.600000
v -0.485609 1.000000 -0.800000
v -0.485608 1.300000 0.500000
v -0.485608 1.200000 0.400000
v -0.485608 1.200000 0.500000
v -0.485608 1.300000 0.400000
v -0.485608 1.400000 0.400000
v -0.485608 1.500000 0.500000
v -0.485608 1.400000 0.300000
v -0.485608 1.500000 0.300000
v -0.385608 1.200000 0.500000
v -0.385608 1.100000 0.400000
v -0.385608 1.100000 0.500000
v -0.385608 1.200000 0.400000
v -0.385608 1.300000 0.500000
v -0.385608 1.200000 0.600000
v -0.385608 1.400000 0.600000
v -0.385608 1.400000 0.500000
v -0.285608 0.600000 -0.900000
v -0.285608 0.500000 -0.900000
v -0.285608 0.500000 0.200000
v -0.285608 0.900000 -0.900000
v -0.285608 0.600000 -1.000000
v -0.285608 0.900000 -1.000000
v -0.285608 1.000000 0.200000
v -0.285608 1.000000 -0.900000
v -0.285608 1.100000 0.700000
v -0.285608 0.800000 0.600000
v -0.285608 0.800000 0.700000
v -0.285608 1.100000 0.600000
v -0.285608 0.800000 0.400000
v -0.285608 1.100000 0.500000
v -0.285608 1.100000 0.400000
v -0.285608 1.200000 0.600000
v -0.285608 1.200000 0.500000
v -0.185608 0.500000 0.200000
v -0.185608 0.400000 -0.900000
v -0.185608 0.400000 0.200000
v -0.185608 0.500000 -0.900000
v -0.185608 0.600000 -0.900000
v -0.185608 0.500000 -1.000000
v -0.185608 0.600000 -1.000000
v -0.185608 0.900000 0.900000
v -0.185608 0.800000 0.700000
v -0.185608 0.800000 0.900000
v -0.185608 0.900000 0.800000
v -0.185608 1.000000 0.800000
v -0.185608 1.000000 0.700000
v -0.185608 1.000000 0.300000
v -0.185608 0.500000 0.300000
v -0.185608 1.000000 0.200000
v -0.185608 1.000000 -0.900000
v -0.185608 0.900000 -1.000000
v -0.185608 0.900000 -0.900000
v -0.185608 1.000000 -1.000000
v -0.185608 1.100000 0.800000
v -0.185608 1.100000 0.700000
v -0.185608 1.100000 0.200000
v -0.185608 1.100000 -0.900000
v -0.185608 1.200000 0.700000
v -0.185608 1.100000 0.600000
v -0.185608 1.200000 0.600000
v -0.085608 0.800000 0.900000
v -0.085608 0.700000 0.600000
v -0.085608 0.700000 0.900000
v -0.085608 0.800000 0.600000
v -0.085608 0.700000 0.400000
v -0.085608 0.800000 0.400000
v -0.085608 0.900000 1.000000
v -0.085608 0.800000 1.000000
v -0.085608 0.900000 0.900000
v -0.085608 1.000000 1.000000
v -0.085608 1.000000 0.900000
v -0.085608 0.900000 0.800000
v -0.085608 1.000000 0.800000
v -0.085608 1.100000 0.900000
v -0.085608 1.100000 0.800000
v 0.114392 1.300000 0.600000
v 0.114392 1.200000 0.500000
v 0.114392 1.200000 0.600000
v 0.114392 1.300000 0.500000
v 0.114392 1.200000 0.400000
v 0.114392 1.300000 0.400000
v 0.314392 1.400000 0.600000
v 0.314392 1.300000 0.500000
v 0.314392 1.300000 0.600000
v 0.314392 1.400000 0.500000
v 0.414392 0.100000 0.100000
v 0.414392 0.000000 0.000000
v 0.414392 -0.000000 0.100000
v 0.414392 0.100000 0.000000
v 0.414392 0.000000 -0.100000
v 0.414392 0.100000 -0.700000
v 0.414392 0.000000 -0.800000
v 0.414392 0.000000 -0.700000
v 0.414392 0.100000 -0.800000
v 0.414392 0.000000 -0.900000
v 0.414392 0.400000 0.100000
v 0.414392 0.400000 -0.100000
v 0.414392 0.400000 -0.700000
v 0.414392 0.400000 -0.900000
v 0.414392 0.900000 -0.000000
v 0.414392 0.500000 -0.100000
v 0.414392 0.500000 0.200000
v 0.414392 0.900000 -0.100000
v 0.414392 0.900000 -0.800000
v 0.414392 0.500000 -0.900000
v 0.414392 0.500000 -0.600000
v 0.414392 0.900000 -0.900000
v 0.414392 1.000000 0.200000
v 0.414392 1.000000 -0.000000
v 0.414392 1.000000 -0.600000
v 0.414392 1.000000 -0.800000
v 0.414392 1.400000 0.500000
v 0.414392 1.300000 0.400000
v 0.414392 1.300000 0.500000
v 0.414392 1.400000 0.400000
v 0.414392 1.500000 0.500000
v 0.414392 1.400000 0.300000
v 0.414392 1.500000 0.300000
v -0.385608 0.000000 0.100000
v -0.385608 0.000000 0.000000
v -0.385608 0.100000 0.100000
v -0.385608 0.000000 -0.100000
v -0.385608 0.100000 0.000000
v -0.385608 -0.000000 -0.700000
v -0.385608 0.000000 -0.800000
v -0.385608 0.100000 -0.700000
v -0.385608 0.000000 -0.900000
v -0.385608 0.100000 -0.800000
v -0.385608 0.400000 0.100000
v -0.385608 0.400000 -0.100000
v -0.385608 0.400000 -0.700000
v -0.385608 0.400000 -0.900000
v -0.385608 0.500000 0.200000
v -0.385608 0.500000 -0.100000
v -0.385608 0.900000 0.000000
v -0.385608 0.900000 -0.100000
v -0.385608 0.500000 -0.600000
v -0.385608 0.500000 -0.900000
v -0.385608 0.900000 -0.800000
v -0.385608 0.900000 -0.900000
v -0.385608 1.000000 0.200000
v -0.385608 1.000000 0.000000
v -0.385608 1.000000 -0.600000
v -0.385608 1.000000 -0.800000
v -0.385608 1.300000 0.500000
v -0.385608 1.300000 0.400000
v -0.385608 1.400000 0.500000
v -0.385608 1.400000 0.400000
v -0.385608 1.500000 0.500000
v -0.385608 1.400000 0.300000
v -0.385608 1.500000 0.300000
v -0.285608 1.300000 0.600000
v -0.285608 1.300000 0.500000
v -0.285608 1.400000 0.600000
v -0.285608 1.400000 0.500000
v -0.085608 1.200000 0.600000
v -0.085608 1.200000 0.500000
v -0.085608 1.300000 0.600000
v -0.085608 1.200000 0.400000
v -0.085608 1.300000 0.500000
v -0.085608 1.300000 0.400000
v 0.114392 0.700000 0.900000
v 0.114392 0.700000 0.600000
v 0.114392 0.800000 0.900000
v 0.114392 0.700000 0.400000
v 0.114392 0.800000 0.600000
v 0.114392 0.800000 0.400000
v 0.114392 0.800000 1.000000
v 0.114392 0.900000 1.000000
v 0.114392 0.900000 0.900000
v 0.114392 1.000000 1.000000
v 0.114392 0.900000 0.800000
v 0.114392 1.000000 0.900000
v 0.114392 1.000000 0.800000
v 0.114392 1.100000 0.900000
v 0.114392 1.100000 0.800000
v 0.214392 0.400000 0.200000
v 0.214392 0.400000 -0.900000
v 0.214392 0.500000 0.200000
v 0.214392 0.500000 -0.900000
v 0.214392 0.500000 -1.000000
v 0.214392 0.600000 -0.900000
v 0.214392 0.600000 -1.000000
v 0.214392 0.800000 0.900000
v 0.214392 0.800000 0.700000
v 0.214392 0.900000 0.900000
v 0.214392 0.900000 0.800000
v 0.214392 1.000000 0.800000
v 0.214392 1.000000 0.700000
v 0.214392 0.500000 0.300000
v 0.214392 1.000000 0.300000
v 0.214392 1.000000 0.200000
v 0.214392 0.900000 -0.900000
v 0.214392 0.900000 -1.000000
v 0.214392 1.000000 -0.900000
v 0.214392 1.000000 -1.000000
v 0.214392 1.100000 0.800000
v 0.214392 1.100000 0.700000
v 0.214392 1.100000 0.200000
v 0.214392 1.100000 -0.900000
v 0.214392 1.100000 0.600000
v 0.214392 1.200000 0.700000
v 0.214392 1.200000 0.600000
v 0.314392 0.500000 0.200000
v 0.314392 0.500000 -0.900000
v 0.314392 0.600000 -0.900000
v 0.314392 0.900000 -0.900000
v 0.314392 0.600000 -1.000000
v 0.314392 0.900000 -1.000000
v 0.314392 1.000000 0.200000
v 0.314392 1.000000 -0.900000
v 0.314392 0.800000 0.700000
v 0.314392 0.800000 0.600000
v 0.314392 1.100000 0.700000
v 0.314392 0.800000 0.400000
v 0.314392 1.100000 0.600000
v 0.314392 1.100000 0.500000
v 0.314392 1.100000 0.400000
v 0.314392 1.200000 0.600000
v 0.314392 1.200000 0.500000
v 0.414392 1.100000 0.500000
v 0.414392 1.100000 0.400000
v 0.414392 1.200000 0.500000
v 0.414392 1.200000 0.400000
v 0.414392 1.200000 0.600000
v 0.414392 1.300000 0.500000
v 0.414392 1.400000 0.600000
v 0.414392 1.400000 0.500000
v 0.514392 0.500000 -0.000000
v 0.514392 0.500000 -0.100000
v 0.514392 0.900000 -0.000000
v 0.514392 0.900000 -0.100000
v 0.514392 0.500000 -0.800000
v 0.514392 0.500000 -0.900000
v 0.514392 0.900000 -0.800000
v 0.514392 0.900000 -0.900000
v 0.514392 0.900000 0.200000
v 0.514392 1.000000 0.200000
v 0.514392 1.000000 -0.000000
v 0.514392 0.900000 -0.600000
v 0.514392 1.000000 -0.600000
v 0.514392 1.000000 -0.800000
v 0.514392 1.200000 0.500000
v 0.514392 1.200000 0.400000
v 0.514392 1.300000 0.500000
v 0.514392 1.300000 0.400000
v 0.514392 1.400000 0.400000
v 0.514392 1.500000 0.500000
v 0.514392 1.400000 0.300000
v 0.514392 1.500000 0.300000
v 0.614392 -0.000000 0.100000
v 0.614392 0.000000 0.000000
v 0.614392 0.100000 0.100000
v 0.614392 0.000000 -0.100000
v 0.614392 0.100000 0.000000
v 0.614392 0.000000 -0.700000
v 0.614392 0.000000 -0.800000
v 0.614392 0.100000 -0.700000
v 0.614392 0.000000 -0.900000
v 0.614392 0.100000 -0.800000
v 0.614392 0.400000 0.100000
v 0.614392 0.400000 -0.100000
v 0.614392 0.400000 -0.700000
v 0.614392 0.400000 -0.900000
v 0.614392 0.500000 0.200000
v 0.614392 0.500000 -0.000000
v 0.614392 0.900000 0.200000
v 0.614392 0.900000 -0.000000
v 0.614392 0.500000 -0.600000
v 0.614392 0.500000 -0.800000
v 0.614392 0.900000 -0.600000
v 0.614392 0.900000 -0.800000
v 0.114392 0.800000 1.000000
v -0.085608 0.900000 1.000000
v -0.085608 0.800000 1.000000
v 0.114392 0.900000 1.000000
v -0.085608 1.000000 1.000000
v 0.114392 1.000000 1.000000
v -0.085608 0.800000 0.900000
v -0.185608 0.900000 0.900000
v -0.185608 0.800000 0.900000
v -0.085608 0.900000 0.900000
v 0.114392 0.700000 0.900000
v -0.085608 0.700000 0.900000
v 0.114392 0.800000 0.900000
v 0.114392 1.000000 0.900000
v -0.085608 1.100000 0.900000
v -0.085608 1.000000 0.900000
v 0.114392 1.100000 0.900000
v 0.214392 0.800000 0.900000
v 0.114392 0.900000 0.900000
v 0.214392 0.900000 0.900000
v -0.085608 0.900000 0.800000
v -0.185608 1.000000 0.800000
v -0.185608 0.900000 0.800000
v -0.085608 1.000000 0.800000
v -0.185608 1.100000 0.800000
v -0.085608 1.100000 0.800000
v 0.214392 0.900000 0.800000
v 0.114392 1.000000 0.800000
v 0.114392 0.900000 0.800000
v 0.214392 1.000000 0.800000
v 0.114392 1.100000 0.800000
v 0.214392 1.100000 0.800000
v -0.185608 0.800000 0.700000
v -0.285608 1.100000 0.700000
v -0.285608 0.800000 0.700000
v -0.185608 1.000000 0.700000
v -0.185608 1.100000 0.700000
v -0.085608 1.100000 0.700000
v -0.185608 1.200000 0.700000
v 0.114392 1.100000 0.700000
v 0.214392 1.100000 0.700000
v 0.214392 1.200000 0.700000
v 0.314392 0.800000 0.700000
v 0.214392 1.000000 0.700000
v 0.214392 0.800000 0.700000
v 0.314392 1.100000 0.700000
v -0.285608 1.200000 0.600000
v -0.385608 1.400000 0.600000
v -0.385608 1.200000 0.600000
v -0.285608 1.300000 0.600000
v -0.285608 1.400000 0.600000
v -0.185608 1.100000 0.600000
v -0.285608 1.100000 0.600000
v -0.185608 1.200000 0.600000
v -0.085608 1.200000 0.600000
v -0.085608 1.300000 0.600000
v 0.214392 1.200000 0.600000
v 0.114392 1.300000 0.600000
v 0.114392 1.200000 0.600000
v 0.314392 1.100000 0.600000
v 0.214392 1.100000 0.600000
v 0.314392 1.200000 0.600000
v 0.314392 1.300000 0.600000
v 0.414392 1.200000 0.600000
v 0.314392 1.400000 0.600000
v 0.414392 1.400000 0.600000
v -0.385608 1.200000 0.500000
v -0.485608 1.300000 0.500000
v -0.485608 1.200000 0.500000
v -0.385608 1.300000 0.500000
v -0.485608 1.500000 0.500000
v -0.385608 1.400000 0.500000
v -0.385608 1.500000 0.500000
v -0.285608 1.100000 0.500000
v -0.385608 1.100000 0.500000
v -0.285608 1.200000 0.500000
v 0.414392 1.100000 0.500000
v 0.314392 1.200000 0.500000
v 0.314392 1.100000 0.500000
v 0.414392 1.200000 0.500000
v 0.514392 1.200000 0.500000
v 0.414392 1.300000 0.500000
v 0.514392 1.300000 0.500000
v 0.414392 1.500000 0.500000
v 0.414392 1.400000 0.500000
v 0.514392 1.500000 0.500000
v 0.214392 0.500000 0.300000
v -0.185608 1.000000 0.300000
v -0.185608 0.500000 0.300000
v 0.214392 1.000000 0.300000
v -0.485608 0.900000 0.200000
v -0.585608 0.900000 0.200000
v -0.585608 0.500000 0.200000
v -0.385608 0.500000 0.200000
v -0.485608 1.000000 0.200000
v -0.385608 1.000000 0.200000
v -0.185608 0.500000 0.200000
v -0.285608 1.000000 0.200000
v -0.285608 0.500000 0.200000
v -0.185608 1.000000 0.200000
v 0.214392 0.400000 0.200000
v -0.185608 0.400000 0.200000
v 0.214392 0.500000 0.200000
v 0.214392 1.000000 0.200000
v -0.185608 1.100000 0.200000
v 0.214392 1.100000 0.200000
v 0.314392 0.500000 0.200000
v 0.314392 1.000000 0.200000
v 0.514392 0.900000 0.200000
v 0.414392 1.000000 0.200000
v 0.414392 0.500000 0.200000
v 0.514392 1.000000 0.200000
v 0.614392 0.500000 0.200000
v 0.614392 0.900000 0.200000
v -0.385608 0.000000 0.100000
v -0.585608 0.100000 0.100000
v -0.585608 0.000000 0.100000
v -0.385608 0.100000 0.100000
v -0.585608 0.400000 0.100000
v -0.385608 0.400000 0.100000
v 0.614392 -0.000000 0.100000
v 0.414392 0.100000 0.100000
v 0.414392 -0.000000 0.100000
v 0.614392 0.100000 0.100000
v 0.414392 0.400000 0.100000
v 0.614392 0.400000 0.100000
v -0.485609 0.900000 -0.600000
v -0.585608 0.900000 -0.600000
v -0.585608 0.500000 -0.600000
v -0.385608 0.500000 -0.600000
v -0.485609 1.000000 -0.600000
v -0.385608 1.000000 -0.600000
v 0.514392 0.900000 -0.600000
v 0.414392 1.000000 -0.600000
v 0.414392 0.500000 -0.600000
v 0.514392 1.000000 -0.600000
v 0.614392 0.500000 -0.600000
v 0.614392 0.900000 -0.600000
v -0.385608 -0.000000 -0.700000
v -0.585608 0.100000 -0.700000
v -0.585608 -0.000000 -0.700000
v -0.385608 0.100000 -0.700000
v -0.585608 0.400000 -0.700000
v -0.385608 0.400000 -0.700000
v 0.614392 0.000000 -0.700000
v 0.414392 0.100000 -0.700000
v 0.414392 0.000000 -0.700000
v 0.614392 0.100000 -0.700000
v 0.414392 0.400000 -0.700000
v 0.614392 0.400000 -0.700000
v -0.385608 1.300000 0.500000
v -0.385608 1.400000 0.500000
v -0.285608 1.300000 0.500000
v -0.285608 1.400000 0.500000
v 0.314392 1.300000 0.500000
v 0.314392 1.400000 0.500000
v 0.414392 1.300000 0.500000
v 0.414392 1.400000 0.500000
v -0.485608 1.200000 0.400000
v -0.485608 1.300000 0.400000
v -0.385608 1.200000 0.400000
v -0.485608 1.400000 0.400000
v -0.385608 1.300000 0.400000
v -0.385608 1.400000 0.400000
v -0.385608 1.100000 0.400000
v -0.285608 1.100000 0.400000
v -0.185608 1.100000 0.400000
v -0.285608 0.800000 0.400000
v -0.185608 1.200000 0.400000
v -0.085608 0.800000 0.400000
v -0.085608 1.200000 0.400000
v -0.085608 1.300000 0.400000
v -0.085608 0.700000 0.400000
v 0.114392 0.700000 0.400000
v 0.114392 0.800000 0.400000
v 0.114392 1.200000 0.400000
v 0.214392 1.100000 0.400000
v 0.114392 1.300000 0.400000
v 0.214392 1.200000 0.400000
v 0.314392 0.800000 0.400000
v 0.314392 1.100000 0.400000
v 0.414392 1.100000 0.400000
v 0.414392 1.200000 0.400000
v 0.414392 1.300000 0.400000
v 0.514392 1.200000 0.400000
v 0.414392 1.400000 0.400000
v 0.514392 1.300000 0.400000
v 0.514392 1.400000 0.400000
v -0.485608 1.400000 0.300000
v -0.485608 1.500000 0.300000
v -0.385608 1.400000 0.300000
v -0.385608 1.500000 0.300000
v 0.414392 1.400000 0.300000
v 0.414392 1.500000 0.300000
v 0.514392 1.400000 0.300000
v 0.514392 1.500000 0.300000
v -0.585608 0.500000 -0.000000
v -0.585608 0.900000 0.000000
v -0.485608 0.500000 -0.000000
v -0.485608 0.900000 0.000000
v -0.485608 1.000000 0.000000
v -0.385608 0.900000 0.000000
v -0.385608 1.000000 0.000000
v 0.414392 0.900000 -0.000000
v 0.414392 1.000000 -0.000000
v 0.514392 0.900000 -0.000000
v 0.514392 1.000000 -0.000000
v 0.514392 0.500000 -0.000000
v 0.614392 0.500000 -0.000000
v 0.614392 0.900000 -0.000000
v -0.585608 0.000000 -0.100000
v -0.585608 0.400000 -0.100000
v -0.385608 0.000000 -0.100000
v -0.385608 0.400000 -0.100000
v -0.485608 0.500000 -0.100000
v -0.485608 0.900000 -0.100000
v -0.385608 0.500000 -0.100000
v -0.385608 0.900000 -0.100000
v 0.414392 0.500000 -0.100000
v 0.414392 0.900000 -0.100000
v 0.514392 0.500000 -0.100000
v 0.514392 0.900000 -0.100000
v 0.414392 0.000000 -0.100000
v 0.414392 0.400000 -0.100000
v 0.614392 0.000000 -0.100000
v 0.614392 0.400000 -0.100000
v -0.585608 0.500000 -0.800000
v -0.585608 0.900000 -0.800000
v -0.485609 0.500000 -0.800000
v -0.485609 0.900000 -0.800000
v -0.485609 1.000000 -0.800000
v -0.385608 0.900000 -0.800000
v -0.385608 1.000000 -0.800000
v 0.414392 0.900000 -0.800000
v 0.414392 1.000000 -0.800000
v 0.514392 0.900000 -0.800000
v 0.514392 1.000000 -0.800000
v 0.514392 0.500000 -0.800000
v 0.614392 0.500000 -0.800000
v 0.614392 0.900000 -0.800000
v -0.585608 0.000000 -0.900000
v -0.585608 0.400000 -0.900000
v -0.385608 0.000000 -0.900000
v -0.385608 0.400000 -0.900000
v -0.485609 0.500000 -0.900000
v -0.485609 0.900000 -0.900000
v -0.385608 0.500000 -0.900000
v -0.385608 0.900000 -0.900000
v -0.285608 0.500000 -0.900000
v -0.285608 0.600000 -0.900000
v -0.185608 0.500000 -0.900000
v -0.185608 0.600000 -0.900000
v -0.285608 0.900000 -0.900000
v -0.285608 1.000000 -0.900000
v -0.185608 0.900000 -0.900000
v -0.185608 1.000000 -0.900000
v -0.185608 0.400000 -0.900000
v 0.214392 0.400000 -0.900000
v 0.214392 0.500000 -0.900000
v -0.185608 1.100000 -0.900000
v 0.214392 1.000000 -0.900000
v 0.214392 1.100000 -0.900000
v 0.214392 0.600000 -0.900000
v 0.314392 0.500000 -0.900000
v 0.314392 0.600000 -0.900000
v 0.214392 0.900000 -0.900000
v 0.314392 0.900000 -0.900000
v 0.314392 1.000000 -0.900000
v 0.414392 0.500000 -0.900000
v 0.414392 0.900000 -0.900000
v 0.514392 0.500000 -0.900000
v 0.514392 0.900000 -0.900000
v 0.414392 0.000000 -0.900000
v 0.414392 0.400000 -0.900000
v 0.614392 0.000000 -0.900000
v 0.614392 0.400000 -0.900000
v -0.285608 0.600000 -1.000000
v -0.285608 0.900000 -1.000000
v -0.185608 0.600000 -1.000000
v -0.185608 0.900000 -1.000000
v -0.185608 0.500000 -1.000000
v 0.214392 0.500000 -1.000000
v -0.185608 1.000000 -1.000000
v 0.214392 0.600000 -1.000000
v 0.214392 0.900000 -1.000000
v 0.214392 1.000000 -1.000000
v 0.314392 0.600000 -1.000000
v 0.314392 0.900000 -1.000000
v -0.585608 0.000000 0.000000
v -0.385608 0.000000 0.100000
v -0.585608 0.000000 0.100000
v -0.385608 0.000000 0.000000
v 0.414392 0.000000 0.000000
v 0.614392 -0.000000 0.100000
v 0.414392 -0.000000 0.100000
v 0.614392 0.000000 0.000000
v -0.585608 0.000000 -0.100000
v -0.385608 0.000000 -0.100000
v 0.414392 0.000000 -0.100000
v 0.614392 0.000000 -0.100000
v -0.585608 0.000000 -0.800000
v -0.385608 -0.000000 -0.700000
v -0.585608 -0.000000 -0.700000
v -0.385608 0.000000 -0.800000
v 0.414392 0.000000 -0.800000
v 0.614392 0.000000 -0.700000
v 0.414392 0.000000 -0.700000
v 0.614392 0.000000 -0.800000
v -0.585608 0.000000 -0.900000
v -0.385608 0.000000 -0.900000
v 0.414392 0.000000 -0.900000
v 0.614392 0.000000 -0.900000
v -0.185608 0.400000 -0.900000
v 0.214392 0.400000 0.200000
v -0.185608 0.400000 0.200000
v 0.214392 0.400000 -0.900000
v -0.185608 0.500000 0.200000
v 0.214392 0.500000 0.300000
v -0.185608 0.500000 0.300000
v 0.214392 0.500000 0.200000
v -0.585608 0.500000 -0.000000
v -0.385608 0.500000 0.200000
v -0.585608 0.500000 0.200000
v -0.485608 0.500000 -0.000000
v 0.514392 0.500000 -0.000000
v 0.614392 0.500000 0.200000
v 0.414392 0.500000 0.200000
v 0.614392 0.500000 -0.000000
v -0.485608 0.500000 -0.100000
v -0.385608 0.500000 -0.100000
v 0.414392 0.500000 -0.100000
v 0.514392 0.500000 -0.100000
v -0.585608 0.500000 -0.800000
v -0.385608 0.500000 -0.600000
v -0.585608 0.500000 -0.600000
v -0.485609 0.500000 -0.800000
v 0.514392 0.500000 -0.800000
v 0.614392 0.500000 -0.600000
v 0.414392 0.500000 -0.600000
v 0.614392 0.500000 -0.800000
v -0.485609 0.500000 -0.900000
v -0.385608 0.500000 -0.900000
v -0.285608 0.500000 -0.900000
v -0.285608 0.500000 0.200000
v -0.185608 0.500000 -0.900000
v 0.214392 0.500000 -0.900000
v 0.314392 0.500000 0.200000
v 0.314392 0.500000 -0.900000
v 0.414392 0.500000 -0.900000
v 0.514392 0.500000 -0.900000
v -0.185608 0.500000 -1.000000
v 0.214392 0.500000 -1.000000
v -0.285608 0.600000 -1.000000
v -0.185608 0.600000 -0.900000
v -0.285608 0.600000 -0.900000
v -0.185608 0.600000 -1.000000
v 0.214392 0.600000 -1.000000
v 0.314392 0.600000 -0.900000
v 0.214392 0.600000 -0.900000
v 0.314392 0.600000 -1.000000
v -0.085608 0.700000 0.600000
v 0.114392 0.700000 0.900000
v -0.085608 0.700000 0.900000
v 0.114392 0.700000 0.600000
v -0.085608 0.700000 0.400000
v 0.114392 0.700000 0.400000
v -0.085608 0.800000 0.900000
v 0.114392 0.800000 1.000000
v -0.085608 0.800000 1.000000
v 0.114392 0.800000 0.900000
v -0.185608 0.800000 0.700000
v -0.185608 0.800000 0.900000
v 0.214392 0.800000 0.700000
v 0.214392 0.800000 0.900000
v -0.285608 0.800000 0.600000
v -0.285608 0.800000 0.700000
v -0.085608 0.800000 0.600000
v 0.114392 0.800000 0.600000
v 0.314392 0.800000 0.700000
v 0.314392 0.800000 0.600000
v -0.285608 0.800000 0.400000
v -0.085608 0.800000 0.400000
v 0.114392 0.800000 0.400000
v 0.314392 0.800000 0.400000
v -0.385608 1.100000 0.400000
v -0.285608 1.100000 0.500000
v -0.385608 1.100000 0.500000
v -0.285608 1.100000 0.400000
v 0.314392 1.100000 0.400000
v 0.414392 1.100000 0.500000
v 0.314392 1.100000 0.500000
v 0.414392 1.100000 0.400000
v -0.385608 1.200000 0.500000
v -0.285608 1.200000 0.600000
v -0.385608 1.200000 0.600000
v -0.285608 1.200000 0.500000
v 0.314392 1.200000 0.500000
v 0.414392 1.200000 0.600000
v 0.314392 1.200000 0.600000
v 0.414392 1.200000 0.500000
v -0.485608 1.200000 0.400000
v -0.485608 1.200000 0.500000
v -0.385608 1.200000 0.400000
v 0.414392 1.200000 0.400000
v 0.514392 1.200000 0.500000
v 0.514392 1.200000 0.400000
v -0.485608 1.400000 0.300000
v -0.385608 1.400000 0.400000
v -0.485608 1.400000 0.400000
v -0.385608 1.400000 0.300000
v 0.414392 1.400000 0.300000
v 0.514392 1.400000 0.400000
v 0.414392 1.400000 0.400000
v 0.514392 1.400000 0.300000
v -0.585608 0.400000 0.100000
v -0.385608 0.400000 0.100000
v -0.585608 0.400000 -0.100000
v -0.385608 0.400000 -0.100000
v 0.414392 0.400000 0.100000
v 0.614392 0.400000 0.100000
v 0.414392 0.400000 -0.100000
v 0.614392 0.400000 -0.100000
v -0.585608 0.400000 -0.700000
v -0.385608 0.400000 -0.700000
v -0.585608 0.400000 -0.900000
v -0.385608 0.400000 -0.900000
v 0.414392 0.400000 -0.700000
v 0.614392 0.400000 -0.700000
v 0.414392 0.400000 -0.900000
v 0.614392 0.400000 -0.900000
v -0.185608 0.900000 0.900000
v -0.085608 0.900000 0.900000
v -0.185608 0.900000 0.800000
v -0.085608 0.900000 0.800000
v 0.114392 0.900000 0.900000
v 0.214392 0.900000 0.900000
v 0.114392 0.900000 0.800000
v 0.214392 0.900000 0.800000
v -0.585608 0.900000 0.200000
v -0.485608 0.900000 0.200000
v -0.585608 0.900000 0.000000
v -0.485608 0.900000 0.000000
v 0.514392 0.900000 0.200000
v 0.614392 0.900000 0.200000
v 0.514392 0.900000 -0.000000
v 0.614392 0.900000 -0.000000
v -0.385608 0.900000 0.000000
v -0.485608 0.900000 -0.100000
v -0.385608 0.900000 -0.100000
v 0.414392 0.900000 -0.000000
v 0.414392 0.900000 -0.100000
v 0.514392 0.900000 -0.100000
v -0.585608 0.900000 -0.600000
v -0.485609 0.900000 -0.600000
v -0.585608 0.900000 -0.800000
v -0.485609 0.900000 -0.800000
v 0.514392 0.900000 -0.600000
v 0.614392 0.900000 -0.600000
v 0.514392 0.900000 -0.800000
v 0.614392 0.900000 -0.800000
v -0.385608 0.900000 -0.800000
v -0.485609 0.900000 -0.900000
v -0.385608 0.900000 -0.900000
v 0.414392 0.900000 -0.800000
v 0.414392 0.900000 -0.900000
v 0.514392 0.900000 -0.900000
v -0.285608 0.900000 -0.900000
v -0.185608 0.900000 -0.900000
v -0.285608 0.900000 -1.000000
v -0.185608 0.900000 -1.000000
v 0.214392 0.900000 -0.900000
v 0.314392 0.900000 -0.900000
v 0.214392 0.900000 -1.000000
v 0.314392 0.900000 -1.000000
v -0.085608 1.000000 1.000000
v 0.114392 1.000000 1.000000
v -0.085608 1.000000 0.900000
v 0.114392 1.000000 0.900000
v -0.185608 1.000000 0.300000
v 0.214392 1.000000 0.300000
v -0.185608 1.000000 0.200000
v 0.214392 1.000000 0.200000
v -0.485608 1.000000 0.200000
v -0.385608 1.000000 0.200000
v -0.485608 1.000000 0.000000
v -0.385608 1.000000 0.000000
v 0.414392 1.000000 0.200000
v 0.514392 1.000000 0.200000
v 0.414392 1.000000 -0.000000
v 0.514392 1.000000 -0.000000
v -0.485609 1.000000 -0.600000
v -0.385608 1.000000 -0.600000
v -0.485609 1.000000 -0.800000
v -0.385608 1.000000 -0.800000
v 0.414392 1.000000 -0.600000
v 0.514392 1.000000 -0.600000
v 0.414392 1.000000 -0.800000
v 0.514392 1.000000 -0.800000
v -0.285608 1.000000 0.200000
v -0.285608 1.000000 -0.900000
v -0.185608 1.000000 -0.900000
v 0.314392 1.000000 0.200000
v 0.214392 1.000000 -0.900000
v 0.314392 1.000000 -0.900000
v -0.185608 1.000000 -1.000000
v 0.214392 1.000000 -1.000000
v -0.085608 1.100000 0.900000
v 0.114392 1.100000 0.900000
v -0.085608 1.100000 0.800000
v 0.114392 1.100000 0.800000
v -0.185608 1.100000 0.800000
v -0.185608 1.100000 0.700000
v -0.085608 1.100000 0.700000
v 0.214392 1.100000 0.800000
v 0.114392 1.100000 0.700000
v 0.214392 1.100000 0.700000
v -0.285608 1.100000 0.700000
v -0.285608 1.100000 0.600000
v -0.185608 1.100000 0.600000
v 0.314392 1.100000 0.700000
v 0.214392 1.100000 0.600000
v 0.314392 1.100000 0.600000
v -0.185608 1.100000 0.200000
v 0.214392 1.100000 0.200000
v -0.185608 1.100000 -0.900000
v 0.214392 1.100000 -0.900000
v -0.185608 1.200000 0.700000
v 0.214392 1.200000 0.700000
v -0.185608 1.200000 0.600000
v -0.085608 1.200000 0.600000
v 0.114392 1.200000 0.600000
v 0.214392 1.200000 0.600000
v -0.085608 1.200000 0.500000
v 0.114392 1.200000 0.500000
v -0.085608 1.200000 0.400000
v 0.114392 1.200000 0.400000
v -0.285608 1.300000 0.600000
v -0.085608 1.300000 0.600000
v -0.285608 1.300000 0.500000
v -0.085608 1.300000 0.500000
v 0.114392 1.300000 0.600000
v 0.314392 1.300000 0.600000
v 0.114392 1.300000 0.500000
v 0.314392 1.300000 0.500000
v -0.385608 1.300000 0.400000
v -0.385608 1.300000 0.500000
v -0.085608 1.300000 0.400000
v 0.414392 1.300000 0.500000
v 0.114392 1.300000 0.400000
v 0.414392 1.300000 0.400000
v -0.385608 1.400000 0.600000
v -0.285608 1.400000 0.600000
v -0.385608 1.400000 0.500000
v -0.285608 1.400000 0.500000
v 0.314392 1.400000 0.600000
v 0.414392 1.400000 0.600000
v 0.314392 1.400000 0.500000
v 0.414392 1.400000 0.500000
v -0.485608 1.500000 0.500000
v -0.385608 1.500000 0.500000
v -0.485608 1.500000 0.300000
v -0.385608 1.500000 0.300000
v 0.414392 1.500000 0.500000
v 0.514392 1.500000 0.500000
v 0.414392 1.500000 0.300000
v 0.514392 1.500000 0.300000
vt 0.009766 0.500000
vt 0.009766 0.500000
vt 0.009766 0.500000
vt 0.001953 0.500000
vt 0.001953 0.500000
vt 0.001953 0.500000
vt 0.009766 0.500000
vt 0.009766 0.500000
vt 0.009766 0.500000
vt 0.009766 0.500000
vt 0.001953 0.500000
vt 0.001953 0.500000
vt 0.001953 0.500000
vt 0.009766 0.500000
vt 0.001953 0.500000
vt 0.001953 0.500000
vt 0.001953 0.500000
vt 0.001953 0.500000
vt 0.001953 0.500000
vt 0.001953 0.500000
vt 0.025391 0.500000
vt 0.025391 0.500000
vt 0.025391 0.500000
vt 0.025391 0.500000
vt 0.025391 0.500000
vt 0.025391 0.500000
vt 0.025391 0.500000
vt 0.025391 0.500000
vt 0.025391 0.500000
vt 0.025391 0.500000
vt 0.025391 0.500000
vt 0.025391 0.500000
vt 0.025391 0.500000
vt 0.025391 0.500000
vt 0.025391 0.500000
vt 0.025391 0.500000
vt 0.025391 0.500000
vt 0.025391 0.500000
vt 0.025391 0.500000
vt 0.025391 0.500000
vt 0.025391 0.500000
vt 0.025391 0.500000
vt 0.001953 0.500000
vt 0.001953 0.500000
vt 0.001953 0.500000
vt 0.001953 0.500000
vt 0.060547 0.500000
vt 0.060547 0.500000
vt 0.060547 0.500000
vt 0.060547 0.500000
vt 0.060547 0.500000
vt 0.060547 0.500000
vt 0.001953 0.500000
vt 0.001953 0.500000
vt 0.001953 0.500000
vt 0.001953 0.500000
vt 0.060547 0.500000
vt 0.060547 0.500000
vt 0.060547 0.500000
vt 0.060547 0.500000
vt 0.060547 0.500000
vt 0.025391 0.500000
vt 0.025391 0.500000
vt 0.025391 0.500000
vt 0.025391 0.500000
vt 0.025391 0.500000
vt 0.025391 0.500000
vt 0.025391 0.500000
vt 0.025391 0.500000
vt 0.001953 0.500000
vt 0.001953 0.500000
vt 0.001953 0.500000
vt 0.025391 0.500000
vt 0.025391 0.500000
vt 0.025391 0.500000
vt 0.001953 0.500000
vt 0.025391 0.500000
vt 0.025391 0.500000
vt 0.060547 0.500000
vt 0.060547 0.500000
vt 0.060547 0.500000
vt 0.060547 0.500000
vt 0.025391 0.500000
vt 0.025391 0.500000
vt 0.025391 0.500000
vt 0.025391 0.500000
vt 0.025391 0.500000
vt 0.025391 0.500000
vt 0.025391 0.500000
vt 0.001953 0.500000
vt 0.001953 0.500000
vt 0.001953 0.500000
vt 0.001953 0.500000
vt 0.001953 0.500000
vt 0.001953 0.500000
vt 0.025391 0.500000
vt 0.025391 0.500000
vt 0.025391 0.500000
vt 0.025391 0.500000
vt 0.025391 0.500000
vt 0.025391 0.500000
vt 0.025391 0.500000
vt 0.009766 0.500000
vt 0.009766 0.500000
vt 0.009766 0.500000
vt 0.009766 0.500000
vt 0.025391 0.500000
vt 0.025391 0.500000
vt 0.001953 0.500000
vt 0.001953 0.500000
vt 0.001953 0.500000
vt 0.001953 0.500000
vt 0.001953 0.500000
vt 0.001953 0.500000
vt 0.001953 0.500000
vt 0.025391 0.500000
vt 0.025391 0.500000
vt 0.025391 0.500000
vt 0.001953 0.500000
vt 0.025391 0.500000
vt 0.001953 0.500000
vt 0.001953 0.500000
vt 0.001953 0.500000
vt 0.009766 0.500000
vt 0.009766 0.500000
vt 0.009766 0.500000
vt 0.001953 0.500000
vt 0.001953 0.500000
vt 0.009766 0.500000
vt 0.001953 0.500000
vt 0.001953 0.500000
vt 0.001953 0.500000
vt 0.060547 0.500000
vt 0.060547 0.500000
vt 0.060547 0.500000
vt 0.001953 0.500000
vt 0.001953 0.500000
vt 0.001953 0.500000
vt 0.060547 0.500000
vt 0.001953 0.500000
vt 0.060547 0.500000
vt 0.060547 0.500000
vt 0.060547 0.500000
vt 0.060547 0.500000
vt 0.009766 0.500000
vt 0.009766 0.500000
vt 0.009766 0.500000
vt 0.001953 0.500000
vt 0.001953 0.500000
vt 0.001953 0.500000
vt 0.009766 0.500000
vt 0.009766 0.500000
vt 0.009766 0.500000
vt 0.009766 0.500000
vt 0.001953 0.500000
vt 0.001953 0.500000
vt 0.001953 0.500000
vt 0.009766 0.500000
vt 0.001953 0.500000
vt 0.001953 0.500000
vt 0.001953 0.500000
vt 0.001953 0.500000
vt 0.001953 0.500000
vt 0.001953 0.500000
vt 0.025391 0.500000
vt 0.025391 0.500000
vt 0.025391 0.500000
vt 0.025391 0.500000
vt 0.025391 0.500000
vt 0.025391 0.500000
vt 0.025391 0.500000
vt 0.025391 0.500000
vt 0.025391 0.500000
vt 0.025391 0.500000
vt 0.025391 0.500000
vt 0.025391 0.500000
vt 0.060547 0.500000
vt 0.060547 0.500000
vt 0.060547 0.500000
vt 0.060547 0.500000
vt 0.060547 0.500000
vt 0.060547 0.500000
vt 0.060547 0.500000
vt 0.009766 0.500000
vt 0.009766 0.500000
vt 0.009766 0.500000
vt 0.001953 0.500000
vt 0.001953 0.500000
vt 0.001953 0.500000
vt 0.009766 0.500000
vt 0.009766 0.500000
vt 0.009766 0.500000
vt 0.009766 0.500000
vt 0.001953 0.500000
vt 0.001953 0.500000
vt 0.001953 0.500000
vt 0.009766 0.500000
vt 0.001953 0.500000
vt 0.001953 0.500000
vt 0.001953 0.500000
vt 0.001953 0.500000
vt 0.001953 0.500000
vt 0.001953 0.500000
vt 0.025391 0.500000
vt 0.025391 0.500000
vt 0.025391 0.500000
vt 0.025391 0.500000
vt 0.025391 0.500000
vt 0.025391 0.500000
vt 0.025391 0.500000
vt 0.025391 0.500000
vt 0.025391 0.500000
vt 0.025391 0.500000
vt 0.025391 0.500000
vt 0.025391 0.500000
vt 0.060547 0.500000
vt 0.060547 0.500000
vt 0.060547 0.500000
vt 0.060547 0.500000
vt 0.060547 0.500000
vt 0.060547 0.500000
vt 0.060547 0.500000
vt 0.060547 0.500000
vt 0.060547 0.500000
vt 0.060547 0.500000
vt 0.060547 0.500000
vt 0.060547 0.500000
vt 0.060547 0.500000
vt 0.060547 0.500000
vt 0.001953 0.500000
vt 0.001953 0.500000
vt 0.001953 0.500000
vt 0.060547 0.500000
vt 0.001953 0.500000
vt 0.001953 0.500000
vt 0.001953 0.500000
vt 0.001953 0.500000
vt 0.025391 0.500000
vt 0.025391 0.500000
vt 0.025391 0.500000
vt 0.001953 0.500000
vt 0.025391 0.500000
vt 0.001953 0.500000
vt 0.001953 0.500000
vt 0.001953 0.500000
vt 0.009766 0.500000
vt 0.009766 0.500000
vt 0.009766 0.500000
vt 0.001953 0.500000
vt 0.001953 0.500000
vt 0.009766 0.500000
vt 0.001953 0.500000
vt 0.001953 0.500000
vt 0.001953 0.500000
vt 0.025391 0.500000
vt 0.025391 0.500000
vt 0.025391 0.500000
vt 0.025391 0.500000
vt 0.025391 0.500000
vt 0.025391 0.500000
vt 0.025391 0.500000
vt 0.001953 0.500000
vt 0.001953 0.500000
vt 0.001953 0.500000
vt 0.001953 0.500000
vt 0.001953 0.500000
vt 0.001953 0.500000
vt 0.025391 0.500000
vt 0.025391 0.500000
vt 0.025391 0.500000
vt 0.025391 0.500000
vt 0.025391 0.500000
vt 0.025391 0.500000
vt 0.025391 0.500000
vt 0.009766 0.500000
vt 0.009766 0.500000
vt 0.009766 0.500000
vt 0.009766 0.500000
vt 0.025391 0.500000
vt 0.025391 0.500000
vt 0.001953 0.500000
vt 0.001953 0.500000
vt 0.001953 0.500000
vt 0.001953 0.500000
vt 0.025391 0.500000
vt 0.025391 0.500000
vt 0.025391 0.500000
vt 0.025391 0.500000
vt 0.025391 0.500000
vt 0.025391 0.500000
vt 0.025391 0.500000
vt 0.025391 0.500000
vt 0.001953 0.500000
vt 0.001953 0.500000
vt 0.001953 0.500000
vt 0.025391 0.500000
vt 0.025391 0.500000
vt 0.025391 0.500000
vt 0.001953 0.500000
vt 0.025391 0.500000
vt 0.025391 0.500000
vt 0.060547 0.500000
vt 0.060547 0.500000
vt 0.060547 0.500000
vt 0.060547 0.500000
vt 0.001953 0.500000
vt 0.001953 0.500000
vt 0.001953 0.500000
vt 0.001953 0.500000
vt 0.060547 0.500000
vt 0.060547 0.500000
vt 0.060547 0.500000
vt 0.060547 0.500000
vt 0.060547 0.500000
vt 0.025391 0.500000
vt 0.025391 0.500000
vt 0.025391 0.500000
vt 0.025391 0.500000
vt 0.025391 0.500000
vt 0.025391 0.500000
vt 0.025391 0.500000
vt 0.025391 0.500000
vt 0.025391 0.500000
vt 0.025391 0.500000
vt 0.025391 0.500000
vt 0.025391 0.500000
vt 0.025391 0.500000
vt 0.025391 0.500000
vt 0.001953 0.500000
vt 0.001953 0.500000
vt 0.001953 0.500000
vt 0.001953 0.500000
vt 0.060547 0.500000
vt 0.060547 0.500000
vt 0.060547 0.500000
vt 0.060547 0.500000
vt 0.060547 0.500000
vt 0.060547 0.500000
vt 0.009766 0.500000
vt 0.009766 0.500000
vt 0.009766 0.500000
vt 0.001953 0.500000
vt 0.001953 0.500000
vt 0.001953 0.500000
vt 0.009766 0.500000
vt 0.009766 0.500000
vt 0.009766 0.500000
vt 0.009766 0.500000
vt 0.001953 0.500000
vt 0.001953 0.500000
vt 0.001953 0.500000
vt 0.009766 0.500000
vt 0.001953 0.500000
vt 0.001953 0.500000
vt 0.001953 0.500000
vt 0.001953 0.500000
vt 0.001953 0.500000
vt 0.001953 0.500000
vt 0.025391 0.500000
vt 0.025391 0.500000
vt 0.025391 0.500000
vt 0.025391 0.500000
vt 0.025391 0.500000
vt 0.025391 0.500000
vt 0.025391 0.500000
vt 0.025391 0.500000
vt 0.001953 0.500000
vt 0.001953 0.500000
vt 0.001953 0.500000
vt 0.009766 0.500000
vt 0.009766 0.500000
vt 0.009766 0.500000
vt 0.001953 0.500000
vt 0.009766 0.500000
vt 0.001953 0.500000
vt 0.001953 0.500000
vt 0.001953 0.500000
vt 0.001953 0.500000
vt 0.001953 0.500000
vt 0.001953 0.500000
vt 0.001953 0.500000
vt 0.001953 0.500000
vt 0.001953 0.500000
vt 0.001953 0.500000
vt 0.001953 0.500000
vt 0.001953 0.500000
vt 0.001953 0.500000
vt 0.001953 0.500000
vt 0.001953 0.500000
vt 0.001953 0.500000
vt 0.001953 0.500000
vt 0.009766 0.500000
vt 0.009766 0.500000
vt 0.009766 0.500000
vt 0.001953 0.500000
vt 0.009766 0.500000
vt 0.001953 0.500000
vt 0.001953 0.500000
vt 0.001953 0.500000
vt 0.009766 0.500000
vt 0.009766 0.500000
vt 0.009766 0.500000
vt 0.001953 0.500000
vt 0.009766 0.500000
vt 0.001953 0.500000
vt 0.001953 0.500000
vt 0.001953 0.500000
vt 0.001953 0.500000
vt 0.001953 0.500000
vt 0.001953 0.500000
vt 0.001953 0.500000
vt 0.001953 0.500000
vt 0.001953 0.500000
vt 0.001953 0.500000
vt 0.001953 0.500000
vt 0.001953 0.500000
vt 0.001953 0.500000
vt 0.001953 0.500000
vt 0.060547 0.500000
vt 0.060547 0.500000
vt 0.060547 0.500000
vt 0.060547 0.500000
vt 0.060547 0.500000
vt 0.060547 0.500000
vt 0.060547 0.500000
vt 0.060547 0.500000
vt 0.060547 0.500000
vt 0.060547 0.500000
vt 0.060547 0.500000
vt 0.060547 0.500000
vt 0.060547 0.500000
vt 0.060547 0.500000
vt 0.060547 0.500000
vt 0.060547 0.500000
vt 0.060547 0.500000
vt 0.060547 0.500000
vt 0.060547 0.500000
vt 0.060547 0.500000
vt 0.001953 0.500000
vt 0.001953 0.500000
vt 0.001953 0.500000
vt 0.060547 0.500000
vt 0.060547 0.500000
vt 0.060547 0.500000
vt 0.001953 0.500000
vt 0.060547 0.500000
vt 0.060547 0.500000
vt 0.001953 0.500000
vt 0.001953 0.500000
vt 0.001953 0.500000
vt 0.001953 0.500000
vt 0.001953 0.500000
vt 0.001953 0.500000
vt 0.001953 0.500000
vt 0.001953 0.500000
vt 0.001953 0.500000
vt 0.060547 0.500000
vt 0.060547 0.500000
vt 0.060547 0.500000
vt 0.001953 0.500000
vt 0.060547 0.500000
vt 0.060547 0.500000
vt 0.025391 0.500000
vt 0.025391 0.500000
vt 0.025391 0.500000
vt 0.025391 0.500000
vt 0.025391 0.500000
vt 0.025391 0.500000
vt 0.025391 0.500000
vt 0.025391 0.500000
vt 0.025391 0.500000
vt 0.025391 0.500000
vt 0.025391 0.500000
vt 0.025391 0.500000
vt 0.025391 0.500000
vt 0.025391 0.500000
vt 0.025391 0.500000
vt 0.025391 0.500000
vt 0.025391 0.500000
vt 0.025391 0.500000
vt 0.025391 0.500000
vt 0.025391 0.500000
vt 0.025391 0.500000
vt 0.025391 0.500000
vt 0.025391 0.500000
vt 0.025391 0.500000
vt 0.025391 0.500000
vt 0.025391 0.500000
vt 0.025391 0.500000
vt 0.025391 0.500000
vt 0.009766 0.500000
vt 0.009766 0.500000
vt 0.009766 0.500000
vt 0.001953 0.500000
vt 0.001953 0.500000
vt 0.001953 0.500000
vt 0.009766 0.500000
vt 0.001953 0.500000
vt 0.009766 0.500000
vt 0.009766 0.500000
vt 0.009766 0.500000
vt 0.001953 0.500000
vt 0.001953 0.500000
vt 0.001953 0.500000
vt 0.009766 0.500000
vt 0.001953 0.500000
vt 0.025391 0.500000
vt 0.025391 0.500000
vt 0.025391 0.500000
vt 0.025391 0.500000
vt 0.025391 0.500000
vt 0.025391 0.500000
vt 0.025391 0.500000
vt 0.025391 0.500000
vt 0.025391 0.500000
vt 0.025391 0.500000
vt 0.025391 0.500000
vt 0.025391 0.500000
vt 0.009766 0.500000
vt 0.009766 0.500000
vt 0.009766 0.500000
vt 0.001953 0.500000
vt 0.001953 0.500000
vt 0.001953 0.500000
vt 0.009766 0.500000
vt 0.001953 0.500000
vt 0.009766 0.500000
vt 0.009766 0.500000
vt 0.009766 0.500000
vt 0.001953 0.500000
vt 0.001953 0.500000
vt 0.001953 0.500000
vt 0.009766 0.500000
vt 0.001953 0.500000
vt 0.060547 0.500000
vt 0.060547 0.500000
vt 0.060547 0.500000
vt 0.060547 0.500000
vt 0.060547 0.500000
vt 0.060547 0.500000
vt 0.060547 0.500000
vt 0.060547 0.500000
vt 0.001953 0.500000
vt 0.001953 0.500000
vt 0.001953 0.500000
vt 0.060547 0.500000
vt 0.060547 0.500000
vt 0.060547 0.500000
vt 0.001953 0.500000
vt 0.060547 0.500000
vt 0.001953 0.500000
vt 0.001953 0.500000
vt 0.001953 0.500000
vt 0.025391 0.500000
vt 0.025391 0.500000
vt 0.025391 0.500000
vt 0.001953 0.500000
vt 0.025391 0.500000
vt 0.025391 0.500000
vt 0.001953 0.500000
vt 0.025391 0.500000
vt 0.001953 0.500000
vt 0.025391 0.500000
vt 0.025391 0.500000
vt 0.025391 0.500000
vt 0.025391 0.500000
vt 0.025391 0.500000
vt 0.001953 0.500000
vt 0.001953 0.500000
vt 0.001953 0.500000
vt 0.025391 0.500000
vt 0.025391 0.500000
vt 0.001953 0.500000
vt 0.001953 0.500000
vt 0.025391 0.500000
vt 0.001953 0.500000
vt 0.001953 0.500000
vt 0.001953 0.500000
vt 0.001953 0.500000
vt 0.060547 0.500000
vt 0.060547 0.500000
vt 0.060547 0.500000
vt 0.001953 0.500000
vt 0.060547 0.500000
vt 0.060547 0.500000
vt 0.060547 0.500000
vt 0.060547 0.500000
vt 0.060547 0.500000
vt 0.060547 0.500000
vt 0.060547 0.500000
vt 0.060547 0.500000
vt 0.060547 0.500000
vt 0.025391 0.500000
vt 0.025391 0.500000
vt 0.025391 0.500000
vt 0.025391 0.500000
vt 0.025391 0.500000
vt 0.025391 0.500000
vt 0.025391 0.500000
vt 0.025391 0.500000
vt 0.025391 0.500000
vt 0.025391 0.500000
vt 0.025391 0.500000
vt 0.025391 0.500000
vt 0.025391 0.500000
vt 0.025391 0.500000
vt 0.001953 0.500000
vt 0.001953 0.500000
vt 0.001953 0.500000
vt 0.001953 0.500000
vt 0.025391 0.500000
vt 0.025391 0.500000
vt 0.025391 0.500000
vt 0.025391 0.500000
vt 0.025391 0.500000
vt 0.025391 0.500000
vt 0.025391 0.500000
vt 0.025391 0.500000
vt 0.001953 0.500000
vt 0.001953 0.500000
vt 0.001953 0.500000
vt 0.001953 0.500000
vt 0.025391 0.500000
vt 0.025391 0.500000
vt 0.025391 0.500000
vt 0.025391 0.500000
vt 0.025391 0.500000
vt 0.025391 0.500000
vt 0.025391 0.500000
vt 0.025391 0.500000
vt 0.025391 0.500000
vt 0.025391 0.500000
vt 0.025391 0.500000
vt 0.025391 0.500000
vt 0.025391 0.500000
vt 0.025391 0.500000
vt 0.001953 0.500000
vt 0.001953 0.500000
vt 0.001953 0.500000
vt 0.001953 0.500000
vt 0.025391 0.500000
vt 0.025391 0.500000
vt 0.025391 0.500000
vt 0.025391 0.500000
vt 0.025391 0.500000
vt 0.025391 0.500000
vt 0.025391 0.500000
vt 0.025391 0.500000
vt 0.025391 0.500000
vt 0.025391 0.500000
vt 0.025391 0.500000
vt 0.025391 0.500000
vt 0.025391 0.500000
vt 0.025391 0.500000
vt 0.025391 0.500000
vt 0.025391 0.500000
vt 0.025391 0.500000
vt 0.025391 0.500000
vt 0.025391 0.500000
vt 0.025391 0.500000
vt 0.025391 0.500000
vt 0.025391 0.500000
vt 0.025391 0.500000
vt 0.025391 0.500000
vt 0.025391 0.500000
vt 0.025391 0.500000
vt 0.025391 0.500000
vt 0.025391 0.500000
vt 0.001953 0.500000
vt 0.001953 0.500000
vt 0.001953 0.500000
vt 0.001953 0.500000
vt 0.025391 0.500000
vt 0.025391 0.500000
vt 0.025391 0.500000
vt 0.025391 0.500000
vt 0.025391 0.500000
vt 0.025391 0.500000
vt 0.025391 0.500000
vt 0.025391 0.500000
vt 0.025391 0.500000
vt 0.025391 0.500000
vt 0.025391 0.500000
vt 0.025391 0.500000
vt 0.009766 0.500000
vt 0.009766 0.500000
vt 0.009766 0.500000
vt 0.009766 0.500000
vt 0.009766 0.500000
vt 0.009766 0.500000
vt 0.009766 0.500000
vt 0.009766 0.500000
vt 0.001953 0.500000
vt 0.001953 0.500000
vt 0.001953 0.500000
vt 0.001953 0.500000
vt 0.001953 0.500000
vt 0.001953 0.500000
vt 0.001953 0.500000
vt 0.001953 0.500000
vt 0.009766 0.500000
vt 0.009766 0.500000
vt 0.009766 0.500000
vt 0.009766 0.500000
vt 0.009766 0.500000
vt 0.009766 0.500000
vt 0.009766 0.500000
vt 0.009766 0.500000
vt 0.001953 0.500000
vt 0.001953 0.500000
vt 0.001953 0.500000
vt 0.001953 0.500000
vt 0.001953 0.500000
vt 0.001953 0.500000
vt 0.001953 0.500000
vt 0.001953 0.500000
vt 0.025391 0.500000
vt 0.025391 0.500000
vt 0.025391 0.500000
vt 0.025391 0.500000
vt 0.025391 0.500000
vt 0.025391 0.500000
vt 0.025391 0.500000
vt 0.025391 0.500000
vt 0.025391 0.500000
vt 0.025391 0.500000
vt 0.025391 0.500000
vt 0.025391 0.500000
vt 0.025391 0.500000
vt 0.025391 0.500000
vt 0.025391 0.500000
vt 0.025391 0.500000
vt 0.025391 0.500000
vt 0.025391 0.500000
vt 0.025391 0.500000
vt 0.025391 0.500000
vt 0.025391 0.500000
vt 0.025391 0.500000
vt 0.025391 0.500000
vt 0.025391 0.500000
vt 0.025391 0.500000
vt 0.025391 0.500000
vt 0.025391 0.500000
vt 0.025391 0.500000
vt 0.025391 0.500000
vt 0.025391 0.500000
vt 0.025391 0.500000
vt 0.025391 0.500000
vt 0.025391 0.500000
vt 0.025391 0.500000
vt 0.025391 0.500000
vt 0.025391 0.500000
vt 0.025391 0.500000
vt 0.025391 0.500000
vt 0.025391 0.500000
vt 0.025391 0.500000
vt 0.025391 0.500000
vt 0.025391 0.500000
vt 0.025391 0.500000
vt 0.025391 0.500000
vt 0.025391 0.500000
vt 0.025391 0.500000
vt 0.025391 0.500000
vt 0.025391 0.500000
vt 0.001953 0.500000
vt 0.001953 0.500000
vt 0.001953 0.500000
vt 0.001953 0.500000
vt 0.025391 0.500000
vt 0.025391 0.500000
vt 0.025391 0.500000
vt 0.025391 0.500000
vt 0.001953 0.500000
vt 0.001953 0.500000
vt 0.001953 0.500000
vt 0.001953 0.500000
vt 0.001953 0.500000
vt 0.001953 0.500000
vt 0.001953 0.500000
vt 0.001953 0.500000
vt 0.001953 0.500000
vt 0.001953 0.500000
vt 0.001953 0.500000
vt 0.001953 0.500000
vt 0.001953 0.500000
vt 0.001953 0.500000
vt 0.025391 0.500000
vt 0.025391 0.500000
vt 0.025391 0.500000
vt 0.025391 0.500000
vt 0.025391 0.500000
vt 0.025391 0.500000
vt 0.025391 0.500000
vt 0.025391 0.500000
vt 0.001953 0.500000
vt 0.001953 0.500000
vt 0.001953 0.500000
vt 0.001953 0.500000
vt 0.001953 0.500000
vt 0.001953 0.500000
vt 0.001953 0.500000
vt 0.001953 0.500000
vt 0.060547 0.500000
vt 0.060547 0.500000
vt 0.060547 0.500000
vt 0.060547 0.500000
vt 0.060547 0.500000
vt 0.060547 0.500000
vt 0.060547 0.500000
vt 0.060547 0.500000
vt 0.001953 0.500000
vt 0.001953 0.500000
vt 0.001953 0.500000
vt 0.001953 0.500000
vt 0.001953 0.500000
vt 0.001953 0.500000
vt 0.001953 0.500000
vt 0.001953 0.500000
vt 0.060547 0.500000
vt 0.060547 0.500000
vt 0.060547 0.500000
vt 0.060547 0.500000
vt 0.060547 0.500000
vt 0.060547 0.500000
vt 0.060547 0.500000
vt 0.060547 0.500000
vt 0.001953 0.500000
vt 0.001953 0.500000
vt 0.001953 0.500000
vt 0.001953 0.500000
vt 0.001953 0.500000
vt 0.001953 0.500000
vt 0.001953 0.500000
vt 0.001953 0.500000
vt 0.001953 0.500000
vt 0.001953 0.500000
vt 0.001953 0.500000
vt 0.001953 0.500000
vt 0.001953 0.500000
vt 0.001953 0.500000
vt 0.001953 0.500000
vt 0.001953 0.500000
vt 0.001953 0.500000
vt 0.001953 0.500000
vt 0.001953 0.500000
vt 0.001953 0.500000
vt 0.001953 0.500000
vt 0.001953 0.500000
vt 0.001953 0.500000
vt 0.001953 0.500000
vt 0.025391 0.500000
vt 0.025391 0.500000
vt 0.025391 0.500000
vt 0.025391 0.500000
vt 0.025391 0.500000
vt 0.025391 0.500000
vt 0.025391 0.500000
vt 0.025391 0.500000
vt 0.025391 0.500000
vt 0.025391 0.500000
vt 0.025391 0.500000
vt 0.025391 0.500000
vt 0.025391 0.500000
vt 0.025391 0.500000
vt 0.025391 0.500000
vt 0.025391 0.500000
vt 0.025391 0.500000
vt 0.025391 0.500000
vt 0.025391 0.500000
vt 0.025391 0.500000
vt 0.025391 0.500000
vt 0.025391 0.500000
vt 0.025391 0.500000
vt 0.025391 0.500000
vt 0.025391 0.500000
vt 0.025391 0.500000
vt 0.025391 0.500000
vt 0.025391 0.500000
vt 0.025391 0.500000
vt 0.025391 0.500000
vt 0.025391 0.500000
vt 0.025391 0.500000
vt 0.025391 0.500000
vt 0.025391 0.500000
vt 0.025391 0.500000
vt 0.025391 0.500000
vt 0.009766 0.500000
vt 0.009766 0.500000
vt 0.009766 0.500000
vt 0.009766 0.500000
vt 0.025391 0.500000
vt 0.025391 0.500000
vt 0.025391 0.500000
vt 0.025391 0.500000
vt 0.025391 0.500000
vt 0.025391 0.500000
vt 0.025391 0.500000
vt 0.025391 0.500000
vt 0.025391 0.500000
vt 0.025391 0.500000
vt 0.025391 0.500000
vt 0.025391 0.500000
vt 0.025391 0.500000
vt 0.025391 0.500000
vt 0.025391 0.500000
vt 0.025391 0.500000
vt 0.025391 0.500000
vt 0.025391 0.500000
vt 0.025391 0.500000
vt 0.025391 0.500000
vt 0.025391 0.500000
vt 0.025391 0.500000
vt 0.025391 0.500000
vt 0.025391 0.500000
vt 0.025391 0.500000
vt 0.025391 0.500000
vt 0.025391 0.500000
vt 0.025391 0.500000
vt 0.001953 0.500000
vt 0.001953 0.500000
vt 0.001953 0.500000
vt 0.001953 0.500000
vt 0.009766 0.500000
vt 0.009766 0.500000
vt 0.009766 0.500000
vt 0.001953 0.500000
vt 0.009766 0.500000
vt 0.009766 0.500000
vt 0.009766 0.500000
vt 0.009766 0.500000
vt 0.001953 0.500000
vt 0.009766 0.500000
vt 0.001953 0.500000
vt 0.001953 0.500000
vt 0.001953 0.500000
vt 0.001953 0.500000
vt 0.001953 0.500000
vt 0.001953 0.500000
vt 0.001953 0.500000
vt 0.001953 0.500000
vt 0.025391 0.500000
vt 0.025391 0.500000
vt 0.025391 0.500000
vt 0.025391 0.500000
vt 0.001953 0.500000
vt 0.001953 0.500000
vt 0.001953 0.500000
vt 0.001953 0.500000
vt 0.001953 0.500000
vt 0.001953 0.500000
vt 0.025391 0.500000
vt 0.025391 0.500000
vt 0.025391 0.500000
vt 0.025391 0.500000
vt 0.025391 0.500000
vt 0.025391 0.500000
vt 0.060547 0.500000
vt 0.060547 0.500000
vt 0.060547 0.500000
vt 0.060547 0.500000
vt 0.060547 0.500000
vt 0.060547 0.500000
vt 0.060547 0.500000
vt 0.060547 0.500000
vt 0.001953 0.500000
vt 0.001953 0.500000
vt 0.001953 0.500000
vt 0.001953 0.500000
vt 0.001953 0.500000
vt 0.001953 0.500000
vt 0.001953 0.500000
vt 0.001953 0.500000
vt 0.001953 0.500000
vt 0.001953 0.500000
vt 0.060547 0.500000
vt 0.060547 0.500000
vt 0.060547 0.500000
vt 0.060547 0.500000
vt 0.060547 0.500000
vt 0.060547 0.500000
vt 0.060547 0.500000
vt 0.060547 0.500000
vt 0.060547 0.500000
vt 0.060547 0.500000
vt 0.060547 0.500000
vt 0.060547 0.500000
vt 0.060547 0.500000
vt 0.060547 0.500000
vt 0.060547 0.500000
vt 0.060547 0.500000
vn -1.0000 -0.0000 0.0000
vn 1.0000 0.0000 0.0000
vn 0.0000 0.0000 1.0000
vn 0.0000 0.0000 -1.0000
vn 0.0000 -1.0000 -0.0000
vn 0.0000 1.0000 0.0000
usemtl palette
s 1
f 1/1/1 2/2/1 3/3/1
f 4/4/1 5/5/1 2/6/1
f 4/7/1 2/2/1 1/1/1
f 6/8/1 7/9/1 8/10/1
f 9/11/1 10/12/1 7/13/1
f 9/14/1 7/9/1 6/8/1
f 11/15/1 4/4/1 1/16/1
f 12/17/1 5/5/1 4/4/1
f 12/17/1 4/4/1 11/15/1
f 13/18/1 9/11/1 6/19/1
f 14/20/1 10/12/1 9/11/1
f 14/20/1 9/11/1 13/18/1
f 15/21/1 16/22/1 17/23/1
f 18/24/1 16/22/1 15/21/1
f 19/25/1 20/26/1 21/27/1
f 22/28/1 20/26/1 19/25/1
f 23/29/1 24/30/1 25/31/1
f 26/32/1 24/30/1 23/29/1
f 27/33/1 28/34/1 29/35/1
f 30/36/1 28/34/1 27/33/1
f 31/37/1 23/29/1 32/38/1
f 33/39/1 23/29/1 31/37/1
f 34/40/1 27/33/1 35/41/1
f 36/42/1 27/33/1 34/40/1
f 37/43/1 38/44/1 39/45/1
f 40/46/1 38/44/1 37/43/1
f 41/47/1 40/48/1 37/49/1
f 42/50/1 41/47/1 37/49/1
f 42/50/1 43/51/1 41/47/1
f 44/52/1 43/51/1 42/50/1
f 45/53/1 46/54/1 47/55/1
f 48/56/1 46/54/1 45/53/1
f 49/57/1 45/58/1 50/59/1
f 51/60/1 49/57/1 50/59/1
f 52/61/1 49/57/1 51/60/1
f 53/62/1 54/63/1 55/64/1
f 56/65/1 53/62/1 55/64/1
f 56/65/1 57/66/1 53/62/1
f 58/67/1 57/66/1 56/65/1
f 59/68/1 56/65/1 55/64/1
f 60/69/1 56/65/1 59/68/1
f 61/70/1 62/71/1 63/72/1
f 64/73/1 65/74/1 62/75/1
f 64/76/1 62/71/1 61/70/1
f 66/77/1 65/74/1 64/73/1
f 67/78/1 65/74/1 66/77/1
f 68/79/1 66/80/1 64/81/1
f 69/82/1 66/80/1 68/79/1
f 70/83/1 71/84/1 72/85/1
f 73/86/1 71/84/1 70/83/1
f 74/87/1 75/88/1 73/86/1
f 76/89/1 75/88/1 74/87/1
f 77/90/1 78/91/1 79/92/1
f 80/93/1 78/91/1 77/90/1
f 81/94/1 78/91/1 80/93/1
f 82/95/1 78/91/1 81/94/1
f 83/96/1 70/83/1 84/97/1
f 85/98/1 70/83/1 83/96/1
f 86/99/1 87/100/1 88/101/1
f 89/102/1 87/100/1 86/99/1
f 90/103/1 82/104/1 81/105/1
f 91/106/1 82/104/1 90/103/1
f 92/107/1 86/99/1 85/98/1
f 93/108/1 86/99/1 92/107/1
f 94/109/1 95/110/1 91/111/1
f 96/112/1 95/110/1 94/109/1
f 97/113/1 98/114/1 99/115/1
f 100/116/1 101/117/1 98/118/1
f 100/119/1 98/114/1 97/113/1
f 102/120/1 101/117/1 100/116/1
f 103/121/1 97/113/1 104/122/1
f 105/123/1 97/113/1 103/121/1
f 106/124/1 105/125/1 103/126/1
f 107/127/1 108/128/1 105/123/1
f 107/129/1 105/125/1 106/124/1
f 109/130/1 108/128/1 107/127/1
f 110/131/1 109/130/1 107/127/1
f 111/132/1 109/130/1 110/131/1
f 112/133/1 113/134/1 114/135/1
f 115/136/1 116/137/1 113/138/1
f 115/139/1 113/134/1 112/133/1
f 117/140/1 116/137/1 115/136/1
f 118/141/1 119/142/1 120/143/1
f 121/144/1 119/142/1 118/141/1
f 122/145/1 123/146/1 124/147/1
f 125/148/1 126/149/1 123/150/1
f 125/151/1 123/146/1 122/145/1
f 127/152/1 128/153/1 129/154/1
f 130/155/1 131/156/1 128/157/1
f 130/158/1 128/153/1 127/152/1
f 132/159/1 125/148/1 122/160/1
f 133/161/1 126/149/1 125/148/1
f 133/161/1 125/148/1 132/159/1
f 134/162/1 130/155/1 127/163/1
f 135/164/1 131/156/1 130/155/1
f 135/164/1 130/155/1 134/162/1
f 136/165/1 137/166/1 138/167/1
f 139/168/1 137/166/1 136/165/1
f 140/169/1 141/170/1 142/171/1
f 143/172/1 141/170/1 140/169/1
f 144/173/1 136/165/1 138/167/1
f 145/174/1 136/165/1 144/173/1
f 146/175/1 140/169/1 142/171/1
f 147/176/1 140/169/1 146/175/1
f 148/177/1 149/178/1 150/179/1
f 151/180/1 149/178/1 148/177/1
f 152/181/1 151/180/1 148/177/1
f 152/181/1 153/182/1 151/180/1
f 154/183/1 153/182/1 152/181/1
f 155/184/2 156/185/2 157/186/2
f 156/187/2 158/188/2 159/189/2
f 157/186/2 156/185/2 159/190/2
f 160/191/2 161/192/2 162/193/2
f 161/194/2 163/195/2 164/196/2
f 162/193/2 161/192/2 164/197/2
f 157/198/2 159/189/2 165/199/2
f 159/189/2 158/188/2 166/200/2
f 165/199/2 159/189/2 166/200/2
f 162/201/2 164/196/2 167/202/2
f 164/196/2 163/195/2 168/203/2
f 167/202/2 164/196/2 168/203/2
f 169/204/2 170/205/2 171/206/2
f 171/206/2 170/205/2 172/207/2
f 173/208/2 174/209/2 175/210/2
f 175/210/2 174/209/2 176/211/2
f 169/204/2 171/206/2 177/212/2
f 177/212/2 171/206/2 178/213/2
f 173/208/2 175/210/2 179/214/2
f 179/214/2 175/210/2 180/215/2
f 181/216/2 182/217/2 183/218/2
f 183/218/2 182/217/2 184/219/2
f 183/218/2 184/219/2 185/220/2
f 184/219/2 186/221/2 185/220/2
f 185/220/2 186/221/2 187/222/2
f 188/223/2 189/224/2 190/225/2
f 190/225/2 189/224/2 191/226/2
f 192/227/2 193/228/2 194/229/2
f 193/230/2 195/231/2 196/232/2
f 194/229/2 193/228/2 196/233/2
f 196/232/2 195/231/2 197/234/2
f 198/235/2 199/236/2 200/237/2
f 199/238/2 201/239/2 202/240/2
f 200/237/2 199/236/2 202/241/2
f 202/240/2 201/239/2 203/242/2
f 204/243/2 200/237/2 205/244/2
f 205/244/2 200/237/2 206/245/2
f 205/246/2 206/247/2 207/248/2
f 206/245/2 208/249/2 209/250/2
f 207/248/2 206/247/2 209/251/2
f 209/250/2 208/249/2 210/252/2
f 209/250/2 210/252/2 211/253/2
f 211/253/2 210/252/2 212/254/2
f 213/255/2 214/256/2 215/257/2
f 215/257/2 214/256/2 216/258/2
f 216/258/2 217/259/2 218/260/2
f 218/260/2 217/259/2 219/261/2
f 220/262/2 221/263/2 222/264/2
f 222/264/2 221/263/2 223/265/2
f 223/265/2 221/263/2 224/266/2
f 224/266/2 221/263/2 225/267/2
f 226/268/2 215/257/2 227/269/2
f 227/269/2 215/257/2 228/270/2
f 229/271/2 230/272/2 231/273/2
f 231/273/2 230/272/2 232/274/2
f 224/275/2 225/276/2 233/277/2
f 233/277/2 225/276/2 234/278/2
f 228/270/2 231/273/2 235/279/2
f 235/279/2 231/273/2 236/280/2
f 234/281/2 237/282/2 238/283/2
f 238/283/2 237/282/2 239/284/2
f 240/285/2 241/286/2 242/287/2
f 240/285/2 242/287/2 243/288/2
f 242/287/2 244/289/2 243/288/2
f 243/288/2 244/289/2 245/290/2
f 240/285/2 243/288/2 246/291/2
f 246/291/2 243/288/2 247/292/2
f 248/293/2 249/294/2 250/295/2
f 249/296/2 251/297/2 252/298/2
f 250/295/2 249/294/2 252/299/2
f 252/298/2 251/297/2 253/300/2
f 253/300/2 251/297/2 254/301/2
f 252/302/2 253/303/2 255/304/2
f 255/304/2 253/303/2 256/305/2
f 257/306/2 258/307/2 259/308/2
f 259/308/2 258/307/2 260/309/2
f 261/310/2 259/311/2 262/312/2
f 261/310/2 262/312/2 263/313/2
f 263/313/2 262/312/2 264/314/2
f 265/315/2 266/316/2 267/317/2
f 267/317/2 266/316/2 268/318/2
f 269/319/2 270/320/2 271/321/2
f 271/321/2 270/320/2 272/322/2
f 273/323/2 267/317/2 274/324/2
f 274/324/2 267/317/2 275/325/2
f 276/326/2 271/321/2 277/327/2
f 277/327/2 271/321/2 278/328/2
f 279/329/2 280/330/2 281/331/2
f 281/331/2 280/330/2 282/332/2
f 281/333/2 282/334/2 283/335/2
f 281/333/2 283/335/2 284/336/2
f 283/335/2 285/337/2 284/336/2
f 284/336/2 285/337/2 286/338/2
f 287/339/2 288/340/2 289/341/2
f 288/342/2 290/343/2 291/344/2
f 289/341/2 288/340/2 291/345/2
f 292/346/2 293/347/2 294/348/2
f 293/349/2 295/350/2 296/351/2
f 294/348/2 293/347/2 296/352/2
f 289/353/2 291/344/2 297/354/2
f 291/344/2 290/343/2 298/355/2
f 297/354/2 291/344/2 298/355/2
f 294/356/2 296/351/2 299/357/2
f 296/351/2 295/350/2 300/358/2
f 299/357/2 296/351/2 300/358/2
f 301/359/2 302/360/2 303/361/2
f 303/361/2 302/360/2 304/362/2
f 305/363/2 306/364/2 307/365/2
f 307/365/2 306/364/2 308/366/2
f 309/367/3 310/368/3 311/369/3
f 312/370/3 313/371/3 310/372/3
f 312/373/3 310/368/3 309/367/3
f 314/374/3 313/371/3 312/370/3
f 315/375/3 316/376/3 317/377/3
f 318/378/3 316/376/3 315/375/3
f 319/379/3 315/375/3 320/380/3
f 321/381/3 315/375/3 319/379/3
f 322/382/3 323/383/3 324/384/3
f 325/385/3 323/383/3 322/382/3
f 326/386/3 327/387/3 321/381/3
f 328/388/3 327/387/3 326/386/3
f 329/389/3 330/390/3 331/391/3
f 332/392/3 333/393/3 330/394/3
f 332/395/3 330/390/3 329/389/3
f 334/396/3 333/393/3 332/392/3
f 335/397/3 336/398/3 337/399/3
f 338/400/3 339/401/3 336/402/3
f 338/403/3 336/398/3 335/397/3
f 340/404/3 339/401/3 338/400/3
f 341/405/3 342/406/3 343/407/3
f 344/408/3 342/406/3 341/405/3
f 345/409/3 342/406/3 344/408/3
f 346/410/3 347/411/3 345/409/3
f 348/412/3 347/411/3 346/410/3
f 349/413/3 347/411/3 348/412/3
f 350/414/3 347/411/3 349/413/3
f 351/415/3 352/416/3 353/417/3
f 351/415/3 349/413/3 352/416/3
f 354/418/3 349/413/3 351/415/3
f 355/419/3 356/420/3 357/421/3
f 358/422/3 356/420/3 355/419/3
f 359/423/3 356/420/3 358/422/3
f 360/424/3 355/419/3 361/425/3
f 360/424/3 358/422/3 355/419/3
f 362/426/3 358/422/3 360/424/3
f 363/427/3 358/422/3 362/426/3
f 364/428/3 358/422/3 363/427/3
f 365/429/3 366/430/3 367/431/3
f 368/432/3 365/429/3 369/433/3
f 370/434/3 366/430/3 365/429/3
f 370/434/3 365/429/3 368/432/3
f 371/435/3 366/430/3 370/434/3
f 372/436/3 371/435/3 370/434/3
f 372/436/3 373/437/3 371/435/3
f 374/438/3 373/437/3 372/436/3
f 375/439/3 376/440/3 377/441/3
f 378/442/3 379/443/3 376/444/3
f 378/445/3 376/440/3 375/439/3
f 380/446/3 379/443/3 378/442/3
f 381/447/3 379/443/3 380/446/3
f 382/448/3 375/439/3 383/449/3
f 384/450/3 375/439/3 382/448/3
f 385/451/3 386/452/3 387/453/3
f 388/454/3 386/452/3 385/451/3
f 389/455/3 390/456/3 388/454/3
f 391/457/3 392/458/3 393/459/3
f 391/460/3 390/456/3 389/455/3
f 391/457/3 393/459/3 390/461/3
f 394/462/3 392/458/3 391/457/3
f 395/463/3 396/464/3 397/465/3
f 398/466/3 396/464/3 395/463/3
f 399/467/3 400/468/3 401/469/3
f 402/470/3 399/467/3 401/469/3
f 402/470/3 403/471/3 399/467/3
f 404/472/3 403/471/3 402/470/3
f 405/473/3 406/474/3 407/475/3
f 408/476/3 406/474/3 405/473/3
f 409/477/3 405/473/3 410/478/3
f 411/479/3 405/473/3 409/477/3
f 412/480/3 413/481/3 408/476/3
f 414/482/3 413/481/3 412/480/3
f 415/483/3 412/480/3 411/479/3
f 416/484/3 412/480/3 415/483/3
f 417/485/3 418/486/3 419/487/3
f 420/488/3 418/486/3 417/485/3
f 421/489/3 417/485/3 419/487/3
f 422/490/3 417/485/3 421/489/3
f 423/491/3 424/492/3 425/493/3
f 426/494/3 427/495/3 424/496/3
f 426/497/3 424/492/3 423/491/3
f 428/498/3 427/495/3 426/494/3
f 429/499/3 430/500/3 431/501/3
f 432/502/3 433/503/3 430/504/3
f 432/505/3 430/500/3 429/499/3
f 434/506/3 433/503/3 432/502/3
f 435/507/3 436/508/3 437/509/3
f 438/510/3 435/507/3 437/509/3
f 438/510/3 439/511/3 435/507/3
f 440/512/3 439/511/3 438/510/3
f 441/513/3 442/514/3 443/515/3
f 444/516/3 442/514/3 441/513/3
f 445/517/3 441/513/3 443/515/3
f 446/518/3 441/513/3 445/517/3
f 447/519/3 448/520/3 449/521/3
f 450/522/3 451/523/3 448/524/3
f 450/525/3 448/520/3 447/519/3
f 452/526/3 451/523/3 450/522/3
f 453/527/3 454/528/3 455/529/3
f 456/530/3 457/531/3 454/532/3
f 456/533/3 454/528/3 453/527/3
f 458/534/3 457/531/3 456/530/3
f 459/535/4 460/536/4 461/537/4
f 461/537/4 460/536/4 462/538/4
f 463/539/4 464/540/4 465/541/4
f 465/541/4 464/540/4 466/542/4
f 467/543/4 468/544/4 469/545/4
f 468/546/4 470/547/4 471/548/4
f 469/545/4 468/544/4 471/549/4
f 471/548/4 470/547/4 472/550/4
f 473/551/4 469/545/4 474/552/4
f 469/545/4 471/549/4 474/552/4
f 474/552/4 471/549/4 475/553/4
f 476/554/4 474/555/4 475/556/4
f 475/553/4 471/549/4 477/557/4
f 476/554/4 475/556/4 478/558/4
f 475/556/4 477/559/4 478/558/4
f 477/557/4 471/549/4 479/560/4
f 478/558/4 477/559/4 479/561/4
f 479/560/4 471/549/4 480/562/4
f 481/563/4 478/558/4 482/564/4
f 478/558/4 479/561/4 482/564/4
f 482/564/4 479/561/4 483/565/4
f 483/565/4 479/561/4 484/566/4
f 483/565/4 484/566/4 485/567/4
f 484/568/4 486/569/4 487/570/4
f 485/567/4 484/566/4 487/571/4
f 483/565/4 485/567/4 488/572/4
f 485/573/4 487/570/4 489/574/4
f 488/572/4 485/567/4 489/575/4
f 489/574/4 487/570/4 490/576/4
f 487/570/4 486/569/4 491/577/4
f 490/576/4 487/570/4 491/577/4
f 491/577/4 486/569/4 492/578/4
f 491/577/4 492/578/4 493/579/4
f 492/580/4 494/581/4 495/582/4
f 493/579/4 492/578/4 495/583/4
f 495/582/4 494/581/4 496/584/4
f 497/585/4 498/586/4 499/587/4
f 499/587/4 498/586/4 500/588/4
f 501/589/4 502/590/4 503/591/4
f 503/591/4 502/590/4 504/592/4
f 505/593/4 506/594/4 507/595/4
f 507/595/4 506/594/4 508/596/4
f 508/596/4 509/597/4 510/598/4
f 510/598/4 509/597/4 511/599/4
f 512/600/4 513/601/4 514/602/4
f 514/602/4 513/601/4 515/603/4
f 516/604/4 514/602/4 517/605/4
f 517/605/4 514/602/4 518/606/4
f 519/607/4 520/608/4 521/609/4
f 521/609/4 520/608/4 522/610/4
f 523/611/4 524/612/4 525/613/4
f 525/613/4 524/612/4 526/614/4
f 527/615/4 528/616/4 529/617/4
f 529/617/4 528/616/4 530/618/4
f 531/619/4 532/620/4 533/621/4
f 533/621/4 532/620/4 534/622/4
f 535/623/4 536/624/4 537/625/4
f 537/625/4 536/624/4 538/626/4
f 538/626/4 539/627/4 540/628/4
f 540/628/4 539/627/4 541/629/4
f 542/630/4 543/631/4 544/632/4
f 544/632/4 543/631/4 545/633/4
f 546/634/4 544/632/4 547/635/4
f 547/635/4 544/632/4 548/636/4
f 549/637/4 550/638/4 551/639/4
f 551/639/4 550/638/4 552/640/4
f 553/641/4 554/642/4 555/643/4
f 555/643/4 554/642/4 556/644/4
f 557/645/4 558/646/4 559/647/4
f 559/647/4 558/646/4 560/648/4
f 561/649/4 562/650/4 563/651/4
f 563/651/4 562/650/4 564/652/4
f 565/653/4 559/647/4 566/654/4
f 566/654/4 559/647/4 567/655/4
f 564/652/4 568/656/4 569/657/4
f 569/657/4 568/656/4 570/658/4
f 567/655/4 571/659/4 572/660/4
f 572/660/4 571/659/4 573/661/4
f 574/662/4 569/657/4 575/663/4
f 575/663/4 569/657/4 576/664/4
f 577/665/4 578/666/4 579/667/4
f 579/667/4 578/666/4 580/668/4
f 581/669/4 582/670/4 583/671/4
f 583/671/4 582/670/4 584/672/4
f 585/673/4 586/674/4 587/675/4
f 587/675/4 586/674/4 588/676/4
f 589/677/4 587/675/4 590/678/4
f 588/676/4 591/679/4 590/678/4
f 587/675/4 588/676/4 590/678/4
f 590/678/4 591/679/4 592/680/4
f 592/680/4 591/679/4 593/681/4
f 593/681/4 591/679/4 594/682/4
f 592/680/4 593/681/4 595/683/4
f 595/683/4 593/681/4 596/684/4
f 597/685/5 598/686/5 599/687/5
f 600/688/5 598/686/5 597/685/5
f 601/689/5 602/690/5 603/691/5
f 604/692/5 602/690/5 601/689/5
f 605/693/5 600/694/5 597/695/5
f 606/696/5 600/694/5 605/693/5
f 607/697/5 604/698/5 601/699/5
f 608/700/5 604/698/5 607/697/5
f 609/701/5 610/702/5 611/703/5
f 612/704/5 610/702/5 609/701/5
f 613/705/5 614/706/5 615/707/5
f 616/708/5 614/706/5 613/705/5
f 617/709/5 612/710/5 609/711/5
f 618/712/5 612/710/5 617/709/5
f 619/713/5 616/714/5 613/715/5
f 620/716/5 616/714/5 619/713/5
f 621/717/5 622/718/5 623/719/5
f 624/720/5 622/718/5 621/717/5
f 625/721/5 626/722/5 627/723/5
f 628/724/5 626/722/5 625/721/5
f 629/725/5 630/726/5 631/727/5
f 632/728/5 630/726/5 629/725/5
f 633/729/5 634/730/5 635/731/5
f 636/732/5 634/730/5 633/729/5
f 637/733/5 630/726/5 632/728/5
f 638/734/5 630/726/5 637/733/5
f 639/735/5 633/729/5 635/731/5
f 640/736/5 633/729/5 639/735/5
f 641/737/5 642/738/5 643/739/5
f 644/740/5 642/738/5 641/737/5
f 645/741/5 646/742/5 647/743/5
f 648/744/5 646/742/5 645/741/5
f 649/745/5 642/738/5 644/740/5
f 650/746/5 642/738/5 649/745/5
f 651/747/5 625/721/5 652/748/5
f 653/749/5 625/721/5 651/747/5
f 654/750/5 655/751/5 628/724/5
f 656/752/5 655/751/5 654/750/5
f 657/753/5 645/741/5 647/743/5
f 658/754/5 645/741/5 657/753/5
f 659/755/5 654/750/5 653/749/5
f 660/756/5 654/750/5 659/755/5
f 661/757/5 662/758/5 663/759/5
f 664/760/5 662/758/5 661/757/5
f 665/761/5 666/762/5 667/763/5
f 668/764/5 666/762/5 665/761/5
f 669/765/5 670/766/5 671/767/5
f 672/768/5 670/766/5 669/765/5
f 673/769/5 672/770/5 669/771/5
f 674/772/5 672/770/5 673/769/5
f 675/773/5 676/774/5 677/775/5
f 678/776/5 676/774/5 675/773/5
f 679/777/5 675/773/5 680/778/5
f 681/779/5 682/780/5 678/776/5
f 683/781/5 679/777/5 684/782/5
f 685/783/5 675/773/5 679/777/5
f 685/783/5 679/777/5 683/781/5
f 686/784/5 687/785/5 681/779/5
f 686/784/5 681/779/5 678/776/5
f 688/786/5 687/785/5 686/784/5
f 689/787/5 685/788/5 683/789/5
f 690/790/5 685/788/5 689/787/5
f 691/791/5 688/792/5 686/793/5
f 692/794/5 688/792/5 691/791/5
f 693/795/5 694/796/5 695/797/5
f 696/798/5 694/796/5 693/795/5
f 697/799/5 698/800/5 699/801/5
f 700/802/5 698/800/5 697/799/5
f 701/803/5 702/804/5 703/805/5
f 704/806/5 702/804/5 701/803/5
f 705/807/5 706/808/5 707/809/5
f 708/810/5 706/808/5 705/807/5
f 709/811/5 701/812/5 710/813/5
f 711/814/5 701/812/5 709/811/5
f 712/815/5 713/816/5 708/817/5
f 714/818/5 713/816/5 712/815/5
f 715/819/5 716/820/5 717/821/5
f 718/822/5 716/820/5 715/819/5
f 719/823/5 720/824/5 721/825/5
f 722/826/5 720/824/5 719/823/5
f 723/827/6 724/828/6 725/829/6
f 725/829/6 724/828/6 726/830/6
f 727/831/6 728/832/6 729/833/6
f 729/833/6 728/832/6 730/834/6
f 731/835/6 732/836/6 733/837/6
f 733/837/6 732/836/6 734/838/6
f 735/839/6 736/840/6 737/841/6
f 737/841/6 736/840/6 738/842/6
f 739/843/6 740/844/6 741/845/6
f 741/845/6 740/844/6 742/846/6
f 743/847/6 744/848/6 745/849/6
f 745/849/6 744/848/6 746/850/6
f 747/851/6 748/852/6 749/853/6
f 749/853/6 748/852/6 750/854/6
f 751/855/6 752/856/6 753/857/6
f 753/857/6 752/856/6 754/858/6
f 750/854/6 755/859/6 756/860/6
f 756/860/6 755/859/6 757/861/6
f 758/862/6 753/857/6 759/863/6
f 759/863/6 753/857/6 760/864/6
f 761/865/6 762/866/6 763/867/6
f 763/867/6 762/866/6 764/868/6
f 765/869/6 766/870/6 767/871/6
f 767/871/6 766/870/6 768/872/6
f 764/868/6 769/873/6 770/874/6
f 770/874/6 769/873/6 771/875/6
f 772/876/6 767/871/6 773/877/6
f 773/877/6 767/871/6 774/878/6
f 775/879/6 776/880/6 777/881/6
f 777/881/6 776/880/6 778/882/6
f 779/883/6 780/884/6 781/885/6
f 781/885/6 780/884/6 782/886/6
f 783/887/6 784/888/6 785/889/6
f 785/889/6 784/888/6 786/890/6
f 787/891/6 788/892/6 789/893/6
f 789/893/6 788/892/6 790/894/6
f 791/895/6 792/896/6 793/897/6
f 793/897/6 792/896/6 794/898/6
f 795/899/6 796/900/6 797/901/6
f 797/901/6 796/900/6 798/902/6
f 799/903/6 800/904/6 801/905/6
f 801/905/6 800/904/6 802/906/6
f 803/907/6 804/908/6 805/909/6
f 805/909/6 804/908/6 806/910/6
f 807/911/6 789/893/6 808/912/6
f 808/912/6 789/893/6 809/913/6
f 790/894/6 810/914/6 811/915/6
f 811/915/6 810/914/6 812/916/6
f 809/913/6 811/915/6 813/917/6
f 813/917/6 811/915/6 814/918/6
f 815/919/6 816/920/6 817/921/6
f 817/921/6 816/920/6 818/922/6
f 819/923/6 817/924/6 820/925/6
f 817/921/6 818/922/6 821/926/6
f 820/925/6 817/924/6 821/927/6
f 818/928/6 822/929/6 823/930/6
f 821/926/6 818/922/6 823/931/6
f 823/930/6 822/929/6 824/932/6
f 825/933/6 820/934/6 826/935/6
f 826/935/6 820/934/6 827/936/6
f 824/937/6 828/938/6 829/939/6
f 829/939/6 828/938/6 830/940/6
f 831/941/6 832/942/6 833/943/6
f 833/943/6 832/942/6 834/944/6
f 835/945/6 836/946/6 837/947/6
f 837/947/6 836/946/6 838/948/6
f 838/948/6 836/946/6 839/949/6
f 839/949/6 836/946/6 840/950/6
f 838/951/6 839/952/6 841/953/6
f 841/953/6 839/952/6 842/954/6
f 841/953/6 842/954/6 843/955/6
f 843/955/6 842/954/6 844/956/6
f 845/957/6 846/958/6 847/959/6
f 847/959/6 846/958/6 848/960/6
f 849/961/6 850/962/6 851/963/6
f 851/963/6 850/962/6 852/964/6
f 847/965/6 848/966/6 853/967/6
f 854/968/6 847/965/6 853/967/6
f 853/967/6 848/966/6 855/969/6
f 852/970/6 856/971/6 857/972/6
f 851/973/6 852/970/6 857/972/6
f 857/972/6 856/971/6 858/974/6
f 859/975/6 860/976/6 861/977/6
f 861/977/6 860/976/6 862/978/6
f 863/979/6 864/980/6 865/981/6
f 865/981/6 864/980/6 866/982/6
f 867/983/6 868/984/6 869/985/6
f 869/985/6 868/984/6 870/986/6
f 871/987/6 872/988/6 873/989/6
f 873/989/6 872/988/6 874/990/6
