# Blender v2.93.0 OBJ File: 'Pig_Base_Rig.blend'
# www.blender.org
mtllib TVS_VoxelFarm_Pig.mtl
o VS_Farm_Pig
v -0.609082 0.100000 0.125375
v -0.609082 0.000000 0.025375
v -0.609082 0.000000 0.125375
v -0.609082 0.100000 0.025375
v -0.609082 0.000000 -0.074625
v -0.609082 0.100000 -0.674625
v -0.609082 0.000000 -0.774625
v -0.609082 -0.000000 -0.674625
v -0.609082 0.100000 -0.774625
v -0.609082 0.000000 -0.874625
v -0.609082 0.400000 0.125375
v -0.609082 0.400000 -0.074625
v -0.609082 0.400000 -0.674625
v -0.609082 0.400000 -0.874625
v -0.609082 0.900000 0.025375
v -0.609082 0.500000 -0.074625
v -0.609082 0.500000 0.225375
v -0.609082 0.900000 -0.074625
v -0.609082 0.900000 -0.774625
v -0.609082 0.500000 -0.874625
v -0.609082 0.500000 -0.574625
v -0.609082 0.900000 -0.874625
v -0.609082 1.000000 0.225375
v -0.609082 1.000000 0.025375
v -0.609082 1.000000 -0.574625
v -0.609082 1.000000 -0.774625
v -0.609082 1.300000 0.525375
v -0.609082 1.000000 0.425375
v -0.609082 1.000000 0.525375
v -0.609082 1.300000 0.425375
v -0.509082 1.000000 0.525375
v -0.509082 0.900000 0.425375
v -0.509082 0.900000 0.525375
v -0.509082 1.000000 0.425375
v -0.509082 1.200000 0.625375
v -0.509082 1.000000 0.625375
v -0.509082 1.200000 0.525375
v -0.409082 0.700000 0.625375
v -0.409082 0.600000 0.425375
v -0.409082 0.600000 0.625375
v -0.409082 0.900000 0.825375
v -0.409082 0.700000 0.825375
v -0.409082 0.900000 0.625375
v -0.409082 0.900000 0.525375
v -0.409082 0.900000 0.425375
v -0.409082 1.000000 0.625375
v -0.409082 1.000000 0.525375
v -0.309082 0.600000 -0.874625
v -0.309082 0.500000 -0.874625
v -0.309082 0.500000 0.225375
v -0.309082 0.700000 0.925375
v -0.309082 0.600000 0.625375
v -0.309082 0.600000 0.925375
v -0.309082 0.700000 0.825375
v -0.309082 0.700000 0.625375
v -0.309082 0.900000 1.025375
v -0.309082 0.700000 1.025375
v -0.309082 0.900000 0.925375
v -0.309082 0.900000 0.825375
v -0.309082 0.900000 -0.874625
v -0.309082 0.600000 -0.974625
v -0.309082 0.900000 -0.974625
v -0.309082 1.000000 0.925375
v -0.309082 0.900000 0.625375
v -0.309082 1.000000 0.825375
v -0.309082 1.000000 0.225375
v -0.309082 1.000000 -0.874625
v -0.309082 1.100000 0.825375
v -0.309082 1.100000 0.625375
v -0.209082 0.500000 0.225375
v -0.209082 0.400000 -0.874625
v -0.209082 0.400000 0.225375
v -0.209082 0.500000 -0.874625
v -0.209082 0.600000 -0.874625
v -0.209082 0.500000 -0.974625
v -0.209082 0.600000 -0.974625
v -0.209082 0.700000 1.025375
v -0.209082 0.600000 0.925375
v -0.209082 0.600000 1.225375
v -0.209082 0.700000 0.925375
v -0.209082 0.800000 1.225375
v -0.209082 0.800000 1.125375
v -0.209082 0.900000 1.125375
v -0.209082 0.900000 1.025375
v -0.209082 0.900000 -1.174625
v -0.209082 0.800000 -1.374625
v -0.209082 0.800000 -1.074625
v -0.209082 0.900000 -1.374625
v -0.209082 1.000000 0.325375
v -0.209082 0.500000 0.325375
v -0.209082 1.000000 0.225375
v -0.209082 1.000000 -0.874625
v -0.209082 0.900000 -0.974625
v -0.209082 0.900000 -0.874625
v -0.209082 1.000000 -0.974625
v -0.209082 1.100000 0.925375
v -0.209082 1.000000 0.825375
v -0.209082 1.000000 0.925375
v -0.209082 1.100000 0.825375
v -0.209082 1.100000 0.225375
v -0.209082 1.100000 -0.874625
v -0.209082 1.100000 -1.074625
v -0.209082 1.100000 -1.174625
v -0.209082 1.100000 -1.274625
v -0.209082 1.000000 -1.374625
v -0.209082 1.000000 -1.274625
v -0.209082 1.100000 -1.374625
v -0.209082 1.200000 0.625375
v -0.209082 1.100000 0.525375
v -0.209082 1.100000 0.625375
v -0.209082 1.200000 0.525375
v -0.109082 0.800000 1.225375
v -0.109082 0.700000 1.225375
v -0.109082 0.700000 1.325375
v -0.109082 0.900000 1.325375
v -0.109082 0.900000 1.225375
v -0.109082 0.800000 1.125375
v -0.109082 0.900000 1.125375
v -0.109082 1.000000 1.025375
v -0.109082 0.900000 0.925375
v -0.109082 0.900000 1.025375
v -0.109082 1.000000 0.925375
v -0.009082 1.000000 -0.974625
v -0.009082 0.900000 -1.174625
v -0.009082 0.900000 -0.974625
v -0.009082 1.000000 -1.074625
v -0.009082 1.000000 -1.174625
v -0.009082 1.000000 -1.274625
v -0.009082 0.900000 -1.374625
v -0.009082 0.900000 -1.274625
v -0.009082 1.000000 -1.374625
v 0.290918 1.200000 0.625375
v 0.290918 1.100000 0.525375
v 0.290918 1.100000 0.625375
v 0.290918 1.200000 0.525375
v 0.290918 1.300000 0.525375
v 0.290918 1.200000 0.425375
v 0.290918 1.300000 0.425375
v 0.390918 0.100000 0.125375
v 0.390918 -0.000000 0.025375
v 0.390918 -0.000000 0.125375
v 0.390918 0.100000 0.025375
v 0.390918 0.000000 -0.074625
v 0.390918 0.100000 -0.674625
v 0.390918 0.000000 -0.774625
v 0.390918 0.000000 -0.674625
v 0.390918 0.100000 -0.774625
v 0.390918 0.000000 -0.874625
v 0.390918 0.400000 0.125375
v 0.390918 0.400000 -0.074625
v 0.390918 0.400000 -0.674625
v 0.390918 0.400000 -0.874625
v 0.390918 0.900000 0.025375
v 0.390918 0.500000 -0.074625
v 0.390918 0.500000 0.225375
v 0.390918 0.900000 -0.074625
v 0.390918 0.900000 -0.774625
v 0.390918 0.500000 -0.874625
v 0.390918 0.500000 -0.574625
v 0.390918 0.900000 -0.874625
v 0.390918 1.000000 0.225375
v 0.390918 1.000000 0.025375
v 0.390918 1.000000 -0.574625
v 0.390918 1.000000 -0.774625
v -0.409082 0.000000 0.125375
v -0.409082 0.000000 0.025375
v -0.409082 0.100000 0.125375
v -0.409082 0.000000 -0.074625
v -0.409082 0.100000 0.025375
v -0.409082 -0.000000 -0.674625
v -0.409082 0.000000 -0.774625
v -0.409082 0.100000 -0.674625
v -0.409082 0.000000 -0.874625
v -0.409082 0.100000 -0.774625
v -0.409082 0.400000 0.125375
v -0.409082 0.400000 -0.074625
v -0.409082 0.400000 -0.674625
v -0.409082 0.400000 -0.874625
v -0.409082 0.500000 0.225375
v -0.409082 0.500000 -0.074625
v -0.409082 0.900000 0.025375
v -0.409082 0.900000 -0.074625
v -0.409082 0.500000 -0.574625
v -0.409082 0.500000 -0.874625
v -0.409082 0.900000 -0.774625
v -0.409082 0.900000 -0.874625
v -0.409082 1.000000 0.225375
v -0.409082 1.000000 0.025375
v -0.409082 1.000000 -0.574625
v -0.409082 1.000000 -0.774625
v -0.309082 1.100000 0.625375
v -0.309082 1.100000 0.525375
v -0.309082 1.200000 0.625375
v -0.309082 1.200000 0.525375
v -0.309082 1.200000 0.425375
v -0.309082 1.300000 0.525375
v -0.309082 1.300000 0.425375
v -0.109082 0.800000 -1.074625
v -0.109082 0.800000 -1.274625
v -0.109082 0.900000 -1.174625
v -0.109082 0.900000 -1.274625
v -0.109082 1.000000 -1.074625
v -0.109082 1.000000 -1.174625
v 0.090918 0.700000 1.325375
v 0.090918 0.700000 1.225375
v 0.090918 0.800000 1.225375
v 0.090918 0.900000 1.325375
v 0.090918 0.800000 1.125375
v 0.090918 0.900000 1.225375
v 0.090918 0.900000 1.125375
v 0.090918 0.900000 1.025375
v 0.090918 0.900000 0.925375
v 0.090918 1.000000 1.025375
v 0.090918 1.000000 0.925375
v 0.090918 0.900000 -0.974625
v 0.090918 0.900000 -1.174625
v 0.090918 1.000000 -0.974625
v 0.090918 1.000000 -1.074625
v 0.090918 1.100000 -1.074625
v 0.090918 1.100000 -1.174625
v 0.090918 0.800000 -1.274625
v 0.090918 0.800000 -1.374625
v 0.090918 1.100000 -1.274625
v 0.090918 1.100000 -1.374625
v 0.190918 0.400000 0.225375
v 0.190918 0.400000 -0.874625
v 0.190918 0.500000 0.225375
v 0.190918 0.500000 -0.874625
v 0.190918 0.500000 -0.974625
v 0.190918 0.600000 -0.874625
v 0.190918 0.600000 -0.974625
v 0.190918 0.600000 1.225375
v 0.190918 0.600000 0.925375
v 0.190918 0.700000 1.025375
v 0.190918 0.700000 0.925375
v 0.190918 0.800000 1.225375
v 0.190918 0.800000 1.125375
v 0.190918 0.900000 1.125375
v 0.190918 0.900000 1.025375
v 0.190918 0.500000 0.325375
v 0.190918 1.000000 0.325375
v 0.190918 1.000000 0.225375
v 0.190918 0.900000 -0.874625
v 0.190918 0.900000 -0.974625
v 0.190918 1.000000 -0.874625
v 0.190918 1.000000 -0.974625
v 0.190918 1.000000 0.925375
v 0.190918 1.000000 0.825375
v 0.190918 1.100000 0.925375
v 0.190918 1.100000 0.825375
v 0.190918 1.100000 0.225375
v 0.190918 1.100000 -0.874625
v 0.190918 1.100000 0.625375
v 0.190918 1.100000 0.525375
v 0.190918 1.200000 0.625375
v 0.190918 1.200000 0.525375
v 0.290918 0.500000 0.225375
v 0.290918 0.500000 -0.874625
v 0.290918 0.600000 -0.874625
v 0.290918 0.600000 0.925375
v 0.290918 0.600000 0.625375
v 0.290918 0.700000 0.925375
v 0.290918 0.700000 0.825375
v 0.290918 0.700000 0.625375
v 0.290918 0.700000 1.025375
v 0.290918 0.900000 1.025375
v 0.290918 0.900000 0.925375
v 0.290918 0.900000 0.825375
v 0.290918 0.600000 -0.974625
v 0.290918 0.900000 -0.874625
v 0.290918 0.900000 -0.974625
v 0.290918 0.900000 0.625375
v 0.290918 1.000000 0.925375
v 0.290918 1.000000 0.825375
v 0.290918 1.000000 0.225375
v 0.290918 1.000000 -0.874625
v 0.290918 1.100000 0.825375
v 0.290918 1.100000 0.625375
v 0.390918 0.600000 0.625375
v 0.390918 0.600000 0.425375
v 0.390918 0.700000 0.625375
v 0.390918 0.700000 0.825375
v 0.390918 0.900000 0.825375
v 0.390918 0.900000 0.625375
v 0.390918 0.900000 0.525375
v 0.390918 0.900000 0.425375
v 0.390918 1.000000 0.625375
v 0.390918 1.000000 0.525375
v 0.490918 0.900000 0.525375
v 0.490918 0.900000 0.425375
v 0.490918 1.000000 0.525375
v 0.490918 1.000000 0.425375
v 0.490918 1.000000 0.625375
v 0.490918 1.200000 0.625375
v 0.490918 1.200000 0.525375
v 0.590918 -0.000000 0.125375
v 0.590918 -0.000000 0.025375
v 0.590918 0.100000 0.125375
v 0.590918 0.000000 -0.074625
v 0.590918 0.100000 0.025375
v 0.590918 0.000000 -0.674625
v 0.590918 0.000000 -0.774625
v 0.590918 0.100000 -0.674625
v 0.590918 0.000000 -0.874625
v 0.590918 0.100000 -0.774625
v 0.590918 0.400000 0.125375
v 0.590918 0.400000 -0.074625
v 0.590918 0.400000 -0.674625
v 0.590918 0.400000 -0.874625
v 0.590918 0.500000 0.225375
v 0.590918 0.500000 -0.074625
v 0.590918 0.900000 0.025375
v 0.590918 0.900000 -0.074625
v 0.590918 0.500000 -0.574625
v 0.590918 0.500000 -0.874625
v 0.590918 0.900000 -0.774625
v 0.590918 0.900000 -0.874625
v 0.590918 1.000000 0.225375
v 0.590918 1.000000 0.025375
v 0.590918 1.000000 -0.574625
v 0.590918 1.000000 -0.774625
v 0.590918 1.000000 0.525375
v 0.590918 1.000000 0.425375
v 0.590918 1.300000 0.525375
v 0.590918 1.300000 0.425375
v 0.090918 0.700000 1.325375
v -0.109082 0.900000 1.325375
v -0.109082 0.700000 1.325375
v 0.090918 0.900000 1.325375
v -0.109082 0.700000 1.225375
v -0.209082 0.800000 1.225375
v -0.209082 0.600000 1.225375
v -0.109082 0.800000 1.225375
v 0.090918 0.700000 1.225375
v 0.190918 0.600000 1.225375
v 0.090918 0.800000 1.225375
v 0.190918 0.800000 1.225375
v -0.109082 0.800000 1.125375
v -0.209082 0.900000 1.125375
v -0.209082 0.800000 1.125375
v -0.109082 0.900000 1.125375
v 0.190918 0.800000 1.125375
v 0.090918 0.900000 1.125375
v 0.090918 0.800000 1.125375
v 0.190918 0.900000 1.125375
v -0.209082 0.700000 1.025375
v -0.309082 0.900000 1.025375
v -0.309082 0.700000 1.025375
v -0.209082 0.900000 1.025375
v 0.090918 0.900000 1.025375
v -0.109082 1.000000 1.025375
v -0.109082 0.900000 1.025375
v 0.090918 1.000000 1.025375
v 0.290918 0.700000 1.025375
v 0.190918 0.900000 1.025375
v 0.190918 0.700000 1.025375
v 0.290918 0.900000 1.025375
v -0.209082 0.600000 0.925375
v -0.309082 0.700000 0.925375
v -0.309082 0.600000 0.925375
v -0.209082 0.700000 0.925375
v -0.209082 0.900000 0.925375
v -0.309082 1.000000 0.925375
v -0.309082 0.900000 0.925375
v -0.209082 1.000000 0.925375
v -0.109082 0.900000 0.925375
v -0.109082 1.000000 0.925375
v -0.209082 1.100000 0.925375
v 0.090918 1.000000 0.925375
v 0.190918 0.900000 0.925375
v 0.090918 0.900000 0.925375
v 0.190918 1.000000 0.925375
v 0.190918 1.100000 0.925375
v 0.290918 0.600000 0.925375
v 0.190918 0.700000 0.925375
v 0.190918 0.600000 0.925375
v 0.290918 0.700000 0.925375
v 0.290918 0.900000 0.925375
v 0.290918 1.000000 0.925375
v -0.309082 0.700000 0.825375
v -0.409082 0.900000 0.825375
v -0.409082 0.700000 0.825375
v -0.309082 0.900000 0.825375
v -0.209082 1.000000 0.825375
v -0.309082 1.100000 0.825375
v -0.309082 1.000000 0.825375
v -0.209082 1.100000 0.825375
v 0.290918 1.000000 0.825375
v 0.190918 1.100000 0.825375
v 0.190918 1.000000 0.825375
v 0.290918 1.100000 0.825375
v 0.390918 0.700000 0.825375
v 0.290918 0.900000 0.825375
v 0.290918 0.700000 0.825375
v 0.390918 0.900000 0.825375
v -0.409082 1.000000 0.625375
v -0.509082 1.200000 0.625375
v -0.509082 1.000000 0.625375
v -0.409082 1.100000 0.625375
v -0.309082 0.600000 0.625375
v -0.409082 0.700000 0.625375
v -0.409082 0.600000 0.625375
v -0.309082 0.700000 0.625375
v -0.309082 0.900000 0.625375
v -0.409082 0.900000 0.625375
v -0.309082 1.100000 0.625375
v -0.309082 1.200000 0.625375
v 0.190918 1.100000 0.625375
v -0.209082 1.200000 0.625375
v -0.209082 1.100000 0.625375
v 0.190918 1.200000 0.625375
v 0.390918 0.600000 0.625375
v 0.290918 0.700000 0.625375
v 0.290918 0.600000 0.625375
v 0.390918 0.700000 0.625375
v 0.390918 0.900000 0.625375
v 0.290918 1.100000 0.625375
v 0.290918 0.900000 0.625375
v 0.390918 1.000000 0.625375
v 0.390918 1.100000 0.625375
v 0.290918 1.200000 0.625375
v 0.490918 1.000000 0.625375
v 0.490918 1.200000 0.625375
v -0.509082 1.000000 0.525375
v -0.609082 1.300000 0.525375
v -0.609082 1.000000 0.525375
v -0.509082 1.200000 0.525375
v -0.409082 0.900000 0.525375
v -0.509082 0.900000 0.525375
v -0.409082 1.000000 0.525375
v -0.309082 1.200000 0.525375
v -0.309082 1.300000 0.525375
v -0.209082 1.100000 0.525375
v -0.309082 1.100000 0.525375
v -0.209082 1.200000 0.525375
v 0.290918 1.100000 0.525375
v 0.190918 1.200000 0.525375
v 0.190918 1.100000 0.525375
v 0.290918 1.200000 0.525375
v 0.490918 0.900000 0.525375
v 0.390918 1.000000 0.525375
v 0.390918 0.900000 0.525375
v 0.490918 1.000000 0.525375
v 0.490918 1.200000 0.525375
v 0.290918 1.300000 0.525375
v 0.590918 1.000000 0.525375
v 0.590918 1.300000 0.525375
v 0.190918 0.500000 0.325375
v -0.209082 1.000000 0.325375
v -0.209082 0.500000 0.325375
v 0.190918 1.000000 0.325375
v -0.409082 0.500000 0.225375
v -0.609082 1.000000 0.225375
v -0.609082 0.500000 0.225375
v -0.409082 1.000000 0.225375
v -0.209082 0.500000 0.225375
v -0.309082 1.000000 0.225375
v -0.309082 0.500000 0.225375
v -0.209082 1.000000 0.225375
v 0.190918 0.400000 0.225375
v -0.209082 0.400000 0.225375
v 0.190918 0.500000 0.225375
v 0.190918 1.000000 0.225375
v -0.209082 1.100000 0.225375
v 0.190918 1.100000 0.225375
v 0.290918 0.500000 0.225375
v 0.290918 1.000000 0.225375
v 0.590918 0.500000 0.225375
v 0.390918 1.000000 0.225375
v 0.390918 0.500000 0.225375
v 0.590918 1.000000 0.225375
v -0.409082 0.000000 0.125375
v -0.609082 0.100000 0.125375
v -0.609082 0.000000 0.125375
v -0.409082 0.100000 0.125375
v -0.609082 0.400000 0.125375
v -0.409082 0.400000 0.125375
v 0.590918 -0.000000 0.125375
v 0.390918 0.100000 0.125375
v 0.390918 -0.000000 0.125375
v 0.590918 0.100000 0.125375
v 0.390918 0.400000 0.125375
v 0.590918 0.400000 0.125375
v -0.409082 0.500000 -0.574625
v -0.609082 1.000000 -0.574625
v -0.609082 0.500000 -0.574625
v -0.409082 1.000000 -0.574625
v 0.590918 0.500000 -0.574625
v 0.390918 1.000000 -0.574625
v 0.390918 0.500000 -0.574625
v 0.590918 1.000000 -0.574625
v -0.409082 -0.000000 -0.674625
v -0.609082 0.100000 -0.674625
v -0.609082 -0.000000 -0.674625
v -0.409082 0.100000 -0.674625
v -0.609082 0.400000 -0.674625
v -0.409082 0.400000 -0.674625
v 0.590918 0.000000 -0.674625
v 0.390918 0.100000 -0.674625
v 0.390918 0.000000 -0.674625
v 0.590918 0.100000 -0.674625
v 0.390918 0.400000 -0.674625
v 0.590918 0.400000 -0.674625
v -0.109082 0.800000 -1.074625
v -0.209082 1.100000 -1.074625
v -0.209082 0.800000 -1.074625
v -0.109082 1.000000 -1.074625
v -0.009082 1.000000 -1.074625
v 0.090918 1.000000 -1.074625
v 0.090918 1.100000 -1.074625
v -0.009082 0.900000 -1.274625
v -0.109082 0.900000 -1.274625
v -0.109082 0.800000 -1.274625
v -0.009082 1.000000 -1.274625
v -0.209082 1.100000 -1.274625
v -0.209082 1.000000 -1.274625
v 0.090918 0.800000 -1.274625
v 0.090918 1.100000 -1.274625
v -0.609082 1.000000 0.425375
v -0.609082 1.300000 0.425375
v -0.509082 1.000000 0.425375
v -0.509082 0.900000 0.425375
v -0.409082 0.900000 0.425375
v -0.309082 1.200000 0.425375
v -0.409082 0.600000 0.425375
v -0.309082 1.300000 0.425375
v 0.290918 1.200000 0.425375
v 0.390918 0.600000 0.425375
v 0.290918 1.300000 0.425375
v 0.390918 0.900000 0.425375
v 0.490918 0.900000 0.425375
v 0.490918 1.000000 0.425375
v 0.590918 1.000000 0.425375
v 0.590918 1.300000 0.425375
v -0.609082 0.900000 0.025375
v -0.609082 1.000000 0.025375
v -0.409082 0.900000 0.025375
v -0.409082 1.000000 0.025375
v 0.390918 0.900000 0.025375
v 0.390918 1.000000 0.025375
v 0.590918 0.900000 0.025375
v 0.590918 1.000000 0.025375
v -0.609082 0.000000 -0.074625
v -0.609082 0.400000 -0.074625
v -0.409082 0.000000 -0.074625
v -0.409082 0.400000 -0.074625
v -0.609082 0.500000 -0.074625
v -0.609082 0.900000 -0.074625
v -0.409082 0.500000 -0.074625
v -0.409082 0.900000 -0.074625
v 0.390918 0.000000 -0.074625
v 0.390918 0.400000 -0.074625
v 0.590918 0.000000 -0.074625
v 0.590918 0.400000 -0.074625
v 0.390918 0.500000 -0.074625
v 0.390918 0.900000 -0.074625
v 0.590918 0.500000 -0.074625
v 0.590918 0.900000 -0.074625
v -0.609082 0.900000 -0.774625
v -0.609082 1.000000 -0.774625
v -0.409082 0.900000 -0.774625
v -0.409082 1.000000 -0.774625
v 0.390918 0.900000 -0.774625
v 0.390918 1.000000 -0.774625
v 0.590918 0.900000 -0.774625
v 0.590918 1.000000 -0.774625
v -0.609082 0.000000 -0.874625
v -0.609082 0.400000 -0.874625
v -0.409082 0.000000 -0.874625
v -0.409082 0.400000 -0.874625
v -0.609082 0.500000 -0.874625
v -0.609082 0.900000 -0.874625
v -0.409082 0.500000 -0.874625
v -0.409082 0.900000 -0.874625
v -0.309082 0.500000 -0.874625
v -0.309082 0.600000 -0.874625
v -0.209082 0.500000 -0.874625
v -0.209082 0.600000 -0.874625
v -0.309082 0.900000 -0.874625
v -0.309082 1.000000 -0.874625
v -0.209082 0.900000 -0.874625
v -0.209082 1.000000 -0.874625
v -0.209082 0.400000 -0.874625
v 0.190918 0.400000 -0.874625
v 0.190918 0.500000 -0.874625
v -0.209082 1.100000 -0.874625
v 0.190918 1.000000 -0.874625
v 0.190918 1.100000 -0.874625
v 0.190918 0.600000 -0.874625
v 0.290918 0.500000 -0.874625
v 0.290918 0.600000 -0.874625
v 0.190918 0.900000 -0.874625
v 0.290918 0.900000 -0.874625
v 0.290918 1.000000 -0.874625
v 0.390918 0.000000 -0.874625
v 0.390918 0.400000 -0.874625
v 0.590918 0.000000 -0.874625
v 0.590918 0.400000 -0.874625
v 0.390918 0.500000 -0.874625
v 0.390918 0.900000 -0.874625
v 0.590918 0.500000 -0.874625
v 0.590918 0.900000 -0.874625
v -0.309082 0.600000 -0.974625
v -0.309082 0.900000 -0.974625
v -0.209082 0.600000 -0.974625
v -0.209082 0.900000 -0.974625
v -0.209082 0.500000 -0.974625
v -0.009082 0.900000 -0.974625
v -0.209082 1.000000 -0.974625
v -0.009082 1.000000 -0.974625
v 0.090918 0.900000 -0.974625
v 0.190918 0.500000 -0.974625
v 0.090918 1.000000 -0.974625
v 0.190918 0.600000 -0.974625
v 0.190918 0.900000 -0.974625
v 0.190918 1.000000 -0.974625
v 0.290918 0.600000 -0.974625
v 0.290918 0.900000 -0.974625
v -0.209082 0.900000 -1.174625
v -0.209082 1.100000 -1.174625
v -0.109082 0.900000 -1.174625
v -0.109082 1.000000 -1.174625
v -0.009082 1.000000 -1.174625
v -0.009082 0.900000 -1.174625
v 0.090918 0.900000 -1.174625
v 0.090918 1.100000 -1.174625
v -0.209082 0.800000 -1.374625
v -0.209082 0.900000 -1.374625
v -0.009082 0.900000 -1.374625
v -0.209082 1.000000 -1.374625
v -0.209082 1.100000 -1.374625
v -0.009082 1.000000 -1.374625
v 0.090918 0.800000 -1.374625
v 0.090918 1.100000 -1.374625
v -0.609082 0.000000 0.025375
v -0.409082 0.000000 0.125375
v -0.609082 0.000000 0.125375
v -0.409082 0.000000 0.025375
v 0.390918 -0.000000 0.025375
v 0.590918 -0.000000 0.125375
v 0.390918 -0.000000 0.125375
v 0.590918 -0.000000 0.025375
v -0.609082 0.000000 -0.074625
v -0.409082 0.000000 -0.074625
v 0.390918 0.000000 -0.074625
v 0.590918 0.000000 -0.074625
v -0.609082 0.000000 -0.774625
v -0.409082 -0.000000 -0.674625
v -0.609082 -0.000000 -0.674625
v -0.409082 0.000000 -0.774625
v 0.390918 0.000000 -0.774625
v 0.590918 0.000000 -0.674625
v 0.390918 0.000000 -0.674625
v 0.590918 0.000000 -0.774625
v -0.609082 0.000000 -0.874625
v -0.409082 0.000000 -0.874625
v 0.390918 0.000000 -0.874625
v 0.590918 0.000000 -0.874625
v -0.209082 0.400000 -0.874625
v 0.190918 0.400000 0.225375
v -0.209082 0.400000 0.225375
v 0.190918 0.400000 -0.874625
v -0.209082 0.500000 0.225375
v 0.190918 0.500000 0.325375
v -0.209082 0.500000 0.325375
v 0.190918 0.500000 0.225375
v -0.609082 0.500000 -0.074625
v -0.409082 0.500000 0.225375
v -0.609082 0.500000 0.225375
v -0.409082 0.500000 -0.074625
v 0.390918 0.500000 -0.074625
v 0.590918 0.500000 0.225375
v 0.390918 0.500000 0.225375
v 0.590918 0.500000 -0.074625
v -0.609082 0.500000 -0.874625
v -0.409082 0.500000 -0.574625
v -0.609082 0.500000 -0.574625
v -0.409082 0.500000 -0.874625
v -0.309082 0.500000 -0.874625
v -0.309082 0.500000 0.225375
v -0.209082 0.500000 -0.874625
v 0.190918 0.500000 -0.874625
v 0.290918 0.500000 0.225375
v 0.290918 0.500000 -0.874625
v 0.390918 0.500000 -0.874625
v 0.590918 0.500000 -0.574625
v 0.390918 0.500000 -0.574625
v 0.590918 0.500000 -0.874625
v -0.209082 0.500000 -0.974625
v 0.190918 0.500000 -0.974625
v -0.209082 0.600000 0.925375
v 0.190918 0.600000 1.225375
v -0.209082 0.600000 1.225375
v 0.190918 0.600000 0.925375
v -0.309082 0.600000 0.625375
v -0.309082 0.600000 0.925375
v 0.290918 0.600000 0.925375
v 0.290918 0.600000 0.625375
v -0.409082 0.600000 0.425375
v -0.409082 0.600000 0.625375
v 0.390918 0.600000 0.625375
v 0.390918 0.600000 0.425375
v -0.309082 0.600000 -0.974625
v -0.209082 0.600000 -0.874625
v -0.309082 0.600000 -0.874625
v -0.209082 0.600000 -0.974625
v 0.190918 0.600000 -0.974625
v 0.290918 0.600000 -0.874625
v 0.190918 0.600000 -0.874625
v 0.290918 0.600000 -0.974625
v -0.109082 0.700000 1.225375
v 0.090918 0.700000 1.325375
v -0.109082 0.700000 1.325375
v 0.090918 0.700000 1.225375
v -0.309082 0.700000 0.925375
v -0.209082 0.700000 1.025375
v -0.309082 0.700000 1.025375
v -0.209082 0.700000 0.925375
v 0.190918 0.700000 0.925375
v 0.290918 0.700000 1.025375
v 0.190918 0.700000 1.025375
v 0.290918 0.700000 0.925375
v -0.409082 0.700000 0.625375
v -0.309082 0.700000 0.825375
v -0.409082 0.700000 0.825375
v -0.309082 0.700000 0.625375
v 0.290918 0.700000 0.625375
v 0.390918 0.700000 0.825375
v 0.290918 0.700000 0.825375
v 0.390918 0.700000 0.625375
v -0.109082 0.800000 -1.274625
v -0.109082 0.800000 -1.074625
v -0.209082 0.800000 -1.074625
v -0.209082 0.800000 -1.374625
v 0.090918 0.800000 -1.274625
v 0.090918 0.800000 -1.374625
v -0.509082 0.900000 0.425375
v -0.409082 0.900000 0.525375
v -0.509082 0.900000 0.525375
v -0.409082 0.900000 0.425375
v 0.390918 0.900000 0.425375
v 0.490918 0.900000 0.525375
v 0.390918 0.900000 0.525375
v 0.490918 0.900000 0.425375
v -0.009082 0.900000 -1.174625
v 0.090918 0.900000 -0.974625
v -0.009082 0.900000 -0.974625
v 0.090918 0.900000 -1.174625
v -0.509082 1.000000 0.525375
v -0.409082 1.000000 0.625375
v -0.509082 1.000000 0.625375
v -0.409082 1.000000 0.525375
v 0.390918 1.000000 0.525375
v 0.490918 1.000000 0.625375
v 0.390918 1.000000 0.625375
v 0.490918 1.000000 0.525375
v -0.609082 1.000000 0.425375
v -0.609082 1.000000 0.525375
v -0.509082 1.000000 0.425375
v 0.490918 1.000000 0.425375
v 0.590918 1.000000 0.525375
v 0.590918 1.000000 0.425375
v -0.109082 1.000000 -1.174625
v -0.009082 1.000000 -1.074625
v -0.109082 1.000000 -1.074625
v -0.009082 1.000000 -1.174625
v -0.209082 1.000000 -1.374625
v -0.009082 1.000000 -1.274625
v -0.209082 1.000000 -1.274625
v -0.009082 1.000000 -1.374625
v -0.609082 0.400000 0.125375
v -0.409082 0.400000 0.125375
v -0.609082 0.400000 -0.074625
v -0.409082 0.400000 -0.074625
v 0.390918 0.400000 0.125375
v 0.590918 0.400000 0.125375
v 0.390918 0.400000 -0.074625
v 0.590918 0.400000 -0.074625
v -0.609082 0.400000 -0.674625
v -0.409082 0.400000 -0.674625
v -0.609082 0.400000 -0.874625
v -0.409082 0.400000 -0.874625
v 0.390918 0.400000 -0.674625
v 0.590918 0.400000 -0.674625
v 0.390918 0.400000 -0.874625
v 0.590918 0.400000 -0.874625
v -0.209082 0.800000 1.225375
v -0.109082 0.800000 1.225375
v -0.209082 0.800000 1.125375
v -0.109082 0.800000 1.125375
v 0.090918 0.800000 1.225375
v 0.190918 0.800000 1.225375
v 0.090918 0.800000 1.125375
v 0.190918 0.800000 1.125375
v -0.109082 0.900000 1.325375
v 0.090918 0.900000 1.325375
v -0.109082 0.900000 1.225375
v 0.090918 0.900000 1.225375
v -0.109082 0.900000 1.125375
v 0.090918 0.900000 1.125375
v -0.209082 0.900000 1.025375
v 0.190918 0.900000 1.125375
v -0.209082 0.900000 1.125375
v -0.109082 0.900000 1.025375
v 0.090918 0.900000 1.025375
v 0.190918 0.900000 1.025375
v -0.309082 0.900000 1.025375
v -0.309082 0.900000 0.925375
v -0.209082 0.900000 0.925375
v -0.109082 0.900000 0.925375
v 0.290918 0.900000 1.025375
v 0.090918 0.900000 0.925375
v 0.190918 0.900000 0.925375
v 0.290918 0.900000 0.925375
v -0.409082 0.900000 0.825375
v -0.309082 0.900000 0.825375
v -0.409082 0.900000 0.625375
v -0.309082 0.900000 0.625375
v 0.290918 0.900000 0.825375
v 0.390918 0.900000 0.825375
v 0.290918 0.900000 0.625375
v 0.390918 0.900000 0.625375
v -0.609082 0.900000 0.025375
v -0.409082 0.900000 0.025375
v -0.609082 0.900000 -0.074625
v -0.409082 0.900000 -0.074625
v 0.390918 0.900000 0.025375
v 0.590918 0.900000 0.025375
v 0.390918 0.900000 -0.074625
v 0.590918 0.900000 -0.074625
v -0.609082 0.900000 -0.774625
v -0.409082 0.900000 -0.774625
v -0.609082 0.900000 -0.874625
v -0.409082 0.900000 -0.874625
v 0.390918 0.900000 -0.774625
v 0.590918 0.900000 -0.774625
v 0.390918 0.900000 -0.874625
v 0.590918 0.900000 -0.874625
v -0.309082 0.900000 -0.874625
v -0.209082 0.900000 -0.874625
v -0.309082 0.900000 -0.974625
v -0.209082 0.900000 -0.974625
v 0.190918 0.900000 -0.874625
v 0.290918 0.900000 -0.874625
v 0.190918 0.900000 -0.974625
v 0.290918 0.900000 -0.974625
v -0.209082 0.900000 -1.174625
v -0.109082 0.900000 -1.174625
v -0.109082 0.900000 -1.274625
v -0.209082 0.900000 -1.374625
v -0.009082 0.900000 -1.274625
v -0.009082 0.900000 -1.374625
v -0.109082 1.000000 1.025375
v 0.090918 1.000000 1.025375
v -0.109082 1.000000 0.925375
v 0.090918 1.000000 0.925375
v -0.309082 1.000000 0.925375
v -0.209082 1.000000 0.925375
v -0.309082 1.000000 0.825375
v -0.209082 1.000000 0.825375
v 0.190918 1.000000 0.925375
v 0.290918 1.000000 0.925375
v 0.190918 1.000000 0.825375
v 0.290918 1.000000 0.825375
v -0.209082 1.000000 0.325375
v 0.190918 1.000000 0.325375
v -0.209082 1.000000 0.225375
v 0.190918 1.000000 0.225375
v -0.609082 1.000000 0.225375
v -0.409082 1.000000 0.225375
v -0.609082 1.000000 0.025375
v -0.409082 1.000000 0.025375
v 0.390918 1.000000 0.225375
v 0.590918 1.000000 0.225375
v 0.390918 1.000000 0.025375
v 0.590918 1.000000 0.025375
v -0.609082 1.000000 -0.574625
v -0.409082 1.000000 -0.574625
v -0.609082 1.000000 -0.774625
v -0.409082 1.000000 -0.774625
v 0.390918 1.000000 -0.574625
v 0.590918 1.000000 -0.574625
v 0.390918 1.000000 -0.774625
v 0.590918 1.000000 -0.774625
v -0.309082 1.000000 0.225375
v -0.309082 1.000000 -0.874625
v -0.209082 1.000000 -0.874625
v 0.290918 1.000000 0.225375
v 0.190918 1.000000 -0.874625
v 0.290918 1.000000 -0.874625
v -0.209082 1.000000 -0.974625
v -0.009082 1.000000 -0.974625
v 0.090918 1.000000 -0.974625
v 0.190918 1.000000 -0.974625
v -0.009082 1.000000 -1.074625
v 0.090918 1.000000 -1.074625
v -0.209082 1.100000 0.925375
v 0.190918 1.100000 0.925375
v -0.209082 1.100000 0.825375
v 0.190918 1.100000 0.825375
v -0.309082 1.100000 0.825375
v -0.309082 1.100000 0.625375
v 0.290918 1.100000 0.825375
v -0.209082 1.100000 0.625375
v 0.190918 1.100000 0.625375
v 0.290918 1.100000 0.625375
v -0.309082 1.100000 0.525375
v -0.209082 1.100000 0.525375
v 0.190918 1.100000 0.525375
v 0.290918 1.100000 0.525375
v -0.209082 1.100000 0.225375
v 0.190918 1.100000 0.225375
v -0.209082 1.100000 -0.874625
v 0.190918 1.100000 -0.874625
v -0.209082 1.100000 -1.074625
v 0.090918 1.100000 -1.074625
v -0.209082 1.100000 -1.174625
v 0.090918 1.100000 -1.174625
v -0.209082 1.100000 -1.274625
v 0.090918 1.100000 -1.274625
v -0.209082 1.100000 -1.374625
v 0.090918 1.100000 -1.374625
v -0.509082 1.200000 0.625375
v -0.309082 1.200000 0.625375
v -0.509082 1.200000 0.525375
v -0.309082 1.200000 0.525375
v -0.209082 1.200000 0.625375
v 0.190918 1.200000 0.625375
v -0.209082 1.200000 0.525375
v 0.190918 1.200000 0.525375
v 0.290918 1.200000 0.625375
v 0.490918 1.200000 0.625375
v 0.290918 1.200000 0.525375
v 0.490918 1.200000 0.525375
v -0.309082 1.200000 0.425375
v 0.290918 1.200000 0.425375
v -0.609082 1.300000 0.525375
v -0.309082 1.300000 0.525375
v -0.609082 1.300000 0.425375
v -0.309082 1.300000 0.425375
v 0.290918 1.300000 0.525375
v 0.590918 1.300000 0.525375
v 0.290918 1.300000 0.425375
v 0.590918 1.300000 0.425375
vt 0.029297 0.500000
vt 0.029297 0.500000
vt 0.029297 0.500000
vt 0.025391 0.500000
vt 0.025391 0.500000
vt 0.025391 0.500000
vt 0.029297 0.500000
vt 0.029297 0.500000
vt 0.029297 0.500000
vt 0.029297 0.500000
vt 0.025391 0.500000
vt 0.025391 0.500000
vt 0.025391 0.500000
vt 0.029297 0.500000
vt 0.025391 0.500000
vt 0.025391 0.500000
vt 0.025391 0.500000
vt 0.025391 0.500000
vt 0.025391 0.500000
vt 0.025391 0.500000
vt 0.025391 0.500000
vt 0.025391 0.500000
vt 0.025391 0.500000
vt 0.025391 0.500000
vt 0.025391 0.500000
vt 0.025391 0.500000
vt 0.025391 0.500000
vt 0.025391 0.500000
vt 0.025391 0.500000
vt 0.025391 0.500000
vt 0.025391 0.500000
vt 0.025391 0.500000
vt 0.025391 0.500000
vt 0.025391 0.500000
vt 0.025391 0.500000
vt 0.025391 0.500000
vt 0.025391 0.500000
vt 0.025391 0.500000
vt 0.025391 0.500000
vt 0.025391 0.500000
vt 0.060547 0.500000
vt 0.060547 0.500000
vt 0.060547 0.500000
vt 0.060547 0.500000
vt 0.025391 0.500000
vt 0.025391 0.500000
vt 0.025391 0.500000
vt 0.025391 0.500000
vt 0.025391 0.500000
vt 0.025391 0.500000
vt 0.025391 0.500000
vt 0.025391 0.500000
vt 0.025391 0.500000
vt 0.025391 0.500000
vt 0.025391 0.500000
vt 0.025391 0.500000
vt 0.025391 0.500000
vt 0.025391 0.500000
vt 0.025391 0.500000
vt 0.025391 0.500000
vt 0.025391 0.500000
vt 0.025391 0.500000
vt 0.025391 0.500000
vt 0.025391 0.500000
vt 0.025391 0.500000
vt 0.025391 0.500000
vt 0.025391 0.500000
vt 0.025391 0.500000
vt 0.025391 0.500000
vt 0.025391 0.500000
vt 0.025391 0.500000
vt 0.025391 0.500000
vt 0.025391 0.500000
vt 0.025391 0.500000
vt 0.025391 0.500000
vt 0.025391 0.500000
vt 0.025391 0.500000
vt 0.025391 0.500000
vt 0.025391 0.500000
vt 0.025391 0.500000
vt 0.025391 0.500000
vt 0.025391 0.500000
vt 0.025391 0.500000
vt 0.025391 0.500000
vt 0.025391 0.500000
vt 0.025391 0.500000
vt 0.025391 0.500000
vt 0.025391 0.500000
vt 0.025391 0.500000
vt 0.025391 0.500000
vt 0.025391 0.500000
vt 0.025391 0.500000
vt 0.025391 0.500000
vt 0.025391 0.500000
vt 0.025391 0.500000
vt 0.025391 0.500000
vt 0.025391 0.500000
vt 0.025391 0.500000
vt 0.025391 0.500000
vt 0.025391 0.500000
vt 0.025391 0.500000
vt 0.025391 0.500000
vt 0.025391 0.500000
vt 0.025391 0.500000
vt 0.025391 0.500000
vt 0.025391 0.500000
vt 0.025391 0.500000
vt 0.025391 0.500000
vt 0.025391 0.500000
vt 0.025391 0.500000
vt 0.025391 0.500000
vt 0.025391 0.500000
vt 0.025391 0.500000
vt 0.025391 0.500000
vt 0.025391 0.500000
vt 0.025391 0.500000
vt 0.025391 0.500000
vt 0.025391 0.500000
vt 0.060547 0.500000
vt 0.060547 0.500000
vt 0.060547 0.500000
vt 0.060547 0.500000
vt 0.025391 0.500000
vt 0.025391 0.500000
vt 0.025391 0.500000
vt 0.060547 0.500000
vt 0.025391 0.500000
vt 0.025391 0.500000
vt 0.025391 0.500000
vt 0.025391 0.500000
vt 0.025391 0.500000
vt 0.025391 0.500000
vt 0.025391 0.500000
vt 0.025391 0.500000
vt 0.025391 0.500000
vt 0.025391 0.500000
vt 0.025391 0.500000
vt 0.025391 0.500000
vt 0.025391 0.500000
vt 0.025391 0.500000
vt 0.060547 0.500000
vt 0.060547 0.500000
vt 0.060547 0.500000
vt 0.060547 0.500000
vt 0.025391 0.500000
vt 0.025391 0.500000
vt 0.025391 0.500000
vt 0.025391 0.500000
vt 0.029297 0.500000
vt 0.029297 0.500000
vt 0.029297 0.500000
vt 0.025391 0.500000
vt 0.025391 0.500000
vt 0.025391 0.500000
vt 0.029297 0.500000
vt 0.029297 0.500000
vt 0.029297 0.500000
vt 0.029297 0.500000
vt 0.025391 0.500000
vt 0.025391 0.500000
vt 0.025391 0.500000
vt 0.029297 0.500000
vt 0.025391 0.500000
vt 0.025391 0.500000
vt 0.025391 0.500000
vt 0.025391 0.500000
vt 0.025391 0.500000
vt 0.025391 0.500000
vt 0.025391 0.500000
vt 0.025391 0.500000
vt 0.025391 0.500000
vt 0.025391 0.500000
vt 0.025391 0.500000
vt 0.025391 0.500000
vt 0.025391 0.500000
vt 0.025391 0.500000
vt 0.025391 0.500000
vt 0.025391 0.500000
vt 0.025391 0.500000
vt 0.025391 0.500000
vt 0.029297 0.500000
vt 0.029297 0.500000
vt 0.029297 0.500000
vt 0.025391 0.500000
vt 0.025391 0.500000
vt 0.025391 0.500000
vt 0.029297 0.500000
vt 0.029297 0.500000
vt 0.029297 0.500000
vt 0.029297 0.500000
vt 0.025391 0.500000
vt 0.025391 0.500000
vt 0.025391 0.500000
vt 0.029297 0.500000
vt 0.025391 0.500000
vt 0.025391 0.500000
vt 0.025391 0.500000
vt 0.025391 0.500000
vt 0.025391 0.500000
vt 0.025391 0.500000
vt 0.025391 0.500000
vt 0.025391 0.500000
vt 0.025391 0.500000
vt 0.025391 0.500000
vt 0.025391 0.500000
vt 0.025391 0.500000
vt 0.025391 0.500000
vt 0.025391 0.500000
vt 0.025391 0.500000
vt 0.025391 0.500000
vt 0.025391 0.500000
vt 0.025391 0.500000
vt 0.060547 0.500000
vt 0.060547 0.500000
vt 0.060547 0.500000
vt 0.060547 0.500000
vt 0.025391 0.500000
vt 0.025391 0.500000
vt 0.025391 0.500000
vt 0.025391 0.500000
vt 0.025391 0.500000
vt 0.025391 0.500000
vt 0.025391 0.500000
vt 0.025391 0.500000
vt 0.025391 0.500000
vt 0.025391 0.500000
vt 0.060547 0.500000
vt 0.060547 0.500000
vt 0.060547 0.500000
vt 0.060547 0.500000
vt 0.025391 0.500000
vt 0.025391 0.500000
vt 0.025391 0.500000
vt 0.060547 0.500000
vt 0.025391 0.500000
vt 0.025391 0.500000
vt 0.025391 0.500000
vt 0.025391 0.500000
vt 0.025391 0.500000
vt 0.025391 0.500000
vt 0.025391 0.500000
vt 0.025391 0.500000
vt 0.025391 0.500000
vt 0.025391 0.500000
vt 0.025391 0.500000
vt 0.025391 0.500000
vt 0.025391 0.500000
vt 0.025391 0.500000
vt 0.025391 0.500000
vt 0.025391 0.500000
vt 0.025391 0.500000
vt 0.025391 0.500000
vt 0.025391 0.500000
vt 0.025391 0.500000
vt 0.025391 0.500000
vt 0.025391 0.500000
vt 0.025391 0.500000
vt 0.025391 0.500000
vt 0.025391 0.500000
vt 0.025391 0.500000
vt 0.025391 0.500000
vt 0.025391 0.500000
vt 0.025391 0.500000
vt 0.025391 0.500000
vt 0.025391 0.500000
vt 0.025391 0.500000
vt 0.025391 0.500000
vt 0.025391 0.500000
vt 0.025391 0.500000
vt 0.025391 0.500000
vt 0.025391 0.500000
vt 0.025391 0.500000
vt 0.025391 0.500000
vt 0.025391 0.500000
vt 0.025391 0.500000
vt 0.025391 0.500000
vt 0.025391 0.500000
vt 0.025391 0.500000
vt 0.025391 0.500000
vt 0.025391 0.500000
vt 0.025391 0.500000
vt 0.025391 0.500000
vt 0.025391 0.500000
vt 0.025391 0.500000
vt 0.025391 0.500000
vt 0.025391 0.500000
vt 0.025391 0.500000
vt 0.025391 0.500000
vt 0.025391 0.500000
vt 0.025391 0.500000
vt 0.025391 0.500000
vt 0.025391 0.500000
vt 0.025391 0.500000
vt 0.025391 0.500000
vt 0.025391 0.500000
vt 0.025391 0.500000
vt 0.025391 0.500000
vt 0.025391 0.500000
vt 0.025391 0.500000
vt 0.025391 0.500000
vt 0.025391 0.500000
vt 0.025391 0.500000
vt 0.025391 0.500000
vt 0.025391 0.500000
vt 0.025391 0.500000
vt 0.025391 0.500000
vt 0.025391 0.500000
vt 0.025391 0.500000
vt 0.025391 0.500000
vt 0.025391 0.500000
vt 0.025391 0.500000
vt 0.025391 0.500000
vt 0.025391 0.500000
vt 0.025391 0.500000
vt 0.025391 0.500000
vt 0.025391 0.500000
vt 0.025391 0.500000
vt 0.060547 0.500000
vt 0.060547 0.500000
vt 0.060547 0.500000
vt 0.060547 0.500000
vt 0.029297 0.500000
vt 0.029297 0.500000
vt 0.029297 0.500000
vt 0.025391 0.500000
vt 0.025391 0.500000
vt 0.025391 0.500000
vt 0.029297 0.500000
vt 0.029297 0.500000
vt 0.029297 0.500000
vt 0.029297 0.500000
vt 0.025391 0.500000
vt 0.025391 0.500000
vt 0.025391 0.500000
vt 0.029297 0.500000
vt 0.025391 0.500000
vt 0.025391 0.500000
vt 0.025391 0.500000
vt 0.025391 0.500000
vt 0.025391 0.500000
vt 0.025391 0.500000
vt 0.025391 0.500000
vt 0.025391 0.500000
vt 0.025391 0.500000
vt 0.025391 0.500000
vt 0.025391 0.500000
vt 0.025391 0.500000
vt 0.025391 0.500000
vt 0.025391 0.500000
vt 0.025391 0.500000
vt 0.025391 0.500000
vt 0.025391 0.500000
vt 0.025391 0.500000
vt 0.025391 0.500000
vt 0.025391 0.500000
vt 0.025391 0.500000
vt 0.025391 0.500000
vt 0.060547 0.500000
vt 0.060547 0.500000
vt 0.060547 0.500000
vt 0.060547 0.500000
vt 0.025391 0.500000
vt 0.025391 0.500000
vt 0.025391 0.500000
vt 0.025391 0.500000
vt 0.025391 0.500000
vt 0.025391 0.500000
vt 0.025391 0.500000
vt 0.025391 0.500000
vt 0.025391 0.500000
vt 0.025391 0.500000
vt 0.025391 0.500000
vt 0.025391 0.500000
vt 0.025391 0.500000
vt 0.025391 0.500000
vt 0.025391 0.500000
vt 0.025391 0.500000
vt 0.025391 0.500000
vt 0.025391 0.500000
vt 0.025391 0.500000
vt 0.025391 0.500000
vt 0.025391 0.500000
vt 0.025391 0.500000
vt 0.025391 0.500000
vt 0.025391 0.500000
vt 0.025391 0.500000
vt 0.025391 0.500000
vt 0.025391 0.500000
vt 0.025391 0.500000
vt 0.025391 0.500000
vt 0.025391 0.500000
vt 0.025391 0.500000
vt 0.025391 0.500000
vt 0.025391 0.500000
vt 0.025391 0.500000
vt 0.025391 0.500000
vt 0.025391 0.500000
vt 0.009766 0.500000
vt 0.009766 0.500000
vt 0.009766 0.500000
vt 0.025391 0.500000
vt 0.025391 0.500000
vt 0.009766 0.500000
vt 0.025391 0.500000
vt 0.009766 0.500000
vt 0.009766 0.500000
vt 0.009766 0.500000
vt 0.025391 0.500000
vt 0.009766 0.500000
vt 0.025391 0.500000
vt 0.025391 0.500000
vt 0.025391 0.500000
vt 0.025391 0.500000
vt 0.025391 0.500000
vt 0.025391 0.500000
vt 0.025391 0.500000
vt 0.025391 0.500000
vt 0.025391 0.500000
vt 0.025391 0.500000
vt 0.025391 0.500000
vt 0.025391 0.500000
vt 0.025391 0.500000
vt 0.025391 0.500000
vt 0.025391 0.500000
vt 0.025391 0.500000
vt 0.025391 0.500000
vt 0.025391 0.500000
vt 0.025391 0.500000
vt 0.025391 0.500000
vt 0.025391 0.500000
vt 0.025391 0.500000
vt 0.025391 0.500000
vt 0.025391 0.500000
vt 0.060547 0.500000
vt 0.060547 0.500000
vt 0.060547 0.500000
vt 0.060547 0.500000
vt 0.025391 0.500000
vt 0.025391 0.500000
vt 0.025391 0.500000
vt 0.025391 0.500000
vt 0.025391 0.500000
vt 0.025391 0.500000
vt 0.025391 0.500000
vt 0.025391 0.500000
vt 0.060547 0.500000
vt 0.025391 0.500000
vt 0.060547 0.500000
vt 0.025391 0.500000
vt 0.025391 0.500000
vt 0.025391 0.500000
vt 0.025391 0.500000
vt 0.025391 0.500000
vt 0.025391 0.500000
vt 0.025391 0.500000
vt 0.025391 0.500000
vt 0.025391 0.500000
vt 0.025391 0.500000
vt 0.025391 0.500000
vt 0.025391 0.500000
vt 0.060547 0.500000
vt 0.060547 0.500000
vt 0.060547 0.500000
vt 0.025391 0.500000
vt 0.060547 0.500000
vt 0.060547 0.500000
vt 0.060547 0.500000
vt 0.025391 0.500000
vt 0.025391 0.500000
vt 0.025391 0.500000
vt 0.025391 0.500000
vt 0.025391 0.500000
vt 0.025391 0.500000
vt 0.025391 0.500000
vt 0.025391 0.500000
vt 0.025391 0.500000
vt 0.025391 0.500000
vt 0.025391 0.500000
vt 0.025391 0.500000
vt 0.025391 0.500000
vt 0.025391 0.500000
vt 0.025391 0.500000
vt 0.025391 0.500000
vt 0.025391 0.500000
vt 0.025391 0.500000
vt 0.025391 0.500000
vt 0.025391 0.500000
vt 0.025391 0.500000
vt 0.025391 0.500000
vt 0.025391 0.500000
vt 0.025391 0.500000
vt 0.025391 0.500000
vt 0.025391 0.500000
vt 0.025391 0.500000
vt 0.025391 0.500000
vt 0.025391 0.500000
vt 0.025391 0.500000
vt 0.025391 0.500000
vt 0.025391 0.500000
vt 0.025391 0.500000
vt 0.025391 0.500000
vt 0.025391 0.500000
vt 0.025391 0.500000
vt 0.025391 0.500000
vt 0.025391 0.500000
vt 0.025391 0.500000
vt 0.025391 0.500000
vt 0.025391 0.500000
vt 0.025391 0.500000
vt 0.025391 0.500000
vt 0.025391 0.500000
vt 0.025391 0.500000
vt 0.025391 0.500000
vt 0.025391 0.500000
vt 0.025391 0.500000
vt 0.029297 0.500000
vt 0.029297 0.500000
vt 0.029297 0.500000
vt 0.025391 0.500000
vt 0.025391 0.500000
vt 0.025391 0.500000
vt 0.029297 0.500000
vt 0.025391 0.500000
vt 0.029297 0.500000
vt 0.029297 0.500000
vt 0.029297 0.500000
vt 0.025391 0.500000
vt 0.025391 0.500000
vt 0.025391 0.500000
vt 0.029297 0.500000
vt 0.025391 0.500000
vt 0.025391 0.500000
vt 0.025391 0.500000
vt 0.025391 0.500000
vt 0.025391 0.500000
vt 0.025391 0.500000
vt 0.025391 0.500000
vt 0.025391 0.500000
vt 0.025391 0.500000
vt 0.029297 0.500000
vt 0.029297 0.500000
vt 0.029297 0.500000
vt 0.025391 0.500000
vt 0.025391 0.500000
vt 0.025391 0.500000
vt 0.029297 0.500000
vt 0.025391 0.500000
vt 0.029297 0.500000
vt 0.029297 0.500000
vt 0.029297 0.500000
vt 0.025391 0.500000
vt 0.025391 0.500000
vt 0.025391 0.500000
vt 0.029297 0.500000
vt 0.025391 0.500000
vt 0.025391 0.500000
vt 0.025391 0.500000
vt 0.025391 0.500000
vt 0.025391 0.500000
vt 0.025391 0.500000
vt 0.025391 0.500000
vt 0.025391 0.500000
vt 0.025391 0.500000
vt 0.025391 0.500000
vt 0.025391 0.500000
vt 0.025391 0.500000
vt 0.025391 0.500000
vt 0.025391 0.500000
vt 0.025391 0.500000
vt 0.025391 0.500000
vt 0.025391 0.500000
vt 0.025391 0.500000
vt 0.025391 0.500000
vt 0.025391 0.500000
vt 0.025391 0.500000
vt 0.025391 0.500000
vt 0.025391 0.500000
vt 0.025391 0.500000
vt 0.025391 0.500000
vt 0.025391 0.500000
vt 0.025391 0.500000
vt 0.025391 0.500000
vt 0.025391 0.500000
vt 0.025391 0.500000
vt 0.025391 0.500000
vt 0.025391 0.500000
vt 0.025391 0.500000
vt 0.025391 0.500000
vt 0.025391 0.500000
vt 0.025391 0.500000
vt 0.025391 0.500000
vt 0.025391 0.500000
vt 0.025391 0.500000
vt 0.025391 0.500000
vt 0.025391 0.500000
vt 0.025391 0.500000
vt 0.025391 0.500000
vt 0.025391 0.500000
vt 0.025391 0.500000
vt 0.025391 0.500000
vt 0.025391 0.500000
vt 0.025391 0.500000
vt 0.025391 0.500000
vt 0.025391 0.500000
vt 0.025391 0.500000
vt 0.025391 0.500000
vt 0.025391 0.500000
vt 0.025391 0.500000
vt 0.025391 0.500000
vt 0.025391 0.500000
vt 0.025391 0.500000
vt 0.025391 0.500000
vt 0.025391 0.500000
vt 0.025391 0.500000
vt 0.025391 0.500000
vt 0.025391 0.500000
vt 0.025391 0.500000
vt 0.025391 0.500000
vt 0.025391 0.500000
vt 0.025391 0.500000
vt 0.025391 0.500000
vt 0.025391 0.500000
vt 0.025391 0.500000
vt 0.025391 0.500000
vt 0.025391 0.500000
vt 0.025391 0.500000
vt 0.025391 0.500000
vt 0.025391 0.500000
vt 0.025391 0.500000
vt 0.025391 0.500000
vt 0.025391 0.500000
vt 0.025391 0.500000
vt 0.025391 0.500000
vt 0.025391 0.500000
vt 0.025391 0.500000
vt 0.025391 0.500000
vt 0.025391 0.500000
vt 0.025391 0.500000
vt 0.025391 0.500000
vt 0.025391 0.500000
vt 0.025391 0.500000
vt 0.025391 0.500000
vt 0.025391 0.500000
vt 0.025391 0.500000
vt 0.025391 0.500000
vt 0.025391 0.500000
vt 0.025391 0.500000
vt 0.025391 0.500000
vt 0.025391 0.500000
vt 0.025391 0.500000
vt 0.025391 0.500000
vt 0.025391 0.500000
vt 0.025391 0.500000
vt 0.025391 0.500000
vt 0.025391 0.500000
vt 0.025391 0.500000
vt 0.025391 0.500000
vt 0.025391 0.500000
vt 0.025391 0.500000
vt 0.025391 0.500000
vt 0.025391 0.500000
vt 0.025391 0.500000
vt 0.025391 0.500000
vt 0.025391 0.500000
vt 0.025391 0.500000
vt 0.025391 0.500000
vt 0.025391 0.500000
vt 0.025391 0.500000
vt 0.025391 0.500000
vt 0.025391 0.500000
vt 0.025391 0.500000
vt 0.025391 0.500000
vt 0.025391 0.500000
vt 0.025391 0.500000
vt 0.025391 0.500000
vt 0.025391 0.500000
vt 0.025391 0.500000
vt 0.025391 0.500000
vt 0.025391 0.500000
vt 0.025391 0.500000
vt 0.025391 0.500000
vt 0.025391 0.500000
vt 0.025391 0.500000
vt 0.025391 0.500000
vt 0.025391 0.500000
vt 0.025391 0.500000
vt 0.029297 0.500000
vt 0.029297 0.500000
vt 0.029297 0.500000
vt 0.029297 0.500000
vt 0.029297 0.500000
vt 0.029297 0.500000
vt 0.029297 0.500000
vt 0.029297 0.500000
vt 0.025391 0.500000
vt 0.025391 0.500000
vt 0.025391 0.500000
vt 0.025391 0.500000
vt 0.025391 0.500000
vt 0.025391 0.500000
vt 0.025391 0.500000
vt 0.025391 0.500000
vt 0.029297 0.500000
vt 0.029297 0.500000
vt 0.029297 0.500000
vt 0.029297 0.500000
vt 0.029297 0.500000
vt 0.029297 0.500000
vt 0.029297 0.500000
vt 0.029297 0.500000
vt 0.025391 0.500000
vt 0.025391 0.500000
vt 0.025391 0.500000
vt 0.025391 0.500000
vt 0.025391 0.500000
vt 0.025391 0.500000
vt 0.025391 0.500000
vt 0.025391 0.500000
vt 0.025391 0.500000
vt 0.025391 0.500000
vt 0.025391 0.500000
vt 0.025391 0.500000
vt 0.025391 0.500000
vt 0.025391 0.500000
vt 0.025391 0.500000
vt 0.025391 0.500000
vt 0.025391 0.500000
vt 0.025391 0.500000
vt 0.025391 0.500000
vt 0.025391 0.500000
vt 0.025391 0.500000
vt 0.025391 0.500000
vt 0.025391 0.500000
vt 0.025391 0.500000
vt 0.025391 0.500000
vt 0.025391 0.500000
vt 0.025391 0.500000
vt 0.025391 0.500000
vt 0.025391 0.500000
vt 0.025391 0.500000
vt 0.025391 0.500000
vt 0.025391 0.500000
vt 0.025391 0.500000
vt 0.025391 0.500000
vt 0.025391 0.500000
vt 0.025391 0.500000
vt 0.025391 0.500000
vt 0.025391 0.500000
vt 0.025391 0.500000
vt 0.025391 0.500000
vt 0.025391 0.500000
vt 0.025391 0.500000
vt 0.025391 0.500000
vt 0.025391 0.500000
vt 0.025391 0.500000
vt 0.025391 0.500000
vt 0.025391 0.500000
vt 0.025391 0.500000
vt 0.025391 0.500000
vt 0.025391 0.500000
vt 0.025391 0.500000
vt 0.025391 0.500000
vt 0.025391 0.500000
vt 0.025391 0.500000
vt 0.025391 0.500000
vt 0.025391 0.500000
vt 0.025391 0.500000
vt 0.025391 0.500000
vt 0.025391 0.500000
vt 0.025391 0.500000
vt 0.060547 0.500000
vt 0.060547 0.500000
vt 0.060547 0.500000
vt 0.060547 0.500000
vt 0.025391 0.500000
vt 0.025391 0.500000
vt 0.025391 0.500000
vt 0.025391 0.500000
vt 0.025391 0.500000
vt 0.025391 0.500000
vt 0.025391 0.500000
vt 0.025391 0.500000
vt 0.025391 0.500000
vt 0.025391 0.500000
vt 0.025391 0.500000
vt 0.025391 0.500000
vt 0.025391 0.500000
vt 0.025391 0.500000
vt 0.025391 0.500000
vt 0.025391 0.500000
vt 0.025391 0.500000
vt 0.025391 0.500000
vt 0.025391 0.500000
vt 0.025391 0.500000
vt 0.025391 0.500000
vt 0.025391 0.500000
vt 0.025391 0.500000
vt 0.025391 0.500000
vt 0.025391 0.500000
vt 0.025391 0.500000
vt 0.025391 0.500000
vt 0.025391 0.500000
vt 0.025391 0.500000
vt 0.025391 0.500000
vt 0.025391 0.500000
vt 0.025391 0.500000
vt 0.025391 0.500000
vt 0.025391 0.500000
vt 0.060547 0.500000
vt 0.060547 0.500000
vt 0.060547 0.500000
vt 0.060547 0.500000
vt 0.060547 0.500000
vt 0.060547 0.500000
vt 0.060547 0.500000
vt 0.060547 0.500000
vt 0.025391 0.500000
vt 0.025391 0.500000
vt 0.025391 0.500000
vt 0.025391 0.500000
vt 0.025391 0.500000
vt 0.025391 0.500000
vt 0.025391 0.500000
vt 0.025391 0.500000
vt 0.025391 0.500000
vt 0.025391 0.500000
vt 0.025391 0.500000
vt 0.025391 0.500000
vt 0.025391 0.500000
vt 0.025391 0.500000
vt 0.025391 0.500000
vt 0.025391 0.500000
vt 0.025391 0.500000
vt 0.025391 0.500000
vt 0.025391 0.500000
vt 0.025391 0.500000
vt 0.025391 0.500000
vt 0.025391 0.500000
vt 0.025391 0.500000
vt 0.025391 0.500000
vt 0.025391 0.500000
vt 0.025391 0.500000
vt 0.025391 0.500000
vt 0.025391 0.500000
vt 0.025391 0.500000
vt 0.025391 0.500000
vt 0.025391 0.500000
vt 0.025391 0.500000
vt 0.025391 0.500000
vt 0.025391 0.500000
vt 0.025391 0.500000
vt 0.025391 0.500000
vt 0.025391 0.500000
vt 0.025391 0.500000
vt 0.025391 0.500000
vt 0.025391 0.500000
vt 0.060547 0.500000
vt 0.060547 0.500000
vt 0.060547 0.500000
vt 0.060547 0.500000
vt 0.025391 0.500000
vt 0.025391 0.500000
vt 0.025391 0.500000
vt 0.025391 0.500000
vt 0.025391 0.500000
vt 0.025391 0.500000
vt 0.025391 0.500000
vt 0.025391 0.500000
vt 0.025391 0.500000
vt 0.025391 0.500000
vt 0.025391 0.500000
vt 0.025391 0.500000
vt 0.025391 0.500000
vt 0.025391 0.500000
vt 0.025391 0.500000
vt 0.025391 0.500000
vt 0.025391 0.500000
vt 0.025391 0.500000
vt 0.025391 0.500000
vt 0.025391 0.500000
vt 0.025391 0.500000
vt 0.025391 0.500000
vt 0.025391 0.500000
vt 0.025391 0.500000
vt 0.025391 0.500000
vt 0.025391 0.500000
vt 0.025391 0.500000
vt 0.025391 0.500000
vt 0.025391 0.500000
vt 0.025391 0.500000
vt 0.025391 0.500000
vt 0.025391 0.500000
vt 0.025391 0.500000
vt 0.025391 0.500000
vt 0.025391 0.500000
vt 0.025391 0.500000
vt 0.025391 0.500000
vt 0.025391 0.500000
vt 0.025391 0.500000
vt 0.025391 0.500000
vt 0.025391 0.500000
vt 0.025391 0.500000
vt 0.025391 0.500000
vt 0.025391 0.500000
vt 0.025391 0.500000
vt 0.025391 0.500000
vt 0.025391 0.500000
vt 0.025391 0.500000
vt 0.025391 0.500000
vt 0.025391 0.500000
vt 0.025391 0.500000
vt 0.025391 0.500000
vt 0.025391 0.500000
vt 0.025391 0.500000
vt 0.025391 0.500000
vt 0.025391 0.500000
vt 0.025391 0.500000
vt 0.025391 0.500000
vt 0.025391 0.500000
vt 0.025391 0.500000
vt 0.025391 0.500000
vt 0.025391 0.500000
vt 0.025391 0.500000
vt 0.025391 0.500000
vt 0.025391 0.500000
vt 0.025391 0.500000
vt 0.025391 0.500000
vt 0.025391 0.500000
vt 0.025391 0.500000
vt 0.025391 0.500000
vt 0.025391 0.500000
vt 0.025391 0.500000
vt 0.025391 0.500000
vt 0.025391 0.500000
vt 0.025391 0.500000
vt 0.025391 0.500000
vt 0.025391 0.500000
vt 0.025391 0.500000
vt 0.025391 0.500000
vt 0.025391 0.500000
vt 0.025391 0.500000
vt 0.025391 0.500000
vt 0.025391 0.500000
vt 0.025391 0.500000
vt 0.025391 0.500000
vt 0.025391 0.500000
vt 0.025391 0.500000
vt 0.025391 0.500000
vt 0.025391 0.500000
vt 0.025391 0.500000
vt 0.025391 0.500000
vt 0.025391 0.500000
vt 0.025391 0.500000
vt 0.025391 0.500000
vt 0.025391 0.500000
vt 0.025391 0.500000
vt 0.025391 0.500000
vt 0.025391 0.500000
vt 0.025391 0.500000
vt 0.025391 0.500000
vt 0.025391 0.500000
vt 0.025391 0.500000
vt 0.025391 0.500000
vt 0.025391 0.500000
vt 0.025391 0.500000
vt 0.025391 0.500000
vt 0.025391 0.500000
vt 0.025391 0.500000
vt 0.025391 0.500000
vt 0.025391 0.500000
vt 0.025391 0.500000
vt 0.025391 0.500000
vt 0.025391 0.500000
vt 0.025391 0.500000
vt 0.025391 0.500000
vt 0.025391 0.500000
vt 0.025391 0.500000
vt 0.025391 0.500000
vt 0.025391 0.500000
vt 0.025391 0.500000
vt 0.025391 0.500000
vt 0.025391 0.500000
vt 0.025391 0.500000
vt 0.025391 0.500000
vt 0.025391 0.500000
vt 0.025391 0.500000
vt 0.060547 0.500000
vt 0.060547 0.500000
vt 0.060547 0.500000
vt 0.060547 0.500000
vt 0.025391 0.500000
vt 0.025391 0.500000
vt 0.025391 0.500000
vt 0.025391 0.500000
vt 0.060547 0.500000
vt 0.060547 0.500000
vt 0.060547 0.500000
vt 0.060547 0.500000
vt 0.025391 0.500000
vt 0.025391 0.500000
vt 0.025391 0.500000
vt 0.025391 0.500000
vt 0.025391 0.500000
vt 0.025391 0.500000
vt 0.025391 0.500000
vt 0.025391 0.500000
vt 0.025391 0.500000
vt 0.025391 0.500000
vt 0.025391 0.500000
vt 0.025391 0.500000
vn -1.0000 -0.0000 0.0000
vn 1.0000 -0.0000 0.0000
vn 0.0000 0.0000 1.0000
vn 0.0000 0.0000 -1.0000
vn 0.0000 -1.0000 -0.0000
vn 0.0000 1.0000 -0.0000
usemtl palette.002
s 1
f 1/1/1 2/2/1 3/3/1
f 4/4/1 5/5/1 2/6/1
f 4/7/1 2/2/1 1/1/1
f 6/8/1 7/9/1 8/10/1
f 9/11/1 10/12/1 7/13/1
f 9/14/1 7/9/1 6/8/1
f 11/15/1 4/4/1 1/16/1
f 12/17/1 5/5/1 4/4/1
f 12/17/1 4/4/1 11/15/1
f 13/18/1 9/11/1 6/19/1
f 14/20/1 10/12/1 9/11/1
f 14/20/1 9/11/1 13/18/1
f 15/21/1 16/22/1 17/23/1
f 18/24/1 16/22/1 15/21/1
f 19/25/1 20/26/1 21/27/1
f 22/28/1 20/26/1 19/25/1
f 23/29/1 15/21/1 17/23/1
f 24/30/1 15/21/1 23/29/1
f 25/31/1 19/25/1 21/27/1
f 26/32/1 19/25/1 25/31/1
f 27/33/1 28/34/1 29/35/1
f 30/36/1 28/34/1 27/33/1
f 31/37/1 32/38/1 33/39/1
f 34/40/1 32/38/1 31/37/1
f 35/41/1 31/42/1 36/43/1
f 37/44/1 31/42/1 35/41/1
f 38/45/1 39/46/1 40/47/1
f 41/48/1 38/45/1 42/49/1
f 43/50/1 39/46/1 38/45/1
f 43/50/1 38/45/1 41/48/1
f 44/51/1 39/46/1 43/50/1
f 45/52/1 39/46/1 44/51/1
f 46/53/1 44/51/1 43/50/1
f 47/54/1 44/51/1 46/53/1
f 48/55/1 49/56/1 50/57/1
f 51/58/1 52/59/1 53/60/1
f 54/61/1 52/59/1 51/58/1
f 55/62/1 52/59/1 54/61/1
f 56/63/1 51/58/1 57/64/1
f 56/63/1 54/61/1 51/58/1
f 58/65/1 54/61/1 56/63/1
f 59/66/1 54/61/1 58/65/1
f 60/67/1 61/68/1 48/55/1
f 60/67/1 48/55/1 50/57/1
f 62/69/1 61/68/1 60/67/1
f 63/70/1 64/71/1 59/66/1
f 63/70/1 59/66/1 58/65/1
f 65/72/1 64/71/1 63/70/1
f 66/73/1 60/67/1 50/57/1
f 67/74/1 60/67/1 66/73/1
f 68/75/1 64/71/1 65/72/1
f 69/76/1 64/71/1 68/75/1
f 70/77/1 71/78/1 72/79/1
f 73/80/1 71/78/1 70/77/1
f 74/81/1 75/82/1 73/80/1
f 76/83/1 75/82/1 74/81/1
f 77/84/1 78/85/1 79/86/1
f 80/87/1 78/85/1 77/84/1
f 81/88/1 77/84/1 79/86/1
f 82/89/1 77/84/1 81/88/1
f 83/90/1 77/84/1 82/89/1
f 84/91/1 77/84/1 83/90/1
f 85/92/1 86/93/1 87/94/1
f 88/95/1 86/93/1 85/92/1
f 89/96/1 70/77/1 90/97/1
f 91/98/1 70/77/1 89/96/1
f 92/99/1 93/100/1 94/101/1
f 95/102/1 93/100/1 92/99/1
f 96/103/1 97/104/1 98/105/1
f 99/106/1 97/104/1 96/103/1
f 100/107/1 92/99/1 91/98/1
f 101/108/1 92/99/1 100/107/1
f 102/109/1 85/92/1 87/94/1
f 103/110/1 85/92/1 102/109/1
f 104/111/1 105/112/1 106/113/1
f 107/114/1 105/112/1 104/111/1
f 108/115/1 109/116/1 110/117/1
f 111/118/1 109/116/1 108/115/1
f 112/119/1 113/120/1 114/121/1
f 115/122/1 112/119/1 114/121/1
f 116/123/1 117/124/1 112/125/1
f 116/126/1 112/119/1 115/122/1
f 118/127/1 117/124/1 116/123/1
f 119/128/1 120/129/1 121/130/1
f 122/131/1 120/129/1 119/128/1
f 123/132/1 124/133/1 125/134/1
f 126/135/1 124/133/1 123/132/1
f 127/136/1 124/133/1 126/135/1
f 128/137/1 129/138/1 130/139/1
f 131/140/1 129/138/1 128/137/1
f 132/141/1 133/142/1 134/143/1
f 135/144/1 133/142/1 132/141/1
f 136/145/1 137/146/1 135/147/1
f 138/148/1 137/146/1 136/145/1
f 139/149/1 140/150/1 141/151/1
f 142/152/1 143/153/1 140/154/1
f 142/155/1 140/150/1 139/149/1
f 144/156/1 145/157/1 146/158/1
f 147/159/1 148/160/1 145/161/1
f 147/162/1 145/157/1 144/156/1
f 149/163/1 142/152/1 139/164/1
f 150/165/1 143/153/1 142/152/1
f 150/165/1 142/152/1 149/163/1
f 151/166/1 147/159/1 144/167/1
f 152/168/1 148/160/1 147/159/1
f 152/168/1 147/159/1 151/166/1
f 153/169/1 154/170/1 155/171/1
f 156/172/1 154/170/1 153/169/1
f 157/173/1 158/174/1 159/175/1
f 160/176/1 158/174/1 157/173/1
f 161/177/1 153/169/1 155/171/1
f 162/178/1 153/169/1 161/177/1
f 163/179/1 157/173/1 159/175/1
f 164/180/1 157/173/1 163/179/1
f 165/181/2 166/182/2 167/183/2
f 166/184/2 168/185/2 169/186/2
f 167/183/2 166/182/2 169/187/2
f 170/188/2 171/189/2 172/190/2
f 171/191/2 173/192/2 174/193/2
f 172/190/2 171/189/2 174/194/2
f 167/195/2 169/186/2 175/196/2
f 169/186/2 168/185/2 176/197/2
f 175/196/2 169/186/2 176/197/2
f 172/198/2 174/193/2 177/199/2
f 174/193/2 173/192/2 178/200/2
f 177/199/2 174/193/2 178/200/2
f 179/201/2 180/202/2 181/203/2
f 181/203/2 180/202/2 182/204/2
f 183/205/2 184/206/2 185/207/2
f 185/207/2 184/206/2 186/208/2
f 179/201/2 181/203/2 187/209/2
f 187/209/2 181/203/2 188/210/2
f 183/205/2 185/207/2 189/211/2
f 189/211/2 185/207/2 190/212/2
f 191/213/2 192/214/2 193/215/2
f 193/215/2 192/214/2 194/216/2
f 194/217/2 195/218/2 196/219/2
f 196/219/2 195/218/2 197/220/2
f 198/221/2 199/222/2 200/223/2
f 200/223/2 199/222/2 201/224/2
f 198/221/2 200/223/2 202/225/2
f 202/225/2 200/223/2 203/226/2
f 204/227/2 205/228/2 206/229/2
f 204/227/2 206/229/2 207/230/2
f 206/231/2 208/232/2 209/233/2
f 207/230/2 206/229/2 209/234/2
f 209/233/2 208/232/2 210/235/2
f 211/236/2 212/237/2 213/238/2
f 213/238/2 212/237/2 214/239/2
f 215/240/2 216/241/2 217/242/2
f 217/242/2 216/241/2 218/243/2
f 218/243/2 216/241/2 219/244/2
f 219/244/2 216/241/2 220/245/2
f 221/246/2 222/247/2 223/248/2
f 223/248/2 222/247/2 224/249/2
f 225/250/2 226/251/2 227/252/2
f 227/252/2 226/251/2 228/253/2
f 228/253/2 229/254/2 230/255/2
f 230/255/2 229/254/2 231/256/2
f 232/257/2 233/258/2 234/259/2
f 234/259/2 233/258/2 235/260/2
f 232/257/2 234/259/2 236/261/2
f 236/261/2 234/259/2 237/262/2
f 237/262/2 234/259/2 238/263/2
f 238/263/2 234/259/2 239/264/2
f 240/265/2 227/252/2 241/266/2
f 241/266/2 227/252/2 242/267/2
f 243/268/2 244/269/2 245/270/2
f 245/270/2 244/269/2 246/271/2
f 247/272/2 248/273/2 249/274/2
f 249/274/2 248/273/2 250/275/2
f 242/267/2 245/270/2 251/276/2
f 251/276/2 245/270/2 252/277/2
f 253/278/2 254/279/2 255/280/2
f 255/280/2 254/279/2 256/281/2
f 257/282/2 258/283/2 259/284/2
f 260/285/2 261/286/2 262/287/2
f 262/287/2 261/286/2 263/288/2
f 263/288/2 261/286/2 264/289/2
f 265/290/2 262/287/2 266/291/2
f 262/287/2 263/288/2 266/291/2
f 266/291/2 263/288/2 267/292/2
f 267/292/2 263/288/2 268/293/2
f 259/284/2 269/294/2 270/295/2
f 257/282/2 259/284/2 270/295/2
f 270/295/2 269/294/2 271/296/2
f 268/293/2 272/297/2 273/298/2
f 267/292/2 268/293/2 273/298/2
f 273/298/2 272/297/2 274/299/2
f 257/282/2 270/295/2 275/300/2
f 275/300/2 270/295/2 276/301/2
f 274/299/2 272/297/2 277/302/2
f 277/302/2 272/297/2 278/303/2
f 279/304/2 280/305/2 281/306/2
f 282/307/2 281/306/2 283/308/2
f 281/306/2 280/305/2 284/309/2
f 283/308/2 281/306/2 284/309/2
f 284/309/2 280/305/2 285/310/2
f 285/310/2 280/305/2 286/311/2
f 284/309/2 285/310/2 287/312/2
f 287/312/2 285/310/2 288/313/2
f 289/314/2 290/315/2 291/316/2
f 291/316/2 290/315/2 292/317/2
f 293/318/2 291/319/2 294/320/2
f 294/320/2 291/319/2 295/321/2
f 296/322/2 297/323/2 298/324/2
f 297/325/2 299/326/2 300/327/2
f 298/324/2 297/323/2 300/328/2
f 301/329/2 302/330/2 303/331/2
f 302/332/2 304/333/2 305/334/2
f 303/331/2 302/330/2 305/335/2
f 298/336/2 300/327/2 306/337/2
f 300/327/2 299/326/2 307/338/2
f 306/337/2 300/327/2 307/338/2
f 303/339/2 305/334/2 308/340/2
f 305/334/2 304/333/2 309/341/2
f 308/340/2 305/334/2 309/341/2
f 310/342/2 311/343/2 312/344/2
f 312/344/2 311/343/2 313/345/2
f 314/346/2 315/347/2 316/348/2
f 316/348/2 315/347/2 317/349/2
f 310/342/2 312/344/2 318/350/2
f 318/350/2 312/344/2 319/351/2
f 314/346/2 316/348/2 320/352/2
f 320/352/2 316/348/2 321/353/2
f 322/354/2 323/355/2 324/356/2
f 324/356/2 323/355/2 325/357/2
f 326/358/3 327/359/3 328/360/3
f 329/361/3 327/359/3 326/358/3
f 330/362/3 331/363/3 332/364/3
f 333/365/3 331/363/3 330/362/3
f 334/366/3 330/362/3 332/364/3
f 335/367/3 334/366/3 332/364/3
f 335/367/3 336/368/3 334/366/3
f 337/369/3 336/368/3 335/367/3
f 338/370/3 339/371/3 340/372/3
f 341/373/3 339/371/3 338/370/3
f 342/374/3 343/375/3 344/376/3
f 345/377/3 343/375/3 342/374/3
f 346/378/3 347/379/3 348/380/3
f 349/381/3 347/379/3 346/378/3
f 350/382/3 351/383/3 352/384/3
f 353/385/3 351/383/3 350/382/3
f 354/386/3 355/387/3 356/388/3
f 357/389/3 355/387/3 354/386/3
f 358/390/3 359/391/3 360/392/3
f 361/393/3 359/391/3 358/390/3
f 362/394/3 363/395/3 364/396/3
f 365/397/3 363/395/3 362/394/3
f 366/398/3 365/399/3 362/400/3
f 367/401/3 368/402/3 365/397/3
f 367/403/3 365/399/3 366/398/3
f 369/404/3 368/402/3 367/401/3
f 370/405/3 369/406/3 371/407/3
f 372/408/3 368/402/3 369/404/3
f 372/409/3 369/406/3 370/405/3
f 373/410/3 368/402/3 372/408/3
f 374/411/3 375/412/3 376/413/3
f 377/414/3 375/412/3 374/411/3
f 378/415/3 372/408/3 370/416/3
f 379/417/3 372/408/3 378/415/3
f 380/418/3 381/419/3 382/420/3
f 383/421/3 381/419/3 380/418/3
f 384/422/3 385/423/3 386/424/3
f 387/425/3 385/423/3 384/422/3
f 388/426/3 389/427/3 390/428/3
f 391/429/3 389/427/3 388/426/3
f 392/430/3 393/431/3 394/432/3
f 395/433/3 393/431/3 392/430/3
f 396/434/3 397/435/3 398/436/3
f 399/437/3 397/435/3 396/434/3
f 400/438/3 401/439/3 402/440/3
f 403/441/3 401/439/3 400/438/3
f 404/442/3 396/443/3 405/444/3
f 404/442/3 399/445/3 396/443/3
f 406/446/3 397/435/3 399/437/3
f 406/447/3 399/445/3 404/442/3
f 407/448/3 397/435/3 406/446/3
f 408/449/3 409/450/3 410/451/3
f 411/452/3 409/450/3 408/449/3
f 412/453/3 413/454/3 414/455/3
f 415/456/3 413/454/3 412/453/3
f 416/457/3 417/458/3 418/459/3
f 419/460/3 417/458/3 416/457/3
f 420/461/3 421/462/3 417/463/3
f 420/464/3 417/458/3 419/460/3
f 422/465/3 420/461/3 419/466/3
f 423/467/3 421/462/3 420/461/3
f 423/467/3 420/461/3 422/465/3
f 424/468/3 425/469/3 426/470/3
f 427/471/3 425/469/3 424/468/3
f 428/472/3 424/468/3 429/473/3
f 430/474/3 424/468/3 428/472/3
f 431/475/3 425/469/3 427/471/3
f 432/476/3 425/469/3 431/475/3
f 433/477/3 431/475/3 434/478/3
f 435/479/3 431/475/3 433/477/3
f 436/480/3 437/481/3 438/482/3
f 439/483/3 437/481/3 436/480/3
f 440/484/3 441/485/3 442/486/3
f 443/487/3 441/485/3 440/484/3
f 444/488/3 445/489/3 439/483/3
f 446/490/3 444/488/3 443/487/3
f 447/491/3 445/489/3 444/488/3
f 447/491/3 444/488/3 446/490/3
f 448/492/3 449/493/3 450/494/3
f 451/495/3 449/493/3 448/492/3
f 452/496/3 453/497/3 454/498/3
f 455/499/3 453/497/3 452/496/3
f 456/500/3 457/501/3 458/502/3
f 459/503/3 457/501/3 456/500/3
f 460/504/3 456/500/3 461/505/3
f 462/506/3 456/500/3 460/504/3
f 463/507/3 464/508/3 459/503/3
f 465/509/3 464/508/3 463/507/3
f 466/510/3 463/507/3 462/506/3
f 467/511/3 463/507/3 466/510/3
f 468/512/3 469/513/3 470/514/3
f 471/515/3 469/513/3 468/512/3
f 472/516/3 473/517/3 474/518/3
f 475/519/3 476/520/3 473/521/3
f 475/522/3 473/517/3 472/516/3
f 477/523/3 476/520/3 475/519/3
f 478/524/3 479/525/3 480/526/3
f 481/527/3 482/528/3 479/529/3
f 481/530/3 479/525/3 478/524/3
f 483/531/3 482/528/3 481/527/3
f 484/532/3 485/533/3 486/534/3
f 487/535/3 485/533/3 484/532/3
f 488/536/3 489/537/3 490/538/3
f 491/539/3 489/537/3 488/536/3
f 492/540/3 493/541/3 494/542/3
f 495/543/3 496/544/3 493/545/3
f 495/546/3 493/541/3 492/540/3
f 497/547/3 496/544/3 495/543/3
f 498/548/3 499/549/3 500/550/3
f 501/551/3 502/552/3 499/553/3
f 501/554/3 499/549/3 498/548/3
f 503/555/3 502/552/3 501/551/3
f 504/556/3 505/557/3 506/558/3
f 507/559/3 505/557/3 504/556/3
f 508/560/3 505/557/3 507/559/3
f 509/561/3 505/557/3 508/560/3
f 510/562/3 505/557/3 509/561/3
f 511/563/3 512/564/3 513/565/3
f 514/566/3 515/567/3 516/568/3
f 517/569/3 511/563/3 513/565/3
f 517/569/3 514/566/3 511/563/3
f 518/570/3 515/567/3 514/566/3
f 518/570/3 514/566/3 517/569/3
f 519/571/4 520/572/4 521/573/4
f 522/574/4 521/573/4 523/575/4
f 521/573/4 520/572/4 524/576/4
f 525/577/4 523/575/4 524/576/4
f 523/575/4 521/573/4 524/576/4
f 524/576/4 520/572/4 526/578/4
f 525/577/4 524/576/4 527/579/4
f 525/577/4 527/579/4 528/580/4
f 527/579/4 529/581/4 528/580/4
f 528/580/4 529/581/4 530/582/4
f 530/582/4 529/581/4 531/583/4
f 531/583/4 529/581/4 532/584/4
f 532/584/4 529/581/4 533/585/4
f 533/585/4 529/581/4 534/586/4
f 535/587/4 536/588/4 537/589/4
f 537/589/4 536/588/4 538/590/4
f 539/591/4 540/592/4 541/593/4
f 541/593/4 540/592/4 542/594/4
f 543/595/4 544/596/4 545/597/4
f 545/597/4 544/596/4 546/598/4
f 547/599/4 548/600/4 549/601/4
f 549/601/4 548/600/4 550/602/4
f 551/603/4 552/604/4 553/605/4
f 553/605/4 552/604/4 554/606/4
f 555/607/4 556/608/4 557/609/4
f 557/609/4 556/608/4 558/610/4
f 559/611/4 560/612/4 561/613/4
f 561/613/4 560/612/4 562/614/4
f 563/615/4 564/616/4 565/617/4
f 565/617/4 564/616/4 566/618/4
f 567/619/4 568/620/4 569/621/4
f 569/621/4 568/620/4 570/622/4
f 571/623/4 572/624/4 573/625/4
f 573/625/4 572/624/4 574/626/4
f 575/627/4 576/628/4 577/629/4
f 577/629/4 576/628/4 578/630/4
f 579/631/4 580/632/4 581/633/4
f 581/633/4 580/632/4 582/634/4
f 583/635/4 577/629/4 584/636/4
f 584/636/4 577/629/4 585/637/4
f 582/634/4 586/638/4 587/639/4
f 587/639/4 586/638/4 588/640/4
f 585/637/4 589/641/4 590/642/4
f 590/642/4 589/641/4 591/643/4
f 592/644/4 587/639/4 593/645/4
f 593/645/4 587/639/4 594/646/4
f 595/647/4 596/648/4 597/649/4
f 597/649/4 596/648/4 598/650/4
f 599/651/4 600/652/4 601/653/4
f 601/653/4 600/652/4 602/654/4
f 603/655/4 604/656/4 605/657/4
f 605/657/4 604/656/4 606/658/4
f 607/659/4 605/657/4 608/660/4
f 606/658/4 609/661/4 608/660/4
f 605/657/4 606/658/4 608/660/4
f 608/660/4 609/661/4 610/662/4
f 607/659/4 608/660/4 611/663/4
f 607/659/4 611/663/4 612/664/4
f 611/663/4 613/665/4 612/664/4
f 612/664/4 613/665/4 614/666/4
f 614/666/4 613/665/4 615/667/4
f 615/667/4 613/665/4 616/668/4
f 614/666/4 615/667/4 617/669/4
f 617/669/4 615/667/4 618/670/4
f 619/671/4 620/672/4 621/673/4
f 621/673/4 620/672/4 622/674/4
f 622/674/4 620/672/4 623/675/4
f 624/676/4 623/675/4 625/677/4
f 623/675/4 620/672/4 626/678/4
f 625/677/4 623/675/4 626/678/4
f 627/679/4 628/680/4 629/681/4
f 630/682/4 631/683/4 632/684/4
f 627/679/4 629/681/4 633/685/4
f 629/681/4 632/684/4 633/685/4
f 632/684/4 631/683/4 634/686/4
f 633/685/4 632/684/4 634/686/4
f 635/687/5 636/688/5 637/689/5
f 638/690/5 636/688/5 635/687/5
f 639/691/5 640/692/5 641/693/5
f 642/694/5 640/692/5 639/691/5
f 643/695/5 638/696/5 635/697/5
f 644/698/5 638/696/5 643/695/5
f 645/699/5 642/700/5 639/701/5
f 646/702/5 642/700/5 645/699/5
f 647/703/5 648/704/5 649/705/5
f 650/706/5 648/704/5 647/703/5
f 651/707/5 652/708/5 653/709/5
f 654/710/5 652/708/5 651/707/5
f 655/711/5 650/712/5 647/713/5
f 656/714/5 650/712/5 655/711/5
f 657/715/5 654/716/5 651/717/5
f 658/718/5 654/716/5 657/715/5
f 659/719/5 660/720/5 661/721/5
f 662/722/5 660/720/5 659/719/5
f 663/723/5 664/724/5 665/725/5
f 666/726/5 664/724/5 663/723/5
f 667/727/5 668/728/5 669/729/5
f 670/730/5 668/728/5 667/727/5
f 671/731/5 672/732/5 673/733/5
f 674/734/5 672/732/5 671/731/5
f 675/735/5 676/736/5 677/737/5
f 678/738/5 676/736/5 675/735/5
f 679/739/5 663/723/5 680/740/5
f 681/741/5 663/723/5 679/739/5
f 682/742/5 683/743/5 666/726/5
f 684/744/5 683/743/5 682/742/5
f 685/745/5 686/746/5 687/747/5
f 688/748/5 686/746/5 685/745/5
f 689/749/5 682/742/5 681/741/5
f 690/750/5 682/742/5 689/749/5
f 691/751/5 692/752/5 693/753/5
f 694/754/5 692/752/5 691/751/5
f 695/755/5 691/751/5 696/756/5
f 695/755/5 697/757/5 694/754/5
f 695/755/5 694/754/5 691/751/5
f 698/758/5 697/757/5 695/755/5
f 699/759/5 695/755/5 700/760/5
f 699/759/5 701/761/5 698/758/5
f 699/759/5 698/758/5 695/755/5
f 702/762/5 701/761/5 699/759/5
f 703/763/5 704/764/5 705/765/5
f 706/766/5 704/764/5 703/763/5
f 707/767/5 708/768/5 709/769/5
f 710/770/5 708/768/5 707/767/5
f 711/771/5 712/772/5 713/773/5
f 714/774/5 712/772/5 711/771/5
f 715/775/5 716/776/5 717/777/5
f 718/778/5 716/776/5 715/775/5
f 719/779/5 720/780/5 721/781/5
f 722/782/5 720/780/5 719/779/5
f 723/783/5 724/784/5 725/785/5
f 726/786/5 724/784/5 723/783/5
f 727/787/5 728/788/5 729/789/5
f 730/790/5 728/788/5 727/787/5
f 731/791/5 732/792/5 733/793/5
f 734/794/5 731/791/5 733/793/5
f 734/794/5 735/795/5 731/791/5
f 736/796/5 735/795/5 734/794/5
f 737/797/5 738/798/5 739/799/5
f 740/800/5 738/798/5 737/797/5
f 741/801/5 742/802/5 743/803/5
f 744/804/5 742/802/5 741/801/5
f 745/805/5 746/806/5 747/807/5
f 748/808/5 746/806/5 745/805/5
f 749/809/5 750/810/5 751/811/5
f 752/812/5 750/810/5 749/809/5
f 753/813/5 754/814/5 755/815/5
f 756/816/5 754/814/5 753/813/5
f 757/817/5 749/818/5 758/819/5
f 759/820/5 749/818/5 757/817/5
f 760/821/5 761/822/5 756/823/5
f 762/824/5 761/822/5 760/821/5
f 763/825/5 764/826/5 765/827/5
f 766/828/5 764/826/5 763/825/5
f 767/829/5 768/830/5 769/831/5
f 770/832/5 768/830/5 767/829/5
f 771/833/6 772/834/6 773/835/6
f 773/835/6 772/834/6 774/836/6
f 775/837/6 776/838/6 777/839/6
f 777/839/6 776/838/6 778/840/6
f 779/841/6 780/842/6 781/843/6
f 781/843/6 780/842/6 782/844/6
f 783/845/6 784/846/6 785/847/6
f 785/847/6 784/846/6 786/848/6
f 787/849/6 788/850/6 789/851/6
f 789/851/6 788/850/6 790/852/6
f 791/853/6 792/854/6 793/855/6
f 793/855/6 792/854/6 794/856/6
f 795/857/6 796/858/6 797/859/6
f 797/859/6 796/858/6 798/860/6
f 797/861/6 798/862/6 799/863/6
f 799/863/6 798/862/6 800/864/6
f 799/863/6 800/864/6 801/865/6
f 800/864/6 802/866/6 801/865/6
f 803/867/6 799/863/6 801/865/6
f 801/865/6 802/866/6 804/868/6
f 804/868/6 802/866/6 805/869/6
f 805/869/6 802/866/6 806/870/6
f 807/871/6 801/865/6 808/872/6
f 801/865/6 804/868/6 808/872/6
f 808/872/6 804/868/6 809/873/6
f 809/873/6 804/868/6 810/874/6
f 806/870/6 811/875/6 812/876/6
f 805/869/6 806/870/6 812/876/6
f 812/876/6 811/875/6 813/877/6
f 813/877/6 811/875/6 814/878/6
f 815/879/6 816/880/6 817/881/6
f 817/881/6 816/880/6 818/882/6
f 819/883/6 820/884/6 821/885/6
f 821/885/6 820/884/6 822/886/6
f 823/887/6 824/888/6 825/889/6
f 825/889/6 824/888/6 826/890/6
f 827/891/6 828/892/6 829/893/6
f 829/893/6 828/892/6 830/894/6
f 831/895/6 832/896/6 833/897/6
f 833/897/6 832/896/6 834/898/6
f 835/899/6 836/900/6 837/901/6
f 837/901/6 836/900/6 838/902/6
f 839/903/6 840/904/6 841/905/6
f 841/905/6 840/904/6 842/906/6
f 843/907/6 844/908/6 845/909/6
f 845/909/6 844/908/6 846/910/6
f 847/911/6 848/912/6 849/913/6
f 847/911/6 849/913/6 850/914/6
f 849/913/6 851/915/6 850/914/6
f 850/914/6 851/915/6 852/916/6
f 853/917/6 854/918/6 855/919/6
f 855/919/6 854/918/6 856/920/6
f 857/921/6 858/922/6 859/923/6
f 859/923/6 858/922/6 860/924/6
f 861/925/6 862/926/6 863/927/6
f 863/927/6 862/926/6 864/928/6
f 865/929/6 866/930/6 867/931/6
f 867/931/6 866/930/6 868/932/6
f 869/933/6 870/934/6 871/935/6
f 871/935/6 870/934/6 872/936/6
f 873/937/6 874/938/6 875/939/6
f 875/939/6 874/938/6 876/940/6
f 877/941/6 878/942/6 879/943/6
f 879/943/6 878/942/6 880/944/6
f 881/945/6 882/946/6 883/947/6
f 883/947/6 882/946/6 884/948/6
f 885/949/6 867/931/6 886/950/6
f 886/950/6 867/931/6 887/951/6
f 868/932/6 888/952/6 889/953/6
f 889/953/6 888/952/6 890/954/6
f 887/951/6 889/953/6 891/955/6
f 891/955/6 889/953/6 892/956/6
f 892/956/6 889/953/6 893/957/6
f 893/957/6 889/953/6 894/958/6
f 892/956/6 893/957/6 895/959/6
f 895/959/6 893/957/6 896/960/6
f 897/961/6 898/962/6 899/963/6
f 899/963/6 898/962/6 900/964/6
f 901/965/6 899/963/6 902/966/6
f 900/964/6 903/967/6 902/966/6
f 899/963/6 900/964/6 902/966/6
f 902/966/6 903/967/6 904/968/6
f 904/968/6 903/967/6 905/969/6
f 905/969/6 903/967/6 906/970/6
f 902/966/6 904/968/6 907/971/6
f 907/971/6 904/968/6 908/972/6
f 905/969/6 906/970/6 909/973/6
f 909/973/6 906/970/6 910/974/6
f 911/975/6 912/976/6 913/977/6
f 913/977/6 912/976/6 914/978/6
f 915/979/6 916/980/6 917/981/6
f 917/981/6 916/980/6 918/982/6
f 919/983/6 920/984/6 921/985/6
f 921/985/6 920/984/6 922/986/6
f 923/987/6 924/988/6 925/989/6
f 925/989/6 924/988/6 926/990/6
f 927/991/6 928/992/6 929/993/6
f 929/993/6 928/992/6 930/994/6
f 931/995/6 932/996/6 933/997/6
f 933/997/6 932/996/6 934/998/6
f 929/993/6 930/994/6 935/999/6
f 930/994/6 933/1000/6 935/999/6
f 926/1001/6 929/993/6 935/999/6
f 935/999/6 933/1000/6 936/1002/6
f 937/1003/6 938/1004/6 939/1005/6
f 939/1005/6 938/1004/6 940/1006/6
f 941/1007/6 942/1008/6 943/1009/6
f 943/1009/6 942/1008/6 944/1010/6
