# Blender v2.93.0 OBJ File: 'Chicken_Base_Rig.blend'
# www.blender.org
mtllib TVS_VoxelFarm_Chicken.mtl
o VS_Farm_Chicken
v -0.434899 0.500000 0.400000
v -0.434899 0.400000 0.000000
v -0.434899 0.400000 0.400000
v -0.434899 0.500000 0.000000
v -0.434899 0.600000 0.100000
v -0.434899 0.600000 0.000000
v -0.434899 0.500000 -0.100000
v -0.434899 0.600000 -0.100000
v -0.434899 0.700000 0.500000
v -0.434899 0.500000 0.500000
v -0.434899 0.700000 0.400000
v -0.434899 0.700000 0.100000
v -0.434899 0.600000 -0.200000
v -0.434899 0.700000 -0.200000
v -0.434899 0.800000 0.400000
v -0.434899 0.800000 0.100000
v -0.334899 0.100000 0.100000
v -0.334899 0.000000 0.000000
v -0.334899 -0.000000 0.100000
v -0.334899 0.100000 0.000000
v -0.334899 0.000000 -0.100000
v -0.334899 0.100000 -0.100000
v -0.234899 0.100000 0.200000
v -0.234899 -0.000000 0.100000
v -0.234899 -0.000000 0.200000
v -0.234899 0.100000 0.100000
v -0.234899 0.300000 0.000000
v -0.234899 0.100000 -0.100000
v -0.234899 0.100000 0.000000
v -0.234899 0.300000 -0.100000
v -0.234899 0.700000 0.600000
v -0.234899 0.500000 -0.300000
v -0.234899 0.500000 0.600000
v -0.234899 0.700000 -0.300000
v -0.134899 0.500000 0.600000
v -0.134899 0.400000 -0.300000
v -0.134899 0.400000 0.600000
v -0.134899 0.500000 -0.300000
v -0.134899 0.800000 0.900000
v -0.134899 0.700000 0.700000
v -0.134899 0.700000 1.000000
v -0.134899 0.800000 0.800000
v -0.134899 0.800000 0.500000
v -0.134899 0.700000 -0.300000
v -0.134899 0.700000 0.500000
v -0.134899 0.800000 -0.300000
v -0.134899 0.700000 -0.400000
v -0.134899 0.900000 0.900000
v -0.134899 0.900000 0.800000
v -0.134899 0.900000 -0.300000
v -0.134899 0.900000 -0.400000
v -0.134899 1.000000 1.000000
v -0.134899 1.000000 0.700000
v -0.034899 0.700000 1.000000
v -0.034899 0.600000 0.800000
v -0.034899 0.600000 1.000000
v -0.034899 0.700000 0.800000
v -0.034899 0.800000 1.200000
v -0.034899 0.700000 1.200000
v -0.034899 0.800000 1.100000
v -0.034899 0.900000 1.100000
v -0.034899 0.900000 1.000000
v -0.034899 1.000000 1.100000
v -0.034899 1.000000 1.000000
v -0.034899 1.000000 -0.300000
v -0.034899 0.900000 -0.400000
v -0.034899 0.900000 -0.300000
v -0.034899 1.000000 -0.400000
v -0.034899 1.100000 1.000000
v -0.034899 1.000000 0.800000
v -0.034899 1.100000 0.800000
v 0.065101 0.100000 0.100000
v 0.065101 0.000000 0.000000
v 0.065101 -0.000000 0.100000
v 0.065101 0.100000 0.000000
v 0.065101 0.000000 -0.100000
v 0.065101 0.100000 -0.100000
v 0.165101 0.100000 0.200000
v 0.165101 -0.000000 0.100000
v 0.165101 -0.000000 0.200000
v 0.165101 0.100000 0.100000
v 0.165101 0.300000 0.000000
v 0.165101 0.100000 -0.100000
v 0.165101 0.100000 0.000000
v 0.165101 0.300000 -0.100000
v 0.365101 0.500000 0.400000
v 0.365101 0.400000 0.000000
v 0.365101 0.400000 0.400000
v 0.365101 0.500000 0.000000
v 0.365101 0.600000 0.100000
v 0.365101 0.600000 0.000000
v 0.365101 0.500000 -0.100000
v 0.365101 0.600000 -0.100000
v 0.365101 0.700000 0.500000
v 0.365101 0.500000 0.500000
v 0.365101 0.700000 0.400000
v 0.365101 0.700000 0.100000
v 0.365101 0.600000 -0.200000
v 0.365101 0.700000 -0.200000
v 0.365101 0.800000 0.400000
v 0.365101 0.800000 0.100000
v -0.334899 0.400000 0.400000
v -0.334899 0.400000 0.000000
v -0.334899 0.500000 0.400000
v -0.334899 0.500000 0.000000
v -0.334899 0.600000 0.100000
v -0.334899 0.500000 -0.100000
v -0.334899 0.600000 0.000000
v -0.334899 0.600000 -0.100000
v -0.334899 0.500000 0.500000
v -0.334899 0.700000 0.500000
v -0.334899 0.700000 0.400000
v -0.334899 0.600000 -0.200000
v -0.334899 0.700000 0.100000
v -0.334899 0.700000 -0.200000
v -0.334899 0.800000 0.400000
v -0.334899 0.800000 0.100000
v -0.134899 -0.000000 0.200000
v -0.134899 -0.000000 0.100000
v -0.134899 0.100000 0.200000
v -0.134899 0.100000 0.100000
v -0.134899 0.100000 0.000000
v -0.134899 0.100000 -0.100000
v -0.134899 0.300000 0.000000
v -0.134899 0.300000 -0.100000
v -0.034899 -0.000000 0.100000
v -0.034899 0.000000 0.000000
v -0.034899 0.100000 0.100000
v -0.034899 0.000000 -0.100000
v -0.034899 0.100000 0.000000
v -0.034899 0.100000 -0.100000
v 0.065101 0.600000 1.000000
v 0.065101 0.600000 0.800000
v 0.065101 0.700000 1.000000
v 0.065101 0.700000 0.800000
v 0.065101 0.700000 1.200000
v 0.065101 0.800000 1.200000
v 0.065101 0.800000 1.100000
v 0.065101 0.900000 1.100000
v 0.065101 0.900000 1.000000
v 0.065101 1.000000 1.100000
v 0.065101 1.000000 1.000000
v 0.065101 0.900000 -0.300000
v 0.065101 0.900000 -0.400000
v 0.065101 1.000000 -0.300000
v 0.065101 1.000000 -0.400000
v 0.065101 1.000000 0.800000
v 0.065101 1.100000 1.000000
v 0.065101 1.100000 0.800000
v 0.165101 0.400000 0.600000
v 0.165101 0.400000 -0.300000
v 0.165101 0.500000 0.600000
v 0.165101 0.500000 -0.300000
v 0.165101 0.700000 1.000000
v 0.165101 0.700000 0.700000
v 0.165101 0.800000 0.900000
v 0.165101 0.800000 0.800000
v 0.165101 0.700000 0.500000
v 0.165101 0.700000 -0.300000
v 0.165101 0.800000 0.500000
v 0.165101 0.700000 -0.400000
v 0.165101 0.800000 -0.300000
v 0.165101 0.900000 0.900000
v 0.165101 0.900000 0.800000
v 0.165101 0.900000 -0.300000
v 0.165101 0.900000 -0.400000
v 0.165101 1.000000 1.000000
v 0.165101 1.000000 0.700000
v 0.265101 -0.000000 0.200000
v 0.265101 -0.000000 0.100000
v 0.265101 0.100000 0.200000
v 0.265101 0.100000 0.100000
v 0.265101 0.100000 0.000000
v 0.265101 0.100000 -0.100000
v 0.265101 0.300000 0.000000
v 0.265101 0.300000 -0.100000
v 0.265101 0.500000 0.600000
v 0.265101 0.500000 -0.300000
v 0.265101 0.700000 0.600000
v 0.265101 0.700000 -0.300000
v 0.365101 -0.000000 0.100000
v 0.365101 0.000000 0.000000
v 0.365101 0.100000 0.100000
v 0.365101 0.000000 -0.100000
v 0.365101 0.100000 0.000000
v 0.365101 0.100000 -0.100000
v 0.465101 0.400000 0.400000
v 0.465101 0.400000 0.000000
v 0.465101 0.500000 0.400000
v 0.465101 0.500000 0.000000
v 0.465101 0.600000 0.100000
v 0.465101 0.500000 -0.100000
v 0.465101 0.600000 0.000000
v 0.465101 0.600000 -0.100000
v 0.465101 0.500000 0.500000
v 0.465101 0.700000 0.500000
v 0.465101 0.700000 0.400000
v 0.465101 0.600000 -0.200000
v 0.465101 0.700000 0.100000
v 0.465101 0.700000 -0.200000
v 0.465101 0.800000 0.400000
v 0.465101 0.800000 0.100000
v 0.065101 0.700000 1.200000
v -0.034899 0.800000 1.200000
v -0.034899 0.700000 1.200000
v 0.065101 0.800000 1.200000
v 0.065101 0.800000 1.100000
v -0.034899 0.900000 1.100000
v -0.034899 0.800000 1.100000
v 0.065101 0.900000 1.100000
v -0.034899 1.000000 1.100000
v 0.065101 1.000000 1.100000
v -0.034899 0.700000 1.000000
v -0.134899 1.000000 1.000000
v -0.134899 0.700000 1.000000
v -0.034899 0.900000 1.000000
v -0.034899 1.000000 1.000000
v 0.065101 0.600000 1.000000
v -0.034899 0.600000 1.000000
v 0.065101 0.700000 1.000000
v 0.065101 1.000000 1.000000
v -0.034899 1.100000 1.000000
v 0.065101 1.100000 1.000000
v 0.165101 0.700000 1.000000
v 0.065101 0.900000 1.000000
v 0.165101 1.000000 1.000000
v -0.134899 0.500000 0.600000
v -0.234899 0.700000 0.600000
v -0.234899 0.500000 0.600000
v -0.134899 0.600000 0.600000
v -0.034899 0.600000 0.600000
v -0.134899 0.400000 0.600000
v -0.034899 0.700000 0.600000
v 0.065101 0.600000 0.600000
v 0.065101 0.700000 0.600000
v 0.165101 0.400000 0.600000
v 0.165101 0.500000 0.600000
v 0.165101 0.600000 0.600000
v 0.265101 0.500000 0.600000
v 0.265101 0.700000 0.600000
v -0.334899 0.500000 0.500000
v -0.434899 0.700000 0.500000
v -0.434899 0.500000 0.500000
v -0.334899 0.700000 0.500000
v -0.034899 0.700000 0.500000
v -0.134899 0.800000 0.500000
v -0.134899 0.700000 0.500000
v 0.065101 0.700000 0.500000
v 0.165101 0.700000 0.500000
v 0.165101 0.800000 0.500000
v 0.465101 0.500000 0.500000
v 0.365101 0.700000 0.500000
v 0.365101 0.500000 0.500000
v 0.465101 0.700000 0.500000
v -0.334899 0.400000 0.400000
v -0.434899 0.500000 0.400000
v -0.434899 0.400000 0.400000
v -0.334899 0.500000 0.400000
v -0.334899 0.700000 0.400000
v -0.434899 0.800000 0.400000
v -0.434899 0.700000 0.400000
v -0.334899 0.800000 0.400000
v 0.465101 0.400000 0.400000
v 0.365101 0.500000 0.400000
v 0.365101 0.400000 0.400000
v 0.465101 0.500000 0.400000
v 0.465101 0.700000 0.400000
v 0.365101 0.800000 0.400000
v 0.365101 0.700000 0.400000
v 0.465101 0.800000 0.400000
v -0.134899 -0.000000 0.200000
v -0.234899 0.100000 0.200000
v -0.234899 -0.000000 0.200000
v -0.134899 0.100000 0.200000
v 0.265101 -0.000000 0.200000
v 0.165101 0.100000 0.200000
v 0.165101 -0.000000 0.200000
v 0.265101 0.100000 0.200000
v -0.234899 -0.000000 0.100000
v -0.334899 0.100000 0.100000
v -0.334899 -0.000000 0.100000
v -0.234899 0.100000 0.100000
v -0.034899 -0.000000 0.100000
v -0.134899 0.100000 0.100000
v -0.134899 -0.000000 0.100000
v -0.034899 0.100000 0.100000
v 0.165101 -0.000000 0.100000
v 0.065101 0.100000 0.100000
v 0.065101 -0.000000 0.100000
v 0.165101 0.100000 0.100000
v 0.365101 -0.000000 0.100000
v 0.265101 0.100000 0.100000
v 0.265101 -0.000000 0.100000
v 0.365101 0.100000 0.100000
v -0.134899 0.100000 0.000000
v -0.234899 0.300000 0.000000
v -0.234899 0.100000 0.000000
v -0.134899 0.300000 0.000000
v 0.265101 0.100000 0.000000
v 0.165101 0.300000 0.000000
v 0.165101 0.100000 0.000000
v 0.265101 0.300000 0.000000
v -0.034899 0.900000 -0.300000
v -0.134899 0.900000 -0.300000
v -0.134899 0.800000 -0.300000
v 0.065101 0.900000 -0.300000
v -0.034899 1.000000 -0.300000
v 0.065101 1.000000 -0.300000
v 0.165101 0.800000 -0.300000
v 0.165101 0.900000 -0.300000
v -0.034899 0.600000 0.800000
v -0.034899 0.700000 0.800000
v 0.065101 0.600000 0.800000
v 0.065101 0.700000 0.800000
v -0.034899 1.000000 0.800000
v -0.034899 1.100000 0.800000
v 0.065101 1.000000 0.800000
v 0.065101 1.100000 0.800000
v -0.134899 0.700000 0.700000
v -0.134899 1.000000 0.700000
v -0.034899 0.700000 0.700000
v -0.034899 0.800000 0.700000
v 0.065101 0.700000 0.700000
v 0.065101 0.800000 0.700000
v 0.165101 0.700000 0.700000
v 0.165101 1.000000 0.700000
v -0.434899 0.700000 0.100000
v -0.434899 0.800000 0.100000
v -0.334899 0.700000 0.100000
v -0.334899 0.800000 0.100000
v 0.365101 0.700000 0.100000
v 0.365101 0.800000 0.100000
v 0.465101 0.700000 0.100000
v 0.465101 0.800000 0.100000
v -0.434899 0.400000 0.000000
v -0.434899 0.500000 0.000000
v -0.334899 0.400000 0.000000
v -0.334899 0.500000 0.000000
v 0.365101 0.400000 0.000000
v 0.365101 0.500000 0.000000
v 0.465101 0.400000 0.000000
v 0.465101 0.500000 0.000000
v -0.434899 0.500000 -0.100000
v -0.434899 0.600000 -0.100000
v -0.334899 0.500000 -0.100000
v -0.334899 0.600000 -0.100000
v -0.334899 0.000000 -0.100000
v -0.334899 0.100000 -0.100000
v -0.234899 0.100000 -0.100000
v -0.134899 0.100000 -0.100000
v -0.234899 0.300000 -0.100000
v -0.134899 0.300000 -0.100000
v -0.034899 0.000000 -0.100000
v -0.034899 0.100000 -0.100000
v 0.065101 0.000000 -0.100000
v 0.065101 0.100000 -0.100000
v 0.165101 0.100000 -0.100000
v 0.265101 0.100000 -0.100000
v 0.165101 0.300000 -0.100000
v 0.265101 0.300000 -0.100000
v 0.365101 0.000000 -0.100000
v 0.365101 0.100000 -0.100000
v 0.365101 0.500000 -0.100000
v 0.365101 0.600000 -0.100000
v 0.465101 0.500000 -0.100000
v 0.465101 0.600000 -0.100000
v -0.434899 0.600000 -0.200000
v -0.434899 0.700000 -0.200000
v -0.334899 0.600000 -0.200000
v -0.334899 0.700000 -0.200000
v 0.365101 0.600000 -0.200000
v 0.365101 0.700000 -0.200000
v 0.465101 0.600000 -0.200000
v 0.465101 0.700000 -0.200000
v -0.234899 0.500000 -0.300000
v -0.234899 0.700000 -0.300000
v -0.134899 0.500000 -0.300000
v -0.134899 0.700000 -0.300000
v -0.134899 0.400000 -0.300000
v 0.165101 0.400000 -0.300000
v 0.165101 0.500000 -0.300000
v 0.165101 0.700000 -0.300000
v 0.265101 0.500000 -0.300000
v 0.265101 0.700000 -0.300000
v -0.134899 0.700000 -0.400000
v -0.134899 0.900000 -0.400000
v -0.034899 0.900000 -0.400000
v 0.065101 0.900000 -0.400000
v -0.034899 1.000000 -0.400000
v 0.065101 1.000000 -0.400000
v 0.165101 0.700000 -0.400000
v 0.165101 0.900000 -0.400000
v -0.234899 -0.000000 0.100000
v -0.134899 -0.000000 0.200000
v -0.234899 -0.000000 0.200000
v -0.134899 -0.000000 0.100000
v 0.165101 -0.000000 0.100000
v 0.265101 -0.000000 0.200000
v 0.165101 -0.000000 0.200000
v 0.265101 -0.000000 0.100000
v -0.334899 0.000000 0.000000
v -0.334899 -0.000000 0.100000
v -0.234899 0.000000 0.000000
v -0.134899 0.000000 0.000000
v -0.034899 -0.000000 0.100000
v -0.034899 0.000000 0.000000
v 0.065101 0.000000 0.000000
v 0.065101 -0.000000 0.100000
v 0.165101 0.000000 0.000000
v 0.265101 0.000000 0.000000
v 0.365101 -0.000000 0.100000
v 0.365101 0.000000 0.000000
v -0.334899 0.000000 -0.100000
v -0.034899 0.000000 -0.100000
v 0.065101 0.000000 -0.100000
v 0.365101 0.000000 -0.100000
v -0.434899 0.400000 0.000000
v -0.334899 0.400000 0.400000
v -0.434899 0.400000 0.400000
v -0.334899 0.400000 0.000000
v 0.365101 0.400000 0.000000
v 0.465101 0.400000 0.400000
v 0.365101 0.400000 0.400000
v 0.465101 0.400000 0.000000
v -0.134899 0.400000 -0.300000
v 0.165101 0.400000 0.600000
v -0.134899 0.400000 0.600000
v 0.165101 0.400000 -0.300000
v -0.434899 0.500000 0.400000
v -0.334899 0.500000 0.500000
v -0.434899 0.500000 0.500000
v -0.334899 0.500000 0.400000
v 0.365101 0.500000 0.400000
v 0.465101 0.500000 0.500000
v 0.365101 0.500000 0.500000
v 0.465101 0.500000 0.400000
v -0.434899 0.500000 -0.100000
v -0.334899 0.500000 0.000000
v -0.434899 0.500000 0.000000
v -0.334899 0.500000 -0.100000
v 0.365101 0.500000 -0.100000
v 0.465101 0.500000 0.000000
v 0.365101 0.500000 0.000000
v 0.465101 0.500000 -0.100000
v -0.234899 0.500000 -0.300000
v -0.134899 0.500000 0.600000
v -0.234899 0.500000 0.600000
v -0.134899 0.500000 -0.300000
v 0.165101 0.500000 -0.300000
v 0.265101 0.500000 0.600000
v 0.165101 0.500000 0.600000
v 0.265101 0.500000 -0.300000
v -0.034899 0.600000 0.800000
v 0.065101 0.600000 1.000000
v -0.034899 0.600000 1.000000
v 0.065101 0.600000 0.800000
v -0.434899 0.600000 -0.200000
v -0.334899 0.600000 -0.100000
v -0.434899 0.600000 -0.100000
v -0.334899 0.600000 -0.200000
v 0.365101 0.600000 -0.200000
v 0.465101 0.600000 -0.100000
v 0.365101 0.600000 -0.100000
v 0.465101 0.600000 -0.200000
v -0.034899 0.700000 1.000000
v 0.065101 0.700000 1.200000
v -0.034899 0.700000 1.200000
v 0.065101 0.700000 1.000000
v -0.034899 0.700000 0.800000
v -0.134899 0.700000 1.000000
v 0.065101 0.700000 0.800000
v 0.165101 0.700000 1.000000
v -0.134899 0.700000 0.700000
v -0.034899 0.700000 0.700000
v 0.065101 0.700000 0.700000
v 0.165101 0.700000 0.700000
v -0.134899 0.700000 -0.400000
v 0.165101 0.700000 -0.300000
v -0.134899 0.700000 -0.300000
v 0.165101 0.700000 -0.400000
v -0.234899 0.100000 0.200000
v -0.134899 0.100000 0.200000
v -0.234899 0.100000 0.100000
v -0.134899 0.100000 0.100000
v 0.165101 0.100000 0.200000
v 0.265101 0.100000 0.200000
v 0.165101 0.100000 0.100000
v 0.265101 0.100000 0.100000
v -0.334899 0.100000 0.100000
v -0.334899 0.100000 0.000000
v -0.234899 0.100000 0.000000
v -0.034899 0.100000 0.100000
v -0.134899 0.100000 0.000000
v -0.034899 0.100000 0.000000
v 0.065101 0.100000 0.100000
v 0.065101 0.100000 0.000000
v 0.165101 0.100000 0.000000
v 0.365101 0.100000 0.100000
v 0.265101 0.100000 0.000000
v 0.365101 0.100000 0.000000
v -0.334899 0.100000 -0.100000
v -0.234899 0.100000 -0.100000
v -0.134899 0.100000 -0.100000
v -0.034899 0.100000 -0.100000
v 0.065101 0.100000 -0.100000
v 0.165101 0.100000 -0.100000
v 0.265101 0.100000 -0.100000
v 0.365101 0.100000 -0.100000
v -0.234899 0.300000 0.000000
v -0.134899 0.300000 0.000000
v -0.234899 0.300000 -0.100000
v -0.134899 0.300000 -0.100000
v 0.165101 0.300000 0.000000
v 0.265101 0.300000 0.000000
v 0.165101 0.300000 -0.100000
v 0.265101 0.300000 -0.100000
v -0.234899 0.700000 0.600000
v -0.034899 0.700000 0.600000
v -0.134899 0.700000 0.500000
v 0.065101 0.700000 0.600000
v -0.034899 0.700000 0.500000
v 0.265101 0.700000 0.600000
v 0.065101 0.700000 0.500000
v 0.165101 0.700000 0.500000
v -0.434899 0.700000 0.500000
v -0.334899 0.700000 0.500000
v -0.434899 0.700000 0.400000
v -0.334899 0.700000 0.400000
v 0.365101 0.700000 0.500000
v 0.465101 0.700000 0.500000
v 0.365101 0.700000 0.400000
v 0.465101 0.700000 0.400000
v -0.434899 0.700000 0.100000
v -0.334899 0.700000 0.100000
v -0.434899 0.700000 -0.200000
v -0.334899 0.700000 -0.200000
v 0.365101 0.700000 0.100000
v 0.465101 0.700000 0.100000
v 0.365101 0.700000 -0.200000
v 0.465101 0.700000 -0.200000
v -0.234899 0.700000 -0.300000
v -0.134899 0.700000 -0.300000
v 0.165101 0.700000 -0.300000
v 0.265101 0.700000 -0.300000
v -0.034899 0.800000 1.200000
v 0.065101 0.800000 1.200000
v -0.034899 0.800000 1.100000
v 0.065101 0.800000 1.100000
v -0.434899 0.800000 0.400000
v -0.334899 0.800000 0.400000
v -0.434899 0.800000 0.100000
v -0.334899 0.800000 0.100000
v 0.365101 0.800000 0.400000
v 0.465101 0.800000 0.400000
v 0.365101 0.800000 0.100000
v 0.465101 0.800000 0.100000
v -0.134899 0.800000 0.500000
v 0.165101 0.800000 0.500000
v -0.134899 0.800000 -0.300000
v 0.165101 0.800000 -0.300000
v -0.134899 0.900000 -0.300000
v -0.034899 0.900000 -0.300000
v -0.134899 0.900000 -0.400000
v -0.034899 0.900000 -0.400000
v 0.065101 0.900000 -0.300000
v 0.165101 0.900000 -0.300000
v 0.065101 0.900000 -0.400000
v 0.165101 0.900000 -0.400000
v -0.034899 1.000000 1.100000
v 0.065101 1.000000 1.100000
v -0.034899 1.000000 1.000000
v 0.065101 1.000000 1.000000
v -0.134899 1.000000 1.000000
v -0.034899 1.000000 0.800000
v 0.165101 1.000000 1.000000
v 0.065101 1.000000 0.800000
v -0.134899 1.000000 0.700000
v 0.165101 1.000000 0.700000
v -0.034899 1.000000 -0.300000
v 0.065101 1.000000 -0.300000
v -0.034899 1.000000 -0.400000
v 0.065101 1.000000 -0.400000
v -0.034899 1.100000 1.000000
v 0.065101 1.100000 1.000000
v -0.034899 1.100000 0.800000
v 0.065101 1.100000 0.800000
vt 0.041016 0.500000
vt 0.041016 0.500000
vt 0.041016 0.500000
vt 0.041016 0.500000
vt 0.005859 0.500000
vt 0.005859 0.500000
vt 0.005859 0.500000
vt 0.041016 0.500000
vt 0.041016 0.500000
vt 0.005859 0.500000
vt 0.041016 0.500000
vt 0.041016 0.500000
vt 0.041016 0.500000
vt 0.005859 0.500000
vt 0.041016 0.500000
vt 0.041016 0.500000
vt 0.041016 0.500000
vt 0.005859 0.500000
vt 0.041016 0.500000
vt 0.041016 0.500000
vt 0.005859 0.500000
vt 0.005859 0.500000
vt 0.001953 0.500000
vt 0.001953 0.500000
vt 0.001953 0.500000
vt 0.017578 0.500000
vt 0.017578 0.500000
vt 0.017578 0.500000
vt 0.001953 0.500000
vt 0.017578 0.500000
vt 0.001953 0.500000
vt 0.001953 0.500000
vt 0.001953 0.500000
vt 0.001953 0.500000
vt 0.017578 0.500000
vt 0.017578 0.500000
vt 0.017578 0.500000
vt 0.017578 0.500000
vt 0.005859 0.500000
vt 0.005859 0.500000
vt 0.005859 0.500000
vt 0.005859 0.500000
vt 0.041016 0.500000
vt 0.041016 0.500000
vt 0.041016 0.500000
vt 0.041016 0.500000
vt 0.005859 0.500000
vt 0.005859 0.500000
vt 0.005859 0.500000
vt 0.005859 0.500000
vt 0.005859 0.500000
vt 0.005859 0.500000
vt 0.005859 0.500000
vt 0.041016 0.500000
vt 0.041016 0.500000
vt 0.041016 0.500000
vt 0.005859 0.500000
vt 0.005859 0.500000
vt 0.009766 0.500000
vt 0.009766 0.500000
vt 0.009766 0.500000
vt 0.005859 0.500000
vt 0.009766 0.500000
vt 0.041016 0.500000
vt 0.041016 0.500000
vt 0.005859 0.500000
vt 0.005859 0.500000
vt 0.279297 0.500000
vt 0.279297 0.500000
vt 0.279297 0.500000
vt 0.279297 0.500000
vt 0.021484 0.500000
vt 0.021484 0.500000
vt 0.021484 0.500000
vt 0.021484 0.500000
vt 0.021484 0.500000
vt 0.021484 0.500000
vt 0.279297 0.500000
vt 0.279297 0.500000
vt 0.279297 0.500000
vt 0.279297 0.500000
vt 0.041016 0.500000
vt 0.041016 0.500000
vt 0.041016 0.500000
vt 0.041016 0.500000
vt 0.279297 0.500000
vt 0.279297 0.500000
vt 0.279297 0.500000
vt 0.001953 0.500000
vt 0.001953 0.500000
vt 0.001953 0.500000
vt 0.017578 0.500000
vt 0.017578 0.500000
vt 0.017578 0.500000
vt 0.001953 0.500000
vt 0.017578 0.500000
vt 0.001953 0.500000
vt 0.001953 0.500000
vt 0.001953 0.500000
vt 0.001953 0.500000
vt 0.017578 0.500000
vt 0.017578 0.500000
vt 0.017578 0.500000
vt 0.017578 0.500000
vt 0.041016 0.500000
vt 0.041016 0.500000
vt 0.041016 0.500000
vt 0.041016 0.500000
vt 0.005859 0.500000
vt 0.005859 0.500000
vt 0.005859 0.500000
vt 0.041016 0.500000
vt 0.041016 0.500000
vt 0.005859 0.500000
vt 0.041016 0.500000
vt 0.041016 0.500000
vt 0.041016 0.500000
vt 0.005859 0.500000
vt 0.041016 0.500000
vt 0.041016 0.500000
vt 0.041016 0.500000
vt 0.005859 0.500000
vt 0.041016 0.500000
vt 0.041016 0.500000
vt 0.005859 0.500000
vt 0.005859 0.500000
vt 0.041016 0.500000
vt 0.041016 0.500000
vt 0.041016 0.500000
vt 0.041016 0.500000
vt 0.005859 0.500000
vt 0.005859 0.500000
vt 0.005859 0.500000
vt 0.041016 0.500000
vt 0.041016 0.500000
vt 0.005859 0.500000
vt 0.041016 0.500000
vt 0.041016 0.500000
vt 0.041016 0.500000
vt 0.005859 0.500000
vt 0.041016 0.500000
vt 0.041016 0.500000
vt 0.041016 0.500000
vt 0.005859 0.500000
vt 0.041016 0.500000
vt 0.041016 0.500000
vt 0.005859 0.500000
vt 0.005859 0.500000
vt 0.001953 0.500000
vt 0.001953 0.500000
vt 0.001953 0.500000
vt 0.001953 0.500000
vt 0.017578 0.500000
vt 0.017578 0.500000
vt 0.017578 0.500000
vt 0.017578 0.500000
vt 0.001953 0.500000
vt 0.001953 0.500000
vt 0.001953 0.500000
vt 0.017578 0.500000
vt 0.017578 0.500000
vt 0.017578 0.500000
vt 0.001953 0.500000
vt 0.017578 0.500000
vt 0.279297 0.500000
vt 0.279297 0.500000
vt 0.279297 0.500000
vt 0.279297 0.500000
vt 0.021484 0.500000
vt 0.021484 0.500000
vt 0.021484 0.500000
vt 0.021484 0.500000
vt 0.021484 0.500000
vt 0.021484 0.500000
vt 0.279297 0.500000
vt 0.279297 0.500000
vt 0.279297 0.500000
vt 0.279297 0.500000
vt 0.041016 0.500000
vt 0.041016 0.500000
vt 0.041016 0.500000
vt 0.041016 0.500000
vt 0.279297 0.500000
vt 0.279297 0.500000
vt 0.279297 0.500000
vt 0.041016 0.500000
vt 0.041016 0.500000
vt 0.041016 0.500000
vt 0.041016 0.500000
vt 0.005859 0.500000
vt 0.005859 0.500000
vt 0.005859 0.500000
vt 0.005859 0.500000
vt 0.005859 0.500000
vt 0.005859 0.500000
vt 0.005859 0.500000
vt 0.041016 0.500000
vt 0.041016 0.500000
vt 0.041016 0.500000
vt 0.005859 0.500000
vt 0.005859 0.500000
vt 0.009766 0.500000
vt 0.009766 0.500000
vt 0.009766 0.500000
vt 0.005859 0.500000
vt 0.009766 0.500000
vt 0.041016 0.500000
vt 0.041016 0.500000
vt 0.005859 0.500000
vt 0.005859 0.500000
vt 0.001953 0.500000
vt 0.001953 0.500000
vt 0.001953 0.500000
vt 0.001953 0.500000
vt 0.017578 0.500000
vt 0.017578 0.500000
vt 0.017578 0.500000
vt 0.017578 0.500000
vt 0.005859 0.500000
vt 0.005859 0.500000
vt 0.005859 0.500000
vt 0.005859 0.500000
vt 0.001953 0.500000
vt 0.001953 0.500000
vt 0.001953 0.500000
vt 0.017578 0.500000
vt 0.017578 0.500000
vt 0.017578 0.500000
vt 0.001953 0.500000
vt 0.017578 0.500000
vt 0.041016 0.500000
vt 0.041016 0.500000
vt 0.041016 0.500000
vt 0.041016 0.500000
vt 0.005859 0.500000
vt 0.005859 0.500000
vt 0.005859 0.500000
vt 0.041016 0.500000
vt 0.041016 0.500000
vt 0.005859 0.500000
vt 0.041016 0.500000
vt 0.041016 0.500000
vt 0.041016 0.500000
vt 0.005859 0.500000
vt 0.041016 0.500000
vt 0.041016 0.500000
vt 0.041016 0.500000
vt 0.005859 0.500000
vt 0.041016 0.500000
vt 0.041016 0.500000
vt 0.005859 0.500000
vt 0.005859 0.500000
vt 0.021484 0.500000
vt 0.021484 0.500000
vt 0.021484 0.500000
vt 0.021484 0.500000
vt 0.021484 0.500000
vt 0.021484 0.500000
vt 0.021484 0.500000
vt 0.279297 0.500000
vt 0.279297 0.500000
vt 0.279297 0.500000
vt 0.021484 0.500000
vt 0.279297 0.500000
vt 0.005859 0.500000
vt 0.005859 0.500000
vt 0.005859 0.500000
vt 0.005859 0.500000
vt 0.005859 0.500000
vt 0.279297 0.500000
vt 0.279297 0.500000
vt 0.279297 0.500000
vt 0.279297 0.500000
vt 0.279297 0.500000
vt 0.279297 0.500000
vt 0.279297 0.500000
vt 0.279297 0.500000
vt 0.005859 0.500000
vt 0.005859 0.500000
vt 0.005859 0.500000
vt 0.005859 0.500000
vt 0.005859 0.500000
vt 0.005859 0.500000
vt 0.005859 0.500000
vt 0.005859 0.500000
vt 0.005859 0.500000
vt 0.041016 0.500000
vt 0.041016 0.500000
vt 0.041016 0.500000
vt 0.005859 0.500000
vt 0.041016 0.500000
vt 0.005859 0.500000
vt 0.041016 0.500000
vt 0.041016 0.500000
vt 0.041016 0.500000
vt 0.041016 0.500000
vt 0.041016 0.500000
vt 0.005859 0.500000
vt 0.005859 0.500000
vt 0.005859 0.500000
vt 0.041016 0.500000
vt 0.005859 0.500000
vt 0.005859 0.500000
vt 0.005859 0.500000
vt 0.041016 0.500000
vt 0.041016 0.500000
vt 0.041016 0.500000
vt 0.041016 0.500000
vt 0.005859 0.500000
vt 0.005859 0.500000
vt 0.005859 0.500000
vt 0.005859 0.500000
vt 0.005859 0.500000
vt 0.005859 0.500000
vt 0.041016 0.500000
vt 0.041016 0.500000
vt 0.041016 0.500000
vt 0.041016 0.500000
vt 0.041016 0.500000
vt 0.041016 0.500000
vt 0.041016 0.500000
vt 0.041016 0.500000
vt 0.005859 0.500000
vt 0.005859 0.500000
vt 0.005859 0.500000
vt 0.005859 0.500000
vt 0.041016 0.500000
vt 0.041016 0.500000
vt 0.041016 0.500000
vt 0.041016 0.500000
vt 0.005859 0.500000
vt 0.005859 0.500000
vt 0.005859 0.500000
vt 0.005859 0.500000
vt 0.001953 0.500000
vt 0.001953 0.500000
vt 0.001953 0.500000
vt 0.001953 0.500000
vt 0.001953 0.500000
vt 0.001953 0.500000
vt 0.001953 0.500000
vt 0.001953 0.500000
vt 0.001953 0.500000
vt 0.001953 0.500000
vt 0.001953 0.500000
vt 0.001953 0.500000
vt 0.001953 0.500000
vt 0.001953 0.500000
vt 0.001953 0.500000
vt 0.001953 0.500000
vt 0.001953 0.500000
vt 0.001953 0.500000
vt 0.001953 0.500000
vt 0.001953 0.500000
vt 0.001953 0.500000
vt 0.001953 0.500000
vt 0.001953 0.500000
vt 0.001953 0.500000
vt 0.017578 0.500000
vt 0.017578 0.500000
vt 0.017578 0.500000
vt 0.017578 0.500000
vt 0.017578 0.500000
vt 0.017578 0.500000
vt 0.017578 0.500000
vt 0.017578 0.500000
vt 0.041016 0.500000
vt 0.041016 0.500000
vt 0.041016 0.500000
vt 0.041016 0.500000
vt 0.041016 0.500000
vt 0.041016 0.500000
vt 0.041016 0.500000
vt 0.041016 0.500000
vt 0.279297 0.500000
vt 0.279297 0.500000
vt 0.279297 0.500000
vt 0.279297 0.500000
vt 0.279297 0.500000
vt 0.279297 0.500000
vt 0.279297 0.500000
vt 0.279297 0.500000
vt 0.005859 0.500000
vt 0.005859 0.500000
vt 0.005859 0.500000
vt 0.005859 0.500000
vt 0.041016 0.500000
vt 0.041016 0.500000
vt 0.041016 0.500000
vt 0.005859 0.500000
vt 0.041016 0.500000
vt 0.005859 0.500000
vt 0.005859 0.500000
vt 0.005859 0.500000
vt 0.005859 0.500000
vt 0.005859 0.500000
vt 0.005859 0.500000
vt 0.005859 0.500000
vt 0.005859 0.500000
vt 0.005859 0.500000
vt 0.005859 0.500000
vt 0.005859 0.500000
vt 0.041016 0.500000
vt 0.041016 0.500000
vt 0.041016 0.500000
vt 0.041016 0.500000
vt 0.041016 0.500000
vt 0.041016 0.500000
vt 0.041016 0.500000
vt 0.041016 0.500000
vt 0.041016 0.500000
vt 0.041016 0.500000
vt 0.041016 0.500000
vt 0.041016 0.500000
vt 0.017578 0.500000
vt 0.017578 0.500000
vt 0.017578 0.500000
vt 0.017578 0.500000
vt 0.017578 0.500000
vt 0.017578 0.500000
vt 0.017578 0.500000
vt 0.017578 0.500000
vt 0.017578 0.500000
vt 0.017578 0.500000
vt 0.017578 0.500000
vt 0.017578 0.500000
vt 0.017578 0.500000
vt 0.017578 0.500000
vt 0.017578 0.500000
vt 0.017578 0.500000
vt 0.041016 0.500000
vt 0.041016 0.500000
vt 0.041016 0.500000
vt 0.041016 0.500000
vt 0.041016 0.500000
vt 0.041016 0.500000
vt 0.041016 0.500000
vt 0.041016 0.500000
vt 0.041016 0.500000
vt 0.041016 0.500000
vt 0.041016 0.500000
vt 0.041016 0.500000
vt 0.005859 0.500000
vt 0.005859 0.500000
vt 0.005859 0.500000
vt 0.005859 0.500000
vt 0.041016 0.500000
vt 0.041016 0.500000
vt 0.041016 0.500000
vt 0.041016 0.500000
vt 0.041016 0.500000
vt 0.041016 0.500000
vt 0.005859 0.500000
vt 0.005859 0.500000
vt 0.005859 0.500000
vt 0.005859 0.500000
vt 0.041016 0.500000
vt 0.041016 0.500000
vt 0.041016 0.500000
vt 0.041016 0.500000
vt 0.041016 0.500000
vt 0.041016 0.500000
vt 0.041016 0.500000
vt 0.041016 0.500000
vt 0.001953 0.500000
vt 0.001953 0.500000
vt 0.001953 0.500000
vt 0.001953 0.500000
vt 0.001953 0.500000
vt 0.001953 0.500000
vt 0.001953 0.500000
vt 0.001953 0.500000
vt 0.001953 0.500000
vt 0.001953 0.500000
vt 0.017578 0.500000
vt 0.017578 0.500000
vt 0.017578 0.500000
vt 0.001953 0.500000
vt 0.001953 0.500000
vt 0.001953 0.500000
vt 0.017578 0.500000
vt 0.001953 0.500000
vt 0.001953 0.500000
vt 0.001953 0.500000
vt 0.017578 0.500000
vt 0.017578 0.500000
vt 0.017578 0.500000
vt 0.001953 0.500000
vt 0.001953 0.500000
vt 0.001953 0.500000
vt 0.017578 0.500000
vt 0.001953 0.500000
vt 0.017578 0.500000
vt 0.017578 0.500000
vt 0.017578 0.500000
vt 0.017578 0.500000
vt 0.017578 0.500000
vt 0.017578 0.500000
vt 0.017578 0.500000
vt 0.017578 0.500000
vt 0.041016 0.500000
vt 0.041016 0.500000
vt 0.041016 0.500000
vt 0.041016 0.500000
vt 0.041016 0.500000
vt 0.041016 0.500000
vt 0.041016 0.500000
vt 0.041016 0.500000
vt 0.041016 0.500000
vt 0.041016 0.500000
vt 0.041016 0.500000
vt 0.041016 0.500000
vt 0.041016 0.500000
vt 0.041016 0.500000
vt 0.041016 0.500000
vt 0.041016 0.500000
vt 0.041016 0.500000
vt 0.041016 0.500000
vt 0.041016 0.500000
vt 0.041016 0.500000
vt 0.041016 0.500000
vt 0.041016 0.500000
vt 0.041016 0.500000
vt 0.041016 0.500000
vt 0.041016 0.500000
vt 0.041016 0.500000
vt 0.041016 0.500000
vt 0.041016 0.500000
vt 0.005859 0.500000
vt 0.005859 0.500000
vt 0.005859 0.500000
vt 0.005859 0.500000
vt 0.005859 0.500000
vt 0.005859 0.500000
vt 0.005859 0.500000
vt 0.005859 0.500000
vt 0.279297 0.500000
vt 0.279297 0.500000
vt 0.279297 0.500000
vt 0.279297 0.500000
vt 0.041016 0.500000
vt 0.041016 0.500000
vt 0.041016 0.500000
vt 0.041016 0.500000
vt 0.041016 0.500000
vt 0.041016 0.500000
vt 0.041016 0.500000
vt 0.041016 0.500000
vt 0.021484 0.500000
vt 0.021484 0.500000
vt 0.021484 0.500000
vt 0.021484 0.500000
vt 0.005859 0.500000
vt 0.005859 0.500000
vt 0.005859 0.500000
vt 0.005859 0.500000
vt 0.005859 0.500000
vt 0.005859 0.500000
vt 0.005859 0.500000
vt 0.041016 0.500000
vt 0.041016 0.500000
vt 0.041016 0.500000
vt 0.005859 0.500000
vt 0.005859 0.500000
vt 0.041016 0.500000
vt 0.005859 0.500000
vt 0.041016 0.500000
vt 0.041016 0.500000
vt 0.041016 0.500000
vt 0.041016 0.500000
vt 0.001953 0.500000
vt 0.001953 0.500000
vt 0.001953 0.500000
vt 0.001953 0.500000
vt 0.001953 0.500000
vt 0.001953 0.500000
vt 0.001953 0.500000
vt 0.001953 0.500000
vt 0.001953 0.500000
vt 0.001953 0.500000
vt 0.017578 0.500000
vt 0.017578 0.500000
vt 0.017578 0.500000
vt 0.001953 0.500000
vt 0.001953 0.500000
vt 0.001953 0.500000
vt 0.017578 0.500000
vt 0.001953 0.500000
vt 0.001953 0.500000
vt 0.001953 0.500000
vt 0.017578 0.500000
vt 0.017578 0.500000
vt 0.017578 0.500000
vt 0.001953 0.500000
vt 0.001953 0.500000
vt 0.001953 0.500000
vt 0.017578 0.500000
vt 0.001953 0.500000
vt 0.017578 0.500000
vt 0.017578 0.500000
vt 0.017578 0.500000
vt 0.017578 0.500000
vt 0.017578 0.500000
vt 0.017578 0.500000
vt 0.017578 0.500000
vt 0.017578 0.500000
vt 0.017578 0.500000
vt 0.017578 0.500000
vt 0.017578 0.500000
vt 0.017578 0.500000
vt 0.017578 0.500000
vt 0.017578 0.500000
vt 0.017578 0.500000
vt 0.017578 0.500000
vt 0.017578 0.500000
vt 0.017578 0.500000
vt 0.017578 0.500000
vt 0.017578 0.500000
vt 0.005859 0.500000
vt 0.005859 0.500000
vt 0.005859 0.500000
vt 0.041016 0.500000
vt 0.041016 0.500000
vt 0.041016 0.500000
vt 0.005859 0.500000
vt 0.005859 0.500000
vt 0.005859 0.500000
vt 0.005859 0.500000
vt 0.041016 0.500000
vt 0.005859 0.500000
vt 0.041016 0.500000
vt 0.041016 0.500000
vt 0.041016 0.500000
vt 0.041016 0.500000
vt 0.041016 0.500000
vt 0.041016 0.500000
vt 0.041016 0.500000
vt 0.041016 0.500000
vt 0.041016 0.500000
vt 0.041016 0.500000
vt 0.041016 0.500000
vt 0.041016 0.500000
vt 0.041016 0.500000
vt 0.041016 0.500000
vt 0.041016 0.500000
vt 0.041016 0.500000
vt 0.005859 0.500000
vt 0.005859 0.500000
vt 0.005859 0.500000
vt 0.005859 0.500000
vt 0.021484 0.500000
vt 0.021484 0.500000
vt 0.021484 0.500000
vt 0.021484 0.500000
vt 0.005859 0.500000
vt 0.005859 0.500000
vt 0.005859 0.500000
vt 0.005859 0.500000
vt 0.005859 0.500000
vt 0.005859 0.500000
vt 0.005859 0.500000
vt 0.005859 0.500000
vt 0.005859 0.500000
vt 0.005859 0.500000
vt 0.005859 0.500000
vt 0.005859 0.500000
vt 0.041016 0.500000
vt 0.041016 0.500000
vt 0.041016 0.500000
vt 0.041016 0.500000
vt 0.041016 0.500000
vt 0.041016 0.500000
vt 0.041016 0.500000
vt 0.041016 0.500000
vt 0.279297 0.500000
vt 0.279297 0.500000
vt 0.279297 0.500000
vt 0.279297 0.500000
vt 0.005859 0.500000
vt 0.005859 0.500000
vt 0.005859 0.500000
vt 0.005859 0.500000
vt 0.005859 0.500000
vt 0.005859 0.500000
vt 0.005859 0.500000
vt 0.005859 0.500000
vt 0.041016 0.500000
vt 0.041016 0.500000
vt 0.041016 0.500000
vt 0.041016 0.500000
vt 0.279297 0.500000
vt 0.279297 0.500000
vt 0.279297 0.500000
vt 0.279297 0.500000
vn -1.0000 0.0000 0.0000
vn 1.0000 0.0000 0.0000
vn 0.0000 0.0000 1.0000
vn 0.0000 0.0000 -1.0000
vn 0.0000 -1.0000 -0.0000
vn 0.0000 1.0000 0.0000
usemtl palette.002
s 1
f 1/1/1 2/2/1 3/3/1
f 4/4/1 2/2/1 1/1/1
f 5/5/1 4/6/1 1/7/1
f 6/8/1 7/9/1 4/4/1
f 6/10/1 4/6/1 5/5/1
f 8/11/1 7/9/1 6/8/1
f 9/12/1 1/1/1 10/13/1
f 11/14/1 5/5/1 1/7/1
f 11/15/1 1/1/1 9/12/1
f 12/16/1 13/17/1 8/11/1
f 12/18/1 5/5/1 11/14/1
f 12/16/1 6/8/1 5/19/1
f 12/16/1 8/11/1 6/8/1
f 14/20/1 13/17/1 12/16/1
f 15/21/1 12/18/1 11/14/1
f 16/22/1 12/18/1 15/21/1
f 17/23/1 18/24/1 19/25/1
f 20/26/1 21/27/1 18/28/1
f 20/29/1 18/24/1 17/23/1
f 22/30/1 21/27/1 20/26/1
f 23/31/1 24/32/1 25/33/1
f 26/34/1 24/32/1 23/31/1
f 27/35/1 28/36/1 29/37/1
f 30/38/1 28/36/1 27/35/1
f 31/39/1 32/40/1 33/41/1
f 34/42/1 32/40/1 31/39/1
f 35/43/1 36/44/1 37/45/1
f 38/46/1 36/44/1 35/43/1
f 39/47/1 40/48/1 41/49/1
f 42/50/1 40/48/1 39/47/1
f 43/51/1 44/52/1 45/53/1
f 46/54/1 47/55/1 44/56/1
f 46/57/1 44/52/1 43/51/1
f 48/58/1 39/47/1 41/49/1
f 48/59/1 42/60/1 39/61/1
f 49/62/1 40/48/1 42/50/1
f 49/63/1 42/60/1 48/59/1
f 50/64/1 47/55/1 46/54/1
f 51/65/1 47/55/1 50/64/1
f 52/66/1 48/58/1 41/49/1
f 52/66/1 49/62/1 48/58/1
f 53/67/1 40/48/1 49/62/1
f 53/67/1 49/62/1 52/66/1
f 54/68/1 55/69/1 56/70/1
f 57/71/1 55/69/1 54/68/1
f 58/72/1 54/73/1 59/74/1
f 60/75/1 54/73/1 58/72/1
f 61/76/1 54/73/1 60/75/1
f 62/77/1 54/73/1 61/76/1
f 63/78/1 62/79/1 61/80/1
f 64/81/1 62/79/1 63/78/1
f 65/82/1 66/83/1 67/84/1
f 68/85/1 66/83/1 65/82/1
f 69/86/1 70/87/1 64/81/1
f 71/88/1 70/87/1 69/86/1
f 72/89/1 73/90/1 74/91/1
f 75/92/1 76/93/1 73/94/1
f 75/95/1 73/90/1 72/89/1
f 77/96/1 76/93/1 75/92/1
f 78/97/1 79/98/1 80/99/1
f 81/100/1 79/98/1 78/97/1
f 82/101/1 83/102/1 84/103/1
f 85/104/1 83/102/1 82/101/1
f 86/105/1 87/106/1 88/107/1
f 89/108/1 87/106/1 86/105/1
f 90/109/1 89/110/1 86/111/1
f 91/112/1 92/113/1 89/108/1
f 91/114/1 89/110/1 90/109/1
f 93/115/1 92/113/1 91/112/1
f 94/116/1 86/105/1 95/117/1
f 96/118/1 90/109/1 86/111/1
f 96/119/1 86/105/1 94/116/1
f 97/120/1 98/121/1 93/115/1
f 97/122/1 90/109/1 96/118/1
f 97/120/1 91/112/1 90/123/1
f 97/120/1 93/115/1 91/112/1
f 99/124/1 98/121/1 97/120/1
f 100/125/1 97/122/1 96/118/1
f 101/126/1 97/122/1 100/125/1
f 102/127/2 103/128/2 104/129/2
f 104/129/2 103/128/2 105/130/2
f 104/131/2 105/132/2 106/133/2
f 105/130/2 107/134/2 108/135/2
f 106/133/2 105/132/2 108/136/2
f 108/135/2 107/134/2 109/137/2
f 110/138/2 104/129/2 111/139/2
f 104/131/2 106/133/2 112/140/2
f 111/139/2 104/129/2 112/141/2
f 109/137/2 113/142/2 114/143/2
f 112/140/2 106/133/2 114/144/2
f 106/145/2 108/135/2 114/143/2
f 108/135/2 109/137/2 114/143/2
f 114/143/2 113/142/2 115/146/2
f 112/140/2 114/144/2 116/147/2
f 116/147/2 114/144/2 117/148/2
f 118/149/2 119/150/2 120/151/2
f 120/151/2 119/150/2 121/152/2
f 122/153/2 123/154/2 124/155/2
f 124/155/2 123/154/2 125/156/2
f 126/157/2 127/158/2 128/159/2
f 127/160/2 129/161/2 130/162/2
f 128/159/2 127/158/2 130/163/2
f 130/162/2 129/161/2 131/164/2
f 132/165/2 133/166/2 134/167/2
f 134/167/2 133/166/2 135/168/2
f 136/169/2 134/170/2 137/171/2
f 137/171/2 134/170/2 138/172/2
f 138/172/2 134/170/2 139/173/2
f 139/173/2 134/170/2 140/174/2
f 139/175/2 140/176/2 141/177/2
f 141/177/2 140/176/2 142/178/2
f 143/179/2 144/180/2 145/181/2
f 145/181/2 144/180/2 146/182/2
f 142/178/2 147/183/2 148/184/2
f 148/184/2 147/183/2 149/185/2
f 150/186/2 151/187/2 152/188/2
f 152/188/2 151/187/2 153/189/2
f 154/190/2 155/191/2 156/192/2
f 156/192/2 155/191/2 157/193/2
f 158/194/2 159/195/2 160/196/2
f 159/197/2 161/198/2 162/199/2
f 160/196/2 159/195/2 162/200/2
f 154/190/2 156/192/2 163/201/2
f 156/202/2 157/203/2 163/204/2
f 157/193/2 155/191/2 164/205/2
f 163/204/2 157/203/2 164/206/2
f 162/199/2 161/198/2 165/207/2
f 165/207/2 161/198/2 166/208/2
f 154/190/2 163/201/2 167/209/2
f 163/201/2 164/205/2 167/209/2
f 164/205/2 155/191/2 168/210/2
f 167/209/2 164/205/2 168/210/2
f 169/211/2 170/212/2 171/213/2
f 171/213/2 170/212/2 172/214/2
f 173/215/2 174/216/2 175/217/2
f 175/217/2 174/216/2 176/218/2
f 177/219/2 178/220/2 179/221/2
f 179/221/2 178/220/2 180/222/2
f 181/223/2 182/224/2 183/225/2
f 182/226/2 184/227/2 185/228/2
f 183/225/2 182/224/2 185/229/2
f 185/228/2 184/227/2 186/230/2
f 187/231/2 188/232/2 189/233/2
f 189/233/2 188/232/2 190/234/2
f 189/235/2 190/236/2 191/237/2
f 190/234/2 192/238/2 193/239/2
f 191/237/2 190/236/2 193/240/2
f 193/239/2 192/238/2 194/241/2
f 195/242/2 189/233/2 196/243/2
f 189/235/2 191/237/2 197/244/2
f 196/243/2 189/233/2 197/245/2
f 194/241/2 198/246/2 199/247/2
f 197/244/2 191/237/2 199/248/2
f 191/249/2 193/239/2 199/247/2
f 193/239/2 194/241/2 199/247/2
f 199/247/2 198/246/2 200/250/2
f 197/244/2 199/248/2 201/251/2
f 201/251/2 199/248/2 202/252/2
f 203/253/3 204/254/3 205/255/3
f 206/256/3 204/254/3 203/253/3
f 207/257/3 208/258/3 209/259/3
f 210/260/3 211/261/3 208/262/3
f 210/263/3 208/258/3 207/257/3
f 212/264/3 211/261/3 210/260/3
f 213/265/3 214/266/3 215/267/3
f 216/268/3 214/266/3 213/265/3
f 217/269/3 214/266/3 216/268/3
f 218/270/3 213/271/3 219/272/3
f 220/273/3 213/271/3 218/270/3
f 221/274/3 222/275/3 217/276/3
f 223/277/3 222/275/3 221/274/3
f 224/278/3 225/279/3 220/280/3
f 224/278/3 221/281/3 225/279/3
f 226/282/3 221/281/3 224/278/3
f 227/283/3 228/284/3 229/285/3
f 230/286/3 228/284/3 227/283/3
f 231/287/3 227/288/3 232/289/3
f 231/290/3 228/284/3 230/286/3
f 231/287/3 230/291/3 227/288/3
f 233/292/3 228/284/3 231/290/3
f 234/293/3 231/287/3 232/289/3
f 234/293/3 233/294/3 231/287/3
f 235/295/3 233/294/3 234/293/3
f 236/296/3 234/293/3 232/289/3
f 237/297/3 234/293/3 236/296/3
f 238/298/3 235/299/3 234/300/3
f 238/301/3 234/293/3 237/297/3
f 239/302/3 238/298/3 237/303/3
f 240/304/3 235/299/3 238/298/3
f 240/304/3 238/298/3 239/302/3
f 241/305/3 242/306/3 243/307/3
f 244/308/3 242/306/3 241/305/3
f 245/309/3 246/310/3 247/311/3
f 248/312/3 246/310/3 245/309/3
f 249/313/3 246/310/3 248/312/3
f 250/314/3 246/310/3 249/313/3
f 251/315/3 252/316/3 253/317/3
f 254/318/3 252/316/3 251/315/3
f 255/319/3 256/320/3 257/321/3
f 258/322/3 256/320/3 255/319/3
f 259/323/3 260/324/3 261/325/3
f 262/326/3 260/324/3 259/323/3
f 263/327/3 264/328/3 265/329/3
f 266/330/3 264/328/3 263/327/3
f 267/331/3 268/332/3 269/333/3
f 270/334/3 268/332/3 267/331/3
f 271/335/3 272/336/3 273/337/3
f 274/338/3 272/336/3 271/335/3
f 275/339/3 276/340/3 277/341/3
f 278/342/3 276/340/3 275/339/3
f 279/343/3 280/344/3 281/345/3
f 282/346/3 280/344/3 279/343/3
f 283/347/3 284/348/3 285/349/3
f 286/350/3 284/348/3 283/347/3
f 287/351/3 288/352/3 289/353/3
f 290/354/3 288/352/3 287/351/3
f 291/355/3 292/356/3 293/357/3
f 294/358/3 292/356/3 291/355/3
f 295/359/3 296/360/3 297/361/3
f 298/362/3 296/360/3 295/359/3
f 299/363/3 300/364/3 301/365/3
f 302/366/3 300/364/3 299/363/3
f 303/367/3 304/368/3 305/369/3
f 306/370/3 303/367/3 305/369/3
f 306/370/3 307/371/3 303/367/3
f 308/372/3 307/371/3 306/370/3
f 309/373/3 306/370/3 305/369/3
f 310/374/3 306/370/3 309/373/3
f 311/375/4 312/376/4 313/377/4
f 313/377/4 312/376/4 314/378/4
f 315/379/4 316/380/4 317/381/4
f 317/381/4 316/380/4 318/382/4
f 319/383/4 320/384/4 321/385/4
f 321/385/4 320/384/4 322/386/4
f 321/387/4 322/388/4 323/389/4
f 322/386/4 320/384/4 324/390/4
f 323/389/4 322/388/4 324/391/4
f 323/392/4 324/390/4 325/393/4
f 324/390/4 320/384/4 326/394/4
f 325/393/4 324/390/4 326/394/4
f 327/395/4 328/396/4 329/397/4
f 329/397/4 328/396/4 330/398/4
f 331/399/4 332/400/4 333/401/4
f 333/401/4 332/400/4 334/402/4
f 335/403/4 336/404/4 337/405/4
f 337/405/4 336/404/4 338/406/4
f 339/407/4 340/408/4 341/409/4
f 341/409/4 340/408/4 342/410/4
f 343/411/4 344/412/4 345/413/4
f 345/413/4 344/412/4 346/414/4
f 347/415/4 348/416/4 349/417/4
f 347/415/4 349/417/4 350/418/4
f 349/417/4 351/419/4 350/418/4
f 350/418/4 351/419/4 352/420/4
f 347/415/4 350/418/4 353/421/4
f 353/421/4 350/418/4 354/422/4
f 355/423/4 356/424/4 357/425/4
f 355/423/4 357/425/4 358/426/4
f 357/425/4 359/427/4 358/426/4
f 358/426/4 359/427/4 360/428/4
f 355/423/4 358/426/4 361/429/4
f 361/429/4 358/426/4 362/430/4
f 363/431/4 364/432/4 365/433/4
f 365/433/4 364/432/4 366/434/4
f 367/435/4 368/436/4 369/437/4
f 369/437/4 368/436/4 370/438/4
f 371/439/4 372/440/4 373/441/4
f 373/441/4 372/440/4 374/442/4
f 375/443/4 376/444/4 377/445/4
f 377/445/4 376/444/4 378/446/4
f 379/447/4 377/448/4 380/449/4
f 377/448/4 378/450/4 380/449/4
f 380/449/4 378/450/4 381/451/4
f 381/451/4 378/450/4 382/452/4
f 381/453/4 382/454/4 383/455/4
f 383/455/4 382/454/4 384/456/4
f 385/457/4 386/458/4 387/459/4
f 385/457/4 387/459/4 388/460/4
f 387/459/4 389/461/4 388/460/4
f 388/460/4 389/461/4 390/462/4
f 385/457/4 388/460/4 391/463/4
f 391/463/4 388/460/4 392/464/4
f 393/465/5 394/466/5 395/467/5
f 396/468/5 394/466/5 393/465/5
f 397/469/5 398/470/5 399/471/5
f 400/472/5 398/470/5 397/469/5
f 401/473/5 393/465/5 402/474/5
f 403/475/5 396/476/5 393/477/5
f 403/478/5 393/465/5 401/473/5
f 404/479/5 405/480/5 396/468/5
f 404/481/5 396/476/5 403/475/5
f 406/482/5 405/480/5 404/479/5
f 407/483/5 397/469/5 408/484/5
f 409/485/5 400/486/5 397/487/5
f 409/488/5 397/469/5 407/483/5
f 410/489/5 411/490/5 400/472/5
f 410/491/5 400/486/5 409/485/5
f 412/492/5 411/490/5 410/489/5
f 413/493/5 403/475/5 401/494/5
f 413/493/5 406/495/5 404/481/5
f 413/493/5 404/481/5 403/475/5
f 414/496/5 406/495/5 413/493/5
f 415/497/5 409/485/5 407/498/5
f 415/497/5 412/499/5 410/491/5
f 415/497/5 410/491/5 409/485/5
f 416/500/5 412/499/5 415/497/5
f 417/501/5 418/502/5 419/503/5
f 420/504/5 418/502/5 417/501/5
f 421/505/5 422/506/5 423/507/5
f 424/508/5 422/506/5 421/505/5
f 425/509/5 426/510/5 427/511/5
f 428/512/5 426/510/5 425/509/5
f 429/513/5 430/514/5 431/515/5
f 432/516/5 430/514/5 429/513/5
f 433/517/5 434/518/5 435/519/5
f 436/520/5 434/518/5 433/517/5
f 437/521/5 438/522/5 439/523/5
f 440/524/5 438/522/5 437/521/5
f 441/525/5 442/526/5 443/527/5
f 444/528/5 442/526/5 441/525/5
f 445/529/5 446/530/5 447/531/5
f 448/532/5 446/530/5 445/529/5
f 449/533/5 450/534/5 451/535/5
f 452/536/5 450/534/5 449/533/5
f 453/537/5 454/538/5 455/539/5
f 456/540/5 454/538/5 453/537/5
f 457/541/5 458/542/5 459/543/5
f 460/544/5 458/542/5 457/541/5
f 461/545/5 462/546/5 463/547/5
f 464/548/5 462/546/5 461/545/5
f 465/549/5 466/550/5 467/551/5
f 468/552/5 466/550/5 465/549/5
f 469/553/5 465/554/5 470/555/5
f 471/556/5 472/557/5 468/558/5
f 473/559/5 469/553/5 470/555/5
f 474/560/5 471/561/5 469/562/5
f 474/563/5 469/553/5 473/559/5
f 475/564/5 472/557/5 471/556/5
f 475/565/5 471/561/5 474/560/5
f 476/566/5 472/557/5 475/564/5
f 477/567/5 478/568/5 479/569/5
f 480/570/5 478/568/5 477/567/5
f 481/571/6 482/572/6 483/573/6
f 483/573/6 482/572/6 484/574/6
f 485/575/6 486/576/6 487/577/6
f 487/577/6 486/576/6 488/578/6
f 489/579/6 483/573/6 490/580/6
f 483/581/6 484/582/6 491/583/6
f 490/580/6 483/573/6 491/584/6
f 484/574/6 492/585/6 493/586/6
f 491/583/6 484/582/6 493/587/6
f 493/586/6 492/585/6 494/588/6
f 495/589/6 487/577/6 496/590/6
f 487/591/6 488/592/6 497/593/6
f 496/590/6 487/577/6 497/594/6
f 488/578/6 498/595/6 499/596/6
f 497/593/6 488/592/6 499/597/6
f 499/596/6 498/595/6 500/598/6
f 490/599/6 491/583/6 501/600/6
f 501/600/6 491/583/6 502/601/6
f 493/587/6 494/602/6 503/603/6
f 503/603/6 494/602/6 504/604/6
f 496/605/6 497/593/6 505/606/6
f 505/606/6 497/593/6 506/607/6
f 499/597/6 500/608/6 507/609/6
f 507/609/6 500/608/6 508/610/6
f 509/611/6 510/612/6 511/613/6
f 511/613/6 510/612/6 512/614/6
f 513/615/6 514/616/6 515/617/6
f 515/617/6 514/616/6 516/618/6
f 517/619/6 518/620/6 519/621/6
f 518/622/6 520/623/6 521/624/6
f 519/621/6 518/620/6 521/625/6
f 520/626/6 522/627/6 523/628/6
f 521/624/6 520/623/6 523/629/6
f 523/628/6 522/627/6 524/630/6
f 525/631/6 526/632/6 527/633/6
f 527/633/6 526/632/6 528/634/6
f 529/635/6 530/636/6 531/637/6
f 531/637/6 530/636/6 532/638/6
f 533/639/6 534/640/6 535/641/6
f 535/641/6 534/640/6 536/642/6
f 537/643/6 538/644/6 539/645/6
f 539/645/6 538/644/6 540/646/6
f 517/619/6 519/621/6 541/647/6
f 541/647/6 519/621/6 542/648/6
f 524/630/6 522/627/6 543/649/6
f 543/649/6 522/627/6 544/650/6
f 545/651/6 546/652/6 547/653/6
f 547/653/6 546/652/6 548/654/6
f 549/655/6 550/656/6 551/657/6
f 551/657/6 550/656/6 552/658/6
f 553/659/6 554/660/6 555/661/6
f 555/661/6 554/660/6 556/662/6
f 557/663/6 558/664/6 559/665/6
f 559/665/6 558/664/6 560/666/6
f 561/667/6 562/668/6 563/669/6
f 563/669/6 562/668/6 564/670/6
f 565/671/6 566/672/6 567/673/6
f 567/673/6 566/672/6 568/674/6
f 569/675/6 570/676/6 571/677/6
f 571/677/6 570/676/6 572/678/6
f 573/679/6 571/680/6 574/681/6
f 572/682/6 575/683/6 576/684/6
f 573/679/6 574/681/6 577/685/6
f 574/681/6 576/684/6 577/685/6
f 576/684/6 575/683/6 578/686/6
f 577/685/6 576/684/6 578/686/6
f 579/687/6 580/688/6 581/689/6
f 581/689/6 580/688/6 582/690/6
f 583/691/6 584/692/6 585/693/6
f 585/693/6 584/692/6 586/694/6
