# Blender v2.93.0 OBJ File: ''
# www.blender.org
mtllib TVS_VoxelFarm_Duck.mtl
o VS_Farm_Duck
v -0.347656 0.100000 0.100000
v -0.347656 0.000000 -0.100000
v -0.347656 -0.000000 0.100000
v -0.347656 0.100000 -0.100000
v -0.347656 0.500000 0.400000
v -0.347656 0.400000 0.000000
v -0.347656 0.400000 0.400000
v -0.347656 0.500000 0.000000
v -0.347656 0.600000 0.100000
v -0.347656 0.600000 0.000000
v -0.347656 0.500000 -0.100000
v -0.347656 0.600000 -0.100000
v -0.347656 0.700000 0.500000
v -0.347656 0.500000 0.500000
v -0.347656 0.700000 0.400000
v -0.347656 0.700000 0.100000
v -0.347656 0.600000 -0.200000
v -0.347656 0.700000 -0.200000
v -0.347656 0.800000 0.400000
v -0.347656 0.800000 0.100000
v -0.247656 0.100000 0.200000
v -0.247656 -0.000000 0.100000
v -0.247656 -0.000000 0.200000
v -0.247656 0.100000 0.100000
v -0.247656 0.300000 0.000000
v -0.247656 0.100000 -0.100000
v -0.247656 0.100000 0.000000
v -0.247656 0.300000 -0.100000
v -0.147656 0.500000 0.500000
v -0.147656 0.400000 -0.300000
v -0.147656 0.400000 0.500000
v -0.147656 0.500000 -0.200000
v -0.147656 0.700000 -0.200000
v -0.147656 0.700000 -0.300000
v -0.147656 0.800000 0.500000
v -0.147656 0.800000 -0.300000
v -0.147656 0.700000 -0.400000
v -0.147656 0.900000 -0.300000
v -0.147656 0.900000 -0.400000
v -0.147656 1.000000 0.900000
v -0.147656 0.900000 0.700000
v -0.147656 0.900000 0.900000
v -0.147656 1.000000 0.700000
v -0.147656 0.900000 0.400000
v -0.147656 1.000000 0.600000
v -0.147656 1.000000 0.500000
v -0.147656 1.100000 0.600000
v -0.147656 1.100000 0.500000
v -0.147656 1.200000 0.700000
v -0.147656 1.200000 0.400000
v -0.047656 1.000000 -0.300000
v -0.047656 0.900000 -0.400000
v -0.047656 0.900000 -0.300000
v -0.047656 1.000000 -0.400000
v 0.052344 0.100000 0.100000
v 0.052344 0.000000 -0.100000
v 0.052344 -0.000000 0.100000
v 0.052344 0.100000 -0.100000
v 0.152344 0.100000 0.200000
v 0.152344 -0.000000 0.100000
v 0.152344 -0.000000 0.200000
v 0.152344 0.100000 0.100000
v 0.152344 0.300000 0.000000
v 0.152344 0.100000 -0.100000
v 0.152344 0.100000 0.000000
v 0.152344 0.300000 -0.100000
v 0.252344 0.500000 0.400000
v 0.252344 0.400000 -0.000000
v 0.252344 0.400000 0.400000
v 0.252344 0.500000 -0.000000
v 0.252344 0.600000 0.100000
v 0.252344 0.600000 0.000000
v 0.252344 0.500000 -0.100000
v 0.252344 0.600000 -0.100000
v 0.252344 0.700000 0.500000
v 0.252344 0.500000 0.500000
v 0.252344 0.700000 0.400000
v 0.252344 0.700000 0.100000
v 0.252344 0.600000 -0.200000
v 0.252344 0.700000 -0.200000
v 0.252344 0.800000 0.400000
v 0.252344 0.800000 0.100000
v -0.247656 0.400000 0.400000
v -0.247656 0.400000 0.000000
v -0.247656 0.500000 0.400000
v -0.247656 0.500000 0.000000
v -0.247656 0.600000 0.100000
v -0.247656 0.500000 -0.100000
v -0.247656 0.600000 0.000000
v -0.247656 0.600000 -0.100000
v -0.247656 0.500000 0.500000
v -0.247656 0.700000 0.500000
v -0.247656 0.700000 0.400000
v -0.247656 0.600000 -0.200000
v -0.247656 0.700000 0.100000
v -0.247656 0.700000 -0.200000
v -0.247656 0.800000 0.400000
v -0.247656 0.800000 0.100000
v -0.147656 -0.000000 0.200000
v -0.147656 -0.000000 0.100000
v -0.147656 0.100000 0.200000
v -0.147656 0.100000 0.100000
v -0.147656 0.100000 0.000000
v -0.147656 0.100000 -0.100000
v -0.147656 0.300000 0.000000
v -0.147656 0.300000 -0.100000
v -0.047656 -0.000000 0.100000
v -0.047656 0.000000 -0.100000
v -0.047656 0.100000 0.100000
v -0.047656 0.100000 -0.100000
v 0.052344 0.900000 -0.300000
v 0.052344 0.900000 -0.400000
v 0.052344 1.000000 -0.300000
v 0.052344 1.000000 -0.400000
v 0.152344 0.400000 0.500000
v 0.152344 0.400000 -0.300000
v 0.152344 0.500000 0.500000
v 0.152344 0.500000 -0.200000
v 0.152344 0.700000 -0.200000
v 0.152344 0.700000 -0.300000
v 0.152344 0.800000 0.500000
v 0.152344 0.700000 -0.400000
v 0.152344 0.800000 -0.300000
v 0.152344 0.900000 -0.300000
v 0.152344 0.900000 -0.400000
v 0.152344 0.900000 0.900000
v 0.152344 0.900000 0.700000
v 0.152344 1.000000 0.900000
v 0.152344 0.900000 0.400000
v 0.152344 1.000000 0.700000
v 0.152344 1.000000 0.600000
v 0.152344 1.000000 0.500000
v 0.152344 1.100000 0.600000
v 0.152344 1.100000 0.500000
v 0.152344 1.200000 0.700000
v 0.152344 1.200000 0.400000
v 0.252344 -0.000000 0.200000
v 0.252344 -0.000000 0.100000
v 0.252344 0.100000 0.200000
v 0.252344 0.100000 0.100000
v 0.252344 0.100000 0.000000
v 0.252344 0.100000 -0.100000
v 0.252344 0.300000 0.000000
v 0.252344 0.300000 -0.100000
v 0.352344 -0.000000 0.100000
v 0.352344 0.000000 -0.100000
v 0.352344 0.100000 0.100000
v 0.352344 0.100000 -0.100000
v 0.352344 0.400000 0.400000
v 0.352344 0.400000 -0.000000
v 0.352344 0.500000 0.400000
v 0.352344 0.500000 -0.000000
v 0.352344 0.600000 0.100000
v 0.352344 0.500000 -0.100000
v 0.352344 0.600000 0.000000
v 0.352344 0.600000 -0.100000
v 0.352344 0.500000 0.500000
v 0.352344 0.700000 0.500000
v 0.352344 0.700000 0.400000
v 0.352344 0.700000 0.100000
v 0.352344 0.600000 -0.200000
v 0.352344 0.700000 -0.200000
v 0.352344 0.800000 0.400000
v 0.352344 0.800000 0.100000
v 0.152344 0.900000 0.900000
v -0.147656 1.000000 0.900000
v -0.147656 0.900000 0.900000
v 0.152344 1.000000 0.900000
v 0.152344 1.000000 0.700000
v -0.147656 1.200000 0.700000
v -0.147656 1.000000 0.700000
v 0.152344 1.200000 0.700000
v -0.247656 0.500000 0.500000
v -0.347656 0.700000 0.500000
v -0.347656 0.500000 0.500000
v -0.247656 0.700000 0.500000
v 0.152344 0.400000 0.500000
v -0.147656 0.500000 0.500000
v -0.147656 0.400000 0.500000
v 0.152344 0.500000 0.500000
v -0.147656 0.800000 0.500000
v 0.152344 0.800000 0.500000
v 0.352344 0.500000 0.500000
v 0.252344 0.700000 0.500000
v 0.252344 0.500000 0.500000
v 0.352344 0.700000 0.500000
v -0.247656 0.400000 0.400000
v -0.347656 0.500000 0.400000
v -0.347656 0.400000 0.400000
v -0.247656 0.500000 0.400000
v -0.247656 0.700000 0.400000
v -0.347656 0.800000 0.400000
v -0.347656 0.700000 0.400000
v -0.247656 0.800000 0.400000
v 0.352344 0.400000 0.400000
v 0.252344 0.500000 0.400000
v 0.252344 0.400000 0.400000
v 0.352344 0.500000 0.400000
v 0.352344 0.700000 0.400000
v 0.252344 0.800000 0.400000
v 0.252344 0.700000 0.400000
v 0.352344 0.800000 0.400000
v -0.147656 -0.000000 0.200000
v -0.247656 0.100000 0.200000
v -0.247656 -0.000000 0.200000
v -0.147656 0.100000 0.200000
v 0.252344 -0.000000 0.200000
v 0.152344 0.100000 0.200000
v 0.152344 -0.000000 0.200000
v 0.252344 0.100000 0.200000
v -0.247656 -0.000000 0.100000
v -0.347656 0.100000 0.100000
v -0.347656 -0.000000 0.100000
v -0.247656 0.100000 0.100000
v -0.047656 -0.000000 0.100000
v -0.147656 0.100000 0.100000
v -0.147656 -0.000000 0.100000
v -0.047656 0.100000 0.100000
v 0.152344 -0.000000 0.100000
v 0.052344 0.100000 0.100000
v 0.052344 -0.000000 0.100000
v 0.152344 0.100000 0.100000
v 0.352344 -0.000000 0.100000
v 0.252344 0.100000 0.100000
v 0.252344 -0.000000 0.100000
v 0.352344 0.100000 0.100000
v -0.147656 0.100000 0.000000
v -0.247656 0.300000 0.000000
v -0.247656 0.100000 0.000000
v -0.147656 0.300000 0.000000
v 0.252344 0.100000 0.000000
v 0.152344 0.300000 0.000000
v 0.152344 0.100000 0.000000
v 0.252344 0.300000 0.000000
v -0.047656 0.900000 -0.300000
v -0.147656 0.900000 -0.300000
v -0.147656 0.800000 -0.300000
v 0.052344 0.900000 -0.300000
v -0.047656 1.000000 -0.300000
v 0.052344 1.000000 -0.300000
v 0.152344 0.800000 -0.300000
v 0.152344 0.900000 -0.300000
v -0.147656 0.900000 0.400000
v -0.147656 1.200000 0.400000
v 0.152344 0.900000 0.400000
v 0.152344 1.200000 0.400000
v -0.347656 0.700000 0.100000
v -0.347656 0.800000 0.100000
v -0.247656 0.700000 0.100000
v -0.247656 0.800000 0.100000
v 0.252344 0.700000 0.100000
v 0.252344 0.800000 0.100000
v 0.352344 0.700000 0.100000
v 0.352344 0.800000 0.100000
v -0.347656 0.400000 0.000000
v -0.347656 0.500000 0.000000
v -0.247656 0.400000 0.000000
v -0.247656 0.500000 0.000000
v 0.252344 0.400000 -0.000000
v 0.252344 0.500000 -0.000000
v 0.352344 0.400000 -0.000000
v 0.352344 0.500000 -0.000000
v -0.347656 0.000000 -0.100000
v -0.347656 0.100000 -0.100000
v -0.247656 0.100000 -0.100000
v -0.347656 0.500000 -0.100000
v -0.347656 0.600000 -0.100000
v -0.247656 0.500000 -0.100000
v -0.247656 0.600000 -0.100000
v -0.247656 0.300000 -0.100000
v -0.147656 0.100000 -0.100000
v -0.147656 0.300000 -0.100000
v -0.047656 0.000000 -0.100000
v -0.047656 0.100000 -0.100000
v 0.052344 0.000000 -0.100000
v 0.052344 0.100000 -0.100000
v 0.152344 0.100000 -0.100000
v 0.252344 0.100000 -0.100000
v 0.152344 0.300000 -0.100000
v 0.252344 0.300000 -0.100000
v 0.352344 0.000000 -0.100000
v 0.352344 0.100000 -0.100000
v 0.252344 0.500000 -0.100000
v 0.252344 0.600000 -0.100000
v 0.352344 0.500000 -0.100000
v 0.352344 0.600000 -0.100000
v -0.347656 0.600000 -0.200000
v -0.347656 0.700000 -0.200000
v -0.247656 0.600000 -0.200000
v -0.247656 0.700000 -0.200000
v 0.252344 0.600000 -0.200000
v 0.252344 0.700000 -0.200000
v 0.352344 0.600000 -0.200000
v 0.352344 0.700000 -0.200000
v -0.147656 0.400000 -0.300000
v -0.147656 0.700000 -0.300000
v 0.152344 0.400000 -0.300000
v 0.152344 0.700000 -0.300000
v -0.147656 0.700000 -0.400000
v -0.147656 0.900000 -0.400000
v -0.047656 0.900000 -0.400000
v 0.052344 0.900000 -0.400000
v -0.047656 1.000000 -0.400000
v 0.052344 1.000000 -0.400000
v 0.152344 0.700000 -0.400000
v 0.152344 0.900000 -0.400000
v -0.247656 -0.000000 0.100000
v -0.147656 -0.000000 0.200000
v -0.247656 -0.000000 0.200000
v -0.147656 -0.000000 0.100000
v 0.152344 -0.000000 0.100000
v 0.252344 -0.000000 0.200000
v 0.152344 -0.000000 0.200000
v 0.252344 -0.000000 0.100000
v -0.347656 0.000000 -0.100000
v -0.047656 -0.000000 0.100000
v -0.347656 -0.000000 0.100000
v -0.047656 0.000000 -0.100000
v 0.052344 0.000000 -0.100000
v 0.352344 -0.000000 0.100000
v 0.052344 -0.000000 0.100000
v 0.352344 0.000000 -0.100000
v -0.347656 0.400000 0.000000
v -0.247656 0.400000 0.400000
v -0.347656 0.400000 0.400000
v -0.247656 0.400000 0.000000
v 0.252344 0.400000 -0.000000
v 0.352344 0.400000 0.400000
v 0.252344 0.400000 0.400000
v 0.352344 0.400000 -0.000000
v -0.147656 0.400000 -0.300000
v 0.152344 0.400000 0.500000
v -0.147656 0.400000 0.500000
v 0.152344 0.400000 -0.300000
v -0.347656 0.500000 0.400000
v -0.247656 0.500000 0.500000
v -0.347656 0.500000 0.500000
v -0.247656 0.500000 0.400000
v 0.252344 0.500000 0.400000
v 0.352344 0.500000 0.500000
v 0.252344 0.500000 0.500000
v 0.352344 0.500000 0.400000
v -0.347656 0.500000 -0.100000
v -0.247656 0.500000 0.000000
v -0.347656 0.500000 0.000000
v -0.247656 0.500000 -0.100000
v 0.252344 0.500000 -0.100000
v 0.352344 0.500000 -0.000000
v 0.252344 0.500000 -0.000000
v 0.352344 0.500000 -0.100000
v -0.347656 0.600000 -0.200000
v -0.247656 0.600000 -0.100000
v -0.347656 0.600000 -0.100000
v -0.247656 0.600000 -0.200000
v 0.252344 0.600000 -0.200000
v 0.352344 0.600000 -0.100000
v 0.252344 0.600000 -0.100000
v 0.352344 0.600000 -0.200000
v -0.147656 0.700000 -0.400000
v 0.152344 0.700000 -0.300000
v -0.147656 0.700000 -0.300000
v 0.152344 0.700000 -0.400000
v -0.147656 0.900000 0.700000
v 0.152344 0.900000 0.900000
v -0.147656 0.900000 0.900000
v 0.152344 0.900000 0.700000
v -0.147656 0.900000 0.400000
v 0.152344 0.900000 0.400000
v -0.247656 0.100000 0.200000
v -0.147656 0.100000 0.200000
v -0.247656 0.100000 0.100000
v -0.147656 0.100000 0.100000
v 0.152344 0.100000 0.200000
v 0.252344 0.100000 0.200000
v 0.152344 0.100000 0.100000
v 0.252344 0.100000 0.100000
v -0.047656 0.100000 0.100000
v -0.247656 0.100000 0.000000
v -0.347656 0.100000 0.100000
v -0.147656 0.100000 0.000000
v 0.352344 0.100000 0.100000
v 0.152344 0.100000 0.000000
v 0.052344 0.100000 0.100000
v 0.252344 0.100000 0.000000
v -0.347656 0.100000 -0.100000
v -0.247656 0.100000 -0.100000
v -0.147656 0.100000 -0.100000
v -0.047656 0.100000 -0.100000
v 0.052344 0.100000 -0.100000
v 0.152344 0.100000 -0.100000
v 0.252344 0.100000 -0.100000
v 0.352344 0.100000 -0.100000
v -0.247656 0.300000 0.000000
v -0.147656 0.300000 0.000000
v -0.247656 0.300000 -0.100000
v -0.147656 0.300000 -0.100000
v 0.152344 0.300000 0.000000
v 0.252344 0.300000 0.000000
v 0.152344 0.300000 -0.100000
v 0.252344 0.300000 -0.100000
v -0.347656 0.700000 0.500000
v -0.247656 0.700000 0.500000
v -0.347656 0.700000 0.400000
v -0.247656 0.700000 0.400000
v 0.252344 0.700000 0.500000
v 0.352344 0.700000 0.500000
v 0.252344 0.700000 0.400000
v 0.352344 0.700000 0.400000
v -0.347656 0.700000 0.100000
v -0.247656 0.700000 0.100000
v -0.347656 0.700000 -0.200000
v -0.247656 0.700000 -0.200000
v 0.252344 0.700000 0.100000
v 0.352344 0.700000 0.100000
v 0.252344 0.700000 -0.200000
v 0.352344 0.700000 -0.200000
v -0.347656 0.800000 0.400000
v -0.247656 0.800000 0.400000
v -0.347656 0.800000 0.100000
v -0.247656 0.800000 0.100000
v 0.252344 0.800000 0.400000
v 0.352344 0.800000 0.400000
v 0.252344 0.800000 0.100000
v 0.352344 0.800000 0.100000
v -0.147656 0.800000 0.500000
v 0.152344 0.800000 0.500000
v -0.147656 0.800000 -0.300000
v 0.152344 0.800000 -0.300000
v -0.147656 0.900000 -0.300000
v -0.047656 0.900000 -0.300000
v -0.147656 0.900000 -0.400000
v -0.047656 0.900000 -0.400000
v 0.052344 0.900000 -0.300000
v 0.152344 0.900000 -0.300000
v 0.052344 0.900000 -0.400000
v 0.152344 0.900000 -0.400000
v -0.147656 1.000000 0.900000
v 0.152344 1.000000 0.900000
v -0.147656 1.000000 0.700000
v 0.152344 1.000000 0.700000
v -0.047656 1.000000 -0.300000
v 0.052344 1.000000 -0.300000
v -0.047656 1.000000 -0.400000
v 0.052344 1.000000 -0.400000
v -0.147656 1.200000 0.700000
v 0.152344 1.200000 0.700000
v -0.147656 1.200000 0.400000
v 0.152344 1.200000 0.400000
vt 0.021484 0.500000
vt 0.021484 0.500000
vt 0.021484 0.500000
vt 0.021484 0.500000
vt 0.041016 0.500000
vt 0.041016 0.500000
vt 0.041016 0.500000
vt 0.041016 0.500000
vt 0.001953 0.500000
vt 0.001953 0.500000
vt 0.001953 0.500000
vt 0.041016 0.500000
vt 0.041016 0.500000
vt 0.001953 0.500000
vt 0.041016 0.500000
vt 0.041016 0.500000
vt 0.041016 0.500000
vt 0.001953 0.500000
vt 0.041016 0.500000
vt 0.041016 0.500000
vt 0.001953 0.500000
vt 0.041016 0.500000
vt 0.041016 0.500000
vt 0.041016 0.500000
vt 0.001953 0.500000
vt 0.001953 0.500000
vt 0.021484 0.500000
vt 0.021484 0.500000
vt 0.021484 0.500000
vt 0.021484 0.500000
vt 0.021484 0.500000
vt 0.021484 0.500000
vt 0.021484 0.500000
vt 0.021484 0.500000
vt 0.041016 0.500000
vt 0.041016 0.500000
vt 0.041016 0.500000
vt 0.041016 0.500000
vt 0.001953 0.500000
vt 0.001953 0.500000
vt 0.001953 0.500000
vt 0.041016 0.500000
vt 0.041016 0.500000
vt 0.001953 0.500000
vt 0.001953 0.500000
vt 0.041016 0.500000
vt 0.041016 0.500000
vt 0.001953 0.500000
vt 0.041016 0.500000
vt 0.041016 0.500000
vt 0.021484 0.500000
vt 0.021484 0.500000
vt 0.021484 0.500000
vt 0.001953 0.500000
vt 0.001953 0.500000
vt 0.001953 0.500000
vt 0.021484 0.500000
vt 0.001953 0.500000
vt 0.001953 0.500000
vt 0.001953 0.500000
vt 0.009766 0.500000
vt 0.009766 0.500000
vt 0.009766 0.500000
vt 0.001953 0.500000
vt 0.009766 0.500000
vt 0.001953 0.500000
vt 0.001953 0.500000
vt 0.041016 0.500000
vt 0.041016 0.500000
vt 0.041016 0.500000
vt 0.041016 0.500000
vt 0.021484 0.500000
vt 0.021484 0.500000
vt 0.021484 0.500000
vt 0.021484 0.500000
vt 0.021484 0.500000
vt 0.021484 0.500000
vt 0.021484 0.500000
vt 0.021484 0.500000
vt 0.021484 0.500000
vt 0.021484 0.500000
vt 0.021484 0.500000
vt 0.021484 0.500000
vt 0.041016 0.500000
vt 0.041016 0.500000
vt 0.041016 0.500000
vt 0.041016 0.500000
vt 0.001953 0.500000
vt 0.001953 0.500000
vt 0.001953 0.500000
vt 0.041016 0.500000
vt 0.041016 0.500000
vt 0.001953 0.500000
vt 0.041016 0.500000
vt 0.041016 0.500000
vt 0.041016 0.500000
vt 0.001953 0.500000
vt 0.041016 0.500000
vt 0.041016 0.500000
vt 0.041016 0.500000
vt 0.001953 0.500000
vt 0.041016 0.500000
vt 0.041016 0.500000
vt 0.001953 0.500000
vt 0.001953 0.500000
vt 0.041016 0.500000
vt 0.041016 0.500000
vt 0.041016 0.500000
vt 0.041016 0.500000
vt 0.001953 0.500000
vt 0.001953 0.500000
vt 0.001953 0.500000
vt 0.041016 0.500000
vt 0.041016 0.500000
vt 0.001953 0.500000
vt 0.041016 0.500000
vt 0.041016 0.500000
vt 0.041016 0.500000
vt 0.001953 0.500000
vt 0.041016 0.500000
vt 0.041016 0.500000
vt 0.041016 0.500000
vt 0.001953 0.500000
vt 0.041016 0.500000
vt 0.041016 0.500000
vt 0.001953 0.500000
vt 0.001953 0.500000
vt 0.021484 0.500000
vt 0.021484 0.500000
vt 0.021484 0.500000
vt 0.021484 0.500000
vt 0.021484 0.500000
vt 0.021484 0.500000
vt 0.021484 0.500000
vt 0.021484 0.500000
vt 0.021484 0.500000
vt 0.021484 0.500000
vt 0.021484 0.500000
vt 0.021484 0.500000
vt 0.041016 0.500000
vt 0.041016 0.500000
vt 0.041016 0.500000
vt 0.041016 0.500000
vt 0.041016 0.500000
vt 0.041016 0.500000
vt 0.041016 0.500000
vt 0.041016 0.500000
vt 0.001953 0.500000
vt 0.001953 0.500000
vt 0.001953 0.500000
vt 0.041016 0.500000
vt 0.041016 0.500000
vt 0.001953 0.500000
vt 0.001953 0.500000
vt 0.041016 0.500000
vt 0.041016 0.500000
vt 0.001953 0.500000
vt 0.041016 0.500000
vt 0.041016 0.500000
vt 0.021484 0.500000
vt 0.021484 0.500000
vt 0.021484 0.500000
vt 0.001953 0.500000
vt 0.001953 0.500000
vt 0.001953 0.500000
vt 0.021484 0.500000
vt 0.001953 0.500000
vt 0.001953 0.500000
vt 0.001953 0.500000
vt 0.009766 0.500000
vt 0.009766 0.500000
vt 0.009766 0.500000
vt 0.001953 0.500000
vt 0.009766 0.500000
vt 0.001953 0.500000
vt 0.001953 0.500000
vt 0.021484 0.500000
vt 0.021484 0.500000
vt 0.021484 0.500000
vt 0.021484 0.500000
vt 0.021484 0.500000
vt 0.021484 0.500000
vt 0.021484 0.500000
vt 0.021484 0.500000
vt 0.021484 0.500000
vt 0.021484 0.500000
vt 0.021484 0.500000
vt 0.021484 0.500000
vt 0.041016 0.500000
vt 0.041016 0.500000
vt 0.041016 0.500000
vt 0.041016 0.500000
vt 0.001953 0.500000
vt 0.001953 0.500000
vt 0.001953 0.500000
vt 0.041016 0.500000
vt 0.041016 0.500000
vt 0.001953 0.500000
vt 0.041016 0.500000
vt 0.041016 0.500000
vt 0.041016 0.500000
vt 0.001953 0.500000
vt 0.041016 0.500000
vt 0.041016 0.500000
vt 0.001953 0.500000
vt 0.041016 0.500000
vt 0.041016 0.500000
vt 0.041016 0.500000
vt 0.001953 0.500000
vt 0.001953 0.500000
vt 0.021484 0.500000
vt 0.021484 0.500000
vt 0.021484 0.500000
vt 0.021484 0.500000
vt 0.001953 0.500000
vt 0.001953 0.500000
vt 0.001953 0.500000
vt 0.001953 0.500000
vt 0.041016 0.500000
vt 0.041016 0.500000
vt 0.041016 0.500000
vt 0.041016 0.500000
vt 0.041016 0.500000
vt 0.041016 0.500000
vt 0.041016 0.500000
vt 0.001953 0.500000
vt 0.001953 0.500000
vt 0.001953 0.500000
vt 0.041016 0.500000
vt 0.001953 0.500000
vt 0.041016 0.500000
vt 0.041016 0.500000
vt 0.041016 0.500000
vt 0.041016 0.500000
vt 0.041016 0.500000
vt 0.041016 0.500000
vt 0.041016 0.500000
vt 0.041016 0.500000
vt 0.001953 0.500000
vt 0.001953 0.500000
vt 0.001953 0.500000
vt 0.001953 0.500000
vt 0.041016 0.500000
vt 0.041016 0.500000
vt 0.041016 0.500000
vt 0.041016 0.500000
vt 0.001953 0.500000
vt 0.001953 0.500000
vt 0.001953 0.500000
vt 0.001953 0.500000
vt 0.021484 0.500000
vt 0.021484 0.500000
vt 0.021484 0.500000
vt 0.021484 0.500000
vt 0.021484 0.500000
vt 0.021484 0.500000
vt 0.021484 0.500000
vt 0.021484 0.500000
vt 0.021484 0.500000
vt 0.021484 0.500000
vt 0.021484 0.500000
vt 0.021484 0.500000
vt 0.021484 0.500000
vt 0.021484 0.500000
vt 0.021484 0.500000
vt 0.021484 0.500000
vt 0.021484 0.500000
vt 0.021484 0.500000
vt 0.021484 0.500000
vt 0.021484 0.500000
vt 0.021484 0.500000
vt 0.021484 0.500000
vt 0.021484 0.500000
vt 0.021484 0.500000
vt 0.021484 0.500000
vt 0.021484 0.500000
vt 0.021484 0.500000
vt 0.021484 0.500000
vt 0.021484 0.500000
vt 0.021484 0.500000
vt 0.021484 0.500000
vt 0.021484 0.500000
vt 0.041016 0.500000
vt 0.041016 0.500000
vt 0.041016 0.500000
vt 0.041016 0.500000
vt 0.041016 0.500000
vt 0.041016 0.500000
vt 0.041016 0.500000
vt 0.041016 0.500000
vt 0.001953 0.500000
vt 0.001953 0.500000
vt 0.001953 0.500000
vt 0.001953 0.500000
vt 0.001953 0.500000
vt 0.001953 0.500000
vt 0.001953 0.500000
vt 0.001953 0.500000
vt 0.001953 0.500000
vt 0.001953 0.500000
vt 0.001953 0.500000
vt 0.001953 0.500000
vt 0.041016 0.500000
vt 0.041016 0.500000
vt 0.041016 0.500000
vt 0.041016 0.500000
vt 0.041016 0.500000
vt 0.041016 0.500000
vt 0.041016 0.500000
vt 0.041016 0.500000
vt 0.021484 0.500000
vt 0.021484 0.500000
vt 0.021484 0.500000
vt 0.041016 0.500000
vt 0.041016 0.500000
vt 0.041016 0.500000
vt 0.041016 0.500000
vt 0.021484 0.500000
vt 0.021484 0.500000
vt 0.021484 0.500000
vt 0.021484 0.500000
vt 0.021484 0.500000
vt 0.021484 0.500000
vt 0.021484 0.500000
vt 0.021484 0.500000
vt 0.021484 0.500000
vt 0.021484 0.500000
vt 0.021484 0.500000
vt 0.021484 0.500000
vt 0.021484 0.500000
vt 0.041016 0.500000
vt 0.041016 0.500000
vt 0.041016 0.500000
vt 0.041016 0.500000
vt 0.041016 0.500000
vt 0.041016 0.500000
vt 0.041016 0.500000
vt 0.041016 0.500000
vt 0.041016 0.500000
vt 0.041016 0.500000
vt 0.041016 0.500000
vt 0.041016 0.500000
vt 0.041016 0.500000
vt 0.041016 0.500000
vt 0.041016 0.500000
vt 0.041016 0.500000
vt 0.041016 0.500000
vt 0.041016 0.500000
vt 0.041016 0.500000
vt 0.041016 0.500000
vt 0.041016 0.500000
vt 0.041016 0.500000
vt 0.041016 0.500000
vt 0.041016 0.500000
vt 0.021484 0.500000
vt 0.021484 0.500000
vt 0.021484 0.500000
vt 0.021484 0.500000
vt 0.021484 0.500000
vt 0.021484 0.500000
vt 0.021484 0.500000
vt 0.021484 0.500000
vt 0.021484 0.500000
vt 0.021484 0.500000
vt 0.021484 0.500000
vt 0.021484 0.500000
vt 0.021484 0.500000
vt 0.021484 0.500000
vt 0.021484 0.500000
vt 0.021484 0.500000
vt 0.041016 0.500000
vt 0.041016 0.500000
vt 0.041016 0.500000
vt 0.041016 0.500000
vt 0.041016 0.500000
vt 0.041016 0.500000
vt 0.041016 0.500000
vt 0.041016 0.500000
vt 0.041016 0.500000
vt 0.041016 0.500000
vt 0.041016 0.500000
vt 0.041016 0.500000
vt 0.041016 0.500000
vt 0.041016 0.500000
vt 0.041016 0.500000
vt 0.041016 0.500000
vt 0.041016 0.500000
vt 0.041016 0.500000
vt 0.041016 0.500000
vt 0.041016 0.500000
vt 0.041016 0.500000
vt 0.041016 0.500000
vt 0.041016 0.500000
vt 0.041016 0.500000
vt 0.041016 0.500000
vt 0.041016 0.500000
vt 0.041016 0.500000
vt 0.041016 0.500000
vt 0.041016 0.500000
vt 0.041016 0.500000
vt 0.041016 0.500000
vt 0.041016 0.500000
vt 0.041016 0.500000
vt 0.041016 0.500000
vt 0.041016 0.500000
vt 0.041016 0.500000
vt 0.041016 0.500000
vt 0.041016 0.500000
vt 0.041016 0.500000
vt 0.041016 0.500000
vt 0.021484 0.500000
vt 0.021484 0.500000
vt 0.021484 0.500000
vt 0.021484 0.500000
vt 0.001953 0.500000
vt 0.001953 0.500000
vt 0.001953 0.500000
vt 0.001953 0.500000
vt 0.021484 0.500000
vt 0.021484 0.500000
vt 0.021484 0.500000
vt 0.021484 0.500000
vt 0.021484 0.500000
vt 0.021484 0.500000
vt 0.021484 0.500000
vt 0.021484 0.500000
vt 0.021484 0.500000
vt 0.021484 0.500000
vt 0.021484 0.500000
vt 0.021484 0.500000
vt 0.021484 0.500000
vt 0.021484 0.500000
vt 0.021484 0.500000
vt 0.021484 0.500000
vt 0.021484 0.500000
vt 0.021484 0.500000
vt 0.021484 0.500000
vt 0.021484 0.500000
vt 0.021484 0.500000
vt 0.021484 0.500000
vt 0.021484 0.500000
vt 0.021484 0.500000
vt 0.021484 0.500000
vt 0.021484 0.500000
vt 0.021484 0.500000
vt 0.021484 0.500000
vt 0.021484 0.500000
vt 0.021484 0.500000
vt 0.021484 0.500000
vt 0.021484 0.500000
vt 0.041016 0.500000
vt 0.041016 0.500000
vt 0.041016 0.500000
vt 0.041016 0.500000
vt 0.041016 0.500000
vt 0.041016 0.500000
vt 0.041016 0.500000
vt 0.041016 0.500000
vt 0.041016 0.500000
vt 0.041016 0.500000
vt 0.041016 0.500000
vt 0.041016 0.500000
vt 0.041016 0.500000
vt 0.041016 0.500000
vt 0.041016 0.500000
vt 0.041016 0.500000
vt 0.001953 0.500000
vt 0.001953 0.500000
vt 0.001953 0.500000
vt 0.001953 0.500000
vt 0.001953 0.500000
vt 0.001953 0.500000
vt 0.001953 0.500000
vt 0.001953 0.500000
vt 0.001953 0.500000
vt 0.001953 0.500000
vt 0.001953 0.500000
vt 0.001953 0.500000
vt 0.041016 0.500000
vt 0.041016 0.500000
vt 0.041016 0.500000
vt 0.041016 0.500000
vt 0.041016 0.500000
vt 0.041016 0.500000
vt 0.041016 0.500000
vt 0.041016 0.500000
vt 0.021484 0.500000
vt 0.021484 0.500000
vt 0.021484 0.500000
vt 0.021484 0.500000
vt 0.041016 0.500000
vt 0.041016 0.500000
vt 0.041016 0.500000
vt 0.041016 0.500000
vt 0.001953 0.500000
vt 0.001953 0.500000
vt 0.001953 0.500000
vt 0.001953 0.500000
vn -1.0000 0.0000 0.0000
vn 1.0000 0.0000 0.0000
vn 0.0000 -0.0000 1.0000
vn 0.0000 0.0000 -1.0000
vn 0.0000 -1.0000 -0.0000
vn 0.0000 1.0000 0.0000
usemtl palette
s 1
f 1/1/1 2/2/1 3/3/1
f 4/4/1 2/2/1 1/1/1
f 5/5/1 6/6/1 7/7/1
f 8/8/1 6/6/1 5/5/1
f 9/9/1 8/10/1 5/11/1
f 10/12/1 11/13/1 8/8/1
f 10/14/1 8/10/1 9/9/1
f 12/15/1 11/13/1 10/12/1
f 13/16/1 5/5/1 14/17/1
f 15/18/1 9/9/1 5/11/1
f 15/19/1 5/5/1 13/16/1
f 16/20/1 12/15/1 10/12/1
f 16/21/1 9/9/1 15/18/1
f 16/20/1 17/22/1 12/15/1
f 16/20/1 10/12/1 9/23/1
f 18/24/1 17/22/1 16/20/1
f 19/25/1 16/21/1 15/18/1
f 20/26/1 16/21/1 19/25/1
f 21/27/1 22/28/1 23/29/1
f 24/30/1 22/28/1 21/27/1
f 25/31/1 26/32/1 27/33/1
f 28/34/1 26/32/1 25/31/1
f 29/35/1 30/36/1 31/37/1
f 32/38/1 30/36/1 29/35/1
f 33/39/1 32/40/1 29/41/1
f 33/42/1 30/36/1 32/38/1
f 34/43/1 30/36/1 33/42/1
f 35/44/1 33/39/1 29/41/1
f 35/44/1 34/45/1 33/39/1
f 36/46/1 37/47/1 34/43/1
f 36/48/1 34/45/1 35/44/1
f 38/49/1 37/47/1 36/46/1
f 39/50/1 37/47/1 38/49/1
f 40/51/1 41/52/1 42/53/1
f 43/54/1 44/55/1 41/56/1
f 43/57/1 41/52/1 40/51/1
f 45/58/1 44/55/1 43/54/1
f 46/59/1 44/55/1 45/58/1
f 47/60/1 45/58/1 43/54/1
f 47/61/1 46/62/1 45/63/1
f 48/64/1 44/55/1 46/59/1
f 48/65/1 46/62/1 47/61/1
f 49/66/1 47/60/1 43/54/1
f 49/66/1 48/64/1 47/60/1
f 50/67/1 44/55/1 48/64/1
f 50/67/1 48/64/1 49/66/1
f 51/68/1 52/69/1 53/70/1
f 54/71/1 52/69/1 51/68/1
f 55/72/1 56/73/1 57/74/1
f 58/75/1 56/73/1 55/72/1
f 59/76/1 60/77/1 61/78/1
f 62/79/1 60/77/1 59/76/1
f 63/80/1 64/81/1 65/82/1
f 66/83/1 64/81/1 63/80/1
f 67/84/1 68/85/1 69/86/1
f 70/87/1 68/85/1 67/84/1
f 71/88/1 70/89/1 67/90/1
f 72/91/1 73/92/1 70/87/1
f 72/93/1 70/89/1 71/88/1
f 74/94/1 73/92/1 72/91/1
f 75/95/1 67/84/1 76/96/1
f 77/97/1 71/88/1 67/90/1
f 77/98/1 67/84/1 75/95/1
f 78/99/1 79/100/1 74/94/1
f 78/101/1 71/88/1 77/97/1
f 78/99/1 72/91/1 71/102/1
f 78/99/1 74/94/1 72/91/1
f 80/103/1 79/100/1 78/99/1
f 81/104/1 78/101/1 77/97/1
f 82/105/1 78/101/1 81/104/1
f 83/106/2 84/107/2 85/108/2
f 85/108/2 84/107/2 86/109/2
f 85/110/2 86/111/2 87/112/2
f 86/109/2 88/113/2 89/114/2
f 87/112/2 86/111/2 89/115/2
f 89/114/2 88/113/2 90/116/2
f 91/117/2 85/108/2 92/118/2
f 85/110/2 87/112/2 93/119/2
f 92/118/2 85/108/2 93/120/2
f 90/116/2 94/121/2 95/122/2
f 93/119/2 87/112/2 95/123/2
f 87/124/2 89/114/2 95/122/2
f 89/114/2 90/116/2 95/122/2
f 95/122/2 94/121/2 96/125/2
f 93/119/2 95/123/2 97/126/2
f 97/126/2 95/123/2 98/127/2
f 99/128/2 100/129/2 101/130/2
f 101/130/2 100/129/2 102/131/2
f 103/132/2 104/133/2 105/134/2
f 105/134/2 104/133/2 106/135/2
f 107/136/2 108/137/2 109/138/2
f 109/138/2 108/137/2 110/139/2
f 111/140/2 112/141/2 113/142/2
f 113/142/2 112/141/2 114/143/2
f 115/144/2 116/145/2 117/146/2
f 117/146/2 116/145/2 118/147/2
f 117/148/2 118/149/2 119/150/2
f 118/147/2 116/145/2 119/151/2
f 119/151/2 116/145/2 120/152/2
f 117/148/2 119/150/2 121/153/2
f 119/150/2 120/154/2 121/153/2
f 120/152/2 122/155/2 123/156/2
f 121/153/2 120/154/2 123/157/2
f 123/156/2 122/155/2 124/158/2
f 124/158/2 122/155/2 125/159/2
f 126/160/2 127/161/2 128/162/2
f 127/163/2 129/164/2 130/165/2
f 128/162/2 127/161/2 130/166/2
f 130/165/2 129/164/2 131/167/2
f 131/167/2 129/164/2 132/168/2
f 130/165/2 131/167/2 133/169/2
f 131/170/2 132/171/2 133/172/2
f 132/168/2 129/164/2 134/173/2
f 133/172/2 132/171/2 134/174/2
f 130/165/2 133/169/2 135/175/2
f 133/169/2 134/173/2 135/175/2
f 134/173/2 129/164/2 136/176/2
f 135/175/2 134/173/2 136/176/2
f 137/177/2 138/178/2 139/179/2
f 139/179/2 138/178/2 140/180/2
f 141/181/2 142/182/2 143/183/2
f 143/183/2 142/182/2 144/184/2
f 145/185/2 146/186/2 147/187/2
f 147/187/2 146/186/2 148/188/2
f 149/189/2 150/190/2 151/191/2
f 151/191/2 150/190/2 152/192/2
f 151/193/2 152/194/2 153/195/2
f 152/192/2 154/196/2 155/197/2
f 153/195/2 152/194/2 155/198/2
f 155/197/2 154/196/2 156/199/2
f 157/200/2 151/191/2 158/201/2
f 151/193/2 153/195/2 159/202/2
f 158/201/2 151/191/2 159/203/2
f 155/197/2 156/199/2 160/204/2
f 159/202/2 153/195/2 160/205/2
f 156/199/2 161/206/2 160/204/2
f 153/207/2 155/197/2 160/204/2
f 160/204/2 161/206/2 162/208/2
f 159/202/2 160/205/2 163/209/2
f 163/209/2 160/205/2 164/210/2
f 165/211/3 166/212/3 167/213/3
f 168/214/3 166/212/3 165/211/3
f 169/215/3 170/216/3 171/217/3
f 172/218/3 170/216/3 169/215/3
f 173/219/3 174/220/3 175/221/3
f 176/222/3 174/220/3 173/219/3
f 177/223/3 178/224/3 179/225/3
f 180/226/3 181/227/3 178/228/3
f 180/229/3 178/224/3 177/223/3
f 182/230/3 181/227/3 180/226/3
f 183/231/3 184/232/3 185/233/3
f 186/234/3 184/232/3 183/231/3
f 187/235/3 188/236/3 189/237/3
f 190/238/3 188/236/3 187/235/3
f 191/239/3 192/240/3 193/241/3
f 194/242/3 192/240/3 191/239/3
f 195/243/3 196/244/3 197/245/3
f 198/246/3 196/244/3 195/243/3
f 199/247/3 200/248/3 201/249/3
f 202/250/3 200/248/3 199/247/3
f 203/251/3 204/252/3 205/253/3
f 206/254/3 204/252/3 203/251/3
f 207/255/3 208/256/3 209/257/3
f 210/258/3 208/256/3 207/255/3
f 211/259/3 212/260/3 213/261/3
f 214/262/3 212/260/3 211/259/3
f 215/263/3 216/264/3 217/265/3
f 218/266/3 216/264/3 215/263/3
f 219/267/3 220/268/3 221/269/3
f 222/270/3 220/268/3 219/267/3
f 223/271/3 224/272/3 225/273/3
f 226/274/3 224/272/3 223/271/3
f 227/275/3 228/276/3 229/277/3
f 230/278/3 228/276/3 227/275/3
f 231/279/3 232/280/3 233/281/3
f 234/282/3 232/280/3 231/279/3
f 235/283/3 236/284/3 237/285/3
f 238/286/3 235/283/3 237/285/3
f 238/286/3 239/287/3 235/283/3
f 240/288/3 239/287/3 238/286/3
f 241/289/3 238/286/3 237/285/3
f 242/290/3 238/286/3 241/289/3
f 243/291/4 244/292/4 245/293/4
f 245/293/4 244/292/4 246/294/4
f 247/295/4 248/296/4 249/297/4
f 249/297/4 248/296/4 250/298/4
f 251/299/4 252/300/4 253/301/4
f 253/301/4 252/300/4 254/302/4
f 255/303/4 256/304/4 257/305/4
f 257/305/4 256/304/4 258/306/4
f 259/307/4 260/308/4 261/309/4
f 261/309/4 260/308/4 262/310/4
f 263/311/4 264/312/4 265/313/4
f 266/314/4 267/315/4 268/316/4
f 268/316/4 267/315/4 269/317/4
f 265/313/4 270/318/4 271/319/4
f 263/311/4 265/313/4 271/319/4
f 271/319/4 270/318/4 272/320/4
f 263/311/4 271/319/4 273/321/4
f 273/321/4 271/319/4 274/322/4
f 275/323/4 276/324/4 277/325/4
f 275/323/4 277/325/4 278/326/4
f 277/325/4 279/327/4 278/326/4
f 278/326/4 279/327/4 280/328/4
f 275/323/4 278/326/4 281/329/4
f 281/329/4 278/326/4 282/330/4
f 283/331/4 284/332/4 285/333/4
f 285/333/4 284/332/4 286/334/4
f 287/335/4 288/336/4 289/337/4
f 289/337/4 288/336/4 290/338/4
f 291/339/4 292/340/4 293/341/4
f 293/341/4 292/340/4 294/342/4
f 295/343/4 296/344/4 297/345/4
f 297/345/4 296/344/4 298/346/4
f 299/347/4 300/348/4 301/349/4
f 299/347/4 301/349/4 302/350/4
f 301/349/4 303/351/4 302/350/4
f 302/350/4 303/351/4 304/352/4
f 299/347/4 302/350/4 305/353/4
f 305/353/4 302/350/4 306/354/4
f 307/355/5 308/356/5 309/357/5
f 310/358/5 308/356/5 307/355/5
f 311/359/5 312/360/5 313/361/5
f 314/362/5 312/360/5 311/359/5
f 315/363/5 316/364/5 310/358/5
f 315/363/5 307/355/5 317/365/5
f 315/363/5 310/358/5 307/355/5
f 318/366/5 316/364/5 315/363/5
f 319/367/5 320/368/5 314/362/5
f 319/367/5 314/362/5 311/359/5
f 319/367/5 311/359/5 321/369/5
f 322/370/5 320/368/5 319/367/5
f 323/371/5 324/372/5 325/373/5
f 326/374/5 324/372/5 323/371/5
f 327/375/5 328/376/5 329/377/5
f 330/378/5 328/376/5 327/375/5
f 331/379/5 332/380/5 333/381/5
f 334/382/5 332/380/5 331/379/5
f 335/383/5 336/384/5 337/385/5
f 338/386/5 336/384/5 335/383/5
f 339/387/5 340/388/5 341/389/5
f 342/390/5 340/388/5 339/387/5
f 343/391/5 344/392/5 345/393/5
f 346/394/5 344/392/5 343/391/5
f 347/395/5 348/396/5 349/397/5
f 350/398/5 348/396/5 347/395/5
f 351/399/5 352/400/5 353/401/5
f 354/402/5 352/400/5 351/399/5
f 355/403/5 356/404/5 357/405/5
f 358/406/5 356/404/5 355/403/5
f 359/407/5 360/408/5 361/409/5
f 362/410/5 360/408/5 359/407/5
f 363/411/5 364/412/5 365/413/5
f 366/414/5 364/412/5 363/411/5
f 367/415/5 366/416/5 363/417/5
f 368/418/5 366/416/5 367/415/5
f 369/419/6 370/420/6 371/421/6
f 371/421/6 370/420/6 372/422/6
f 373/423/6 374/424/6 375/425/6
f 375/425/6 374/424/6 376/426/6
f 372/422/6 377/427/6 378/428/6
f 379/429/6 371/421/6 378/428/6
f 371/421/6 372/422/6 378/428/6
f 378/428/6 377/427/6 380/430/6
f 376/426/6 381/431/6 382/432/6
f 375/425/6 376/426/6 382/432/6
f 383/433/6 375/425/6 382/432/6
f 382/432/6 381/431/6 384/434/6
f 379/429/6 378/428/6 385/435/6
f 385/435/6 378/428/6 386/436/6
f 380/430/6 377/427/6 387/437/6
f 387/437/6 377/427/6 388/438/6
f 383/433/6 382/432/6 389/439/6
f 389/439/6 382/432/6 390/440/6
f 384/434/6 381/431/6 391/441/6
f 391/441/6 381/431/6 392/442/6
f 393/443/6 394/444/6 395/445/6
f 395/445/6 394/444/6 396/446/6
f 397/447/6 398/448/6 399/449/6
f 399/449/6 398/448/6 400/450/6
f 401/451/6 402/452/6 403/453/6
f 403/453/6 402/452/6 404/454/6
f 405/455/6 406/456/6 407/457/6
f 407/457/6 406/456/6 408/458/6
f 409/459/6 410/460/6 411/461/6
f 411/461/6 410/460/6 412/462/6
f 413/463/6 414/464/6 415/465/6
f 415/465/6 414/464/6 416/466/6
f 417/467/6 418/468/6 419/469/6
f 419/469/6 418/468/6 420/470/6
f 421/471/6 422/472/6 423/473/6
f 423/473/6 422/472/6 424/474/6
f 425/475/6 426/476/6 427/477/6
f 427/477/6 426/476/6 428/478/6
f 429/479/6 430/480/6 431/481/6
f 431/481/6 430/480/6 432/482/6
f 433/483/6 434/484/6 435/485/6
f 435/485/6 434/484/6 436/486/6
f 437/487/6 438/488/6 439/489/6
f 439/489/6 438/488/6 440/490/6
f 441/491/6 442/492/6 443/493/6
f 443/493/6 442/492/6 444/494/6
f 445/495/6 446/496/6 447/497/6
f 447/497/6 446/496/6 448/498/6
