# Blender v2.93.0 OBJ File: 'Human_Base_Rig.blend'
# www.blender.org
mtllib TVS_VoxelFarm_FarmHand.mtl
o VS_Farm_Farmhand
v -1.802030 2.013669 -0.100000
v -1.803095 1.713671 -0.500000
v -1.803095 1.713671 -0.100000
v -1.802030 2.013669 -0.500000
v -1.702030 2.013314 0.000000
v -1.702741 1.813315 -0.100000
v -1.702741 1.813315 0.000000
v -1.702030 2.013314 -0.100000
v -1.702030 2.013314 -0.500000
v -1.702741 1.813315 -0.600000
v -1.702741 1.813315 -0.500000
v -1.702030 2.013314 -0.600000
v -1.701675 2.113313 -0.100000
v -1.701675 2.113313 -0.500000
v -1.602741 1.812960 0.000000
v -1.603097 1.712960 -0.100000
v -1.603097 1.712960 0.000000
v -1.602741 1.812960 -0.100000
v -0.600000 0.100000 0.300000
v -0.600000 0.000000 -0.600000
v -0.600000 -0.000000 0.300000
v -0.600000 0.100000 -0.600000
v -0.600000 0.200000 0.300000
v -0.600000 0.200000 0.200000
v -0.600000 0.300000 0.200000
v -0.600000 0.300000 0.000000
v -0.600000 0.400000 0.000000
v -0.600000 0.400000 -0.600000
v -0.600000 2.100000 -0.100000
v -0.600000 1.900000 -0.500000
v -0.600000 1.900000 -0.100000
v -0.600000 2.100000 -0.500000
v -0.600000 2.990685 -0.200000
v -0.600000 2.690686 -0.400000
v -0.600000 2.690686 -0.200000
v -0.600000 2.990685 -0.400000
v -0.500000 2.100000 -0.100000
v -0.500000 1.900000 -0.100000
v -0.500000 1.900000 0.000000
v -0.500000 2.100000 -0.500000
v -0.500000 1.900000 -0.600000
v -0.500000 1.900000 -0.500000
v -0.500000 2.200000 0.000000
v -0.500000 2.200000 -0.600000
v -0.500000 2.690686 0.200000
v -0.500000 2.590686 -0.200000
v -0.500000 2.590686 0.200000
v -0.500000 2.690686 -0.100000
v -0.500000 2.690686 -0.200000
v -0.500000 2.590686 -0.400000
v -0.500000 2.690686 -0.400000
v -0.500000 2.590686 -0.600000
v -0.500000 2.890686 0.000000
v -0.500000 2.890686 -0.100000
v -0.500000 2.990685 0.200000
v -0.500000 2.990685 0.000000
v -0.500000 2.990685 -0.200000
v -0.500000 2.990685 -0.400000
v -0.500000 3.190685 0.200000
v -0.500000 3.190685 0.100000
v -0.500000 3.190685 -0.499999
v -0.500000 3.190685 -0.599999
v -0.500000 3.290686 0.100001
v -0.500000 3.290686 -0.499999
v -0.400000 1.300000 0.000000
v -0.400000 0.800000 -0.600000
v -0.400000 0.800000 0.000000
v -0.400000 1.300000 -0.600000
v -0.400000 1.500000 0.000000
v -0.400000 1.500000 -0.600000
v -0.400000 1.800000 0.000000
v -0.400000 1.800000 -0.600000
v -0.400000 1.900000 0.000000
v -0.400000 1.800000 0.100000
v -0.400000 1.900000 -0.600000
v -0.400000 1.800000 -0.700000
v -0.400000 2.200000 0.000000
v -0.400000 2.200000 -0.600000
v -0.400000 2.200000 -0.700000
v -0.400000 2.300000 0.100000
v -0.400000 2.300000 -0.600000
v -0.400000 2.590686 0.200000
v -0.400000 2.490685 -0.200000
v -0.400000 2.490685 0.200000
v -0.400000 2.590686 -0.200000
v -0.400000 2.490685 -0.500000
v -0.400000 2.590686 -0.400000
v -0.400000 2.590686 -0.500000
v -0.400000 2.490685 -0.600000
v -0.400000 2.590686 -0.600000
v -0.400000 3.290686 0.200000
v -0.400000 3.190685 0.100000
v -0.400000 3.190685 0.200000
v -0.400000 3.290686 0.100001
v -0.400000 3.290686 -0.499999
v -0.400000 3.190685 -0.599999
v -0.400000 3.190685 -0.499999
v -0.400000 3.290686 -0.599999
v -0.400000 3.390686 0.000001
v -0.400000 3.290686 -0.399999
v -0.400000 3.290686 0.000000
v -0.400000 3.390686 -0.399999
v -0.300000 0.300000 0.300000
v -0.300000 0.200000 0.200000
v -0.300000 0.200000 0.300000
v -0.300000 0.300000 0.200000
v -0.300000 1.300000 0.100000
v -0.300000 0.800000 0.000000
v -0.300000 0.800000 0.100000
v -0.300000 1.300000 0.000000
v -0.300000 1.300000 -0.600000
v -0.300000 0.800000 -0.700000
v -0.300000 0.800000 -0.600000
v -0.300000 1.300000 -0.700000
v -0.300000 1.500000 0.100000
v -0.300000 1.500000 0.000000
v -0.300000 1.500000 -0.600000
v -0.300000 1.500000 -0.700000
v -0.300000 1.800000 0.100000
v -0.300000 1.800000 0.000000
v -0.300000 1.800000 -0.600000
v -0.300000 1.800000 -0.700000
v -0.300000 3.390686 0.100001
v -0.300000 3.290686 0.000000
v -0.300000 3.290686 0.100001
v -0.300000 3.390686 0.000001
v -0.300000 3.390686 -0.399999
v -0.300000 3.290686 -0.499999
v -0.300000 3.290686 -0.399999
v -0.300000 3.390686 -0.499999
v -0.100000 1.400000 0.200000
v -0.100000 1.300000 0.100000
v -0.100000 1.300000 0.200000
v -0.100000 1.400000 0.100000
v -0.100000 1.500000 0.200000
v -0.100000 1.500000 0.100000
v -0.100000 3.390686 0.200001
v -0.100000 3.290686 0.100001
v -0.100000 3.290686 0.200000
v -0.100000 3.390686 0.100001
v 0.100000 0.100000 0.300000
v 0.100000 0.000000 -0.600000
v 0.100000 -0.000000 0.300000
v 0.100000 0.100000 -0.600000
v 0.100000 0.300000 0.300000
v 0.100000 0.300000 0.000000
v 0.100000 0.400000 0.000000
v 0.100000 0.400000 -0.600000
v 0.100000 2.300000 0.100000
v 0.100000 2.200000 0.000000
v 0.100000 2.200000 0.100000
v 0.100000 2.300000 0.000000
v 1.200000 1.900000 -0.100000
v 1.200000 1.800000 -0.500000
v 1.200000 1.800000 -0.100000
v 1.200000 1.900000 -0.500000
v 1.300000 2.000000 -0.100000
v 1.300000 1.900000 -0.500000
v 1.300000 1.900000 -0.100000
v 1.300000 2.000000 -0.500000
v 1.400000 1.800000 -0.100000
v 1.400000 1.700000 -0.100000
v 1.400000 1.700000 0.000000
v 1.400000 2.000000 0.000000
v 1.400000 2.000000 -0.100000
v 1.400000 2.000000 -0.500000
v 1.400000 1.800000 -0.600000
v 1.400000 1.800000 -0.500000
v 1.400000 2.000000 -0.600000
v 1.400000 2.100000 -0.100000
v 1.400000 2.100000 -0.500000
v 1.500000 1.800000 -0.100000
v 1.500000 1.700000 -0.500000
v 1.500000 1.700000 -0.100000
v 1.500000 1.800000 -0.500000
v -1.503097 1.712605 -0.100000
v -1.503097 1.712605 -0.500000
v -1.502742 1.812604 -0.100000
v -1.502742 1.812605 -0.500000
v -1.403098 1.712250 0.000000
v -1.403098 1.712250 -0.100000
v -1.402743 1.812249 -0.100000
v -1.402032 2.012248 0.000000
v -1.402032 2.012248 -0.100000
v -1.402743 1.812249 -0.500000
v -1.402743 1.812249 -0.600000
v -1.402032 2.012248 -0.500000
v -1.402032 2.012248 -0.600000
v -1.401677 2.112247 -0.100000
v -1.401677 2.112247 -0.500000
v -1.302388 1.911893 -0.100000
v -1.302388 1.911893 -0.500000
v -1.302033 2.011893 -0.100000
v -1.302033 2.011893 -0.500000
v -1.202744 1.811539 -0.100000
v -1.202744 1.811539 -0.500000
v -1.202389 1.911538 -0.100000
v -1.202389 1.911538 -0.500000
v -0.100000 -0.000000 0.300000
v -0.100000 0.000000 -0.600000
v -0.100000 0.100000 0.300000
v -0.100000 0.100000 -0.600000
v -0.100000 0.300000 0.300000
v -0.100000 0.300000 0.000000
v -0.100000 0.400000 0.000000
v -0.100000 0.400000 -0.600000
v -0.100000 2.200000 0.100000
v -0.100000 2.200000 0.000000
v -0.100000 2.300000 0.100000
v -0.100000 2.300000 0.000000
v 0.100000 1.300000 0.200000
v 0.100000 1.300000 0.100000
v 0.100000 1.400000 0.200000
v 0.100000 1.400000 0.100000
v 0.100000 1.500000 0.200000
v 0.100000 1.500000 0.100000
v 0.300000 0.200000 0.300000
v 0.300000 0.200000 0.200000
v 0.300000 0.300000 0.300000
v 0.300000 0.300000 0.200000
v 0.300000 0.800000 0.100000
v 0.300000 0.800000 0.000000
v 0.300000 1.300000 0.100000
v 0.300000 1.300000 0.000000
v 0.300000 0.800000 -0.600000
v 0.300000 0.800000 -0.700000
v 0.300000 1.300000 -0.600000
v 0.300000 1.300000 -0.700000
v 0.300000 1.500000 0.100000
v 0.300000 1.500000 0.000000
v 0.300000 1.500000 -0.600000
v 0.300000 1.500000 -0.700000
v 0.300000 1.800000 0.100000
v 0.300000 1.800000 0.000000
v 0.300000 1.800000 -0.600000
v 0.300000 1.800000 -0.700000
v 0.300000 3.290686 -0.399999
v 0.300000 3.290686 -0.499999
v 0.300000 3.390686 -0.399999
v 0.300000 3.390686 -0.499999
v 0.400000 0.800000 0.000000
v 0.400000 0.800000 -0.600000
v 0.400000 1.300000 0.000000
v 0.400000 1.300000 -0.600000
v 0.400000 1.500000 0.000000
v 0.400000 1.500000 -0.600000
v 0.400000 1.800000 0.000000
v 0.400000 1.800000 -0.600000
v 0.400000 1.900000 0.000000
v 0.400000 1.800000 0.100000
v 0.400000 1.800000 -0.700000
v 0.400000 1.900000 -0.600000
v 0.400000 2.200000 0.000000
v 0.400000 2.200000 -0.600000
v 0.400000 2.200000 -0.700000
v 0.400000 2.300000 0.100000
v 0.400000 2.300000 -0.600000
v 0.400000 2.490685 0.200000
v 0.400000 2.490685 -0.200000
v 0.400000 2.590686 0.200000
v 0.400000 2.490685 -0.500000
v 0.400000 2.590686 -0.200000
v 0.400000 2.590686 -0.400000
v 0.400000 2.490685 -0.600000
v 0.400000 2.590686 -0.500000
v 0.400000 2.590686 -0.600000
v 0.400000 3.190685 -0.499999
v 0.400000 3.190685 -0.599999
v 0.400000 3.290686 -0.499999
v 0.400000 3.290686 -0.599999
v 0.400000 3.290686 -0.099999
v 0.400000 3.290686 -0.399999
v 0.400000 3.390686 -0.099999
v 0.400000 3.390686 -0.399999
v 0.500000 1.900000 0.000000
v 0.500000 1.900000 -0.100000
v 0.500000 2.100000 -0.100000
v 0.500000 1.900000 -0.500000
v 0.500000 1.900000 -0.600000
v 0.500000 2.100000 -0.500000
v 0.500000 2.200000 0.000000
v 0.500000 2.200000 -0.600000
v 0.500000 2.590686 0.200000
v 0.500000 2.590686 -0.200000
v 0.500000 2.690686 0.200000
v 0.500000 2.690686 -0.100000
v 0.500000 2.590686 -0.400000
v 0.500000 2.690686 -0.200000
v 0.500000 2.590686 -0.600000
v 0.500000 2.690686 -0.400000
v 0.500000 2.890686 0.000000
v 0.500000 2.890686 -0.100000
v 0.500000 2.990685 0.200000
v 0.500000 2.990685 0.000000
v 0.500000 2.990685 -0.200000
v 0.500000 2.990685 -0.400000
v 0.500000 3.190685 -0.499999
v 0.500000 3.190685 -0.599999
v 0.500000 3.290686 -0.099999
v 0.500000 3.290686 -0.499999
v 0.500000 3.390686 0.200001
v 0.500000 3.390686 -0.099999
v 0.600000 -0.000000 0.300000
v 0.600000 0.000000 -0.600000
v 0.600000 0.100000 0.300000
v 0.600000 0.100000 -0.600000
v 0.600000 0.200000 0.300000
v 0.600000 0.200000 0.200000
v 0.600000 0.300000 0.200000
v 0.600000 0.300000 0.000000
v 0.600000 0.400000 0.000000
v 0.600000 0.400000 -0.600000
v 0.600000 1.900000 -0.100000
v 0.600000 1.900000 -0.500000
v 0.600000 2.100000 -0.100000
v 0.600000 2.100000 -0.500000
v 0.600000 2.690686 -0.200000
v 0.600000 2.690686 -0.400000
v 0.600000 2.990685 -0.200000
v 0.600000 2.990685 -0.400000
v 1.600000 1.700000 0.000000
v 1.600000 1.700000 -0.100000
v 1.600000 1.800000 0.000000
v 1.600000 1.800000 -0.100000
v 1.700000 1.800000 0.000000
v 1.700000 1.800000 -0.100000
v 1.700000 2.000000 0.000000
v 1.700000 2.000000 -0.100000
v 1.700000 1.800000 -0.500000
v 1.700000 1.800000 -0.600000
v 1.700000 2.000000 -0.500000
v 1.700000 2.000000 -0.600000
v 1.700000 2.100000 -0.100000
v 1.700000 2.100000 -0.500000
v 1.800000 1.700000 -0.100000
v 1.800000 1.700000 -0.500000
v 1.800000 2.000000 -0.100000
v 1.800000 2.000000 -0.500000
v -0.300000 0.200000 0.300000
v -0.600000 0.200000 0.300000
v -0.600000 0.100000 0.300000
v -0.100000 -0.000000 0.300000
v -0.600000 -0.000000 0.300000
v -0.100000 0.100000 0.300000
v -0.300000 0.300000 0.300000
v -0.100000 0.300000 0.300000
v 0.300000 0.200000 0.300000
v 0.100000 0.300000 0.300000
v 0.100000 0.100000 0.300000
v 0.300000 0.300000 0.300000
v 0.600000 -0.000000 0.300000
v 0.100000 -0.000000 0.300000
v 0.600000 0.100000 0.300000
v 0.600000 0.200000 0.300000
v -0.400000 2.590686 0.200000
v -0.500000 2.690686 0.200000
v -0.500000 2.590686 0.200000
v -0.400000 2.690686 0.200000
v -0.500000 2.990685 0.200000
v -0.400000 2.990685 0.200000
v -0.500000 3.190685 0.200000
v -0.400000 3.190685 0.200000
v -0.300000 0.200000 0.200000
v -0.600000 0.300000 0.200000
v -0.600000 0.200000 0.200000
v -0.300000 0.300000 0.200000
v -0.300000 2.690686 0.200000
v -0.300000 2.890686 0.200000
v -0.300000 2.990685 0.200000
v -0.200000 2.590686 0.200000
v -0.400000 2.490685 0.200000
v -0.200000 2.690686 0.200000
v -0.100000 2.690686 0.200000
v -0.100000 2.890686 0.200000
v -0.100000 2.990685 0.200000
v -0.100000 3.290686 0.200000
v -0.400000 3.290686 0.200000
v 0.100000 1.300000 0.200000
v -0.100000 1.400000 0.200000
v -0.100000 1.300000 0.200000
v 0.100000 1.400000 0.200000
v -0.100000 1.500000 0.200000
v 0.100000 1.500000 0.200000
v 0.100000 2.690686 0.200000
v 0.100000 2.890686 0.200000
v 0.100000 2.990685 0.200000
v 0.200000 2.590686 0.200000
v 0.200000 2.690686 0.200000
v 0.300000 2.690686 0.200000
v 0.300000 2.890686 0.200000
v 0.300000 2.990685 0.200000
v 0.400000 2.490685 0.200000
v 0.400000 2.590686 0.200000
v 0.400000 2.690686 0.200000
v 0.400000 2.990685 0.200000
v 0.400000 3.190685 0.200000
v -0.100000 3.390686 0.200001
v 0.500000 2.590686 0.200000
v 0.500000 2.690686 0.200000
v 0.500000 2.990685 0.200000
v 0.500000 3.390686 0.200001
v 0.600000 0.200000 0.200000
v 0.300000 0.300000 0.200000
v 0.300000 0.200000 0.200000
v 0.600000 0.300000 0.200000
v -0.400000 3.190685 0.100000
v -0.500000 3.290686 0.100001
v -0.500000 3.190685 0.100000
v -0.400000 3.290686 0.100001
v -0.300000 1.800000 0.100000
v -0.400000 2.300000 0.100000
v -0.400000 1.800000 0.100000
v -0.200000 1.800000 0.100000
v -0.300000 1.500000 0.100000
v -0.200000 2.300000 0.100000
v -0.100000 1.200000 0.100000
v -0.300000 1.300000 0.100000
v -0.300000 0.800000 0.100000
v -0.100000 1.300000 0.100000
v -0.100000 1.400000 0.100000
v -0.100000 1.500000 0.100000
v -0.100000 2.200000 0.100000
v -0.100000 2.300000 0.100000
v -0.100000 3.290686 0.100001
v -0.300000 3.390686 0.100001
v -0.300000 3.290686 0.100001
v -0.100000 3.390686 0.100001
v -0.000000 0.800000 0.100000
v -0.000000 1.200000 0.100000
v 0.100000 0.800000 0.100000
v 0.100000 1.300000 0.100000
v 0.100000 1.500000 0.100000
v 0.100000 2.200000 0.100000
v 0.200000 1.800000 0.100000
v 0.100000 2.300000 0.100000
v 0.200000 2.300000 0.100000
v 0.300000 0.800000 0.100000
v 0.300000 1.300000 0.100000
v 0.100000 1.400000 0.100000
v 0.300000 1.500000 0.100000
v 0.300000 1.800000 0.100000
v 0.400000 1.800000 0.100000
v 0.400000 2.300000 0.100000
v -1.602741 1.812960 0.000000
v -1.702030 2.013314 0.000000
v -1.702741 1.813315 0.000000
v -1.403098 1.712250 0.000000
v -1.603097 1.712960 0.000000
v -1.402032 2.012248 0.000000
v -0.500000 0.300000 0.000000
v -0.600000 0.400000 0.000000
v -0.600000 0.300000 0.000000
v -0.500000 0.400000 0.000000
v -0.400000 0.300000 0.000000
v -0.400000 0.400000 0.000000
v -0.400000 1.900000 0.000000
v -0.500000 2.200000 0.000000
v -0.500000 1.900000 0.000000
v -0.400000 2.200000 0.000000
v -0.300000 0.300000 0.000000
v -0.300000 0.400000 0.000000
v -0.300000 0.800000 0.000000
v -0.400000 1.300000 0.000000
v -0.400000 0.800000 0.000000
v -0.300000 1.300000 0.000000
v -0.400000 1.500000 0.000000
v -0.300000 1.500000 0.000000
v -0.400000 1.800000 0.000000
v -0.300000 1.800000 0.000000
v -0.300000 3.290686 0.000000
v -0.400000 3.390686 0.000001
v -0.400000 3.290686 0.000000
v -0.300000 3.390686 0.000001
v -0.200000 0.300000 0.000000
v -0.200000 0.400000 0.000000
v -0.100000 0.300000 0.000000
v -0.100000 0.400000 0.000000
v 0.100000 2.200000 0.000000
v -0.100000 2.300000 0.000000
v -0.100000 2.200000 0.000000
v 0.100000 2.300000 0.000000
v 0.200000 0.300000 0.000000
v 0.100000 0.400000 0.000000
v 0.100000 0.300000 0.000000
v 0.200000 0.400000 0.000000
v 0.300000 0.300000 0.000000
v 0.300000 0.400000 0.000000
v 0.400000 0.300000 0.000000
v 0.400000 0.400000 0.000000
v 0.400000 0.800000 0.000000
v 0.300000 1.300000 0.000000
v 0.300000 0.800000 0.000000
v 0.400000 1.300000 0.000000
v 0.300000 1.500000 0.000000
v 0.400000 1.500000 0.000000
v 0.300000 1.800000 0.000000
v 0.400000 1.800000 0.000000
v 0.500000 0.300000 0.000000
v 0.500000 0.400000 0.000000
v 0.500000 1.900000 0.000000
v 0.400000 2.200000 0.000000
v 0.400000 1.900000 0.000000
v 0.500000 2.200000 0.000000
v 0.600000 0.300000 0.000000
v 0.600000 0.400000 0.000000
v 1.600000 1.700000 0.000000
v 1.400000 2.000000 0.000000
v 1.400000 1.700000 0.000000
v 1.600000 1.800000 0.000000
v 1.700000 1.800000 0.000000
v 1.700000 2.000000 0.000000
v -1.702741 1.813315 -0.100000
v -1.802030 2.013669 -0.100000
v -1.803095 1.713671 -0.100000
v -1.702030 2.013314 -0.100000
v -1.603097 1.712960 -0.100000
v -1.602741 1.812960 -0.100000
v -1.402032 2.012248 -0.100000
v -1.701675 2.113313 -0.100000
v -1.401677 2.112247 -0.100000
v -1.302388 1.911893 -0.100000
v -1.402743 1.812249 -0.100000
v -1.302033 2.011893 -0.100000
v -1.202744 1.811539 -0.100000
v -1.202389 1.911538 -0.100000
v -0.500000 1.900000 -0.100000
v -0.600000 2.100000 -0.100000
v -0.600000 1.900000 -0.100000
v -0.500000 2.100000 -0.100000
v 0.600000 1.900000 -0.100000
v 0.500000 2.100000 -0.100000
v 0.500000 1.900000 -0.100000
v 0.600000 2.100000 -0.100000
v 1.300000 1.900000 -0.100000
v 1.200000 1.900000 -0.100000
v 1.200000 1.800000 -0.100000
v 1.400000 1.800000 -0.100000
v 1.300000 2.000000 -0.100000
v 1.400000 2.000000 -0.100000
v 1.700000 1.800000 -0.100000
v 1.600000 1.800000 -0.100000
v 1.600000 1.700000 -0.100000
v 1.700000 2.000000 -0.100000
v 1.400000 2.100000 -0.100000
v 1.700000 2.100000 -0.100000
v 1.800000 1.700000 -0.100000
v 1.800000 2.000000 -0.100000
v -0.500000 2.690686 -0.200000
v -0.600000 2.990685 -0.200000
v -0.600000 2.690686 -0.200000
v -0.500000 2.990685 -0.200000
v 0.600000 2.690686 -0.200000
v 0.500000 2.990685 -0.200000
v 0.500000 2.690686 -0.200000
v 0.600000 2.990685 -0.200000
v -1.503097 1.712605 -0.100000
v -1.502742 1.812604 -0.100000
v -1.403098 1.712250 -0.100000
v -1.402743 1.812249 -0.100000
v 0.400000 3.290686 -0.099999
v 0.400000 3.390686 -0.099999
v 0.500000 3.290686 -0.099999
v 0.500000 3.390686 -0.099999
v 1.400000 1.700000 -0.100000
v 1.400000 1.800000 -0.100000
v 1.500000 1.700000 -0.100000
v 1.500000 1.800000 -0.100000
v -0.600000 2.690686 -0.400000
v -0.600000 2.990685 -0.400000
v -0.500000 2.690686 -0.400000
v -0.500000 2.990685 -0.400000
v -0.400000 3.290686 -0.399999
v -0.400000 3.390686 -0.399999
v -0.300000 3.290686 -0.399999
v -0.300000 3.390686 -0.399999
v 0.300000 3.290686 -0.399999
v 0.300000 3.390686 -0.399999
v 0.400000 3.290686 -0.399999
v 0.400000 3.390686 -0.399999
v 0.500000 2.690686 -0.400000
v 0.500000 2.990685 -0.400000
v 0.600000 2.690686 -0.400000
v 0.600000 2.990685 -0.400000
v -1.803095 1.713671 -0.500000
v -1.802030 2.013669 -0.500000
v -1.702741 1.813315 -0.500000
v -1.702030 2.013314 -0.500000
v -1.503097 1.712605 -0.500000
v -1.502742 1.812605 -0.500000
v -1.701675 2.113313 -0.500000
v -1.402032 2.012248 -0.500000
v -1.401677 2.112247 -0.500000
v -1.402743 1.812249 -0.500000
v -1.302388 1.911893 -0.500000
v -1.302033 2.011893 -0.500000
v -1.202744 1.811539 -0.500000
v -1.202389 1.911538 -0.500000
v -0.600000 1.900000 -0.500000
v -0.600000 2.100000 -0.500000
v -0.500000 1.900000 -0.500000
v -0.500000 2.100000 -0.500000
v -0.500000 3.190685 -0.499999
v -0.500000 3.290686 -0.499999
v -0.400000 3.190685 -0.499999
v -0.400000 3.290686 -0.499999
v -0.300000 3.290686 -0.499999
v -0.300000 3.390686 -0.499999
v 0.300000 3.290686 -0.499999
v 0.300000 3.390686 -0.499999
v 0.400000 3.190685 -0.499999
v 0.400000 3.290686 -0.499999
v 0.500000 3.190685 -0.499999
v 0.500000 3.290686 -0.499999
v 0.500000 1.900000 -0.500000
v 0.500000 2.100000 -0.500000
v 0.600000 1.900000 -0.500000
v 0.600000 2.100000 -0.500000
v 1.200000 1.800000 -0.500000
v 1.200000 1.900000 -0.500000
v 1.300000 1.900000 -0.500000
v 1.400000 1.800000 -0.500000
v 1.300000 2.000000 -0.500000
v 1.400000 2.000000 -0.500000
v 1.500000 1.700000 -0.500000
v 1.500000 1.800000 -0.500000
v 1.700000 1.800000 -0.500000
v 1.400000 2.100000 -0.500000
v 1.700000 2.000000 -0.500000
v 1.700000 2.100000 -0.500000
v 1.800000 1.700000 -0.500000
v 1.800000 2.000000 -0.500000
v -1.702741 1.813315 -0.600000
v -1.702030 2.013314 -0.600000
v -1.402743 1.812249 -0.600000
v -1.402032 2.012248 -0.600000
v -0.500000 1.900000 -0.600000
v -0.500000 2.200000 -0.600000
v -0.400000 1.900000 -0.600000
v -0.400000 2.200000 -0.600000
v -0.500000 2.590686 -0.600000
v -0.500000 3.190685 -0.599999
v -0.400000 2.590686 -0.600000
v -0.400000 3.190685 -0.599999
v -0.400000 0.800000 -0.600000
v -0.400000 1.300000 -0.600000
v -0.300000 0.800000 -0.600000
v -0.400000 1.500000 -0.600000
v -0.300000 1.300000 -0.600000
v -0.400000 1.800000 -0.600000
v -0.300000 1.500000 -0.600000
v -0.300000 1.800000 -0.600000
v -0.400000 2.300000 -0.600000
v -0.200000 2.200000 -0.600000
v -0.200000 2.300000 -0.600000
v -0.600000 0.000000 -0.600000
v -0.600000 0.100000 -0.600000
v -0.100000 0.000000 -0.600000
v -0.600000 0.400000 -0.600000
v -0.100000 0.100000 -0.600000
v -0.100000 0.400000 -0.600000
v 0.200000 2.200000 -0.600000
v 0.200000 2.300000 -0.600000
v 0.300000 0.800000 -0.600000
v 0.300000 1.300000 -0.600000
v 0.400000 0.800000 -0.600000
v 0.300000 1.500000 -0.600000
v 0.400000 1.300000 -0.600000
v 0.300000 1.800000 -0.600000
v 0.400000 1.500000 -0.600000
v 0.400000 1.800000 -0.600000
v 0.400000 2.200000 -0.600000
v 0.400000 2.300000 -0.600000
v -0.400000 2.490685 -0.600000
v 0.400000 2.490685 -0.600000
v -0.400000 3.290686 -0.599999
v 0.400000 2.590686 -0.600000
v 0.400000 3.190685 -0.599999
v 0.400000 3.290686 -0.599999
v 0.400000 1.900000 -0.600000
v 0.500000 1.900000 -0.600000
v 0.500000 2.200000 -0.600000
v 0.500000 2.590686 -0.600000
v 0.500000 3.190685 -0.599999
v 0.100000 0.000000 -0.600000
v 0.100000 0.100000 -0.600000
v 0.600000 0.000000 -0.600000
v 0.100000 0.400000 -0.600000
v 0.600000 0.100000 -0.600000
v 0.600000 0.400000 -0.600000
v 1.400000 1.800000 -0.600000
v 1.400000 2.000000 -0.600000
v 1.700000 1.800000 -0.600000
v 1.700000 2.000000 -0.600000
v -0.400000 1.800000 -0.700000
v -0.400000 2.200000 -0.700000
v -0.300000 1.800000 -0.700000
v -0.200000 1.800000 -0.700000
v -0.300000 1.500000 -0.700000
v -0.200000 2.200000 -0.700000
v -0.300000 0.800000 -0.700000
v -0.300000 1.300000 -0.700000
v -0.100000 0.800000 -0.700000
v -0.100000 1.300000 -0.700000
v -0.000000 0.800000 -0.700000
v -0.000000 1.200000 -0.700000
v 0.100000 1.200000 -0.700000
v 0.100000 1.300000 -0.700000
v 0.200000 1.800000 -0.700000
v 0.200000 2.200000 -0.700000
v 0.300000 0.800000 -0.700000
v 0.300000 1.300000 -0.700000
v 0.300000 1.500000 -0.700000
v 0.300000 1.800000 -0.700000
v 0.400000 1.800000 -0.700000
v 0.400000 2.200000 -0.700000
v -0.600000 0.000000 -0.600000
v -0.100000 -0.000000 0.300000
v -0.600000 -0.000000 0.300000
v -0.100000 0.000000 -0.600000
v 0.100000 0.000000 -0.600000
v 0.600000 -0.000000 0.300000
v 0.100000 -0.000000 0.300000
v 0.600000 0.000000 -0.600000
v -0.300000 0.800000 0.000000
v -0.000000 0.800000 0.100000
v -0.300000 0.800000 0.100000
v -0.000000 0.800000 0.000000
v 0.100000 0.800000 0.100000
v 0.100000 0.800000 0.000000
v 0.300000 0.800000 0.100000
v 0.300000 0.800000 0.000000
v -0.400000 0.800000 -0.600000
v 0.400000 0.800000 0.000000
v -0.400000 0.800000 0.000000
v -0.300000 0.800000 -0.600000
v -0.100000 0.800000 -0.600000
v -0.000000 0.800000 -0.600000
v 0.300000 0.800000 -0.600000
v 0.400000 0.800000 -0.600000
v -0.300000 0.800000 -0.700000
v -0.100000 0.800000 -0.700000
v -0.000000 0.800000 -0.700000
v 0.300000 0.800000 -0.700000
v -0.100000 1.300000 0.100000
v 0.100000 1.300000 0.200000
v -0.100000 1.300000 0.200000
v 0.100000 1.300000 0.100000
v -1.603097 1.712960 -0.100000
v -1.403098 1.712250 0.000000
v -1.603097 1.712960 0.000000
v -1.503097 1.712605 -0.100000
v -1.403098 1.712250 -0.100000
v 1.400000 1.700000 -0.100000
v 1.600000 1.700000 0.000000
v 1.400000 1.700000 0.000000
v 1.500000 1.700000 -0.100000
v 1.600000 1.700000 -0.100000
v -1.803095 1.713671 -0.500000
v -1.803095 1.713671 -0.100000
v -1.503097 1.712605 -0.500000
v 1.500000 1.700000 -0.500000
v 1.800000 1.700000 -0.100000
v 1.800000 1.700000 -0.500000
v -0.400000 1.800000 0.000000
v -0.300000 1.800000 0.100000
v -0.400000 1.800000 0.100000
v -0.300000 1.800000 0.000000
v 0.300000 1.800000 0.000000
v 0.400000 1.800000 0.100000
v 0.300000 1.800000 0.100000
v 0.400000 1.800000 0.000000
v -1.702741 1.813315 -0.100000
v -1.602741 1.812960 0.000000
v -1.702741 1.813315 0.000000
v -1.602741 1.812960 -0.100000
v 1.600000 1.800000 -0.100000
v 1.700000 1.800000 0.000000
v 1.600000 1.800000 0.000000
v 1.700000 1.800000 -0.100000
v -1.502742 1.812605 -0.500000
v -1.402743 1.812249 -0.100000
v -1.502742 1.812604 -0.100000
v -1.202744 1.811539 -0.100000
v -1.402743 1.812249 -0.500000
v -1.202744 1.811539 -0.500000
v 1.200000 1.800000 -0.500000
v 1.500000 1.800000 -0.100000
v 1.400000 1.800000 -0.100000
v 1.200000 1.800000 -0.100000
v 1.400000 1.800000 -0.500000
v 1.500000 1.800000 -0.500000
v -1.702741 1.813315 -0.600000
v -1.702741 1.813315 -0.500000
v -1.402743 1.812249 -0.600000
v 1.400000 1.800000 -0.600000
v 1.700000 1.800000 -0.500000
v 1.700000 1.800000 -0.600000
v -0.400000 1.800000 -0.700000
v -0.300000 1.800000 -0.600000
v -0.400000 1.800000 -0.600000
v -0.300000 1.800000 -0.700000
v 0.300000 1.800000 -0.700000
v 0.400000 1.800000 -0.600000
v 0.300000 1.800000 -0.600000
v 0.400000 1.800000 -0.700000
v -0.500000 1.900000 -0.100000
v -0.400000 1.900000 0.000000
v -0.500000 1.900000 0.000000
v 0.500000 1.900000 -0.100000
v 0.500000 1.900000 0.000000
v 0.400000 1.900000 0.000000
v -0.600000 1.900000 -0.500000
v -0.600000 1.900000 -0.100000
v -0.500000 1.900000 -0.500000
v 0.500000 1.900000 -0.500000
v 0.600000 1.900000 -0.100000
v 0.600000 1.900000 -0.500000
v -0.500000 1.900000 -0.600000
v -0.400000 1.900000 -0.600000
v 0.400000 1.900000 -0.600000
v 0.500000 1.900000 -0.600000
v -0.300000 2.490685 0.100000
v 0.400000 2.490685 0.200000
v -0.400000 2.490685 0.200000
v 0.300000 2.490685 0.100000
v -0.400000 2.490685 -0.200000
v -0.300000 2.490685 -0.200000
v 0.300000 2.490685 -0.200000
v 0.400000 2.490685 -0.200000
v -0.400000 2.490685 -0.500000
v 0.400000 2.490685 -0.500000
v -0.400000 2.490685 -0.600000
v 0.400000 2.490685 -0.600000
v -0.500000 2.590686 -0.200000
v -0.400000 2.590686 0.200000
v -0.500000 2.590686 0.200000
v -0.400000 2.590686 -0.200000
v 0.400000 2.590686 -0.200000
v 0.500000 2.590686 0.200000
v 0.400000 2.590686 0.200000
v 0.500000 2.590686 -0.200000
v -0.500000 2.590686 -0.400000
v -0.400000 2.590686 -0.400000
v 0.400000 2.590686 -0.400000
v 0.500000 2.590686 -0.400000
v -0.400000 2.590686 -0.500000
v 0.400000 2.590686 -0.500000
v -0.500000 2.590686 -0.600000
v -0.400000 2.590686 -0.600000
v 0.400000 2.590686 -0.600000
v 0.500000 2.590686 -0.600000
v -0.600000 2.690686 -0.400000
v -0.500000 2.690686 -0.200000
v -0.600000 2.690686 -0.200000
v -0.500000 2.690686 -0.400000
v 0.500000 2.690686 -0.400000
v 0.600000 2.690686 -0.200000
v 0.500000 2.690686 -0.200000
v 0.600000 2.690686 -0.400000
v -0.600000 0.200000 0.300000
v -0.300000 0.200000 0.300000
v -0.600000 0.200000 0.200000
v -0.300000 0.200000 0.200000
v 0.300000 0.200000 0.300000
v 0.600000 0.200000 0.300000
v 0.300000 0.200000 0.200000
v 0.600000 0.200000 0.200000
v -0.300000 0.300000 0.300000
v -0.100000 0.300000 0.300000
v -0.300000 0.300000 0.200000
v 0.100000 0.300000 0.300000
v 0.300000 0.300000 0.300000
v 0.300000 0.300000 0.200000
v -0.600000 0.300000 0.200000
v -0.600000 0.300000 0.000000
v -0.500000 0.300000 0.000000
v -0.400000 0.300000 0.000000
v -0.300000 0.300000 0.000000
v -0.200000 0.300000 0.000000
v -0.100000 0.300000 0.000000
v 0.600000 0.300000 0.200000
v 0.100000 0.300000 0.000000
v 0.200000 0.300000 0.000000
v 0.300000 0.300000 0.000000
v 0.400000 0.300000 0.000000
v 0.500000 0.300000 0.000000
v 0.600000 0.300000 0.000000
v -0.600000 0.400000 0.000000
v -0.500000 0.400000 0.000000
v -0.500000 0.400000 -0.100000
v -0.400000 0.400000 0.000000
v -0.300000 0.400000 0.000000
v -0.400000 0.400000 -0.100000
v -0.200000 0.400000 0.000000
v -0.300000 0.400000 -0.100000
v -0.100000 0.400000 0.000000
v -0.200000 0.400000 -0.100000
v 0.100000 0.400000 0.000000
v 0.200000 0.400000 0.000000
v 0.200000 0.400000 -0.100000
v 0.300000 0.400000 0.000000
v 0.400000 0.400000 0.000000
v 0.300000 0.400000 -0.100000
v 0.500000 0.400000 0.000000
v 0.400000 0.400000 -0.100000
v 0.600000 0.400000 0.000000
v 0.500000 0.400000 -0.100000
v -0.500000 0.400000 -0.500000
v -0.200000 0.400000 -0.500000
v 0.200000 0.400000 -0.500000
v 0.500000 0.400000 -0.500000
v -0.600000 0.400000 -0.600000
v -0.100000 0.400000 -0.600000
v 0.100000 0.400000 -0.600000
v 0.600000 0.400000 -0.600000
v -0.100000 1.500000 0.200000
v 0.100000 1.500000 0.200000
v -0.100000 1.500000 0.100000
v 0.100000 1.500000 0.100000
v -1.302388 1.911893 -0.100000
v -1.202389 1.911538 -0.100000
v -1.302388 1.911893 -0.500000
v -1.202389 1.911538 -0.500000
v 1.200000 1.900000 -0.100000
v 1.300000 1.900000 -0.100000
v 1.200000 1.900000 -0.500000
v 1.300000 1.900000 -0.500000
v -1.702030 2.013314 0.000000
v -1.402032 2.012248 0.000000
v -1.702030 2.013314 -0.100000
v -1.402032 2.012248 -0.100000
v 1.400000 2.000000 0.000000
v 1.700000 2.000000 0.000000
v 1.400000 2.000000 -0.100000
v 1.700000 2.000000 -0.100000
v -1.802030 2.013669 -0.100000
v -1.802030 2.013669 -0.500000
v -1.702030 2.013314 -0.500000
v -1.302033 2.011893 -0.100000
v -1.402032 2.012248 -0.500000
v -1.302033 2.011893 -0.500000
v 1.300000 2.000000 -0.100000
v 1.300000 2.000000 -0.500000
v 1.400000 2.000000 -0.500000
v 1.800000 2.000000 -0.100000
v 1.700000 2.000000 -0.500000
v 1.800000 2.000000 -0.500000
v -1.702030 2.013314 -0.600000
v -1.402032 2.012248 -0.600000
v 1.400000 2.000000 -0.600000
v 1.700000 2.000000 -0.600000
v -1.701675 2.113313 -0.100000
v -1.401677 2.112247 -0.100000
v -1.701675 2.113313 -0.500000
v -1.401677 2.112247 -0.500000
v -0.600000 2.100000 -0.100000
v -0.500000 2.100000 -0.100000
v -0.600000 2.100000 -0.500000
v -0.500000 2.100000 -0.500000
v 0.500000 2.100000 -0.100000
v 0.600000 2.100000 -0.100000
v 0.500000 2.100000 -0.500000
v 0.600000 2.100000 -0.500000
v 1.400000 2.100000 -0.100000
v 1.700000 2.100000 -0.100000
v 1.400000 2.100000 -0.500000
v 1.700000 2.100000 -0.500000
v -0.100000 2.200000 0.100000
v 0.100000 2.200000 0.100000
v -0.100000 2.200000 0.000000
v 0.100000 2.200000 0.000000
v -0.500000 2.200000 0.000000
v -0.400000 2.200000 0.000000
v -0.500000 2.200000 -0.600000
v -0.400000 2.200000 -0.600000
v 0.400000 2.200000 0.000000
v 0.500000 2.200000 0.000000
v 0.400000 2.200000 -0.600000
v 0.500000 2.200000 -0.600000
v -0.200000 2.200000 -0.600000
v -0.400000 2.200000 -0.700000
v 0.200000 2.200000 -0.600000
v -0.200000 2.200000 -0.700000
v 0.200000 2.200000 -0.700000
v 0.400000 2.200000 -0.700000
v -0.400000 2.300000 0.100000
v -0.200000 2.300000 0.100000
v -0.200000 2.300000 0.000000
v -0.100000 2.300000 0.100000
v -0.100000 2.300000 0.000000
v 0.100000 2.300000 0.100000
v 0.200000 2.300000 0.100000
v 0.100000 2.300000 0.000000
v 0.400000 2.300000 0.100000
v 0.200000 2.300000 0.000000
v -0.200000 2.300000 -0.500000
v 0.200000 2.300000 -0.500000
v -0.400000 2.300000 -0.600000
v -0.200000 2.300000 -0.600000
v 0.200000 2.300000 -0.600000
v 0.400000 2.300000 -0.600000
v -0.600000 2.990685 -0.200000
v -0.500000 2.990685 -0.200000
v -0.600000 2.990685 -0.400000
v -0.500000 2.990685 -0.400000
v 0.500000 2.990685 -0.200000
v 0.600000 2.990685 -0.200000
v 0.500000 2.990685 -0.400000
v 0.600000 2.990685 -0.400000
v -0.500000 3.190685 0.200000
v -0.400000 3.190685 0.200000
v -0.500000 3.190685 0.100000
v -0.400000 3.190685 0.100000
v -0.500000 3.190685 -0.499999
v -0.400000 3.190685 -0.499999
v -0.500000 3.190685 -0.599999
v -0.400000 3.190685 -0.599999
v 0.400000 3.190685 -0.499999
v 0.500000 3.190685 -0.499999
v 0.400000 3.190685 -0.599999
v 0.500000 3.190685 -0.599999
v -0.400000 3.290686 0.200000
v -0.100000 3.290686 0.200000
v -0.400000 3.290686 0.100001
v -0.300000 3.290686 0.100001
v -0.100000 3.290686 0.100001
v -0.500000 3.290686 0.100001
v -0.400000 3.290686 0.000000
v -0.300000 3.290686 0.000000
v -0.400000 3.290686 -0.399999
v 0.400000 3.290686 -0.099999
v 0.500000 3.290686 -0.099999
v 0.400000 3.290686 -0.399999
v -0.300000 3.290686 -0.399999
v -0.500000 3.290686 -0.499999
v -0.400000 3.290686 -0.499999
v -0.300000 3.290686 -0.499999
v 0.300000 3.290686 -0.399999
v 0.300000 3.290686 -0.499999
v 0.400000 3.290686 -0.499999
v 0.500000 3.290686 -0.499999
v -0.400000 3.290686 -0.599999
v 0.400000 3.290686 -0.599999
v -0.100000 3.390686 0.200001
v 0.500000 3.390686 0.200001
v -0.100000 3.390686 0.100001
v -0.300000 3.390686 0.100001
v -0.300000 3.390686 0.000001
v 0.400000 3.390686 -0.099999
v -0.400000 3.390686 0.000001
v 0.500000 3.390686 -0.099999
v -0.400000 3.390686 -0.399999
v -0.300000 3.390686 -0.399999
v 0.300000 3.390686 -0.399999
v 0.400000 3.390686 -0.399999
v -0.300000 3.390686 -0.499999
v 0.300000 3.390686 -0.499999
vt 0.287109 0.500000
vt 0.287109 0.500000
vt 0.287109 0.500000
vt 0.287109 0.500000
vt 0.287109 0.500000
vt 0.287109 0.500000
vt 0.287109 0.500000
vt 0.287109 0.500000
vt 0.287109 0.500000
vt 0.287109 0.500000
vt 0.287109 0.500000
vt 0.287109 0.500000
vt 0.287109 0.500000
vt 0.287109 0.500000
vt 0.287109 0.500000
vt 0.287109 0.500000
vt 0.287109 0.500000
vt 0.287109 0.500000
vt 0.009766 0.500000
vt 0.009766 0.500000
vt 0.009766 0.500000
vt 0.009766 0.500000
vt 0.005859 0.500000
vt 0.005859 0.500000
vt 0.005859 0.500000
vt 0.005859 0.500000
vt 0.005859 0.500000
vt 0.005859 0.500000
vt 0.005859 0.500000
vt 0.005859 0.500000
vt 0.001953 0.500000
vt 0.001953 0.500000
vt 0.001953 0.500000
vt 0.001953 0.500000
vt 0.287109 0.500000
vt 0.287109 0.500000
vt 0.287109 0.500000
vt 0.287109 0.500000
vt 0.001953 0.500000
vt 0.001953 0.500000
vt 0.001953 0.500000
vt 0.001953 0.500000
vt 0.001953 0.500000
vt 0.001953 0.500000
vt 0.001953 0.500000
vt 0.001953 0.500000
vt 0.283203 0.500000
vt 0.283203 0.500000
vt 0.283203 0.500000
vt 0.283203 0.500000
vt 0.287109 0.500000
vt 0.287109 0.500000
vt 0.287109 0.500000
vt 0.283203 0.500000
vt 0.978516 0.500000
vt 0.978516 0.500000
vt 0.978516 0.500000
vt 0.287109 0.500000
vt 0.287109 0.500000
vt 0.287109 0.500000
vt 0.287109 0.500000
vt 0.978516 0.500000
vt 0.978516 0.500000
vt 0.978516 0.500000
vt 0.287109 0.500000
vt 0.287109 0.500000
vt 0.978516 0.500000
vt 0.978516 0.500000
vt 0.287109 0.500000
vt 0.978516 0.500000
vt 0.978516 0.500000
vt 0.978516 0.500000
vt 0.978516 0.500000
vt 0.978516 0.500000
vt 0.978516 0.500000
vt 0.978516 0.500000
vt 0.978516 0.500000
vt 0.978516 0.500000
vt 0.775391 0.500000
vt 0.775391 0.500000
vt 0.775391 0.500000
vt 0.775391 0.500000
vt 0.009766 0.500000
vt 0.009766 0.500000
vt 0.009766 0.500000
vt 0.009766 0.500000
vt 0.775391 0.500000
vt 0.775391 0.500000
vt 0.775391 0.500000
vt 0.775391 0.500000
vt 0.001953 0.500000
vt 0.001953 0.500000
vt 0.001953 0.500000
vt 0.775391 0.500000
vt 0.775391 0.500000
vt 0.775391 0.500000
vt 0.775391 0.500000
vt 0.001953 0.500000
vt 0.775391 0.500000
vt 0.775391 0.500000
vt 0.775391 0.500000
vt 0.775391 0.500000
vt 0.775391 0.500000
vt 0.283203 0.500000
vt 0.283203 0.500000
vt 0.283203 0.500000
vt 0.287109 0.500000
vt 0.287109 0.500000
vt 0.287109 0.500000
vt 0.283203 0.500000
vt 0.287109 0.500000
vt 0.978516 0.500000
vt 0.978516 0.500000
vt 0.978516 0.500000
vt 0.287109 0.500000
vt 0.978516 0.500000
vt 0.978516 0.500000
vt 0.978516 0.500000
vt 0.978516 0.500000
vt 0.978516 0.500000
vt 0.978516 0.500000
vt 0.978516 0.500000
vt 0.978516 0.500000
vt 0.978516 0.500000
vt 0.978516 0.500000
vt 0.978516 0.500000
vt 0.978516 0.500000
vt 0.978516 0.500000
vt 0.005859 0.500000
vt 0.005859 0.500000
vt 0.005859 0.500000
vt 0.005859 0.500000
vt 0.775391 0.500000
vt 0.775391 0.500000
vt 0.775391 0.500000
vt 0.775391 0.500000
vt 0.775391 0.500000
vt 0.775391 0.500000
vt 0.775391 0.500000
vt 0.775391 0.500000
vt 0.009766 0.500000
vt 0.009766 0.500000
vt 0.009766 0.500000
vt 0.009766 0.500000
vt 0.009766 0.500000
vt 0.009766 0.500000
vt 0.009766 0.500000
vt 0.009766 0.500000
vt 0.775391 0.500000
vt 0.775391 0.500000
vt 0.775391 0.500000
vt 0.775391 0.500000
vt 0.775391 0.500000
vt 0.775391 0.500000
vt 0.775391 0.500000
vt 0.775391 0.500000
vt 0.978516 0.500000
vt 0.978516 0.500000
vt 0.978516 0.500000
vt 0.978516 0.500000
vt 0.978516 0.500000
vt 0.978516 0.500000
vt 0.978516 0.500000
vt 0.978516 0.500000
vt 0.427734 0.500000
vt 0.427734 0.500000
vt 0.427734 0.500000
vt 0.427734 0.500000
vt 0.431641 0.500000
vt 0.431641 0.500000
vt 0.431641 0.500000
vt 0.431641 0.500000
vt 0.978516 0.500000
vt 0.978516 0.500000
vt 0.978516 0.500000
vt 0.978516 0.500000
vt 0.009766 0.500000
vt 0.009766 0.500000
vt 0.009766 0.500000
vt 0.009766 0.500000
vt 0.005859 0.500000
vt 0.005859 0.500000
vt 0.005859 0.500000
vt 0.005859 0.500000
vt 0.005859 0.500000
vt 0.005859 0.500000
vt 0.001953 0.500000
vt 0.001953 0.500000
vt 0.001953 0.500000
vt 0.001953 0.500000
vt 0.287109 0.500000
vt 0.287109 0.500000
vt 0.287109 0.500000
vt 0.287109 0.500000
vt 0.287109 0.500000
vt 0.287109 0.500000
vt 0.287109 0.500000
vt 0.287109 0.500000
vt 0.287109 0.500000
vt 0.287109 0.500000
vt 0.287109 0.500000
vt 0.287109 0.500000
vt 0.287109 0.500000
vt 0.287109 0.500000
vt 0.287109 0.500000
vt 0.287109 0.500000
vt 0.287109 0.500000
vt 0.287109 0.500000
vt 0.287109 0.500000
vt 0.287109 0.500000
vt 0.287109 0.500000
vt 0.287109 0.500000
vt 0.287109 0.500000
vt 0.287109 0.500000
vt 0.287109 0.500000
vt 0.287109 0.500000
vt 0.287109 0.500000
vt 0.287109 0.500000
vt 0.287109 0.500000
vt 0.287109 0.500000
vt 0.287109 0.500000
vt 0.287109 0.500000
vt 0.287109 0.500000
vt 0.287109 0.500000
vt 0.287109 0.500000
vt 0.287109 0.500000
vt 0.287109 0.500000
vt 0.287109 0.500000
vt 0.287109 0.500000
vt 0.287109 0.500000
vt 0.287109 0.500000
vt 0.287109 0.500000
vt 0.287109 0.500000
vt 0.287109 0.500000
vt 0.287109 0.500000
vt 0.287109 0.500000
vt 0.009766 0.500000
vt 0.009766 0.500000
vt 0.009766 0.500000
vt 0.009766 0.500000
vt 0.005859 0.500000
vt 0.005859 0.500000
vt 0.005859 0.500000
vt 0.005859 0.500000
vt 0.005859 0.500000
vt 0.005859 0.500000
vt 0.001953 0.500000
vt 0.001953 0.500000
vt 0.001953 0.500000
vt 0.001953 0.500000
vt 0.427734 0.500000
vt 0.427734 0.500000
vt 0.427734 0.500000
vt 0.427734 0.500000
vt 0.431641 0.500000
vt 0.431641 0.500000
vt 0.431641 0.500000
vt 0.431641 0.500000
vt 0.005859 0.500000
vt 0.005859 0.500000
vt 0.005859 0.500000
vt 0.005859 0.500000
vt 0.775391 0.500000
vt 0.775391 0.500000
vt 0.775391 0.500000
vt 0.775391 0.500000
vt 0.775391 0.500000
vt 0.775391 0.500000
vt 0.775391 0.500000
vt 0.775391 0.500000
vt 0.009766 0.500000
vt 0.009766 0.500000
vt 0.009766 0.500000
vt 0.009766 0.500000
vt 0.009766 0.500000
vt 0.009766 0.500000
vt 0.009766 0.500000
vt 0.009766 0.500000
vt 0.775391 0.500000
vt 0.775391 0.500000
vt 0.775391 0.500000
vt 0.775391 0.500000
vt 0.775391 0.500000
vt 0.775391 0.500000
vt 0.775391 0.500000
vt 0.775391 0.500000
vt 0.978516 0.500000
vt 0.978516 0.500000
vt 0.978516 0.500000
vt 0.978516 0.500000
vt 0.775391 0.500000
vt 0.775391 0.500000
vt 0.775391 0.500000
vt 0.775391 0.500000
vt 0.009766 0.500000
vt 0.009766 0.500000
vt 0.009766 0.500000
vt 0.009766 0.500000
vt 0.775391 0.500000
vt 0.775391 0.500000
vt 0.775391 0.500000
vt 0.775391 0.500000
vt 0.001953 0.500000
vt 0.001953 0.500000
vt 0.001953 0.500000
vt 0.775391 0.500000
vt 0.775391 0.500000
vt 0.775391 0.500000
vt 0.775391 0.500000
vt 0.001953 0.500000
vt 0.775391 0.500000
vt 0.775391 0.500000
vt 0.775391 0.500000
vt 0.775391 0.500000
vt 0.775391 0.500000
vt 0.283203 0.500000
vt 0.283203 0.500000
vt 0.283203 0.500000
vt 0.287109 0.500000
vt 0.287109 0.500000
vt 0.287109 0.500000
vt 0.283203 0.500000
vt 0.287109 0.500000
vt 0.978516 0.500000
vt 0.978516 0.500000
vt 0.978516 0.500000
vt 0.287109 0.500000
vt 0.978516 0.500000
vt 0.978516 0.500000
vt 0.978516 0.500000
vt 0.978516 0.500000
vt 0.978516 0.500000
vt 0.978516 0.500000
vt 0.978516 0.500000
vt 0.978516 0.500000
vt 0.978516 0.500000
vt 0.001953 0.500000
vt 0.001953 0.500000
vt 0.001953 0.500000
vt 0.001953 0.500000
vt 0.001953 0.500000
vt 0.001953 0.500000
vt 0.001953 0.500000
vt 0.001953 0.500000
vt 0.283203 0.500000
vt 0.283203 0.500000
vt 0.283203 0.500000
vt 0.283203 0.500000
vt 0.287109 0.500000
vt 0.287109 0.500000
vt 0.287109 0.500000
vt 0.283203 0.500000
vt 0.978516 0.500000
vt 0.978516 0.500000
vt 0.978516 0.500000
vt 0.287109 0.500000
vt 0.287109 0.500000
vt 0.287109 0.500000
vt 0.287109 0.500000
vt 0.978516 0.500000
vt 0.978516 0.500000
vt 0.978516 0.500000
vt 0.287109 0.500000
vt 0.287109 0.500000
vt 0.978516 0.500000
vt 0.978516 0.500000
vt 0.287109 0.500000
vt 0.978516 0.500000
vt 0.978516 0.500000
vt 0.978516 0.500000
vt 0.978516 0.500000
vt 0.978516 0.500000
vt 0.978516 0.500000
vt 0.978516 0.500000
vt 0.978516 0.500000
vt 0.978516 0.500000
vt 0.009766 0.500000
vt 0.009766 0.500000
vt 0.009766 0.500000
vt 0.009766 0.500000
vt 0.005859 0.500000
vt 0.005859 0.500000
vt 0.005859 0.500000
vt 0.005859 0.500000
vt 0.005859 0.500000
vt 0.005859 0.500000
vt 0.005859 0.500000
vt 0.005859 0.500000
vt 0.001953 0.500000
vt 0.001953 0.500000
vt 0.001953 0.500000
vt 0.001953 0.500000
vt 0.287109 0.500000
vt 0.287109 0.500000
vt 0.287109 0.500000
vt 0.287109 0.500000
vt 0.287109 0.500000
vt 0.287109 0.500000
vt 0.287109 0.500000
vt 0.287109 0.500000
vt 0.287109 0.500000
vt 0.287109 0.500000
vt 0.287109 0.500000
vt 0.287109 0.500000
vt 0.287109 0.500000
vt 0.287109 0.500000
vt 0.287109 0.500000
vt 0.287109 0.500000
vt 0.287109 0.500000
vt 0.287109 0.500000
vt 0.287109 0.500000
vt 0.287109 0.500000
vt 0.287109 0.500000
vt 0.287109 0.500000
vt 0.005859 0.500000
vt 0.005859 0.500000
vt 0.005859 0.500000
vt 0.009766 0.500000
vt 0.009766 0.500000
vt 0.009766 0.500000
vt 0.005859 0.500000
vt 0.005859 0.500000
vt 0.009766 0.500000
vt 0.005859 0.500000
vt 0.005859 0.500000
vt 0.005859 0.500000
vt 0.005859 0.500000
vt 0.005859 0.500000
vt 0.009766 0.500000
vt 0.009766 0.500000
vt 0.009766 0.500000
vt 0.005859 0.500000
vt 0.009766 0.500000
vt 0.005859 0.500000
vt 0.283203 0.500000
vt 0.283203 0.500000
vt 0.283203 0.500000
vt 0.287109 0.500000
vt 0.287109 0.500000
vt 0.287109 0.500000
vt 0.283203 0.500000
vt 0.978516 0.500000
vt 0.978516 0.500000
vt 0.978516 0.500000
vt 0.287109 0.500000
vt 0.978516 0.500000
vt 0.005859 0.500000
vt 0.005859 0.500000
vt 0.005859 0.500000
vt 0.005859 0.500000
vt 0.287109 0.500000
vt 0.287109 0.500000
vt 0.287109 0.500000
vt 0.287109 0.500000
vt 0.287109 0.500000
vt 0.283203 0.500000
vt 0.283203 0.500000
vt 0.287109 0.500000
vt 0.994141 0.500000
vt 0.994141 0.500000
vt 0.994141 0.500000
vt 0.287109 0.500000
vt 0.283203 0.500000
vt 0.283203 0.500000
vt 0.994141 0.500000
vt 0.978516 0.500000
vt 0.978516 0.500000
vt 0.978516 0.500000
vt 0.994141 0.500000
vt 0.287109 0.500000
vt 0.978516 0.500000
vt 0.978516 0.500000
vt 0.978516 0.500000
vt 0.427734 0.500000
vt 0.427734 0.500000
vt 0.427734 0.500000
vt 0.431641 0.500000
vt 0.431641 0.500000
vt 0.431641 0.500000
vt 0.427734 0.500000
vt 0.431641 0.500000
vt 0.287109 0.500000
vt 0.287109 0.500000
vt 0.287109 0.500000
vt 0.283203 0.500000
vt 0.287109 0.500000
vt 0.287109 0.500000
vt 0.283203 0.500000
vt 0.994141 0.500000
vt 0.994141 0.500000
vt 0.994141 0.500000
vt 0.283203 0.500000
vt 0.287109 0.500000
vt 0.287109 0.500000
vt 0.287109 0.500000
vt 0.994141 0.500000
vt 0.978516 0.500000
vt 0.978516 0.500000
vt 0.978516 0.500000
vt 0.994141 0.500000
vt 0.287109 0.500000
vt 0.978516 0.500000
vt 0.283203 0.500000
vt 0.287109 0.500000
vt 0.287109 0.500000
vt 0.283203 0.500000
vt 0.287109 0.500000
vt 0.287109 0.500000
vt 0.978516 0.500000
vt 0.287109 0.500000
vt 0.978516 0.500000
vt 0.283203 0.500000
vt 0.283203 0.500000
vt 0.287109 0.500000
vt 0.283203 0.500000
vt 0.978516 0.500000
vt 0.978516 0.500000
vt 0.287109 0.500000
vt 0.978516 0.500000
vt 0.005859 0.500000
vt 0.005859 0.500000
vt 0.005859 0.500000
vt 0.005859 0.500000
vt 0.978516 0.500000
vt 0.978516 0.500000
vt 0.978516 0.500000
vt 0.978516 0.500000
vt 0.775391 0.500000
vt 0.775391 0.500000
vt 0.775391 0.500000
vt 0.775391 0.500000
vt 0.775391 0.500000
vt 0.775391 0.500000
vt 0.775391 0.500000
vt 0.775391 0.500000
vt 0.775391 0.500000
vt 0.009766 0.500000
vt 0.009766 0.500000
vt 0.009766 0.500000
vt 0.775391 0.500000
vt 0.009766 0.500000
vt 0.775391 0.500000
vt 0.009766 0.500000
vt 0.001953 0.500000
vt 0.001953 0.500000
vt 0.001953 0.500000
vt 0.001953 0.500000
vt 0.978516 0.500000
vt 0.978516 0.500000
vt 0.978516 0.500000
vt 0.978516 0.500000
vt 0.775391 0.500000
vt 0.779297 0.500000
vt 0.779297 0.500000
vt 0.779297 0.500000
vt 0.775391 0.500000
vt 0.779297 0.500000
vt 0.779297 0.500000
vt 0.779297 0.500000
vt 0.775391 0.500000
vt 0.001953 0.500000
vt 0.775391 0.500000
vt 0.001953 0.500000
vt 0.001953 0.500000
vt 0.001953 0.500000
vt 0.775391 0.500000
vt 0.775391 0.500000
vt 0.775391 0.500000
vt 0.009766 0.500000
vt 0.009766 0.500000
vt 0.009766 0.500000
vt 0.775391 0.500000
vt 0.009766 0.500000
vt 0.775391 0.500000
vt 0.775391 0.500000
vt 0.009766 0.500000
vt 0.775391 0.500000
vt 0.775391 0.500000
vt 0.775391 0.500000
vt 0.287109 0.500000
vt 0.287109 0.500000
vt 0.287109 0.500000
vt 0.287109 0.500000
vt 0.287109 0.500000
vt 0.287109 0.500000
vt 0.005859 0.500000
vt 0.005859 0.500000
vt 0.005859 0.500000
vt 0.005859 0.500000
vt 0.427734 0.500000
vt 0.427734 0.500000
vt 0.427734 0.500000
vt 0.427734 0.500000
vt 0.001953 0.500000
vt 0.001953 0.500000
vt 0.001953 0.500000
vt 0.001953 0.500000
vt 0.431641 0.500000
vt 0.431641 0.500000
vt 0.431641 0.500000
vt 0.431641 0.500000
vt 0.775391 0.500000
vt 0.775391 0.500000
vt 0.775391 0.500000
vt 0.009766 0.500000
vt 0.009766 0.500000
vt 0.009766 0.500000
vt 0.775391 0.500000
vt 0.775391 0.500000
vt 0.775391 0.500000
vt 0.775391 0.500000
vt 0.009766 0.500000
vt 0.775391 0.500000
vt 0.978516 0.500000
vt 0.978516 0.500000
vt 0.978516 0.500000
vt 0.978516 0.500000
vt 0.427734 0.500000
vt 0.427734 0.500000
vt 0.427734 0.500000
vt 0.427734 0.500000
vt 0.005859 0.500000
vt 0.005859 0.500000
vt 0.005859 0.500000
vt 0.005859 0.500000
vt 0.287109 0.500000
vt 0.287109 0.500000
vt 0.287109 0.500000
vt 0.287109 0.500000
vt 0.005859 0.500000
vt 0.005859 0.500000
vt 0.005859 0.500000
vt 0.005859 0.500000
vt 0.427734 0.500000
vt 0.427734 0.500000
vt 0.427734 0.500000
vt 0.427734 0.500000
vt 0.431641 0.500000
vt 0.431641 0.500000
vt 0.431641 0.500000
vt 0.431641 0.500000
vt 0.775391 0.500000
vt 0.775391 0.500000
vt 0.775391 0.500000
vt 0.009766 0.500000
vt 0.009766 0.500000
vt 0.009766 0.500000
vt 0.775391 0.500000
vt 0.775391 0.500000
vt 0.775391 0.500000
vt 0.775391 0.500000
vt 0.009766 0.500000
vt 0.775391 0.500000
vt 0.427734 0.500000
vt 0.427734 0.500000
vt 0.427734 0.500000
vt 0.427734 0.500000
vt 0.001953 0.500000
vt 0.001953 0.500000
vt 0.001953 0.500000
vt 0.001953 0.500000
vt 0.005859 0.500000
vt 0.005859 0.500000
vt 0.005859 0.500000
vt 0.005859 0.500000
vt 0.287109 0.500000
vt 0.287109 0.500000
vt 0.287109 0.500000
vt 0.287109 0.500000
vt 0.287109 0.500000
vt 0.287109 0.500000
vt 0.287109 0.500000
vt 0.287109 0.500000
vt 0.287109 0.500000
vt 0.287109 0.500000
vt 0.287109 0.500000
vt 0.287109 0.500000
vt 0.287109 0.500000
vt 0.287109 0.500000
vt 0.287109 0.500000
vt 0.287109 0.500000
vt 0.287109 0.500000
vt 0.287109 0.500000
vt 0.287109 0.500000
vt 0.287109 0.500000
vt 0.001953 0.500000
vt 0.001953 0.500000
vt 0.001953 0.500000
vt 0.001953 0.500000
vt 0.001953 0.500000
vt 0.001953 0.500000
vt 0.001953 0.500000
vt 0.001953 0.500000
vt 0.287109 0.500000
vt 0.287109 0.500000
vt 0.287109 0.500000
vt 0.287109 0.500000
vt 0.287109 0.500000
vt 0.287109 0.500000
vt 0.287109 0.500000
vt 0.287109 0.500000
vt 0.287109 0.500000
vt 0.287109 0.500000
vt 0.287109 0.500000
vt 0.287109 0.500000
vt 0.287109 0.500000
vt 0.287109 0.500000
vt 0.287109 0.500000
vt 0.287109 0.500000
vt 0.287109 0.500000
vt 0.287109 0.500000
vt 0.287109 0.500000
vt 0.287109 0.500000
vt 0.287109 0.500000
vt 0.287109 0.500000
vt 0.287109 0.500000
vt 0.287109 0.500000
vt 0.287109 0.500000
vt 0.287109 0.500000
vt 0.978516 0.500000
vt 0.978516 0.500000
vt 0.978516 0.500000
vt 0.978516 0.500000
vt 0.287109 0.500000
vt 0.287109 0.500000
vt 0.287109 0.500000
vt 0.287109 0.500000
vt 0.287109 0.500000
vt 0.287109 0.500000
vt 0.287109 0.500000
vt 0.287109 0.500000
vt 0.978516 0.500000
vt 0.978516 0.500000
vt 0.978516 0.500000
vt 0.978516 0.500000
vt 0.978516 0.500000
vt 0.978516 0.500000
vt 0.978516 0.500000
vt 0.978516 0.500000
vt 0.287109 0.500000
vt 0.287109 0.500000
vt 0.287109 0.500000
vt 0.287109 0.500000
vt 0.287109 0.500000
vt 0.287109 0.500000
vt 0.287109 0.500000
vt 0.287109 0.500000
vt 0.287109 0.500000
vt 0.287109 0.500000
vt 0.287109 0.500000
vt 0.287109 0.500000
vt 0.287109 0.500000
vt 0.287109 0.500000
vt 0.287109 0.500000
vt 0.287109 0.500000
vt 0.287109 0.500000
vt 0.287109 0.500000
vt 0.001953 0.500000
vt 0.001953 0.500000
vt 0.001953 0.500000
vt 0.001953 0.500000
vt 0.978516 0.500000
vt 0.978516 0.500000
vt 0.978516 0.500000
vt 0.978516 0.500000
vt 0.978516 0.500000
vt 0.978516 0.500000
vt 0.978516 0.500000
vt 0.978516 0.500000
vt 0.978516 0.500000
vt 0.978516 0.500000
vt 0.978516 0.500000
vt 0.978516 0.500000
vt 0.001953 0.500000
vt 0.001953 0.500000
vt 0.001953 0.500000
vt 0.001953 0.500000
vt 0.287109 0.500000
vt 0.287109 0.500000
vt 0.287109 0.500000
vt 0.287109 0.500000
vt 0.287109 0.500000
vt 0.287109 0.500000
vt 0.287109 0.500000
vt 0.287109 0.500000
vt 0.287109 0.500000
vt 0.287109 0.500000
vt 0.287109 0.500000
vt 0.287109 0.500000
vt 0.287109 0.500000
vt 0.287109 0.500000
vt 0.287109 0.500000
vt 0.287109 0.500000
vt 0.287109 0.500000
vt 0.287109 0.500000
vt 0.001953 0.500000
vt 0.001953 0.500000
vt 0.001953 0.500000
vt 0.001953 0.500000
vt 0.978516 0.500000
vt 0.978516 0.500000
vt 0.978516 0.500000
vt 0.978516 0.500000
vt 0.775391 0.500000
vt 0.775391 0.500000
vt 0.775391 0.500000
vt 0.009766 0.500000
vt 0.009766 0.500000
vt 0.009766 0.500000
vt 0.775391 0.500000
vt 0.775391 0.500000
vt 0.775391 0.500000
vt 0.775391 0.500000
vt 0.009766 0.500000
vt 0.775391 0.500000
vt 0.775391 0.500000
vt 0.775391 0.500000
vt 0.775391 0.500000
vt 0.775391 0.500000
vt 0.009766 0.500000
vt 0.009766 0.500000
vt 0.009766 0.500000
vt 0.005859 0.500000
vt 0.005859 0.500000
vt 0.005859 0.500000
vt 0.009766 0.500000
vt 0.005859 0.500000
vt 0.001953 0.500000
vt 0.001953 0.500000
vt 0.001953 0.500000
vt 0.001953 0.500000
vt 0.775391 0.500000
vt 0.775391 0.500000
vt 0.775391 0.500000
vt 0.009766 0.500000
vt 0.009766 0.500000
vt 0.009766 0.500000
vt 0.775391 0.500000
vt 0.775391 0.500000
vt 0.775391 0.500000
vt 0.775391 0.500000
vt 0.009766 0.500000
vt 0.775391 0.500000
vt 0.775391 0.500000
vt 0.775391 0.500000
vt 0.775391 0.500000
vt 0.775391 0.500000
vt 0.978516 0.500000
vt 0.978516 0.500000
vt 0.978516 0.500000
vt 0.978516 0.500000
vt 0.978516 0.500000
vt 0.978516 0.500000
vt 0.001953 0.500000
vt 0.001953 0.500000
vt 0.001953 0.500000
vt 0.001953 0.500000
vt 0.978516 0.500000
vt 0.978516 0.500000
vt 0.009766 0.500000
vt 0.009766 0.500000
vt 0.009766 0.500000
vt 0.005859 0.500000
vt 0.005859 0.500000
vt 0.005859 0.500000
vt 0.009766 0.500000
vt 0.005859 0.500000
vt 0.287109 0.500000
vt 0.287109 0.500000
vt 0.287109 0.500000
vt 0.287109 0.500000
vt 0.775391 0.500000
vt 0.775391 0.500000
vt 0.775391 0.500000
vt 0.775391 0.500000
vt 0.775391 0.500000
vt 0.775391 0.500000
vt 0.775391 0.500000
vt 0.775391 0.500000
vt 0.775391 0.500000
vt 0.009766 0.500000
vt 0.009766 0.500000
vt 0.009766 0.500000
vt 0.775391 0.500000
vt 0.779297 0.500000
vt 0.779297 0.500000
vt 0.779297 0.500000
vt 0.779297 0.500000
vt 0.775391 0.500000
vt 0.775391 0.500000
vt 0.775391 0.500000
vt 0.779297 0.500000
vt 0.009766 0.500000
vt 0.779297 0.500000
vt 0.775391 0.500000
vt 0.001953 0.500000
vt 0.001953 0.500000
vt 0.001953 0.500000
vt 0.001953 0.500000
vt 0.775391 0.500000
vt 0.775391 0.500000
vt 0.009766 0.500000
vt 0.775391 0.500000
vt 0.775391 0.500000
vt 0.775391 0.500000
vt 0.009766 0.500000
vt 0.775391 0.500000
vt 0.775391 0.500000
vt 0.775391 0.500000
vt 0.009766 0.500000
vt 0.009766 0.500000
vt 0.009766 0.500000
vt 0.009766 0.500000
vt 0.009766 0.500000
vt 0.009766 0.500000
vt 0.009766 0.500000
vt 0.009766 0.500000
vt 0.775391 0.500000
vt 0.775391 0.500000
vt 0.775391 0.500000
vt 0.779297 0.500000
vt 0.779297 0.500000
vt 0.779297 0.500000
vt 0.775391 0.500000
vt 0.775391 0.500000
vt 0.775391 0.500000
vt 0.775391 0.500000
vt 0.779297 0.500000
vt 0.775391 0.500000
vt 0.775391 0.500000
vt 0.775391 0.500000
vt 0.775391 0.500000
vt 0.775391 0.500000
vt 0.775391 0.500000
vt 0.775391 0.500000
vt 0.775391 0.500000
vt 0.775391 0.500000
vt 0.775391 0.500000
vt 0.779297 0.500000
vt 0.779297 0.500000
vt 0.779297 0.500000
vt 0.775391 0.500000
vt 0.775391 0.500000
vt 0.779297 0.500000
vt 0.775391 0.500000
vt 0.427734 0.500000
vt 0.427734 0.500000
vt 0.427734 0.500000
vt 0.427734 0.500000
vt 0.287109 0.500000
vt 0.287109 0.500000
vt 0.287109 0.500000
vt 0.287109 0.500000
vt 0.287109 0.500000
vt 0.287109 0.500000
vt 0.287109 0.500000
vt 0.287109 0.500000
vt 0.287109 0.500000
vt 0.287109 0.500000
vt 0.287109 0.500000
vt 0.287109 0.500000
vt 0.287109 0.500000
vt 0.287109 0.500000
vt 0.287109 0.500000
vt 0.287109 0.500000
vt 0.775391 0.500000
vt 0.775391 0.500000
vt 0.775391 0.500000
vt 0.775391 0.500000
vt 0.775391 0.500000
vt 0.775391 0.500000
vt 0.775391 0.500000
vt 0.775391 0.500000
vt 0.287109 0.500000
vt 0.287109 0.500000
vt 0.287109 0.500000
vt 0.287109 0.500000
vt 0.287109 0.500000
vt 0.287109 0.500000
vt 0.287109 0.500000
vt 0.287109 0.500000
vt 0.287109 0.500000
vt 0.287109 0.500000
vt 0.287109 0.500000
vt 0.287109 0.500000
vt 0.287109 0.500000
vt 0.287109 0.500000
vt 0.287109 0.500000
vt 0.287109 0.500000
vt 0.287109 0.500000
vt 0.287109 0.500000
vt 0.287109 0.500000
vt 0.287109 0.500000
vt 0.287109 0.500000
vt 0.287109 0.500000
vt 0.287109 0.500000
vt 0.287109 0.500000
vt 0.287109 0.500000
vt 0.287109 0.500000
vt 0.775391 0.500000
vt 0.775391 0.500000
vt 0.775391 0.500000
vt 0.775391 0.500000
vt 0.775391 0.500000
vt 0.775391 0.500000
vt 0.775391 0.500000
vt 0.775391 0.500000
vt 0.001953 0.500000
vt 0.001953 0.500000
vt 0.001953 0.500000
vt 0.001953 0.500000
vt 0.001953 0.500000
vt 0.001953 0.500000
vt 0.001953 0.500000
vt 0.001953 0.500000
vt 0.001953 0.500000
vt 0.001953 0.500000
vt 0.001953 0.500000
vt 0.001953 0.500000
vt 0.001953 0.500000
vt 0.001953 0.500000
vt 0.001953 0.500000
vt 0.001953 0.500000
vt 0.283203 0.500000
vt 0.283203 0.500000
vt 0.283203 0.500000
vt 0.283203 0.500000
vt 0.283203 0.500000
vt 0.287109 0.500000
vt 0.287109 0.500000
vt 0.287109 0.500000
vt 0.283203 0.500000
vt 0.283203 0.500000
vt 0.287109 0.500000
vt 0.283203 0.500000
vt 0.287109 0.500000
vt 0.287109 0.500000
vt 0.287109 0.500000
vt 0.287109 0.500000
vt 0.978516 0.500000
vt 0.978516 0.500000
vt 0.978516 0.500000
vt 0.978516 0.500000
vt 0.283203 0.500000
vt 0.283203 0.500000
vt 0.283203 0.500000
vt 0.283203 0.500000
vt 0.283203 0.500000
vt 0.283203 0.500000
vt 0.283203 0.500000
vt 0.283203 0.500000
vt 0.287109 0.500000
vt 0.287109 0.500000
vt 0.287109 0.500000
vt 0.287109 0.500000
vt 0.287109 0.500000
vt 0.287109 0.500000
vt 0.287109 0.500000
vt 0.287109 0.500000
vt 0.978516 0.500000
vt 0.978516 0.500000
vt 0.978516 0.500000
vt 0.978516 0.500000
vt 0.978516 0.500000
vt 0.978516 0.500000
vt 0.978516 0.500000
vt 0.978516 0.500000
vt 0.978516 0.500000
vt 0.978516 0.500000
vt 0.287109 0.500000
vt 0.287109 0.500000
vt 0.287109 0.500000
vt 0.287109 0.500000
vt 0.287109 0.500000
vt 0.287109 0.500000
vt 0.287109 0.500000
vt 0.287109 0.500000
vt 0.005859 0.500000
vt 0.005859 0.500000
vt 0.005859 0.500000
vt 0.005859 0.500000
vt 0.005859 0.500000
vt 0.005859 0.500000
vt 0.005859 0.500000
vt 0.005859 0.500000
vt 0.005859 0.500000
vt 0.005859 0.500000
vt 0.005859 0.500000
vt 0.005859 0.500000
vt 0.005859 0.500000
vt 0.005859 0.500000
vt 0.005859 0.500000
vt 0.005859 0.500000
vt 0.005859 0.500000
vt 0.005859 0.500000
vt 0.005859 0.500000
vt 0.005859 0.500000
vt 0.005859 0.500000
vt 0.005859 0.500000
vt 0.005859 0.500000
vt 0.005859 0.500000
vt 0.005859 0.500000
vt 0.005859 0.500000
vt 0.005859 0.500000
vt 0.005859 0.500000
vt 0.005859 0.500000
vt 0.005859 0.500000
vt 0.005859 0.500000
vt 0.427734 0.500000
vt 0.427734 0.500000
vt 0.427734 0.500000
vt 0.431641 0.500000
vt 0.431641 0.500000
vt 0.431641 0.500000
vt 0.427734 0.500000
vt 0.427734 0.500000
vt 0.427734 0.500000
vt 0.427734 0.500000
vt 0.431641 0.500000
vt 0.005859 0.500000
vt 0.005859 0.500000
vt 0.005859 0.500000
vt 0.427734 0.500000
vt 0.005859 0.500000
vt 0.005859 0.500000
vt 0.005859 0.500000
vt 0.427734 0.500000
vt 0.427734 0.500000
vt 0.427734 0.500000
vt 0.431641 0.500000
vt 0.431641 0.500000
vt 0.431641 0.500000
vt 0.427734 0.500000
vt 0.427734 0.500000
vt 0.427734 0.500000
vt 0.427734 0.500000
vt 0.431641 0.500000
vt 0.005859 0.500000
vt 0.005859 0.500000
vt 0.005859 0.500000
vt 0.427734 0.500000
vt 0.005859 0.500000
vt 0.287109 0.500000
vt 0.287109 0.500000
vt 0.287109 0.500000
vt 0.287109 0.500000
vt 0.287109 0.500000
vt 0.005859 0.500000
vt 0.287109 0.500000
vt 0.287109 0.500000
vt 0.287109 0.500000
vt 0.287109 0.500000
vt 0.287109 0.500000
vt 0.287109 0.500000
vt 0.005859 0.500000
vt 0.005859 0.500000
vt 0.287109 0.500000
vt 0.005859 0.500000
vt 0.005859 0.500000
vt 0.005859 0.500000
vt 0.005859 0.500000
vt 0.431641 0.500000
vt 0.431641 0.500000
vt 0.431641 0.500000
vt 0.431641 0.500000
vt 0.287109 0.500000
vt 0.287109 0.500000
vt 0.287109 0.500000
vt 0.287109 0.500000
vt 0.287109 0.500000
vt 0.287109 0.500000
vt 0.287109 0.500000
vt 0.287109 0.500000
vt 0.287109 0.500000
vt 0.287109 0.500000
vt 0.287109 0.500000
vt 0.287109 0.500000
vt 0.287109 0.500000
vt 0.287109 0.500000
vt 0.287109 0.500000
vt 0.287109 0.500000
vt 0.287109 0.500000
vt 0.287109 0.500000
vt 0.287109 0.500000
vt 0.287109 0.500000
vt 0.287109 0.500000
vt 0.287109 0.500000
vt 0.287109 0.500000
vt 0.287109 0.500000
vt 0.287109 0.500000
vt 0.287109 0.500000
vt 0.287109 0.500000
vt 0.287109 0.500000
vt 0.287109 0.500000
vt 0.287109 0.500000
vt 0.287109 0.500000
vt 0.287109 0.500000
vt 0.287109 0.500000
vt 0.287109 0.500000
vt 0.287109 0.500000
vt 0.287109 0.500000
vt 0.001953 0.500000
vt 0.001953 0.500000
vt 0.001953 0.500000
vt 0.001953 0.500000
vt 0.001953 0.500000
vt 0.001953 0.500000
vt 0.001953 0.500000
vt 0.001953 0.500000
vt 0.287109 0.500000
vt 0.287109 0.500000
vt 0.287109 0.500000
vt 0.287109 0.500000
vt 0.001953 0.500000
vt 0.001953 0.500000
vt 0.001953 0.500000
vt 0.001953 0.500000
vt 0.001953 0.500000
vt 0.001953 0.500000
vt 0.001953 0.500000
vt 0.001953 0.500000
vt 0.001953 0.500000
vt 0.001953 0.500000
vt 0.001953 0.500000
vt 0.001953 0.500000
vt 0.775391 0.500000
vt 0.775391 0.500000
vt 0.775391 0.500000
vt 0.001953 0.500000
vt 0.001953 0.500000
vt 0.001953 0.500000
vt 0.775391 0.500000
vt 0.775391 0.500000
vt 0.775391 0.500000
vt 0.775391 0.500000
vt 0.001953 0.500000
vt 0.775391 0.500000
vt 0.775391 0.500000
vt 0.775391 0.500000
vt 0.775391 0.500000
vt 0.001953 0.500000
vt 0.001953 0.500000
vt 0.001953 0.500000
vt 0.001953 0.500000
vt 0.001953 0.500000
vt 0.001953 0.500000
vt 0.001953 0.500000
vt 0.775391 0.500000
vt 0.775391 0.500000
vt 0.775391 0.500000
vt 0.001953 0.500000
vt 0.287109 0.500000
vt 0.287109 0.500000
vt 0.287109 0.500000
vt 0.287109 0.500000
vt 0.287109 0.500000
vt 0.775391 0.500000
vt 0.775391 0.500000
vt 0.287109 0.500000
vt 0.775391 0.500000
vt 0.001953 0.500000
vt 0.001953 0.500000
vt 0.001953 0.500000
vt 0.775391 0.500000
vt 0.775391 0.500000
vt 0.001953 0.500000
vt 0.775391 0.500000
vt 0.287109 0.500000
vt 0.287109 0.500000
vt 0.287109 0.500000
vt 0.287109 0.500000
vt 0.287109 0.500000
vt 0.287109 0.500000
vt 0.287109 0.500000
vt 0.287109 0.500000
vt 0.978516 0.500000
vt 0.978516 0.500000
vt 0.978516 0.500000
vt 0.978516 0.500000
vt 0.978516 0.500000
vt 0.978516 0.500000
vt 0.978516 0.500000
vt 0.978516 0.500000
vt 0.978516 0.500000
vt 0.978516 0.500000
vt 0.978516 0.500000
vt 0.978516 0.500000
vt 0.978516 0.500000
vt 0.978516 0.500000
vt 0.978516 0.500000
vt 0.978516 0.500000
vt 0.978516 0.500000
vt 0.978516 0.500000
vt 0.978516 0.500000
vt 0.978516 0.500000
vt 0.978516 0.500000
vt 0.978516 0.500000
vt 0.978516 0.500000
vt 0.978516 0.500000
vt 0.978516 0.500000
vt 0.978516 0.500000
vt 0.978516 0.500000
vt 0.978516 0.500000
vt 0.978516 0.500000
vt 0.978516 0.500000
vt 0.978516 0.500000
vt 0.978516 0.500000
vt 0.978516 0.500000
vt 0.978516 0.500000
vt 0.978516 0.500000
vt 0.978516 0.500000
vt 0.978516 0.500000
vt 0.978516 0.500000
vt 0.978516 0.500000
vt 0.978516 0.500000
vt 0.978516 0.500000
vt 0.978516 0.500000
vt 0.978516 0.500000
vt 0.978516 0.500000
vt 0.978516 0.500000
vt 0.978516 0.500000
vt 0.978516 0.500000
vt 0.978516 0.500000
vn -1.0000 0.0036 0.0000
vn -1.0000 0.0035 0.0000
vn -1.0000 -0.0000 0.0000
vn 1.0000 -0.0036 -0.0000
vn 1.0000 0.0000 0.0000
vn 0.0000 0.0000 1.0000
vn 0.0000 0.0000 -1.0000
vn 0.0000 -1.0000 -0.0000
vn -0.0036 -1.0000 -0.0000
vn 0.0000 1.0000 0.0000
vn 0.0036 1.0000 0.0000
usemtl palette
s 1
f 1/1/1 2/2/1 3/3/1
f 4/4/1 2/2/1 1/1/1
f 5/5/1 6/6/1 7/7/1
f 8/8/1 6/6/1 5/5/1
f 9/9/1 10/10/1 11/11/1
f 12/12/1 10/10/1 9/9/1
f 13/13/1 9/9/1 8/8/1
f 14/14/1 9/9/1 13/13/1
f 15/15/1 16/16/1 17/17/2
f 18/18/1 16/16/1 15/15/1
f 19/19/3 20/20/3 21/21/3
f 22/22/3 20/20/3 19/19/3
f 23/23/3 22/24/3 19/25/3
f 24/26/3 22/24/3 23/23/3
f 25/27/3 22/24/3 24/26/3
f 26/28/3 22/24/3 25/27/3
f 27/29/3 22/24/3 26/28/3
f 28/30/3 22/24/3 27/29/3
f 29/31/3 30/32/3 31/33/3
f 32/34/3 30/32/3 29/31/3
f 33/35/3 34/36/3 35/37/3
f 36/38/3 34/36/3 33/35/3
f 37/39/3 38/40/3 39/41/3
f 40/42/3 41/43/3 42/44/3
f 43/45/3 37/39/3 39/41/3
f 43/45/3 40/42/3 37/39/3
f 44/46/3 41/43/3 40/42/3
f 44/46/3 40/42/3 43/45/3
f 45/47/3 46/48/3 47/49/3
f 48/50/3 46/48/3 45/47/3
f 49/51/3 50/52/3 46/53/3
f 49/54/3 46/48/3 48/50/3
f 51/55/3 52/56/3 50/57/3
f 51/58/3 50/52/3 49/51/3
f 53/59/3 48/60/3 45/61/3
f 54/62/3 49/63/3 48/64/3
f 54/65/3 48/60/3 53/59/3
f 55/66/3 53/59/3 45/61/3
f 56/67/3 54/62/3 53/68/3
f 56/69/3 53/59/3 55/66/3
f 57/70/3 49/63/3 54/62/3
f 57/70/3 54/62/3 56/67/3
f 58/71/3 52/56/3 51/55/3
f 59/72/3 56/67/3 55/73/3
f 59/72/3 58/71/3 57/70/3
f 59/72/3 57/70/3 56/67/3
f 60/74/3 58/71/3 59/72/3
f 61/75/3 52/56/3 58/71/3
f 61/75/3 58/71/3 60/74/3
f 62/76/3 52/56/3 61/75/3
f 63/77/3 61/75/3 60/74/3
f 64/78/3 61/75/3 63/77/3
f 65/79/3 66/80/3 67/81/3
f 68/82/3 66/80/3 65/79/3
f 69/83/3 68/84/3 65/85/3
f 70/86/3 68/84/3 69/83/3
f 71/87/3 70/88/3 69/89/3
f 72/90/3 70/88/3 71/87/3
f 73/91/3 72/92/3 71/93/3
f 73/94/3 71/87/3 74/95/3
f 75/96/3 76/97/3 72/90/3
f 75/98/3 72/92/3 73/91/3
f 77/99/3 73/94/3 74/95/3
f 78/100/3 76/97/3 75/96/3
f 79/101/3 76/97/3 78/100/3
f 80/102/3 77/99/3 74/95/3
f 80/102/3 78/100/3 77/99/3
f 81/103/3 78/100/3 80/102/3
f 82/104/3 83/105/3 84/106/3
f 85/107/3 86/108/3 83/109/3
f 85/110/3 83/105/3 82/104/3
f 87/111/3 86/108/3 85/107/3
f 88/112/3 89/113/3 86/114/3
f 88/115/3 86/108/3 87/111/3
f 90/116/3 89/113/3 88/112/3
f 91/117/3 92/118/3 93/119/3
f 94/120/3 92/118/3 91/117/3
f 95/121/3 96/122/3 97/123/3
f 98/124/3 96/122/3 95/121/3
f 99/125/3 100/126/3 101/127/3
f 102/128/3 100/126/3 99/125/3
f 103/129/3 104/130/3 105/131/3
f 106/132/3 104/130/3 103/129/3
f 107/133/3 108/134/3 109/135/3
f 110/136/3 108/134/3 107/133/3
f 111/137/3 112/138/3 113/139/3
f 114/140/3 112/138/3 111/137/3
f 115/141/3 110/142/3 107/143/3
f 116/144/3 110/142/3 115/141/3
f 117/145/3 114/146/3 111/147/3
f 118/148/3 114/146/3 117/145/3
f 119/149/3 116/150/3 115/151/3
f 120/152/3 116/150/3 119/149/3
f 121/153/3 118/154/3 117/155/3
f 122/156/3 118/154/3 121/153/3
f 123/157/3 124/158/3 125/159/3
f 126/160/3 124/158/3 123/157/3
f 127/161/3 128/162/3 129/163/3
f 130/164/3 128/162/3 127/161/3
f 131/165/3 132/166/3 133/167/3
f 134/168/3 132/166/3 131/165/3
f 135/169/3 134/170/3 131/171/3
f 136/172/3 134/170/3 135/169/3
f 137/173/3 138/174/3 139/175/3
f 140/176/3 138/174/3 137/173/3
f 141/177/3 142/178/3 143/179/3
f 144/180/3 142/178/3 141/177/3
f 145/181/3 144/182/3 141/183/3
f 146/184/3 144/182/3 145/181/3
f 147/185/3 144/182/3 146/184/3
f 148/186/3 144/182/3 147/185/3
f 149/187/3 150/188/3 151/189/3
f 152/190/3 150/188/3 149/187/3
f 153/191/3 154/192/3 155/193/3
f 156/194/3 154/192/3 153/191/3
f 157/195/3 158/196/3 159/197/3
f 160/198/3 158/196/3 157/195/3
f 161/199/3 162/200/3 163/201/3
f 164/202/3 161/199/3 163/201/3
f 165/203/3 161/199/3 164/202/3
f 166/204/3 167/205/3 168/206/3
f 169/207/3 167/205/3 166/204/3
f 170/208/3 166/204/3 165/203/3
f 171/209/3 166/204/3 170/208/3
f 172/210/3 173/211/3 174/212/3
f 175/213/3 173/211/3 172/210/3
f 176/214/4 177/215/4 178/216/4
f 178/216/4 177/215/4 179/217/4
f 180/218/4 181/219/4 182/220/4
f 180/218/4 182/220/4 183/221/4
f 183/221/4 182/220/4 184/222/4
f 185/223/4 186/224/4 187/225/4
f 187/225/4 186/224/4 188/226/4
f 184/222/4 187/225/4 189/227/4
f 189/227/4 187/225/4 190/228/4
f 191/229/4 192/230/4 193/231/4
f 193/231/4 192/230/4 194/232/4
f 195/233/4 196/234/4 197/235/4
f 197/235/4 196/234/4 198/236/4
f 199/237/5 200/238/5 201/239/5
f 201/239/5 200/238/5 202/240/5
f 201/241/5 202/242/5 203/243/5
f 203/243/5 202/242/5 204/244/5
f 204/244/5 202/242/5 205/245/5
f 205/245/5 202/242/5 206/246/5
f 207/247/5 208/248/5 209/249/5
f 209/249/5 208/248/5 210/250/5
f 211/251/5 212/252/5 213/253/5
f 213/253/5 212/252/5 214/254/5
f 213/255/5 214/256/5 215/257/5
f 215/257/5 214/256/5 216/258/5
f 217/259/5 218/260/5 219/261/5
f 219/261/5 218/260/5 220/262/5
f 221/263/5 222/264/5 223/265/5
f 223/265/5 222/264/5 224/266/5
f 225/267/5 226/268/5 227/269/5
f 227/269/5 226/268/5 228/270/5
f 223/271/5 224/272/5 229/273/5
f 229/273/5 224/272/5 230/274/5
f 227/275/5 228/276/5 231/277/5
f 231/277/5 228/276/5 232/278/5
f 229/279/5 230/280/5 233/281/5
f 233/281/5 230/280/5 234/282/5
f 231/283/5 232/284/5 235/285/5
f 235/285/5 232/284/5 236/286/5
f 237/287/5 238/288/5 239/289/5
f 239/289/5 238/288/5 240/290/5
f 241/291/5 242/292/5 243/293/5
f 243/293/5 242/292/5 244/294/5
f 243/295/5 244/296/5 245/297/5
f 245/297/5 244/296/5 246/298/5
f 245/299/5 246/300/5 247/301/5
f 247/301/5 246/300/5 248/302/5
f 247/303/5 248/304/5 249/305/5
f 250/306/5 247/301/5 249/307/5
f 248/302/5 251/308/5 252/309/5
f 249/305/5 248/304/5 252/310/5
f 250/306/5 249/307/5 253/311/5
f 252/309/5 251/308/5 254/312/5
f 254/312/5 251/308/5 255/313/5
f 250/306/5 253/311/5 256/314/5
f 253/311/5 254/312/5 256/314/5
f 256/314/5 254/312/5 257/315/5
f 258/316/5 259/317/5 260/318/5
f 259/319/5 261/320/5 262/321/5
f 260/318/5 259/317/5 262/322/5
f 262/321/5 261/320/5 263/323/5
f 261/324/5 264/325/5 265/326/5
f 263/323/5 261/320/5 265/327/5
f 265/326/5 264/325/5 266/328/5
f 267/329/5 268/330/5 269/331/5
f 269/331/5 268/330/5 270/332/5
f 271/333/5 272/334/5 273/335/5
f 273/335/5 272/334/5 274/336/5
f 275/337/5 276/338/5 277/339/5
f 278/340/5 279/341/5 280/342/5
f 275/337/5 277/339/5 281/343/5
f 277/339/5 280/342/5 281/343/5
f 280/342/5 279/341/5 282/344/5
f 281/343/5 280/342/5 282/344/5
f 283/345/5 284/346/5 285/347/5
f 285/347/5 284/346/5 286/348/5
f 284/349/5 287/350/5 288/351/5
f 286/348/5 284/346/5 288/352/5
f 287/353/5 289/354/5 290/355/5
f 288/351/5 287/350/5 290/356/5
f 285/357/5 286/358/5 291/359/5
f 286/360/5 288/361/5 292/362/5
f 291/359/5 286/358/5 292/363/5
f 285/357/5 291/359/5 293/364/5
f 291/365/5 292/362/5 294/366/5
f 293/364/5 291/359/5 294/367/5
f 292/362/5 288/361/5 295/368/5
f 294/366/5 292/362/5 295/368/5
f 290/355/5 289/354/5 296/369/5
f 293/370/5 294/366/5 297/371/5
f 295/368/5 296/369/5 297/371/5
f 296/369/5 289/354/5 297/371/5
f 294/366/5 295/368/5 297/371/5
f 297/371/5 289/354/5 298/372/5
f 293/370/5 297/371/5 299/373/5
f 299/373/5 297/371/5 300/374/5
f 293/370/5 299/373/5 301/375/5
f 301/375/5 299/373/5 302/376/5
f 303/377/5 304/378/5 305/379/5
f 305/379/5 304/378/5 306/380/5
f 305/381/5 306/382/5 307/383/5
f 307/383/5 306/382/5 308/384/5
f 308/384/5 306/382/5 309/385/5
f 309/385/5 306/382/5 310/386/5
f 310/386/5 306/382/5 311/387/5
f 311/387/5 306/382/5 312/388/5
f 313/389/5 314/390/5 315/391/5
f 315/391/5 314/390/5 316/392/5
f 317/393/5 318/394/5 319/395/5
f 319/395/5 318/394/5 320/396/5
f 321/397/5 322/398/5 323/399/5
f 323/399/5 322/398/5 324/400/5
f 325/401/5 326/402/5 327/403/5
f 327/403/5 326/402/5 328/404/5
f 329/405/5 330/406/5 331/407/5
f 331/407/5 330/406/5 332/408/5
f 328/404/5 331/407/5 333/409/5
f 333/409/5 331/407/5 334/410/5
f 335/411/5 336/412/5 337/413/5
f 337/413/5 336/412/5 338/414/5
f 339/415/6 340/416/6 341/417/6
f 342/418/6 341/419/6 343/420/6
f 344/421/6 345/422/6 339/415/6
f 344/423/6 341/419/6 342/418/6
f 344/421/6 339/415/6 341/417/6
f 346/424/6 345/422/6 344/421/6
f 347/425/6 348/426/6 349/427/6
f 350/428/6 348/426/6 347/425/6
f 351/429/6 349/430/6 352/431/6
f 353/432/6 347/425/6 349/427/6
f 353/433/6 349/430/6 351/429/6
f 354/434/6 347/425/6 353/432/6
f 355/435/6 356/436/6 357/437/6
f 358/438/6 359/439/6 356/440/6
f 358/441/6 356/436/6 355/435/6
f 360/442/6 361/443/6 359/444/6
f 360/445/6 359/439/6 358/438/6
f 362/446/6 361/443/6 360/442/6
f 363/447/6 364/448/6 365/449/6
f 366/450/6 364/448/6 363/447/6
f 367/451/6 358/438/6 355/452/6
f 367/451/6 360/445/6 358/438/6
f 367/451/6 362/453/6 360/445/6
f 368/454/6 362/453/6 367/451/6
f 369/455/6 362/453/6 368/454/6
f 370/456/6 355/435/6 371/457/6
f 370/458/6 367/451/6 355/452/6
f 372/459/6 368/460/6 367/461/6
f 372/462/6 367/451/6 370/458/6
f 373/463/6 372/464/6 370/456/6
f 373/465/6 368/460/6 372/459/6
f 374/466/6 369/467/6 368/468/6
f 374/469/6 368/460/6 373/465/6
f 375/470/6 362/453/6 369/455/6
f 375/471/6 369/467/6 374/466/6
f 376/472/6 377/473/6 362/446/6
f 378/474/6 379/475/6 380/476/6
f 381/477/6 382/478/6 379/479/6
f 381/480/6 379/475/6 378/474/6
f 383/481/6 382/478/6 381/477/6
f 384/482/6 374/483/6 373/484/6
f 384/485/6 373/463/6 370/456/6
f 384/482/6 375/470/6 374/483/6
f 385/486/6 375/470/6 384/482/6
f 386/487/6 362/453/6 375/470/6
f 386/487/6 375/470/6 385/486/6
f 387/488/6 370/456/6 371/457/6
f 387/488/6 384/485/6 370/456/6
f 388/489/6 385/490/6 384/491/6
f 388/492/6 384/485/6 387/488/6
f 389/493/6 388/494/6 387/495/6
f 389/496/6 385/490/6 388/489/6
f 390/497/6 386/498/6 385/499/6
f 390/500/6 385/490/6 389/496/6
f 391/501/6 362/453/6 386/487/6
f 391/502/6 386/498/6 390/497/6
f 392/503/6 387/488/6 371/457/6
f 393/504/6 390/505/6 389/493/6
f 393/506/6 387/488/6 392/503/6
f 393/504/6 389/493/6 387/495/6
f 393/504/6 391/501/6 390/505/6
f 394/507/6 391/501/6 393/504/6
f 395/508/6 362/453/6 391/501/6
f 395/508/6 391/501/6 394/507/6
f 396/509/6 376/472/6 362/446/6
f 396/510/6 362/453/6 395/508/6
f 396/509/6 397/511/6 376/472/6
f 398/512/6 394/513/6 393/506/6
f 399/514/6 395/508/6 394/507/6
f 399/515/6 394/513/6 398/512/6
f 400/516/6 396/509/6 395/517/6
f 400/518/6 395/508/6 399/514/6
f 401/519/6 397/511/6 396/509/6
f 401/519/6 396/509/6 400/516/6
f 402/520/6 403/521/6 404/522/6
f 405/523/6 403/521/6 402/520/6
f 406/524/6 407/525/6 408/526/6
f 409/527/6 407/525/6 406/524/6
f 410/528/6 411/529/6 412/530/6
f 413/531/6 410/528/6 414/532/6
f 413/531/6 411/529/6 410/528/6
f 415/533/6 411/529/6 413/531/6
f 416/534/6 417/535/6 418/536/6
f 419/537/6 414/538/6 417/539/6
f 419/540/6 417/535/6 416/534/6
f 420/541/6 414/538/6 419/537/6
f 421/542/6 413/531/6 414/532/6
f 421/543/6 414/538/6 420/541/6
f 422/544/6 415/545/6 413/546/6
f 423/547/6 415/545/6 422/544/6
f 424/548/6 425/549/6 426/550/6
f 427/551/6 425/549/6 424/548/6
f 428/552/6 416/534/6 418/536/6
f 429/553/6 419/554/6 416/555/6
f 429/556/6 416/534/6 428/552/6
f 430/557/6 429/553/6 428/558/6
f 431/559/6 419/554/6 429/553/6
f 431/559/6 429/553/6 430/557/6
f 432/560/6 413/531/6 421/542/6
f 433/561/6 422/544/6 413/546/6
f 434/562/6 413/531/6 432/560/6
f 434/563/6 435/564/6 433/561/6
f 434/563/6 433/561/6 413/546/6
f 436/565/6 435/564/6 434/563/6
f 437/566/6 431/567/6 430/568/6
f 438/569/6 432/570/6 439/571/6
f 438/572/6 431/567/6 437/566/6
f 438/569/6 439/571/6 431/573/6
f 440/574/6 436/575/6 434/562/6
f 440/576/6 432/570/6 438/569/6
f 440/574/6 434/562/6 432/560/6
f 441/577/6 436/575/6 440/574/6
f 442/578/6 436/575/6 441/577/6
f 443/579/6 436/575/6 442/578/6
f 444/580/6 445/581/6 446/582/6
f 447/583/6 444/580/6 448/584/6
f 449/585/6 445/581/6 444/580/6
f 449/585/6 444/580/6 447/583/6
f 450/586/6 451/587/6 452/588/6
f 453/589/6 451/587/6 450/586/6
f 454/590/6 453/591/6 450/592/6
f 455/593/6 453/591/6 454/590/6
f 456/594/6 457/595/6 458/596/6
f 459/597/6 457/595/6 456/594/6
f 460/598/6 455/599/6 454/600/6
f 461/601/6 455/599/6 460/598/6
f 462/602/6 463/603/6 464/604/6
f 465/605/6 466/606/6 463/607/6
f 465/608/6 463/603/6 462/602/6
f 467/609/6 468/610/6 466/611/6
f 467/612/6 466/606/6 465/605/6
f 469/613/6 468/610/6 467/609/6
f 470/614/6 471/615/6 472/616/6
f 473/617/6 471/615/6 470/614/6
f 474/618/6 461/619/6 460/620/6
f 475/621/6 461/619/6 474/618/6
f 476/622/6 475/623/6 474/624/6
f 477/625/6 475/623/6 476/622/6
f 478/626/6 479/627/6 480/628/6
f 481/629/6 479/627/6 478/626/6
f 482/630/6 483/631/6 484/632/6
f 485/633/6 483/631/6 482/630/6
f 486/634/6 485/635/6 482/636/6
f 487/637/6 485/635/6 486/634/6
f 488/638/6 487/639/6 486/640/6
f 489/641/6 487/639/6 488/638/6
f 490/642/6 491/643/6 492/644/6
f 493/645/6 494/646/6 491/647/6
f 493/648/6 491/643/6 490/642/6
f 495/649/6 496/650/6 494/651/6
f 495/652/6 494/646/6 493/645/6
f 497/653/6 496/650/6 495/649/6
f 498/654/6 489/655/6 488/656/6
f 499/657/6 489/655/6 498/654/6
f 500/658/6 501/659/6 502/660/6
f 503/661/6 501/659/6 500/658/6
f 504/662/6 499/663/6 498/664/6
f 505/665/6 499/663/6 504/662/6
f 506/666/6 507/667/6 508/668/6
f 509/669/6 507/667/6 506/666/6
f 510/670/6 507/667/6 509/669/6
f 511/671/6 507/667/6 510/670/6
f 512/672/6 513/673/6 514/674/6
f 515/675/6 513/673/6 512/672/6
f 516/676/6 512/672/6 514/674/6
f 517/677/6 512/672/6 516/676/6
f 518/678/6 519/679/6 515/675/6
f 520/680/6 519/679/6 518/678/6
f 521/681/6 518/678/6 522/682/6
f 523/683/6 518/678/6 521/681/6
f 524/684/6 521/681/6 522/682/6
f 525/685/6 521/681/6 524/684/6
f 526/686/6 527/687/6 528/688/6
f 529/689/6 527/687/6 526/686/6
f 530/690/6 531/691/6 532/692/6
f 533/693/6 531/691/6 530/690/6
f 534/694/6 535/695/6 536/696/6
f 537/697/6 534/694/6 536/696/6
f 537/697/6 538/698/6 534/694/6
f 539/699/6 538/698/6 537/697/6
f 540/700/6 541/701/6 542/702/6
f 543/703/6 544/704/6 539/699/6
f 545/705/6 544/704/6 543/703/6
f 546/706/6 540/700/6 542/702/6
f 546/706/6 543/703/6 540/700/6
f 547/707/6 543/703/6 546/706/6
f 548/708/6 549/709/6 550/710/6
f 551/711/6 549/709/6 548/708/6
f 552/712/6 553/713/6 554/714/6
f 555/715/6 553/713/6 552/712/6
f 556/716/7 557/717/7 558/718/7
f 558/718/7 557/717/7 559/719/7
f 560/720/7 561/721/7 562/722/7
f 562/722/7 561/721/7 563/723/7
f 564/724/7 565/725/7 566/726/7
f 566/726/7 565/725/7 567/727/7
f 568/728/7 569/729/7 570/730/7
f 570/730/7 569/729/7 571/731/7
f 572/732/7 573/733/7 574/734/7
f 574/734/7 573/733/7 575/735/7
f 576/736/7 577/737/7 578/738/7
f 578/738/7 577/737/7 579/739/7
f 580/740/7 581/741/7 582/742/7
f 582/742/7 581/741/7 583/743/7
f 584/744/7 585/745/7 586/746/7
f 586/746/7 585/745/7 587/747/7
f 584/744/7 586/746/7 588/748/7
f 588/748/7 586/746/7 589/749/7
f 587/747/7 590/750/7 591/751/7
f 591/751/7 590/750/7 592/752/7
f 593/753/7 591/751/7 594/754/7
f 594/754/7 591/751/7 595/755/7
f 593/753/7 594/754/7 596/756/7
f 596/756/7 594/754/7 597/757/7
f 598/758/7 599/759/7 600/760/7
f 600/760/7 599/759/7 601/761/7
f 602/762/7 603/763/7 604/764/7
f 604/764/7 603/763/7 605/765/7
f 606/766/7 607/767/7 608/768/7
f 608/768/7 607/767/7 609/769/7
f 610/770/7 611/771/7 612/772/7
f 612/772/7 611/771/7 613/773/7
f 614/774/7 615/775/7 616/776/7
f 616/776/7 615/775/7 617/777/7
f 618/778/7 619/779/7 620/780/7
f 618/778/7 620/780/7 621/781/7
f 620/780/7 622/782/7 621/781/7
f 621/781/7 622/782/7 623/783/7
f 624/784/7 625/785/7 626/786/7
f 623/783/7 627/787/7 628/788/7
f 628/788/7 627/787/7 629/789/7
f 624/784/7 626/786/7 630/790/7
f 626/786/7 628/788/7 630/790/7
f 630/790/7 628/788/7 631/791/7
f 632/792/7 633/793/7 634/794/7
f 634/794/7 633/793/7 635/795/7
f 636/796/7 637/797/7 638/798/7
f 638/798/7 637/797/7 639/799/7
f 640/800/7 641/801/7 642/802/7
f 642/802/7 641/801/7 643/803/7
f 644/804/7 645/805/7 646/806/7
f 645/807/7 647/808/7 648/809/7
f 646/806/7 645/805/7 648/810/7
f 647/811/7 649/812/7 650/813/7
f 648/809/7 647/808/7 650/814/7
f 650/813/7 649/812/7 651/815/7
f 639/816/7 652/817/7 653/818/7
f 653/818/7 652/817/7 654/819/7
f 655/820/7 656/821/7 657/822/7
f 656/823/7 658/824/7 659/825/7
f 657/822/7 656/821/7 659/826/7
f 659/825/7 658/824/7 660/827/7
f 653/828/7 654/829/7 661/830/7
f 661/830/7 654/829/7 662/831/7
f 663/832/7 664/833/7 665/834/7
f 664/835/7 666/836/7 667/837/7
f 665/834/7 664/833/7 667/838/7
f 666/839/7 668/840/7 669/841/7
f 667/837/7 666/836/7 669/842/7
f 669/841/7 668/840/7 670/843/7
f 661/844/7 662/845/7 671/846/7
f 671/846/7 662/845/7 672/847/7
f 673/848/7 642/802/7 674/849/7
f 643/803/7 675/850/7 674/849/7
f 642/802/7 643/803/7 674/849/7
f 674/849/7 675/850/7 676/851/7
f 676/851/7 675/850/7 677/852/7
f 677/852/7 675/850/7 678/853/7
f 679/854/7 671/855/7 680/856/7
f 680/856/7 671/855/7 681/857/7
f 676/851/7 677/852/7 682/858/7
f 682/858/7 677/852/7 683/859/7
f 684/860/7 685/861/7 686/862/7
f 685/863/7 687/864/7 688/865/7
f 686/862/7 685/861/7 688/866/7
f 688/865/7 687/864/7 689/867/7
f 690/868/7 691/869/7 692/870/7
f 692/870/7 691/869/7 693/871/7
f 694/872/7 695/873/7 696/874/7
f 696/874/7 695/873/7 697/875/7
f 698/876/7 696/874/7 697/875/7
f 697/875/7 695/873/7 699/877/7
f 700/878/7 701/879/7 702/880/7
f 701/881/7 698/882/7 703/883/7
f 702/880/7 701/879/7 703/884/7
f 702/885/7 703/886/7 704/887/7
f 704/887/7 703/886/7 705/888/7
f 704/889/7 705/890/7 706/891/7
f 705/888/7 703/886/7 706/892/7
f 703/883/7 698/882/7 707/893/7
f 706/892/7 703/886/7 707/894/7
f 698/876/7 697/875/7 708/895/7
f 697/896/7 699/897/7 708/898/7
f 708/898/7 699/897/7 709/899/7
f 706/891/7 707/900/7 710/901/7
f 704/889/7 706/891/7 710/901/7
f 707/893/7 698/882/7 711/902/7
f 710/901/7 707/900/7 711/903/7
f 708/895/7 709/904/7 712/905/7
f 711/902/7 698/882/7 712/906/7
f 698/876/7 708/895/7 712/905/7
f 712/905/7 709/904/7 713/907/7
f 713/907/7 709/904/7 714/908/7
f 714/908/7 709/904/7 715/909/7
f 716/910/8 717/911/8 718/912/8
f 719/913/8 717/911/8 716/910/8
f 720/914/8 721/915/8 722/916/8
f 723/917/8 721/915/8 720/914/8
f 724/918/8 725/919/8 726/920/8
f 727/921/8 728/922/8 725/923/8
f 727/924/8 725/919/8 724/918/8
f 729/925/8 730/926/8 728/927/8
f 729/928/8 728/922/8 727/921/8
f 731/929/8 730/926/8 729/925/8
f 732/930/8 727/924/8 724/918/8
f 732/930/8 733/931/8 731/929/8
f 732/930/8 731/929/8 729/925/8
f 732/930/8 729/925/8 727/924/8
f 732/930/8 724/918/8 734/932/8
f 735/933/8 733/931/8 732/930/8
f 736/934/8 733/931/8 735/933/8
f 737/935/8 733/931/8 736/934/8
f 738/936/8 733/931/8 737/935/8
f 739/937/8 733/931/8 738/936/8
f 740/938/8 736/934/8 735/933/8
f 741/939/8 737/940/8 736/941/8
f 741/942/8 736/934/8 740/938/8
f 742/943/8 738/936/8 737/935/8
f 742/944/8 737/940/8 741/939/8
f 743/945/8 738/936/8 742/943/8
f 744/946/8 745/947/8 746/948/8
f 747/949/8 745/947/8 744/946/8
f 748/950/9 749/951/9 750/952/9
f 751/953/9 749/951/9 748/950/9
f 752/954/9 749/951/9 751/953/9
f 753/955/8 754/956/8 755/957/8
f 756/958/8 754/956/8 753/955/8
f 757/959/8 754/956/8 756/958/8
f 758/960/9 748/950/9 759/961/9
f 758/960/9 751/953/9 748/950/9
f 760/962/9 751/953/9 758/960/9
f 761/963/8 762/964/8 757/959/8
f 761/963/8 757/959/8 756/958/8
f 763/965/8 762/964/8 761/963/8
f 764/966/8 765/967/8 766/968/8
f 767/969/8 765/967/8 764/966/8
f 768/970/8 769/971/8 770/972/8
f 771/973/8 769/971/8 768/970/8
f 772/974/9 773/975/9 774/976/9
f 775/977/9 773/975/9 772/974/9
f 776/978/8 777/979/8 778/980/8
f 779/981/8 777/979/8 776/978/8
f 780/982/9 781/983/9 782/984/9
f 780/982/9 783/985/9 781/983/9
f 784/986/9 783/985/9 780/982/9
f 785/987/9 783/985/9 784/986/9
f 786/988/8 787/989/8 788/990/8
f 786/988/8 788/990/8 789/991/8
f 790/992/8 787/989/8 786/988/8
f 791/993/8 787/989/8 790/992/8
f 792/994/9 784/986/9 780/982/9
f 792/994/9 780/982/9 793/995/9
f 794/996/9 784/986/9 792/994/9
f 795/997/8 796/998/8 791/993/8
f 795/997/8 791/993/8 790/992/8
f 797/999/8 796/998/8 795/997/8
f 798/1000/8 799/1001/8 800/1002/8
f 801/1003/8 799/1001/8 798/1000/8
f 802/1004/8 803/1005/8 804/1006/8
f 805/1007/8 803/1005/8 802/1004/8
f 806/1008/8 807/1009/8 808/1010/8
f 809/1011/8 810/1012/8 811/1013/8
f 812/1014/8 806/1008/8 813/1015/8
f 814/1016/8 807/1009/8 806/1008/8
f 814/1016/8 806/1008/8 812/1014/8
f 815/1017/8 816/1018/8 809/1011/8
f 815/1017/8 809/1011/8 811/1013/8
f 817/1019/8 816/1018/8 815/1017/8
f 818/1020/8 807/1009/8 814/1016/8
f 819/1021/8 807/1009/8 818/1020/8
f 820/1022/8 815/1017/8 811/1013/8
f 821/1023/8 815/1017/8 820/1022/8
f 822/1024/8 823/1025/8 824/1026/8
f 825/1027/8 823/1025/8 822/1024/8
f 826/1028/8 822/1024/8 824/1026/8
f 827/1029/8 825/1030/8 822/1031/8
f 827/1032/8 822/1024/8 826/1028/8
f 828/1033/8 823/1025/8 825/1027/8
f 828/1034/8 825/1030/8 827/1029/8
f 829/1035/8 823/1025/8 828/1033/8
f 830/1036/8 827/1029/8 826/1037/8
f 830/1036/8 828/1034/8 827/1029/8
f 830/1036/8 829/1038/8 828/1034/8
f 831/1039/8 829/1038/8 830/1036/8
f 832/1040/8 831/1041/8 830/1042/8
f 833/1043/8 831/1041/8 832/1040/8
f 834/1044/8 835/1045/8 836/1046/8
f 837/1047/8 835/1045/8 834/1044/8
f 838/1048/8 839/1049/8 840/1050/8
f 841/1051/8 839/1049/8 838/1048/8
f 842/1052/8 837/1053/8 834/1054/8
f 843/1055/8 837/1053/8 842/1052/8
f 844/1056/8 841/1057/8 838/1058/8
f 845/1059/8 841/1057/8 844/1056/8
f 846/1060/8 843/1061/8 842/1062/8
f 847/1063/8 845/1064/8 844/1065/8
f 848/1066/8 846/1060/8 842/1062/8
f 849/1067/8 846/1060/8 848/1066/8
f 850/1068/8 845/1064/8 847/1063/8
f 851/1069/8 845/1064/8 850/1068/8
f 852/1070/8 853/1071/8 854/1072/8
f 855/1073/8 853/1071/8 852/1070/8
f 856/1074/8 857/1075/8 858/1076/8
f 859/1077/8 857/1075/8 856/1074/8
f 860/1078/10 861/1079/10 862/1080/10
f 862/1080/10 861/1079/10 863/1081/10
f 864/1082/10 865/1083/10 866/1084/10
f 866/1084/10 865/1083/10 867/1085/10
f 868/1086/10 869/1087/10 870/1088/10
f 871/1089/10 872/1090/10 873/1091/10
f 874/1092/10 870/1088/10 875/1093/10
f 875/1093/10 870/1088/10 876/1094/10
f 876/1094/10 870/1088/10 877/1095/10
f 870/1088/10 869/1087/10 878/1096/10
f 877/1095/10 870/1088/10 878/1096/10
f 878/1096/10 869/1087/10 879/1097/10
f 879/1097/10 869/1087/10 880/1098/10
f 873/1091/10 881/1099/10 882/1100/10
f 871/1089/10 873/1091/10 882/1100/10
f 882/1100/10 881/1099/10 883/1101/10
f 883/1101/10 881/1099/10 884/1102/10
f 884/1102/10 881/1099/10 885/1103/10
f 885/1103/10 881/1099/10 886/1104/10
f 886/1104/10 881/1099/10 887/1105/10
f 888/1106/10 889/1107/10 890/1108/10
f 889/1109/10 891/1110/10 890/1111/10
f 891/1112/10 892/1113/10 893/1114/10
f 890/1111/10 891/1110/10 893/1115/10
f 892/1116/10 894/1117/10 895/1118/10
f 893/1114/10 892/1113/10 895/1119/10
f 894/1120/10 896/1121/10 897/1122/10
f 895/1118/10 894/1117/10 897/1123/10
f 898/1124/10 899/1125/10 900/1126/10
f 899/1127/10 901/1128/10 900/1129/10
f 901/1130/10 902/1131/10 903/1132/10
f 900/1129/10 901/1128/10 903/1133/10
f 902/1134/10 904/1135/10 905/1136/10
f 903/1132/10 902/1131/10 905/1137/10
f 904/1138/10 906/1139/10 907/1140/10
f 905/1136/10 904/1135/10 907/1141/10
f 888/1106/10 890/1108/10 908/1142/10
f 890/1143/10 893/1144/10 908/1145/10
f 893/1144/10 895/1146/10 908/1145/10
f 895/1146/10 897/1147/10 908/1145/10
f 897/1122/10 896/1121/10 909/1148/10
f 908/1145/10 897/1147/10 909/1149/10
f 903/1150/10 905/1151/10 910/1152/10
f 900/1153/10 903/1150/10 910/1152/10
f 905/1151/10 907/1154/10 910/1152/10
f 898/1124/10 900/1126/10 910/1155/10
f 907/1140/10 906/1139/10 911/1156/10
f 910/1152/10 907/1154/10 911/1157/10
f 908/1142/10 909/1148/10 912/1158/10
f 888/1106/10 908/1142/10 912/1158/10
f 909/1148/10 896/1121/10 913/1159/10
f 912/1158/10 909/1148/10 913/1159/10
f 898/1124/10 910/1155/10 914/1160/10
f 910/1155/10 911/1156/10 914/1160/10
f 911/1156/10 906/1139/10 915/1161/10
f 914/1160/10 911/1156/10 915/1161/10
f 916/1162/10 917/1163/10 918/1164/10
f 918/1164/10 917/1163/10 919/1165/10
f 920/1166/11 921/1167/11 922/1168/11
f 922/1168/11 921/1167/11 923/1169/11
f 924/1170/10 925/1171/10 926/1172/10
f 926/1172/10 925/1171/10 927/1173/10
f 928/1174/11 929/1175/11 930/1176/11
f 930/1176/11 929/1175/11 931/1177/11
f 932/1178/10 933/1179/10 934/1180/10
f 934/1180/10 933/1179/10 935/1181/10
f 936/1182/11 930/1176/11 937/1183/11
f 937/1183/11 930/1176/11 938/1184/11
f 931/1177/11 939/1185/11 940/1186/11
f 940/1186/11 939/1185/11 941/1187/11
f 942/1188/10 934/1180/10 943/1189/10
f 943/1189/10 934/1180/10 944/1190/10
f 935/1181/10 945/1191/10 946/1192/10
f 946/1192/10 945/1191/10 947/1193/10
f 938/1184/11 940/1186/11 948/1194/11
f 948/1194/11 940/1186/11 949/1195/11
f 944/1190/10 946/1192/10 950/1196/10
f 950/1196/10 946/1192/10 951/1197/10
f 952/1198/11 953/1199/11 954/1200/11
f 954/1200/11 953/1199/11 955/1201/11
f 956/1202/10 957/1203/10 958/1204/10
f 958/1204/10 957/1203/10 959/1205/10
f 960/1206/10 961/1207/10 962/1208/10
f 962/1208/10 961/1207/10 963/1209/10
f 964/1210/10 965/1211/10 966/1212/10
f 966/1212/10 965/1211/10 967/1213/10
f 968/1214/10 969/1215/10 970/1216/10
f 970/1216/10 969/1215/10 971/1217/10
f 972/1218/10 973/1219/10 974/1220/10
f 974/1220/10 973/1219/10 975/1221/10
f 976/1222/10 977/1223/10 978/1224/10
f 978/1224/10 977/1223/10 979/1225/10
f 975/1226/10 980/1227/10 981/1228/10
f 980/1229/10 982/1230/10 983/1231/10
f 981/1228/10 980/1227/10 983/1232/10
f 982/1233/10 978/1234/10 984/1235/10
f 983/1231/10 982/1230/10 984/1236/10
f 984/1235/10 978/1234/10 985/1237/10
f 986/1238/10 987/1239/10 988/1240/10
f 987/1241/10 989/1242/10 988/1243/10
f 988/1243/10 989/1242/10 990/1244/10
f 991/1245/10 992/1246/10 993/1247/10
f 992/1248/10 994/1249/10 995/1250/10
f 993/1247/10 992/1246/10 995/1251/10
f 990/1252/10 993/1253/10 996/1254/10
f 988/1255/10 990/1252/10 996/1254/10
f 993/1253/10 995/1256/10 996/1254/10
f 986/1238/10 988/1240/10 996/1257/10
f 995/1250/10 994/1249/10 997/1258/10
f 996/1254/10 995/1256/10 997/1259/10
f 986/1238/10 996/1257/10 998/1260/10
f 996/1261/10 997/1262/10 999/1263/10
f 998/1260/10 996/1257/10 999/1264/10
f 997/1258/10 994/1249/10 1000/1265/10
f 999/1263/10 997/1262/10 1000/1266/10
f 1000/1265/10 994/1249/10 1001/1267/10
f 1002/1268/10 1003/1269/10 1004/1270/10
f 1004/1270/10 1003/1269/10 1005/1271/10
f 1006/1272/10 1007/1273/10 1008/1274/10
f 1008/1274/10 1007/1273/10 1009/1275/10
f 1010/1276/10 1011/1277/10 1012/1278/10
f 1012/1278/10 1011/1277/10 1013/1279/10
f 1014/1280/10 1015/1281/10 1016/1282/10
f 1016/1282/10 1015/1281/10 1017/1283/10
f 1018/1284/10 1019/1285/10 1020/1286/10
f 1020/1286/10 1019/1285/10 1021/1287/10
f 1022/1288/10 1023/1289/10 1024/1290/10
f 1024/1290/10 1023/1289/10 1025/1291/10
f 1025/1291/10 1023/1289/10 1026/1292/10
f 1027/1293/10 1024/1290/10 1028/1294/10
f 1024/1290/10 1025/1291/10 1028/1294/10
f 1028/1294/10 1025/1291/10 1029/1295/10
f 1027/1293/10 1028/1294/10 1030/1296/10
f 1031/1297/10 1032/1298/10 1033/1299/10
f 1030/1296/10 1034/1300/10 1035/1301/10
f 1027/1293/10 1030/1296/10 1035/1301/10
f 1035/1301/10 1034/1300/10 1036/1302/10
f 1036/1302/10 1034/1300/10 1037/1303/10
f 1038/1304/10 1033/1299/10 1039/1305/10
f 1033/1299/10 1032/1298/10 1040/1306/10
f 1039/1305/10 1033/1299/10 1040/1306/10
f 1040/1306/10 1032/1298/10 1041/1307/10
f 1036/1302/10 1037/1303/10 1042/1308/10
f 1037/1303/10 1039/1305/10 1042/1308/10
f 1039/1305/10 1040/1306/10 1042/1308/10
f 1042/1308/10 1040/1306/10 1043/1309/10
f 1044/1310/10 1045/1311/10 1046/1312/10
f 1047/1313/10 1046/1312/10 1048/1314/10
f 1046/1312/10 1045/1311/10 1049/1315/10
f 1050/1316/10 1048/1314/10 1049/1315/10
f 1048/1314/10 1046/1312/10 1049/1315/10
f 1049/1315/10 1045/1311/10 1051/1317/10
f 1050/1316/10 1049/1315/10 1052/1318/10
f 1052/1318/10 1049/1315/10 1053/1319/10
f 1053/1319/10 1049/1315/10 1054/1320/10
f 1054/1320/10 1049/1315/10 1055/1321/10
f 1053/1319/10 1054/1320/10 1056/1322/10
f 1056/1322/10 1054/1320/10 1057/1323/10
