# Blender v2.93.0 OBJ File: ''
# www.blender.org
mtllib TVS_VoxelFarm_Soil.mtl
o VS_Farm_Soil
v -0.550000 -0.000000 0.550000
v -0.550000 -0.100000 -0.550000
v -0.550000 -0.100000 0.550000
v -0.550000 0.000000 -0.550000
v -0.450000 0.100000 0.450000
v -0.450000 0.000000 -0.450000
v -0.450000 -0.000000 0.450000
v -0.450000 0.100000 -0.450000
v 0.450000 -0.000000 0.450000
v 0.450000 0.000000 -0.450000
v 0.450000 0.100000 0.450000
v 0.450000 0.100000 -0.450000
v 0.550000 -0.100000 0.550000
v 0.550000 -0.100000 -0.550000
v 0.550000 -0.000000 0.550000
v 0.550000 0.000000 -0.550000
v 0.550000 -0.100000 0.550000
v -0.550000 -0.000000 0.550000
v -0.550000 -0.100000 0.550000
v 0.550000 -0.000000 0.550000
v 0.450000 -0.000000 0.450000
v -0.450000 0.100000 0.450000
v -0.450000 -0.000000 0.450000
v 0.450000 0.100000 0.450000
v -0.450000 0.000000 -0.450000
v -0.450000 0.100000 -0.450000
v 0.450000 0.000000 -0.450000
v 0.450000 0.100000 -0.450000
v -0.550000 -0.100000 -0.550000
v -0.550000 0.000000 -0.550000
v 0.550000 -0.100000 -0.550000
v 0.550000 0.000000 -0.550000
v -0.350000 -0.100000 0.350000
v 0.550000 -0.100000 0.550000
v -0.550000 -0.100000 0.550000
v -0.250000 -0.100000 0.350000
v -0.150000 -0.100000 0.350000
v -0.050000 -0.100000 0.350000
v 0.050000 -0.100000 0.350000
v 0.150000 -0.100000 0.350000
v 0.250000 -0.100000 0.350000
v 0.350000 -0.100000 0.350000
v -0.350000 -0.100000 -0.350000
v -0.250000 -0.100000 -0.350000
v -0.150000 -0.100000 -0.350000
v -0.050000 -0.100000 -0.350000
v 0.050000 -0.100000 -0.350000
v 0.150000 -0.100000 -0.350000
v 0.250000 -0.100000 -0.350000
v 0.350000 -0.100000 -0.350000
v -0.550000 -0.100000 -0.550000
v 0.550000 -0.100000 -0.550000
v -0.550000 -0.000000 0.550000
v 0.550000 -0.000000 0.550000
v -0.450000 -0.000000 0.450000
v 0.450000 -0.000000 0.450000
v -0.450000 0.000000 -0.450000
v 0.450000 0.000000 -0.450000
v -0.550000 0.000000 -0.550000
v 0.550000 0.000000 -0.550000
v -0.450000 0.100000 0.450000
v 0.450000 0.100000 0.450000
v -0.350000 0.100000 0.350000
v -0.250000 0.100000 0.350000
v -0.150000 0.100000 0.350000
v -0.050000 0.100000 0.350000
v 0.050000 0.100000 0.350000
v 0.150000 0.100000 0.350000
v 0.250000 0.100000 0.350000
v 0.350000 0.100000 0.350000
v -0.350000 0.100000 -0.350000
v -0.250000 0.100000 -0.350000
v -0.150000 0.100000 -0.350000
v -0.050000 0.100000 -0.350000
v 0.050000 0.100000 -0.350000
v 0.150000 0.100000 -0.350000
v 0.250000 0.100000 -0.350000
v 0.350000 0.100000 -0.350000
v -0.450000 0.100000 -0.450000
v 0.450000 0.100000 -0.450000
vt 0.025391 0.500000
vt 0.025391 0.500000
vt 0.025391 0.500000
vt 0.025391 0.500000
vt 0.025391 0.500000
vt 0.025391 0.500000
vt 0.025391 0.500000
vt 0.025391 0.500000
vt 0.025391 0.500000
vt 0.025391 0.500000
vt 0.025391 0.500000
vt 0.025391 0.500000
vt 0.025391 0.500000
vt 0.025391 0.500000
vt 0.025391 0.500000
vt 0.025391 0.500000
vt 0.025391 0.500000
vt 0.025391 0.500000
vt 0.025391 0.500000
vt 0.025391 0.500000
vt 0.025391 0.500000
vt 0.025391 0.500000
vt 0.025391 0.500000
vt 0.025391 0.500000
vt 0.025391 0.500000
vt 0.025391 0.500000
vt 0.025391 0.500000
vt 0.025391 0.500000
vt 0.025391 0.500000
vt 0.025391 0.500000
vt 0.025391 0.500000
vt 0.025391 0.500000
vt 0.025391 0.500000
vt 0.025391 0.500000
vt 0.025391 0.500000
vt 0.025391 0.500000
vt 0.025391 0.500000
vt 0.025391 0.500000
vt 0.025391 0.500000
vt 0.025391 0.500000
vt 0.025391 0.500000
vt 0.025391 0.500000
vt 0.025391 0.500000
vt 0.001953 0.500000
vt 0.001953 0.500000
vt 0.001953 0.500000
vt 0.025391 0.500000
vt 0.001953 0.500000
vt 0.001953 0.500000
vt 0.001953 0.500000
vt 0.001953 0.500000
vt 0.025391 0.500000
vt 0.025391 0.500000
vt 0.001953 0.500000
vt 0.001953 0.500000
vt 0.001953 0.500000
vt 0.001953 0.500000
vt 0.025391 0.500000
vt 0.025391 0.500000
vt 0.001953 0.500000
vt 0.001953 0.500000
vt 0.001953 0.500000
vt 0.001953 0.500000
vt 0.025391 0.500000
vt 0.025391 0.500000
vt 0.001953 0.500000
vt 0.025391 0.500000
vt 0.025391 0.500000
vt 0.025391 0.500000
vt 0.025391 0.500000
vt 0.025391 0.500000
vt 0.025391 0.500000
vt 0.025391 0.500000
vt 0.025391 0.500000
vt 0.025391 0.500000
vt 0.025391 0.500000
vt 0.025391 0.500000
vt 0.025391 0.500000
vt 0.025391 0.500000
vt 0.025391 0.500000
vt 0.025391 0.500000
vt 0.025391 0.500000
vt 0.025391 0.500000
vt 0.025391 0.500000
vt 0.025391 0.500000
vt 0.025391 0.500000
vt 0.025391 0.500000
vt 0.001953 0.500000
vt 0.001953 0.500000
vt 0.001953 0.500000
vt 0.025391 0.500000
vt 0.001953 0.500000
vt 0.001953 0.500000
vt 0.001953 0.500000
vt 0.001953 0.500000
vt 0.025391 0.500000
vt 0.025391 0.500000
vt 0.001953 0.500000
vt 0.001953 0.500000
vt 0.001953 0.500000
vt 0.001953 0.500000
vt 0.025391 0.500000
vt 0.025391 0.500000
vt 0.001953 0.500000
vt 0.001953 0.500000
vt 0.001953 0.500000
vt 0.001953 0.500000
vt 0.025391 0.500000
vt 0.025391 0.500000
vt 0.001953 0.500000
vt 0.025391 0.500000
vt 0.025391 0.500000
vn -1.0000 0.0000 0.0000
vn 1.0000 -0.0000 0.0000
vn 0.0000 0.0000 1.0000
vn 0.0000 0.0000 -1.0000
vn -0.0000 -1.0000 -0.0000
vn -0.0000 1.0000 0.0000
usemtl palette.072
s 1
f 1/1/1 2/2/1 3/3/1
f 4/4/1 2/2/1 1/1/1
f 5/5/1 6/6/1 7/7/1
f 8/8/1 6/6/1 5/5/1
f 9/9/2 10/10/2 11/11/2
f 11/11/2 10/10/2 12/12/2
f 13/13/2 14/14/2 15/15/2
f 15/15/2 14/14/2 16/16/2
f 17/17/3 18/18/3 19/19/3
f 20/20/3 18/18/3 17/17/3
f 21/21/3 22/22/3 23/23/3
f 24/24/3 22/22/3 21/21/3
f 25/25/4 26/26/4 27/27/4
f 27/27/4 26/26/4 28/28/4
f 29/29/4 30/30/4 31/31/4
f 31/31/4 30/30/4 32/32/4
f 33/33/5 34/34/5 35/35/5
f 36/36/5 34/34/5 33/33/5
f 37/37/5 34/34/5 36/36/5
f 38/38/5 34/34/5 37/37/5
f 39/39/5 34/34/5 38/38/5
f 40/40/5 34/34/5 39/39/5
f 41/41/5 34/34/5 40/40/5
f 42/42/5 34/34/5 41/41/5
f 43/43/5 33/33/5 35/35/5
f 43/44/5 36/45/5 33/46/5
f 44/47/5 37/37/5 36/36/5
f 44/48/5 36/45/5 43/44/5
f 45/49/5 38/50/5 37/51/5
f 45/52/5 37/37/5 44/47/5
f 46/53/5 39/39/5 38/38/5
f 46/54/5 38/50/5 45/49/5
f 47/55/5 40/56/5 39/57/5
f 47/58/5 39/39/5 46/53/5
f 48/59/5 41/41/5 40/40/5
f 48/60/5 40/56/5 47/55/5
f 49/61/5 42/62/5 41/63/5
f 49/64/5 41/41/5 48/59/5
f 50/65/5 34/34/5 42/42/5
f 50/66/5 42/62/5 49/61/5
f 51/67/5 49/64/5 48/59/5
f 51/67/5 48/59/5 47/58/5
f 51/67/5 50/65/5 49/64/5
f 51/67/5 47/58/5 46/53/5
f 51/67/5 46/53/5 45/52/5
f 51/67/5 45/52/5 44/47/5
f 51/67/5 44/47/5 43/43/5
f 51/67/5 43/43/5 35/35/5
f 52/68/5 34/34/5 50/65/5
f 52/68/5 50/65/5 51/67/5
f 53/69/6 54/70/6 55/71/6
f 55/71/6 54/70/6 56/72/6
f 53/69/6 55/71/6 57/73/6
f 56/72/6 54/70/6 58/74/6
f 53/69/6 57/73/6 59/75/6
f 57/73/6 58/74/6 59/75/6
f 58/74/6 54/70/6 60/76/6
f 59/75/6 58/74/6 60/76/6
f 61/77/6 62/78/6 63/79/6
f 63/79/6 62/78/6 64/80/6
f 64/80/6 62/78/6 65/81/6
f 65/81/6 62/78/6 66/82/6
f 66/82/6 62/78/6 67/83/6
f 67/83/6 62/78/6 68/84/6
f 68/84/6 62/78/6 69/85/6
f 69/85/6 62/78/6 70/86/6
f 61/77/6 63/79/6 71/87/6
f 63/88/6 64/89/6 71/90/6
f 64/80/6 65/81/6 72/91/6
f 71/90/6 64/89/6 72/92/6
f 65/93/6 66/94/6 73/95/6
f 72/91/6 65/81/6 73/96/6
f 66/82/6 67/83/6 74/97/6
f 73/95/6 66/94/6 74/98/6
f 67/99/6 68/100/6 75/101/6
f 74/97/6 67/83/6 75/102/6
f 68/84/6 69/85/6 76/103/6
f 75/101/6 68/100/6 76/104/6
f 69/105/6 70/106/6 77/107/6
f 76/103/6 69/85/6 77/108/6
f 70/86/6 62/78/6 78/109/6
f 77/107/6 70/106/6 78/110/6
f 76/103/6 77/108/6 79/111/6
f 75/102/6 76/103/6 79/111/6
f 77/108/6 78/109/6 79/111/6
f 74/97/6 75/102/6 79/111/6
f 73/96/6 74/97/6 79/111/6
f 72/91/6 73/96/6 79/111/6
f 71/87/6 72/91/6 79/111/6
f 61/77/6 71/87/6 79/111/6
f 78/109/6 62/78/6 80/112/6
f 79/111/6 78/109/6 80/112/6
