# Blender v2.93.0 OBJ File: ''
# www.blender.org
mtllib TVS_VoxelFarm_Potato.mtl
o VS_Farm_Potato
v -0.300000 0.100000 -0.100000
v -0.300000 0.000000 -0.200000
v -0.300000 0.000000 -0.100000
v -0.300000 0.100000 -0.200000
v -0.300000 0.700000 -0.100000
v -0.300000 0.500000 -0.200000
v -0.300000 0.500000 -0.100000
v -0.300000 0.700000 -0.200000
v -0.200000 0.100000 0.000000
v -0.200000 0.000000 -0.100000
v -0.200000 0.000000 0.000000
v -0.200000 0.100000 -0.100000
v -0.200000 0.100000 -0.200000
v -0.200000 0.000000 -0.300000
v -0.200000 0.000000 -0.200000
v -0.200000 0.100000 -0.300000
v -0.200000 0.200000 -0.100000
v -0.200000 0.200000 -0.200000
v -0.200000 1.300000 0.200000
v -0.200000 1.200000 -0.100000
v -0.200000 1.200000 0.200000
v -0.200000 1.300000 -0.100000
v -0.200000 1.300000 -0.200000
v -0.200000 1.200000 -0.500000
v -0.200000 1.200000 -0.200000
v -0.200000 1.300000 -0.500000
v -0.100000 0.600000 -0.100000
v -0.100000 0.200000 -0.200000
v -0.100000 0.200000 -0.100000
v -0.100000 0.600000 -0.200000
v -0.100000 1.200000 -0.100000
v -0.100000 0.700000 -0.200000
v -0.100000 0.700000 -0.100000
v -0.100000 1.200000 -0.200000
v -0.100000 1.300000 0.300000
v -0.100000 1.200000 0.200000
v -0.100000 1.200000 0.300000
v -0.100000 1.300000 0.200000
v -0.100000 1.300000 -0.500000
v -0.100000 1.200000 -0.600000
v -0.100000 1.200000 -0.500000
v -0.100000 1.300000 -0.600000
v 0.100000 0.600000 -0.100000
v 0.100000 0.500000 -0.200000
v 0.100000 0.500000 -0.100000
v 0.100000 0.600000 -0.200000
v -0.200000 0.500000 -0.100000
v -0.200000 0.500000 -0.200000
v -0.200000 0.600000 -0.100000
v -0.200000 0.600000 -0.200000
v 0.000000 0.200000 -0.100000
v 0.000000 0.200000 -0.200000
v 0.000000 0.600000 -0.100000
v 0.000000 0.600000 -0.200000
v 0.000000 0.700000 -0.100000
v 0.000000 0.700000 -0.200000
v 0.000000 1.200000 -0.100000
v 0.000000 1.200000 -0.200000
v 0.000000 1.200000 0.300000
v 0.000000 1.200000 0.200000
v 0.000000 1.300000 0.300000
v 0.000000 1.300000 0.200000
v 0.000000 1.200000 -0.500000
v 0.000000 1.200000 -0.600000
v 0.000000 1.300000 -0.500000
v 0.000000 1.300000 -0.600000
v 0.100000 0.000000 0.000000
v 0.100000 0.000000 -0.100000
v 0.100000 0.100000 0.000000
v 0.100000 0.100000 -0.100000
v 0.100000 0.000000 -0.200000
v 0.100000 0.000000 -0.300000
v 0.100000 0.100000 -0.200000
v 0.100000 0.100000 -0.300000
v 0.100000 0.200000 -0.100000
v 0.100000 0.200000 -0.200000
v 0.100000 1.200000 0.200000
v 0.100000 1.200000 -0.100000
v 0.100000 1.300000 0.200000
v 0.100000 1.300000 -0.100000
v 0.100000 1.200000 -0.200000
v 0.100000 1.200000 -0.500000
v 0.100000 1.300000 -0.200000
v 0.100000 1.300000 -0.500000
v 0.200000 0.000000 -0.100000
v 0.200000 0.000000 -0.200000
v 0.200000 0.100000 -0.100000
v 0.200000 0.100000 -0.200000
v 0.200000 0.500000 -0.100000
v 0.200000 0.500000 -0.200000
v 0.200000 0.700000 -0.100000
v 0.200000 0.700000 -0.200000
v 0.000000 1.200000 0.300000
v -0.100000 1.300000 0.300000
v -0.100000 1.200000 0.300000
v 0.000000 1.300000 0.300000
v -0.100000 1.200000 0.200000
v -0.200000 1.300000 0.200000
v -0.200000 1.200000 0.200000
v -0.100000 1.300000 0.200000
v 0.100000 1.200000 0.200000
v 0.000000 1.300000 0.200000
v 0.000000 1.200000 0.200000
v 0.100000 1.300000 0.200000
v -0.100000 0.000000 0.000000
v -0.200000 0.100000 0.000000
v -0.200000 0.000000 0.000000
v -0.100000 0.100000 0.000000
v 0.100000 0.000000 0.000000
v 0.100000 0.100000 0.000000
v -0.200000 0.000000 -0.100000
v -0.300000 0.100000 -0.100000
v -0.300000 0.000000 -0.100000
v -0.200000 0.100000 -0.100000
v -0.200000 0.500000 -0.100000
v -0.300000 0.700000 -0.100000
v -0.300000 0.500000 -0.100000
v -0.200000 0.600000 -0.100000
v -0.100000 0.100000 -0.100000
v -0.200000 0.200000 -0.100000
v -0.100000 0.200000 -0.100000
v -0.100000 0.600000 -0.100000
v -0.100000 0.700000 -0.100000
v 0.000000 0.100000 -0.100000
v 0.000000 0.200000 -0.100000
v -0.100000 1.200000 -0.100000
v 0.000000 0.600000 -0.100000
v 0.000000 0.700000 -0.100000
v 0.000000 1.200000 -0.100000
v 0.100000 0.100000 -0.100000
v 0.100000 0.200000 -0.100000
v 0.100000 0.600000 -0.100000
v 0.200000 0.000000 -0.100000
v 0.100000 0.000000 -0.100000
v 0.200000 0.100000 -0.100000
v 0.200000 0.500000 -0.100000
v 0.100000 0.500000 -0.100000
v 0.200000 0.700000 -0.100000
v -0.100000 1.200000 -0.200000
v -0.200000 1.300000 -0.200000
v -0.200000 1.200000 -0.200000
v -0.100000 1.300000 -0.200000
v 0.000000 1.200000 -0.200000
v 0.000000 1.300000 -0.200000
v 0.100000 1.200000 -0.200000
v 0.100000 1.300000 -0.200000
v -0.200000 1.200000 -0.100000
v -0.200000 1.300000 -0.100000
v -0.100000 1.200000 -0.100000
v -0.100000 1.300000 -0.100000
v 0.000000 1.200000 -0.100000
v 0.000000 1.300000 -0.100000
v 0.100000 1.200000 -0.100000
v 0.100000 1.300000 -0.100000
v -0.300000 0.000000 -0.200000
v -0.300000 0.100000 -0.200000
v -0.200000 0.000000 -0.200000
v -0.200000 0.100000 -0.200000
v -0.300000 0.500000 -0.200000
v -0.300000 0.700000 -0.200000
v -0.200000 0.500000 -0.200000
v -0.200000 0.600000 -0.200000
v -0.200000 0.200000 -0.200000
v -0.100000 0.100000 -0.200000
v -0.100000 0.200000 -0.200000
v -0.100000 0.600000 -0.200000
v -0.100000 0.700000 -0.200000
v 0.000000 0.100000 -0.200000
v -0.100000 1.200000 -0.200000
v 0.000000 0.200000 -0.200000
v 0.000000 0.600000 -0.200000
v 0.000000 0.700000 -0.200000
v 0.000000 1.200000 -0.200000
v 0.100000 0.100000 -0.200000
v 0.100000 0.200000 -0.200000
v 0.100000 0.600000 -0.200000
v 0.100000 0.000000 -0.200000
v 0.200000 0.000000 -0.200000
v 0.200000 0.100000 -0.200000
v 0.100000 0.500000 -0.200000
v 0.200000 0.500000 -0.200000
v 0.200000 0.700000 -0.200000
v -0.200000 0.000000 -0.300000
v -0.200000 0.100000 -0.300000
v -0.100000 0.000000 -0.300000
v -0.100000 0.100000 -0.300000
v 0.000000 0.000000 -0.300000
v 0.000000 0.100000 -0.300000
v 0.100000 0.000000 -0.300000
v 0.100000 0.100000 -0.300000
v -0.200000 1.200000 -0.500000
v -0.200000 1.300000 -0.500000
v -0.100000 1.200000 -0.500000
v -0.100000 1.300000 -0.500000
v 0.000000 1.200000 -0.500000
v 0.000000 1.300000 -0.500000
v 0.100000 1.200000 -0.500000
v 0.100000 1.300000 -0.500000
v -0.100000 1.200000 -0.600000
v -0.100000 1.300000 -0.600000
v 0.000000 1.200000 -0.600000
v 0.000000 1.300000 -0.600000
v -0.200000 0.000000 -0.100000
v -0.100000 0.000000 0.000000
v -0.200000 0.000000 0.000000
v -0.100000 0.000000 -0.100000
v 0.100000 0.000000 0.000000
v 0.100000 0.000000 -0.100000
v -0.300000 0.000000 -0.200000
v -0.300000 0.000000 -0.100000
v 0.200000 0.000000 -0.100000
v -0.200000 0.000000 -0.200000
v -0.100000 0.000000 -0.200000
v 0.000000 0.000000 -0.200000
v 0.100000 0.000000 -0.200000
v 0.200000 0.000000 -0.200000
v -0.200000 0.000000 -0.300000
v -0.100000 0.000000 -0.300000
v 0.000000 0.000000 -0.300000
v 0.100000 0.000000 -0.300000
v -0.300000 0.500000 -0.200000
v -0.200000 0.500000 -0.100000
v -0.300000 0.500000 -0.100000
v -0.200000 0.500000 -0.200000
v 0.100000 0.500000 -0.200000
v 0.200000 0.500000 -0.100000
v 0.100000 0.500000 -0.100000
v 0.200000 0.500000 -0.200000
v -0.200000 0.600000 -0.200000
v -0.100000 0.600000 -0.100000
v -0.200000 0.600000 -0.100000
v -0.100000 0.600000 -0.200000
v 0.000000 0.600000 -0.200000
v 0.100000 0.600000 -0.100000
v 0.000000 0.600000 -0.100000
v 0.100000 0.600000 -0.200000
v -0.100000 1.200000 0.200000
v 0.000000 1.200000 0.300000
v -0.100000 1.200000 0.300000
v 0.000000 1.200000 0.200000
v -0.200000 1.200000 -0.100000
v -0.200000 1.200000 0.200000
v -0.100000 1.200000 -0.100000
v 0.000000 1.200000 -0.100000
v 0.100000 1.200000 0.200000
v 0.100000 1.200000 -0.100000
v -0.200000 1.200000 -0.500000
v -0.100000 1.200000 -0.200000
v -0.200000 1.200000 -0.200000
v -0.100000 1.200000 -0.500000
v 0.000000 1.200000 -0.200000
v 0.000000 1.200000 -0.500000
v 0.100000 1.200000 -0.200000
v 0.100000 1.200000 -0.500000
v -0.100000 1.200000 -0.600000
v 0.000000 1.200000 -0.600000
v -0.200000 0.100000 0.000000
v -0.100000 0.100000 0.000000
v -0.200000 0.100000 -0.100000
v 0.100000 0.100000 0.000000
v -0.100000 0.100000 -0.100000
v 0.000000 0.100000 -0.100000
v 0.100000 0.100000 -0.100000
v -0.300000 0.100000 -0.100000
v -0.300000 0.100000 -0.200000
v -0.200000 0.100000 -0.200000
v 0.200000 0.100000 -0.100000
v 0.100000 0.100000 -0.200000
v 0.200000 0.100000 -0.200000
v -0.100000 0.100000 -0.200000
v -0.200000 0.100000 -0.300000
v 0.000000 0.100000 -0.200000
v -0.100000 0.100000 -0.300000
v 0.000000 0.100000 -0.300000
v 0.100000 0.100000 -0.300000
v -0.200000 0.200000 -0.100000
v -0.100000 0.200000 -0.100000
v -0.200000 0.200000 -0.200000
v -0.100000 0.200000 -0.200000
v 0.000000 0.200000 -0.100000
v 0.100000 0.200000 -0.100000
v 0.000000 0.200000 -0.200000
v 0.100000 0.200000 -0.200000
v -0.300000 0.700000 -0.100000
v -0.100000 0.700000 -0.100000
v -0.300000 0.700000 -0.200000
v -0.100000 0.700000 -0.200000
v 0.000000 0.700000 -0.100000
v 0.200000 0.700000 -0.100000
v 0.000000 0.700000 -0.200000
v 0.200000 0.700000 -0.200000
v -0.100000 1.200000 -0.100000
v 0.000000 1.200000 -0.100000
v -0.100000 1.200000 -0.200000
v 0.000000 1.200000 -0.200000
v -0.100000 1.300000 0.300000
v 0.000000 1.300000 0.300000
v -0.100000 1.300000 0.200000
v 0.000000 1.300000 0.200000
v -0.200000 1.300000 0.200000
v -0.200000 1.300000 -0.100000
v -0.100000 1.300000 -0.100000
v 0.100000 1.300000 0.200000
v 0.000000 1.300000 -0.100000
v 0.100000 1.300000 -0.100000
v -0.200000 1.300000 -0.200000
v -0.100000 1.300000 -0.200000
v -0.200000 1.300000 -0.500000
v 0.000000 1.300000 -0.200000
v -0.100000 1.300000 -0.500000
v 0.100000 1.300000 -0.200000
v 0.000000 1.300000 -0.500000
v 0.100000 1.300000 -0.500000
v -0.100000 1.300000 -0.600000
v 0.000000 1.300000 -0.600000
vt 0.123047 0.500000
vt 0.123047 0.500000
vt 0.123047 0.500000
vt 0.123047 0.500000
vt 0.087891 0.500000
vt 0.087891 0.500000
vt 0.087891 0.500000
vt 0.087891 0.500000
vt 0.119141 0.500000
vt 0.119141 0.500000
vt 0.119141 0.500000
vt 0.119141 0.500000
vt 0.123047 0.500000
vt 0.123047 0.500000
vt 0.123047 0.500000
vt 0.123047 0.500000
vt 0.123047 0.500000
vt 0.123047 0.500000
vt 0.123047 0.500000
vt 0.087891 0.500000
vt 0.087891 0.500000
vt 0.087891 0.500000
vt 0.087891 0.500000
vt 0.087891 0.500000
vt 0.087891 0.500000
vt 0.087891 0.500000
vt 0.087891 0.500000
vt 0.091797 0.500000
vt 0.091797 0.500000
vt 0.091797 0.500000
vt 0.091797 0.500000
vt 0.091797 0.500000
vt 0.091797 0.500000
vt 0.091797 0.500000
vt 0.091797 0.500000
vt 0.087891 0.500000
vt 0.087891 0.500000
vt 0.087891 0.500000
vt 0.087891 0.500000
vt 0.087891 0.500000
vt 0.087891 0.500000
vt 0.087891 0.500000
vt 0.087891 0.500000
vt 0.087891 0.500000
vt 0.087891 0.500000
vt 0.087891 0.500000
vt 0.087891 0.500000
vt 0.087891 0.500000
vt 0.087891 0.500000
vt 0.087891 0.500000
vt 0.087891 0.500000
vt 0.091797 0.500000
vt 0.091797 0.500000
vt 0.091797 0.500000
vt 0.091797 0.500000
vt 0.091797 0.500000
vt 0.091797 0.500000
vt 0.091797 0.500000
vt 0.091797 0.500000
vt 0.087891 0.500000
vt 0.087891 0.500000
vt 0.087891 0.500000
vt 0.087891 0.500000
vt 0.087891 0.500000
vt 0.087891 0.500000
vt 0.087891 0.500000
vt 0.087891 0.500000
vt 0.123047 0.500000
vt 0.123047 0.500000
vt 0.123047 0.500000
vt 0.123047 0.500000
vt 0.123047 0.500000
vt 0.123047 0.500000
vt 0.123047 0.500000
vt 0.123047 0.500000
vt 0.119141 0.500000
vt 0.119141 0.500000
vt 0.119141 0.500000
vt 0.119141 0.500000
vt 0.087891 0.500000
vt 0.087891 0.500000
vt 0.087891 0.500000
vt 0.087891 0.500000
vt 0.087891 0.500000
vt 0.087891 0.500000
vt 0.087891 0.500000
vt 0.087891 0.500000
vt 0.123047 0.500000
vt 0.123047 0.500000
vt 0.123047 0.500000
vt 0.123047 0.500000
vt 0.087891 0.500000
vt 0.087891 0.500000
vt 0.087891 0.500000
vt 0.087891 0.500000
vt 0.087891 0.500000
vt 0.087891 0.500000
vt 0.087891 0.500000
vt 0.087891 0.500000
vt 0.087891 0.500000
vt 0.087891 0.500000
vt 0.087891 0.500000
vt 0.087891 0.500000
vt 0.087891 0.500000
vt 0.087891 0.500000
vt 0.087891 0.500000
vt 0.087891 0.500000
vt 0.119141 0.500000
vt 0.119141 0.500000
vt 0.119141 0.500000
vt 0.119141 0.500000
vt 0.123047 0.500000
vt 0.123047 0.500000
vt 0.123047 0.500000
vt 0.123047 0.500000
vt 0.123047 0.500000
vt 0.123047 0.500000
vt 0.123047 0.500000
vt 0.123047 0.500000
vt 0.087891 0.500000
vt 0.087891 0.500000
vt 0.087891 0.500000
vt 0.087891 0.500000
vt 0.123047 0.500000
vt 0.123047 0.500000
vt 0.123047 0.500000
vt 0.087891 0.500000
vt 0.087891 0.500000
vt 0.123047 0.500000
vt 0.091797 0.500000
vt 0.091797 0.500000
vt 0.091797 0.500000
vt 0.123047 0.500000
vt 0.091797 0.500000
vt 0.091797 0.500000
vt 0.091797 0.500000
vt 0.091797 0.500000
vt 0.091797 0.500000
vt 0.119141 0.500000
vt 0.119141 0.500000
vt 0.119141 0.500000
vt 0.119141 0.500000
vt 0.087891 0.500000
vt 0.087891 0.500000
vt 0.087891 0.500000
vt 0.123047 0.500000
vt 0.123047 0.500000
vt 0.123047 0.500000
vt 0.123047 0.500000
vt 0.087891 0.500000
vt 0.087891 0.500000
vt 0.087891 0.500000
vt 0.087891 0.500000
vt 0.087891 0.500000
vt 0.087891 0.500000
vt 0.087891 0.500000
vt 0.091797 0.500000
vt 0.091797 0.500000
vt 0.091797 0.500000
vt 0.091797 0.500000
vt 0.087891 0.500000
vt 0.087891 0.500000
vt 0.087891 0.500000
vt 0.087891 0.500000
vt 0.087891 0.500000
vt 0.087891 0.500000
vt 0.087891 0.500000
vt 0.087891 0.500000
vt 0.091797 0.500000
vt 0.091797 0.500000
vt 0.091797 0.500000
vt 0.091797 0.500000
vt 0.087891 0.500000
vt 0.087891 0.500000
vt 0.087891 0.500000
vt 0.087891 0.500000
vt 0.123047 0.500000
vt 0.123047 0.500000
vt 0.123047 0.500000
vt 0.123047 0.500000
vt 0.087891 0.500000
vt 0.087891 0.500000
vt 0.087891 0.500000
vt 0.087891 0.500000
vt 0.123047 0.500000
vt 0.123047 0.500000
vt 0.123047 0.500000
vt 0.087891 0.500000
vt 0.087891 0.500000
vt 0.123047 0.500000
vt 0.091797 0.500000
vt 0.091797 0.500000
vt 0.091797 0.500000
vt 0.123047 0.500000
vt 0.091797 0.500000
vt 0.091797 0.500000
vt 0.091797 0.500000
vt 0.091797 0.500000
vt 0.091797 0.500000
vt 0.119141 0.500000
vt 0.119141 0.500000
vt 0.119141 0.500000
vt 0.119141 0.500000
vt 0.087891 0.500000
vt 0.087891 0.500000
vt 0.087891 0.500000
vt 0.123047 0.500000
vt 0.123047 0.500000
vt 0.123047 0.500000
vt 0.123047 0.500000
vt 0.087891 0.500000
vt 0.087891 0.500000
vt 0.087891 0.500000
vt 0.123047 0.500000
vt 0.123047 0.500000
vt 0.123047 0.500000
vt 0.123047 0.500000
vt 0.119141 0.500000
vt 0.119141 0.500000
vt 0.119141 0.500000
vt 0.119141 0.500000
vt 0.123047 0.500000
vt 0.123047 0.500000
vt 0.123047 0.500000
vt 0.123047 0.500000
vt 0.087891 0.500000
vt 0.087891 0.500000
vt 0.087891 0.500000
vt 0.087891 0.500000
vt 0.087891 0.500000
vt 0.087891 0.500000
vt 0.087891 0.500000
vt 0.087891 0.500000
vt 0.087891 0.500000
vt 0.087891 0.500000
vt 0.087891 0.500000
vt 0.087891 0.500000
vt 0.119141 0.500000
vt 0.119141 0.500000
vt 0.119141 0.500000
vt 0.123047 0.500000
vt 0.123047 0.500000
vt 0.123047 0.500000
vt 0.119141 0.500000
vt 0.123047 0.500000
vt 0.123047 0.500000
vt 0.123047 0.500000
vt 0.123047 0.500000
vt 0.123047 0.500000
vt 0.123047 0.500000
vt 0.123047 0.500000
vt 0.123047 0.500000
vt 0.123047 0.500000
vt 0.123047 0.500000
vt 0.123047 0.500000
vt 0.119141 0.500000
vt 0.119141 0.500000
vt 0.119141 0.500000
vt 0.123047 0.500000
vt 0.123047 0.500000
vt 0.119141 0.500000
vt 0.123047 0.500000
vt 0.087891 0.500000
vt 0.087891 0.500000
vt 0.087891 0.500000
vt 0.087891 0.500000
vt 0.087891 0.500000
vt 0.087891 0.500000
vt 0.087891 0.500000
vt 0.087891 0.500000
vt 0.087891 0.500000
vt 0.087891 0.500000
vt 0.087891 0.500000
vt 0.087891 0.500000
vt 0.087891 0.500000
vt 0.087891 0.500000
vt 0.087891 0.500000
vt 0.087891 0.500000
vt 0.087891 0.500000
vt 0.087891 0.500000
vt 0.087891 0.500000
vt 0.087891 0.500000
vt 0.087891 0.500000
vt 0.087891 0.500000
vt 0.091797 0.500000
vt 0.091797 0.500000
vt 0.091797 0.500000
vt 0.087891 0.500000
vt 0.087891 0.500000
vt 0.087891 0.500000
vt 0.091797 0.500000
vt 0.087891 0.500000
vt 0.087891 0.500000
vt 0.087891 0.500000
vt 0.087891 0.500000
vt 0.091797 0.500000
vt 0.091797 0.500000
vt 0.091797 0.500000
vt 0.087891 0.500000
vt 0.087891 0.500000
vt 0.087891 0.500000
vt 0.087891 0.500000
vt 0.091797 0.500000
vt 0.087891 0.500000
vt 0.087891 0.500000
vt 0.087891 0.500000
vt 0.119141 0.500000
vt 0.119141 0.500000
vt 0.119141 0.500000
vt 0.123047 0.500000
vt 0.123047 0.500000
vt 0.123047 0.500000
vt 0.119141 0.500000
vt 0.123047 0.500000
vt 0.123047 0.500000
vt 0.123047 0.500000
vt 0.123047 0.500000
vt 0.123047 0.500000
vt 0.123047 0.500000
vt 0.123047 0.500000
vt 0.123047 0.500000
vt 0.123047 0.500000
vt 0.123047 0.500000
vt 0.123047 0.500000
vt 0.119141 0.500000
vt 0.119141 0.500000
vt 0.119141 0.500000
vt 0.123047 0.500000
vt 0.123047 0.500000
vt 0.123047 0.500000
vt 0.119141 0.500000
vt 0.123047 0.500000
vt 0.123047 0.500000
vt 0.123047 0.500000
vt 0.123047 0.500000
vt 0.123047 0.500000
vt 0.119141 0.500000
vt 0.119141 0.500000
vt 0.119141 0.500000
vt 0.119141 0.500000
vt 0.087891 0.500000
vt 0.087891 0.500000
vt 0.087891 0.500000
vt 0.087891 0.500000
vt 0.087891 0.500000
vt 0.087891 0.500000
vt 0.087891 0.500000
vt 0.087891 0.500000
vt 0.091797 0.500000
vt 0.091797 0.500000
vt 0.091797 0.500000
vt 0.091797 0.500000
vt 0.087891 0.500000
vt 0.087891 0.500000
vt 0.087891 0.500000
vt 0.087891 0.500000
vt 0.087891 0.500000
vt 0.087891 0.500000
vt 0.091797 0.500000
vt 0.091797 0.500000
vt 0.091797 0.500000
vt 0.087891 0.500000
vt 0.087891 0.500000
vt 0.087891 0.500000
vt 0.091797 0.500000
vt 0.087891 0.500000
vt 0.087891 0.500000
vt 0.087891 0.500000
vt 0.087891 0.500000
vt 0.091797 0.500000
vt 0.091797 0.500000
vt 0.091797 0.500000
vt 0.087891 0.500000
vt 0.087891 0.500000
vt 0.087891 0.500000
vt 0.087891 0.500000
vt 0.091797 0.500000
vt 0.087891 0.500000
vt 0.087891 0.500000
vt 0.087891 0.500000
vn -1.0000 -0.0000 0.0000
vn 1.0000 0.0000 0.0000
vn 0.0000 0.0000 1.0000
vn 0.0000 0.0000 -1.0000
vn 0.0000 -1.0000 -0.0000
vn 0.0000 1.0000 0.0000
usemtl palette.074
s 1
f 1/1/1 2/2/1 3/3/1
f 4/4/1 2/2/1 1/1/1
f 5/5/1 6/6/1 7/7/1
f 8/8/1 6/6/1 5/5/1
f 9/9/1 10/10/1 11/11/1
f 12/12/1 10/10/1 9/9/1
f 13/13/1 14/14/1 15/15/1
f 16/16/1 14/14/1 13/13/1
f 17/17/1 13/13/1 12/18/1
f 18/19/1 13/13/1 17/17/1
f 19/20/1 20/21/1 21/22/1
f 22/23/1 20/21/1 19/20/1
f 23/24/1 24/25/1 25/26/1
f 26/27/1 24/25/1 23/24/1
f 27/28/1 28/29/1 29/30/1
f 30/31/1 28/29/1 27/28/1
f 31/32/1 32/33/1 33/34/1
f 34/35/1 32/33/1 31/32/1
f 35/36/1 36/37/1 37/38/1
f 38/39/1 36/37/1 35/36/1
f 39/40/1 40/41/1 41/42/1
f 42/43/1 40/41/1 39/40/1
f 43/44/1 44/45/1 45/46/1
f 46/47/1 44/45/1 43/44/1
f 47/48/2 48/49/2 49/50/2
f 49/50/2 48/49/2 50/51/2
f 51/52/2 52/53/2 53/54/2
f 53/54/2 52/53/2 54/55/2
f 55/56/2 56/57/2 57/58/2
f 57/58/2 56/57/2 58/59/2
f 59/60/2 60/61/2 61/62/2
f 61/62/2 60/61/2 62/63/2
f 63/64/2 64/65/2 65/66/2
f 65/66/2 64/65/2 66/67/2
f 67/68/2 68/69/2 69/70/2
f 69/70/2 68/69/2 70/71/2
f 71/72/2 72/73/2 73/74/2
f 73/74/2 72/73/2 74/75/2
f 70/76/2 73/77/2 75/78/2
f 75/78/2 73/77/2 76/79/2
f 77/80/2 78/81/2 79/82/2
f 79/82/2 78/81/2 80/83/2
f 81/84/2 82/85/2 83/86/2
f 83/86/2 82/85/2 84/87/2
f 85/88/2 86/89/2 87/90/2
f 87/90/2 86/89/2 88/91/2
f 89/92/2 90/93/2 91/94/2
f 91/94/2 90/93/2 92/95/2
f 93/96/3 94/97/3 95/98/3
f 96/99/3 94/97/3 93/96/3
f 97/100/3 98/101/3 99/102/3
f 100/103/3 98/101/3 97/100/3
f 101/104/3 102/105/3 103/106/3
f 104/107/3 102/105/3 101/104/3
f 105/108/3 106/109/3 107/110/3
f 108/111/3 106/109/3 105/108/3
f 109/112/3 108/113/3 105/114/3
f 110/115/3 108/113/3 109/112/3
f 111/116/3 112/117/3 113/118/3
f 114/119/3 112/117/3 111/116/3
f 115/120/3 116/121/3 117/122/3
f 118/123/3 116/121/3 115/120/3
f 119/124/3 120/125/3 114/119/3
f 121/126/3 120/125/3 119/124/3
f 122/127/3 116/121/3 118/123/3
f 123/128/3 116/121/3 122/127/3
f 124/129/3 121/126/3 119/124/3
f 125/130/3 126/131/3 123/132/3
f 125/133/3 121/126/3 124/129/3
f 125/130/3 122/134/3 121/135/3
f 125/130/3 123/132/3 122/134/3
f 127/136/3 126/131/3 125/130/3
f 128/137/3 126/131/3 127/136/3
f 129/138/3 126/131/3 128/137/3
f 130/139/3 125/140/3 124/141/3
f 131/142/3 125/140/3 130/139/3
f 132/143/3 128/144/3 127/145/3
f 133/146/3 130/147/3 134/148/3
f 135/149/3 130/147/3 133/146/3
f 136/150/3 132/143/3 137/151/3
f 138/152/3 128/144/3 132/143/3
f 138/152/3 132/143/3 136/150/3
f 139/153/3 140/154/3 141/155/3
f 142/156/3 140/154/3 139/153/3
f 143/157/3 142/158/3 139/159/3
f 144/160/3 142/158/3 143/157/3
f 145/161/3 144/162/3 143/163/3
f 146/164/3 144/162/3 145/161/3
f 147/165/4 148/166/4 149/167/4
f 149/167/4 148/166/4 150/168/4
f 149/169/4 150/170/4 151/171/4
f 151/171/4 150/170/4 152/172/4
f 151/173/4 152/174/4 153/175/4
f 153/175/4 152/174/4 154/176/4
f 155/177/4 156/178/4 157/179/4
f 157/179/4 156/178/4 158/180/4
f 159/181/4 160/182/4 161/183/4
f 161/183/4 160/182/4 162/184/4
f 158/180/4 163/185/4 164/186/4
f 164/186/4 163/185/4 165/187/4
f 162/184/4 160/182/4 166/188/4
f 166/188/4 160/182/4 167/189/4
f 164/186/4 165/187/4 168/190/4
f 167/191/4 169/192/4 170/193/4
f 168/190/4 165/187/4 170/194/4
f 165/195/4 166/196/4 170/193/4
f 166/196/4 167/191/4 170/193/4
f 170/193/4 169/192/4 171/197/4
f 171/197/4 169/192/4 172/198/4
f 172/198/4 169/192/4 173/199/4
f 168/200/4 170/201/4 174/202/4
f 174/202/4 170/201/4 175/203/4
f 171/204/4 172/205/4 176/206/4
f 177/207/4 174/208/4 178/209/4
f 178/209/4 174/208/4 179/210/4
f 180/211/4 176/206/4 181/212/4
f 176/206/4 172/205/4 182/213/4
f 181/212/4 176/206/4 182/213/4
f 183/214/4 184/215/4 185/216/4
f 185/216/4 184/215/4 186/217/4
f 185/218/4 186/219/4 187/220/4
f 187/220/4 186/219/4 188/221/4
f 187/222/4 188/223/4 189/224/4
f 189/224/4 188/223/4 190/225/4
f 191/226/4 192/227/4 193/228/4
f 193/228/4 192/227/4 194/229/4
f 195/230/4 196/231/4 197/232/4
f 197/232/4 196/231/4 198/233/4
f 199/234/4 200/235/4 201/236/4
f 201/236/4 200/235/4 202/237/4
f 203/238/5 204/239/5 205/240/5
f 206/241/5 207/242/5 204/243/5
f 206/244/5 204/239/5 203/238/5
f 208/245/5 207/242/5 206/241/5
f 209/246/5 203/247/5 210/248/5
f 209/246/5 211/249/5 208/245/5
f 209/246/5 208/245/5 206/241/5
f 209/246/5 206/241/5 203/247/5
f 212/250/5 211/249/5 209/246/5
f 213/251/5 211/249/5 212/250/5
f 214/252/5 211/249/5 213/251/5
f 215/253/5 211/249/5 214/252/5
f 216/254/5 211/249/5 215/253/5
f 217/255/5 213/251/5 212/250/5
f 218/256/5 214/257/5 213/258/5
f 218/259/5 213/251/5 217/255/5
f 219/260/5 215/253/5 214/252/5
f 219/261/5 214/257/5 218/256/5
f 220/262/5 215/253/5 219/260/5
f 221/263/5 222/264/5 223/265/5
f 224/266/5 222/264/5 221/263/5
f 225/267/5 226/268/5 227/269/5
f 228/270/5 226/268/5 225/267/5
f 229/271/5 230/272/5 231/273/5
f 232/274/5 230/272/5 229/271/5
f 233/275/5 234/276/5 235/277/5
f 236/278/5 234/276/5 233/275/5
f 237/279/5 238/280/5 239/281/5
f 240/282/5 238/280/5 237/279/5
f 241/283/5 237/279/5 242/284/5
f 243/285/5 240/286/5 237/287/5
f 243/288/5 237/279/5 241/283/5
f 244/289/5 245/290/5 240/282/5
f 244/291/5 240/286/5 243/285/5
f 246/292/5 245/290/5 244/289/5
f 247/293/5 248/294/5 249/295/5
f 250/296/5 251/297/5 248/298/5
f 250/299/5 248/294/5 247/293/5
f 252/300/5 253/301/5 251/302/5
f 252/303/5 251/297/5 250/296/5
f 254/304/5 253/301/5 252/300/5
f 255/305/5 252/300/5 250/299/5
f 256/306/5 252/300/5 255/305/5
f 257/307/6 258/308/6 259/309/6
f 258/310/6 260/311/6 261/312/6
f 259/309/6 258/308/6 261/313/6
f 261/312/6 260/311/6 262/314/6
f 262/314/6 260/311/6 263/315/6
f 264/316/6 259/317/6 265/318/6
f 265/318/6 259/317/6 266/319/6
f 263/315/6 267/320/6 268/321/6
f 268/321/6 267/320/6 269/322/6
f 266/319/6 270/323/6 271/324/6
f 270/325/6 272/326/6 273/327/6
f 271/324/6 270/323/6 273/328/6
f 272/329/6 268/321/6 274/330/6
f 273/327/6 272/326/6 274/331/6
f 274/330/6 268/321/6 275/332/6
f 276/333/6 277/334/6 278/335/6
f 278/335/6 277/334/6 279/336/6
f 280/337/6 281/338/6 282/339/6
f 282/339/6 281/338/6 283/340/6
f 284/341/6 285/342/6 286/343/6
f 286/343/6 285/342/6 287/344/6
f 288/345/6 289/346/6 290/347/6
f 290/347/6 289/346/6 291/348/6
f 292/349/6 293/350/6 294/351/6
f 294/351/6 293/350/6 295/352/6
f 296/353/6 297/354/6 298/355/6
f 298/355/6 297/354/6 299/356/6
f 300/357/6 298/355/6 301/358/6
f 298/359/6 299/360/6 302/361/6
f 301/358/6 298/355/6 302/362/6
f 299/356/6 303/363/6 304/364/6
f 302/361/6 299/360/6 304/365/6
f 304/364/6 303/363/6 305/366/6
f 306/367/6 307/368/6 308/369/6
f 307/370/6 309/371/6 310/372/6
f 308/369/6 307/368/6 310/373/6
f 309/374/6 311/375/6 312/376/6
f 310/372/6 309/371/6 312/377/6
f 312/376/6 311/375/6 313/378/6
f 310/373/6 312/376/6 314/379/6
f 314/379/6 312/376/6 315/380/6
