# Blender v2.93.0 OBJ File: ''
# www.blender.org
mtllib TVS_VoxelFarm_Fence.mtl
o ObjObject.009_ObjObject.003
v -0.150000 -0.678513 -0.743802
v -0.150000 -0.778513 -0.843802
v -0.150000 -0.778513 -0.543802
v -0.150000 -0.678513 -0.843802
v -0.150000 -0.578513 -0.543802
v -0.150000 -0.578513 -0.743802
v -0.150000 0.521487 -0.643802
v -0.150000 0.521487 -0.843801
v -0.150000 0.621487 -0.543801
v -0.150000 0.621487 -0.643801
v -0.150000 0.721487 -0.543801
v -0.150000 0.721487 -0.843801
v -0.050000 -0.378513 0.856198
v -0.050000 -0.478513 -0.543802
v -0.050000 -0.478513 0.956198
v -0.050000 -0.378513 0.756198
v -0.050000 -0.378513 0.556198
v -0.050000 -0.378513 0.456198
v -0.050000 -0.378513 0.356198
v -0.050000 -0.378513 0.256198
v -0.050000 -0.378513 -0.043802
v -0.050000 -0.378513 -0.143802
v -0.050000 -0.378513 -0.243802
v -0.050000 -0.378513 -0.443802
v -0.050000 -0.278513 0.956198
v -0.050000 -0.278513 0.856198
v -0.050000 -0.278513 0.656198
v -0.050000 -0.278513 0.556198
v -0.050000 -0.278513 0.456198
v -0.050000 -0.278513 0.356198
v -0.050000 -0.278513 0.256198
v -0.050000 -0.278513 0.156198
v -0.050000 -0.278513 0.056198
v -0.050000 -0.278513 -0.043802
v -0.050000 -0.278513 -0.143802
v -0.050000 -0.278513 -0.243802
v -0.050000 -0.278513 -0.443802
v -0.050000 -0.278513 -0.543802
v -0.050000 -0.178513 0.956198
v -0.050000 -0.178513 0.756198
v -0.050000 -0.178513 0.656198
v -0.050000 -0.178513 0.156198
v -0.050000 -0.178513 0.056198
v -0.050000 -0.178513 -0.543802
v -0.050000 0.321487 0.856198
v -0.050000 0.221487 0.556198
v -0.050000 0.221487 0.956198
v -0.050000 0.321487 0.756198
v -0.050000 0.321487 0.656199
v -0.050000 0.321487 0.556198
v -0.050000 0.221487 0.456198
v -0.050000 0.321487 0.356198
v -0.050000 0.221487 -0.043802
v -0.050000 0.321487 0.256198
v -0.050000 0.321487 0.056198
v -0.050000 0.321487 -0.043802
v -0.050000 0.221487 -0.143802
v -0.050000 0.321487 -0.143802
v -0.050000 0.221487 -0.543802
v -0.050000 0.321487 -0.243802
v -0.050000 0.321487 -0.443802
v -0.050000 0.321487 -0.543802
v -0.050000 0.421487 0.956198
v -0.050000 0.421487 0.856198
v -0.050000 0.421487 0.756198
v -0.050000 0.421487 0.656199
v -0.050000 0.421487 0.456198
v -0.050000 0.421487 0.356198
v -0.050000 0.421487 0.256198
v -0.050000 0.421487 0.056198
v -0.050000 0.421487 -0.243802
v -0.050000 0.421487 -0.443802
v -0.050000 0.521487 0.956198
v -0.050000 0.521487 -0.543802
v 0.050000 -0.478513 0.956198
v 0.050000 -0.478513 -0.543802
v 0.050000 -0.378513 0.856198
v 0.050000 -0.378513 0.756198
v 0.050000 -0.378513 0.556198
v 0.050000 -0.378513 0.456198
v 0.050000 -0.378513 0.356198
v 0.050000 -0.378513 0.256198
v 0.050000 -0.378513 -0.043802
v 0.050000 -0.378513 -0.143802
v 0.050000 -0.378513 -0.243802
v 0.050000 -0.378513 -0.443802
v 0.050000 -0.278513 0.956198
v 0.050000 -0.278513 0.856198
v 0.050000 -0.278513 0.656198
v 0.050000 -0.278513 0.556198
v 0.050000 -0.278513 0.456198
v 0.050000 -0.278513 0.356198
v 0.050000 -0.278513 0.256198
v 0.050000 -0.278513 0.156198
v 0.050000 -0.278513 0.056198
v 0.050000 -0.278513 -0.043802
v 0.050000 -0.278513 -0.143802
v 0.050000 -0.278513 -0.243802
v 0.050000 -0.278513 -0.443802
v 0.050000 -0.278513 -0.543802
v 0.050000 -0.178513 0.956198
v 0.050000 -0.178513 0.756198
v 0.050000 -0.178513 0.656198
v 0.050000 -0.178513 0.156198
v 0.050000 -0.178513 0.056198
v 0.050000 -0.178513 -0.543802
v 0.050000 0.221487 0.956198
v 0.050000 0.221487 0.556198
v 0.050000 0.321487 0.856198
v 0.050000 0.321487 0.756198
v 0.050000 0.321487 0.656199
v 0.050000 0.221487 0.456198
v 0.050000 0.321487 0.556198
v 0.050000 0.221487 -0.043802
v 0.050000 0.321487 0.356198
v 0.050000 0.321487 0.256198
v 0.050000 0.321487 0.056198
v 0.050000 0.221487 -0.143802
v 0.050000 0.321487 -0.043802
v 0.050000 0.221487 -0.543802
v 0.050000 0.321487 -0.143802
v 0.050000 0.321487 -0.243802
v 0.050000 0.321487 -0.443802
v 0.050000 0.321487 -0.543802
v 0.050000 0.421487 0.956198
v 0.050000 0.421487 0.856198
v 0.050000 0.421487 0.756198
v 0.050000 0.421487 0.656199
v 0.050000 0.421487 0.456198
v 0.050000 0.421487 0.356198
v 0.050000 0.421487 0.256198
v 0.050000 0.421487 0.056198
v 0.050000 0.421487 -0.243802
v 0.050000 0.421487 -0.443802
v 0.050000 0.521487 0.956198
v 0.050000 0.521487 -0.543802
v 0.150000 -0.778513 -0.543802
v 0.150000 -0.778513 -0.843802
v 0.150000 -0.678513 -0.643802
v 0.150000 -0.678513 -0.843802
v 0.150000 -0.578513 -0.543802
v 0.150000 -0.578513 -0.643802
v 0.150000 0.521487 -0.743802
v 0.150000 0.521487 -0.843801
v 0.150000 0.621487 -0.543801
v 0.150000 0.621487 -0.743801
v 0.150000 0.721487 -0.543801
v 0.150000 0.721487 -0.843801
v 0.050000 -0.478513 0.956198
v -0.050000 -0.278513 0.956198
v -0.050000 -0.478513 0.956198
v 0.050000 -0.278513 0.956198
v -0.050000 -0.178513 0.956198
v 0.050000 -0.178513 0.956198
v 0.050000 0.221487 0.956198
v -0.050000 0.421487 0.956198
v -0.050000 0.221487 0.956198
v 0.050000 0.421487 0.956198
v -0.050000 0.521487 0.956198
v 0.050000 0.521487 0.956198
v -0.050000 -0.678513 -0.543802
v -0.150000 -0.578513 -0.543802
v -0.150000 -0.778513 -0.543802
v -0.050000 -0.578513 -0.543802
v -0.150000 0.621487 -0.543801
v -0.050000 -0.478513 -0.543802
v -0.050000 -0.278513 -0.543802
v -0.050000 -0.178513 -0.543802
v -0.050000 0.221487 -0.543802
v -0.050000 0.321487 -0.543802
v -0.050000 0.521487 -0.543802
v -0.050000 0.621487 -0.543801
v -0.150000 0.721487 -0.543801
v 0.050000 -0.678513 -0.543802
v 0.050000 -0.578513 -0.543802
v 0.050000 -0.478513 -0.543802
v 0.050000 -0.178513 -0.543802
v 0.050000 0.221487 -0.543802
v 0.050000 0.521487 -0.543802
v 0.050000 0.621487 -0.543801
v 0.150000 -0.778513 -0.543802
v 0.150000 -0.578513 -0.543802
v 0.050000 0.321487 -0.543802
v 0.050000 -0.278513 -0.543802
v 0.150000 0.621487 -0.543801
v 0.150000 0.721487 -0.543801
v -0.150000 -0.778513 -0.843802
v -0.150000 -0.678513 -0.843802
v -0.050000 -0.678513 -0.843802
v -0.150000 0.521487 -0.843801
v -0.050000 -0.578513 -0.843802
v -0.150000 0.721487 -0.843801
v -0.050000 0.521487 -0.843801
v -0.050000 0.621487 -0.843801
v 0.050000 -0.678513 -0.843802
v 0.050000 -0.578513 -0.843802
v 0.050000 0.521487 -0.843801
v 0.050000 0.621487 -0.843801
v 0.150000 -0.778513 -0.843802
v 0.150000 -0.678513 -0.843802
v 0.150000 0.521487 -0.843801
v 0.150000 0.721487 -0.843801
v -0.150000 -0.778513 -0.843802
v 0.150000 -0.778513 -0.543802
v -0.150000 -0.778513 -0.543802
v 0.150000 -0.778513 -0.843802
v -0.050000 -0.478513 -0.543802
v 0.050000 -0.478513 0.956198
v -0.050000 -0.478513 0.956198
v 0.050000 -0.478513 -0.543802
v -0.050000 0.221487 0.556198
v 0.050000 0.221487 0.956198
v -0.050000 0.221487 0.956198
v 0.050000 0.221487 0.556198
v -0.050000 0.221487 0.456198
v 0.050000 0.221487 0.456198
v -0.050000 0.221487 -0.043802
v 0.050000 0.221487 -0.043802
v -0.050000 0.221487 -0.143802
v 0.050000 0.221487 -0.143802
v -0.050000 0.221487 -0.543802
v 0.050000 0.221487 -0.543802
v -0.050000 -0.178513 0.956198
v 0.050000 -0.178513 0.956198
v -0.050000 -0.178513 0.756198
v 0.050000 -0.178513 0.756198
v -0.050000 -0.178513 0.656198
v 0.050000 -0.178513 0.656198
v -0.050000 -0.178513 0.156198
v 0.050000 -0.178513 0.156198
v -0.050000 -0.178513 0.056198
v 0.050000 -0.178513 0.056198
v -0.050000 -0.178513 -0.543802
v 0.050000 -0.178513 -0.543802
v -0.050000 0.521487 0.956198
v 0.050000 0.521487 0.956198
v -0.050000 0.521487 -0.543802
v 0.050000 0.521487 -0.543802
v -0.150000 0.721487 -0.543801
v 0.150000 0.721487 -0.543801
v -0.150000 0.721487 -0.843801
v 0.150000 0.721487 -0.843801
vt 0.416016 0.500000
vt 0.416016 0.500000
vt 0.416016 0.500000
vt 0.416016 0.500000
vt 0.416016 0.500000
vt 0.412109 0.500000
vt 0.412109 0.500000
vt 0.412109 0.500000
vt 0.416016 0.500000
vt 0.412109 0.500000
vt 0.412109 0.500000
vt 0.412109 0.500000
vt 0.412109 0.500000
vt 0.408203 0.500000
vt 0.408203 0.500000
vt 0.408203 0.500000
vt 0.412109 0.500000
vt 0.408203 0.500000
vt 0.408203 0.500000
vt 0.408203 0.500000
vt 0.416016 0.500000
vt 0.416016 0.500000
vt 0.416016 0.500000
vt 0.416016 0.500000
vt 0.416016 0.500000
vt 0.416016 0.500000
vt 0.416016 0.500000
vt 0.416016 0.500000
vt 0.416016 0.500000
vt 0.416016 0.500000
vt 0.416016 0.500000
vt 0.416016 0.500000
vt 0.416016 0.500000
vt 0.412109 0.500000
vt 0.412109 0.500000
vt 0.412109 0.500000
vt 0.416016 0.500000
vt 0.416016 0.500000
vt 0.412109 0.500000
vt 0.412109 0.500000
vt 0.412109 0.500000
vt 0.416016 0.500000
vt 0.416016 0.500000
vt 0.412109 0.500000
vt 0.412109 0.500000
vt 0.412109 0.500000
vt 0.412109 0.500000
vt 0.416016 0.500000
vt 0.416016 0.500000
vt 0.412109 0.500000
vt 0.416016 0.500000
vt 0.416016 0.500000
vt 0.412109 0.500000
vt 0.412109 0.500000
vt 0.412109 0.500000
vt 0.416016 0.500000
vt 0.416016 0.500000
vt 0.412109 0.500000
vt 0.412109 0.500000
vt 0.412109 0.500000
vt 0.412109 0.500000
vt 0.416016 0.500000
vt 0.416016 0.500000
vt 0.412109 0.500000
vt 0.416016 0.500000
vt 0.412109 0.500000
vt 0.412109 0.500000
vt 0.412109 0.500000
vt 0.416016 0.500000
vt 0.412109 0.500000
vt 0.412109 0.500000
vt 0.416016 0.500000
vt 0.412109 0.500000
vt 0.416016 0.500000
vt 0.412109 0.500000
vt 0.412109 0.500000
vt 0.416016 0.500000
vt 0.412109 0.500000
vt 0.412109 0.500000
vt 0.412109 0.500000
vt 0.412109 0.500000
vt 0.412109 0.500000
vt 0.412109 0.500000
vt 0.412109 0.500000
vt 0.412109 0.500000
vt 0.408203 0.500000
vt 0.408203 0.500000
vt 0.408203 0.500000
vt 0.412109 0.500000
vt 0.412109 0.500000
vt 0.412109 0.500000
vt 0.412109 0.500000
vt 0.412109 0.500000
vt 0.412109 0.500000
vt 0.408203 0.500000
vt 0.408203 0.500000
vt 0.408203 0.500000
vt 0.412109 0.500000
vt 0.412109 0.500000
vt 0.412109 0.500000
vt 0.412109 0.500000
vt 0.408203 0.500000
vt 0.412109 0.500000
vt 0.412109 0.500000
vt 0.412109 0.500000
vt 0.412109 0.500000
vt 0.408203 0.500000
vt 0.408203 0.500000
vt 0.408203 0.500000
vt 0.412109 0.500000
vt 0.412109 0.500000
vt 0.408203 0.500000
vt 0.408203 0.500000
vt 0.408203 0.500000
vt 0.412109 0.500000
vt 0.408203 0.500000
vt 0.412109 0.500000
vt 0.408203 0.500000
vt 0.408203 0.500000
vt 0.408203 0.500000
vt 0.412109 0.500000
vt 0.412109 0.500000
vt 0.408203 0.500000
vt 0.408203 0.500000
vt 0.408203 0.500000
vt 0.412109 0.500000
vt 0.408203 0.500000
vt 0.412109 0.500000
vt 0.408203 0.500000
vt 0.408203 0.500000
vt 0.408203 0.500000
vt 0.408203 0.500000
vt 0.412109 0.500000
vt 0.408203 0.500000
vt 0.408203 0.500000
vt 0.408203 0.500000
vt 0.416016 0.500000
vt 0.416016 0.500000
vt 0.416016 0.500000
vt 0.416016 0.500000
vt 0.416016 0.500000
vt 0.416016 0.500000
vt 0.416016 0.500000
vt 0.416016 0.500000
vt 0.416016 0.500000
vt 0.416016 0.500000
vt 0.416016 0.500000
vt 0.416016 0.500000
vt 0.416016 0.500000
vt 0.412109 0.500000
vt 0.412109 0.500000
vt 0.412109 0.500000
vt 0.416016 0.500000
vt 0.416016 0.500000
vt 0.412109 0.500000
vt 0.412109 0.500000
vt 0.412109 0.500000
vt 0.416016 0.500000
vt 0.416016 0.500000
vt 0.412109 0.500000
vt 0.412109 0.500000
vt 0.412109 0.500000
vt 0.412109 0.500000
vt 0.416016 0.500000
vt 0.416016 0.500000
vt 0.412109 0.500000
vt 0.416016 0.500000
vt 0.416016 0.500000
vt 0.412109 0.500000
vt 0.412109 0.500000
vt 0.412109 0.500000
vt 0.416016 0.500000
vt 0.416016 0.500000
vt 0.412109 0.500000
vt 0.412109 0.500000
vt 0.412109 0.500000
vt 0.412109 0.500000
vt 0.416016 0.500000
vt 0.416016 0.500000
vt 0.412109 0.500000
vt 0.416016 0.500000
vt 0.412109 0.500000
vt 0.412109 0.500000
vt 0.412109 0.500000
vt 0.416016 0.500000
vt 0.412109 0.500000
vt 0.412109 0.500000
vt 0.416016 0.500000
vt 0.412109 0.500000
vt 0.416016 0.500000
vt 0.412109 0.500000
vt 0.412109 0.500000
vt 0.416016 0.500000
vt 0.412109 0.500000
vt 0.412109 0.500000
vt 0.412109 0.500000
vt 0.412109 0.500000
vt 0.412109 0.500000
vt 0.412109 0.500000
vt 0.412109 0.500000
vt 0.412109 0.500000
vt 0.408203 0.500000
vt 0.408203 0.500000
vt 0.408203 0.500000
vt 0.412109 0.500000
vt 0.412109 0.500000
vt 0.412109 0.500000
vt 0.412109 0.500000
vt 0.412109 0.500000
vt 0.412109 0.500000
vt 0.408203 0.500000
vt 0.408203 0.500000
vt 0.408203 0.500000
vt 0.412109 0.500000
vt 0.412109 0.500000
vt 0.412109 0.500000
vt 0.412109 0.500000
vt 0.408203 0.500000
vt 0.412109 0.500000
vt 0.412109 0.500000
vt 0.412109 0.500000
vt 0.412109 0.500000
vt 0.408203 0.500000
vt 0.408203 0.500000
vt 0.408203 0.500000
vt 0.412109 0.500000
vt 0.412109 0.500000
vt 0.408203 0.500000
vt 0.408203 0.500000
vt 0.408203 0.500000
vt 0.412109 0.500000
vt 0.408203 0.500000
vt 0.412109 0.500000
vt 0.408203 0.500000
vt 0.408203 0.500000
vt 0.408203 0.500000
vt 0.412109 0.500000
vt 0.412109 0.500000
vt 0.408203 0.500000
vt 0.408203 0.500000
vt 0.408203 0.500000
vt 0.412109 0.500000
vt 0.408203 0.500000
vt 0.412109 0.500000
vt 0.408203 0.500000
vt 0.408203 0.500000
vt 0.408203 0.500000
vt 0.408203 0.500000
vt 0.412109 0.500000
vt 0.408203 0.500000
vt 0.408203 0.500000
vt 0.408203 0.500000
vt 0.416016 0.500000
vt 0.416016 0.500000
vt 0.416016 0.500000
vt 0.416016 0.500000
vt 0.416016 0.500000
vt 0.412109 0.500000
vt 0.412109 0.500000
vt 0.412109 0.500000
vt 0.416016 0.500000
vt 0.412109 0.500000
vt 0.412109 0.500000
vt 0.412109 0.500000
vt 0.412109 0.500000
vt 0.408203 0.500000
vt 0.408203 0.500000
vt 0.408203 0.500000
vt 0.412109 0.500000
vt 0.408203 0.500000
vt 0.408203 0.500000
vt 0.408203 0.500000
vt 0.416016 0.500000
vt 0.416016 0.500000
vt 0.416016 0.500000
vt 0.412109 0.500000
vt 0.412109 0.500000
vt 0.412109 0.500000
vt 0.416016 0.500000
vt 0.412109 0.500000
vt 0.412109 0.500000
vt 0.412109 0.500000
vt 0.412109 0.500000
vt 0.408203 0.500000
vt 0.408203 0.500000
vt 0.408203 0.500000
vt 0.412109 0.500000
vt 0.408203 0.500000
vt 0.416016 0.500000
vt 0.416016 0.500000
vt 0.416016 0.500000
vt 0.412109 0.500000
vt 0.412109 0.500000
vt 0.412109 0.500000
vt 0.416016 0.500000
vt 0.412109 0.500000
vt 0.412109 0.500000
vt 0.412109 0.500000
vt 0.412109 0.500000
vt 0.412109 0.500000
vt 0.412109 0.500000
vt 0.408203 0.500000
vt 0.408203 0.500000
vt 0.408203 0.500000
vt 0.412109 0.500000
vt 0.416016 0.500000
vt 0.412109 0.500000
vt 0.412109 0.500000
vt 0.412109 0.500000
vt 0.412109 0.500000
vt 0.412109 0.500000
vt 0.412109 0.500000
vt 0.408203 0.500000
vt 0.408203 0.500000
vt 0.408203 0.500000
vt 0.416016 0.500000
vt 0.416016 0.500000
vt 0.412109 0.500000
vt 0.412109 0.500000
vt 0.412109 0.500000
vt 0.416016 0.500000
vt 0.412109 0.500000
vt 0.412109 0.500000
vt 0.408203 0.500000
vt 0.412109 0.500000
vt 0.408203 0.500000
vt 0.416016 0.500000
vt 0.416016 0.500000
vt 0.416016 0.500000
vt 0.412109 0.500000
vt 0.412109 0.500000
vt 0.412109 0.500000
vt 0.412109 0.500000
vt 0.408203 0.500000
vt 0.408203 0.500000
vt 0.408203 0.500000
vt 0.412109 0.500000
vt 0.408203 0.500000
vt 0.416016 0.500000
vt 0.416016 0.500000
vt 0.412109 0.500000
vt 0.412109 0.500000
vt 0.416016 0.500000
vt 0.412109 0.500000
vt 0.408203 0.500000
vt 0.412109 0.500000
vt 0.416016 0.500000
vt 0.412109 0.500000
vt 0.416016 0.500000
vt 0.412109 0.500000
vt 0.408203 0.500000
vt 0.408203 0.500000
vt 0.412109 0.500000
vt 0.408203 0.500000
vt 0.416016 0.500000
vt 0.416016 0.500000
vt 0.416016 0.500000
vt 0.416016 0.500000
vt 0.416016 0.500000
vt 0.416016 0.500000
vt 0.416016 0.500000
vt 0.416016 0.500000
vt 0.412109 0.500000
vt 0.412109 0.500000
vt 0.412109 0.500000
vt 0.412109 0.500000
vt 0.408203 0.500000
vt 0.408203 0.500000
vt 0.408203 0.500000
vt 0.408203 0.500000
vt 0.412109 0.500000
vt 0.412109 0.500000
vt 0.412109 0.500000
vt 0.412109 0.500000
vt 0.408203 0.500000
vt 0.408203 0.500000
vt 0.408203 0.500000
vt 0.408203 0.500000
vt 0.412109 0.500000
vt 0.412109 0.500000
vt 0.412109 0.500000
vt 0.412109 0.500000
vt 0.412109 0.500000
vt 0.412109 0.500000
vt 0.412109 0.500000
vt 0.412109 0.500000
vt 0.416016 0.500000
vt 0.416016 0.500000
vt 0.416016 0.500000
vt 0.416016 0.500000
vt 0.412109 0.500000
vt 0.412109 0.500000
vt 0.412109 0.500000
vt 0.412109 0.500000
vt 0.416016 0.500000
vt 0.416016 0.500000
vt 0.416016 0.500000
vt 0.416016 0.500000
vt 0.412109 0.500000
vt 0.412109 0.500000
vt 0.412109 0.500000
vt 0.412109 0.500000
vt 0.408203 0.500000
vt 0.408203 0.500000
vt 0.408203 0.500000
vt 0.408203 0.500000
vt 0.408203 0.500000
vt 0.408203 0.500000
vt 0.408203 0.500000
vt 0.408203 0.500000
vn -1.0000 0.0000 0.0000
vn 1.0000 0.0000 0.0000
vn 0.0000 0.0000 1.0000
vn 0.0000 0.0000 -1.0000
vn 0.0000 -1.0000 -0.0000
vn 0.0000 1.0000 0.0000
usemtl palette.089
s 1
f 1/1/1 2/2/1 3/3/1
f 4/4/1 2/2/1 1/1/1
f 5/5/1 1/1/1 3/3/1
f 6/6/1 4/7/1 1/8/1
f 6/9/1 1/1/1 5/5/1
f 7/10/1 6/6/1 5/11/1
f 8/12/1 4/7/1 6/6/1
f 8/12/1 6/6/1 7/10/1
f 9/13/1 7/10/1 5/11/1
f 10/14/1 8/15/1 7/16/1
f 10/17/1 7/10/1 9/13/1
f 11/18/1 10/14/1 9/19/1
f 12/20/1 8/15/1 10/14/1
f 12/20/1 10/14/1 11/18/1
f 13/21/1 14/22/1 15/23/1
f 16/24/1 14/22/1 13/21/1
f 17/25/1 14/22/1 16/24/1
f 18/26/1 14/22/1 17/25/1
f 19/27/1 14/22/1 18/26/1
f 20/28/1 14/22/1 19/27/1
f 21/29/1 14/22/1 20/28/1
f 22/30/1 14/22/1 21/29/1
f 23/31/1 14/22/1 22/30/1
f 24/32/1 14/22/1 23/31/1
f 25/33/1 13/21/1 15/23/1
f 26/34/1 16/35/1 13/36/1
f 26/37/1 13/21/1 25/33/1
f 27/38/1 17/25/1 16/24/1
f 28/39/1 18/40/1 17/41/1
f 28/42/1 17/25/1 27/38/1
f 29/43/1 19/27/1 18/26/1
f 29/44/1 18/40/1 28/39/1
f 30/45/1 20/46/1 19/47/1
f 30/48/1 19/27/1 29/43/1
f 31/49/1 21/29/1 20/28/1
f 31/50/1 20/46/1 30/45/1
f 32/51/1 21/29/1 31/49/1
f 33/52/1 21/29/1 32/51/1
f 34/53/1 22/54/1 21/55/1
f 34/56/1 21/29/1 33/52/1
f 35/57/1 23/31/1 22/30/1
f 35/58/1 22/54/1 34/53/1
f 36/59/1 24/60/1 23/61/1
f 36/62/1 23/31/1 35/57/1
f 37/63/1 14/22/1 24/32/1
f 37/64/1 24/60/1 36/59/1
f 38/65/1 14/22/1 37/63/1
f 39/66/1 26/34/1 25/67/1
f 40/68/1 16/35/1 26/34/1
f 40/68/1 26/34/1 39/66/1
f 40/69/1 27/38/1 16/24/1
f 41/70/1 28/39/1 27/71/1
f 41/72/1 27/38/1 40/69/1
f 41/70/1 29/44/1 28/39/1
f 41/70/1 30/45/1 29/44/1
f 41/70/1 32/73/1 31/50/1
f 41/70/1 31/50/1 30/45/1
f 42/74/1 33/52/1 32/51/1
f 42/75/1 32/73/1 41/70/1
f 43/76/1 36/59/1 35/58/1
f 43/77/1 33/52/1 42/74/1
f 43/76/1 38/78/1 37/64/1
f 43/76/1 35/58/1 34/53/1
f 43/76/1 34/53/1 33/79/1
f 43/76/1 37/64/1 36/59/1
f 44/80/1 38/78/1 43/76/1
f 45/81/1 46/82/1 47/83/1
f 48/84/1 46/82/1 45/81/1
f 49/85/1 46/82/1 48/84/1
f 50/86/1 51/87/1 46/88/1
f 50/89/1 46/82/1 49/85/1
f 52/90/1 53/91/1 51/92/1
f 54/93/1 53/91/1 52/90/1
f 55/94/1 53/91/1 54/93/1
f 56/95/1 57/96/1 53/97/1
f 56/98/1 53/91/1 55/94/1
f 58/99/1 59/100/1 57/101/1
f 58/102/1 57/96/1 56/95/1
f 60/103/1 59/100/1 58/99/1
f 61/104/1 59/100/1 60/103/1
f 62/105/1 59/100/1 61/104/1
f 63/106/1 45/81/1 47/83/1
f 64/107/1 48/108/1 45/109/1
f 64/110/1 45/81/1 63/106/1
f 65/111/1 49/85/1 48/84/1
f 65/112/1 48/108/1 64/107/1
f 66/113/1 50/86/1 49/114/1
f 66/115/1 49/85/1 65/111/1
f 67/116/1 51/87/1 50/86/1
f 67/116/1 50/86/1 66/113/1
f 67/117/1 52/90/1 51/92/1
f 68/118/1 54/119/1 52/120/1
f 68/121/1 52/90/1 67/117/1
f 69/122/1 55/94/1 54/93/1
f 69/123/1 54/119/1 68/118/1
f 70/124/1 56/95/1 55/125/1
f 70/126/1 55/94/1 69/122/1
f 70/124/1 58/102/1 56/95/1
f 70/124/1 60/127/1 58/102/1
f 71/128/1 61/104/1 60/103/1
f 71/129/1 60/127/1 70/124/1
f 72/130/1 62/131/1 61/132/1
f 72/133/1 61/104/1 71/128/1
f 73/134/1 69/123/1 68/118/1
f 73/134/1 64/107/1 63/135/1
f 73/134/1 72/130/1 71/129/1
f 73/134/1 70/124/1 69/123/1
f 73/134/1 67/116/1 66/113/1
f 73/134/1 71/129/1 70/124/1
f 73/134/1 65/112/1 64/107/1
f 73/134/1 66/113/1 65/112/1
f 73/134/1 68/118/1 67/116/1
f 74/136/1 62/131/1 72/130/1
f 74/136/1 72/130/1 73/134/1
f 75/137/2 76/138/2 77/139/2
f 77/139/2 76/138/2 78/140/2
f 78/140/2 76/138/2 79/141/2
f 79/141/2 76/138/2 80/142/2
f 80/142/2 76/138/2 81/143/2
f 81/143/2 76/138/2 82/144/2
f 82/144/2 76/138/2 83/145/2
f 83/145/2 76/138/2 84/146/2
f 84/146/2 76/138/2 85/147/2
f 85/147/2 76/138/2 86/148/2
f 75/137/2 77/139/2 87/149/2
f 77/150/2 78/151/2 88/152/2
f 87/149/2 77/139/2 88/153/2
f 78/140/2 79/141/2 89/154/2
f 79/155/2 80/156/2 90/157/2
f 89/154/2 79/141/2 90/158/2
f 80/142/2 81/143/2 91/159/2
f 90/157/2 80/156/2 91/160/2
f 81/161/2 82/162/2 92/163/2
f 91/159/2 81/143/2 92/164/2
f 82/144/2 83/145/2 93/165/2
f 92/163/2 82/162/2 93/166/2
f 93/165/2 83/145/2 94/167/2
f 94/167/2 83/145/2 95/168/2
f 83/169/2 84/170/2 96/171/2
f 95/168/2 83/145/2 96/172/2
f 84/146/2 85/147/2 97/173/2
f 96/171/2 84/170/2 97/174/2
f 85/175/2 86/176/2 98/177/2
f 97/173/2 85/147/2 98/178/2
f 86/148/2 76/138/2 99/179/2
f 98/177/2 86/176/2 99/180/2
f 99/179/2 76/138/2 100/181/2
f 87/182/2 88/152/2 101/183/2
f 88/152/2 78/151/2 102/184/2
f 101/183/2 88/152/2 102/184/2
f 78/140/2 89/154/2 102/185/2
f 89/186/2 90/157/2 103/187/2
f 102/185/2 89/154/2 103/188/2
f 90/157/2 91/160/2 103/187/2
f 91/160/2 92/163/2 103/187/2
f 93/166/2 94/189/2 103/187/2
f 92/163/2 93/166/2 103/187/2
f 94/167/2 95/168/2 104/190/2
f 103/187/2 94/189/2 104/191/2
f 97/174/2 98/177/2 105/192/2
f 104/190/2 95/168/2 105/193/2
f 99/180/2 100/194/2 105/192/2
f 96/171/2 97/174/2 105/192/2
f 95/195/2 96/171/2 105/192/2
f 98/177/2 99/180/2 105/192/2
f 105/192/2 100/194/2 106/196/2
f 107/197/2 108/198/2 109/199/2
f 109/199/2 108/198/2 110/200/2
f 110/200/2 108/198/2 111/201/2
f 108/202/2 112/203/2 113/204/2
f 111/201/2 108/198/2 113/205/2
f 112/206/2 114/207/2 115/208/2
f 115/208/2 114/207/2 116/209/2
f 116/209/2 114/207/2 117/210/2
f 114/211/2 118/212/2 119/213/2
f 117/210/2 114/207/2 119/214/2
f 118/215/2 120/216/2 121/217/2
f 119/213/2 118/212/2 121/218/2
f 121/217/2 120/216/2 122/219/2
f 122/219/2 120/216/2 123/220/2
f 123/220/2 120/216/2 124/221/2
f 107/197/2 109/199/2 125/222/2
f 109/223/2 110/224/2 126/225/2
f 125/222/2 109/199/2 126/226/2
f 110/200/2 111/201/2 127/227/2
f 126/225/2 110/224/2 127/228/2
f 111/229/2 113/204/2 128/230/2
f 127/227/2 111/201/2 128/231/2
f 113/204/2 112/203/2 129/232/2
f 128/230/2 113/204/2 129/232/2
f 112/206/2 115/208/2 129/233/2
f 115/234/2 116/235/2 130/236/2
f 129/233/2 115/208/2 130/237/2
f 116/209/2 117/210/2 131/238/2
f 130/236/2 116/235/2 131/239/2
f 117/240/2 119/213/2 132/241/2
f 131/238/2 117/210/2 132/242/2
f 119/213/2 121/218/2 132/241/2
f 121/218/2 122/243/2 132/241/2
f 122/219/2 123/220/2 133/244/2
f 132/241/2 122/243/2 133/245/2
f 123/246/2 124/247/2 134/248/2
f 133/244/2 123/220/2 134/249/2
f 130/236/2 131/239/2 135/250/2
f 125/251/2 126/225/2 135/250/2
f 133/245/2 134/248/2 135/250/2
f 131/239/2 132/241/2 135/250/2
f 128/230/2 129/232/2 135/250/2
f 132/241/2 133/245/2 135/250/2
f 126/225/2 127/228/2 135/250/2
f 127/228/2 128/230/2 135/250/2
f 129/232/2 130/236/2 135/250/2
f 134/248/2 124/247/2 136/252/2
f 135/250/2 134/248/2 136/252/2
f 137/253/2 138/254/2 139/255/2
f 139/255/2 138/254/2 140/256/2
f 137/253/2 139/255/2 141/257/2
f 139/258/2 140/259/2 142/260/2
f 141/257/2 139/255/2 142/261/2
f 141/262/2 142/260/2 143/263/2
f 142/260/2 140/259/2 143/263/2
f 143/263/2 140/259/2 144/264/2
f 141/262/2 143/263/2 145/265/2
f 143/266/2 144/267/2 146/268/2
f 145/265/2 143/263/2 146/269/2
f 145/270/2 146/268/2 147/271/2
f 146/268/2 144/267/2 148/272/2
f 147/271/2 146/268/2 148/272/2
f 149/273/3 150/274/3 151/275/3
f 152/276/3 153/277/3 150/278/3
f 152/279/3 150/274/3 149/273/3
f 154/280/3 153/277/3 152/276/3
f 155/281/3 156/282/3 157/283/3
f 158/284/3 159/285/3 156/286/3
f 158/287/3 156/282/3 155/281/3
f 160/288/3 159/285/3 158/284/3
f 161/289/3 162/290/3 163/291/3
f 164/292/3 165/293/3 162/294/3
f 164/295/3 162/290/3 161/289/3
f 166/296/3 165/293/3 164/292/3
f 167/297/3 165/293/3 166/296/3
f 168/298/3 165/293/3 167/297/3
f 169/299/3 165/293/3 168/298/3
f 170/300/3 165/293/3 169/299/3
f 171/301/3 165/293/3 170/300/3
f 172/302/3 173/303/3 165/304/3
f 172/305/3 165/293/3 171/301/3
f 174/306/3 161/289/3 163/291/3
f 174/307/3 164/292/3 161/308/3
f 174/307/3 166/296/3 164/292/3
f 175/309/3 166/296/3 174/307/3
f 176/310/3 166/296/3 175/309/3
f 177/311/3 169/299/3 168/298/3
f 178/312/3 169/299/3 177/311/3
f 179/313/3 172/302/3 171/314/3
f 180/315/3 173/303/3 172/302/3
f 180/315/3 172/302/3 179/313/3
f 181/316/3 174/306/3 163/291/3
f 181/316/3 175/317/3 174/306/3
f 182/318/3 179/319/3 183/320/3
f 182/321/3 175/317/3 181/316/3
f 182/318/3 183/320/3 178/312/3
f 182/318/3 184/322/3 176/310/3
f 182/318/3 178/312/3 177/311/3
f 182/318/3 177/311/3 184/322/3
f 182/318/3 180/323/3 179/319/3
f 182/318/3 176/310/3 175/309/3
f 185/324/3 173/303/3 180/315/3
f 185/325/3 180/323/3 182/318/3
f 186/326/3 173/303/3 185/324/3
f 187/327/4 188/328/4 189/329/4
f 188/330/4 190/331/4 189/332/4
f 189/332/4 190/331/4 191/333/4
f 190/334/4 192/335/4 193/336/4
f 191/333/4 190/331/4 193/337/4
f 193/336/4 192/335/4 194/338/4
f 189/329/4 191/339/4 195/340/4
f 187/327/4 189/329/4 195/340/4
f 193/337/4 194/341/4 196/342/4
f 195/340/4 191/339/4 196/343/4
f 191/333/4 193/337/4 196/342/4
f 196/342/4 194/341/4 197/344/4
f 194/338/4 192/335/4 198/345/4
f 197/344/4 194/341/4 198/346/4
f 187/327/4 195/340/4 199/347/4
f 196/342/4 197/344/4 200/348/4
f 199/347/4 195/340/4 200/349/4
f 195/350/4 196/342/4 200/348/4
f 197/351/4 198/345/4 201/352/4
f 200/348/4 197/344/4 201/353/4
f 198/345/4 192/335/4 202/354/4
f 201/352/4 198/345/4 202/354/4
f 203/355/5 204/356/5 205/357/5
f 206/358/5 204/356/5 203/355/5
f 207/359/5 208/360/5 209/361/5
f 210/362/5 208/360/5 207/359/5
f 211/363/5 212/364/5 213/365/5
f 214/366/5 212/364/5 211/363/5
f 215/367/5 214/368/5 211/369/5
f 216/370/5 214/368/5 215/367/5
f 217/371/5 216/372/5 215/373/5
f 218/374/5 216/372/5 217/371/5
f 219/375/5 218/376/5 217/377/5
f 220/378/5 218/376/5 219/375/5
f 221/379/5 220/380/5 219/381/5
f 222/382/5 220/380/5 221/379/5
f 223/383/6 224/384/6 225/385/6
f 225/385/6 224/384/6 226/386/6
f 225/387/6 226/388/6 227/389/6
f 227/389/6 226/388/6 228/390/6
f 227/391/6 228/392/6 229/393/6
f 229/393/6 228/392/6 230/394/6
f 229/395/6 230/396/6 231/397/6
f 231/397/6 230/396/6 232/398/6
f 231/399/6 232/400/6 233/401/6
f 233/401/6 232/400/6 234/402/6
f 235/403/6 236/404/6 237/405/6
f 237/405/6 236/404/6 238/406/6
f 239/407/6 240/408/6 241/409/6
f 241/409/6 240/408/6 242/410/6
