# Blender v2.93.0 OBJ File: ''
# www.blender.org
mtllib TVS_VoxelFarm_BlueberryBush.mtl
o VS_Farm_Blueberry_Bush
v -0.700000 0.700000 0.005690
v -0.700000 0.600000 -0.194310
v -0.700000 0.600000 0.005690
v -0.700000 0.700000 -0.194310
v -0.700000 0.800000 0.005690
v -0.700000 0.800000 -0.194310
v -0.600000 0.500000 0.205690
v -0.600000 0.400000 -0.294310
v -0.600000 0.400000 0.305690
v -0.600000 0.500000 0.105690
v -0.600000 0.500000 -0.094310
v -0.600000 0.500000 -0.194310
v -0.600000 0.600000 0.305690
v -0.600000 0.600000 0.205690
v -0.600000 0.600000 0.005690
v -0.600000 0.600000 -0.094310
v -0.600000 0.600000 -0.194310
v -0.600000 0.600000 -0.294310
v -0.600000 0.700000 0.105690
v -0.600000 0.700000 0.005690
v -0.600000 0.700000 -0.194310
v -0.600000 0.800000 0.205690
v -0.600000 0.800000 0.105690
v -0.600000 0.800000 0.005690
v -0.600000 0.800000 -0.194310
v -0.600000 0.900000 0.305690
v -0.600000 0.900000 0.205690
v -0.600000 0.900000 0.105690
v -0.600000 0.800000 -0.094310
v -0.600000 0.900000 -0.094310
v -0.600000 0.900000 -0.194310
v -0.600000 0.900000 -0.294310
v -0.600000 1.000000 0.305690
v -0.600000 1.000000 -0.294310
v -0.500000 0.400000 0.205690
v -0.500000 0.300000 -0.194310
v -0.500000 0.300000 0.205690
v -0.500000 0.400000 -0.194310
v -0.500000 0.500000 0.405690
v -0.500000 0.400000 0.305690
v -0.500000 0.400000 0.405690
v -0.500000 0.500000 0.305690
v -0.500000 0.500000 -0.294310
v -0.500000 0.400000 -0.394310
v -0.500000 0.400000 -0.294310
v -0.500000 0.500000 -0.394310
v -0.500000 0.600000 0.305690
v -0.500000 0.600000 -0.294310
v -0.500000 0.800000 0.405690
v -0.500000 0.800000 0.305690
v -0.500000 0.800000 -0.294310
v -0.500000 0.800000 -0.394310
v -0.500000 0.900000 0.305690
v -0.500000 0.900000 -0.294310
v -0.500000 1.000000 0.405690
v -0.500000 1.000000 0.305690
v -0.500000 1.000000 -0.294310
v -0.500000 1.000000 -0.394310
v -0.500000 1.100000 0.205690
v -0.500000 1.000000 -0.194310
v -0.500000 1.000000 0.205690
v -0.500000 1.100000 -0.194310
v -0.400000 0.100000 0.105690
v -0.400000 -0.000000 -0.094310
v -0.400000 -0.000000 0.105690
v -0.400000 0.100000 -0.094310
v -0.400000 0.400000 0.305690
v -0.400000 0.300000 0.205690
v -0.400000 0.300000 0.305690
v -0.400000 0.400000 0.205690
v -0.400000 0.400000 -0.194310
v -0.400000 0.300000 -0.294310
v -0.400000 0.300000 -0.194310
v -0.400000 0.400000 -0.294310
v -0.400000 1.100000 0.305690
v -0.400000 1.000000 0.205690
v -0.400000 1.000000 0.305690
v -0.400000 1.100000 0.205690
v -0.400000 1.100000 -0.194310
v -0.400000 1.000000 -0.294310
v -0.400000 1.000000 -0.194310
v -0.400000 1.100000 -0.294310
v -0.300000 0.100000 0.205690
v -0.300000 -0.000000 0.105690
v -0.300000 -0.000000 0.205690
v -0.300000 0.100000 0.105690
v -0.300000 0.100000 -0.094310
v -0.300000 -0.000000 -0.194310
v -0.300000 -0.000000 -0.094310
v -0.300000 0.100000 -0.194310
v -0.300000 0.300000 0.105690
v -0.300000 0.300000 -0.094310
v -0.300000 0.600000 -0.394310
v -0.300000 0.500000 -0.494310
v -0.300000 0.500000 -0.394310
v -0.300000 0.600000 -0.494310
v -0.300000 0.700000 -0.394310
v -0.300000 0.700000 -0.494310
v -0.200000 0.600000 0.505690
v -0.200000 0.500000 0.405690
v -0.200000 0.500000 0.505690
v -0.200000 0.600000 0.405690
v -0.200000 0.700000 0.505690
v -0.200000 0.700000 0.405690
v -0.100000 -0.000000 0.205690
v -0.100000 -0.000000 0.105690
v -0.100000 0.100000 0.205690
v -0.100000 0.100000 0.105690
v -0.100000 -0.000000 -0.094310
v -0.100000 -0.000000 -0.194310
v -0.100000 0.100000 -0.094310
v -0.100000 0.100000 -0.194310
v -0.100000 0.300000 0.105690
v -0.100000 0.300000 -0.094310
v -0.100000 0.500000 -0.394310
v -0.100000 0.500000 -0.494310
v -0.100000 0.600000 -0.394310
v -0.100000 0.600000 -0.494310
v -0.100000 0.700000 -0.394310
v -0.100000 0.700000 -0.494310
v 0.000000 -0.000000 0.105690
v 0.000000 -0.000000 -0.094310
v 0.000000 0.100000 0.105690
v 0.000000 0.100000 -0.094310
v 0.000000 0.300000 0.305690
v 0.000000 0.300000 0.205690
v 0.000000 0.400000 0.305690
v 0.000000 0.400000 0.205690
v 0.000000 0.300000 -0.194310
v 0.000000 0.300000 -0.294310
v 0.000000 0.400000 -0.194310
v 0.000000 0.400000 -0.294310
v 0.000000 0.500000 0.505690
v 0.000000 0.500000 0.405690
v 0.000000 0.600000 0.505690
v 0.000000 0.600000 0.405690
v 0.000000 0.700000 0.505690
v 0.000000 0.700000 0.405690
v 0.000000 1.000000 0.305690
v 0.000000 1.000000 0.205690
v 0.000000 1.100000 0.305690
v 0.000000 1.100000 0.205690
v 0.000000 1.000000 -0.194310
v 0.000000 1.000000 -0.294310
v 0.000000 1.100000 -0.194310
v 0.000000 1.100000 -0.294310
v 0.100000 0.300000 0.205690
v 0.100000 0.300000 -0.194310
v 0.100000 0.400000 0.205690
v 0.100000 0.400000 -0.194310
v 0.100000 0.400000 0.405690
v 0.100000 0.400000 0.305690
v 0.100000 0.500000 0.405690
v 0.100000 0.500000 0.305690
v 0.100000 0.400000 -0.294310
v 0.100000 0.400000 -0.394310
v 0.100000 0.500000 -0.294310
v 0.100000 0.500000 -0.394310
v 0.100000 0.800000 0.405690
v 0.100000 0.800000 0.305690
v 0.100000 0.800000 -0.294310
v 0.100000 0.800000 -0.394310
v 0.100000 0.900000 0.305690
v 0.100000 0.900000 -0.294310
v 0.100000 1.000000 0.405690
v 0.100000 1.000000 0.305690
v 0.100000 1.000000 -0.294310
v 0.100000 1.000000 -0.394310
v 0.100000 1.000000 0.205690
v 0.100000 1.000000 -0.194310
v 0.100000 1.100000 0.205690
v 0.100000 1.100000 -0.194310
v 0.200000 0.400000 0.305690
v 0.200000 0.400000 -0.294310
v 0.200000 0.500000 0.305690
v 0.200000 0.500000 0.205690
v 0.200000 0.500000 0.005690
v 0.200000 0.500000 -0.094310
v 0.200000 0.500000 -0.194310
v 0.200000 0.500000 -0.294310
v 0.200000 0.600000 0.205690
v 0.200000 0.600000 0.105690
v 0.200000 0.600000 -0.094310
v 0.200000 0.600000 -0.194310
v 0.200000 0.700000 0.205690
v 0.200000 0.700000 0.105690
v 0.200000 0.700000 0.005690
v 0.200000 0.800000 0.205690
v 0.200000 0.800000 0.005690
v 0.200000 0.800000 -0.094310
v 0.200000 0.800000 -0.194310
v 0.200000 0.900000 0.305690
v 0.200000 0.900000 0.205690
v 0.200000 0.900000 0.005690
v 0.200000 0.900000 -0.094310
v 0.200000 0.900000 -0.194310
v 0.200000 0.900000 -0.294310
v 0.200000 1.000000 0.305690
v 0.200000 1.000000 -0.294310
v 0.300000 0.700000 0.205690
v 0.300000 0.700000 0.005690
v 0.300000 0.800000 0.205690
v 0.300000 0.800000 0.005690
v 0.300000 0.900000 0.205690
v 0.300000 0.900000 0.005690
v 0.000000 0.500000 0.505690
v -0.200000 0.600000 0.505690
v -0.200000 0.500000 0.505690
v 0.000000 0.600000 0.505690
v -0.200000 0.700000 0.505690
v 0.000000 0.700000 0.505690
v -0.400000 0.500000 0.405690
v -0.500000 0.500000 0.405690
v -0.500000 0.400000 0.405690
v -0.500000 0.800000 0.405690
v -0.400000 0.600000 0.405690
v -0.400000 0.800000 0.405690
v -0.500000 1.000000 0.405690
v -0.400000 0.900000 0.405690
v -0.300000 0.500000 0.405690
v -0.300000 0.600000 0.405690
v -0.300000 0.700000 0.405690
v -0.300000 0.900000 0.405690
v -0.200000 0.500000 0.405690
v -0.200000 0.600000 0.405690
v -0.200000 0.700000 0.405690
v -0.200000 0.800000 0.405690
v -0.100000 0.800000 0.405690
v -0.100000 0.900000 0.405690
v 0.000000 0.500000 0.405690
v 0.000000 0.700000 0.405690
v 0.000000 0.800000 0.405690
v 0.000000 0.900000 0.405690
v 0.100000 0.400000 0.405690
v 0.100000 0.500000 0.405690
v 0.000000 0.600000 0.405690
v 0.100000 0.800000 0.405690
v 0.100000 1.000000 0.405690
v -0.500000 0.400000 0.305690
v -0.600000 0.600000 0.305690
v -0.600000 0.400000 0.305690
v -0.500000 0.500000 0.305690
v -0.500000 0.600000 0.305690
v -0.600000 0.900000 0.305690
v -0.500000 0.800000 0.305690
v -0.500000 0.900000 0.305690
v -0.600000 1.000000 0.305690
v -0.500000 1.000000 0.305690
v 0.000000 0.300000 0.305690
v -0.400000 0.400000 0.305690
v -0.400000 0.300000 0.305690
v 0.000000 0.400000 0.305690
v 0.000000 1.000000 0.305690
v -0.400000 1.100000 0.305690
v -0.400000 1.000000 0.305690
v 0.000000 1.100000 0.305690
v 0.200000 0.400000 0.305690
v 0.100000 0.500000 0.305690
v 0.100000 0.400000 0.305690
v 0.200000 0.500000 0.305690
v 0.100000 0.800000 0.305690
v 0.100000 0.900000 0.305690
v 0.200000 0.900000 0.305690
v 0.100000 1.000000 0.305690
v 0.200000 1.000000 0.305690
v -0.400000 0.300000 0.205690
v -0.500000 0.400000 0.205690
v -0.500000 0.300000 0.205690
v -0.400000 0.400000 0.205690
v -0.400000 1.000000 0.205690
v -0.500000 1.100000 0.205690
v -0.500000 1.000000 0.205690
v -0.400000 1.100000 0.205690
v -0.100000 -0.000000 0.205690
v -0.300000 0.100000 0.205690
v -0.300000 -0.000000 0.205690
v -0.100000 0.100000 0.205690
v 0.100000 0.300000 0.205690
v 0.000000 0.400000 0.205690
v 0.000000 0.300000 0.205690
v 0.100000 0.400000 0.205690
v 0.100000 1.000000 0.205690
v 0.000000 1.100000 0.205690
v 0.000000 1.000000 0.205690
v 0.100000 1.100000 0.205690
v 0.300000 0.700000 0.205690
v 0.200000 0.800000 0.205690
v 0.200000 0.700000 0.205690
v 0.300000 0.800000 0.205690
v 0.200000 0.900000 0.205690
v 0.300000 0.900000 0.205690
v -0.300000 -0.000000 0.105690
v -0.400000 0.100000 0.105690
v -0.400000 -0.000000 0.105690
v -0.300000 0.100000 0.105690
v -0.100000 0.100000 0.105690
v -0.300000 0.300000 0.105690
v -0.100000 0.300000 0.105690
v 0.000000 -0.000000 0.105690
v -0.100000 -0.000000 0.105690
v 0.000000 0.100000 0.105690
v -0.600000 0.600000 0.005690
v -0.700000 0.700000 0.005690
v -0.700000 0.600000 0.005690
v -0.600000 0.700000 0.005690
v -0.700000 0.800000 0.005690
v -0.600000 0.800000 0.005690
v 0.200000 0.700000 0.005690
v 0.200000 0.800000 0.005690
v 0.300000 0.700000 0.005690
v 0.200000 0.900000 0.005690
v 0.300000 0.800000 0.005690
v 0.300000 0.900000 0.005690
v -0.400000 -0.000000 -0.094310
v -0.400000 0.100000 -0.094310
v -0.300000 -0.000000 -0.094310
v -0.300000 0.100000 -0.094310
v -0.300000 0.300000 -0.094310
v -0.100000 0.100000 -0.094310
v -0.100000 0.300000 -0.094310
v -0.100000 -0.000000 -0.094310
v 0.000000 -0.000000 -0.094310
v 0.000000 0.100000 -0.094310
v -0.700000 0.600000 -0.194310
v -0.700000 0.700000 -0.194310
v -0.600000 0.600000 -0.194310
v -0.700000 0.800000 -0.194310
v -0.600000 0.700000 -0.194310
v -0.600000 0.800000 -0.194310
v -0.500000 0.300000 -0.194310
v -0.500000 0.400000 -0.194310
v -0.400000 0.300000 -0.194310
v -0.400000 0.400000 -0.194310
v -0.500000 1.000000 -0.194310
v -0.500000 1.100000 -0.194310
v -0.400000 1.000000 -0.194310
v -0.400000 1.100000 -0.194310
v -0.300000 -0.000000 -0.194310
v -0.300000 0.100000 -0.194310
v -0.100000 -0.000000 -0.194310
v -0.100000 0.100000 -0.194310
v 0.000000 0.300000 -0.194310
v 0.000000 0.400000 -0.194310
v 0.100000 0.300000 -0.194310
v 0.100000 0.400000 -0.194310
v 0.000000 1.000000 -0.194310
v 0.000000 1.100000 -0.194310
v 0.100000 1.000000 -0.194310
v 0.100000 1.100000 -0.194310
v -0.600000 0.400000 -0.294310
v -0.600000 0.600000 -0.294310
v -0.500000 0.400000 -0.294310
v -0.500000 0.500000 -0.294310
v -0.600000 0.900000 -0.294310
v -0.500000 0.600000 -0.294310
v -0.500000 0.800000 -0.294310
v -0.600000 1.000000 -0.294310
v -0.500000 0.900000 -0.294310
v -0.500000 1.000000 -0.294310
v -0.400000 0.300000 -0.294310
v -0.400000 0.400000 -0.294310
v 0.000000 0.300000 -0.294310
v 0.000000 0.400000 -0.294310
v -0.400000 1.000000 -0.294310
v -0.400000 1.100000 -0.294310
v 0.000000 1.000000 -0.294310
v 0.000000 1.100000 -0.294310
v 0.100000 0.400000 -0.294310
v 0.100000 0.500000 -0.294310
v 0.200000 0.400000 -0.294310
v 0.100000 0.800000 -0.294310
v 0.200000 0.500000 -0.294310
v 0.100000 0.900000 -0.294310
v 0.100000 1.000000 -0.294310
v 0.200000 0.900000 -0.294310
v 0.200000 1.000000 -0.294310
v -0.500000 0.400000 -0.394310
v -0.500000 0.500000 -0.394310
v -0.400000 0.500000 -0.394310
v -0.500000 0.800000 -0.394310
v -0.400000 0.600000 -0.394310
v -0.500000 1.000000 -0.394310
v -0.400000 0.800000 -0.394310
v -0.400000 0.900000 -0.394310
v -0.300000 0.500000 -0.394310
v -0.300000 0.600000 -0.394310
v -0.300000 0.700000 -0.394310
v -0.300000 0.900000 -0.394310
v -0.200000 0.700000 -0.394310
v -0.200000 0.800000 -0.394310
v -0.100000 0.500000 -0.394310
v -0.100000 0.700000 -0.394310
v -0.100000 0.800000 -0.394310
v -0.100000 0.900000 -0.394310
v -0.100000 0.600000 -0.394310
v 0.000000 0.500000 -0.394310
v 0.000000 0.600000 -0.394310
v 0.000000 0.800000 -0.394310
v 0.000000 0.900000 -0.394310
v 0.100000 0.400000 -0.394310
v 0.100000 0.500000 -0.394310
v 0.100000 0.800000 -0.394310
v 0.100000 1.000000 -0.394310
v -0.300000 0.500000 -0.494310
v -0.300000 0.600000 -0.494310
v -0.100000 0.500000 -0.494310
v -0.300000 0.700000 -0.494310
v -0.100000 0.600000 -0.494310
v -0.100000 0.700000 -0.494310
v -0.300000 -0.000000 0.105690
v -0.100000 -0.000000 0.205690
v -0.300000 -0.000000 0.205690
v -0.100000 -0.000000 0.105690
v -0.400000 -0.000000 -0.094310
v -0.400000 -0.000000 0.105690
v 0.000000 -0.000000 0.105690
v -0.300000 -0.000000 -0.094310
v -0.100000 -0.000000 -0.094310
v 0.000000 -0.000000 -0.094310
v -0.300000 -0.000000 -0.194310
v -0.100000 -0.000000 -0.194310
v -0.400000 0.300000 0.205690
v 0.000000 0.300000 0.305690
v -0.400000 0.300000 0.305690
v 0.000000 0.300000 0.205690
v -0.300000 0.300000 0.105690
v -0.500000 0.300000 0.205690
v 0.100000 0.300000 0.205690
v -0.100000 0.300000 0.105690
v -0.300000 0.300000 -0.094310
v -0.100000 0.300000 -0.094310
v -0.500000 0.300000 -0.194310
v -0.400000 0.300000 -0.194310
v 0.000000 0.300000 -0.194310
v 0.100000 0.300000 -0.194310
v -0.400000 0.300000 -0.294310
v 0.000000 0.300000 -0.294310
v -0.500000 0.400000 0.305690
v 0.100000 0.400000 0.405690
v -0.500000 0.400000 0.405690
v -0.400000 0.400000 0.305690
v 0.000000 0.400000 0.305690
v 0.100000 0.400000 0.305690
v -0.500000 0.400000 0.205690
v -0.600000 0.400000 0.305690
v -0.400000 0.400000 0.205690
v 0.000000 0.400000 0.205690
v 0.200000 0.400000 0.305690
v 0.100000 0.400000 0.205690
v -0.500000 0.400000 -0.194310
v 0.100000 0.400000 -0.194310
v -0.600000 0.400000 -0.294310
v -0.400000 0.400000 -0.194310
v -0.500000 0.400000 -0.294310
v -0.400000 0.400000 -0.294310
v 0.000000 0.400000 -0.294310
v 0.000000 0.400000 -0.194310
v 0.100000 0.400000 -0.294310
v 0.200000 0.400000 -0.294310
v -0.500000 0.400000 -0.394310
v 0.100000 0.400000 -0.394310
v -0.200000 0.500000 0.405690
v 0.000000 0.500000 0.505690
v -0.200000 0.500000 0.505690
v 0.000000 0.500000 0.405690
v -0.300000 0.500000 -0.494310
v -0.100000 0.500000 -0.394310
v -0.300000 0.500000 -0.394310
v -0.100000 0.500000 -0.494310
v -0.600000 0.600000 -0.094310
v -0.600000 0.600000 0.005690
v -0.700000 0.600000 0.005690
v -0.700000 0.600000 -0.194310
v -0.600000 0.600000 -0.194310
v 0.200000 0.700000 0.105690
v 0.300000 0.700000 0.205690
v 0.200000 0.700000 0.205690
v 0.200000 0.700000 0.005690
v 0.300000 0.700000 0.005690
v -0.300000 0.100000 0.205690
v -0.100000 0.100000 0.205690
v -0.300000 0.100000 0.105690
v -0.100000 0.100000 0.105690
v -0.400000 0.100000 0.105690
v -0.400000 0.100000 -0.094310
v -0.300000 0.100000 -0.094310
v 0.000000 0.100000 0.105690
v -0.100000 0.100000 -0.094310
v 0.000000 0.100000 -0.094310
v -0.300000 0.100000 -0.194310
v -0.100000 0.100000 -0.194310
v -0.200000 0.700000 0.505690
v 0.000000 0.700000 0.505690
v -0.200000 0.700000 0.405690
v 0.000000 0.700000 0.405690
v -0.300000 0.700000 -0.394310
v -0.200000 0.700000 -0.394310
v -0.300000 0.700000 -0.494310
v -0.100000 0.700000 -0.394310
v -0.100000 0.700000 -0.494310
v -0.700000 0.800000 0.005690
v -0.600000 0.800000 0.005690
v -0.600000 0.800000 -0.094310
v -0.700000 0.800000 -0.194310
v -0.600000 0.800000 -0.194310
v 0.200000 0.900000 0.205690
v 0.300000 0.900000 0.205690
v 0.200000 0.900000 0.005690
v 0.300000 0.900000 0.005690
v -0.500000 1.000000 0.405690
v 0.100000 1.000000 0.405690
v -0.500000 1.000000 0.305690
v -0.400000 1.000000 0.305690
v 0.000000 1.000000 0.305690
v 0.100000 1.000000 0.305690
v -0.600000 1.000000 0.305690
v -0.500000 1.000000 0.205690
v -0.400000 1.000000 0.205690
v 0.200000 1.000000 0.305690
v 0.000000 1.000000 0.205690
v 0.100000 1.000000 0.205690
v -0.500000 1.000000 -0.194310
v 0.100000 1.000000 -0.194310
v -0.400000 1.000000 -0.194310
v -0.600000 1.000000 -0.294310
v -0.500000 1.000000 -0.294310
v -0.400000 1.000000 -0.294310
v 0.000000 1.000000 -0.194310
v 0.000000 1.000000 -0.294310
v 0.100000 1.000000 -0.294310
v 0.200000 1.000000 -0.294310
v -0.500000 1.000000 -0.394310
v 0.100000 1.000000 -0.394310
v -0.400000 1.100000 0.305690
v 0.000000 1.100000 0.305690
v -0.400000 1.100000 0.205690
v 0.000000 1.100000 0.205690
v -0.500000 1.100000 0.205690
v -0.500000 1.100000 -0.194310
v 0.100000 1.100000 0.205690
v -0.400000 1.100000 -0.194310
v 0.000000 1.100000 -0.194310
v 0.100000 1.100000 -0.194310
v -0.400000 1.100000 -0.294310
v 0.000000 1.100000 -0.294310
vt 0.779297 0.500000
vt 0.779297 0.500000
vt 0.779297 0.500000
vt 0.779297 0.500000
vt 0.775391 0.500000
vt 0.775391 0.500000
vt 0.775391 0.500000
vt 0.775391 0.500000
vt 0.755859 0.500000
vt 0.755859 0.500000
vt 0.755859 0.500000
vt 0.755859 0.500000
vt 0.755859 0.500000
vt 0.755859 0.500000
vt 0.755859 0.500000
vt 0.751953 0.500000
vt 0.751953 0.500000
vt 0.751953 0.500000
vt 0.755859 0.500000
vt 0.755859 0.500000
vt 0.751953 0.500000
vt 0.751953 0.500000
vt 0.751953 0.500000
vt 0.755859 0.500000
vt 0.755859 0.500000
vt 0.751953 0.500000
vt 0.755859 0.500000
vt 0.751953 0.500000
vt 0.755859 0.500000
vt 0.751953 0.500000
vt 0.755859 0.500000
vt 0.751953 0.500000
vt 0.751953 0.500000
vt 0.751953 0.500000
vt 0.751953 0.500000
vt 0.751953 0.500000
vt 0.751953 0.500000
vt 0.751953 0.500000
vt 0.751953 0.500000
vt 0.759766 0.500000
vt 0.759766 0.500000
vt 0.759766 0.500000
vt 0.751953 0.500000
vt 0.751953 0.500000
vt 0.751953 0.500000
vt 0.759766 0.500000
vt 0.759766 0.500000
vt 0.759766 0.500000
vt 0.759766 0.500000
vt 0.751953 0.500000
vt 0.751953 0.500000
vt 0.759766 0.500000
vt 0.751953 0.500000
vt 0.759766 0.500000
vt 0.759766 0.500000
vt 0.759766 0.500000
vt 0.759766 0.500000
vt 0.755859 0.500000
vt 0.755859 0.500000
vt 0.755859 0.500000
vt 0.755859 0.500000
vt 0.755859 0.500000
vt 0.755859 0.500000
vt 0.755859 0.500000
vt 0.755859 0.500000
vt 0.755859 0.500000
vt 0.755859 0.500000
vt 0.755859 0.500000
vt 0.755859 0.500000
vt 0.751953 0.500000
vt 0.751953 0.500000
vt 0.751953 0.500000
vt 0.751953 0.500000
vt 0.751953 0.500000
vt 0.751953 0.500000
vt 0.751953 0.500000
vt 0.751953 0.500000
vt 0.751953 0.500000
vt 0.751953 0.500000
vt 0.759766 0.500000
vt 0.759766 0.500000
vt 0.759766 0.500000
vt 0.759766 0.500000
vt 0.759766 0.500000
vt 0.759766 0.500000
vt 0.759766 0.500000
vt 0.759766 0.500000
vt 0.759766 0.500000
vt 0.759766 0.500000
vt 0.759766 0.500000
vt 0.759766 0.500000
vt 0.759766 0.500000
vt 0.759766 0.500000
vt 0.001953 0.500000
vt 0.001953 0.500000
vt 0.001953 0.500000
vt 0.001953 0.500000
vt 0.755859 0.500000
vt 0.755859 0.500000
vt 0.755859 0.500000
vt 0.755859 0.500000
vt 0.755859 0.500000
vt 0.755859 0.500000
vt 0.755859 0.500000
vt 0.755859 0.500000
vt 0.759766 0.500000
vt 0.759766 0.500000
vt 0.759766 0.500000
vt 0.759766 0.500000
vt 0.759766 0.500000
vt 0.759766 0.500000
vt 0.759766 0.500000
vt 0.759766 0.500000
vt 0.001953 0.500000
vt 0.001953 0.500000
vt 0.001953 0.500000
vt 0.001953 0.500000
vt 0.001953 0.500000
vt 0.001953 0.500000
vt 0.001953 0.500000
vt 0.001953 0.500000
vt 0.001953 0.500000
vt 0.001953 0.500000
vt 0.779297 0.500000
vt 0.779297 0.500000
vt 0.779297 0.500000
vt 0.779297 0.500000
vt 0.775391 0.500000
vt 0.775391 0.500000
vt 0.775391 0.500000
vt 0.775391 0.500000
vt 0.779297 0.500000
vt 0.779297 0.500000
vt 0.779297 0.500000
vt 0.779297 0.500000
vt 0.775391 0.500000
vt 0.775391 0.500000
vt 0.775391 0.500000
vt 0.775391 0.500000
vt 0.001953 0.500000
vt 0.001953 0.500000
vt 0.001953 0.500000
vt 0.001953 0.500000
vt 0.001953 0.500000
vt 0.001953 0.500000
vt 0.001953 0.500000
vt 0.001953 0.500000
vt 0.001953 0.500000
vt 0.001953 0.500000
vt 0.779297 0.500000
vt 0.779297 0.500000
vt 0.779297 0.500000
vt 0.779297 0.500000
vt 0.775391 0.500000
vt 0.775391 0.500000
vt 0.775391 0.500000
vt 0.775391 0.500000
vt 0.001953 0.500000
vt 0.001953 0.500000
vt 0.001953 0.500000
vt 0.001953 0.500000
vt 0.755859 0.500000
vt 0.755859 0.500000
vt 0.755859 0.500000
vt 0.755859 0.500000
vt 0.755859 0.500000
vt 0.755859 0.500000
vt 0.755859 0.500000
vt 0.755859 0.500000
vt 0.779297 0.500000
vt 0.779297 0.500000
vt 0.779297 0.500000
vt 0.779297 0.500000
vt 0.775391 0.500000
vt 0.775391 0.500000
vt 0.775391 0.500000
vt 0.775391 0.500000
vt 0.759766 0.500000
vt 0.759766 0.500000
vt 0.759766 0.500000
vt 0.759766 0.500000
vt 0.759766 0.500000
vt 0.759766 0.500000
vt 0.759766 0.500000
vt 0.759766 0.500000
vt 0.755859 0.500000
vt 0.755859 0.500000
vt 0.755859 0.500000
vt 0.755859 0.500000
vt 0.755859 0.500000
vt 0.755859 0.500000
vt 0.755859 0.500000
vt 0.755859 0.500000
vt 0.755859 0.500000
vt 0.755859 0.500000
vt 0.755859 0.500000
vt 0.755859 0.500000
vt 0.751953 0.500000
vt 0.751953 0.500000
vt 0.751953 0.500000
vt 0.751953 0.500000
vt 0.751953 0.500000
vt 0.751953 0.500000
vt 0.751953 0.500000
vt 0.751953 0.500000
vt 0.759766 0.500000
vt 0.759766 0.500000
vt 0.759766 0.500000
vt 0.759766 0.500000
vt 0.759766 0.500000
vt 0.759766 0.500000
vt 0.759766 0.500000
vt 0.759766 0.500000
vt 0.759766 0.500000
vt 0.759766 0.500000
vt 0.759766 0.500000
vt 0.759766 0.500000
vt 0.759766 0.500000
vt 0.759766 0.500000
vt 0.755859 0.500000
vt 0.755859 0.500000
vt 0.755859 0.500000
vt 0.755859 0.500000
vt 0.755859 0.500000
vt 0.755859 0.500000
vt 0.755859 0.500000
vt 0.755859 0.500000
vt 0.751953 0.500000
vt 0.751953 0.500000
vt 0.751953 0.500000
vt 0.755859 0.500000
vt 0.755859 0.500000
vt 0.751953 0.500000
vt 0.751953 0.500000
vt 0.751953 0.500000
vt 0.755859 0.500000
vt 0.751953 0.500000
vt 0.751953 0.500000
vt 0.751953 0.500000
vt 0.755859 0.500000
vt 0.751953 0.500000
vt 0.751953 0.500000
vt 0.755859 0.500000
vt 0.751953 0.500000
vt 0.751953 0.500000
vt 0.755859 0.500000
vt 0.751953 0.500000
vt 0.751953 0.500000
vt 0.751953 0.500000
vt 0.751953 0.500000
vt 0.751953 0.500000
vt 0.751953 0.500000
vt 0.751953 0.500000
vt 0.759766 0.500000
vt 0.759766 0.500000
vt 0.759766 0.500000
vt 0.751953 0.500000
vt 0.751953 0.500000
vt 0.759766 0.500000
vt 0.751953 0.500000
vt 0.759766 0.500000
vt 0.759766 0.500000
vt 0.759766 0.500000
vt 0.759766 0.500000
vt 0.759766 0.500000
vt 0.759766 0.500000
vt 0.779297 0.500000
vt 0.779297 0.500000
vt 0.779297 0.500000
vt 0.779297 0.500000
vt 0.775391 0.500000
vt 0.775391 0.500000
vt 0.775391 0.500000
vt 0.775391 0.500000
vt 0.779297 0.500000
vt 0.779297 0.500000
vt 0.779297 0.500000
vt 0.775391 0.500000
vt 0.775391 0.500000
vt 0.775391 0.500000
vt 0.779297 0.500000
vt 0.775391 0.500000
vt 0.755859 0.500000
vt 0.755859 0.500000
vt 0.755859 0.500000
vt 0.751953 0.500000
vt 0.751953 0.500000
vt 0.751953 0.500000
vt 0.751953 0.500000
vt 0.759766 0.500000
vt 0.759766 0.500000
vt 0.759766 0.500000
vt 0.751953 0.500000
vt 0.759766 0.500000
vt 0.755859 0.500000
vt 0.755859 0.500000
vt 0.751953 0.500000
vt 0.751953 0.500000
vt 0.755859 0.500000
vt 0.751953 0.500000
vt 0.759766 0.500000
vt 0.751953 0.500000
vt 0.751953 0.500000
vt 0.755859 0.500000
vt 0.751953 0.500000
vt 0.751953 0.500000
vt 0.759766 0.500000
vt 0.759766 0.500000
vt 0.751953 0.500000
vt 0.759766 0.500000
vt 0.759766 0.500000
vt 0.751953 0.500000
vt 0.751953 0.500000
vt 0.759766 0.500000
vt 0.755859 0.500000
vt 0.751953 0.500000
vt 0.751953 0.500000
vt 0.751953 0.500000
vt 0.759766 0.500000
vt 0.751953 0.500000
vt 0.755859 0.500000
vt 0.751953 0.500000
vt 0.751953 0.500000
vt 0.751953 0.500000
vt 0.755859 0.500000
vt 0.759766 0.500000
vt 0.759766 0.500000
vt 0.751953 0.500000
vt 0.759766 0.500000
vt 0.755859 0.500000
vt 0.755859 0.500000
vt 0.755859 0.500000
vt 0.755859 0.500000
vt 0.751953 0.500000
vt 0.751953 0.500000
vt 0.751953 0.500000
vt 0.755859 0.500000
vt 0.751953 0.500000
vt 0.759766 0.500000
vt 0.759766 0.500000
vt 0.759766 0.500000
vt 0.751953 0.500000
vt 0.759766 0.500000
vt 0.755859 0.500000
vt 0.755859 0.500000
vt 0.755859 0.500000
vt 0.755859 0.500000
vt 0.759766 0.500000
vt 0.759766 0.500000
vt 0.759766 0.500000
vt 0.759766 0.500000
vt 0.755859 0.500000
vt 0.755859 0.500000
vt 0.755859 0.500000
vt 0.751953 0.500000
vt 0.751953 0.500000
vt 0.751953 0.500000
vt 0.755859 0.500000
vt 0.751953 0.500000
vt 0.759766 0.500000
vt 0.759766 0.500000
vt 0.759766 0.500000
vt 0.751953 0.500000
vt 0.759766 0.500000
vt 0.755859 0.500000
vt 0.755859 0.500000
vt 0.755859 0.500000
vt 0.755859 0.500000
vt 0.759766 0.500000
vt 0.759766 0.500000
vt 0.759766 0.500000
vt 0.759766 0.500000
vt 0.001953 0.500000
vt 0.001953 0.500000
vt 0.001953 0.500000
vt 0.001953 0.500000
vt 0.755859 0.500000
vt 0.755859 0.500000
vt 0.755859 0.500000
vt 0.755859 0.500000
vt 0.759766 0.500000
vt 0.759766 0.500000
vt 0.759766 0.500000
vt 0.759766 0.500000
vt 0.779297 0.500000
vt 0.779297 0.500000
vt 0.779297 0.500000
vt 0.775391 0.500000
vt 0.775391 0.500000
vt 0.775391 0.500000
vt 0.779297 0.500000
vt 0.775391 0.500000
vt 0.001953 0.500000
vt 0.001953 0.500000
vt 0.001953 0.500000
vt 0.001953 0.500000
vt 0.001953 0.500000
vt 0.001953 0.500000
vt 0.001953 0.500000
vt 0.001953 0.500000
vt 0.001953 0.500000
vt 0.001953 0.500000
vt 0.779297 0.500000
vt 0.779297 0.500000
vt 0.779297 0.500000
vt 0.775391 0.500000
vt 0.775391 0.500000
vt 0.775391 0.500000
vt 0.779297 0.500000
vt 0.775391 0.500000
vt 0.779297 0.500000
vt 0.779297 0.500000
vt 0.779297 0.500000
vt 0.775391 0.500000
vt 0.775391 0.500000
vt 0.775391 0.500000
vt 0.779297 0.500000
vt 0.775391 0.500000
vt 0.001953 0.500000
vt 0.001953 0.500000
vt 0.001953 0.500000
vt 0.001953 0.500000
vt 0.001953 0.500000
vt 0.001953 0.500000
vt 0.001953 0.500000
vt 0.001953 0.500000
vt 0.001953 0.500000
vt 0.001953 0.500000
vt 0.779297 0.500000
vt 0.779297 0.500000
vt 0.779297 0.500000
vt 0.775391 0.500000
vt 0.775391 0.500000
vt 0.775391 0.500000
vt 0.779297 0.500000
vt 0.775391 0.500000
vt 0.755859 0.500000
vt 0.755859 0.500000
vt 0.755859 0.500000
vt 0.755859 0.500000
vt 0.759766 0.500000
vt 0.759766 0.500000
vt 0.759766 0.500000
vt 0.759766 0.500000
vt 0.001953 0.500000
vt 0.001953 0.500000
vt 0.001953 0.500000
vt 0.001953 0.500000
vt 0.755859 0.500000
vt 0.755859 0.500000
vt 0.755859 0.500000
vt 0.755859 0.500000
vt 0.759766 0.500000
vt 0.759766 0.500000
vt 0.759766 0.500000
vt 0.759766 0.500000
vt 0.755859 0.500000
vt 0.755859 0.500000
vt 0.755859 0.500000
vt 0.755859 0.500000
vt 0.751953 0.500000
vt 0.751953 0.500000
vt 0.751953 0.500000
vt 0.755859 0.500000
vt 0.751953 0.500000
vt 0.759766 0.500000
vt 0.759766 0.500000
vt 0.759766 0.500000
vt 0.751953 0.500000
vt 0.759766 0.500000
vt 0.755859 0.500000
vt 0.755859 0.500000
vt 0.755859 0.500000
vt 0.755859 0.500000
vt 0.759766 0.500000
vt 0.759766 0.500000
vt 0.759766 0.500000
vt 0.759766 0.500000
vt 0.755859 0.500000
vt 0.755859 0.500000
vt 0.755859 0.500000
vt 0.751953 0.500000
vt 0.751953 0.500000
vt 0.751953 0.500000
vt 0.755859 0.500000
vt 0.751953 0.500000
vt 0.759766 0.500000
vt 0.759766 0.500000
vt 0.759766 0.500000
vt 0.751953 0.500000
vt 0.759766 0.500000
vt 0.755859 0.500000
vt 0.755859 0.500000
vt 0.755859 0.500000
vt 0.751953 0.500000
vt 0.751953 0.500000
vt 0.751953 0.500000
vt 0.751953 0.500000
vt 0.759766 0.500000
vt 0.759766 0.500000
vt 0.759766 0.500000
vt 0.751953 0.500000
vt 0.759766 0.500000
vt 0.755859 0.500000
vt 0.755859 0.500000
vt 0.751953 0.500000
vt 0.751953 0.500000
vt 0.755859 0.500000
vt 0.751953 0.500000
vt 0.759766 0.500000
vt 0.751953 0.500000
vt 0.759766 0.500000
vt 0.759766 0.500000
vt 0.759766 0.500000
vt 0.755859 0.500000
vt 0.751953 0.500000
vt 0.751953 0.500000
vt 0.751953 0.500000
vt 0.759766 0.500000
vt 0.751953 0.500000
vt 0.759766 0.500000
vt 0.755859 0.500000
vt 0.755859 0.500000
vt 0.751953 0.500000
vt 0.755859 0.500000
vt 0.751953 0.500000
vt 0.751953 0.500000
vt 0.751953 0.500000
vt 0.759766 0.500000
vt 0.751953 0.500000
vt 0.755859 0.500000
vt 0.751953 0.500000
vt 0.755859 0.500000
vt 0.751953 0.500000
vt 0.759766 0.500000
vt 0.759766 0.500000
vt 0.751953 0.500000
vt 0.759766 0.500000
vt 0.779297 0.500000
vt 0.779297 0.500000
vt 0.779297 0.500000
vt 0.775391 0.500000
vt 0.775391 0.500000
vt 0.775391 0.500000
vt 0.779297 0.500000
vt 0.775391 0.500000
vt 0.001953 0.500000
vt 0.001953 0.500000
vt 0.001953 0.500000
vt 0.001953 0.500000
vt 0.001953 0.500000
vt 0.001953 0.500000
vt 0.001953 0.500000
vt 0.001953 0.500000
vt 0.001953 0.500000
vt 0.001953 0.500000
vt 0.001953 0.500000
vt 0.001953 0.500000
vt 0.755859 0.500000
vt 0.755859 0.500000
vt 0.755859 0.500000
vt 0.755859 0.500000
vt 0.755859 0.500000
vt 0.755859 0.500000
vt 0.755859 0.500000
vt 0.755859 0.500000
vt 0.755859 0.500000
vt 0.755859 0.500000
vt 0.755859 0.500000
vt 0.755859 0.500000
vt 0.755859 0.500000
vt 0.755859 0.500000
vt 0.755859 0.500000
vt 0.755859 0.500000
vt 0.755859 0.500000
vt 0.755859 0.500000
vt 0.755859 0.500000
vt 0.755859 0.500000
vt 0.755859 0.500000
vt 0.755859 0.500000
vt 0.755859 0.500000
vt 0.755859 0.500000
vt 0.755859 0.500000
vt 0.755859 0.500000
vt 0.755859 0.500000
vt 0.755859 0.500000
vt 0.755859 0.500000
vt 0.755859 0.500000
vt 0.755859 0.500000
vt 0.755859 0.500000
vt 0.755859 0.500000
vt 0.755859 0.500000
vt 0.755859 0.500000
vt 0.755859 0.500000
vt 0.755859 0.500000
vt 0.755859 0.500000
vt 0.755859 0.500000
vt 0.755859 0.500000
vt 0.779297 0.500000
vt 0.779297 0.500000
vt 0.779297 0.500000
vt 0.779297 0.500000
vt 0.779297 0.500000
vt 0.779297 0.500000
vt 0.779297 0.500000
vt 0.779297 0.500000
vt 0.779297 0.500000
vt 0.779297 0.500000
vt 0.779297 0.500000
vt 0.779297 0.500000
vt 0.779297 0.500000
vt 0.779297 0.500000
vt 0.779297 0.500000
vt 0.779297 0.500000
vt 0.779297 0.500000
vt 0.779297 0.500000
vt 0.001953 0.500000
vt 0.001953 0.500000
vt 0.001953 0.500000
vt 0.001953 0.500000
vt 0.001953 0.500000
vt 0.001953 0.500000
vt 0.001953 0.500000
vt 0.001953 0.500000
vt 0.001953 0.500000
vt 0.001953 0.500000
vt 0.001953 0.500000
vt 0.001953 0.500000
vt 0.775391 0.500000
vt 0.775391 0.500000
vt 0.775391 0.500000
vt 0.775391 0.500000
vt 0.775391 0.500000
vt 0.775391 0.500000
vt 0.775391 0.500000
vt 0.775391 0.500000
vt 0.775391 0.500000
vt 0.775391 0.500000
vt 0.775391 0.500000
vt 0.775391 0.500000
vt 0.775391 0.500000
vt 0.775391 0.500000
vt 0.775391 0.500000
vt 0.775391 0.500000
vt 0.775391 0.500000
vt 0.775391 0.500000
vt 0.759766 0.500000
vt 0.759766 0.500000
vt 0.759766 0.500000
vt 0.759766 0.500000
vt 0.759766 0.500000
vt 0.759766 0.500000
vt 0.759766 0.500000
vt 0.759766 0.500000
vt 0.759766 0.500000
vt 0.759766 0.500000
vt 0.759766 0.500000
vt 0.759766 0.500000
vt 0.759766 0.500000
vt 0.759766 0.500000
vt 0.759766 0.500000
vt 0.759766 0.500000
vt 0.759766 0.500000
vt 0.759766 0.500000
vt 0.759766 0.500000
vt 0.759766 0.500000
vt 0.759766 0.500000
vt 0.759766 0.500000
vt 0.759766 0.500000
vt 0.759766 0.500000
vt 0.759766 0.500000
vt 0.759766 0.500000
vt 0.759766 0.500000
vt 0.759766 0.500000
vt 0.759766 0.500000
vt 0.759766 0.500000
vt 0.759766 0.500000
vt 0.759766 0.500000
vt 0.759766 0.500000
vt 0.759766 0.500000
vt 0.759766 0.500000
vt 0.759766 0.500000
vn -1.0000 0.0000 0.0000
vn 1.0000 -0.0000 0.0000
vn 0.0000 -0.0000 1.0000
vn 0.0000 0.0000 -1.0000
vn 0.0000 -1.0000 -0.0000
vn 0.0000 1.0000 0.0000
usemtl palette.081
s 1
f 1/1/1 2/2/1 3/3/1
f 4/4/1 2/2/1 1/1/1
f 5/5/1 4/6/1 1/7/1
f 6/8/1 4/6/1 5/5/1
f 7/9/1 8/10/1 9/11/1
f 10/12/1 8/10/1 7/9/1
f 11/13/1 8/10/1 10/12/1
f 12/14/1 8/10/1 11/13/1
f 13/15/1 7/9/1 9/11/1
f 14/16/1 10/17/1 7/18/1
f 14/19/1 7/9/1 13/15/1
f 15/20/1 11/13/1 10/12/1
f 16/21/1 12/22/1 11/23/1
f 16/24/1 11/13/1 15/20/1
f 17/25/1 8/10/1 12/14/1
f 17/26/1 12/22/1 16/21/1
f 18/27/1 8/10/1 17/25/1
f 19/28/1 10/17/1 14/16/1
f 19/29/1 15/20/1 10/12/1
f 19/28/1 14/16/1 13/30/1
f 20/31/1 15/20/1 19/29/1
f 21/32/1 18/33/1 17/26/1
f 22/34/1 20/35/1 19/28/1
f 22/34/1 19/28/1 13/30/1
f 23/36/1 20/35/1 22/34/1
f 24/37/1 20/35/1 23/36/1
f 25/38/1 18/33/1 21/32/1
f 26/39/1 22/34/1 13/30/1
f 27/40/1 23/41/1 22/42/1
f 27/43/1 22/34/1 26/39/1
f 28/44/1 29/45/1 24/37/1
f 28/46/1 23/41/1 27/40/1
f 28/44/1 24/37/1 23/36/1
f 30/47/1 25/48/1 29/49/1
f 30/50/1 29/45/1 28/44/1
f 31/51/1 18/33/1 25/38/1
f 31/52/1 25/48/1 30/47/1
f 32/53/1 18/33/1 31/51/1
f 33/54/1 27/40/1 26/55/1
f 33/54/1 28/46/1 27/40/1
f 33/54/1 32/56/1 31/52/1
f 33/54/1 31/52/1 30/47/1
f 33/54/1 30/47/1 28/46/1
f 34/57/1 32/56/1 33/54/1
f 35/58/1 36/59/1 37/60/1
f 38/61/1 36/59/1 35/58/1
f 39/62/1 40/63/1 41/64/1
f 42/65/1 40/63/1 39/62/1
f 43/66/1 44/67/1 45/68/1
f 46/69/1 44/67/1 43/66/1
f 47/70/1 42/71/1 39/72/1
f 48/73/1 46/74/1 43/75/1
f 49/76/1 47/70/1 39/72/1
f 50/77/1 47/70/1 49/76/1
f 51/78/1 46/74/1 48/73/1
f 52/79/1 46/74/1 51/78/1
f 53/80/1 50/81/1 49/82/1
f 54/83/1 52/84/1 51/85/1
f 55/86/1 53/80/1 49/82/1
f 56/87/1 53/80/1 55/86/1
f 57/88/1 52/84/1 54/83/1
f 58/89/1 52/84/1 57/88/1
f 59/90/1 60/91/1 61/92/1
f 62/93/1 60/91/1 59/90/1
f 63/94/1 64/95/1 65/96/1
f 66/97/1 64/95/1 63/94/1
f 67/98/1 68/99/1 69/100/1
f 70/101/1 68/99/1 67/98/1
f 71/102/1 72/103/1 73/104/1
f 74/105/1 72/103/1 71/102/1
f 75/106/1 76/107/1 77/108/1
f 78/109/1 76/107/1 75/106/1
f 79/110/1 80/111/1 81/112/1
f 82/113/1 80/111/1 79/110/1
f 83/114/1 84/115/1 85/116/1
f 86/117/1 84/115/1 83/114/1
f 87/118/1 88/119/1 89/120/1
f 90/121/1 88/119/1 87/118/1
f 91/122/1 87/118/1 86/117/1
f 92/123/1 87/118/1 91/122/1
f 93/124/1 94/125/1 95/126/1
f 96/127/1 94/125/1 93/124/1
f 97/128/1 96/129/1 93/130/1
f 98/131/1 96/129/1 97/128/1
f 99/132/1 100/133/1 101/134/1
f 102/135/1 100/133/1 99/132/1
f 103/136/1 102/137/1 99/138/1
f 104/139/1 102/137/1 103/136/1
f 105/140/2 106/141/2 107/142/2
f 107/142/2 106/141/2 108/143/2
f 109/144/2 110/145/2 111/146/2
f 111/146/2 110/145/2 112/147/2
f 108/143/2 111/146/2 113/148/2
f 113/148/2 111/146/2 114/149/2
f 115/150/2 116/151/2 117/152/2
f 117/152/2 116/151/2 118/153/2
f 117/154/2 118/155/2 119/156/2
f 119/156/2 118/155/2 120/157/2
f 121/158/2 122/159/2 123/160/2
f 123/160/2 122/159/2 124/161/2
f 125/162/2 126/163/2 127/164/2
f 127/164/2 126/163/2 128/165/2
f 129/166/2 130/167/2 131/168/2
f 131/168/2 130/167/2 132/169/2
f 133/170/2 134/171/2 135/172/2
f 135/172/2 134/171/2 136/173/2
f 135/174/2 136/175/2 137/176/2
f 137/176/2 136/175/2 138/177/2
f 139/178/2 140/179/2 141/180/2
f 141/180/2 140/179/2 142/181/2
f 143/182/2 144/183/2 145/184/2
f 145/184/2 144/183/2 146/185/2
f 147/186/2 148/187/2 149/188/2
f 149/188/2 148/187/2 150/189/2
f 151/190/2 152/191/2 153/192/2
f 153/192/2 152/191/2 154/193/2
f 155/194/2 156/195/2 157/196/2
f 157/196/2 156/195/2 158/197/2
f 153/198/2 154/199/2 159/200/2
f 159/200/2 154/199/2 160/201/2
f 157/202/2 158/203/2 161/204/2
f 161/204/2 158/203/2 162/205/2
f 159/206/2 160/207/2 163/208/2
f 161/209/2 162/210/2 164/211/2
f 159/206/2 163/208/2 165/212/2
f 165/212/2 163/208/2 166/213/2
f 164/211/2 162/210/2 167/214/2
f 167/214/2 162/210/2 168/215/2
f 169/216/2 170/217/2 171/218/2
f 171/218/2 170/217/2 172/219/2
f 173/220/2 174/221/2 175/222/2
f 175/222/2 174/221/2 176/223/2
f 176/223/2 174/221/2 177/224/2
f 177/224/2 174/221/2 178/225/2
f 178/225/2 174/221/2 179/226/2
f 179/226/2 174/221/2 180/227/2
f 175/228/2 176/229/2 181/230/2
f 176/223/2 177/224/2 181/231/2
f 181/231/2 177/224/2 182/232/2
f 177/233/2 178/234/2 183/235/2
f 178/225/2 179/226/2 183/236/2
f 179/237/2 180/238/2 184/239/2
f 183/236/2 179/226/2 184/240/2
f 181/230/2 182/241/2 185/242/2
f 175/228/2 181/230/2 185/242/2
f 182/232/2 177/224/2 186/243/2
f 185/242/2 182/241/2 186/244/2
f 177/233/2 183/235/2 187/245/2
f 186/243/2 177/224/2 187/246/2
f 183/235/2 184/239/2 187/245/2
f 175/228/2 185/242/2 188/247/2
f 187/245/2 184/239/2 189/248/2
f 189/248/2 184/239/2 190/249/2
f 184/239/2 180/238/2 191/250/2
f 190/249/2 184/239/2 191/250/2
f 175/228/2 188/247/2 192/251/2
f 192/251/2 188/247/2 193/252/2
f 189/248/2 190/249/2 194/253/2
f 190/254/2 191/255/2 195/256/2
f 194/253/2 190/249/2 195/257/2
f 191/250/2 180/238/2 196/258/2
f 195/256/2 191/255/2 196/259/2
f 196/258/2 180/238/2 197/260/2
f 194/261/2 195/256/2 198/262/2
f 192/263/2 193/264/2 198/262/2
f 196/259/2 197/265/2 198/262/2
f 195/256/2 196/259/2 198/262/2
f 193/264/2 194/261/2 198/262/2
f 198/262/2 197/265/2 199/266/2
f 200/267/2 201/268/2 202/269/2
f 202/269/2 201/268/2 203/270/2
f 202/271/2 203/272/2 204/273/2
f 204/273/2 203/272/2 205/274/2
f 206/275/3 207/276/3 208/277/3
f 209/278/3 210/279/3 207/280/3
f 209/281/3 207/276/3 206/275/3
f 211/282/3 210/279/3 209/278/3
f 212/283/3 213/284/3 214/285/3
f 212/286/3 215/287/3 213/288/3
f 216/289/3 215/287/3 212/286/3
f 217/290/3 218/291/3 215/292/3
f 217/293/3 215/287/3 216/289/3
f 219/294/3 218/291/3 217/290/3
f 220/295/3 216/296/3 212/283/3
f 220/295/3 212/283/3 214/285/3
f 221/297/3 219/298/3 217/293/3
f 221/299/3 216/296/3 220/295/3
f 221/297/3 217/293/3 216/289/3
f 222/300/3 219/298/3 221/297/3
f 223/301/3 218/291/3 219/294/3
f 223/302/3 219/298/3 222/300/3
f 224/303/3 222/300/3 221/297/3
f 224/304/3 220/295/3 214/285/3
f 224/303/3 221/297/3 220/305/3
f 225/306/3 222/300/3 224/303/3
f 226/307/3 223/301/3 222/308/3
f 226/309/3 222/300/3 225/306/3
f 227/310/3 223/301/3 226/307/3
f 228/311/3 223/301/3 227/310/3
f 228/312/3 227/313/3 226/309/3
f 229/314/3 218/291/3 223/301/3
f 229/314/3 223/301/3 228/311/3
f 230/315/3 224/304/3 214/285/3
f 231/316/3 228/312/3 226/309/3
f 231/316/3 229/317/3 228/312/3
f 232/318/3 229/317/3 231/316/3
f 233/319/3 218/291/3 229/314/3
f 233/320/3 229/317/3 232/318/3
f 234/321/3 230/315/3 214/285/3
f 235/322/3 236/323/3 230/324/3
f 235/325/3 230/315/3 234/321/3
f 235/322/3 232/318/3 231/316/3
f 235/322/3 231/316/3 236/323/3
f 237/326/3 233/319/3 232/327/3
f 237/328/3 232/318/3 235/322/3
f 238/329/3 218/291/3 233/319/3
f 238/329/3 233/319/3 237/326/3
f 239/330/3 240/331/3 241/332/3
f 242/333/3 240/331/3 239/330/3
f 243/334/3 244/335/3 240/336/3
f 243/337/3 240/331/3 242/333/3
f 245/338/3 244/335/3 243/334/3
f 246/339/3 247/340/3 244/341/3
f 246/342/3 244/335/3 245/338/3
f 248/343/3 247/340/3 246/339/3
f 249/344/3 250/345/3 251/346/3
f 252/347/3 250/345/3 249/344/3
f 253/348/3 254/349/3 255/350/3
f 256/351/3 254/349/3 253/348/3
f 257/352/3 258/353/3 259/354/3
f 260/355/3 261/356/3 258/357/3
f 260/358/3 258/353/3 257/352/3
f 260/355/3 262/359/3 261/356/3
f 263/360/3 264/361/3 262/362/3
f 263/363/3 262/359/3 260/355/3
f 265/364/3 264/361/3 263/360/3
f 266/365/3 267/366/3 268/367/3
f 269/368/3 267/366/3 266/365/3
f 270/369/3 271/370/3 272/371/3
f 273/372/3 271/370/3 270/369/3
f 274/373/3 275/374/3 276/375/3
f 277/376/3 275/374/3 274/373/3
f 278/377/3 279/378/3 280/379/3
f 281/380/3 279/378/3 278/377/3
f 282/381/3 283/382/3 284/383/3
f 285/384/3 283/382/3 282/381/3
f 286/385/3 287/386/3 288/387/3
f 289/388/3 290/389/3 287/390/3
f 289/391/3 287/386/3 286/385/3
f 291/392/3 290/389/3 289/388/3
f 292/393/3 293/394/3 294/395/3
f 295/396/3 293/394/3 292/393/3
f 296/397/3 297/398/3 295/396/3
f 298/399/3 297/398/3 296/397/3
f 299/400/3 296/397/3 300/401/3
f 301/402/3 296/397/3 299/400/3
f 302/403/3 303/404/3 304/405/3
f 305/406/3 306/407/3 303/408/3
f 305/409/3 303/404/3 302/403/3
f 307/410/3 306/407/3 305/406/3
f 308/411/4 309/412/4 310/413/4
f 309/414/4 311/415/4 312/416/4
f 310/413/4 309/412/4 312/417/4
f 312/416/4 311/415/4 313/418/4
f 314/419/4 315/420/4 316/421/4
f 316/421/4 315/420/4 317/422/4
f 317/422/4 318/423/4 319/424/4
f 319/424/4 318/423/4 320/425/4
f 321/426/4 319/424/4 322/427/4
f 322/427/4 319/424/4 323/428/4
f 324/429/4 325/430/4 326/431/4
f 325/432/4 327/433/4 328/434/4
f 326/431/4 325/430/4 328/435/4
f 328/434/4 327/433/4 329/436/4
f 330/437/4 331/438/4 332/439/4
f 332/439/4 331/438/4 333/440/4
f 334/441/4 335/442/4 336/443/4
f 336/443/4 335/442/4 337/444/4
f 338/445/4 339/446/4 340/447/4
f 340/447/4 339/446/4 341/448/4
f 342/449/4 343/450/4 344/451/4
f 344/451/4 343/450/4 345/452/4
f 346/453/4 347/454/4 348/455/4
f 348/455/4 347/454/4 349/456/4
f 350/457/4 351/458/4 352/459/4
f 352/459/4 351/458/4 353/460/4
f 351/461/4 354/462/4 355/463/4
f 353/460/4 351/458/4 355/464/4
f 355/463/4 354/462/4 356/465/4
f 354/466/4 357/467/4 358/468/4
f 356/465/4 354/462/4 358/469/4
f 358/468/4 357/467/4 359/470/4
f 360/471/4 361/472/4 362/473/4
f 362/473/4 361/472/4 363/474/4
f 364/475/4 365/476/4 366/477/4
f 366/477/4 365/476/4 367/478/4
f 368/479/4 369/480/4 370/481/4
f 369/482/4 371/483/4 372/484/4
f 370/481/4 369/480/4 372/485/4
f 371/483/4 373/486/4 372/484/4
f 373/487/4 374/488/4 375/489/4
f 372/484/4 373/486/4 375/490/4
f 375/489/4 374/488/4 376/491/4
f 377/492/4 378/493/4 379/494/4
f 378/495/4 380/496/4 379/497/4
f 379/497/4 380/496/4 381/498/4
f 380/499/4 382/500/4 383/501/4
f 381/498/4 380/496/4 383/502/4
f 383/501/4 382/500/4 384/503/4
f 379/494/4 381/504/4 385/505/4
f 377/492/4 379/494/4 385/505/4
f 383/502/4 384/506/4 386/507/4
f 385/505/4 381/504/4 386/508/4
f 381/498/4 383/502/4 386/507/4
f 386/507/4 384/506/4 387/509/4
f 384/503/4 382/500/4 388/510/4
f 387/509/4 384/506/4 388/511/4
f 387/512/4 388/510/4 389/513/4
f 389/513/4 388/510/4 390/514/4
f 377/492/4 385/505/4 391/515/4
f 389/516/4 390/517/4 392/518/4
f 390/514/4 388/510/4 393/519/4
f 392/518/4 390/517/4 393/520/4
f 388/510/4 382/500/4 394/521/4
f 393/519/4 388/510/4 394/521/4
f 391/515/4 395/522/4 396/523/4
f 377/492/4 391/515/4 396/523/4
f 392/518/4 393/520/4 397/524/4
f 396/523/4 395/522/4 397/525/4
f 395/526/4 392/518/4 397/524/4
f 393/520/4 394/527/4 397/524/4
f 397/524/4 394/527/4 398/528/4
f 394/521/4 382/500/4 399/529/4
f 398/528/4 394/527/4 399/530/4
f 377/492/4 396/523/4 400/531/4
f 397/524/4 398/528/4 401/532/4
f 400/531/4 396/523/4 401/533/4
f 396/534/4 397/524/4 401/532/4
f 398/535/4 399/529/4 402/536/4
f 401/532/4 398/528/4 402/537/4
f 399/529/4 382/500/4 403/538/4
f 402/536/4 399/529/4 403/538/4
f 404/539/4 405/540/4 406/541/4
f 405/542/4 407/543/4 408/544/4
f 406/541/4 405/540/4 408/545/4
f 408/544/4 407/543/4 409/546/4
f 410/547/5 411/548/5 412/549/5
f 413/550/5 411/548/5 410/547/5
f 414/551/5 410/547/5 415/552/5
f 414/551/5 416/553/5 413/550/5
f 414/551/5 413/550/5 410/547/5
f 417/554/5 416/553/5 414/551/5
f 418/555/5 416/553/5 417/554/5
f 419/556/5 416/553/5 418/555/5
f 420/557/5 418/555/5 417/554/5
f 421/558/5 418/555/5 420/557/5
f 422/559/5 423/560/5 424/561/5
f 425/562/5 423/560/5 422/559/5
f 426/563/5 422/559/5 427/564/5
f 426/563/5 428/565/5 425/562/5
f 426/563/5 425/562/5 422/559/5
f 429/566/5 428/565/5 426/563/5
f 430/567/5 426/563/5 427/564/5
f 431/568/5 428/565/5 429/566/5
f 432/569/5 430/567/5 427/564/5
f 432/569/5 431/568/5 430/567/5
f 433/570/5 431/568/5 432/569/5
f 434/571/5 428/565/5 431/568/5
f 434/571/5 431/568/5 433/570/5
f 435/572/5 428/565/5 434/571/5
f 436/573/5 434/571/5 433/570/5
f 437/574/5 434/571/5 436/573/5
f 438/575/5 439/576/5 440/577/5
f 441/578/5 439/576/5 438/575/5
f 442/579/5 439/576/5 441/578/5
f 443/580/5 439/576/5 442/579/5
f 444/581/5 438/575/5 445/582/5
f 444/581/5 441/578/5 438/575/5
f 446/583/5 441/578/5 444/581/5
f 447/584/5 448/585/5 443/580/5
f 447/584/5 443/580/5 442/579/5
f 449/586/5 448/585/5 447/584/5
f 450/587/5 444/581/5 445/582/5
f 451/588/5 448/585/5 449/586/5
f 452/589/5 453/590/5 450/587/5
f 452/589/5 450/587/5 445/582/5
f 454/591/5 453/590/5 452/589/5
f 455/592/5 453/590/5 454/591/5
f 456/593/5 451/588/5 457/594/5
f 458/595/5 448/585/5 451/588/5
f 458/595/5 451/588/5 456/593/5
f 459/596/5 448/585/5 458/595/5
f 460/597/5 455/592/5 454/591/5
f 460/597/5 456/593/5 455/592/5
f 460/597/5 458/595/5 456/593/5
f 461/598/5 458/595/5 460/597/5
f 462/599/5 463/600/5 464/601/5
f 465/602/5 463/600/5 462/599/5
f 466/603/5 467/604/5 468/605/5
f 469/606/5 467/604/5 466/603/5
f 470/607/5 471/608/5 472/609/5
f 473/610/5 470/607/5 472/609/5
f 474/611/5 470/607/5 473/610/5
f 475/612/5 476/613/5 477/614/5
f 478/615/5 476/613/5 475/612/5
f 479/616/5 476/613/5 478/615/5
f 480/617/6 481/618/6 482/619/6
f 482/619/6 481/618/6 483/620/6
f 484/621/6 482/619/6 485/622/6
f 485/622/6 482/619/6 486/623/6
f 483/620/6 487/624/6 488/625/6
f 488/625/6 487/624/6 489/626/6
f 486/623/6 488/625/6 490/627/6
f 490/627/6 488/625/6 491/628/6
f 492/629/6 493/630/6 494/631/6
f 494/631/6 493/630/6 495/632/6
f 496/633/6 497/634/6 498/635/6
f 497/634/6 499/636/6 498/635/6
f 498/635/6 499/636/6 500/637/6
f 501/638/6 502/639/6 503/640/6
f 501/638/6 503/640/6 504/641/6
f 504/641/6 503/640/6 505/642/6
f 506/643/6 507/644/6 508/645/6
f 508/645/6 507/644/6 509/646/6
f 510/647/6 511/648/6 512/649/6
f 512/649/6 511/648/6 513/650/6
f 513/650/6 511/648/6 514/651/6
f 514/651/6 511/648/6 515/652/6
f 516/653/6 512/649/6 517/654/6
f 512/649/6 513/650/6 517/654/6
f 517/654/6 513/650/6 518/655/6
f 515/652/6 519/656/6 520/657/6
f 514/651/6 515/652/6 520/657/6
f 520/657/6 519/656/6 521/658/6
f 516/653/6 517/654/6 522/659/6
f 521/658/6 519/656/6 523/660/6
f 522/659/6 524/661/6 525/662/6
f 516/653/6 522/659/6 525/662/6
f 525/662/6 524/661/6 526/663/6
f 526/663/6 524/661/6 527/664/6
f 528/665/6 523/660/6 529/666/6
f 523/660/6 519/656/6 530/667/6
f 529/666/6 523/660/6 530/667/6
f 530/667/6 519/656/6 531/668/6
f 526/663/6 527/664/6 532/669/6
f 527/664/6 529/666/6 532/669/6
f 529/666/6 530/667/6 532/669/6
f 532/669/6 530/667/6 533/670/6
f 534/671/6 535/672/6 536/673/6
f 536/673/6 535/672/6 537/674/6
f 538/675/6 536/673/6 539/676/6
f 537/674/6 540/677/6 539/676/6
f 536/673/6 537/674/6 539/676/6
f 539/676/6 540/677/6 541/678/6
f 541/678/6 540/677/6 542/679/6
f 542/679/6 540/677/6 543/680/6
f 541/678/6 542/679/6 544/681/6
f 544/681/6 542/679/6 545/682/6
