# Blender v2.93.0 OBJ File: ''
# www.blender.org
mtllib TVS_VoxelFarm_YoungPlant.mtl
o VS_Farm_Plant_Young
v -0.150000 0.493908 0.050000
v -0.150000 0.393908 -0.050000
v -0.150000 0.393908 0.050000
v -0.150000 0.493908 -0.050000
v -0.050000 0.193908 0.050000
v -0.050000 -0.006092 -0.050000
v -0.050000 -0.006092 0.050000
v -0.050000 0.193908 -0.050000
v -0.050000 0.393908 0.050000
v -0.050000 0.393908 -0.050000
v 0.050000 0.493908 0.050000
v 0.050000 0.393908 -0.050000
v 0.050000 0.393908 0.050000
v 0.050000 0.493908 -0.050000
v -0.050000 0.393908 0.050000
v -0.050000 0.393908 -0.050000
v -0.050000 0.493908 0.050000
v -0.050000 0.493908 -0.050000
v 0.050000 -0.006092 0.050000
v 0.050000 -0.006092 -0.050000
v 0.050000 0.193908 0.050000
v 0.050000 0.193908 -0.050000
v 0.050000 0.393908 0.050000
v 0.050000 0.393908 -0.050000
v 0.150000 0.393908 0.050000
v 0.150000 0.393908 -0.050000
v 0.150000 0.493908 0.050000
v 0.150000 0.493908 -0.050000
v -0.050000 0.393908 0.050000
v -0.150000 0.493908 0.050000
v -0.150000 0.393908 0.050000
v -0.050000 0.493908 0.050000
v 0.050000 -0.006092 0.050000
v -0.050000 0.193908 0.050000
v -0.050000 -0.006092 0.050000
v 0.050000 0.193908 0.050000
v 0.050000 0.393908 0.050000
v 0.150000 0.393908 0.050000
v 0.050000 0.493908 0.050000
v 0.150000 0.493908 0.050000
v -0.150000 0.393908 -0.050000
v -0.150000 0.493908 -0.050000
v -0.050000 0.393908 -0.050000
v -0.050000 0.493908 -0.050000
v -0.050000 -0.006092 -0.050000
v -0.050000 0.193908 -0.050000
v 0.050000 -0.006092 -0.050000
v 0.050000 0.193908 -0.050000
v 0.050000 0.393908 -0.050000
v 0.050000 0.493908 -0.050000
v 0.150000 0.393908 -0.050000
v 0.150000 0.493908 -0.050000
v -0.050000 -0.006092 -0.050000
v 0.050000 -0.006092 0.050000
v -0.050000 -0.006092 0.050000
v 0.050000 -0.006092 -0.050000
v -0.150000 0.393908 -0.050000
v -0.050000 0.393908 0.050000
v -0.150000 0.393908 0.050000
v -0.050000 0.393908 -0.050000
v 0.050000 0.393908 -0.050000
v 0.150000 0.393908 0.050000
v 0.050000 0.393908 0.050000
v 0.150000 0.393908 -0.050000
v -0.050000 0.393908 0.050000
v 0.050000 0.393908 0.050000
v -0.050000 0.393908 -0.050000
v 0.050000 0.393908 -0.050000
v -0.150000 0.493908 0.050000
v -0.050000 0.493908 0.050000
v -0.150000 0.493908 -0.050000
v -0.050000 0.493908 -0.050000
v 0.050000 0.493908 0.050000
v 0.150000 0.493908 0.050000
v 0.050000 0.493908 -0.050000
v 0.150000 0.493908 -0.050000
vt 0.087891 0.500000
vt 0.087891 0.500000
vt 0.087891 0.500000
vt 0.087891 0.500000
vt 0.091797 0.500000
vt 0.091797 0.500000
vt 0.091797 0.500000
vt 0.091797 0.500000
vt 0.087891 0.500000
vt 0.087891 0.500000
vt 0.087891 0.500000
vt 0.087891 0.500000
vt 0.087891 0.500000
vt 0.087891 0.500000
vt 0.087891 0.500000
vt 0.087891 0.500000
vt 0.087891 0.500000
vt 0.087891 0.500000
vt 0.087891 0.500000
vt 0.087891 0.500000
vt 0.091797 0.500000
vt 0.091797 0.500000
vt 0.091797 0.500000
vt 0.091797 0.500000
vt 0.087891 0.500000
vt 0.087891 0.500000
vt 0.087891 0.500000
vt 0.087891 0.500000
vt 0.087891 0.500000
vt 0.087891 0.500000
vt 0.087891 0.500000
vt 0.087891 0.500000
vt 0.087891 0.500000
vt 0.087891 0.500000
vt 0.087891 0.500000
vt 0.087891 0.500000
vt 0.091797 0.500000
vt 0.091797 0.500000
vt 0.091797 0.500000
vt 0.087891 0.500000
vt 0.087891 0.500000
vt 0.091797 0.500000
vt 0.087891 0.500000
vt 0.087891 0.500000
vt 0.087891 0.500000
vt 0.087891 0.500000
vt 0.087891 0.500000
vt 0.087891 0.500000
vt 0.087891 0.500000
vt 0.087891 0.500000
vt 0.091797 0.500000
vt 0.091797 0.500000
vt 0.091797 0.500000
vt 0.087891 0.500000
vt 0.087891 0.500000
vt 0.091797 0.500000
vt 0.087891 0.500000
vt 0.087891 0.500000
vt 0.087891 0.500000
vt 0.087891 0.500000
vt 0.091797 0.500000
vt 0.091797 0.500000
vt 0.091797 0.500000
vt 0.091797 0.500000
vt 0.087891 0.500000
vt 0.087891 0.500000
vt 0.087891 0.500000
vt 0.087891 0.500000
vt 0.087891 0.500000
vt 0.087891 0.500000
vt 0.087891 0.500000
vt 0.087891 0.500000
vt 0.087891 0.500000
vt 0.087891 0.500000
vt 0.087891 0.500000
vt 0.087891 0.500000
vt 0.087891 0.500000
vt 0.087891 0.500000
vt 0.087891 0.500000
vt 0.087891 0.500000
vt 0.087891 0.500000
vt 0.087891 0.500000
vt 0.087891 0.500000
vt 0.087891 0.500000
vn -1.0000 0.0000 0.0000
vn 1.0000 0.0000 0.0000
vn 0.0000 -0.0000 1.0000
vn 0.0000 0.0000 -1.0000
vn 0.0000 -1.0000 0.0000
vn 0.0000 1.0000 0.0000
usemtl palette.075
s 1
f 1/1/1 2/2/1 3/3/1
f 4/4/1 2/2/1 1/1/1
f 5/5/1 6/6/1 7/7/1
f 8/8/1 6/6/1 5/5/1
f 9/9/1 8/10/1 5/11/1
f 10/12/1 8/10/1 9/9/1
f 11/13/1 12/14/1 13/15/1
f 14/16/1 12/14/1 11/13/1
f 15/17/2 16/18/2 17/19/2
f 17/19/2 16/18/2 18/20/2
f 19/21/2 20/22/2 21/23/2
f 21/23/2 20/22/2 22/24/2
f 21/25/2 22/26/2 23/27/2
f 23/27/2 22/26/2 24/28/2
f 25/29/2 26/30/2 27/31/2
f 27/31/2 26/30/2 28/32/2
f 29/33/3 30/34/3 31/35/3
f 32/36/3 30/34/3 29/33/3
f 33/37/3 34/38/3 35/39/3
f 36/40/3 29/33/3 34/41/3
f 36/42/3 34/38/3 33/37/3
f 37/43/3 29/33/3 36/40/3
f 38/44/3 39/45/3 37/43/3
f 40/46/3 39/45/3 38/44/3
f 41/47/4 42/48/4 43/49/4
f 43/49/4 42/48/4 44/50/4
f 45/51/4 46/52/4 47/53/4
f 46/54/4 43/49/4 48/55/4
f 47/53/4 46/52/4 48/56/4
f 48/55/4 43/49/4 49/57/4
f 49/57/4 50/58/4 51/59/4
f 51/59/4 50/58/4 52/60/4
f 53/61/5 54/62/5 55/63/5
f 56/64/5 54/62/5 53/61/5
f 57/65/5 58/66/5 59/67/5
f 60/68/5 58/66/5 57/65/5
f 61/69/5 62/70/5 63/71/5
f 64/72/5 62/70/5 61/69/5
f 65/73/6 66/74/6 67/75/6
f 67/75/6 66/74/6 68/76/6
f 69/77/6 70/78/6 71/79/6
f 71/79/6 70/78/6 72/80/6
f 73/81/6 74/82/6 75/83/6
f 75/83/6 74/82/6 76/84/6
