# Blender v2.93.0 OBJ File: ''
# www.blender.org
mtllib TVS_VoxelFarm_MedPlant.mtl
o VS_Farm_Plant_Med
v -0.300000 0.500000 0.052814
v -0.300000 0.300000 -0.047186
v -0.300000 0.300000 0.052814
v -0.300000 0.500000 -0.047186
v -0.200000 1.100000 0.352814
v -0.200000 1.000000 0.052814
v -0.200000 1.000000 0.352814
v -0.200000 1.100000 0.052814
v -0.200000 1.100000 -0.047186
v -0.200000 1.000000 -0.347186
v -0.200000 1.000000 -0.047186
v -0.200000 1.100000 -0.347186
v -0.100000 0.400000 0.052814
v -0.100000 0.000000 -0.047186
v -0.100000 0.000000 0.052814
v -0.100000 0.400000 -0.047186
v -0.100000 1.000000 0.052814
v -0.100000 0.500000 -0.047186
v -0.100000 0.500000 0.052814
v -0.100000 1.000000 -0.047186
v -0.100000 1.100000 0.452814
v -0.100000 1.000000 0.352814
v -0.100000 1.000000 0.452814
v -0.100000 1.100000 0.352814
v -0.100000 1.100000 -0.347186
v -0.100000 1.000000 -0.447186
v -0.100000 1.000000 -0.347186
v -0.100000 1.100000 -0.447186
v 0.100000 0.400000 0.052814
v 0.100000 0.300000 -0.047186
v 0.100000 0.300000 0.052814
v 0.100000 0.400000 -0.047186
v -0.200000 0.300000 0.052814
v -0.200000 0.300000 -0.047186
v -0.200000 0.400000 0.052814
v -0.200000 0.400000 -0.047186
v 0.000000 0.000000 0.052814
v 0.000000 0.000000 -0.047186
v 0.000000 0.400000 0.052814
v 0.000000 0.400000 -0.047186
v 0.000000 0.500000 0.052814
v 0.000000 0.500000 -0.047186
v 0.000000 1.000000 0.052814
v 0.000000 1.000000 -0.047186
v 0.000000 1.000000 0.452814
v 0.000000 1.000000 0.352814
v 0.000000 1.100000 0.452814
v 0.000000 1.100000 0.352814
v 0.000000 1.000000 -0.347186
v 0.000000 1.000000 -0.447186
v 0.000000 1.100000 -0.347186
v 0.000000 1.100000 -0.447186
v 0.100000 1.000000 0.352814
v 0.100000 1.000000 0.052814
v 0.100000 1.100000 0.352814
v 0.100000 1.100000 0.052814
v 0.100000 1.000000 -0.047186
v 0.100000 1.000000 -0.347186
v 0.100000 1.100000 -0.047186
v 0.100000 1.100000 -0.347186
v 0.200000 0.300000 0.052814
v 0.200000 0.300000 -0.047186
v 0.200000 0.500000 0.052814
v 0.200000 0.500000 -0.047186
v 0.000000 1.000000 0.452814
v -0.100000 1.100000 0.452814
v -0.100000 1.000000 0.452814
v 0.000000 1.100000 0.452814
v -0.100000 1.000000 0.352814
v -0.200000 1.100000 0.352814
v -0.200000 1.000000 0.352814
v -0.100000 1.100000 0.352814
v 0.100000 1.000000 0.352814
v 0.000000 1.100000 0.352814
v 0.000000 1.000000 0.352814
v 0.100000 1.100000 0.352814
v -0.200000 0.300000 0.052814
v -0.300000 0.500000 0.052814
v -0.300000 0.300000 0.052814
v -0.200000 0.400000 0.052814
v -0.100000 0.400000 0.052814
v -0.100000 0.500000 0.052814
v 0.000000 0.000000 0.052814
v -0.100000 0.000000 0.052814
v -0.100000 1.000000 0.052814
v 0.000000 0.400000 0.052814
v 0.000000 0.500000 0.052814
v 0.000000 1.000000 0.052814
v 0.100000 0.400000 0.052814
v 0.200000 0.300000 0.052814
v 0.100000 0.300000 0.052814
v 0.200000 0.500000 0.052814
v -0.100000 1.000000 -0.047186
v -0.200000 1.100000 -0.047186
v -0.200000 1.000000 -0.047186
v -0.100000 1.100000 -0.047186
v 0.000000 1.000000 -0.047186
v 0.000000 1.100000 -0.047186
v 0.100000 1.000000 -0.047186
v 0.100000 1.100000 -0.047186
v -0.200000 1.000000 0.052814
v -0.200000 1.100000 0.052814
v -0.100000 1.000000 0.052814
v -0.100000 1.100000 0.052814
v 0.000000 1.000000 0.052814
v 0.000000 1.100000 0.052814
v 0.100000 1.000000 0.052814
v 0.100000 1.100000 0.052814
v -0.300000 0.300000 -0.047186
v -0.300000 0.500000 -0.047186
v -0.200000 0.300000 -0.047186
v -0.200000 0.400000 -0.047186
v -0.100000 0.400000 -0.047186
v -0.100000 0.500000 -0.047186
v -0.100000 0.000000 -0.047186
v 0.000000 0.000000 -0.047186
v -0.100000 1.000000 -0.047186
v 0.000000 0.400000 -0.047186
v 0.000000 0.500000 -0.047186
v 0.000000 1.000000 -0.047186
v 0.100000 0.400000 -0.047186
v 0.100000 0.300000 -0.047186
v 0.200000 0.300000 -0.047186
v 0.200000 0.500000 -0.047186
v -0.200000 1.000000 -0.347186
v -0.200000 1.100000 -0.347186
v -0.100000 1.000000 -0.347186
v -0.100000 1.100000 -0.347186
v 0.000000 1.000000 -0.347186
v 0.000000 1.100000 -0.347186
v 0.100000 1.000000 -0.347186
v 0.100000 1.100000 -0.347186
v -0.100000 1.000000 -0.447186
v -0.100000 1.100000 -0.447186
v 0.000000 1.000000 -0.447186
v 0.000000 1.100000 -0.447186
v -0.100000 0.000000 -0.047186
v 0.000000 0.000000 0.052814
v -0.100000 0.000000 0.052814
v 0.000000 0.000000 -0.047186
v -0.300000 0.300000 -0.047186
v -0.200000 0.300000 0.052814
v -0.300000 0.300000 0.052814
v -0.200000 0.300000 -0.047186
v 0.100000 0.300000 -0.047186
v 0.200000 0.300000 0.052814
v 0.100000 0.300000 0.052814
v 0.200000 0.300000 -0.047186
v -0.200000 0.400000 -0.047186
v -0.100000 0.400000 0.052814
v -0.200000 0.400000 0.052814
v -0.100000 0.400000 -0.047186
v 0.000000 0.400000 -0.047186
v 0.100000 0.400000 0.052814
v 0.000000 0.400000 0.052814
v 0.100000 0.400000 -0.047186
v -0.100000 1.000000 0.352814
v 0.000000 1.000000 0.452814
v -0.100000 1.000000 0.452814
v 0.000000 1.000000 0.352814
v -0.200000 1.000000 0.052814
v -0.200000 1.000000 0.352814
v -0.100000 1.000000 0.052814
v 0.000000 1.000000 0.052814
v 0.100000 1.000000 0.352814
v 0.100000 1.000000 0.052814
v -0.200000 1.000000 -0.347186
v -0.100000 1.000000 -0.047186
v -0.200000 1.000000 -0.047186
v -0.100000 1.000000 -0.347186
v 0.000000 1.000000 -0.047186
v 0.000000 1.000000 -0.347186
v 0.100000 1.000000 -0.047186
v 0.100000 1.000000 -0.347186
v -0.100000 1.000000 -0.447186
v 0.000000 1.000000 -0.447186
v -0.300000 0.500000 0.052814
v -0.100000 0.500000 0.052814
v -0.300000 0.500000 -0.047186
v -0.100000 0.500000 -0.047186
v 0.000000 0.500000 0.052814
v 0.200000 0.500000 0.052814
v 0.000000 0.500000 -0.047186
v 0.200000 0.500000 -0.047186
v -0.100000 1.000000 0.052814
v 0.000000 1.000000 0.052814
v -0.100000 1.000000 -0.047186
v 0.000000 1.000000 -0.047186
v -0.100000 1.100000 0.452814
v 0.000000 1.100000 0.452814
v -0.100000 1.100000 0.352814
v 0.000000 1.100000 0.352814
v -0.200000 1.100000 0.352814
v -0.200000 1.100000 0.052814
v -0.100000 1.100000 0.052814
v 0.100000 1.100000 0.352814
v 0.000000 1.100000 0.052814
v 0.100000 1.100000 0.052814
v -0.200000 1.100000 -0.047186
v -0.100000 1.100000 -0.047186
v -0.200000 1.100000 -0.347186
v 0.000000 1.100000 -0.047186
v -0.100000 1.100000 -0.347186
v 0.100000 1.100000 -0.047186
v 0.000000 1.100000 -0.347186
v 0.100000 1.100000 -0.347186
v -0.100000 1.100000 -0.447186
v 0.000000 1.100000 -0.447186
vt 0.087891 0.500000
vt 0.087891 0.500000
vt 0.087891 0.500000
vt 0.087891 0.500000
vt 0.087891 0.500000
vt 0.087891 0.500000
vt 0.087891 0.500000
vt 0.087891 0.500000
vt 0.087891 0.500000
vt 0.087891 0.500000
vt 0.087891 0.500000
vt 0.087891 0.500000
vt 0.091797 0.500000
vt 0.091797 0.500000
vt 0.091797 0.500000
vt 0.091797 0.500000
vt 0.091797 0.500000
vt 0.091797 0.500000
vt 0.091797 0.500000
vt 0.091797 0.500000
vt 0.087891 0.500000
vt 0.087891 0.500000
vt 0.087891 0.500000
vt 0.087891 0.500000
vt 0.087891 0.500000
vt 0.087891 0.500000
vt 0.087891 0.500000
vt 0.087891 0.500000
vt 0.087891 0.500000
vt 0.087891 0.500000
vt 0.087891 0.500000
vt 0.087891 0.500000
vt 0.087891 0.500000
vt 0.087891 0.500000
vt 0.087891 0.500000
vt 0.087891 0.500000
vt 0.091797 0.500000
vt 0.091797 0.500000
vt 0.091797 0.500000
vt 0.091797 0.500000
vt 0.091797 0.500000
vt 0.091797 0.500000
vt 0.091797 0.500000
vt 0.091797 0.500000
vt 0.087891 0.500000
vt 0.087891 0.500000
vt 0.087891 0.500000
vt 0.087891 0.500000
vt 0.087891 0.500000
vt 0.087891 0.500000
vt 0.087891 0.500000
vt 0.087891 0.500000
vt 0.087891 0.500000
vt 0.087891 0.500000
vt 0.087891 0.500000
vt 0.087891 0.500000
vt 0.087891 0.500000
vt 0.087891 0.500000
vt 0.087891 0.500000
vt 0.087891 0.500000
vt 0.087891 0.500000
vt 0.087891 0.500000
vt 0.087891 0.500000
vt 0.087891 0.500000
vt 0.087891 0.500000
vt 0.087891 0.500000
vt 0.087891 0.500000
vt 0.087891 0.500000
vt 0.087891 0.500000
vt 0.087891 0.500000
vt 0.087891 0.500000
vt 0.087891 0.500000
vt 0.087891 0.500000
vt 0.087891 0.500000
vt 0.087891 0.500000
vt 0.087891 0.500000
vt 0.087891 0.500000
vt 0.087891 0.500000
vt 0.087891 0.500000
vt 0.087891 0.500000
vt 0.087891 0.500000
vt 0.087891 0.500000
vt 0.091797 0.500000
vt 0.091797 0.500000
vt 0.091797 0.500000
vt 0.091797 0.500000
vt 0.091797 0.500000
vt 0.091797 0.500000
vt 0.091797 0.500000
vt 0.091797 0.500000
vt 0.087891 0.500000
vt 0.087891 0.500000
vt 0.087891 0.500000
vt 0.087891 0.500000
vt 0.087891 0.500000
vt 0.087891 0.500000
vt 0.087891 0.500000
vt 0.087891 0.500000
vt 0.087891 0.500000
vt 0.087891 0.500000
vt 0.091797 0.500000
vt 0.091797 0.500000
vt 0.091797 0.500000
vt 0.091797 0.500000
vt 0.087891 0.500000
vt 0.087891 0.500000
vt 0.087891 0.500000
vt 0.087891 0.500000
vt 0.087891 0.500000
vt 0.087891 0.500000
vt 0.087891 0.500000
vt 0.087891 0.500000
vt 0.091797 0.500000
vt 0.091797 0.500000
vt 0.091797 0.500000
vt 0.091797 0.500000
vt 0.087891 0.500000
vt 0.087891 0.500000
vt 0.087891 0.500000
vt 0.087891 0.500000
vt 0.087891 0.500000
vt 0.087891 0.500000
vt 0.087891 0.500000
vt 0.087891 0.500000
vt 0.087891 0.500000
vt 0.087891 0.500000
vt 0.091797 0.500000
vt 0.091797 0.500000
vt 0.091797 0.500000
vt 0.091797 0.500000
vt 0.091797 0.500000
vt 0.091797 0.500000
vt 0.091797 0.500000
vt 0.091797 0.500000
vt 0.087891 0.500000
vt 0.087891 0.500000
vt 0.087891 0.500000
vt 0.087891 0.500000
vt 0.087891 0.500000
vt 0.087891 0.500000
vt 0.087891 0.500000
vt 0.087891 0.500000
vt 0.087891 0.500000
vt 0.087891 0.500000
vt 0.087891 0.500000
vt 0.087891 0.500000
vt 0.087891 0.500000
vt 0.087891 0.500000
vt 0.087891 0.500000
vt 0.087891 0.500000
vt 0.087891 0.500000
vt 0.087891 0.500000
vt 0.091797 0.500000
vt 0.091797 0.500000
vt 0.091797 0.500000
vt 0.091797 0.500000
vt 0.087891 0.500000
vt 0.087891 0.500000
vt 0.087891 0.500000
vt 0.087891 0.500000
vt 0.087891 0.500000
vt 0.087891 0.500000
vt 0.087891 0.500000
vt 0.087891 0.500000
vt 0.087891 0.500000
vt 0.087891 0.500000
vt 0.087891 0.500000
vt 0.087891 0.500000
vt 0.087891 0.500000
vt 0.087891 0.500000
vt 0.087891 0.500000
vt 0.087891 0.500000
vt 0.087891 0.500000
vt 0.087891 0.500000
vt 0.087891 0.500000
vt 0.087891 0.500000
vt 0.087891 0.500000
vt 0.087891 0.500000
vt 0.091797 0.500000
vt 0.091797 0.500000
vt 0.091797 0.500000
vt 0.087891 0.500000
vt 0.087891 0.500000
vt 0.087891 0.500000
vt 0.091797 0.500000
vt 0.087891 0.500000
vt 0.087891 0.500000
vt 0.087891 0.500000
vt 0.087891 0.500000
vt 0.091797 0.500000
vt 0.091797 0.500000
vt 0.091797 0.500000
vt 0.087891 0.500000
vt 0.087891 0.500000
vt 0.087891 0.500000
vt 0.087891 0.500000
vt 0.091797 0.500000
vt 0.087891 0.500000
vt 0.087891 0.500000
vt 0.087891 0.500000
vt 0.087891 0.500000
vt 0.087891 0.500000
vt 0.087891 0.500000
vt 0.087891 0.500000
vt 0.087891 0.500000
vt 0.087891 0.500000
vt 0.087891 0.500000
vt 0.087891 0.500000
vt 0.091797 0.500000
vt 0.091797 0.500000
vt 0.091797 0.500000
vt 0.091797 0.500000
vt 0.087891 0.500000
vt 0.087891 0.500000
vt 0.087891 0.500000
vt 0.087891 0.500000
vt 0.087891 0.500000
vt 0.087891 0.500000
vt 0.091797 0.500000
vt 0.091797 0.500000
vt 0.091797 0.500000
vt 0.087891 0.500000
vt 0.087891 0.500000
vt 0.087891 0.500000
vt 0.091797 0.500000
vt 0.087891 0.500000
vt 0.087891 0.500000
vt 0.087891 0.500000
vt 0.087891 0.500000
vt 0.091797 0.500000
vt 0.091797 0.500000
vt 0.091797 0.500000
vt 0.087891 0.500000
vt 0.087891 0.500000
vt 0.087891 0.500000
vt 0.087891 0.500000
vt 0.091797 0.500000
vt 0.087891 0.500000
vt 0.087891 0.500000
vt 0.087891 0.500000
vn -1.0000 0.0000 0.0000
vn 1.0000 -0.0000 0.0000
vn 0.0000 -0.0000 1.0000
vn 0.0000 0.0000 -1.0000
vn 0.0000 -1.0000 -0.0000
vn 0.0000 1.0000 0.0000
usemtl palette.076
s 1
f 1/1/1 2/2/1 3/3/1
f 4/4/1 2/2/1 1/1/1
f 5/5/1 6/6/1 7/7/1
f 8/8/1 6/6/1 5/5/1
f 9/9/1 10/10/1 11/11/1
f 12/12/1 10/10/1 9/9/1
f 13/13/1 14/14/1 15/15/1
f 16/16/1 14/14/1 13/13/1
f 17/17/1 18/18/1 19/19/1
f 20/20/1 18/18/1 17/17/1
f 21/21/1 22/22/1 23/23/1
f 24/24/1 22/22/1 21/21/1
f 25/25/1 26/26/1 27/27/1
f 28/28/1 26/26/1 25/25/1
f 29/29/1 30/30/1 31/31/1
f 32/32/1 30/30/1 29/29/1
f 33/33/2 34/34/2 35/35/2
f 35/35/2 34/34/2 36/36/2
f 37/37/2 38/38/2 39/39/2
f 39/39/2 38/38/2 40/40/2
f 41/41/2 42/42/2 43/43/2
f 43/43/2 42/42/2 44/44/2
f 45/45/2 46/46/2 47/47/2
f 47/47/2 46/46/2 48/48/2
f 49/49/2 50/50/2 51/51/2
f 51/51/2 50/50/2 52/52/2
f 53/53/2 54/54/2 55/55/2
f 55/55/2 54/54/2 56/56/2
f 57/57/2 58/58/2 59/59/2
f 59/59/2 58/58/2 60/60/2
f 61/61/2 62/62/2 63/63/2
f 63/63/2 62/62/2 64/64/2
f 65/65/3 66/66/3 67/67/3
f 68/68/3 66/66/3 65/65/3
f 69/69/3 70/70/3 71/71/3
f 72/72/3 70/70/3 69/69/3
f 73/73/3 74/74/3 75/75/3
f 76/76/3 74/74/3 73/73/3
f 77/77/3 78/78/3 79/79/3
f 80/80/3 78/78/3 77/77/3
f 81/81/3 78/78/3 80/80/3
f 82/82/3 78/78/3 81/81/3
f 83/83/3 81/84/3 84/85/3
f 83/83/3 85/86/3 82/87/3
f 83/83/3 82/87/3 81/84/3
f 86/88/3 85/86/3 83/83/3
f 87/89/3 85/86/3 86/88/3
f 88/90/3 85/86/3 87/89/3
f 89/91/3 87/92/3 86/93/3
f 90/94/3 89/91/3 91/95/3
f 92/96/3 87/92/3 89/91/3
f 92/96/3 89/91/3 90/94/3
f 93/97/3 94/98/3 95/99/3
f 96/100/3 94/98/3 93/97/3
f 97/101/3 96/102/3 93/103/3
f 98/104/3 96/102/3 97/101/3
f 99/105/3 98/106/3 97/107/3
f 100/108/3 98/106/3 99/105/3
f 101/109/4 102/110/4 103/111/4
f 103/111/4 102/110/4 104/112/4
f 103/113/4 104/114/4 105/115/4
f 105/115/4 104/114/4 106/116/4
f 105/117/4 106/118/4 107/119/4
f 107/119/4 106/118/4 108/120/4
f 109/121/4 110/122/4 111/123/4
f 111/123/4 110/122/4 112/124/4
f 112/124/4 110/122/4 113/125/4
f 113/125/4 110/122/4 114/126/4
f 115/127/4 113/128/4 116/129/4
f 114/130/4 117/131/4 116/129/4
f 113/128/4 114/130/4 116/129/4
f 116/129/4 117/131/4 118/132/4
f 118/132/4 117/131/4 119/133/4
f 119/133/4 117/131/4 120/134/4
f 118/135/4 119/136/4 121/137/4
f 122/138/4 121/137/4 123/139/4
f 121/137/4 119/136/4 124/140/4
f 123/139/4 121/137/4 124/140/4
f 125/141/4 126/142/4 127/143/4
f 127/143/4 126/142/4 128/144/4
f 129/145/4 130/146/4 131/147/4
f 131/147/4 130/146/4 132/148/4
f 133/149/4 134/150/4 135/151/4
f 135/151/4 134/150/4 136/152/4
f 137/153/5 138/154/5 139/155/5
f 140/156/5 138/154/5 137/153/5
f 141/157/5 142/158/5 143/159/5
f 144/160/5 142/158/5 141/157/5
f 145/161/5 146/162/5 147/163/5
f 148/164/5 146/162/5 145/161/5
f 149/165/5 150/166/5 151/167/5
f 152/168/5 150/166/5 149/165/5
f 153/169/5 154/170/5 155/171/5
f 156/172/5 154/170/5 153/169/5
f 157/173/5 158/174/5 159/175/5
f 160/176/5 158/174/5 157/173/5
f 161/177/5 157/173/5 162/178/5
f 163/179/5 160/180/5 157/181/5
f 163/182/5 157/173/5 161/177/5
f 164/183/5 165/184/5 160/176/5
f 164/185/5 160/180/5 163/179/5
f 166/186/5 165/184/5 164/183/5
f 167/187/5 168/188/5 169/189/5
f 170/190/5 171/191/5 168/192/5
f 170/193/5 168/188/5 167/187/5
f 172/194/5 173/195/5 171/196/5
f 172/197/5 171/191/5 170/190/5
f 174/198/5 173/195/5 172/194/5
f 175/199/5 172/194/5 170/193/5
f 176/200/5 172/194/5 175/199/5
f 177/201/6 178/202/6 179/203/6
f 179/203/6 178/202/6 180/204/6
f 181/205/6 182/206/6 183/207/6
f 183/207/6 182/206/6 184/208/6
f 185/209/6 186/210/6 187/211/6
f 187/211/6 186/210/6 188/212/6
f 189/213/6 190/214/6 191/215/6
f 191/215/6 190/214/6 192/216/6
f 193/217/6 191/215/6 194/218/6
f 191/219/6 192/220/6 195/221/6
f 194/218/6 191/215/6 195/222/6
f 192/216/6 196/223/6 197/224/6
f 195/221/6 192/220/6 197/225/6
f 197/224/6 196/223/6 198/226/6
f 199/227/6 200/228/6 201/229/6
f 200/230/6 202/231/6 203/232/6
f 201/229/6 200/228/6 203/233/6
f 202/234/6 204/235/6 205/236/6
f 203/232/6 202/231/6 205/237/6
f 205/236/6 204/235/6 206/238/6
f 203/233/6 205/236/6 207/239/6
f 207/239/6 205/236/6 208/240/6
