# Blender v2.93.0 OBJ File: ''
# www.blender.org
mtllib TVS_VoxelFarm_FoodTrough.mtl
o VS_Farm_Trough_Food
v -1.012000 0.534667 0.350000
v -1.012000 0.234667 -0.350000
v -1.012000 0.234667 0.350000
v -1.012000 0.534667 -0.350000
v -0.912000 0.234667 0.250000
v -0.912000 0.034667 -0.250000
v -0.912000 0.034667 0.250000
v -0.912000 0.234667 -0.250000
v -0.812000 -0.265333 0.250000
v -0.812000 -0.365333 -0.250000
v -0.812000 -0.365333 0.250000
v -0.812000 -0.265333 0.150000
v -0.812000 -0.265333 -0.150000
v -0.812000 -0.265333 -0.250000
v -0.812000 -0.165333 0.150000
v -0.812000 -0.165333 0.050000
v -0.812000 -0.165333 -0.050000
v -0.812000 -0.165333 -0.150000
v -0.812000 0.034667 0.050000
v -0.812000 0.034667 -0.050000
v 0.688000 -0.265333 0.250000
v 0.688000 -0.365333 0.050000
v 0.688000 -0.365333 0.250000
v 0.688000 -0.265333 0.150000
v 0.688000 -0.265333 0.050000
v 0.688000 -0.265333 -0.050000
v 0.688000 -0.365333 -0.250000
v 0.688000 -0.365333 -0.050000
v 0.688000 -0.265333 -0.150000
v 0.688000 -0.265333 -0.250000
v 0.688000 -0.165333 0.150000
v 0.688000 -0.165333 0.050000
v 0.688000 -0.165333 -0.050000
v 0.688000 -0.165333 -0.150000
v 0.688000 0.034667 0.050000
v 0.688000 -0.065333 -0.050000
v 0.688000 -0.065333 0.050000
v 0.688000 0.034667 -0.050000
v 0.888000 0.534667 0.250000
v 0.888000 0.334667 -0.250000
v 0.888000 0.334667 0.250000
v 0.888000 0.534667 -0.250000
v -0.912000 0.334667 0.250000
v -0.912000 0.334667 -0.250000
v -0.912000 0.534667 0.250000
v -0.912000 0.534667 -0.250000
v -0.712000 -0.365333 0.250000
v -0.712000 -0.365333 0.050000
v -0.712000 -0.265333 0.250000
v -0.712000 -0.265333 0.150000
v -0.712000 -0.265333 0.050000
v -0.712000 -0.365333 -0.050000
v -0.712000 -0.365333 -0.250000
v -0.712000 -0.265333 -0.050000
v -0.712000 -0.265333 -0.150000
v -0.712000 -0.265333 -0.250000
v -0.712000 -0.165333 0.150000
v -0.712000 -0.165333 0.050000
v -0.712000 -0.165333 -0.050000
v -0.712000 -0.165333 -0.150000
v -0.712000 -0.065333 0.050000
v -0.712000 -0.065333 -0.050000
v -0.712000 0.034667 0.050000
v -0.712000 0.034667 -0.050000
v 0.788000 -0.365333 0.250000
v 0.788000 -0.365333 -0.250000
v 0.788000 -0.265333 0.250000
v 0.788000 -0.265333 0.150000
v 0.788000 -0.265333 -0.150000
v 0.788000 -0.265333 -0.250000
v 0.788000 -0.165333 0.150000
v 0.788000 -0.165333 0.050000
v 0.788000 -0.165333 -0.050000
v 0.788000 -0.165333 -0.150000
v 0.788000 0.034667 0.050000
v 0.788000 0.034667 -0.050000
v 0.888000 0.034667 0.250000
v 0.888000 0.034667 -0.250000
v 0.888000 0.234667 0.250000
v 0.888000 0.234667 -0.250000
v 0.988000 0.234667 0.350000
v 0.988000 0.234667 -0.350000
v 0.988000 0.534667 0.350000
v 0.988000 0.534667 -0.350000
v 0.988000 0.234667 0.350000
v -1.012000 0.534667 0.350000
v -1.012000 0.234667 0.350000
v 0.988000 0.534667 0.350000
v -0.712000 -0.365333 0.250000
v -0.812000 -0.265333 0.250000
v -0.812000 -0.365333 0.250000
v -0.712000 -0.265333 0.250000
v 0.788000 -0.365333 0.250000
v 0.688000 -0.265333 0.250000
v 0.688000 -0.365333 0.250000
v 0.788000 -0.265333 0.250000
v 0.888000 0.034667 0.250000
v -0.912000 0.234667 0.250000
v -0.912000 0.034667 0.250000
v 0.888000 0.234667 0.250000
v -0.712000 -0.265333 0.150000
v -0.812000 -0.165333 0.150000
v -0.812000 -0.265333 0.150000
v -0.712000 -0.165333 0.150000
v 0.788000 -0.265333 0.150000
v 0.688000 -0.165333 0.150000
v 0.688000 -0.265333 0.150000
v 0.788000 -0.165333 0.150000
v -0.712000 -0.165333 0.050000
v -0.812000 0.034667 0.050000
v -0.812000 -0.165333 0.050000
v -0.712000 -0.065333 0.050000
v -0.712000 0.034667 0.050000
v 0.688000 -0.365333 0.050000
v -0.712000 -0.265333 0.050000
v -0.712000 -0.365333 0.050000
v 0.688000 -0.265333 0.050000
v 0.688000 -0.165333 0.050000
v 0.688000 -0.065333 0.050000
v 0.788000 -0.165333 0.050000
v 0.688000 0.034667 0.050000
v 0.788000 0.034667 0.050000
v -0.412000 0.334667 -0.250000
v -0.912000 0.534667 -0.250000
v -0.912000 0.334667 -0.250000
v -0.312000 0.334667 -0.250000
v 0.588000 0.334667 -0.250000
v 0.688000 0.334667 -0.250000
v 0.888000 0.334667 -0.250000
v 0.888000 0.534667 -0.250000
v -0.912000 0.334667 0.250000
v -0.912000 0.534667 0.250000
v -0.012000 0.334667 0.250000
v 0.088000 0.334667 0.250000
v 0.688000 0.334667 0.250000
v 0.788000 0.334667 0.250000
v 0.888000 0.334667 0.250000
v 0.888000 0.534667 0.250000
v -0.812000 -0.165333 -0.050000
v -0.812000 0.034667 -0.050000
v -0.712000 -0.165333 -0.050000
v -0.712000 -0.065333 -0.050000
v -0.712000 0.034667 -0.050000
v -0.712000 -0.365333 -0.050000
v -0.712000 -0.265333 -0.050000
v 0.688000 -0.365333 -0.050000
v 0.688000 -0.265333 -0.050000
v 0.688000 -0.165333 -0.050000
v 0.688000 -0.065333 -0.050000
v 0.688000 0.034667 -0.050000
v 0.788000 -0.165333 -0.050000
v 0.788000 0.034667 -0.050000
v -0.812000 -0.265333 -0.150000
v -0.812000 -0.165333 -0.150000
v -0.712000 -0.265333 -0.150000
v -0.712000 -0.165333 -0.150000
v 0.688000 -0.265333 -0.150000
v 0.688000 -0.165333 -0.150000
v 0.788000 -0.265333 -0.150000
v 0.788000 -0.165333 -0.150000
v -0.812000 -0.365333 -0.250000
v -0.812000 -0.265333 -0.250000
v -0.712000 -0.365333 -0.250000
v -0.712000 -0.265333 -0.250000
v 0.688000 -0.365333 -0.250000
v 0.688000 -0.265333 -0.250000
v 0.788000 -0.365333 -0.250000
v 0.788000 -0.265333 -0.250000
v -0.912000 0.034667 -0.250000
v -0.912000 0.234667 -0.250000
v 0.888000 0.034667 -0.250000
v 0.888000 0.234667 -0.250000
v -1.012000 0.234667 -0.350000
v -1.012000 0.534667 -0.350000
v 0.988000 0.234667 -0.350000
v 0.988000 0.534667 -0.350000
v -0.712000 -0.365333 0.050000
v -0.712000 -0.365333 0.250000
v -0.812000 -0.365333 0.250000
v 0.688000 -0.365333 0.050000
v 0.788000 -0.365333 0.250000
v 0.688000 -0.365333 0.250000
v -0.712000 -0.365333 -0.050000
v 0.688000 -0.365333 -0.050000
v -0.812000 -0.365333 -0.250000
v -0.712000 -0.365333 -0.250000
v 0.688000 -0.365333 -0.250000
v 0.788000 -0.365333 -0.250000
v -0.712000 -0.165333 -0.050000
v 0.688000 -0.165333 0.050000
v -0.712000 -0.165333 0.050000
v 0.688000 -0.165333 -0.050000
v -0.812000 0.034667 0.050000
v 0.888000 0.034667 0.250000
v -0.912000 0.034667 0.250000
v -0.712000 0.034667 0.050000
v 0.688000 0.034667 0.050000
v 0.788000 0.034667 0.050000
v -0.812000 0.034667 -0.050000
v -0.712000 0.034667 -0.050000
v 0.688000 0.034667 -0.050000
v 0.788000 0.034667 -0.050000
v -0.912000 0.034667 -0.250000
v 0.888000 0.034667 -0.250000
v -0.912000 0.234667 0.250000
v 0.988000 0.234667 0.350000
v -1.012000 0.234667 0.350000
v 0.888000 0.234667 0.250000
v -0.912000 0.234667 -0.250000
v 0.888000 0.234667 -0.250000
v -1.012000 0.234667 -0.350000
v 0.988000 0.234667 -0.350000
v -0.812000 -0.265333 0.250000
v -0.712000 -0.265333 0.250000
v -0.812000 -0.265333 0.150000
v -0.712000 -0.265333 0.150000
v 0.688000 -0.265333 0.250000
v 0.788000 -0.265333 0.250000
v 0.688000 -0.265333 0.150000
v 0.788000 -0.265333 0.150000
v -0.712000 -0.265333 0.050000
v 0.688000 -0.265333 0.050000
v -0.712000 -0.265333 -0.050000
v 0.688000 -0.265333 -0.050000
v -0.812000 -0.265333 -0.150000
v -0.712000 -0.265333 -0.150000
v -0.812000 -0.265333 -0.250000
v -0.712000 -0.265333 -0.250000
v 0.688000 -0.265333 -0.150000
v 0.788000 -0.265333 -0.150000
v 0.688000 -0.265333 -0.250000
v 0.788000 -0.265333 -0.250000
v -0.812000 -0.165333 0.150000
v -0.712000 -0.165333 0.150000
v -0.812000 -0.165333 0.050000
v -0.712000 -0.165333 0.050000
v 0.688000 -0.165333 0.150000
v 0.788000 -0.165333 0.150000
v 0.688000 -0.165333 0.050000
v 0.788000 -0.165333 0.050000
v -0.812000 -0.165333 -0.050000
v -0.712000 -0.165333 -0.050000
v -0.812000 -0.165333 -0.150000
v -0.712000 -0.165333 -0.150000
v 0.688000 -0.165333 -0.050000
v 0.788000 -0.165333 -0.050000
v 0.688000 -0.165333 -0.150000
v 0.788000 -0.165333 -0.150000
v -0.712000 -0.065333 0.050000
v 0.688000 -0.065333 0.050000
v -0.712000 -0.065333 -0.050000
v 0.688000 -0.065333 -0.050000
v -0.912000 0.334667 0.250000
v -0.012000 0.334667 0.250000
v -0.612000 0.334667 0.150000
v -0.512000 0.334667 0.150000
v 0.088000 0.334667 0.250000
v -0.012000 0.334667 0.150000
v 0.688000 0.334667 0.250000
v 0.088000 0.334667 0.150000
v 0.388000 0.334667 0.150000
v 0.488000 0.334667 0.150000
v 0.788000 0.334667 0.250000
v 0.688000 0.334667 0.150000
v 0.888000 0.334667 0.250000
v 0.788000 0.334667 0.150000
v -0.612000 0.334667 0.050000
v -0.512000 0.334667 0.050000
v -0.212000 0.334667 0.050000
v -0.112000 0.334667 0.050000
v 0.388000 0.334667 0.050000
v 0.488000 0.334667 0.050000
v -0.812000 0.334667 -0.050000
v -0.712000 0.334667 -0.050000
v -0.212000 0.334667 -0.050000
v -0.112000 0.334667 -0.050000
v 0.188000 0.334667 -0.050000
v 0.288000 0.334667 -0.050000
v -0.812000 0.334667 -0.150000
v -0.712000 0.334667 -0.150000
v -0.412000 0.334667 -0.150000
v -0.312000 0.334667 -0.150000
v 0.188000 0.334667 -0.150000
v 0.288000 0.334667 -0.150000
v 0.588000 0.334667 -0.150000
v 0.688000 0.334667 -0.150000
v -0.912000 0.334667 -0.250000
v -0.412000 0.334667 -0.250000
v -0.312000 0.334667 -0.250000
v 0.588000 0.334667 -0.250000
v 0.688000 0.334667 -0.250000
v 0.888000 0.334667 -0.250000
v -1.012000 0.534667 0.350000
v 0.988000 0.534667 0.350000
v -0.912000 0.534667 0.250000
v 0.888000 0.534667 0.250000
v -0.912000 0.534667 -0.250000
v 0.888000 0.534667 -0.250000
v -1.012000 0.534667 -0.350000
v 0.988000 0.534667 -0.350000
vt 0.005859 0.500000
vt 0.005859 0.500000
vt 0.005859 0.500000
vt 0.005859 0.500000
vt 0.005859 0.500000
vt 0.005859 0.500000
vt 0.005859 0.500000
vt 0.005859 0.500000
vt 0.001953 0.500000
vt 0.001953 0.500000
vt 0.001953 0.500000
vt 0.001953 0.500000
vt 0.001953 0.500000
vt 0.001953 0.500000
vt 0.001953 0.500000
vt 0.001953 0.500000
vt 0.001953 0.500000
vt 0.001953 0.500000
vt 0.001953 0.500000
vt 0.001953 0.500000
vt 0.001953 0.500000
vt 0.001953 0.500000
vt 0.001953 0.500000
vt 0.001953 0.500000
vt 0.001953 0.500000
vt 0.001953 0.500000
vt 0.001953 0.500000
vt 0.001953 0.500000
vt 0.001953 0.500000
vt 0.001953 0.500000
vt 0.001953 0.500000
vt 0.001953 0.500000
vt 0.001953 0.500000
vt 0.001953 0.500000
vt 0.001953 0.500000
vt 0.001953 0.500000
vt 0.001953 0.500000
vt 0.001953 0.500000
vt 0.005859 0.500000
vt 0.005859 0.500000
vt 0.005859 0.500000
vt 0.005859 0.500000
vt 0.005859 0.500000
vt 0.005859 0.500000
vt 0.005859 0.500000
vt 0.005859 0.500000
vt 0.001953 0.500000
vt 0.001953 0.500000
vt 0.001953 0.500000
vt 0.001953 0.500000
vt 0.001953 0.500000
vt 0.001953 0.500000
vt 0.001953 0.500000
vt 0.001953 0.500000
vt 0.001953 0.500000
vt 0.001953 0.500000
vt 0.001953 0.500000
vt 0.001953 0.500000
vt 0.001953 0.500000
vt 0.001953 0.500000
vt 0.001953 0.500000
vt 0.001953 0.500000
vt 0.001953 0.500000
vt 0.001953 0.500000
vt 0.001953 0.500000
vt 0.001953 0.500000
vt 0.001953 0.500000
vt 0.001953 0.500000
vt 0.001953 0.500000
vt 0.001953 0.500000
vt 0.001953 0.500000
vt 0.001953 0.500000
vt 0.001953 0.500000
vt 0.001953 0.500000
vt 0.001953 0.500000
vt 0.001953 0.500000
vt 0.005859 0.500000
vt 0.005859 0.500000
vt 0.005859 0.500000
vt 0.005859 0.500000
vt 0.005859 0.500000
vt 0.005859 0.500000
vt 0.005859 0.500000
vt 0.005859 0.500000
vt 0.005859 0.500000
vt 0.005859 0.500000
vt 0.005859 0.500000
vt 0.005859 0.500000
vt 0.001953 0.500000
vt 0.001953 0.500000
vt 0.001953 0.500000
vt 0.001953 0.500000
vt 0.001953 0.500000
vt 0.001953 0.500000
vt 0.001953 0.500000
vt 0.001953 0.500000
vt 0.005859 0.500000
vt 0.005859 0.500000
vt 0.005859 0.500000
vt 0.005859 0.500000
vt 0.001953 0.500000
vt 0.001953 0.500000
vt 0.001953 0.500000
vt 0.001953 0.500000
vt 0.001953 0.500000
vt 0.001953 0.500000
vt 0.001953 0.500000
vt 0.001953 0.500000
vt 0.001953 0.500000
vt 0.001953 0.500000
vt 0.001953 0.500000
vt 0.001953 0.500000
vt 0.001953 0.500000
vt 0.001953 0.500000
vt 0.001953 0.500000
vt 0.001953 0.500000
vt 0.001953 0.500000
vt 0.001953 0.500000
vt 0.001953 0.500000
vt 0.001953 0.500000
vt 0.001953 0.500000
vt 0.001953 0.500000
vt 0.005859 0.500000
vt 0.005859 0.500000
vt 0.005859 0.500000
vt 0.005859 0.500000
vt 0.005859 0.500000
vt 0.005859 0.500000
vt 0.005859 0.500000
vt 0.005859 0.500000
vt 0.005859 0.500000
vt 0.005859 0.500000
vt 0.005859 0.500000
vt 0.005859 0.500000
vt 0.005859 0.500000
vt 0.005859 0.500000
vt 0.005859 0.500000
vt 0.005859 0.500000
vt 0.001953 0.500000
vt 0.001953 0.500000
vt 0.001953 0.500000
vt 0.001953 0.500000
vt 0.001953 0.500000
vt 0.001953 0.500000
vt 0.001953 0.500000
vt 0.001953 0.500000
vt 0.001953 0.500000
vt 0.001953 0.500000
vt 0.001953 0.500000
vt 0.001953 0.500000
vt 0.001953 0.500000
vt 0.001953 0.500000
vt 0.001953 0.500000
vt 0.001953 0.500000
vt 0.001953 0.500000
vt 0.001953 0.500000
vt 0.001953 0.500000
vt 0.001953 0.500000
vt 0.001953 0.500000
vt 0.001953 0.500000
vt 0.001953 0.500000
vt 0.001953 0.500000
vt 0.001953 0.500000
vt 0.001953 0.500000
vt 0.001953 0.500000
vt 0.001953 0.500000
vt 0.001953 0.500000
vt 0.001953 0.500000
vt 0.005859 0.500000
vt 0.005859 0.500000
vt 0.005859 0.500000
vt 0.005859 0.500000
vt 0.005859 0.500000
vt 0.005859 0.500000
vt 0.005859 0.500000
vt 0.005859 0.500000
vt 0.001953 0.500000
vt 0.001953 0.500000
vt 0.001953 0.500000
vt 0.001953 0.500000
vt 0.001953 0.500000
vt 0.001953 0.500000
vt 0.001953 0.500000
vt 0.001953 0.500000
vt 0.001953 0.500000
vt 0.001953 0.500000
vt 0.001953 0.500000
vt 0.001953 0.500000
vt 0.001953 0.500000
vt 0.001953 0.500000
vt 0.001953 0.500000
vt 0.001953 0.500000
vt 0.005859 0.500000
vt 0.005859 0.500000
vt 0.005859 0.500000
vt 0.005859 0.500000
vt 0.005859 0.500000
vt 0.005859 0.500000
vt 0.005859 0.500000
vt 0.005859 0.500000
vt 0.005859 0.500000
vt 0.005859 0.500000
vt 0.005859 0.500000
vt 0.005859 0.500000
vt 0.005859 0.500000
vt 0.005859 0.500000
vt 0.005859 0.500000
vt 0.005859 0.500000
vt 0.005859 0.500000
vt 0.005859 0.500000
vt 0.005859 0.500000
vt 0.005859 0.500000
vt 0.001953 0.500000
vt 0.001953 0.500000
vt 0.001953 0.500000
vt 0.001953 0.500000
vt 0.001953 0.500000
vt 0.001953 0.500000
vt 0.001953 0.500000
vt 0.001953 0.500000
vt 0.001953 0.500000
vt 0.001953 0.500000
vt 0.001953 0.500000
vt 0.001953 0.500000
vt 0.001953 0.500000
vt 0.001953 0.500000
vt 0.001953 0.500000
vt 0.001953 0.500000
vt 0.001953 0.500000
vt 0.001953 0.500000
vt 0.001953 0.500000
vt 0.001953 0.500000
vt 0.001953 0.500000
vt 0.001953 0.500000
vt 0.001953 0.500000
vt 0.001953 0.500000
vt 0.001953 0.500000
vt 0.001953 0.500000
vt 0.001953 0.500000
vt 0.001953 0.500000
vt 0.001953 0.500000
vt 0.001953 0.500000
vt 0.001953 0.500000
vt 0.001953 0.500000
vt 0.001953 0.500000
vt 0.001953 0.500000
vt 0.001953 0.500000
vt 0.001953 0.500000
vt 0.001953 0.500000
vt 0.001953 0.500000
vt 0.001953 0.500000
vt 0.001953 0.500000
vt 0.369141 0.500000
vt 0.369141 0.500000
vt 0.369141 0.500000
vt 0.369141 0.500000
vt 0.373047 0.500000
vt 0.373047 0.500000
vt 0.373047 0.500000
vt 0.369141 0.500000
vt 0.369141 0.500000
vt 0.369141 0.500000
vt 0.369141 0.500000
vt 0.373047 0.500000
vt 0.369141 0.500000
vt 0.369141 0.500000
vt 0.373047 0.500000
vt 0.373047 0.500000
vt 0.373047 0.500000
vt 0.369141 0.500000
vt 0.369141 0.500000
vt 0.369141 0.500000
vt 0.369141 0.500000
vt 0.373047 0.500000
vt 0.373047 0.500000
vt 0.373047 0.500000
vt 0.373047 0.500000
vt 0.369141 0.500000
vt 0.369141 0.500000
vt 0.373047 0.500000
vt 0.369141 0.500000
vt 0.369141 0.500000
vt 0.373047 0.500000
vt 0.373047 0.500000
vt 0.373047 0.500000
vt 0.369141 0.500000
vt 0.369141 0.500000
vt 0.373047 0.500000
vt 0.369141 0.500000
vt 0.369141 0.500000
vt 0.373047 0.500000
vt 0.373047 0.500000
vt 0.373047 0.500000
vt 0.369141 0.500000
vt 0.369141 0.500000
vt 0.373047 0.500000
vt 0.369141 0.500000
vt 0.369141 0.500000
vt 0.373047 0.500000
vt 0.373047 0.500000
vt 0.373047 0.500000
vt 0.369141 0.500000
vt 0.369141 0.500000
vt 0.373047 0.500000
vt 0.369141 0.500000
vt 0.369141 0.500000
vt 0.373047 0.500000
vt 0.373047 0.500000
vt 0.373047 0.500000
vt 0.369141 0.500000
vt 0.369141 0.500000
vt 0.373047 0.500000
vt 0.369141 0.500000
vt 0.369141 0.500000
vt 0.369141 0.500000
vt 0.373047 0.500000
vt 0.373047 0.500000
vt 0.373047 0.500000
vt 0.369141 0.500000
vt 0.369141 0.500000
vt 0.373047 0.500000
vt 0.373047 0.500000
vt 0.373047 0.500000
vt 0.373047 0.500000
vt 0.369141 0.500000
vt 0.369141 0.500000
vt 0.373047 0.500000
vt 0.369141 0.500000
vt 0.005859 0.500000
vt 0.005859 0.500000
vt 0.005859 0.500000
vt 0.005859 0.500000
vt 0.005859 0.500000
vt 0.005859 0.500000
vt 0.005859 0.500000
vt 0.005859 0.500000
vn -1.0000 0.0000 0.0000
vn 1.0000 0.0000 0.0000
vn 0.0000 -0.0000 1.0000
vn 0.0000 0.0000 -1.0000
vn 0.0000 -1.0000 -0.0000
vn 0.0000 1.0000 0.0000
usemtl palette.068
s 1
f 1/1/1 2/2/1 3/3/1
f 4/4/1 2/2/1 1/1/1
f 5/5/1 6/6/1 7/7/1
f 8/8/1 6/6/1 5/5/1
f 9/9/1 10/10/1 11/11/1
f 12/12/1 10/10/1 9/9/1
f 13/13/1 10/10/1 12/12/1
f 14/14/1 10/10/1 13/13/1
f 15/15/1 13/13/1 12/12/1
f 16/16/1 13/13/1 15/15/1
f 17/17/1 13/13/1 16/16/1
f 18/18/1 13/13/1 17/17/1
f 19/19/1 17/17/1 16/16/1
f 20/20/1 17/17/1 19/19/1
f 21/21/1 22/22/1 23/23/1
f 24/24/1 22/22/1 21/21/1
f 25/25/1 22/22/1 24/24/1
f 26/26/1 27/27/1 28/28/1
f 29/29/1 27/27/1 26/26/1
f 30/30/1 27/27/1 29/29/1
f 31/31/1 25/25/1 24/24/1
f 31/31/1 29/29/1 26/26/1
f 31/31/1 26/26/1 25/25/1
f 32/32/1 29/29/1 31/31/1
f 33/33/1 29/29/1 32/32/1
f 34/34/1 29/29/1 33/33/1
f 35/35/1 36/36/1 37/37/1
f 38/38/1 36/36/1 35/35/1
f 39/39/1 40/40/1 41/41/1
f 42/42/1 40/40/1 39/39/1
f 43/43/2 44/44/2 45/45/2
f 45/45/2 44/44/2 46/46/2
f 47/47/2 48/48/2 49/49/2
f 49/49/2 48/48/2 50/50/2
f 50/50/2 48/48/2 51/51/2
f 52/52/2 53/53/2 54/54/2
f 54/54/2 53/53/2 55/55/2
f 55/55/2 53/53/2 56/56/2
f 50/50/2 51/51/2 57/57/2
f 54/54/2 55/55/2 57/57/2
f 51/51/2 54/54/2 57/57/2
f 57/57/2 55/55/2 58/58/2
f 58/58/2 55/55/2 59/59/2
f 59/59/2 55/55/2 60/60/2
f 61/61/2 62/62/2 63/63/2
f 63/63/2 62/62/2 64/64/2
f 65/65/2 66/66/2 67/67/2
f 67/67/2 66/66/2 68/68/2
f 68/68/2 66/66/2 69/69/2
f 69/69/2 66/66/2 70/70/2
f 68/68/2 69/69/2 71/71/2
f 71/71/2 69/69/2 72/72/2
f 72/72/2 69/69/2 73/73/2
f 73/73/2 69/69/2 74/74/2
f 72/72/2 73/73/2 75/75/2
f 75/75/2 73/73/2 76/76/2
f 77/77/2 78/78/2 79/79/2
f 79/79/2 78/78/2 80/80/2
f 81/81/2 82/82/2 83/83/2
f 83/83/2 82/82/2 84/84/2
f 85/85/3 86/86/3 87/87/3
f 88/88/3 86/86/3 85/85/3
f 89/89/3 90/90/3 91/91/3
f 92/92/3 90/90/3 89/89/3
f 93/93/3 94/94/3 95/95/3
f 96/96/3 94/94/3 93/93/3
f 97/97/3 98/98/3 99/99/3
f 100/100/3 98/98/3 97/97/3
f 101/101/3 102/102/3 103/103/3
f 104/104/3 102/102/3 101/101/3
f 105/105/3 106/106/3 107/107/3
f 108/108/3 106/106/3 105/105/3
f 109/109/3 110/110/3 111/111/3
f 112/112/3 110/110/3 109/109/3
f 113/113/3 110/110/3 112/112/3
f 114/114/3 115/115/3 116/116/3
f 117/117/3 115/115/3 114/114/3
f 118/118/3 112/112/3 109/109/3
f 119/119/3 112/112/3 118/118/3
f 120/120/3 121/121/3 119/119/3
f 120/120/3 119/119/3 118/118/3
f 122/122/3 121/121/3 120/120/3
f 123/123/3 124/124/3 125/125/3
f 126/126/3 124/124/3 123/123/3
f 127/127/3 124/124/3 126/126/3
f 128/128/3 124/124/3 127/127/3
f 129/129/3 124/124/3 128/128/3
f 130/130/3 124/124/3 129/129/3
f 131/131/4 132/132/4 133/133/4
f 133/133/4 132/132/4 134/134/4
f 134/134/4 132/132/4 135/135/4
f 135/135/4 132/132/4 136/136/4
f 136/136/4 132/132/4 137/137/4
f 137/137/4 132/132/4 138/138/4
f 139/139/4 140/140/4 141/141/4
f 141/141/4 140/140/4 142/142/4
f 142/142/4 140/140/4 143/143/4
f 144/144/4 145/145/4 146/146/4
f 146/146/4 145/145/4 147/147/4
f 141/141/4 142/142/4 148/148/4
f 148/148/4 142/142/4 149/149/4
f 149/149/4 150/150/4 151/151/4
f 148/148/4 149/149/4 151/151/4
f 151/151/4 150/150/4 152/152/4
f 153/153/4 154/154/4 155/155/4
f 155/155/4 154/154/4 156/156/4
f 157/157/4 158/158/4 159/159/4
f 159/159/4 158/158/4 160/160/4
f 161/161/4 162/162/4 163/163/4
f 163/163/4 162/162/4 164/164/4
f 165/165/4 166/166/4 167/167/4
f 167/167/4 166/166/4 168/168/4
f 169/169/4 170/170/4 171/171/4
f 171/171/4 170/170/4 172/172/4
f 173/173/4 174/174/4 175/175/4
f 175/175/4 174/174/4 176/176/4
f 177/177/5 178/178/5 179/179/5
f 180/180/5 181/181/5 182/182/5
f 183/183/5 177/177/5 179/179/5
f 183/183/5 180/180/5 177/177/5
f 184/184/5 181/181/5 180/180/5
f 184/184/5 180/180/5 183/183/5
f 185/185/5 183/183/5 179/179/5
f 186/186/5 183/183/5 185/185/5
f 187/187/5 181/181/5 184/184/5
f 188/188/5 181/181/5 187/187/5
f 189/189/5 190/190/5 191/191/5
f 192/192/5 190/190/5 189/189/5
f 193/193/5 194/194/5 195/195/5
f 196/196/5 194/194/5 193/193/5
f 197/197/5 194/194/5 196/196/5
f 198/198/5 194/194/5 197/197/5
f 199/199/5 193/193/5 195/195/5
f 200/200/5 197/197/5 196/196/5
f 201/201/5 197/197/5 200/200/5
f 202/202/5 194/194/5 198/198/5
f 203/203/5 201/201/5 200/200/5
f 203/203/5 202/202/5 201/201/5
f 203/203/5 199/199/5 195/195/5
f 203/203/5 200/200/5 199/199/5
f 204/204/5 194/194/5 202/202/5
f 204/204/5 202/202/5 203/203/5
f 205/205/5 206/206/5 207/207/5
f 208/208/5 206/206/5 205/205/5
f 209/209/5 205/205/5 207/207/5
f 210/210/5 206/206/5 208/208/5
f 211/211/5 209/209/5 207/207/5
f 211/211/5 210/210/5 209/209/5
f 212/212/5 206/206/5 210/210/5
f 212/212/5 210/210/5 211/211/5
f 213/213/6 214/214/6 215/215/6
f 215/215/6 214/214/6 216/216/6
f 217/217/6 218/218/6 219/219/6
f 219/219/6 218/218/6 220/220/6
f 221/221/6 222/222/6 223/223/6
f 223/223/6 222/222/6 224/224/6
f 225/225/6 226/226/6 227/227/6
f 227/227/6 226/226/6 228/228/6
f 229/229/6 230/230/6 231/231/6
f 231/231/6 230/230/6 232/232/6
f 233/233/6 234/234/6 235/235/6
f 235/235/6 234/234/6 236/236/6
f 237/237/6 238/238/6 239/239/6
f 239/239/6 238/238/6 240/240/6
f 241/241/6 242/242/6 243/243/6
f 243/243/6 242/242/6 244/244/6
f 245/245/6 246/246/6 247/247/6
f 247/247/6 246/246/6 248/248/6
f 249/249/6 250/250/6 251/251/6
f 251/251/6 250/250/6 252/252/6
f 253/253/6 254/254/6 255/255/6
f 255/255/6 254/254/6 256/256/6
f 254/257/6 257/258/6 258/259/6
f 256/256/6 254/254/6 258/260/6
f 257/261/6 259/262/6 260/263/6
f 258/259/6 257/258/6 260/264/6
f 260/263/6 259/262/6 261/265/6
f 261/265/6 259/262/6 262/266/6
f 259/267/6 263/268/6 264/269/6
f 262/266/6 259/262/6 264/270/6
f 263/271/6 265/272/6 266/273/6
f 264/269/6 263/268/6 266/274/6
f 255/275/6 256/276/6 267/277/6
f 253/253/6 255/255/6 267/278/6
f 256/256/6 258/260/6 268/279/6
f 267/277/6 256/276/6 268/280/6
f 258/260/6 260/263/6 268/279/6
f 260/263/6 261/265/6 268/279/6
f 268/279/6 261/265/6 269/281/6
f 269/281/6 261/265/6 270/282/6
f 261/283/6 262/284/6 271/285/6
f 270/282/6 261/265/6 271/286/6
f 262/266/6 264/270/6 272/287/6
f 271/285/6 262/284/6 272/288/6
f 264/270/6 266/273/6 272/287/6
f 253/253/6 267/278/6 273/289/6
f 268/279/6 269/281/6 273/289/6
f 267/278/6 268/279/6 273/289/6
f 273/289/6 269/281/6 274/290/6
f 269/291/6 270/292/6 275/293/6
f 274/290/6 269/281/6 275/294/6
f 270/282/6 271/286/6 276/295/6
f 275/293/6 270/292/6 276/296/6
f 271/286/6 272/287/6 276/295/6
f 276/295/6 272/287/6 277/297/6
f 277/297/6 272/287/6 278/298/6
f 273/299/6 274/300/6 279/301/6
f 253/253/6 273/289/6 279/302/6
f 274/290/6 275/294/6 280/303/6
f 279/301/6 274/300/6 280/304/6
f 275/294/6 276/295/6 280/303/6
f 276/295/6 277/297/6 280/303/6
f 280/303/6 277/297/6 281/305/6
f 281/305/6 277/297/6 282/306/6
f 277/307/6 278/308/6 283/309/6
f 282/306/6 277/297/6 283/310/6
f 278/298/6 272/287/6 284/311/6
f 283/309/6 278/308/6 284/312/6
f 272/287/6 266/273/6 285/313/6
f 284/311/6 272/287/6 285/313/6
f 285/313/6 266/273/6 286/314/6
f 253/253/6 279/302/6 287/315/6
f 279/302/6 280/303/6 287/315/6
f 280/303/6 281/305/6 287/315/6
f 281/316/6 282/317/6 288/318/6
f 287/315/6 281/305/6 288/319/6
f 283/310/6 284/311/6 289/320/6
f 288/318/6 282/317/6 289/321/6
f 282/306/6 283/310/6 289/320/6
f 284/311/6 285/313/6 289/320/6
f 285/322/6 286/323/6 290/324/6
f 289/320/6 285/313/6 290/325/6
f 286/314/6 266/273/6 291/326/6
f 290/324/6 286/323/6 291/327/6
f 266/273/6 265/272/6 292/328/6
f 291/326/6 266/273/6 292/328/6
f 293/329/6 294/330/6 295/331/6
f 295/331/6 294/330/6 296/332/6
f 293/329/6 295/331/6 297/333/6
f 296/332/6 294/330/6 298/334/6
f 293/329/6 297/333/6 299/335/6
f 297/333/6 298/334/6 299/335/6
f 298/334/6 294/330/6 300/336/6
f 299/335/6 298/334/6 300/336/6
