# Blender v2.93.0 OBJ File: ''
# www.blender.org
mtllib TVS_VoxelFarm_FencePost.mtl
o ObjObject.002
v -0.150000 -0.650000 -0.050000
v -0.150000 -0.750000 -0.150000
v -0.150000 -0.750000 0.150000
v -0.150000 -0.650000 -0.150000
v -0.150000 -0.550000 0.150000
v -0.150000 -0.550000 -0.050000
v -0.150000 0.550000 0.050000
v -0.150000 0.550000 -0.150000
v -0.150000 0.650000 0.150000
v -0.150000 0.650000 0.050000
v -0.150000 0.750000 0.150000
v -0.150000 0.750000 -0.149999
v 0.150000 -0.750000 0.150000
v 0.150000 -0.750000 -0.150000
v 0.150000 -0.650000 0.050000
v 0.150000 -0.650000 -0.150000
v 0.150000 -0.550000 0.150000
v 0.150000 -0.550000 0.050000
v 0.150000 0.550000 -0.050000
v 0.150000 0.550000 -0.150000
v 0.150000 0.650000 0.150000
v 0.150000 0.650000 -0.050000
v 0.150000 0.750000 0.150000
v 0.150000 0.750000 -0.149999
v -0.050000 -0.650000 0.150000
v -0.150000 -0.550000 0.150000
v -0.150000 -0.750000 0.150000
v -0.050000 -0.550000 0.150000
v -0.150000 0.650000 0.150000
v -0.050000 0.550000 0.150000
v -0.050000 0.650000 0.150000
v -0.150000 0.750000 0.150000
v 0.050000 -0.650000 0.150000
v 0.050000 -0.550000 0.150000
v 0.050000 0.550000 0.150000
v 0.050000 0.650000 0.150000
v 0.150000 -0.750000 0.150000
v 0.150000 -0.550000 0.150000
v 0.150000 0.650000 0.150000
v 0.150000 0.750000 0.150000
v -0.150000 -0.750000 -0.150000
v -0.150000 -0.650000 -0.150000
v -0.050000 -0.650000 -0.150000
v -0.150000 0.550000 -0.150000
v -0.050000 -0.550000 -0.150000
v -0.150000 0.750000 -0.149999
v -0.050000 0.550000 -0.150000
v -0.050000 0.650000 -0.150000
v 0.050000 -0.650000 -0.150000
v 0.050000 -0.550000 -0.150000
v 0.050000 0.550000 -0.150000
v 0.050000 0.650000 -0.150000
v 0.150000 -0.750000 -0.150000
v 0.150000 -0.650000 -0.150000
v 0.150000 0.550000 -0.150000
v 0.150000 0.750000 -0.149999
v -0.150000 -0.750000 -0.150000
v 0.150000 -0.750000 0.150000
v -0.150000 -0.750000 0.150000
v 0.150000 -0.750000 -0.150000
v -0.150000 0.750000 0.150000
v 0.150000 0.750000 0.150000
v -0.150000 0.750000 -0.149999
v 0.150000 0.750000 -0.149999
vt 0.416016 0.500000
vt 0.416016 0.500000
vt 0.416016 0.500000
vt 0.416016 0.500000
vt 0.416016 0.500000
vt 0.412109 0.500000
vt 0.412109 0.500000
vt 0.412109 0.500000
vt 0.416016 0.500000
vt 0.412109 0.500000
vt 0.412109 0.500000
vt 0.412109 0.500000
vt 0.412109 0.500000
vt 0.408203 0.500000
vt 0.408203 0.500000
vt 0.408203 0.500000
vt 0.412109 0.500000
vt 0.408203 0.500000
vt 0.408203 0.500000
vt 0.408203 0.500000
vt 0.416016 0.500000
vt 0.416016 0.500000
vt 0.416016 0.500000
vt 0.416016 0.500000
vt 0.416016 0.500000
vt 0.412109 0.500000
vt 0.412109 0.500000
vt 0.412109 0.500000
vt 0.416016 0.500000
vt 0.412109 0.500000
vt 0.412109 0.500000
vt 0.412109 0.500000
vt 0.412109 0.500000
vt 0.408203 0.500000
vt 0.408203 0.500000
vt 0.408203 0.500000
vt 0.412109 0.500000
vt 0.408203 0.500000
vt 0.408203 0.500000
vt 0.408203 0.500000
vt 0.416016 0.500000
vt 0.416016 0.500000
vt 0.416016 0.500000
vt 0.412109 0.500000
vt 0.412109 0.500000
vt 0.412109 0.500000
vt 0.416016 0.500000
vt 0.412109 0.500000
vt 0.408203 0.500000
vt 0.408203 0.500000
vt 0.408203 0.500000
vt 0.412109 0.500000
vt 0.412109 0.500000
vt 0.416016 0.500000
vt 0.412109 0.500000
vt 0.412109 0.500000
vt 0.408203 0.500000
vt 0.408203 0.500000
vt 0.412109 0.500000
vt 0.408203 0.500000
vt 0.416016 0.500000
vt 0.416016 0.500000
vt 0.412109 0.500000
vt 0.416016 0.500000
vt 0.412109 0.500000
vt 0.408203 0.500000
vt 0.412109 0.500000
vt 0.408203 0.500000
vt 0.416016 0.500000
vt 0.416016 0.500000
vt 0.416016 0.500000
vt 0.412109 0.500000
vt 0.412109 0.500000
vt 0.412109 0.500000
vt 0.412109 0.500000
vt 0.408203 0.500000
vt 0.408203 0.500000
vt 0.408203 0.500000
vt 0.412109 0.500000
vt 0.408203 0.500000
vt 0.416016 0.500000
vt 0.416016 0.500000
vt 0.412109 0.500000
vt 0.412109 0.500000
vt 0.416016 0.500000
vt 0.412109 0.500000
vt 0.408203 0.500000
vt 0.412109 0.500000
vt 0.416016 0.500000
vt 0.412109 0.500000
vt 0.416016 0.500000
vt 0.412109 0.500000
vt 0.408203 0.500000
vt 0.408203 0.500000
vt 0.412109 0.500000
vt 0.408203 0.500000
vt 0.416016 0.500000
vt 0.416016 0.500000
vt 0.416016 0.500000
vt 0.416016 0.500000
vt 0.408203 0.500000
vt 0.408203 0.500000
vt 0.408203 0.500000
vt 0.408203 0.500000
vn -1.0000 -0.0000 0.0000
vn 1.0000 -0.0000 0.0000
vn 0.0000 -0.0000 1.0000
vn 0.0000 0.0000 -1.0000
vn 0.0000 -1.0000 0.0000
vn 0.0000 1.0000 0.0000
usemtl palette.088
s 1
f 1/1/1 2/2/1 3/3/1
f 4/4/1 2/2/1 1/1/1
f 5/5/1 1/1/1 3/3/1
f 6/6/1 4/7/1 1/8/1
f 6/9/1 1/1/1 5/5/1
f 7/10/1 6/6/1 5/11/1
f 8/12/1 4/7/1 6/6/1
f 8/12/1 6/6/1 7/10/1
f 9/13/1 7/10/1 5/11/1
f 10/14/1 8/15/1 7/16/1
f 10/17/1 7/10/1 9/13/1
f 11/18/1 10/14/1 9/19/1
f 12/20/1 8/15/1 10/14/1
f 12/20/1 10/14/1 11/18/1
f 13/21/2 14/22/2 15/23/2
f 15/23/2 14/22/2 16/24/2
f 13/21/2 15/23/2 17/25/2
f 15/26/2 16/27/2 18/28/2
f 17/25/2 15/23/2 18/29/2
f 17/30/2 18/28/2 19/31/2
f 18/28/2 16/27/2 19/31/2
f 19/31/2 16/27/2 20/32/2
f 17/30/2 19/31/2 21/33/2
f 19/34/2 20/35/2 22/36/2
f 21/33/2 19/31/2 22/37/2
f 21/38/2 22/36/2 23/39/2
f 22/36/2 20/35/2 24/40/2
f 23/39/2 22/36/2 24/40/2
f 25/41/3 26/42/3 27/43/3
f 28/44/3 29/45/3 26/46/3
f 28/47/3 26/42/3 25/41/3
f 30/48/3 29/45/3 28/44/3
f 31/49/3 32/50/3 29/51/3
f 31/52/3 29/45/3 30/48/3
f 33/53/3 30/48/3 28/44/3
f 33/54/3 25/41/3 27/43/3
f 33/53/3 28/44/3 25/55/3
f 34/56/3 30/48/3 33/53/3
f 35/57/3 31/49/3 30/58/3
f 35/59/3 30/48/3 34/56/3
f 36/60/3 32/50/3 31/49/3
f 36/60/3 31/49/3 35/57/3
f 37/61/3 34/62/3 33/54/3
f 37/61/3 33/54/3 27/43/3
f 38/63/3 35/59/3 34/56/3
f 38/64/3 34/62/3 37/61/3
f 38/63/3 36/65/3 35/59/3
f 39/66/3 32/50/3 36/60/3
f 39/67/3 36/65/3 38/63/3
f 40/68/3 32/50/3 39/66/3
f 41/69/4 42/70/4 43/71/4
f 42/72/4 44/73/4 43/74/4
f 43/74/4 44/73/4 45/75/4
f 44/76/4 46/77/4 47/78/4
f 45/75/4 44/73/4 47/79/4
f 47/78/4 46/77/4 48/80/4
f 43/71/4 45/81/4 49/82/4
f 41/69/4 43/71/4 49/82/4
f 47/79/4 48/83/4 50/84/4
f 49/82/4 45/81/4 50/85/4
f 45/75/4 47/79/4 50/84/4
f 50/84/4 48/83/4 51/86/4
f 48/80/4 46/77/4 52/87/4
f 51/86/4 48/83/4 52/88/4
f 41/69/4 49/82/4 53/89/4
f 50/84/4 51/86/4 54/90/4
f 53/89/4 49/82/4 54/91/4
f 49/92/4 50/84/4 54/90/4
f 51/93/4 52/87/4 55/94/4
f 54/90/4 51/86/4 55/95/4
f 52/87/4 46/77/4 56/96/4
f 55/94/4 52/87/4 56/96/4
f 57/97/5 58/98/5 59/99/5
f 60/100/5 58/98/5 57/97/5
f 61/101/6 62/102/6 63/103/6
f 63/103/6 62/102/6 64/104/6
