# Blender v2.93.0 OBJ File: ''
# www.blender.org
mtllib TVS_VoxelFarm_Pumpkin.mtl
o VS_Farm_Pumpkin
v -0.500000 0.300000 0.100000
v -0.500000 0.000000 0.000000
v -0.500000 -0.000000 0.100000
v -0.500000 0.300000 0.000000
v -0.500000 0.000000 -0.100000
v -0.500000 0.300000 -0.100000
v -0.500000 0.000000 -0.300000
v -0.500000 0.300000 -0.300000
v -0.500000 0.000000 -0.400000
v -0.500000 0.300000 -0.400000
v -0.500000 0.000000 -0.500000
v -0.500000 0.300000 -0.500000
v -0.500000 0.400000 0.000000
v -0.500000 0.400000 -0.100000
v -0.500000 0.400000 -0.300000
v -0.500000 0.400000 -0.400000
v -0.400000 0.400000 0.100000
v -0.400000 0.300000 0.000000
v -0.400000 0.300000 0.100000
v -0.400000 0.400000 0.000000
v -0.400000 0.400000 -0.400000
v -0.400000 0.300000 -0.500000
v -0.400000 0.300000 -0.400000
v -0.400000 0.400000 -0.500000
v -0.400000 0.500000 0.100000
v -0.400000 0.500000 0.000000
v -0.300000 0.300000 0.200000
v -0.300000 -0.000000 0.100000
v -0.300000 -0.000000 0.200000
v -0.300000 0.300000 0.100000
v -0.300000 0.400000 0.300000
v -0.300000 0.300000 0.300000
v -0.300000 0.400000 0.200000
v -0.300000 0.400000 0.100000
v -0.300000 0.500000 0.200000
v -0.300000 0.500000 0.100000
v -0.300000 0.500000 0.000000
v -0.300000 0.400000 -0.300000
v -0.300000 0.400000 -0.200000
v -0.300000 0.400000 -0.100000
v -0.300000 0.400000 0.000000
v -0.300000 0.500000 -0.100000
v -0.300000 0.500000 -0.200000
v -0.300000 0.500000 -0.300000
v -0.300000 0.600000 -0.100000
v -0.300000 0.600000 -0.200000
v -0.200000 -0.000000 0.200000
v -0.200000 -0.000000 0.100000
v -0.200000 0.100000 0.200000
v -0.200000 0.100000 0.100000
v -0.200000 0.200000 0.200000
v -0.200000 0.200000 0.100000
v -0.200000 0.300000 0.200000
v -0.200000 0.300000 0.100000
v -0.200000 0.300000 0.300000
v -0.200000 0.400000 0.300000
v -0.200000 0.400000 0.200000
v -0.200000 0.400000 0.100000
v -0.200000 0.500000 0.200000
v -0.200000 0.400000 -0.100000
v -0.200000 0.500000 -0.100000
v -0.200000 0.400000 -0.200000
v -0.200000 0.400000 -0.300000
v -0.200000 0.500000 -0.200000
v -0.200000 0.500000 -0.300000
v -0.200000 0.600000 -0.100000
v -0.200000 0.600000 -0.200000
v -0.100000 0.100000 0.200000
v -0.100000 0.100000 0.100000
v -0.100000 0.200000 0.200000
v -0.100000 0.200000 0.100000
v -0.100000 0.400000 -0.100000
v -0.100000 0.400000 -0.200000
v -0.100000 0.500000 -0.100000
v -0.100000 0.500000 -0.200000
v 0.000000 0.300000 0.100000
v 0.000000 0.300000 0.000000
v 0.000000 0.400000 0.100000
v 0.000000 0.400000 0.000000
v 0.000000 0.300000 -0.400000
v 0.000000 0.300000 -0.500000
v 0.000000 0.400000 -0.400000
v 0.000000 0.400000 -0.500000
v 0.100000 -0.000000 0.100000
v 0.100000 0.000000 0.000000
v 0.100000 0.300000 0.100000
v 0.100000 0.000000 -0.100000
v 0.100000 0.300000 0.000000
v 0.100000 0.000000 -0.300000
v 0.100000 0.300000 -0.100000
v 0.100000 0.000000 -0.400000
v 0.100000 0.300000 -0.300000
v 0.100000 0.000000 -0.500000
v 0.100000 0.300000 -0.400000
v 0.100000 0.300000 -0.500000
v 0.100000 0.400000 0.000000
v 0.100000 0.400000 -0.100000
v 0.100000 0.400000 -0.300000
v 0.100000 0.400000 -0.400000
v -0.200000 0.300000 0.300000
v -0.300000 0.400000 0.300000
v -0.300000 0.300000 0.300000
v -0.200000 0.400000 0.300000
v -0.200000 -0.000000 0.200000
v -0.300000 0.300000 0.200000
v -0.300000 -0.000000 0.200000
v -0.200000 0.100000 0.200000
v -0.200000 0.200000 0.200000
v -0.200000 0.300000 0.200000
v -0.200000 0.400000 0.200000
v -0.300000 0.500000 0.200000
v -0.300000 0.400000 0.200000
v -0.200000 0.500000 0.200000
v -0.100000 0.100000 0.200000
v -0.100000 0.200000 0.200000
v -0.400000 -0.000000 0.100000
v -0.500000 0.300000 0.100000
v -0.500000 -0.000000 0.100000
v -0.400000 0.300000 0.100000
v -0.300000 -0.000000 0.100000
v -0.300000 0.300000 0.100000
v -0.400000 0.400000 0.100000
v -0.300000 0.400000 0.100000
v -0.400000 0.500000 0.100000
v -0.300000 0.500000 0.100000
v -0.100000 -0.000000 0.100000
v -0.200000 0.100000 0.100000
v -0.200000 -0.000000 0.100000
v -0.100000 0.100000 0.100000
v -0.100000 0.200000 0.100000
v -0.200000 0.300000 0.100000
v -0.200000 0.200000 0.100000
v -0.100000 0.300000 0.100000
v -0.200000 0.400000 0.100000
v -0.100000 0.400000 0.100000
v 0.000000 -0.000000 0.100000
v 0.000000 0.300000 0.100000
v 0.000000 0.400000 0.100000
v 0.100000 -0.000000 0.100000
v 0.100000 0.300000 0.100000
v -0.400000 0.300000 0.000000
v -0.500000 0.400000 0.000000
v -0.500000 0.300000 0.000000
v -0.400000 0.400000 0.000000
v 0.100000 0.300000 0.000000
v 0.000000 0.400000 0.000000
v 0.000000 0.300000 0.000000
v 0.100000 0.400000 0.000000
v -0.200000 0.500000 -0.100000
v -0.300000 0.600000 -0.100000
v -0.300000 0.500000 -0.100000
v -0.200000 0.600000 -0.100000
v -0.100000 0.400000 -0.100000
v -0.200000 0.400000 -0.100000
v -0.100000 0.500000 -0.100000
v -0.400000 0.400000 0.000000
v -0.400000 0.500000 0.000000
v -0.300000 0.400000 0.000000
v -0.300000 0.500000 0.000000
v -0.300000 0.500000 -0.200000
v -0.300000 0.600000 -0.200000
v -0.200000 0.500000 -0.200000
v -0.200000 0.600000 -0.200000
v -0.200000 0.400000 -0.200000
v -0.100000 0.400000 -0.200000
v -0.100000 0.500000 -0.200000
v -0.300000 0.400000 -0.300000
v -0.300000 0.500000 -0.300000
v -0.200000 0.400000 -0.300000
v -0.200000 0.500000 -0.300000
v -0.500000 0.300000 -0.400000
v -0.500000 0.400000 -0.400000
v -0.400000 0.300000 -0.400000
v -0.400000 0.400000 -0.400000
v 0.000000 0.300000 -0.400000
v 0.000000 0.400000 -0.400000
v 0.100000 0.300000 -0.400000
v 0.100000 0.400000 -0.400000
v -0.500000 0.000000 -0.500000
v -0.500000 0.300000 -0.500000
v -0.400000 0.000000 -0.500000
v -0.400000 0.300000 -0.500000
v -0.300000 0.000000 -0.500000
v -0.400000 0.400000 -0.500000
v -0.300000 0.300000 -0.500000
v -0.300000 0.400000 -0.500000
v -0.100000 0.000000 -0.500000
v -0.100000 0.300000 -0.500000
v -0.100000 0.400000 -0.500000
v 0.000000 0.000000 -0.500000
v 0.000000 0.300000 -0.500000
v 0.000000 0.400000 -0.500000
v 0.100000 0.000000 -0.500000
v 0.100000 0.300000 -0.500000
v -0.300000 -0.000000 0.100000
v -0.200000 -0.000000 0.200000
v -0.300000 -0.000000 0.200000
v -0.200000 -0.000000 0.100000
v -0.500000 0.000000 0.000000
v -0.400000 -0.000000 0.100000
v -0.500000 -0.000000 0.100000
v -0.400000 0.000000 0.000000
v -0.300000 0.000000 0.000000
v -0.100000 -0.000000 0.100000
v -0.100000 0.000000 0.000000
v 0.000000 -0.000000 0.100000
v 0.000000 0.000000 0.000000
v 0.100000 -0.000000 0.100000
v 0.100000 0.000000 0.000000
v -0.500000 0.000000 -0.100000
v -0.400000 0.000000 -0.100000
v 0.000000 0.000000 -0.100000
v 0.100000 0.000000 -0.100000
v -0.500000 0.000000 -0.300000
v -0.400000 0.000000 -0.300000
v 0.000000 0.000000 -0.300000
v 0.100000 0.000000 -0.300000
v -0.500000 0.000000 -0.400000
v -0.400000 0.000000 -0.400000
v -0.300000 0.000000 -0.400000
v -0.100000 0.000000 -0.400000
v 0.000000 0.000000 -0.400000
v 0.100000 0.000000 -0.400000
v -0.500000 0.000000 -0.500000
v -0.400000 0.000000 -0.500000
v -0.300000 0.000000 -0.500000
v -0.100000 0.000000 -0.500000
v 0.000000 0.000000 -0.500000
v 0.100000 0.000000 -0.500000
v -0.200000 0.100000 0.100000
v -0.100000 0.100000 0.200000
v -0.200000 0.100000 0.200000
v -0.100000 0.100000 0.100000
v -0.300000 0.300000 0.200000
v -0.200000 0.300000 0.300000
v -0.300000 0.300000 0.300000
v -0.200000 0.300000 0.200000
v -0.200000 0.200000 0.200000
v -0.100000 0.200000 0.200000
v -0.200000 0.200000 0.100000
v -0.100000 0.200000 0.100000
v -0.500000 0.300000 0.100000
v -0.400000 0.300000 0.100000
v -0.500000 0.300000 0.000000
v -0.400000 0.300000 0.000000
v 0.000000 0.300000 0.100000
v 0.100000 0.300000 0.100000
v 0.000000 0.300000 0.000000
v 0.100000 0.300000 0.000000
v -0.500000 0.300000 -0.400000
v -0.400000 0.300000 -0.400000
v -0.500000 0.300000 -0.500000
v -0.400000 0.300000 -0.500000
v 0.000000 0.300000 -0.400000
v 0.100000 0.300000 -0.400000
v 0.000000 0.300000 -0.500000
v 0.100000 0.300000 -0.500000
v -0.300000 0.400000 0.300000
v -0.200000 0.400000 0.300000
v -0.300000 0.400000 0.200000
v -0.200000 0.400000 0.200000
v -0.100000 0.400000 0.100000
v 0.000000 0.400000 0.100000
v 0.000000 0.400000 0.000000
v -0.400000 0.400000 0.000000
v -0.300000 0.400000 0.000000
v -0.500000 0.400000 -0.100000
v -0.500000 0.400000 0.000000
v -0.300000 0.400000 -0.100000
v -0.200000 0.400000 0.100000
v -0.200000 0.400000 -0.100000
v 0.100000 0.400000 0.000000
v -0.100000 0.400000 -0.100000
v 0.000000 0.400000 -0.100000
v 0.100000 0.400000 -0.100000
v -0.400000 0.400000 -0.200000
v -0.300000 0.400000 -0.200000
v -0.100000 0.400000 -0.200000
v 0.000000 0.400000 -0.200000
v -0.500000 0.400000 -0.300000
v -0.400000 0.400000 -0.300000
v -0.300000 0.400000 -0.300000
v -0.200000 0.400000 -0.200000
v -0.200000 0.400000 -0.300000
v 0.100000 0.400000 -0.300000
v -0.500000 0.400000 -0.400000
v -0.400000 0.400000 -0.400000
v -0.200000 0.400000 -0.400000
v -0.100000 0.400000 -0.400000
v 0.000000 0.400000 -0.400000
v 0.100000 0.400000 -0.400000
v -0.400000 0.400000 -0.500000
v -0.300000 0.400000 -0.500000
v -0.100000 0.400000 -0.500000
v 0.000000 0.400000 -0.500000
v -0.300000 0.500000 0.200000
v -0.200000 0.500000 0.200000
v -0.300000 0.500000 0.100000
v -0.400000 0.500000 0.100000
v -0.400000 0.500000 0.000000
v -0.300000 0.500000 0.000000
v -0.300000 0.500000 -0.100000
v -0.200000 0.500000 -0.100000
v -0.100000 0.500000 -0.100000
v -0.200000 0.500000 -0.200000
v -0.100000 0.500000 -0.200000
v -0.300000 0.500000 -0.200000
v -0.300000 0.500000 -0.300000
v -0.200000 0.500000 -0.300000
v -0.300000 0.600000 -0.100000
v -0.200000 0.600000 -0.100000
v -0.300000 0.600000 -0.200000
v -0.200000 0.600000 -0.200000
vt 0.853516 0.500000
vt 0.853516 0.500000
vt 0.853516 0.500000
vt 0.857422 0.500000
vt 0.857422 0.500000
vt 0.857422 0.500000
vt 0.853516 0.500000
vt 0.853516 0.500000
vt 0.853516 0.500000
vt 0.853516 0.500000
vt 0.857422 0.500000
vt 0.857422 0.500000
vt 0.857422 0.500000
vt 0.857422 0.500000
vt 0.853516 0.500000
vt 0.853516 0.500000
vt 0.853516 0.500000
vt 0.853516 0.500000
vt 0.857422 0.500000
vt 0.853516 0.500000
vt 0.853516 0.500000
vt 0.857422 0.500000
vt 0.853516 0.500000
vt 0.853516 0.500000
vt 0.857422 0.500000
vt 0.853516 0.500000
vt 0.853516 0.500000
vt 0.853516 0.500000
vt 0.853516 0.500000
vt 0.853516 0.500000
vt 0.853516 0.500000
vt 0.853516 0.500000
vt 0.853516 0.500000
vt 0.853516 0.500000
vt 0.904297 0.500000
vt 0.904297 0.500000
vt 0.904297 0.500000
vt 0.904297 0.500000
vt 0.904297 0.500000
vt 0.904297 0.500000
vt 0.904297 0.500000
vt 0.904297 0.500000
vt 0.904297 0.500000
vt 0.904297 0.500000
vt 0.904297 0.500000
vt 0.904297 0.500000
vt 0.904297 0.500000
vt 0.904297 0.500000
vt 0.904297 0.500000
vt 0.904297 0.500000
vt 0.904297 0.500000
vt 0.904297 0.500000
vt 0.904297 0.500000
vt 0.904297 0.500000
vt 0.904297 0.500000
vt 0.904297 0.500000
vt 0.904297 0.500000
vt 0.904297 0.500000
vt 0.904297 0.500000
vt 0.904297 0.500000
vt 0.904297 0.500000
vt 0.904297 0.500000
vt 0.904297 0.500000
vt 0.904297 0.500000
vt 0.904297 0.500000
vt 0.904297 0.500000
vt 0.904297 0.500000
vt 0.904297 0.500000
vt 0.904297 0.500000
vt 0.904297 0.500000
vt 0.904297 0.500000
vt 0.904297 0.500000
vt 0.904297 0.500000
vt 0.904297 0.500000
vt 0.904297 0.500000
vt 0.904297 0.500000
vt 0.904297 0.500000
vt 0.904297 0.500000
vt 0.904297 0.500000
vt 0.904297 0.500000
vt 0.904297 0.500000
vt 0.904297 0.500000
vt 0.904297 0.500000
vt 0.904297 0.500000
vt 0.904297 0.500000
vt 0.904297 0.500000
vt 0.904297 0.500000
vt 0.853516 0.500000
vt 0.853516 0.500000
vt 0.853516 0.500000
vt 0.853516 0.500000
vt 0.853516 0.500000
vt 0.853516 0.500000
vt 0.853516 0.500000
vt 0.853516 0.500000
vt 0.853516 0.500000
vt 0.853516 0.500000
vt 0.853516 0.500000
vt 0.857422 0.500000
vt 0.857422 0.500000
vt 0.857422 0.500000
vt 0.853516 0.500000
vt 0.853516 0.500000
vt 0.853516 0.500000
vt 0.853516 0.500000
vt 0.857422 0.500000
vt 0.857422 0.500000
vt 0.857422 0.500000
vt 0.857422 0.500000
vt 0.853516 0.500000
vt 0.853516 0.500000
vt 0.853516 0.500000
vt 0.853516 0.500000
vt 0.857422 0.500000
vt 0.853516 0.500000
vt 0.853516 0.500000
vt 0.857422 0.500000
vt 0.853516 0.500000
vt 0.853516 0.500000
vt 0.857422 0.500000
vt 0.853516 0.500000
vt 0.904297 0.500000
vt 0.904297 0.500000
vt 0.904297 0.500000
vt 0.904297 0.500000
vt 0.904297 0.500000
vt 0.904297 0.500000
vt 0.904297 0.500000
vt 0.904297 0.500000
vt 0.904297 0.500000
vt 0.904297 0.500000
vt 0.904297 0.500000
vt 0.904297 0.500000
vt 0.904297 0.500000
vt 0.904297 0.500000
vt 0.904297 0.500000
vt 0.904297 0.500000
vt 0.853516 0.500000
vt 0.853516 0.500000
vt 0.853516 0.500000
vt 0.853516 0.500000
vt 0.857422 0.500000
vt 0.857422 0.500000
vt 0.857422 0.500000
vt 0.853516 0.500000
vt 0.853516 0.500000
vt 0.857422 0.500000
vt 0.904297 0.500000
vt 0.904297 0.500000
vt 0.904297 0.500000
vt 0.853516 0.500000
vt 0.904297 0.500000
vt 0.853516 0.500000
vt 0.853516 0.500000
vt 0.853516 0.500000
vt 0.853516 0.500000
vt 0.853516 0.500000
vt 0.853516 0.500000
vt 0.853516 0.500000
vt 0.857422 0.500000
vt 0.857422 0.500000
vt 0.857422 0.500000
vt 0.853516 0.500000
vt 0.857422 0.500000
vt 0.857422 0.500000
vt 0.857422 0.500000
vt 0.857422 0.500000
vt 0.857422 0.500000
vt 0.853516 0.500000
vt 0.853516 0.500000
vt 0.857422 0.500000
vt 0.853516 0.500000
vt 0.853516 0.500000
vt 0.853516 0.500000
vt 0.853516 0.500000
vt 0.853516 0.500000
vt 0.853516 0.500000
vt 0.853516 0.500000
vt 0.853516 0.500000
vt 0.853516 0.500000
vt 0.853516 0.500000
vt 0.853516 0.500000
vt 0.853516 0.500000
vt 0.904297 0.500000
vt 0.904297 0.500000
vt 0.904297 0.500000
vt 0.904297 0.500000
vt 0.904297 0.500000
vt 0.904297 0.500000
vt 0.904297 0.500000
vt 0.904297 0.500000
vt 0.904297 0.500000
vt 0.904297 0.500000
vt 0.904297 0.500000
vt 0.904297 0.500000
vt 0.904297 0.500000
vt 0.904297 0.500000
vt 0.904297 0.500000
vt 0.904297 0.500000
vt 0.904297 0.500000
vt 0.904297 0.500000
vt 0.904297 0.500000
vt 0.904297 0.500000
vt 0.904297 0.500000
vt 0.904297 0.500000
vt 0.853516 0.500000
vt 0.853516 0.500000
vt 0.853516 0.500000
vt 0.853516 0.500000
vt 0.853516 0.500000
vt 0.853516 0.500000
vt 0.853516 0.500000
vt 0.853516 0.500000
vt 0.853516 0.500000
vt 0.853516 0.500000
vt 0.853516 0.500000
vt 0.853516 0.500000
vt 0.857422 0.500000
vt 0.857422 0.500000
vt 0.857422 0.500000
vt 0.853516 0.500000
vt 0.853516 0.500000
vt 0.857422 0.500000
vt 0.853516 0.500000
vt 0.853516 0.500000
vt 0.853516 0.500000
vt 0.857422 0.500000
vt 0.857422 0.500000
vt 0.853516 0.500000
vt 0.857422 0.500000
vt 0.857422 0.500000
vt 0.857422 0.500000
vt 0.853516 0.500000
vt 0.853516 0.500000
vt 0.857422 0.500000
vt 0.853516 0.500000
vt 0.853516 0.500000
vt 0.853516 0.500000
vt 0.853516 0.500000
vt 0.904297 0.500000
vt 0.904297 0.500000
vt 0.904297 0.500000
vt 0.904297 0.500000
vt 0.853516 0.500000
vt 0.853516 0.500000
vt 0.853516 0.500000
vt 0.857422 0.500000
vt 0.857422 0.500000
vt 0.857422 0.500000
vt 0.853516 0.500000
vt 0.853516 0.500000
vt 0.853516 0.500000
vt 0.853516 0.500000
vt 0.857422 0.500000
vt 0.853516 0.500000
vt 0.857422 0.500000
vt 0.857422 0.500000
vt 0.857422 0.500000
vt 0.853516 0.500000
vt 0.853516 0.500000
vt 0.853516 0.500000
vt 0.853516 0.500000
vt 0.857422 0.500000
vt 0.853516 0.500000
vt 0.857422 0.500000
vt 0.857422 0.500000
vt 0.853516 0.500000
vt 0.857422 0.500000
vt 0.857422 0.500000
vt 0.857422 0.500000
vt 0.853516 0.500000
vt 0.857422 0.500000
vt 0.853516 0.500000
vt 0.853516 0.500000
vt 0.853516 0.500000
vt 0.853516 0.500000
vt 0.853516 0.500000
vt 0.853516 0.500000
vt 0.857422 0.500000
vt 0.857422 0.500000
vt 0.857422 0.500000
vt 0.853516 0.500000
vt 0.857422 0.500000
vt 0.853516 0.500000
vt 0.853516 0.500000
vt 0.857422 0.500000
vt 0.857422 0.500000
vt 0.857422 0.500000
vt 0.853516 0.500000
vt 0.857422 0.500000
vt 0.853516 0.500000
vt 0.853516 0.500000
vt 0.857422 0.500000
vt 0.857422 0.500000
vt 0.853516 0.500000
vt 0.853516 0.500000
vt 0.857422 0.500000
vt 0.857422 0.500000
vt 0.857422 0.500000
vt 0.853516 0.500000
vt 0.853516 0.500000
vt 0.853516 0.500000
vt 0.857422 0.500000
vt 0.853516 0.500000
vt 0.904297 0.500000
vt 0.904297 0.500000
vt 0.904297 0.500000
vt 0.904297 0.500000
vt 0.904297 0.500000
vt 0.904297 0.500000
vt 0.904297 0.500000
vt 0.904297 0.500000
vt 0.904297 0.500000
vt 0.904297 0.500000
vt 0.904297 0.500000
vt 0.904297 0.500000
vt 0.853516 0.500000
vt 0.853516 0.500000
vt 0.853516 0.500000
vt 0.853516 0.500000
vt 0.853516 0.500000
vt 0.853516 0.500000
vt 0.853516 0.500000
vt 0.853516 0.500000
vt 0.853516 0.500000
vt 0.853516 0.500000
vt 0.853516 0.500000
vt 0.853516 0.500000
vt 0.853516 0.500000
vt 0.853516 0.500000
vt 0.853516 0.500000
vt 0.853516 0.500000
vt 0.904297 0.500000
vt 0.904297 0.500000
vt 0.904297 0.500000
vt 0.904297 0.500000
vt 0.853516 0.500000
vt 0.853516 0.500000
vt 0.853516 0.500000
vt 0.853516 0.500000
vt 0.853516 0.500000
vt 0.853516 0.500000
vt 0.853516 0.500000
vt 0.853516 0.500000
vt 0.857422 0.500000
vt 0.857422 0.500000
vt 0.857422 0.500000
vt 0.853516 0.500000
vt 0.853516 0.500000
vt 0.857422 0.500000
vt 0.853516 0.500000
vt 0.853516 0.500000
vt 0.857422 0.500000
vt 0.857422 0.500000
vt 0.857422 0.500000
vt 0.857422 0.500000
vt 0.853516 0.500000
vt 0.857422 0.500000
vt 0.857422 0.500000
vt 0.857422 0.500000
vt 0.853516 0.500000
vt 0.857422 0.500000
vt 0.853516 0.500000
vt 0.853516 0.500000
vt 0.853516 0.500000
vt 0.857422 0.500000
vt 0.853516 0.500000
vt 0.857422 0.500000
vt 0.857422 0.500000
vt 0.857422 0.500000
vt 0.857422 0.500000
vt 0.853516 0.500000
vt 0.853516 0.500000
vt 0.853516 0.500000
vt 0.857422 0.500000
vt 0.857422 0.500000
vt 0.853516 0.500000
vt 0.853516 0.500000
vt 0.853516 0.500000
vt 0.853516 0.500000
vt 0.853516 0.500000
vt 0.853516 0.500000
vt 0.853516 0.500000
vt 0.857422 0.500000
vt 0.853516 0.500000
vt 0.857422 0.500000
vt 0.853516 0.500000
vt 0.857422 0.500000
vt 0.853516 0.500000
vt 0.904297 0.500000
vt 0.904297 0.500000
vt 0.904297 0.500000
vt 0.904297 0.500000
vt 0.904297 0.500000
vt 0.904297 0.500000
vt 0.904297 0.500000
vt 0.904297 0.500000
vt 0.904297 0.500000
vt 0.904297 0.500000
vt 0.904297 0.500000
vt 0.904297 0.500000
vt 0.904297 0.500000
vt 0.904297 0.500000
vt 0.904297 0.500000
vt 0.904297 0.500000
vt 0.904297 0.500000
vt 0.904297 0.500000
vn -1.0000 0.0000 0.0000
vn 1.0000 -0.0000 0.0000
vn 0.0000 0.0000 1.0000
vn 0.0000 0.0000 -1.0000
vn 0.0000 -1.0000 -0.0000
vn 0.0000 1.0000 0.0000
usemtl palette.073
s 1
f 1/1/1 2/2/1 3/3/1
f 4/4/1 5/5/1 2/6/1
f 4/7/1 2/2/1 1/1/1
f 6/8/1 7/9/1 5/10/1
f 6/11/1 5/5/1 4/4/1
f 8/12/1 9/13/1 7/14/1
f 8/15/1 7/9/1 6/8/1
f 10/16/1 11/17/1 9/18/1
f 10/19/1 9/13/1 8/12/1
f 12/20/1 11/17/1 10/16/1
f 13/21/1 6/8/1 4/7/1
f 14/22/1 8/12/1 6/11/1
f 14/23/1 6/8/1 13/21/1
f 15/24/1 10/16/1 8/15/1
f 15/25/1 8/12/1 14/22/1
f 16/26/1 10/16/1 15/24/1
f 17/27/1 18/28/1 19/29/1
f 20/30/1 18/28/1 17/27/1
f 21/31/1 22/32/1 23/33/1
f 24/34/1 22/32/1 21/31/1
f 25/35/1 20/36/1 17/37/1
f 26/38/1 20/36/1 25/35/1
f 27/39/1 28/40/1 29/41/1
f 30/42/1 28/40/1 27/39/1
f 31/43/1 27/39/1 32/44/1
f 31/43/1 30/42/1 27/39/1
f 33/45/1 30/42/1 31/43/1
f 34/46/1 30/42/1 33/45/1
f 35/47/1 34/46/1 33/45/1
f 36/48/1 34/46/1 35/47/1
f 37/49/1 38/50/1 39/51/1
f 37/49/1 39/51/1 40/52/1
f 37/49/1 40/52/1 41/53/1
f 42/54/1 38/50/1 37/49/1
f 43/55/1 38/50/1 42/54/1
f 44/56/1 38/50/1 43/55/1
f 45/57/1 43/55/1 42/54/1
f 46/58/1 43/55/1 45/57/1
f 47/59/2 48/60/2 49/61/2
f 49/61/2 48/60/2 50/62/2
f 51/63/2 52/64/2 53/65/2
f 53/65/2 52/64/2 54/66/2
f 55/67/2 53/65/2 56/68/2
f 53/65/2 54/66/2 56/68/2
f 56/68/2 54/66/2 57/69/2
f 57/69/2 54/66/2 58/70/2
f 57/69/2 58/70/2 59/71/2
f 58/70/2 60/72/2 59/71/2
f 59/71/2 60/72/2 61/73/2
f 62/74/2 63/75/2 64/76/2
f 64/76/2 63/75/2 65/77/2
f 61/73/2 64/76/2 66/78/2
f 66/78/2 64/76/2 67/79/2
f 68/80/2 69/81/2 70/82/2
f 70/82/2 69/81/2 71/83/2
f 72/84/2 73/85/2 74/86/2
f 74/86/2 73/85/2 75/87/2
f 76/88/2 77/89/2 78/90/2
f 78/90/2 77/89/2 79/91/2
f 80/92/2 81/93/2 82/94/2
f 82/94/2 81/93/2 83/95/2
f 84/96/2 85/97/2 86/98/2
f 85/99/2 87/100/2 88/101/2
f 86/98/2 85/97/2 88/102/2
f 87/103/2 89/104/2 90/105/2
f 88/101/2 87/100/2 90/106/2
f 89/107/2 91/108/2 92/109/2
f 90/105/2 89/104/2 92/110/2
f 91/111/2 93/112/2 94/113/2
f 92/109/2 91/108/2 94/114/2
f 94/113/2 93/112/2 95/115/2
f 88/102/2 90/105/2 96/116/2
f 90/106/2 92/109/2 97/117/2
f 96/116/2 90/105/2 97/118/2
f 92/110/2 94/113/2 98/119/2
f 97/117/2 92/109/2 98/120/2
f 98/119/2 94/113/2 99/121/2
f 100/122/3 101/123/3 102/124/3
f 103/125/3 101/123/3 100/122/3
f 104/126/3 105/127/3 106/128/3
f 107/129/3 105/127/3 104/126/3
f 108/130/3 105/127/3 107/129/3
f 109/131/3 105/127/3 108/130/3
f 110/132/3 111/133/3 112/134/3
f 113/135/3 111/133/3 110/132/3
f 114/136/3 108/130/3 107/129/3
f 115/137/3 108/130/3 114/136/3
f 116/138/3 117/139/3 118/140/3
f 119/141/3 117/139/3 116/138/3
f 120/142/3 119/143/3 116/144/3
f 121/145/3 122/146/3 119/141/3
f 121/147/3 119/143/3 120/142/3
f 123/148/3 124/149/3 122/150/3
f 123/151/3 122/146/3 121/145/3
f 125/152/3 124/149/3 123/148/3
f 126/153/3 127/154/3 128/155/3
f 129/156/3 127/154/3 126/153/3
f 130/157/3 131/158/3 132/159/3
f 133/160/3 134/161/3 131/162/3
f 133/163/3 131/158/3 130/157/3
f 135/164/3 134/161/3 133/160/3
f 136/165/3 130/166/3 129/167/3
f 136/165/3 129/167/3 126/168/3
f 136/165/3 133/160/3 130/166/3
f 137/169/3 135/170/3 133/163/3
f 137/171/3 133/160/3 136/165/3
f 138/172/3 135/170/3 137/169/3
f 139/173/3 137/169/3 136/174/3
f 140/175/3 137/169/3 139/173/3
f 141/176/3 142/177/3 143/178/3
f 144/179/3 142/177/3 141/176/3
f 145/180/3 146/181/3 147/182/3
f 148/183/3 146/181/3 145/180/3
f 149/184/3 150/185/3 151/186/3
f 152/187/3 150/185/3 149/184/3
f 153/188/3 149/184/3 154/189/3
f 155/190/3 149/184/3 153/188/3
f 156/191/4 157/192/4 158/193/4
f 158/193/4 157/192/4 159/194/4
f 160/195/4 161/196/4 162/197/4
f 162/197/4 161/196/4 163/198/4
f 164/199/4 162/197/4 165/200/4
f 165/200/4 162/197/4 166/201/4
f 167/202/4 168/203/4 169/204/4
f 169/204/4 168/203/4 170/205/4
f 171/206/4 172/207/4 173/208/4
f 173/208/4 172/207/4 174/209/4
f 175/210/4 176/211/4 177/212/4
f 177/212/4 176/211/4 178/213/4
f 179/214/4 180/215/4 181/216/4
f 181/216/4 180/215/4 182/217/4
f 181/218/4 182/219/4 183/220/4
f 182/217/4 184/221/4 185/222/4
f 183/220/4 182/219/4 185/223/4
f 185/222/4 184/221/4 186/224/4
f 183/225/4 185/222/4 187/226/4
f 185/223/4 186/227/4 188/228/4
f 187/226/4 185/222/4 188/229/4
f 188/228/4 186/227/4 189/230/4
f 187/231/4 188/228/4 190/232/4
f 188/229/4 189/233/4 191/234/4
f 190/232/4 188/228/4 191/235/4
f 191/234/4 189/233/4 192/236/4
f 190/237/4 191/234/4 193/238/4
f 193/238/4 191/234/4 194/239/4
f 195/240/5 196/241/5 197/242/5
f 198/243/5 196/241/5 195/240/5
f 199/244/5 200/245/5 201/246/5
f 202/247/5 195/248/5 200/249/5
f 202/250/5 200/245/5 199/244/5
f 203/251/5 198/252/5 195/253/5
f 203/254/5 195/248/5 202/247/5
f 203/251/5 204/255/5 198/252/5
f 205/256/5 206/257/5 204/258/5
f 205/259/5 204/255/5 203/251/5
f 207/260/5 208/261/5 206/262/5
f 207/263/5 206/257/5 205/256/5
f 209/264/5 208/261/5 207/260/5
f 210/265/5 202/247/5 199/266/5
f 211/267/5 205/259/5 203/251/5
f 211/268/5 202/247/5 210/265/5
f 211/267/5 203/251/5 202/250/5
f 211/267/5 207/260/5 205/259/5
f 212/269/5 209/270/5 207/263/5
f 212/271/5 207/260/5 211/267/5
f 213/272/5 209/270/5 212/269/5
f 214/273/5 211/267/5 210/274/5
f 214/273/5 212/271/5 211/267/5
f 214/273/5 213/275/5 212/271/5
f 215/276/5 213/275/5 214/273/5
f 216/277/5 213/275/5 215/276/5
f 217/278/5 213/275/5 216/277/5
f 218/279/5 215/280/5 214/281/5
f 219/282/5 216/277/5 215/276/5
f 219/283/5 215/280/5 218/279/5
f 220/284/5 216/277/5 219/282/5
f 221/285/5 216/277/5 220/284/5
f 222/286/5 217/287/5 216/288/5
f 222/289/5 216/277/5 221/285/5
f 223/290/5 217/287/5 222/286/5
f 224/291/5 219/282/5 218/292/5
f 225/293/5 220/294/5 219/283/5
f 225/295/5 219/282/5 224/291/5
f 226/296/5 221/285/5 220/284/5
f 226/297/5 220/294/5 225/293/5
f 227/298/5 222/286/5 221/299/5
f 227/300/5 221/285/5 226/296/5
f 228/301/5 223/302/5 222/289/5
f 228/303/5 222/286/5 227/298/5
f 229/304/5 223/302/5 228/301/5
f 230/305/5 231/306/5 232/307/5
f 233/308/5 231/306/5 230/305/5
f 234/309/5 235/310/5 236/311/5
f 237/312/5 235/310/5 234/309/5
f 238/313/6 239/314/6 240/315/6
f 240/315/6 239/314/6 241/316/6
f 242/317/6 243/318/6 244/319/6
f 244/319/6 243/318/6 245/320/6
f 246/321/6 247/322/6 248/323/6
f 248/323/6 247/322/6 249/324/6
f 250/325/6 251/326/6 252/327/6
f 252/327/6 251/326/6 253/328/6
f 254/329/6 255/330/6 256/331/6
f 256/331/6 255/330/6 257/332/6
f 258/333/6 259/334/6 260/335/6
f 260/335/6 259/334/6 261/336/6
f 262/337/6 263/338/6 264/339/6
f 265/340/6 266/341/6 267/342/6
f 268/343/6 265/340/6 267/342/6
f 267/342/6 266/341/6 269/344/6
f 270/345/6 262/346/6 271/347/6
f 264/339/6 272/348/6 273/349/6
f 271/347/6 262/346/6 273/350/6
f 262/337/6 264/339/6 273/349/6
f 273/349/6 272/348/6 274/351/6
f 274/351/6 272/348/6 275/352/6
f 267/353/6 269/354/6 276/355/6
f 276/355/6 269/354/6 277/356/6
f 273/349/6 274/351/6 278/357/6
f 274/358/6 275/359/6 279/360/6
f 278/357/6 274/351/6 279/361/6
f 267/353/6 276/355/6 280/362/6
f 276/363/6 277/364/6 281/365/6
f 280/362/6 276/355/6 281/366/6
f 281/365/6 277/364/6 282/367/6
f 283/368/6 278/369/6 284/370/6
f 278/369/6 279/360/6 284/370/6
f 279/360/6 275/359/6 285/371/6
f 284/370/6 279/360/6 285/371/6
f 281/365/6 282/367/6 286/372/6
f 280/373/6 281/365/6 286/372/6
f 286/372/6 282/367/6 287/374/6
f 282/375/6 284/370/6 288/376/6
f 284/377/6 285/378/6 288/379/6
f 288/379/6 285/378/6 289/380/6
f 289/380/6 285/378/6 290/381/6
f 290/381/6 285/378/6 291/382/6
f 287/374/6 282/367/6 292/383/6
f 282/375/6 288/376/6 293/384/6
f 292/383/6 282/367/6 293/385/6
f 288/376/6 289/386/6 293/384/6
f 289/380/6 290/381/6 294/387/6
f 293/384/6 289/386/6 294/388/6
f 294/387/6 290/381/6 295/389/6
f 296/390/6 297/391/6 298/392/6
f 299/393/6 298/392/6 300/394/6
f 298/392/6 297/391/6 301/395/6
f 300/394/6 298/392/6 301/395/6
f 301/395/6 297/391/6 302/396/6
f 302/396/6 297/391/6 303/397/6
f 303/397/6 304/398/6 305/399/6
f 305/399/6 304/398/6 306/400/6
f 307/401/6 305/399/6 308/402/6
f 308/402/6 305/399/6 309/403/6
f 310/404/6 311/405/6 312/406/6
f 312/406/6 311/405/6 313/407/6
